M48
;Layer_Color=9474304
;FILE_FORMAT=2:4
INCH,LZ
;TYPE=PLATED
T1F00S00C0.0240
T2F00S00C0.0400
T3F00S00C0.1250
%
T01
X04185Y01605
X0406Y0245
X0401Y0257
X0396
X0391Y0277
X0415Y0286
X0424Y0284
X0432
X0438Y0296
X0457Y02945
X0416Y0297
X0446Y0314
X0422Y03455
X0389Y03215
T02
X01111Y01422
X01289
X01711Y01478
X01889
X02111
X02289
Y01222
X02111
X01889
X01711
X02661Y01247
X02839
Y01503
X02661
X03111Y01347
X03289
X03586Y01322
X03764
Y01578
X03586
X03289Y01603
X03261Y02122
X03439
X03686
X03864
Y02378
X03686
X03439
X03261
X03289Y02872
X03586Y02922
X03764
X04515Y024
Y023
Y022
Y021
Y02
X02964Y02122
X02786
Y02378
X02964
X02464
X02286
Y02622
X02464
Y02878
X02286
X02289Y03022
X02111
X01889
X01711
X01664Y02703
Y02447
X01786Y02378
X01964
Y02122
X01786
X01664Y02053
Y01797
X02286Y01878
X02464
Y02122
X02286
Y01622
X02464
X03111Y01603
Y02872
X02839Y02997
X02661
X01289Y03078
X01111
Y02822
X01289
X01486Y02703
Y02447
Y02053
Y01797
X01289Y01678
X01111
X01275Y03355
X01375
X01475
X01575
X01711Y03278
X01889
X02111
X02289
X02661Y03253
X02839
X03111Y03128
X03289
X03586Y03178
X03764
T03
X04525Y017
Y028
X01225Y0225
M30
