%FSTAX24Y24*%
%MOIN*%
G70*
G01*
G75*
G04 Layer_Color=32896*
%ADD10R,0.0050X0.1000*%
%ADD11R,0.0500X0.0500*%
%ADD12R,0.0500X0.0500*%
%ADD13R,0.1969X0.0480*%
%ADD14R,0.0240X0.0870*%
%ADD15R,0.0240X0.0870*%
%ADD16C,0.0240*%
%ADD17C,0.0200*%
%ADD18C,0.0160*%
%ADD19C,0.0120*%
%ADD20O,0.0679X0.1200*%
%ADD21O,0.1200X0.0679*%
%ADD22C,0.1550*%
%ADD23C,0.0400*%
%ADD24C,0.0060*%
%ADD25C,0.0050*%
%ADD26C,0.0020*%
%ADD27C,0.0100*%
%ADD28C,0.0034*%
%ADD29R,0.0130X0.1080*%
%ADD30R,0.0660X0.0660*%
%ADD31R,0.0660X0.0660*%
%ADD32R,0.2049X0.0560*%
%ADD33R,0.0320X0.0950*%
%ADD34R,0.0320X0.0950*%
%ADD35O,0.0759X0.1280*%
%ADD36O,0.1280X0.0759*%
%ADD37C,0.1630*%
%ADD38C,0.0480*%
G36*
X043475Y013266D02*
X043497Y013264D01*
X043517Y013261D01*
X043535Y013256D01*
X043552Y013252D01*
X043568Y013247D01*
X043581Y013241D01*
X043594Y013234D01*
X043606Y013229D01*
X043616Y013223D01*
X043625Y013217D01*
X043631Y013212D01*
X043636Y013209D01*
X043641Y013206D01*
X043643Y013203D01*
X043644Y013202D01*
X043656Y01319D01*
X043666Y013176D01*
X043676Y013162D01*
X043683Y013147D01*
X043689Y013134D01*
X043695Y013119D01*
X043703Y013091D01*
X043706Y013077D01*
X043708Y013066D01*
X04371Y013055D01*
X043711Y013046D01*
X043712Y013038D01*
Y013033D01*
Y013029D01*
Y013028D01*
X04371Y012996D01*
X043705Y012968D01*
X043698Y012943D01*
X04369Y012923D01*
X043686Y012913D01*
X043683Y012906D01*
X043679Y0129D01*
X043676Y012894D01*
X043674Y012889D01*
X043671Y012886D01*
X043669Y012885D01*
Y012884D01*
X043652Y012865D01*
X043632Y012848D01*
X043612Y012835D01*
X043593Y012824D01*
X043575Y012816D01*
X043568Y012813D01*
X043561Y012811D01*
X043556Y012808D01*
X043552Y012807D01*
X04355Y012806D01*
X043549D01*
X043537Y012894D01*
X043556Y012903D01*
X043573Y012911D01*
X043587Y01292D01*
X043597Y012928D01*
X043607Y012936D01*
X043612Y012942D01*
X043616Y012946D01*
X043617Y012947D01*
X043626Y01296D01*
X043631Y012974D01*
X043635Y012987D01*
X043639Y013D01*
X043641Y013011D01*
X043642Y013019D01*
Y013026D01*
Y013027D01*
Y013028D01*
X04364Y01305D01*
X043635Y01307D01*
X043628Y013088D01*
X04362Y013104D01*
X043612Y013116D01*
X043605Y013125D01*
X0436Y01313D01*
X043598Y013133D01*
X04358Y013146D01*
X043559Y013158D01*
X043538Y013165D01*
X043518Y013172D01*
X043499Y013176D01*
X043491Y013177D01*
X043484Y013178D01*
X043479D01*
X043473Y013179D01*
X04347D01*
Y012804D01*
X043461Y012803D01*
X043448D01*
X043425Y012804D01*
X043403Y012806D01*
X043383Y01281D01*
X043365Y012813D01*
X043347Y012818D01*
X043331Y012823D01*
X043318Y01283D01*
X043304Y012835D01*
X043292Y012841D01*
X043283Y012848D01*
X043274Y012853D01*
X043267Y012857D01*
X043262Y012861D01*
X043257Y012865D01*
X043255Y012867D01*
X043254Y012868D01*
X043241Y01288D01*
X043231Y012893D01*
X043221Y012907D01*
X043214Y012921D01*
X043207Y012934D01*
X043201Y012948D01*
X043193Y012974D01*
X04319Y012986D01*
X043187Y012997D01*
X043186Y013008D01*
X043185Y013016D01*
X043184Y013023D01*
Y013029D01*
Y013032D01*
Y013033D01*
X043185Y013052D01*
X043187Y01307D01*
X043191Y013087D01*
X043195Y013103D01*
X043201Y013119D01*
X043207Y013133D01*
X043213Y013145D01*
X043219Y013157D01*
X043227Y013167D01*
X043233Y013176D01*
X043238Y013184D01*
X043244Y013191D01*
X043249Y013196D01*
X043252Y013199D01*
X043254Y013201D01*
X043255Y013202D01*
X043269Y013214D01*
X043284Y013224D01*
X0433Y013232D01*
X043316Y013239D01*
X043333Y013246D01*
X043348Y013251D01*
X04338Y013259D01*
X043395Y013262D01*
X043409Y013264D01*
X043421Y013265D01*
X043432Y013266D01*
X043441Y013267D01*
X043453D01*
X043475Y013266D01*
D02*
G37*
G36*
X0437Y013371D02*
X043004D01*
Y013457D01*
X0437D01*
Y013371D01*
D02*
G37*
G36*
Y012578D02*
X043603D01*
Y012675D01*
X0437D01*
Y012578D01*
D02*
G37*
G36*
Y011695D02*
X043408D01*
X043392Y011693D01*
X043377Y011692D01*
X043363Y011689D01*
X043352Y011686D01*
X043341Y011683D01*
X043331Y01168D01*
X043323Y011675D01*
X043316Y011672D01*
X043309Y011669D01*
X043301Y011663D01*
X043295Y011658D01*
X043293Y011656D01*
X043282Y011641D01*
X043273Y011625D01*
X043267Y01161D01*
X043263Y011595D01*
X043261Y011581D01*
X043258Y011572D01*
Y011567D01*
Y011564D01*
Y011563D01*
Y011562D01*
X043259Y011549D01*
X043261Y011539D01*
X043264Y011528D01*
X043266Y01152D01*
X043269Y011512D01*
X043272Y011507D01*
X043273Y011504D01*
X043274Y011503D01*
X043281Y011494D01*
X043288Y011487D01*
X043294Y01148D01*
X043302Y011475D01*
X043307Y011472D01*
X043312Y01147D01*
X043316Y011468D01*
X043317D01*
X043327Y011465D01*
X043339Y011461D01*
X043353Y011459D01*
X043364Y011458D01*
X043376Y011457D01*
X0437D01*
Y011371D01*
X04337D01*
X043353Y011372D01*
X043338Y011374D01*
X043326D01*
X043318Y011375D01*
X043311Y011376D01*
X043308Y011377D01*
X043307D01*
X043294Y01138D01*
X043282Y011384D01*
X043271Y011388D01*
X043263Y011393D01*
X043255Y011397D01*
X043249Y0114D01*
X043246Y011402D01*
X043245Y011403D01*
X043235Y011411D01*
X043227Y01142D01*
X043219Y01143D01*
X043213Y011439D01*
X043208Y011448D01*
X043204Y011454D01*
X043202Y011458D01*
X043201Y01146D01*
X043196Y011475D01*
X043192Y011489D01*
X043189Y011504D01*
X043186Y011516D01*
X043185Y011527D01*
X043184Y011537D01*
Y011542D01*
Y011543D01*
Y011544D01*
X043185Y011563D01*
X043187Y011581D01*
X043192Y011598D01*
X043197Y011613D01*
X043203Y011628D01*
X043211Y01164D01*
X043218Y011652D01*
X043226Y011664D01*
X043234Y011673D01*
X043241Y011681D01*
X043249Y011688D01*
X043255Y011693D01*
X043261Y011699D01*
X043265Y011702D01*
X043267Y011703D01*
X043268Y011704D01*
X043196D01*
Y011781D01*
X0437D01*
Y011695D01*
D02*
G37*
G36*
Y01222D02*
Y012125D01*
X043004Y011853D01*
Y011946D01*
X043509Y012135D01*
X043531Y012142D01*
X043552Y01215D01*
X043571Y012156D01*
X043588Y012161D01*
X043603Y012166D01*
X043614Y012169D01*
X043618Y01217D01*
X043622Y012171D01*
X043623Y012172D01*
X043624D01*
X043584Y012184D01*
X043564Y01219D01*
X043546Y012196D01*
X043532Y012202D01*
X04352Y012205D01*
X043516Y012207D01*
X043513Y012208D01*
X04351Y012209D01*
X043509D01*
X043004Y012389D01*
Y01249D01*
X0437Y01222D01*
D02*
G37*
G36*
X043544Y015076D02*
X043558D01*
X04357Y015075D01*
X043578Y015074D01*
X043584D01*
X043588Y015073D01*
X043589D01*
X043603Y015069D01*
X043614Y015065D01*
X043625Y015061D01*
X043634Y015056D01*
X043642Y015052D01*
X043648Y015049D01*
X043651Y015047D01*
X043652Y015046D01*
X043662Y015038D01*
X043669Y015029D01*
X043677Y01502D01*
X043683Y01501D01*
X043688Y015002D01*
X043692Y014995D01*
X043694Y014991D01*
X043695Y014989D01*
X0437Y014974D01*
X043704Y014959D01*
X043707Y014946D01*
X04371Y014933D01*
X043711Y014921D01*
X043712Y014913D01*
Y014907D01*
Y014905D01*
X043711Y014887D01*
X043708Y014869D01*
X043704Y014853D01*
X043698Y014838D01*
X043692Y014824D01*
X043685Y01481D01*
X043677Y014798D01*
X043669Y014788D01*
X043662Y014778D01*
X043653Y01477D01*
X043647Y014762D01*
X04364Y014756D01*
X043634Y014752D01*
X04363Y014749D01*
X043628Y014746D01*
X043627Y014745D01*
X0437D01*
Y014669D01*
X043196D01*
Y014755D01*
X043467D01*
X043489Y014756D01*
X043509Y014757D01*
X043526Y014759D01*
X04354Y014762D01*
X043552Y014766D01*
X043559Y014768D01*
X043563Y014769D01*
X043566Y01477D01*
X043577Y014776D01*
X043588Y014782D01*
X043597Y014791D01*
X043605Y014798D01*
X043611Y014806D01*
X043615Y014812D01*
X043618Y014816D01*
X04362Y014817D01*
X043626Y01483D01*
X04363Y014843D01*
X043634Y014854D01*
X043636Y014865D01*
X043638Y014875D01*
X043639Y014882D01*
Y014886D01*
Y014888D01*
X043638Y014902D01*
X043635Y014915D01*
X043632Y014925D01*
X043629Y014935D01*
X043626Y014942D01*
X043623Y014948D01*
X043621Y014952D01*
X04362Y014953D01*
X043612Y014961D01*
X043604Y014969D01*
X043594Y014975D01*
X043586Y014979D01*
X043578Y014983D01*
X043572Y014985D01*
X043568Y014987D01*
X043567D01*
X043556Y014988D01*
X043542Y014989D01*
X043527Y01499D01*
X043513D01*
X043499Y014991D01*
X043196D01*
Y015077D01*
X043528D01*
X043544Y015076D01*
D02*
G37*
G36*
X0437Y01445D02*
X043408D01*
X043392Y014448D01*
X043377Y014447D01*
X043363Y014444D01*
X043352Y01444D01*
X043341Y014437D01*
X043331Y014434D01*
X043323Y01443D01*
X043316Y014427D01*
X043309Y014423D01*
X043301Y014417D01*
X043295Y014413D01*
X043293Y014411D01*
X043282Y014396D01*
X043273Y014379D01*
X043267Y014364D01*
X043263Y014349D01*
X043261Y014336D01*
X043258Y014326D01*
Y014322D01*
Y014319D01*
Y014318D01*
Y014316D01*
X043259Y014304D01*
X043261Y014293D01*
X043264Y014283D01*
X043266Y014274D01*
X043269Y014267D01*
X043272Y014261D01*
X043273Y014258D01*
X043274Y014257D01*
X043281Y014249D01*
X043288Y014241D01*
X043294Y014235D01*
X043302Y01423D01*
X043307Y014226D01*
X043312Y014224D01*
X043316Y014222D01*
X043317D01*
X043327Y014219D01*
X043339Y014216D01*
X043353Y014214D01*
X043364Y014213D01*
X043376Y014212D01*
X0437D01*
Y014126D01*
X04337D01*
X043353Y014127D01*
X043338Y014128D01*
X043326D01*
X043318Y014129D01*
X043311Y01413D01*
X043308Y014131D01*
X043307D01*
X043294Y014134D01*
X043282Y014139D01*
X043271Y014143D01*
X043263Y014147D01*
X043255Y014151D01*
X043249Y014154D01*
X043246Y014157D01*
X043245Y014158D01*
X043235Y014165D01*
X043227Y014175D01*
X043219Y014184D01*
X043213Y014194D01*
X043208Y014202D01*
X043204Y014208D01*
X043202Y014213D01*
X043201Y014215D01*
X043196Y01423D01*
X043192Y014243D01*
X043189Y014258D01*
X043186Y014271D01*
X043185Y014282D01*
X043184Y014291D01*
Y014296D01*
Y014297D01*
Y014298D01*
X043185Y014318D01*
X043187Y014336D01*
X043192Y014353D01*
X043197Y014367D01*
X043203Y014382D01*
X043211Y014395D01*
X043218Y014407D01*
X043226Y014418D01*
X043234Y014428D01*
X043241Y014435D01*
X043249Y014443D01*
X043255Y014448D01*
X043261Y014453D01*
X043265Y014456D01*
X043267Y014457D01*
X043268Y014458D01*
X043196D01*
Y014536D01*
X0437D01*
Y01445D01*
D02*
G37*
G36*
X043465Y014027D02*
X043484Y014026D01*
X043518Y01402D01*
X043534Y014015D01*
X043549Y01401D01*
X043562Y014005D01*
X043575Y014D01*
X043587Y013995D01*
X043596Y013989D01*
X043605Y013984D01*
X043612Y01398D01*
X043618Y013977D01*
X043623Y013973D01*
X043625Y013972D01*
X043626Y013971D01*
X043639Y01396D01*
X04365Y013948D01*
X04366Y013935D01*
X043668Y013921D01*
X043676Y013909D01*
X043682Y013895D01*
X043687Y013882D01*
X04369Y01387D01*
X043694Y013857D01*
X043696Y013846D01*
X043698Y013836D01*
X043699Y013827D01*
X0437Y01382D01*
Y013815D01*
Y013811D01*
Y01381D01*
X043699Y013795D01*
X043697Y013781D01*
X043694Y013767D01*
X043689Y013754D01*
X043679Y01373D01*
X043667Y01371D01*
X043656Y013694D01*
X043649Y013687D01*
X043645Y013681D01*
X043641Y013677D01*
X043638Y013674D01*
X043635Y013673D01*
X043634Y013672D01*
X043686D01*
X043696Y013673D01*
X043705D01*
X04372Y013675D01*
X043731Y013676D01*
X043738Y013677D01*
X043742Y013678D01*
X043743D01*
X043758Y013683D01*
X043772Y01369D01*
X043783Y013696D01*
X043792Y013703D01*
X0438Y013711D01*
X043805Y013716D01*
X043808Y01372D01*
X043809Y013721D01*
X043818Y013734D01*
X043823Y013749D01*
X043827Y013764D01*
X04383Y013779D01*
X043832Y013792D01*
X043833Y013803D01*
Y013807D01*
Y01381D01*
Y013811D01*
Y013812D01*
X043832Y013831D01*
X043829Y013849D01*
X043826Y013864D01*
X043821Y013876D01*
X043816Y013887D01*
X043813Y013893D01*
X04381Y013898D01*
X043809Y013899D01*
X043802Y013908D01*
X043793Y013914D01*
X043784Y013919D01*
X043774Y013924D01*
X043766Y013926D01*
X043759Y013928D01*
X043755Y013929D01*
X043753D01*
X043741Y014011D01*
X043756D01*
X04377Y014009D01*
X043794Y014004D01*
X043815Y013996D01*
X043832Y013986D01*
X043846Y013975D01*
X043856Y013967D01*
X043861Y013961D01*
X043863Y01396D01*
Y013959D01*
X043877Y013936D01*
X043887Y013912D01*
X043894Y013888D01*
X043899Y013864D01*
X043902Y013844D01*
X043903Y013835D01*
Y013827D01*
X043904Y013821D01*
Y013817D01*
Y013813D01*
Y013812D01*
X043903Y013785D01*
X0439Y013761D01*
X043895Y013738D01*
X04389Y013719D01*
X043885Y013704D01*
X04388Y013694D01*
X043878Y01369D01*
X043877Y013686D01*
X043876Y013685D01*
Y013684D01*
X043864Y013666D01*
X043851Y01365D01*
X043839Y013638D01*
X043826Y013627D01*
X043814Y01362D01*
X043806Y013613D01*
X0438Y01361D01*
X043798Y013609D01*
X043797D01*
X043788Y013605D01*
X043776Y013601D01*
X043751Y013595D01*
X043723Y013591D01*
X043697Y013588D01*
X043684Y013587D01*
X043671Y013586D01*
X043661D01*
X043651Y013585D01*
X043196D01*
Y013663D01*
X043257D01*
X043245Y013674D01*
X043233Y013685D01*
X043223Y013698D01*
X043215Y01371D01*
X043208Y013722D01*
X043202Y013735D01*
X043197Y013747D01*
X043194Y013758D01*
X043189Y013779D01*
X043186Y013788D01*
X043185Y013795D01*
X043184Y013802D01*
Y013806D01*
Y013809D01*
Y01381D01*
X043185Y013835D01*
X04319Y013857D01*
X043195Y013876D01*
X043201Y013894D01*
X043208Y013908D01*
X043213Y013918D01*
X043215Y013921D01*
X043217Y013925D01*
X043218Y013926D01*
Y013927D01*
X043232Y013945D01*
X043247Y01396D01*
X043263Y013972D01*
X043277Y013984D01*
X043291Y013992D01*
X043302Y013998D01*
X043306Y014D01*
X043309Y014002D01*
X043311Y014003D01*
X043312D01*
X043336Y014011D01*
X043359Y014018D01*
X043381Y014022D01*
X043402Y014025D01*
X043419Y014027D01*
X043427D01*
X043433Y014028D01*
X043446D01*
X043465Y014027D01*
D02*
G37*
G36*
X043539Y015597D02*
X043556Y015595D01*
X043571Y015592D01*
X043586Y015588D01*
X043598Y015584D01*
X04361Y01558D01*
X043621Y015576D01*
X043629Y015571D01*
X043638Y015566D01*
X043644Y015563D01*
X04365Y015559D01*
X043654Y015556D01*
X043658Y015553D01*
X043659Y015551D01*
X04366D01*
X043669Y015542D01*
X043677Y015531D01*
X043684Y015521D01*
X043689Y015509D01*
X043699Y015486D01*
X043705Y015463D01*
X043708Y015443D01*
X04371Y015434D01*
X043711Y015426D01*
X043712Y01542D01*
Y015416D01*
Y015413D01*
Y015411D01*
X043711Y015389D01*
X043707Y015368D01*
X043704Y01535D01*
X043699Y015334D01*
X043695Y015321D01*
X043692Y015312D01*
X043688Y015306D01*
X043687Y015303D01*
X043677Y015288D01*
X043665Y015273D01*
X043653Y015261D01*
X043641Y015252D01*
X04363Y015245D01*
X043622Y01524D01*
X043616Y015237D01*
X043614Y015236D01*
X043595Y015228D01*
X043573Y015223D01*
X043551Y01522D01*
X043528Y015217D01*
X043509Y015216D01*
X043501D01*
X043493Y015215D01*
X043004D01*
Y015307D01*
X043505D01*
X043523Y015309D01*
X043538Y01531D01*
X043551Y015312D01*
X04356Y015314D01*
X043567Y015315D01*
X043571Y015317D01*
X043572D01*
X043581Y015321D01*
X04359Y015327D01*
X043597Y015332D01*
X043603Y015338D01*
X043608Y015344D01*
X043611Y015348D01*
X043613Y015351D01*
X043614Y015352D01*
X04362Y015362D01*
X043624Y015371D01*
X043626Y015382D01*
X043628Y015391D01*
X043629Y015399D01*
X04363Y015405D01*
Y01541D01*
Y015411D01*
X043629Y015428D01*
X043626Y015443D01*
X043621Y015456D01*
X043615Y015467D01*
X043611Y015475D01*
X043606Y01548D01*
X043603Y015485D01*
X043602Y015486D01*
X043595Y01549D01*
X043588Y015494D01*
X043572Y015502D01*
X043554Y015507D01*
X043535Y01551D01*
X043518Y015513D01*
X04351Y015514D01*
X043504D01*
X043499Y015515D01*
X043491D01*
X043503Y015598D01*
X043522D01*
X043539Y015597D01*
D02*
G37*
%LPC*%
G36*
X0434Y013175D02*
X043377Y013172D01*
X043356Y013166D01*
X043338Y013159D01*
X043323Y013152D01*
X04331Y013144D01*
X043302Y013138D01*
X043297Y013134D01*
X043294Y013131D01*
X043281Y013116D01*
X043271Y013099D01*
X043264Y013083D01*
X043259Y013067D01*
X043256Y013053D01*
X043255Y013041D01*
X043254Y013037D01*
Y013034D01*
Y013033D01*
Y013032D01*
X043255Y01302D01*
X043256Y013009D01*
X043262Y012989D01*
X04327Y01297D01*
X04328Y012955D01*
X043289Y012943D01*
X043297Y012933D01*
X043303Y012928D01*
X043304Y012926D01*
X043305D01*
X043318Y012916D01*
X043334Y01291D01*
X043349Y012904D01*
X043364Y0129D01*
X043378Y012896D01*
X04339Y012894D01*
X043394D01*
X043397Y012893D01*
X0434D01*
Y013175D01*
D02*
G37*
G36*
X043449Y013941D02*
X043439D01*
X043408Y013938D01*
X043379Y013934D01*
X043367Y013931D01*
X043356Y013928D01*
X043345Y013925D01*
X043337Y01392D01*
X043328Y013917D01*
X043321Y013914D01*
X043316Y013911D01*
X04331Y013908D01*
X043307Y013905D01*
X043304Y013903D01*
X043302Y013901D01*
X043293Y013894D01*
X043286Y013885D01*
X043275Y01387D01*
X043267Y013853D01*
X043261Y013838D01*
X043257Y013824D01*
X043256Y013813D01*
X043255Y013809D01*
Y013806D01*
Y013805D01*
Y013804D01*
Y013793D01*
X043257Y013783D01*
X043263Y013764D01*
X04327Y013747D01*
X043279Y013733D01*
X043288Y013721D01*
X043295Y013713D01*
X043301Y013708D01*
X043302Y013705D01*
X043303D01*
X043312Y013698D01*
X043322Y013692D01*
X043344Y013681D01*
X043367Y013674D01*
X04339Y013669D01*
X043411Y013666D01*
X043419Y013665D01*
X043428D01*
X043434Y013664D01*
X04346D01*
X043477Y013666D01*
X043491Y013667D01*
X043505Y013671D01*
X043518Y013674D01*
X04353Y013677D01*
X04354Y01368D01*
X04355Y013684D01*
X043558Y013689D01*
X043566Y013692D01*
X043571Y013695D01*
X043576Y013698D01*
X043579Y0137D01*
X043582Y013702D01*
X043584Y013704D01*
X043585D01*
X043599Y01372D01*
X04361Y013736D01*
X043618Y013753D01*
X043624Y013768D01*
X043627Y013782D01*
X043628Y013793D01*
X043629Y013798D01*
Y0138D01*
Y013802D01*
Y013803D01*
X043628Y013813D01*
X043627Y013824D01*
X043622Y013843D01*
X043614Y01386D01*
X043606Y013874D01*
X043598Y013885D01*
X043591Y013894D01*
X043586Y013899D01*
X043584Y013901D01*
X043574Y013908D01*
X043564Y013914D01*
X043542Y013924D01*
X043518Y013931D01*
X043495Y013935D01*
X043473Y013938D01*
X043464Y013939D01*
X043455D01*
X043449Y013941D01*
D02*
G37*
%LPD*%
D26*
X040329Y013387D02*
Y013587D01*
Y012607D02*
Y012667D01*
X040349Y013107D02*
Y014927D01*
Y011847D02*
Y012687D01*
X040369Y012947D02*
Y014927D01*
Y011827D02*
Y012707D01*
X040389Y013467D02*
Y014947D01*
Y012827D02*
Y013427D01*
Y011827D02*
Y012707D01*
X040409Y014867D02*
Y014947D01*
Y013467D02*
Y013547D01*
Y012727D02*
Y013147D01*
Y012647D02*
Y012707D01*
Y011827D02*
Y011887D01*
X040429Y014867D02*
Y014947D01*
Y013467D02*
Y013547D01*
Y012647D02*
Y012987D01*
Y011827D02*
Y011887D01*
X040449Y014847D02*
Y014947D01*
Y013467D02*
Y013567D01*
Y012627D02*
Y012867D01*
Y011827D02*
Y011947D01*
X040469Y014787D02*
Y014947D01*
Y013487D02*
Y013607D01*
Y012587D02*
Y012767D01*
Y011827D02*
Y012027D01*
X040489Y014727D02*
Y014927D01*
Y013487D02*
Y013687D01*
Y012527D02*
Y012707D01*
Y011847D02*
Y012067D01*
X040509Y014687D02*
Y014907D01*
Y013507D02*
Y013747D01*
Y012467D02*
Y012687D01*
Y011907D02*
Y012107D01*
X040529Y014667D02*
Y014827D01*
Y013287D02*
Y013767D01*
Y012447D02*
Y012627D01*
Y011967D02*
Y012147D01*
X040549Y014627D02*
Y014767D01*
Y013147D02*
Y013787D01*
Y012427D02*
Y012567D01*
Y012027D02*
Y012167D01*
X040569Y014607D02*
Y014727D01*
Y013047D02*
Y013787D01*
Y012427D02*
Y012507D01*
Y012067D02*
Y012187D01*
X040589Y014587D02*
Y014707D01*
Y013627D02*
Y013787D01*
Y012987D02*
Y013327D01*
Y012427D02*
Y012487D01*
Y012087D02*
Y012207D01*
X040609Y014547D02*
Y014667D01*
Y013687D02*
Y013787D01*
Y012947D02*
Y013187D01*
Y012427D02*
Y012487D01*
Y012107D02*
Y012227D01*
X040629Y014527D02*
Y014647D01*
Y013687D02*
Y013767D01*
Y012907D02*
Y013087D01*
Y012427D02*
Y012487D01*
Y012147D02*
Y012247D01*
X040649Y014527D02*
Y014627D01*
Y013667D02*
Y013767D01*
Y012867D02*
Y013027D01*
Y012427D02*
Y012507D01*
Y012147D02*
Y012247D01*
X040669Y014507D02*
Y014607D01*
Y013647D02*
Y013747D01*
Y012827D02*
Y012987D01*
Y012427D02*
Y012527D01*
Y012127D02*
Y012267D01*
X040689Y014487D02*
Y014587D01*
Y013627D02*
Y013727D01*
Y012807D02*
Y012947D01*
Y012447D02*
Y012527D01*
Y012087D02*
Y012287D01*
X040709Y014467D02*
Y014587D01*
Y013627D02*
Y013707D01*
Y012787D02*
Y012907D01*
Y012447D02*
Y012547D01*
Y012067D02*
Y012307D01*
X040729Y014447D02*
Y014587D01*
Y013607D02*
Y013707D01*
Y012767D02*
Y012887D01*
Y012467D02*
Y012567D01*
Y012227D02*
Y012307D01*
Y012047D02*
Y012167D01*
X040749Y014427D02*
Y014587D01*
Y013587D02*
Y013687D01*
Y012747D02*
Y012847D01*
Y012487D02*
Y012587D01*
Y012227D02*
Y012327D01*
Y012027D02*
Y012147D01*
X040769Y014527D02*
Y014587D01*
Y014407D02*
Y014507D01*
Y013567D02*
Y013667D01*
Y012727D02*
Y012827D01*
Y012507D02*
Y012587D01*
Y012247D02*
Y012347D01*
Y012007D02*
Y012107D01*
X040789Y014527D02*
Y014587D01*
Y014407D02*
Y014507D01*
Y013567D02*
Y013647D01*
Y012707D02*
Y012807D01*
Y012507D02*
Y012607D01*
Y012267D02*
Y012367D01*
Y011987D02*
Y012087D01*
X040809Y014527D02*
Y014587D01*
Y014387D02*
Y014487D01*
Y013547D02*
Y013647D01*
Y012687D02*
Y012787D01*
Y012527D02*
Y012627D01*
Y012287D02*
Y012367D01*
Y011967D02*
Y012067D01*
X040829Y014527D02*
Y014587D01*
Y014367D02*
Y014467D01*
Y013527D02*
Y013627D01*
Y012667D02*
Y012767D01*
Y012547D02*
Y012647D01*
Y012287D02*
Y012387D01*
Y011947D02*
Y012047D01*
X040849Y014527D02*
Y014587D01*
Y014347D02*
Y014447D01*
Y013507D02*
Y013607D01*
Y012667D02*
Y012747D01*
Y012567D02*
Y012647D01*
Y012307D02*
Y012407D01*
Y011927D02*
Y012027D01*
X040869Y014527D02*
Y014587D01*
Y014327D02*
Y014427D01*
Y013487D02*
Y013587D01*
Y012567D02*
Y012747D01*
Y012327D02*
Y012407D01*
Y011907D02*
Y012007D01*
X040889Y014527D02*
Y014587D01*
Y014327D02*
Y014427D01*
Y013487D02*
Y013567D01*
Y012587D02*
Y012727D01*
Y012327D02*
Y012427D01*
Y011907D02*
Y011987D01*
X040909Y014527D02*
Y014587D01*
Y014307D02*
Y014407D01*
Y013467D02*
Y013567D01*
Y012607D02*
Y012707D01*
Y012347D02*
Y012447D01*
Y011887D02*
Y011987D01*
X040929Y014527D02*
Y014587D01*
Y014287D02*
Y014387D01*
Y013447D02*
Y013547D01*
Y012627D02*
Y012707D01*
Y012367D02*
Y012467D01*
Y011867D02*
Y011967D01*
X040949Y014527D02*
Y014587D01*
Y014267D02*
Y014367D01*
Y013427D02*
Y013527D01*
Y012627D02*
Y012727D01*
Y012387D02*
Y012467D01*
Y011867D02*
Y011947D01*
X040969Y014527D02*
Y014587D01*
Y014247D02*
Y014347D01*
Y013427D02*
Y013507D01*
Y012647D02*
Y012747D01*
Y012387D02*
Y012487D01*
Y011847D02*
Y011927D01*
X040989Y014527D02*
Y014587D01*
Y014247D02*
Y014327D01*
Y013407D02*
Y013507D01*
Y012667D02*
Y012767D01*
Y012407D02*
Y012507D01*
Y011827D02*
Y011927D01*
X041009Y014527D02*
Y014587D01*
Y014227D02*
Y014327D01*
Y013387D02*
Y013487D01*
Y012687D02*
Y012767D01*
Y012427D02*
Y012527D01*
Y011827D02*
Y011907D01*
X041029Y014527D02*
Y014587D01*
Y014207D02*
Y014307D01*
Y013367D02*
Y013467D01*
Y012687D02*
Y012787D01*
Y012447D02*
Y012527D01*
Y011807D02*
Y011907D01*
X041049Y014527D02*
Y014587D01*
Y014187D02*
Y014287D01*
Y013367D02*
Y013447D01*
Y012707D02*
Y012807D01*
Y012447D02*
Y012547D01*
Y011807D02*
Y011887D01*
X041069Y014527D02*
Y014587D01*
Y014167D02*
Y014267D01*
Y013347D02*
Y013447D01*
Y012727D02*
Y012807D01*
Y012467D02*
Y012567D01*
Y011807D02*
Y011867D01*
X041089Y014527D02*
Y014587D01*
Y014167D02*
Y014247D01*
Y013327D02*
Y013427D01*
Y012727D02*
Y012827D01*
Y012487D02*
Y012587D01*
Y011787D02*
Y011867D01*
X041109Y014527D02*
Y014587D01*
Y014147D02*
Y014247D01*
Y013307D02*
Y013407D01*
Y012747D02*
Y012847D01*
Y012507D02*
Y012587D01*
Y011787D02*
Y011867D01*
X041129Y014527D02*
Y014587D01*
Y014127D02*
Y014227D01*
Y013287D02*
Y013387D01*
Y012767D02*
Y012867D01*
Y012507D02*
Y012607D01*
Y011787D02*
Y011847D01*
X041149Y014527D02*
Y014587D01*
Y014107D02*
Y014207D01*
Y013287D02*
Y013367D01*
Y012787D02*
Y012867D01*
Y012527D02*
Y012627D01*
Y011767D02*
Y011847D01*
X041169Y014527D02*
Y014587D01*
Y014087D02*
Y014187D01*
Y013267D02*
Y013367D01*
Y012787D02*
Y012887D01*
Y012547D02*
Y012647D01*
Y011767D02*
Y011847D01*
X041189Y014527D02*
Y014587D01*
Y014087D02*
Y014167D01*
Y013247D02*
Y013347D01*
Y012807D02*
Y012907D01*
Y012547D02*
Y012647D01*
Y011767D02*
Y011827D01*
X041209Y014527D02*
Y014587D01*
Y014067D02*
Y014167D01*
Y013227D02*
Y013327D01*
Y012827D02*
Y012927D01*
Y012547D02*
Y012667D01*
Y011747D02*
Y011827D01*
X041229Y014527D02*
Y014587D01*
Y014047D02*
Y014147D01*
Y013227D02*
Y013307D01*
Y012847D02*
Y012927D01*
Y012547D02*
Y012687D01*
Y011747D02*
Y011827D01*
X041249Y014527D02*
Y014587D01*
Y014027D02*
Y014127D01*
Y013207D02*
Y013307D01*
Y012847D02*
Y012947D01*
Y012547D02*
Y012707D01*
Y011747D02*
Y011807D01*
X041269Y014527D02*
Y014587D01*
Y014007D02*
Y014107D01*
Y013187D02*
Y013287D01*
Y012867D02*
Y012967D01*
Y012627D02*
Y012707D01*
Y012527D02*
Y012607D01*
Y011747D02*
Y011807D01*
X041289Y014527D02*
Y014587D01*
Y013987D02*
Y014087D01*
Y013167D02*
Y013267D01*
Y012887D02*
Y012987D01*
Y012627D02*
Y012727D01*
Y012527D02*
Y012607D01*
Y011747D02*
Y011807D01*
X041309Y014527D02*
Y014587D01*
Y013987D02*
Y014087D01*
Y013147D02*
Y013247D01*
Y012907D02*
Y012987D01*
Y012647D02*
Y012747D01*
Y012527D02*
Y012587D01*
Y011747D02*
Y011807D01*
X041329Y014527D02*
Y014587D01*
Y013967D02*
Y014067D01*
Y013147D02*
Y013247D01*
Y012907D02*
Y013007D01*
Y012667D02*
Y012767D01*
Y012527D02*
Y012587D01*
Y011727D02*
Y011807D01*
X041349Y014527D02*
Y014587D01*
Y013947D02*
Y014047D01*
Y013127D02*
Y013227D01*
Y012927D02*
Y013027D01*
Y012687D02*
Y012767D01*
Y012527D02*
Y012587D01*
Y011727D02*
Y011807D01*
X041369Y014527D02*
Y014587D01*
Y013927D02*
Y014027D01*
Y013107D02*
Y013207D01*
Y012947D02*
Y013047D01*
Y012687D02*
Y012787D01*
Y012527D02*
Y012587D01*
Y011727D02*
Y011787D01*
X041389Y014527D02*
Y014587D01*
Y013907D02*
Y014007D01*
Y013087D02*
Y013187D01*
Y012967D02*
Y013047D01*
Y012707D02*
Y012807D01*
Y012527D02*
Y012587D01*
Y011727D02*
Y011787D01*
X041409Y014527D02*
Y014587D01*
Y013907D02*
Y014007D01*
Y012967D02*
Y013167D01*
Y012727D02*
Y012807D01*
Y012527D02*
Y012587D01*
Y011727D02*
Y011787D01*
X041429Y014527D02*
Y014587D01*
Y013887D02*
Y013987D01*
Y012987D02*
Y013167D01*
Y012727D02*
Y012827D01*
Y012527D02*
Y012587D01*
Y011727D02*
Y011787D01*
X041449Y014527D02*
Y014587D01*
Y013867D02*
Y013967D01*
Y013007D02*
Y013147D01*
Y012747D02*
Y012847D01*
Y012527D02*
Y012587D01*
Y011727D02*
Y011787D01*
X041469Y014527D02*
Y014587D01*
Y013847D02*
Y013947D01*
Y013027D02*
Y013107D01*
Y012767D02*
Y012867D01*
Y012527D02*
Y012587D01*
Y011727D02*
Y011787D01*
X041489Y014527D02*
Y014587D01*
Y013827D02*
Y013927D01*
Y012787D02*
Y012867D01*
Y012527D02*
Y012587D01*
Y011727D02*
Y011787D01*
X041509Y014527D02*
Y014587D01*
Y013827D02*
Y013907D01*
Y012787D02*
Y012887D01*
Y012527D02*
Y012587D01*
Y011727D02*
Y011787D01*
X041529Y014527D02*
Y014587D01*
Y013807D02*
Y013907D01*
Y012807D02*
Y012907D01*
Y012527D02*
Y012587D01*
Y011727D02*
Y011787D01*
X041549Y014527D02*
Y014587D01*
Y013787D02*
Y013887D01*
Y012827D02*
Y012927D01*
Y012527D02*
Y012587D01*
Y011727D02*
Y011787D01*
X041569Y014527D02*
Y014587D01*
Y013767D02*
Y013867D01*
Y012847D02*
Y012927D01*
Y012527D02*
Y012587D01*
Y011727D02*
Y011787D01*
X041589Y014527D02*
Y014587D01*
Y013747D02*
Y013847D01*
Y012847D02*
Y012947D01*
Y012527D02*
Y012587D01*
Y011727D02*
Y011807D01*
X041609Y014527D02*
Y014587D01*
Y013747D02*
Y013847D01*
Y012867D02*
Y012967D01*
Y012527D02*
Y012587D01*
Y011727D02*
Y011807D01*
X041629Y014527D02*
Y014587D01*
Y013727D02*
Y013827D01*
Y012887D02*
Y012987D01*
Y012527D02*
Y012587D01*
Y011727D02*
Y011807D01*
X041649Y014527D02*
Y014587D01*
Y013707D02*
Y013827D01*
Y012907D02*
Y012987D01*
Y012527D02*
Y012587D01*
Y011747D02*
Y011807D01*
X041669Y014527D02*
Y014587D01*
Y013687D02*
Y013827D01*
Y012907D02*
Y013007D01*
Y012527D02*
Y012587D01*
Y011747D02*
Y011807D01*
X041689Y014527D02*
Y014587D01*
Y013687D02*
Y013827D01*
Y012927D02*
Y013007D01*
Y012527D02*
Y012587D01*
Y011747D02*
Y011827D01*
X041709Y014527D02*
Y014587D01*
Y013687D02*
Y013827D01*
Y012947D02*
Y013007D01*
Y012527D02*
Y012607D01*
Y011747D02*
Y011827D01*
X041729Y014527D02*
Y014587D01*
Y013687D02*
Y013827D01*
Y012947D02*
Y013007D01*
Y012527D02*
Y012607D01*
Y011747D02*
Y011827D01*
X041749Y014527D02*
Y014587D01*
Y013767D02*
Y013827D01*
Y013687D02*
Y013747D01*
Y012947D02*
Y013007D01*
Y012547D02*
Y012607D01*
Y011767D02*
Y011827D01*
X041769Y014527D02*
Y014587D01*
Y013767D02*
Y013827D01*
Y013687D02*
Y013747D01*
Y012947D02*
Y013007D01*
Y012547D02*
Y012607D01*
Y011767D02*
Y011847D01*
X041789Y014527D02*
Y014587D01*
Y013767D02*
Y013827D01*
Y013687D02*
Y013747D01*
Y012947D02*
Y013007D01*
Y012547D02*
Y012607D01*
Y011767D02*
Y011847D01*
X041809Y014527D02*
Y014587D01*
Y013767D02*
Y013827D01*
Y013687D02*
Y013747D01*
Y012947D02*
Y013007D01*
Y012547D02*
Y012607D01*
Y011787D02*
Y011867D01*
X041829Y014527D02*
Y014587D01*
Y013767D02*
Y013827D01*
Y013687D02*
Y013747D01*
Y012947D02*
Y013007D01*
Y012547D02*
Y012627D01*
Y011787D02*
Y011867D01*
X041849Y014527D02*
Y014587D01*
Y013767D02*
Y013827D01*
Y013687D02*
Y013747D01*
Y012947D02*
Y013007D01*
Y012547D02*
Y012627D01*
Y011787D02*
Y011887D01*
X041869Y014527D02*
Y014587D01*
Y013767D02*
Y013827D01*
Y013687D02*
Y013747D01*
Y012947D02*
Y013007D01*
Y012567D02*
Y012627D01*
Y011807D02*
Y011887D01*
X041889Y014527D02*
Y014587D01*
Y013767D02*
Y013827D01*
Y013687D02*
Y013747D01*
Y012947D02*
Y013007D01*
Y012567D02*
Y012647D01*
Y011807D02*
Y011907D01*
X041909Y014527D02*
Y014587D01*
Y013767D02*
Y013827D01*
Y013687D02*
Y013747D01*
Y012947D02*
Y013007D01*
Y012567D02*
Y012647D01*
Y011827D02*
Y011907D01*
X041929Y014527D02*
Y014587D01*
Y013767D02*
Y013827D01*
Y013687D02*
Y013747D01*
Y012947D02*
Y013007D01*
Y012587D02*
Y012647D01*
Y011847D02*
Y011927D01*
X041949Y014527D02*
Y014587D01*
Y013767D02*
Y013827D01*
Y013687D02*
Y013747D01*
Y012947D02*
Y013007D01*
Y012587D02*
Y012667D01*
Y011847D02*
Y011947D01*
X041969Y014527D02*
Y014587D01*
Y013767D02*
Y013827D01*
Y013687D02*
Y013747D01*
Y012947D02*
Y013007D01*
Y012587D02*
Y012667D01*
Y011867D02*
Y011947D01*
X041989Y014527D02*
Y014587D01*
Y013767D02*
Y013827D01*
Y013687D02*
Y013747D01*
Y012947D02*
Y013007D01*
Y012607D02*
Y012687D01*
Y011867D02*
Y011967D01*
X042009Y014527D02*
Y014587D01*
Y013767D02*
Y013827D01*
Y013687D02*
Y013747D01*
Y012947D02*
Y013007D01*
Y012607D02*
Y012687D01*
Y011887D02*
Y011987D01*
X042029Y014527D02*
Y014587D01*
Y013767D02*
Y013827D01*
Y013687D02*
Y013747D01*
Y012947D02*
Y013007D01*
Y012627D02*
Y012707D01*
Y011907D02*
Y012007D01*
X042049Y014527D02*
Y014587D01*
Y013767D02*
Y013827D01*
Y013687D02*
Y013747D01*
Y012947D02*
Y013007D01*
Y012627D02*
Y012707D01*
Y011907D02*
Y012007D01*
X042069Y014527D02*
Y014587D01*
Y013767D02*
Y013827D01*
Y013687D02*
Y013747D01*
Y012947D02*
Y013007D01*
Y012647D02*
Y012727D01*
Y011927D02*
Y012027D01*
X042089Y014527D02*
Y014587D01*
Y013767D02*
Y013827D01*
Y013687D02*
Y013747D01*
Y012947D02*
Y013007D01*
Y012647D02*
Y012747D01*
Y011947D02*
Y012047D01*
X042109Y014527D02*
Y014587D01*
Y013767D02*
Y013827D01*
Y013687D02*
Y013747D01*
Y012947D02*
Y013007D01*
Y012667D02*
Y012747D01*
Y011967D02*
Y012067D01*
X042129Y014527D02*
Y014587D01*
Y013767D02*
Y013827D01*
Y013687D02*
Y013747D01*
Y012947D02*
Y013007D01*
Y012667D02*
Y012767D01*
Y011987D02*
Y012087D01*
X042149Y014527D02*
Y014587D01*
Y013767D02*
Y013827D01*
Y013687D02*
Y013747D01*
Y012947D02*
Y013007D01*
Y012687D02*
Y012787D01*
Y012007D02*
Y012107D01*
X042169Y014527D02*
Y014587D01*
Y013767D02*
Y013827D01*
Y013687D02*
Y013747D01*
Y012947D02*
Y013007D01*
Y012707D02*
Y012807D01*
Y012027D02*
Y012147D01*
X042189Y014527D02*
Y014587D01*
Y013767D02*
Y013827D01*
Y013687D02*
Y013747D01*
Y012947D02*
Y013007D01*
Y012727D02*
Y012827D01*
Y012047D02*
Y012167D01*
X042209Y014527D02*
Y014587D01*
Y013767D02*
Y013827D01*
Y013687D02*
Y013747D01*
Y012947D02*
Y013007D01*
Y012747D02*
Y012867D01*
Y012067D02*
Y012187D01*
X042229Y014527D02*
Y014587D01*
Y013767D02*
Y013827D01*
Y013687D02*
Y013747D01*
Y012947D02*
Y013007D01*
Y012767D02*
Y012887D01*
Y012087D02*
Y012227D01*
X042249Y014527D02*
Y014587D01*
Y013767D02*
Y013827D01*
Y013687D02*
Y013747D01*
Y012947D02*
Y013007D01*
Y012787D02*
Y012927D01*
Y012107D02*
Y012247D01*
X042269Y014527D02*
Y014587D01*
Y013767D02*
Y013827D01*
Y013687D02*
Y013747D01*
Y012807D02*
Y013007D01*
Y012147D02*
Y012287D01*
X042289Y014527D02*
Y014587D01*
Y013687D02*
Y013827D01*
Y012847D02*
Y013007D01*
Y012167D02*
Y012327D01*
X042309Y014527D02*
Y014587D01*
Y013687D02*
Y013827D01*
Y012887D02*
Y013007D01*
Y012207D02*
Y012367D01*
X042329Y014527D02*
Y014607D01*
Y013687D02*
Y013807D01*
Y012927D02*
Y013007D01*
Y012247D02*
Y012407D01*
X042349Y014527D02*
Y014647D01*
Y013687D02*
Y013787D01*
Y012927D02*
Y013007D01*
Y012287D02*
Y012447D01*
X042369Y014547D02*
Y014707D01*
Y013687D02*
Y013787D01*
Y012907D02*
Y013007D01*
Y012327D02*
Y012487D01*
X042389Y014547D02*
Y014767D01*
Y013687D02*
Y013827D01*
Y012867D02*
Y013007D01*
Y012367D02*
Y012547D01*
X042409Y014607D02*
Y014827D01*
Y013707D02*
Y013887D01*
Y012807D02*
Y012987D01*
Y012407D02*
Y012607D01*
X042429Y014667D02*
Y014887D01*
Y013727D02*
Y013947D01*
Y012747D02*
Y012967D01*
Y012447D02*
Y012647D01*
X042449Y014727D02*
Y014927D01*
Y013787D02*
Y014007D01*
Y012507D02*
Y012907D01*
X042469Y014787D02*
Y014927D01*
Y013847D02*
Y014087D01*
Y012547D02*
Y012847D01*
X042489Y014847D02*
Y014947D01*
Y013907D02*
Y014147D01*
Y012547D02*
Y012787D01*
X042509Y014867D02*
Y014947D01*
Y013967D02*
Y014167D01*
Y012527D02*
Y012727D01*
X042529Y014867D02*
Y014947D01*
Y014027D02*
Y014167D01*
Y012527D02*
Y012667D01*
X042549Y014827D02*
Y014947D01*
Y014087D02*
Y014187D01*
Y012527D02*
Y012607D01*
X042569Y014107D02*
Y014947D01*
Y012527D02*
Y012587D01*
X042589Y014087D02*
Y014927D01*
Y012527D02*
Y012607D01*
X042609Y012527D02*
Y014887D01*
X042629Y012527D02*
Y014167D01*
X042649Y012547D02*
Y014147D01*
M02*
