%FSTAX24Y24*%
%MOIN*%
G70*
G01*
G75*
%ADD10R,0.0050X0.1000*%
%ADD11R,0.0500X0.0500*%
%ADD12R,0.0500X0.0500*%
%ADD13R,0.1969X0.0480*%
%ADD14R,0.0240X0.0870*%
%ADD15R,0.0240X0.0870*%
%ADD16C,0.0240*%
%ADD17C,0.0200*%
%ADD18C,0.0160*%
%ADD19C,0.0120*%
%ADD20O,0.0679X0.1200*%
%ADD21O,0.1200X0.0679*%
%ADD22C,0.1550*%
%ADD23C,0.0400*%
%ADD24C,0.0060*%
%ADD25C,0.0050*%
%ADD26C,0.0020*%
%ADD27C,0.0100*%
%ADD28C,0.0034*%
%ADD29R,0.0130X0.1080*%
%ADD30R,0.0660X0.0660*%
%ADD31R,0.0660X0.0660*%
%ADD32R,0.2049X0.0560*%
%ADD33R,0.0320X0.0950*%
%ADD34R,0.0320X0.0950*%
%ADD35O,0.0759X0.1280*%
%ADD36O,0.1280X0.0759*%
%ADD37C,0.1630*%
%ADD38C,0.0480*%
%ADD39C,0.0067*%
D25*
X01255Y03355D02*
X01295D01*
X01275Y03335D02*
Y03375D01*
X01355Y03355D02*
X01395D01*
X01375Y03335D02*
Y03375D01*
X01455Y03355D02*
X01495D01*
X01475Y03335D02*
Y03375D01*
X01555Y03355D02*
X01595D01*
X01575Y03335D02*
Y03375D01*
X04495Y02D02*
X04535D01*
X04515Y0198D02*
Y0202D01*
X04495Y021D02*
X04535D01*
X04515Y0208D02*
Y0212D01*
X04495Y022D02*
X04535D01*
X04515Y0218D02*
Y0222D01*
X04495Y023D02*
X04535D01*
X04515Y0228D02*
Y0232D01*
X04495Y024D02*
X04535D01*
X04515Y0238D02*
Y0242D01*
X01091Y02822D02*
X01131D01*
X01111Y02802D02*
Y02842D01*
X01269Y02822D02*
X01309D01*
X01289Y02802D02*
Y02842D01*
X01091Y03078D02*
X01131D01*
X01111Y03058D02*
Y03098D01*
X01269Y03078D02*
X01309D01*
X01289Y03058D02*
Y03098D01*
X044625Y017D02*
X045875D01*
X04525Y016375D02*
Y017625D01*
X044625Y028D02*
X045875D01*
X04525Y027375D02*
Y028625D01*
X011625Y0225D02*
X012875D01*
X01225Y021875D02*
Y023125D01*
X01091Y01422D02*
X01131D01*
X01111Y01402D02*
Y01442D01*
X01269Y01422D02*
X01309D01*
X01289Y01402D02*
Y01442D01*
X01091Y01678D02*
X01131D01*
X01111Y01658D02*
Y01698D01*
X01269Y01678D02*
X01309D01*
X01289Y01658D02*
Y01698D01*
X03566Y02922D02*
X03606D01*
X03586Y02902D02*
Y02942D01*
X03744Y02922D02*
X03784D01*
X03764Y02902D02*
Y02942D01*
X03566Y03178D02*
X03606D01*
X03586Y03158D02*
Y03198D01*
X03744Y03178D02*
X03784D01*
X03764Y03158D02*
Y03198D01*
X03666Y02122D02*
X03706D01*
X03686Y02102D02*
Y02142D01*
X03844Y02122D02*
X03884D01*
X03864Y02102D02*
Y02142D01*
X03666Y02378D02*
X03706D01*
X03686Y02358D02*
Y02398D01*
X03844Y02378D02*
X03884D01*
X03864Y02358D02*
Y02398D01*
X03566Y01322D02*
X03606D01*
X03586Y01302D02*
Y01342D01*
X03744Y01322D02*
X03784D01*
X03764Y01302D02*
Y01342D01*
X03566Y01578D02*
X03606D01*
X03586Y01558D02*
Y01598D01*
X03744Y01578D02*
X03784D01*
X03764Y01558D02*
Y01598D01*
X03091Y02872D02*
X03131D01*
X03111Y02852D02*
Y02892D01*
X03269Y02872D02*
X03309D01*
X03289Y02852D02*
Y02892D01*
X03091Y03128D02*
X03131D01*
X03111Y03108D02*
Y03148D01*
X03269Y03128D02*
X03309D01*
X03289Y03108D02*
Y03148D01*
X02641Y02997D02*
X02681D01*
X02661Y02977D02*
Y03017D01*
X02819Y02997D02*
X02859D01*
X02839Y02977D02*
Y03017D01*
X02641Y03253D02*
X02681D01*
X02661Y03233D02*
Y03273D01*
X02819Y03253D02*
X02859D01*
X02839Y03233D02*
Y03273D01*
X03091Y01347D02*
X03131D01*
X03111Y01327D02*
Y01367D01*
X03269Y01347D02*
X03309D01*
X03289Y01327D02*
Y01367D01*
X03091Y01603D02*
X03131D01*
X03111Y01583D02*
Y01623D01*
X03269Y01603D02*
X03309D01*
X03289Y01583D02*
Y01623D01*
X03241Y02122D02*
X03281D01*
X03261Y02102D02*
Y02142D01*
X03419Y02122D02*
X03459D01*
X03439Y02102D02*
Y02142D01*
X03241Y02378D02*
X03281D01*
X03261Y02358D02*
Y02398D01*
X03419Y02378D02*
X03459D01*
X03439Y02358D02*
Y02398D01*
X02766Y02122D02*
X02806D01*
X02786Y02102D02*
Y02142D01*
X02944Y02122D02*
X02984D01*
X02964Y02102D02*
Y02142D01*
X02766Y02378D02*
X02806D01*
X02786Y02358D02*
Y02398D01*
X02944Y02378D02*
X02984D01*
X02964Y02358D02*
Y02398D01*
X02641Y01247D02*
X02681D01*
X02661Y01227D02*
Y01267D01*
X02819Y01247D02*
X02859D01*
X02839Y01227D02*
Y01267D01*
X02641Y01503D02*
X02681D01*
X02661Y01483D02*
Y01523D01*
X02819Y01503D02*
X02859D01*
X02839Y01483D02*
Y01523D01*
X02091Y03022D02*
X02131D01*
X02111Y03002D02*
Y03042D01*
X02269Y03022D02*
X02309D01*
X02289Y03002D02*
Y03042D01*
X02091Y03278D02*
X02131D01*
X02111Y03258D02*
Y03298D01*
X02269Y03278D02*
X02309D01*
X02289Y03258D02*
Y03298D01*
X02266Y02622D02*
X02306D01*
X02286Y02602D02*
Y02642D01*
X02444Y02622D02*
X02484D01*
X02464Y02602D02*
Y02642D01*
X02266Y02878D02*
X02306D01*
X02286Y02858D02*
Y02898D01*
X02444Y02878D02*
X02484D01*
X02464Y02858D02*
Y02898D01*
X02266Y02122D02*
X02306D01*
X02286Y02102D02*
Y02142D01*
X02444Y02122D02*
X02484D01*
X02464Y02102D02*
Y02142D01*
X02266Y02378D02*
X02306D01*
X02286Y02358D02*
Y02398D01*
X02444Y02378D02*
X02484D01*
X02464Y02358D02*
Y02398D01*
X02266Y01622D02*
X02306D01*
X02286Y01602D02*
Y01642D01*
X02444Y01622D02*
X02484D01*
X02464Y01602D02*
Y01642D01*
X02266Y01878D02*
X02306D01*
X02286Y01858D02*
Y01898D01*
X02444Y01878D02*
X02484D01*
X02464Y01858D02*
Y01898D01*
X02091Y01222D02*
X02131D01*
X02111Y01202D02*
Y01242D01*
X02269Y01222D02*
X02309D01*
X02289Y01202D02*
Y01242D01*
X02091Y01478D02*
X02131D01*
X02111Y01458D02*
Y01498D01*
X02269Y01478D02*
X02309D01*
X02289Y01458D02*
Y01498D01*
X01691Y03022D02*
X01731D01*
X01711Y03002D02*
Y03042D01*
X01869Y03022D02*
X01909D01*
X01889Y03002D02*
Y03042D01*
X01691Y03278D02*
X01731D01*
X01711Y03258D02*
Y03298D01*
X01869Y03278D02*
X01909D01*
X01889Y03258D02*
Y03298D01*
X01766Y02122D02*
X01806D01*
X01786Y02102D02*
Y02142D01*
X01944Y02122D02*
X01984D01*
X01964Y02102D02*
Y02142D01*
X01766Y02378D02*
X01806D01*
X01786Y02358D02*
Y02398D01*
X01944Y02378D02*
X01984D01*
X01964Y02358D02*
Y02398D01*
X01691Y01222D02*
X01731D01*
X01711Y01202D02*
Y01242D01*
X01869Y01222D02*
X01909D01*
X01889Y01202D02*
Y01242D01*
X01691Y01478D02*
X01731D01*
X01711Y01458D02*
Y01498D01*
X01869Y01478D02*
X01909D01*
X01889Y01458D02*
Y01498D01*
X01466Y02447D02*
X01506D01*
X01486Y02427D02*
Y02467D01*
X01644Y02447D02*
X01684D01*
X01664Y02427D02*
Y02467D01*
X01466Y02703D02*
X01506D01*
X01486Y02683D02*
Y02723D01*
X01644Y02703D02*
X01684D01*
X01664Y02683D02*
Y02723D01*
X01466Y01797D02*
X01506D01*
X01486Y01777D02*
Y01817D01*
X01644Y01797D02*
X01684D01*
X01664Y01777D02*
Y01817D01*
X01466Y02053D02*
X01506D01*
X01486Y02033D02*
Y02073D01*
X01644Y02053D02*
X01684D01*
X01664Y02033D02*
Y02073D01*
X04448Y0314D02*
X04472D01*
X0446Y03128D02*
Y03152D01*
X04558Y02945D02*
X04582D01*
X0457Y02933D02*
Y02957D01*
X04208Y03455D02*
X04232D01*
X0422Y03443D02*
Y03467D01*
X04368Y0296D02*
X04392D01*
X0438Y02948D02*
Y02972D01*
X04308Y0284D02*
X04332D01*
X0432Y02828D02*
Y02852D01*
X04228Y0284D02*
X04252D01*
X0424Y02828D02*
Y02852D01*
X04138Y0286D02*
X04162D01*
X0415Y02848D02*
Y02872D01*
X04173Y01605D02*
X04197D01*
X04185Y01593D02*
Y01617D01*
X04148Y0297D02*
X04172D01*
X0416Y02958D02*
Y02982D01*
X03878Y03215D02*
X03902D01*
X0389Y03203D02*
Y03227D01*
X04048Y0245D02*
X04072D01*
X0406Y02438D02*
Y02462D01*
X03898Y0277D02*
X03922D01*
X0391Y02758D02*
Y02782D01*
X03948Y0257D02*
X03972D01*
X0396Y02558D02*
Y02582D01*
X03998Y0257D02*
X04022D01*
X0401Y02558D02*
Y02582D01*
M02*
