%FSTAX24Y24*%
%MOIN*%
G70*
G01*
G75*
G04 Layer_Color=32896*
%ADD10R,0.0050X0.1000*%
%ADD11R,0.0500X0.0500*%
%ADD12R,0.0500X0.0500*%
%ADD13R,0.1969X0.0480*%
%ADD14R,0.0240X0.0870*%
%ADD15R,0.0240X0.0870*%
%ADD16C,0.0240*%
%ADD17C,0.0200*%
%ADD18C,0.0160*%
%ADD19C,0.0120*%
%ADD20O,0.0679X0.1200*%
%ADD21O,0.1200X0.0679*%
%ADD22C,0.1550*%
%ADD23C,0.0400*%
%ADD24C,0.0060*%
%ADD25C,0.0050*%
%ADD26C,0.0020*%
%ADD27C,0.0100*%
%ADD28C,0.0034*%
%ADD29R,0.0130X0.1080*%
%ADD30R,0.0660X0.0660*%
%ADD31R,0.0660X0.0660*%
%ADD32R,0.2049X0.0560*%
%ADD33R,0.0320X0.0950*%
%ADD34R,0.0320X0.0950*%
%ADD35O,0.0759X0.1280*%
%ADD36O,0.1280X0.0759*%
%ADD37C,0.1630*%
%ADD38C,0.0480*%
D28*
X042771Y022963D02*
X0427Y023034D01*
Y023176D01*
X042771Y023247D01*
X043054D01*
X043125Y023176D01*
Y023034D01*
X043054Y022963D01*
X042771D01*
X043125Y023388D02*
X043054D01*
Y023459D01*
X043125D01*
Y023388D01*
Y023955D02*
X0427D01*
X042912Y023742D01*
Y024025D01*
X0427Y024167D02*
Y02445D01*
X042771D01*
X043054Y024167D01*
X043125D01*
X042842Y024592D02*
X043054D01*
X043125Y024663D01*
Y024875D01*
X042842D01*
X0427Y0253D02*
Y025017D01*
X042912D01*
Y025158D01*
Y025017D01*
X043125D01*
X04465Y030054D02*
X044721Y030125D01*
X044862D01*
X044933Y030054D01*
Y029771D01*
X044862Y0297D01*
X044721D01*
X04465Y029771D01*
Y030054D01*
X045075Y0297D02*
Y029771D01*
X045146D01*
Y0297D01*
X045075D01*
X045429D02*
X045571D01*
X0455D01*
Y030125D01*
X045429Y030054D01*
X045783Y029983D02*
Y029771D01*
X045854Y0297D01*
X046066D01*
Y029983D01*
X046491Y030125D02*
X046208D01*
Y029912D01*
X046349D01*
X046208D01*
Y0297D01*
X04335Y02115D02*
Y021292D01*
Y021221D01*
X042925D01*
X042996Y02115D01*
Y021504D02*
X042925Y021575D01*
Y021716D01*
X042996Y021787D01*
X043279D01*
X04335Y021716D01*
Y021575D01*
X043279Y021504D01*
X042996D01*
X042925Y021929D02*
X04335D01*
X043208D01*
X042925Y022212D01*
X043138Y022D01*
X04335Y022212D01*
X041196Y02375D02*
X041125Y023821D01*
Y023962D01*
X041196Y024033D01*
X041479D01*
X04155Y023962D01*
Y023821D01*
X041479Y02375D01*
X041196D01*
X040321Y023867D02*
X04025Y023938D01*
Y024079D01*
X040321Y02415D01*
X040604D01*
X040675Y024079D01*
Y023938D01*
X040604Y023867D01*
X040321D01*
X039625Y023759D02*
Y0239D01*
Y023829D01*
X0392D01*
X039271Y023759D01*
Y024113D02*
X0392Y024184D01*
Y024325D01*
X039271Y024396D01*
X039554D01*
X039625Y024325D01*
Y024184D01*
X039554Y024113D01*
X039271D01*
X039625Y024538D02*
X0392D01*
X039483D02*
X039342Y02475D01*
X039483Y024538D02*
X039625Y02475D01*
X01675Y03469D02*
Y034407D01*
X016807Y03435D01*
X01692D01*
X016977Y034407D01*
Y03469D01*
X017316Y034633D02*
X01726Y03469D01*
X017147D01*
X01709Y034633D01*
Y034577D01*
X017147Y03452D01*
X01726D01*
X017316Y034463D01*
Y034407D01*
X01726Y03435D01*
X017147D01*
X01709Y034407D01*
X01743Y03469D02*
Y03435D01*
X0176D01*
X017656Y034407D01*
Y034463D01*
X0176Y03452D01*
X01743D01*
X0176D01*
X017656Y034577D01*
Y034633D01*
X0176Y03469D01*
X01743D01*
M02*
