%FSTAX24Y24*%
%MOIN*%
G70*
G01*
G75*
G04 Layer_Color=8388736*
%ADD10R,0.0050X0.1000*%
%ADD11R,0.0500X0.0500*%
%ADD12R,0.0500X0.0500*%
%ADD13R,0.1969X0.0480*%
%ADD14R,0.0240X0.0870*%
%ADD15R,0.0240X0.0870*%
%ADD16C,0.0240*%
%ADD17C,0.0200*%
%ADD18C,0.0160*%
%ADD19C,0.0120*%
%ADD20O,0.0679X0.1200*%
%ADD21O,0.1200X0.0679*%
%ADD22C,0.1550*%
%ADD23C,0.0400*%
%ADD24C,0.0060*%
%ADD25C,0.0050*%
%ADD26C,0.0020*%
%ADD27C,0.0100*%
%ADD28C,0.0034*%
%ADD29R,0.0130X0.1080*%
%ADD30R,0.0660X0.0660*%
%ADD31R,0.0660X0.0660*%
%ADD32R,0.2049X0.0560*%
%ADD33R,0.0320X0.0950*%
%ADD34R,0.0320X0.0950*%
%ADD35O,0.0759X0.1280*%
%ADD36O,0.1280X0.0759*%
%ADD37C,0.1630*%
%ADD38C,0.0480*%
D29*
X042809Y013349D02*
D03*
D30*
X04215Y02537D02*
D03*
Y02453D02*
D03*
X03955Y02255D02*
D03*
Y02345D02*
D03*
X0405Y02255D02*
D03*
Y02345D02*
D03*
X0414D02*
D03*
Y02255D02*
D03*
X0432Y02095D02*
D03*
Y02005D02*
D03*
D31*
X04448Y03045D02*
D03*
X04532D02*
D03*
X04367Y03385D02*
D03*
X04283D02*
D03*
X04073D02*
D03*
X04157D02*
D03*
D32*
X041365Y0326D02*
D03*
X045135D02*
D03*
D33*
X0431Y03045D02*
D03*
X0426D02*
D03*
X0391D02*
D03*
X0396D02*
D03*
X0401D02*
D03*
X0406D02*
D03*
X0411D02*
D03*
X0416D02*
D03*
X0421D02*
D03*
X0436Y02665D02*
D03*
X0431D02*
D03*
X0426D02*
D03*
X0421D02*
D03*
X0416D02*
D03*
X0411D02*
D03*
X0406D02*
D03*
X0401D02*
D03*
X0396D02*
D03*
X0391D02*
D03*
D34*
X0436Y03045D02*
D03*
D35*
X01275Y03355D02*
D03*
X01375D02*
D03*
X01475D02*
D03*
X01575D02*
D03*
X01111Y02822D02*
D03*
X01289D02*
D03*
X01111Y03078D02*
D03*
X01289D02*
D03*
X01111Y01422D02*
D03*
X01289D02*
D03*
X01111Y01678D02*
D03*
X01289D02*
D03*
X03586Y02922D02*
D03*
X03764D02*
D03*
X03586Y03178D02*
D03*
X03764D02*
D03*
X03686Y02122D02*
D03*
X03864D02*
D03*
X03686Y02378D02*
D03*
X03864D02*
D03*
X03586Y01322D02*
D03*
X03764D02*
D03*
X03586Y01578D02*
D03*
X03764D02*
D03*
X03111Y02872D02*
D03*
X03289D02*
D03*
X03111Y03128D02*
D03*
X03289D02*
D03*
X02661Y02997D02*
D03*
X02839D02*
D03*
X02661Y03253D02*
D03*
X02839D02*
D03*
X03111Y01347D02*
D03*
X03289D02*
D03*
X03111Y01603D02*
D03*
X03289D02*
D03*
X03261Y02122D02*
D03*
X03439D02*
D03*
X03261Y02378D02*
D03*
X03439D02*
D03*
X02786Y02122D02*
D03*
X02964D02*
D03*
X02786Y02378D02*
D03*
X02964D02*
D03*
X02661Y01247D02*
D03*
X02839D02*
D03*
X02661Y01503D02*
D03*
X02839D02*
D03*
X02111Y03022D02*
D03*
X02289D02*
D03*
X02111Y03278D02*
D03*
X02289D02*
D03*
X02286Y02622D02*
D03*
X02464D02*
D03*
X02286Y02878D02*
D03*
X02464D02*
D03*
X02286Y02122D02*
D03*
X02464D02*
D03*
X02286Y02378D02*
D03*
X02464D02*
D03*
X02286Y01622D02*
D03*
X02464D02*
D03*
X02286Y01878D02*
D03*
X02464D02*
D03*
X02111Y01222D02*
D03*
X02289D02*
D03*
X02111Y01478D02*
D03*
X02289D02*
D03*
X01711Y03022D02*
D03*
X01889D02*
D03*
X01711Y03278D02*
D03*
X01889D02*
D03*
X01786Y02122D02*
D03*
X01964D02*
D03*
X01786Y02378D02*
D03*
X01964D02*
D03*
X01711Y01222D02*
D03*
X01889D02*
D03*
X01711Y01478D02*
D03*
X01889D02*
D03*
X01486Y02447D02*
D03*
X01664D02*
D03*
X01486Y02703D02*
D03*
X01664D02*
D03*
X01486Y01797D02*
D03*
X01664D02*
D03*
X01486Y02053D02*
D03*
X01664D02*
D03*
D36*
X04515Y02D02*
D03*
Y021D02*
D03*
Y022D02*
D03*
Y023D02*
D03*
Y024D02*
D03*
D37*
X04525Y017D02*
D03*
Y028D02*
D03*
X01225Y0225D02*
D03*
D38*
X0446Y0314D02*
D03*
X0457Y02945D02*
D03*
X0422Y03455D02*
D03*
X0438Y0296D02*
D03*
X0432Y0284D02*
D03*
X0424D02*
D03*
X0415Y0286D02*
D03*
X04185Y01605D02*
D03*
X0416Y0297D02*
D03*
X0389Y03215D02*
D03*
X0406Y0245D02*
D03*
X0391Y0277D02*
D03*
X0396Y0257D02*
D03*
X0401D02*
D03*
M02*
