%FSTAX24Y24*%
%MOIN*%
G70*
G01*
G75*
G04 Layer_Physical_Order=1*
G04 Layer_Color=255*
%ADD10R,0.0050X0.1000*%
%ADD11R,0.0500X0.0500*%
%ADD12R,0.0500X0.0500*%
%ADD13R,0.1969X0.0480*%
%ADD14R,0.0240X0.0870*%
%ADD15R,0.0240X0.0870*%
%ADD16C,0.0240*%
%ADD17C,0.0200*%
%ADD18C,0.0160*%
%ADD19C,0.0120*%
%ADD20O,0.0679X0.1200*%
%ADD21O,0.1200X0.0679*%
%ADD22C,0.1550*%
%ADD23C,0.0400*%
D10*
X042809Y013349D02*
D03*
D11*
X04215Y02537D02*
D03*
Y02453D02*
D03*
X03955Y02255D02*
D03*
Y02345D02*
D03*
X0405Y02255D02*
D03*
Y02345D02*
D03*
X0414D02*
D03*
Y02255D02*
D03*
X0432Y02095D02*
D03*
Y02005D02*
D03*
D12*
X04448Y03045D02*
D03*
X04532D02*
D03*
X04367Y03385D02*
D03*
X04283D02*
D03*
X04073D02*
D03*
X04157D02*
D03*
D13*
X041365Y0326D02*
D03*
X045135D02*
D03*
D14*
X0431Y03045D02*
D03*
X0426D02*
D03*
X0391D02*
D03*
X0396D02*
D03*
X0401D02*
D03*
X0406D02*
D03*
X0411D02*
D03*
X0416D02*
D03*
X0421D02*
D03*
X0436Y02665D02*
D03*
X0431D02*
D03*
X0426D02*
D03*
X0421D02*
D03*
X0416D02*
D03*
X0411D02*
D03*
X0406D02*
D03*
X0401D02*
D03*
X0396D02*
D03*
X0391D02*
D03*
D15*
X0436Y03045D02*
D03*
D16*
X045Y03195D02*
X045135Y032085D01*
X0436Y03195D02*
X045D01*
X0431Y03145D02*
X0436Y03195D01*
X0422Y03385D02*
X04283D01*
X0422D02*
Y03455D01*
X04445Y03385D02*
X045135Y033165D01*
X04367Y03385D02*
X04445D01*
X045135Y0326D02*
Y033165D01*
X04359Y03385D02*
X04367D01*
X045135Y032085D02*
Y0326D01*
X04082Y03339D02*
X04145Y03276D01*
Y0323D02*
X0426Y03115D01*
X04145Y0323D02*
Y03276D01*
X0415Y03385D02*
X0422D01*
X04337Y02D02*
X04415D01*
X0432Y02017D02*
X04337Y02D01*
X04336Y021D02*
X04515D01*
X0436Y03045D02*
X04457D01*
X0446D01*
Y0304D02*
Y03045D01*
Y0305D01*
Y0314D01*
X01111Y01422D02*
Y01678D01*
X01105Y01684D02*
X01111Y01678D01*
X04524Y02992D02*
Y03045D01*
Y02992D02*
X0457Y02945D01*
X04215Y0226D02*
Y02453D01*
Y02245D02*
Y0226D01*
Y02245D02*
X0426Y022D01*
X04515D01*
X0452D01*
X01105Y01684D02*
Y02055D01*
X0104Y0212D02*
X01105Y02055D01*
X0104Y0212D02*
Y0316D01*
X0118Y033D01*
Y0342D01*
X0122Y0346D01*
X0156D01*
X0158Y0344D01*
Y0336D02*
Y0344D01*
X01575Y03355D02*
X0158Y0336D01*
X0436Y02665D02*
X04565D01*
X04082Y03339D02*
Y03385D01*
X04515Y023D02*
X046D01*
X0429Y02435D02*
X04293Y02433D01*
X04325Y024D01*
X04515D01*
X0424Y0282D02*
Y0284D01*
X01111Y02822D02*
Y03078D01*
X01709Y0328D02*
X01711Y03278D01*
Y03396D01*
X0176Y03445D01*
X0211Y03279D02*
X02111Y03278D01*
X01711Y03022D02*
Y0318D01*
Y03278D01*
X02111Y03022D02*
Y03278D01*
X02661Y02997D02*
Y03249D01*
X0266Y0325D02*
X02661Y03249D01*
X0266Y0325D02*
Y0341D01*
X0176Y03445D02*
X02105D01*
X0211Y03279D02*
Y0344D01*
X02105Y03445D02*
X0211Y0344D01*
X02105Y03445D02*
X0266D01*
X03935D01*
X0397Y0341D01*
X02661Y03253D02*
Y03444D01*
X0266Y03445D02*
X02661Y03444D01*
X01111Y03078D02*
Y03151D01*
X0114Y0318D01*
X01711D01*
X0397Y0323D02*
Y0341D01*
Y0323D02*
X0406Y0314D01*
X02111Y01222D02*
Y01478D01*
X01786Y02122D02*
Y02378D01*
X03111Y02872D02*
Y03128D01*
Y02791D02*
Y02872D01*
X0292Y026D02*
X03111Y02791D01*
X0282Y026D02*
X0292D01*
X02785Y02565D02*
X0282Y026D01*
X02785Y02379D02*
Y02565D01*
Y02379D02*
X02786Y02378D01*
Y02122D02*
Y02378D01*
X02111Y01119D02*
Y01222D01*
Y01119D02*
X02185Y01045D01*
X02565D01*
X01486Y02447D02*
Y02703D01*
X02286Y0174D02*
X0261D01*
X02286Y01622D02*
Y0174D01*
Y01878D01*
X0416Y03045D02*
Y0305D01*
Y0304D02*
Y03045D01*
X0261Y0174D02*
X0266Y0169D01*
X02661Y01154D02*
Y01247D01*
Y01154D02*
X02715Y011D01*
X03485D01*
X03585Y012D01*
Y01321D01*
X03586Y01322D01*
X02661Y01247D02*
Y01503D01*
X0266Y01504D02*
Y0169D01*
Y01504D02*
X02661Y01503D01*
X03586Y01322D02*
Y01578D01*
Y0158D01*
Y01584D01*
X03585Y01585D02*
X03586Y01584D01*
X03261Y02122D02*
Y02378D01*
X03686Y02122D02*
Y02378D01*
Y02469D01*
X0362Y02535D02*
X03686Y02469D01*
X03315Y02535D02*
X0362D01*
X0326Y0248D02*
X03315Y02535D01*
X0326Y02379D02*
Y0248D01*
Y02379D02*
X03261Y02378D01*
X01711Y01222D02*
Y01478D01*
Y01221D02*
Y01222D01*
X0171Y0122D02*
X01711Y01221D01*
X0171Y0122D02*
Y01225D01*
Y0114D02*
Y0122D01*
Y0114D02*
X01755Y01095D01*
X01955D01*
X02Y0114D01*
Y01855D01*
X0214Y01995D01*
Y02205D01*
X02195Y0226D01*
X02286D02*
Y02378D01*
X02195Y0226D02*
X0228D01*
X02286D01*
Y02122D02*
Y02254D01*
X0228Y0226D02*
X02286Y02254D01*
X03915Y03215D02*
X0401Y0312D01*
X0389Y03215D02*
X03915D01*
X03111Y01347D02*
Y01603D01*
X03586Y02922D02*
Y0306D01*
Y03178D01*
X02286Y02622D02*
Y02745D01*
Y02878D01*
X03586Y02746D02*
Y02922D01*
X03525Y02685D02*
X03586Y02746D01*
X032Y02685D02*
X03525D01*
X0316D02*
X032D01*
X03205Y0269D02*
Y0323D01*
X03155Y0328D02*
X03205Y0323D01*
X0303Y0328D02*
X03155D01*
X0297Y0322D02*
X0303Y0328D01*
X0297Y02885D02*
Y0322D01*
X0292Y02835D02*
X0297Y02885D01*
X0267Y02835D02*
X0292D01*
X025Y03005D02*
X0267Y02835D01*
X02395Y03005D02*
X025D01*
X02375Y02985D02*
X02395Y03005D01*
X02375Y0278D02*
Y02985D01*
X02345Y0275D02*
X02375Y0278D01*
X02291Y0275D02*
X02345D01*
X02286Y02745D02*
X02291Y0275D01*
X03111Y01603D02*
Y02636D01*
X0316Y02685D01*
X032D02*
X03205Y0269D01*
X03586Y0306D02*
X0378D01*
X0396Y03045D02*
Y0305D01*
X01486Y01797D02*
Y02053D01*
X01289Y01422D02*
Y01678D01*
X03764Y01322D02*
Y01578D01*
Y01794D01*
X03865Y01895D01*
Y02121D01*
X03864Y02122D02*
X03865Y02121D01*
X03864Y02122D02*
Y02378D01*
X02839Y02997D02*
Y03253D01*
Y03299D01*
X02885Y03345D01*
X03285D01*
X03715D01*
X03765Y03295D01*
Y03179D02*
Y03295D01*
X03764Y03178D02*
X03765Y03179D01*
X03289Y02872D02*
Y03128D01*
Y03341D01*
X03285Y03345D02*
X03289Y03341D01*
X03864Y02378D02*
Y02466D01*
X03765Y02565D02*
X03864Y02466D01*
X03765Y02565D02*
Y02925D01*
X03439Y02122D02*
X0344Y02121D01*
X03439Y02122D02*
Y02378D01*
X02289Y03022D02*
Y03278D01*
X02964Y02122D02*
Y02378D01*
X02839Y01247D02*
Y01503D01*
Y01176D02*
Y01247D01*
Y01176D02*
X0286Y01155D01*
X0324D01*
X03285Y012D01*
Y01343D01*
X03289Y01347D01*
Y01603D01*
Y01829D01*
X03435Y01975D01*
Y02118D01*
X03439Y02122D01*
X02964Y01804D02*
Y02122D01*
X0284Y0168D02*
X02964Y01804D01*
X0284Y01504D02*
Y0168D01*
X02839Y01503D02*
X0284Y01504D01*
X02289Y01222D02*
Y01478D01*
X02403D01*
X02465Y0154D01*
Y01621D01*
X02464Y01622D02*
X02465Y01621D01*
X02464Y01878D02*
Y02122D01*
Y02378D01*
Y02505D01*
Y02622D01*
Y02878D01*
X01889Y03022D02*
Y03278D01*
Y02976D02*
Y03022D01*
Y02976D02*
X0212Y02745D01*
Y0256D02*
Y02745D01*
Y0256D02*
X0217Y0251D01*
X02459D01*
X02464Y02505D01*
X01889Y01478D02*
Y0179D01*
Y01954D01*
X01965Y0203D02*
Y0212D01*
Y02121D01*
X01964Y027D02*
Y02756D01*
X019Y0282D02*
X01964Y02756D01*
X01291Y0282D02*
X019D01*
X01289Y02822D02*
X01291Y0282D01*
X01664Y02447D02*
Y02703D01*
X01961D01*
X01964Y027D01*
X01882Y01797D02*
X01889Y0179D01*
X01289Y02822D02*
Y03078D01*
X01889Y01222D02*
Y01478D01*
X01664Y01797D02*
Y02053D01*
X01964Y02122D02*
Y02378D01*
X01664Y01797D02*
X01882D01*
X01964Y02378D02*
Y027D01*
X01889Y01954D02*
X01965Y0203D01*
X03625Y01045D02*
X04185Y01605D01*
X02565Y01045D02*
X03625D01*
X04565Y02665D02*
X04626Y02726D01*
Y02889D01*
X0457Y02945D02*
X04626Y02889D01*
X044Y0254D02*
X0459D01*
D17*
X04283Y03385D02*
X04292D01*
X0415Y0338D02*
Y0339D01*
X04457Y03045D02*
X0446Y0305D01*
X04149Y03385D02*
X0415Y0339D01*
X04415Y02D02*
X04515D01*
X0266Y0325D02*
X02661Y03253D01*
X01711Y01222D02*
X0172Y0122D01*
X0171D02*
X0172D01*
D18*
X0429Y0243D02*
Y0256D01*
X0426Y0259D02*
X0429Y0256D01*
X0426Y0259D02*
Y02665D01*
X0403Y0241D02*
X0406Y0244D01*
X0399Y0241D02*
X0403D01*
X0396Y0238D02*
X0399Y0241D01*
X0406Y02334D02*
X04071Y02345D01*
X0414D01*
X0413Y0233D02*
X0414D01*
X04035Y02255D02*
X0405Y0224D01*
Y0216D02*
Y0224D01*
X03972Y02255D02*
X04035D01*
X0396Y02267D02*
X03972Y02255D01*
X0411Y021D02*
X04336D01*
X0405Y0216D02*
X0411Y021D01*
X0414Y02267D02*
X04209D01*
X04215Y0226D01*
X0424Y0296D02*
X0438D01*
X0421Y0299D02*
Y03045D01*
Y0299D02*
X0424Y0296D01*
X0431Y03045D02*
Y03145D01*
X0426Y03045D02*
Y03115D01*
X0431Y026D02*
Y02665D01*
X0432Y028D02*
Y0284D01*
X0431Y02665D02*
Y0279D01*
X0432Y028D01*
X0431Y026D02*
X0437Y0254D01*
X044D01*
X0424Y0282D02*
X0426Y028D01*
Y02665D02*
Y028D01*
X04215Y02537D02*
Y02595D01*
X0421Y026D02*
X04215Y02595D01*
X0421Y026D02*
Y02665D01*
Y0267D01*
X0406Y03045D02*
Y0314D01*
X0411Y029D02*
Y03045D01*
Y029D02*
X0415Y0286D01*
X0416Y0297D02*
Y0304D01*
X0401Y03045D02*
Y0312D01*
X0396Y0305D02*
Y0311D01*
X0393Y0314D02*
X0396Y0311D01*
X0386Y0314D02*
X0393D01*
X0384Y0312D02*
X0386Y0314D01*
X0384Y0307D02*
Y0312D01*
X0383Y0306D02*
X0384Y0307D01*
X0378Y0306D02*
X0383D01*
X0406Y0245D02*
Y02665D01*
Y0244D02*
Y0245D01*
X0396Y0235D02*
Y0238D01*
X03955Y02345D02*
X0396Y0235D01*
X0395Y0234D02*
X03955Y02345D01*
X0395Y0233D02*
Y0234D01*
X0391Y0297D02*
Y03045D01*
X0386Y0292D02*
X0391Y0297D01*
X03766Y0292D02*
X0386D01*
X03764Y02922D02*
X03766Y0292D01*
X03764Y02922D02*
Y02924D01*
X03765Y02925D01*
X0391Y02665D02*
Y0277D01*
X0396Y0257D02*
Y02665D01*
X0401Y0257D02*
Y02665D01*
X0414Y02334D02*
Y0258D01*
X0416Y026D01*
Y02665D01*
X046Y023D02*
X04625Y02325D01*
Y02505D01*
X0459Y0254D02*
X04625Y02505D01*
D19*
X0429Y0243D02*
X04293Y02433D01*
X03586Y01578D02*
X0359Y0158D01*
X03586D02*
X0359D01*
X03955Y02334D02*
X0396Y0234D01*
X03955Y02345D02*
X0396Y0234D01*
X01964Y02122D02*
X0197Y0212D01*
X01965D02*
X0197D01*
X0414Y0233D02*
Y02334D01*
D20*
X01275Y03355D02*
D03*
X01375D02*
D03*
X01475D02*
D03*
X01575D02*
D03*
X01111Y02822D02*
D03*
X01289D02*
D03*
X01111Y03078D02*
D03*
X01289D02*
D03*
X01111Y01422D02*
D03*
X01289D02*
D03*
X01111Y01678D02*
D03*
X01289D02*
D03*
X03586Y02922D02*
D03*
X03764D02*
D03*
X03586Y03178D02*
D03*
X03764D02*
D03*
X03686Y02122D02*
D03*
X03864D02*
D03*
X03686Y02378D02*
D03*
X03864D02*
D03*
X03586Y01322D02*
D03*
X03764D02*
D03*
X03586Y01578D02*
D03*
X03764D02*
D03*
X03111Y02872D02*
D03*
X03289D02*
D03*
X03111Y03128D02*
D03*
X03289D02*
D03*
X02661Y02997D02*
D03*
X02839D02*
D03*
X02661Y03253D02*
D03*
X02839D02*
D03*
X03111Y01347D02*
D03*
X03289D02*
D03*
X03111Y01603D02*
D03*
X03289D02*
D03*
X03261Y02122D02*
D03*
X03439D02*
D03*
X03261Y02378D02*
D03*
X03439D02*
D03*
X02786Y02122D02*
D03*
X02964D02*
D03*
X02786Y02378D02*
D03*
X02964D02*
D03*
X02661Y01247D02*
D03*
X02839D02*
D03*
X02661Y01503D02*
D03*
X02839D02*
D03*
X02111Y03022D02*
D03*
X02289D02*
D03*
X02111Y03278D02*
D03*
X02289D02*
D03*
X02286Y02622D02*
D03*
X02464D02*
D03*
X02286Y02878D02*
D03*
X02464D02*
D03*
X02286Y02122D02*
D03*
X02464D02*
D03*
X02286Y02378D02*
D03*
X02464D02*
D03*
X02286Y01622D02*
D03*
X02464D02*
D03*
X02286Y01878D02*
D03*
X02464D02*
D03*
X02111Y01222D02*
D03*
X02289D02*
D03*
X02111Y01478D02*
D03*
X02289D02*
D03*
X01711Y03022D02*
D03*
X01889D02*
D03*
X01711Y03278D02*
D03*
X01889D02*
D03*
X01786Y02122D02*
D03*
X01964D02*
D03*
X01786Y02378D02*
D03*
X01964D02*
D03*
X01711Y01222D02*
D03*
X01889D02*
D03*
X01711Y01478D02*
D03*
X01889D02*
D03*
X01486Y02447D02*
D03*
X01664D02*
D03*
X01486Y02703D02*
D03*
X01664D02*
D03*
X01486Y01797D02*
D03*
X01664D02*
D03*
X01486Y02053D02*
D03*
X01664D02*
D03*
D21*
X04515Y02D02*
D03*
Y021D02*
D03*
Y022D02*
D03*
Y023D02*
D03*
Y024D02*
D03*
D22*
X04525Y017D02*
D03*
Y028D02*
D03*
X01225Y0225D02*
D03*
D23*
X0446Y0314D02*
D03*
X0457Y02945D02*
D03*
X0422Y03455D02*
D03*
X0438Y0296D02*
D03*
X0432Y0284D02*
D03*
X0424D02*
D03*
X0415Y0286D02*
D03*
X04185Y01605D02*
D03*
X0416Y0297D02*
D03*
X0389Y03215D02*
D03*
X0406Y0245D02*
D03*
X0391Y0277D02*
D03*
X0396Y0257D02*
D03*
X0401D02*
D03*
M02*
