%FSTAX24Y24*%
%MOIN*%
G70*
G01*
G75*
%ADD10R,0.0550X0.0500*%
%ADD11R,0.1030X0.0240*%
%ADD12C,0.0150*%
%ADD13C,0.0500*%
%ADD14C,0.0400*%
%ADD15C,0.0300*%
%ADD16C,0.0071*%
%ADD17O,0.0850X0.0600*%
%ADD18R,0.0850X0.0600*%
%ADD19R,0.1360X0.1360*%
%ADD20C,0.1360*%
%ADD21C,0.0060*%
%ADD22C,0.0040*%
%ADD23C,0.0050*%
%ADD24C,0.0070*%
%ADD25C,0.0100*%
%ADD26C,0.0030*%
G36*
X029335Y028625D02*
X029235D01*
Y028775D01*
X029335D01*
Y028625D01*
D02*
G37*
G36*
X034265Y031125D02*
X034165D01*
Y031275D01*
X034265D01*
Y031125D01*
D02*
G37*
D21*
X03163Y03352D02*
G03*
X03187Y03352I00012J0D01*
G01*
X030255D02*
X033245D01*
X030255Y02738D02*
X033245D01*
D22*
X03375Y02478D02*
Y02512D01*
X03425Y02478D02*
Y02512D01*
X0316Y03423D02*
Y03457D01*
X0311Y03423D02*
Y03457D01*
X0308Y03423D02*
Y03457D01*
X0303Y03423D02*
Y03457D01*
X02995Y03423D02*
Y03457D01*
X02945Y03423D02*
Y03457D01*
X02915Y03423D02*
Y03457D01*
X02865Y03423D02*
Y03457D01*
X02835Y03423D02*
Y03457D01*
X02785Y03423D02*
Y03457D01*
X0311Y02533D02*
Y02567D01*
X0316Y02533D02*
Y02567D01*
X0303Y02533D02*
Y02567D01*
X0308Y02533D02*
Y02567D01*
X0295Y02533D02*
Y02567D01*
X03Y02533D02*
Y02567D01*
X0287Y02533D02*
Y02567D01*
X0292Y02533D02*
Y02567D01*
X0279Y02533D02*
Y02567D01*
X0284Y02533D02*
Y02567D01*
D23*
X03434Y02418D02*
Y02571D01*
X03367D02*
X03434D01*
X03367Y02418D02*
Y02571D01*
Y02418D02*
X03434D01*
X03102Y03363D02*
X03169D01*
X03102D02*
Y03516D01*
X03169D01*
Y03363D02*
Y03516D01*
X03022Y03363D02*
X03089D01*
X03022D02*
Y03516D01*
X03089D01*
Y03363D02*
Y03516D01*
X02937Y03363D02*
X03004D01*
X02937D02*
Y03516D01*
X03004D01*
Y03363D02*
Y03516D01*
X02857Y03363D02*
X02924D01*
X02857D02*
Y03516D01*
X02924D01*
Y03363D02*
Y03516D01*
X02777Y03363D02*
X02844D01*
X02777D02*
Y03516D01*
X02844D01*
Y03363D02*
Y03516D01*
X03101Y02627D02*
X03168D01*
Y02474D02*
Y02627D01*
X03101Y02474D02*
X03168D01*
X03101D02*
Y02627D01*
X03021D02*
X03088D01*
Y02474D02*
Y02627D01*
X03021Y02474D02*
X03088D01*
X03021D02*
Y02627D01*
X02941D02*
X03008D01*
Y02474D02*
Y02627D01*
X02941Y02474D02*
X03008D01*
X02941D02*
Y02627D01*
X02861D02*
X02928D01*
Y02474D02*
Y02627D01*
X02861Y02474D02*
X02928D01*
X02861D02*
Y02627D01*
X02781D02*
X02848D01*
Y02474D02*
Y02627D01*
X02781Y02474D02*
X02848D01*
X02781D02*
Y02627D01*
D24*
X0324Y024D02*
X0335D01*
X0324D02*
Y026014D01*
X0335Y024D02*
Y026014D01*
X0324D02*
X0335D01*
X02625Y024902D02*
X02735D01*
X02625D02*
Y0349D01*
X02735Y024902D02*
Y0349D01*
X02625D02*
X02735D01*
X0359Y024752D02*
X037D01*
X0359D02*
Y03475D01*
X037Y024752D02*
Y03475D01*
X0359D02*
X037D01*
D25*
X0338Y0263D02*
X0337Y0262D01*
Y026D01*
X0338Y0259D01*
X0342D01*
X0343Y026D01*
Y0262D01*
X0342Y0263D01*
X0343Y0265D02*
Y0267D01*
Y0266D01*
X0337D01*
X0338Y0265D01*
X0325Y02665D02*
Y02645D01*
Y02655D01*
X033D01*
X0331Y02645D01*
Y02635D01*
X033Y02625D01*
X0331Y02685D02*
X0325D01*
Y02715D01*
X0326Y02725D01*
X0328D01*
X0329Y02715D01*
Y02685D01*
X0326Y02745D02*
X0325Y02755D01*
Y02775D01*
X0326Y027849D01*
X0327D01*
X0328Y02775D01*
Y02765D01*
Y02775D01*
X0329Y027849D01*
X033D01*
X0331Y02775D01*
Y02755D01*
X033Y02745D01*
X02845Y02645D02*
X02785D01*
Y02675D01*
X02795Y02685D01*
X02815D01*
X02825Y02675D01*
Y02645D01*
Y02665D02*
X02845Y02685D01*
Y02705D02*
Y02725D01*
Y02715D01*
X02785D01*
X02795Y02705D01*
Y02755D02*
X02785Y02765D01*
Y02785D01*
X02795Y02795D01*
X02835D01*
X02845Y02785D01*
Y02765D01*
X02835Y02755D01*
X02795D01*
X02925Y0264D02*
X02865D01*
Y0267D01*
X02875Y0268D01*
X02895D01*
X02905Y0267D01*
Y0264D01*
Y0266D02*
X02925Y0268D01*
X02915Y027D02*
X02925Y0271D01*
Y0273D01*
X02915Y0274D01*
X02875D01*
X02865Y0273D01*
Y0271D01*
X02875Y027D01*
X02885D01*
X02895Y0271D01*
Y0274D01*
X03005Y0264D02*
X02945D01*
Y0267D01*
X02955Y0268D01*
X02975D01*
X02985Y0267D01*
Y0264D01*
Y0266D02*
X03005Y0268D01*
X02955Y027D02*
X02945Y0271D01*
Y0273D01*
X02955Y0274D01*
X02965D01*
X02975Y0273D01*
X02985Y0274D01*
X02995D01*
X03005Y0273D01*
Y0271D01*
X02995Y027D01*
X02985D01*
X02975Y0271D01*
X02965Y027D01*
X02955D01*
X02975Y0271D02*
Y0273D01*
X03085Y0264D02*
X03025D01*
Y0267D01*
X03035Y0268D01*
X03055D01*
X03065Y0267D01*
Y0264D01*
Y0266D02*
X03085Y0268D01*
X03025Y027D02*
Y0274D01*
X03035D01*
X03075Y027D01*
X03085D01*
X0317Y0264D02*
X0311D01*
Y0267D01*
X0312Y0268D01*
X0314D01*
X0315Y0267D01*
Y0264D01*
Y0266D02*
X0317Y0268D01*
X0311Y0274D02*
X0312Y0272D01*
X0314Y027D01*
X0316D01*
X0317Y0271D01*
Y0273D01*
X0316Y0274D01*
X0315D01*
X0314Y0273D01*
Y027D01*
X03165Y0354D02*
X03105D01*
Y0357D01*
X03115Y0358D01*
X03135D01*
X03145Y0357D01*
Y0354D01*
Y0356D02*
X03165Y0358D01*
X03105Y0364D02*
Y036D01*
X03135D01*
X03125Y0362D01*
Y0363D01*
X03135Y0364D01*
X03155D01*
X03165Y0363D01*
Y0361D01*
X03155Y036D01*
X03085Y0354D02*
X03025D01*
Y0357D01*
X03035Y0358D01*
X03055D01*
X03065Y0357D01*
Y0354D01*
Y0356D02*
X03085Y0358D01*
Y0363D02*
X03025D01*
X03055Y036D01*
Y0364D01*
X03005Y0354D02*
X02945D01*
Y0357D01*
X02955Y0358D01*
X02975D01*
X02985Y0357D01*
Y0354D01*
Y0356D02*
X03005Y0358D01*
X02955Y036D02*
X02945Y0361D01*
Y0363D01*
X02955Y0364D01*
X02965D01*
X02975Y0363D01*
Y0362D01*
Y0363D01*
X02985Y0364D01*
X02995D01*
X03005Y0363D01*
Y0361D01*
X02995Y036D01*
X0292Y0354D02*
X0286D01*
Y0357D01*
X0287Y0358D01*
X0289D01*
X029Y0357D01*
Y0354D01*
Y0356D02*
X0292Y0358D01*
Y0364D02*
Y036D01*
X0288Y0364D01*
X0287D01*
X0286Y0363D01*
Y0361D01*
X0287Y036D01*
X0284Y0354D02*
X0278D01*
Y0357D01*
X0279Y0358D01*
X0281D01*
X0282Y0357D01*
Y0354D01*
Y0356D02*
X0284Y0358D01*
Y036D02*
Y0362D01*
Y0361D01*
X0278D01*
X0279Y036D01*
X029335Y035235D02*
Y034735D01*
X029435Y034635D01*
X029635D01*
X029735Y034735D01*
Y035235D01*
X029935Y034635D02*
X030135D01*
X030035D01*
Y035235D01*
X029935Y035135D01*
X036365Y035685D02*
X036165D01*
X036265D01*
Y035185D01*
X036165Y035085D01*
X036065D01*
X035965Y035185D01*
X036565Y035085D02*
Y035685D01*
X036865D01*
X036965Y035585D01*
Y035385D01*
X036865Y035285D01*
X036565D01*
X037564Y035085D02*
X037165D01*
X037564Y035485D01*
Y035585D01*
X037465Y035685D01*
X037265D01*
X037165Y035585D01*
X02655Y03565D02*
X02635D01*
X02645D01*
Y03515D01*
X02635Y03505D01*
X02625D01*
X02615Y03515D01*
X02675Y03505D02*
Y03565D01*
X02705D01*
X02715Y03555D01*
Y03535D01*
X02705Y03525D01*
X02675D01*
X02735Y03505D02*
X02755D01*
X02745D01*
Y03565D01*
X02735Y03555D01*
D26*
X03175Y03095D02*
X032083D01*
X031917D01*
Y03045D01*
X0325Y03095D02*
X032333D01*
X03225Y030867D01*
Y030533D01*
X032333Y03045D01*
X0325D01*
X032583Y030533D01*
Y030867D01*
X0325Y03095D01*
X03275D02*
Y03045D01*
X033083D01*
X03175Y03095D02*
Y030617D01*
X031917Y03045D01*
X032083Y030617D01*
Y03095D01*
X03225Y03045D02*
Y030783D01*
X032416Y03095D01*
X032583Y030783D01*
Y03045D01*
Y0307D01*
X03225D01*
X03275Y03095D02*
Y03045D01*
X033083D01*
X03175Y03095D02*
Y03045D01*
X032D01*
X032083Y030533D01*
Y030867D01*
X032Y03095D01*
X03175D01*
X032583D02*
X03225D01*
Y03045D01*
X032583D01*
X03225Y0307D02*
X032416D01*
X03275Y03095D02*
Y030617D01*
X032916Y03045D01*
X033083Y030617D01*
Y03095D01*
X03175Y03045D02*
Y03095D01*
X032D01*
X032083Y030867D01*
Y0307D01*
X032Y030617D01*
X03175D01*
X03225Y03045D02*
Y03095D01*
X032583Y03045D01*
Y03095D01*
X02985Y034307D02*
X030183Y033973D01*
X02985D02*
X030183Y034307D01*
X02985Y03414D02*
X030183D01*
X030017Y033973D02*
Y034307D01*
M02*
