%FSTAX24Y24*%
%MOIN*%
G70*
G01*
G75*
%ADD10R,0.0550X0.0500*%
%ADD11R,0.1030X0.0240*%
%ADD12C,0.0150*%
%ADD13C,0.0500*%
%ADD14C,0.0400*%
%ADD15C,0.0300*%
%ADD16C,0.0071*%
%ADD17O,0.0850X0.0600*%
%ADD18R,0.0850X0.0600*%
%ADD19R,0.1360X0.1360*%
%ADD20C,0.1360*%
%ADD21C,0.0060*%
%ADD22C,0.0040*%
%ADD23C,0.0050*%
%ADD24C,0.0070*%
%ADD25C,0.0100*%
%ADD26C,0.0030*%
%ADD27R,0.0630X0.0580*%
%ADD28R,0.1110X0.0320*%
%ADD29O,0.0930X0.0680*%
%ADD30R,0.0930X0.0680*%
%ADD31R,0.1440X0.1440*%
%ADD32C,0.1440*%
%ADD33C,0.0000*%
%ADD34C,0.0118*%
%ADD35C,0.0067*%
D23*
X03277Y0255D02*
X03313D01*
X03295Y02532D02*
Y02568D01*
X03277Y0245D02*
X03313D01*
X03295Y02432D02*
Y02468D01*
X02662Y0274D02*
X02698D01*
X0268Y02722D02*
Y02758D01*
X02662Y0284D02*
X02698D01*
X0268Y02822D02*
Y02858D01*
X02662Y0344D02*
X02698D01*
X0268Y03422D02*
Y03458D01*
X02662Y0334D02*
X02698D01*
X0268Y03322D02*
Y03358D01*
X02662Y0324D02*
X02698D01*
X0268Y03222D02*
Y03258D01*
X02662Y0314D02*
X02698D01*
X0268Y03122D02*
Y03158D01*
X02662Y0304D02*
X02698D01*
X0268Y03022D02*
Y03058D01*
X02662Y0294D02*
X02698D01*
X0268Y02922D02*
Y02958D01*
X02662Y0264D02*
X02698D01*
X0268Y02622D02*
Y02658D01*
X02662Y0254D02*
X02698D01*
X0268Y02522D02*
Y02558D01*
X03246Y03505D02*
X03314D01*
X0328Y03471D02*
Y03539D01*
X034405Y03505D02*
X035195D01*
X0348Y034655D02*
Y035445D01*
X03627Y02725D02*
X03663D01*
X03645Y02707D02*
Y02743D01*
X03627Y02825D02*
X03663D01*
X03645Y02807D02*
Y02843D01*
X03627Y03425D02*
X03663D01*
X03645Y03407D02*
Y03443D01*
X03627Y03325D02*
X03663D01*
X03645Y03307D02*
Y03343D01*
X03627Y03225D02*
X03663D01*
X03645Y03207D02*
Y03243D01*
X03627Y03125D02*
X03663D01*
X03645Y03107D02*
Y03143D01*
X03627Y03025D02*
X03663D01*
X03645Y03007D02*
Y03043D01*
X03627Y02925D02*
X03663D01*
X03645Y02907D02*
Y02943D01*
X03627Y02625D02*
X03663D01*
X03645Y02607D02*
Y02643D01*
X03627Y02525D02*
X03663D01*
X03645Y02507D02*
Y02543D01*
M02*
