%FSTAX24Y24*%
%MOIN*%
G70*
G01*
G75*
G04 Layer_Color=8388736*
%ADD10R,0.0550X0.0500*%
%ADD11R,0.1030X0.0240*%
%ADD12C,0.0150*%
%ADD13C,0.0500*%
%ADD14C,0.0400*%
%ADD15C,0.0300*%
%ADD16C,0.0071*%
%ADD17O,0.0850X0.0600*%
%ADD18R,0.0850X0.0600*%
%ADD19R,0.1360X0.1360*%
%ADD20C,0.1360*%
%ADD21C,0.0060*%
%ADD22C,0.0040*%
%ADD23C,0.0050*%
%ADD24C,0.0070*%
%ADD25C,0.0100*%
%ADD26C,0.0030*%
%ADD27R,0.0630X0.0580*%
%ADD28R,0.1110X0.0320*%
%ADD29O,0.0930X0.0680*%
%ADD30R,0.0930X0.0680*%
%ADD31R,0.1440X0.1440*%
%ADD32C,0.1440*%
D27*
X034Y0254D02*
D03*
Y0245D02*
D03*
X03135Y03395D02*
D03*
Y03485D02*
D03*
X03055Y03395D02*
D03*
Y03485D02*
D03*
X0297Y03395D02*
D03*
Y03485D02*
D03*
X0289Y03395D02*
D03*
Y03485D02*
D03*
X0281Y03395D02*
D03*
Y03485D02*
D03*
X03135Y02595D02*
D03*
Y02505D02*
D03*
X03055Y02595D02*
D03*
Y02505D02*
D03*
X02975Y02595D02*
D03*
Y02505D02*
D03*
X02895Y02595D02*
D03*
Y02505D02*
D03*
X02815Y02595D02*
D03*
Y02505D02*
D03*
D28*
X03355Y0332D02*
D03*
Y0327D02*
D03*
Y0322D02*
D03*
Y0317D02*
D03*
Y0312D02*
D03*
Y0307D02*
D03*
Y0302D02*
D03*
Y0297D02*
D03*
Y0292D02*
D03*
Y0287D02*
D03*
Y0282D02*
D03*
Y0277D02*
D03*
X02995D02*
D03*
Y0282D02*
D03*
Y0287D02*
D03*
Y0292D02*
D03*
Y0297D02*
D03*
Y0302D02*
D03*
Y0307D02*
D03*
Y0312D02*
D03*
Y0317D02*
D03*
Y0322D02*
D03*
Y0327D02*
D03*
Y0332D02*
D03*
D29*
X03295Y0255D02*
D03*
X0268Y0274D02*
D03*
X0268Y0284D02*
D03*
Y0334D02*
D03*
Y0324D02*
D03*
Y0314D02*
D03*
Y0304D02*
D03*
Y0294D02*
D03*
Y0264D02*
D03*
Y0254D02*
D03*
X03645Y02725D02*
D03*
X03645Y02825D02*
D03*
Y03325D02*
D03*
Y03225D02*
D03*
Y03125D02*
D03*
Y03025D02*
D03*
Y02925D02*
D03*
Y02625D02*
D03*
Y02525D02*
D03*
D30*
X03295Y0245D02*
D03*
X0268Y0344D02*
D03*
X03645Y03425D02*
D03*
D31*
X0328Y03505D02*
D03*
D32*
X0348D02*
D03*
M02*
