%FSTAX24Y24*%
%MOIN*%
G70*
G01*
G75*
G04 Layer_Color=16711935*
%ADD10R,0.0550X0.0500*%
%ADD11R,0.1030X0.0240*%
%ADD12C,0.0150*%
%ADD13C,0.0500*%
%ADD14C,0.0400*%
%ADD15C,0.0300*%
%ADD16C,0.0071*%
%ADD17O,0.0850X0.0600*%
%ADD18R,0.0850X0.0600*%
%ADD19R,0.1360X0.1360*%
%ADD20C,0.1360*%
%ADD21C,0.0060*%
%ADD22C,0.0040*%
%ADD23C,0.0050*%
%ADD24C,0.0070*%
%ADD25C,0.0100*%
%ADD26C,0.0030*%
%ADD27R,0.0630X0.0580*%
%ADD28R,0.1110X0.0320*%
%ADD29O,0.0930X0.0680*%
%ADD30R,0.0930X0.0680*%
%ADD31R,0.1440X0.1440*%
%ADD32C,0.1440*%
%ADD33C,0.0000*%
D26*
X03175Y03045D02*
Y03095D01*
X032D01*
X032083Y030867D01*
Y0307D01*
X032Y030617D01*
X03175D01*
X031917D02*
X032083Y03045D01*
X0325D02*
X032333D01*
X03225Y030533D01*
Y0307D01*
X032333Y030783D01*
X0325D01*
X032583Y0307D01*
Y030617D01*
X03225D01*
X032833Y03045D02*
Y030867D01*
Y0307D01*
X03275D01*
X032916D01*
X032833D01*
Y030867D01*
X032916Y03095D01*
X033166D02*
Y03045D01*
X033416D01*
X033499Y030533D01*
Y030867D01*
X033416Y03095D01*
X033166D01*
X033916Y03045D02*
X033749D01*
X033666Y030533D01*
Y0307D01*
X033749Y030783D01*
X033916D01*
X033999Y0307D01*
Y030617D01*
X033666D01*
X034166Y03045D02*
X034416D01*
X034499Y030533D01*
X034416Y030617D01*
X034249D01*
X034166Y0307D01*
X034249Y030783D01*
X034499D01*
X034999Y03045D02*
X034666D01*
X034999Y030783D01*
Y030867D01*
X034916Y03095D01*
X034749D01*
X034666Y030867D01*
X02985Y034307D02*
X030183Y033973D01*
X02985D02*
X030183Y034307D01*
X02985Y03414D02*
X030183D01*
X030017Y033973D02*
Y034307D01*
D33*
X03163Y03352D02*
G03*
X03187Y03352I00012J0D01*
G01*
X030255Y02738D02*
Y03352D01*
X033245D01*
Y02738D02*
Y03352D01*
X030255Y02738D02*
X033245D01*
Y0333D02*
X033845D01*
Y0331D02*
Y0333D01*
X033245Y0331D02*
X033845D01*
X033245D02*
Y0333D01*
Y0328D02*
X033845D01*
Y0326D02*
Y0328D01*
X033245Y0326D02*
X033845D01*
X033245D02*
Y0328D01*
Y0323D02*
X033845D01*
Y0321D02*
Y0323D01*
X033245Y0321D02*
X033845D01*
X033245D02*
Y0323D01*
Y0318D02*
X033845D01*
Y0316D02*
Y0318D01*
X033245Y0316D02*
X033845D01*
X033245D02*
Y0318D01*
Y0313D02*
X033845D01*
Y0311D02*
Y0313D01*
X033245Y0311D02*
X033845D01*
X033245D02*
Y0313D01*
Y0308D02*
X033845D01*
Y0306D02*
Y0308D01*
X033245Y0306D02*
X033845D01*
X033245D02*
Y0308D01*
Y0303D02*
X033845D01*
Y0301D02*
Y0303D01*
X033245Y0301D02*
X033845D01*
X033245D02*
Y0303D01*
Y0298D02*
X033845D01*
Y0296D02*
Y0298D01*
X033245Y0296D02*
X033845D01*
X033245D02*
Y0298D01*
Y0293D02*
X033845D01*
Y0291D02*
Y0293D01*
X033245Y0291D02*
X033845D01*
X033245D02*
Y0293D01*
Y0288D02*
X033845D01*
Y0286D02*
Y0288D01*
X033245Y0286D02*
X033845D01*
X033245D02*
Y0288D01*
Y0283D02*
X033845D01*
Y0281D02*
Y0283D01*
X033245Y0281D02*
X033845D01*
X033245D02*
Y0283D01*
Y0278D02*
X033845D01*
Y0276D02*
Y0278D01*
X033245Y0276D02*
X033845D01*
X033245D02*
Y0278D01*
X029655Y0276D02*
X030255D01*
X029655D02*
Y0278D01*
X030255D01*
Y0276D02*
Y0278D01*
X029655Y0281D02*
X030255D01*
X029655D02*
Y0283D01*
X030255D01*
Y0281D02*
Y0283D01*
X029655Y0286D02*
X030255D01*
X029655D02*
Y0288D01*
X030255D01*
Y0286D02*
Y0288D01*
X029655Y0291D02*
X030255D01*
X029655D02*
Y0293D01*
X030255D01*
Y0291D02*
Y0293D01*
X029655Y0296D02*
X030255D01*
X029655D02*
Y0298D01*
X030255D01*
Y0296D02*
Y0298D01*
X029655Y0301D02*
X030255D01*
X029655D02*
Y0303D01*
X030255D01*
Y0301D02*
Y0303D01*
X029655Y0306D02*
X030255D01*
X029655D02*
Y0308D01*
X030255D01*
Y0306D02*
Y0308D01*
X029655Y0311D02*
X030255D01*
X029655D02*
Y0313D01*
X030255D01*
Y0311D02*
Y0313D01*
X029655Y0316D02*
X030255D01*
X029655D02*
Y0318D01*
X030255D01*
Y0316D02*
Y0318D01*
X029655Y0321D02*
X030255D01*
X029655D02*
Y0323D01*
X030255D01*
Y0321D02*
Y0323D01*
X029655Y0326D02*
X030255D01*
X029655D02*
Y0328D01*
X030255D01*
Y0326D02*
Y0328D01*
X029655Y0331D02*
X030255D01*
X029655D02*
Y0333D01*
X030255D01*
Y0331D02*
Y0333D01*
M02*
