M48
;Layer_Color=9474304
;FILE_FORMAT=2:4
INCH,LZ
;TYPE=PLATED
T1F00S00C0.0360
T2F00S00C0.0680
T3F00S00C0.0790
%
T01
X03295Y0245
Y0255
X03645Y02525
Y02625
X03645Y02725
X03645Y02825
Y02925
Y03025
X0268Y0304
Y0294
Y0284
X0268Y0274
X0268Y0264
Y0254
Y0314
Y0324
Y0334
Y0344
X03645Y03425
Y03325
Y03225
Y03125
T02
X0328Y03505
T03
X0348Y03505
M30
