%FSTAX24Y24*%
%MOIN*%
G70*
G01*
G75*
G04 Layer_Color=65535*
%ADD10R,0.0500X0.0394*%
%ADD11R,0.7500X0.0100*%
%ADD12R,0.0500X0.0500*%
G04:AMPARAMS|DCode=13|XSize=37.4mil|YSize=19.7mil|CornerRadius=2.5mil|HoleSize=0mil|Usage=FLASHONLY|Rotation=180.000|XOffset=0mil|YOffset=0mil|HoleType=Round|Shape=RoundedRectangle|*
%AMROUNDEDRECTD13*
21,1,0.0374,0.0148,0,0,180.0*
21,1,0.0325,0.0197,0,0,180.0*
1,1,0.0049,-0.0162,0.0074*
1,1,0.0049,0.0162,0.0074*
1,1,0.0049,0.0162,-0.0074*
1,1,0.0049,-0.0162,-0.0074*
%
%ADD13ROUNDEDRECTD13*%
%ADD14R,0.0500X0.0500*%
%ADD15R,0.0394X0.0500*%
%ADD16R,0.0390X0.0120*%
%ADD17O,0.1457X0.0256*%
%ADD18O,0.0118X0.0532*%
%ADD19C,0.0160*%
%ADD20C,0.0080*%
%ADD21C,0.0120*%
%ADD22C,0.0200*%
%ADD23C,0.0100*%
%ADD24C,0.1500*%
%ADD25C,0.1874*%
%ADD26C,0.0665*%
%ADD27R,0.0665X0.0665*%
%ADD28O,0.1575X0.1360*%
%ADD29R,0.1575X0.1360*%
%ADD30R,0.0638X0.0638*%
%ADD31C,0.0638*%
%ADD32C,0.0591*%
%ADD33R,0.0591X0.0591*%
%ADD34P,0.0714X8X202.5*%
%ADD35O,0.0900X0.0620*%
%ADD36R,0.0900X0.0620*%
%ADD37O,0.0850X0.0600*%
%ADD38R,0.0850X0.0600*%
%ADD39O,0.0800X0.0640*%
%ADD40R,0.0800X0.0640*%
%ADD41R,0.1181X0.0902*%
%ADD42O,0.1181X0.0902*%
%ADD43C,0.0400*%
%ADD44C,0.0500*%
%ADD45C,0.0400*%
%ADD46C,0.0079*%
%ADD47C,0.0050*%
%ADD48C,0.0060*%
%ADD49C,0.0098*%
%ADD50C,0.0070*%
%ADD51C,0.0040*%
%ADD52C,0.0059*%
%ADD53R,0.0315X0.0945*%
%ADD54R,0.0580X0.0474*%
%ADD55R,0.7580X0.0180*%
%ADD56R,0.0580X0.0580*%
G04:AMPARAMS|DCode=57|XSize=45.4mil|YSize=27.7mil|CornerRadius=6.5mil|HoleSize=0mil|Usage=FLASHONLY|Rotation=180.000|XOffset=0mil|YOffset=0mil|HoleType=Round|Shape=RoundedRectangle|*
%AMROUNDEDRECTD57*
21,1,0.0454,0.0148,0,0,180.0*
21,1,0.0325,0.0277,0,0,180.0*
1,1,0.0129,-0.0162,0.0074*
1,1,0.0129,0.0162,0.0074*
1,1,0.0129,0.0162,-0.0074*
1,1,0.0129,-0.0162,-0.0074*
%
%ADD57ROUNDEDRECTD57*%
%ADD58R,0.0580X0.0580*%
%ADD59R,0.0474X0.0580*%
%ADD60R,0.0470X0.0200*%
%ADD61O,0.1537X0.0336*%
%ADD62O,0.0158X0.0572*%
%ADD63C,0.1580*%
%ADD64C,0.1954*%
%ADD65C,0.0745*%
%ADD66R,0.0745X0.0745*%
%ADD67O,0.1655X0.1440*%
%ADD68R,0.1655X0.1440*%
%ADD69R,0.0718X0.0718*%
%ADD70C,0.0718*%
%ADD71C,0.0671*%
%ADD72R,0.0671X0.0671*%
%ADD73P,0.0801X8X202.5*%
%ADD74O,0.0980X0.0700*%
%ADD75R,0.0980X0.0700*%
%ADD76O,0.0930X0.0680*%
%ADD77R,0.0930X0.0680*%
%ADD78O,0.0880X0.0720*%
%ADD79R,0.0880X0.0720*%
%ADD80R,0.1261X0.0982*%
%ADD81O,0.1261X0.0982*%
%ADD82C,0.0480*%
%ADD83C,0.0580*%
%ADD84C,0.0039*%
%ADD85C,0.0020*%
%ADD86C,0.0100*%
%ADD87C,0.0030*%
%ADD88R,0.0200X0.0200*%
%ADD89R,0.0330X0.0080*%
G36*
X033209Y045098D02*
X033215D01*
X033221Y045097D01*
X033237Y045094D01*
X033253Y04509D01*
X033271Y045083D01*
X03328Y045079D01*
X033288Y045074D01*
X033296Y045068D01*
X033304Y045061D01*
X033305Y04506D01*
X033305Y04506D01*
X033308Y045057D01*
X03331Y045054D01*
X033313Y045051D01*
X033317Y045046D01*
X033324Y045035D01*
X033331Y045022D01*
X033338Y045006D01*
X033342Y044989D01*
X033343Y044979D01*
X033344Y044969D01*
Y044967D01*
Y044963D01*
X033343Y044957D01*
X033342Y044949D01*
X033339Y044939D01*
X033336Y044929D01*
X033332Y044918D01*
X033326Y044908D01*
X033325Y044908D01*
X033323Y044905D01*
X033318Y0449D01*
X033312Y044894D01*
X033305Y044888D01*
X033295Y044882D01*
X033283Y044875D01*
X033271Y04487D01*
X033271D01*
X033273Y044869D01*
X033275Y044868D01*
X033278Y044867D01*
X033286Y044863D01*
X033296Y044859D01*
X033308Y044852D01*
X033319Y044843D01*
X03333Y044833D01*
X03334Y044822D01*
X033341Y04482D01*
X033344Y044815D01*
X033348Y044809D01*
X033352Y044799D01*
X033357Y044787D01*
X033361Y044774D01*
X033364Y044759D01*
X033364Y044742D01*
Y044741D01*
Y044739D01*
Y044736D01*
X033364Y044732D01*
X033363Y044726D01*
X033362Y044719D01*
X033359Y044704D01*
X033353Y044688D01*
X03335Y044679D01*
X033345Y04467D01*
X03334Y04466D01*
X033334Y044651D01*
X033327Y044643D01*
X033319Y044635D01*
X033318Y044634D01*
X033317Y044633D01*
X033314Y044631D01*
X033311Y044628D01*
X033306Y044625D01*
X033301Y044621D01*
X033295Y044617D01*
X033287Y044614D01*
X033279Y044609D01*
X03327Y044605D01*
X03326Y044602D01*
X033249Y044598D01*
X033239Y044595D01*
X033227Y044593D01*
X033214Y044592D01*
X0332Y044592D01*
X033193D01*
X033188Y044592D01*
X033182Y044593D01*
X033175Y044594D01*
X033167Y044595D01*
X033158Y044597D01*
X033139Y044602D01*
X033129Y044606D01*
X033119Y04461D01*
X03311Y044615D01*
X0331Y04462D01*
X033091Y044627D01*
X033082Y044635D01*
X033081Y044636D01*
X033079Y044637D01*
X033078Y044639D01*
X033075Y044642D01*
X033071Y044647D01*
X033067Y044652D01*
X033063Y044658D01*
X03306Y044665D01*
X033055Y044673D01*
X033051Y044681D01*
X033044Y044699D01*
X033041Y04471D01*
X033039Y04472D01*
X033038Y044732D01*
X033037Y044744D01*
Y044744D01*
Y044746D01*
Y044748D01*
X033038Y044752D01*
Y044756D01*
X033038Y044761D01*
X03304Y044772D01*
X033043Y044784D01*
X033048Y044798D01*
X033053Y044812D01*
X033061Y044825D01*
Y044825D01*
X033063Y044826D01*
X033066Y04483D01*
X033072Y044836D01*
X033079Y044843D01*
X033089Y04485D01*
X033101Y044858D01*
X033116Y044865D01*
X033131Y04487D01*
X033131D01*
X03313Y044871D01*
X033125Y044872D01*
X033119Y044876D01*
X03311Y04488D01*
X0331Y044886D01*
X033091Y044893D01*
X033082Y0449D01*
X033075Y044909D01*
X033074Y044911D01*
X033072Y044914D01*
X033069Y044919D01*
X033066Y044927D01*
X033063Y044936D01*
X03306Y044946D01*
X033057Y044958D01*
X033057Y04497D01*
Y044971D01*
Y044973D01*
Y044976D01*
X033057Y04498D01*
X033058Y044984D01*
X033059Y044989D01*
X033061Y045002D01*
X033066Y045017D01*
X033073Y045032D01*
X033077Y04504D01*
X033082Y045048D01*
X033088Y045055D01*
X033095Y045062D01*
X033096Y045063D01*
X033097Y045063D01*
X033099Y045066D01*
X033102Y045068D01*
X033107Y04507D01*
X033111Y045074D01*
X033116Y045077D01*
X033123Y045081D01*
X033138Y045088D01*
X033156Y045093D01*
X033176Y045097D01*
X033187Y045098D01*
X033199Y045099D01*
X033205D01*
X033209Y045098D01*
D02*
G37*
G36*
X052202D02*
X052206D01*
X052211Y045097D01*
X052223Y045096D01*
X052237Y045092D01*
X052251Y045088D01*
X052267Y045082D01*
X052282Y045072D01*
X052283D01*
X052283Y045071D01*
X052286Y045069D01*
X052289Y045068D01*
X052296Y045062D01*
X052305Y045054D01*
X052314Y045042D01*
X052325Y04503D01*
X052335Y045015D01*
X052343Y044998D01*
Y044997D01*
X052344Y044995D01*
X052345Y044992D01*
X052346Y044989D01*
X052348Y044984D01*
X05235Y044978D01*
X052351Y04497D01*
X052354Y044962D01*
X052356Y044953D01*
X052358Y044942D01*
X05236Y044931D01*
X052361Y044919D01*
X052362Y044905D01*
X052364Y044891D01*
X052364Y044875D01*
Y044859D01*
Y044858D01*
Y044854D01*
Y044849D01*
Y044843D01*
X052364Y044835D01*
Y044825D01*
X052363Y044815D01*
X052362Y044804D01*
X052359Y04478D01*
X052355Y044754D01*
X05235Y044729D01*
X052347Y044718D01*
X052343Y044707D01*
Y044706D01*
X052342Y044704D01*
X052341Y044701D01*
X052339Y044698D01*
X052337Y044692D01*
X052335Y044687D01*
X052328Y044675D01*
X052319Y04466D01*
X052308Y044646D01*
X052296Y044633D01*
X052282Y04462D01*
X052281D01*
X05228Y044619D01*
X052278Y044618D01*
X052274Y044616D01*
X052271Y044614D01*
X052266Y044611D01*
X052255Y044606D01*
X05224Y044601D01*
X052224Y044596D01*
X052206Y044593D01*
X052186Y044592D01*
X052181D01*
X052176Y044592D01*
X052172D01*
X052165Y044593D01*
X052152Y044595D01*
X052137Y044599D01*
X052121Y044605D01*
X052106Y044613D01*
X052091Y044623D01*
X05209Y044624D01*
X052089Y044625D01*
X052085Y044629D01*
X052079Y044637D01*
X052071Y044647D01*
X052063Y04466D01*
X052057Y044676D01*
X052051Y044694D01*
X052047Y044715D01*
X052105Y044719D01*
Y044719D01*
Y044718D01*
X052106Y044716D01*
X052107Y044713D01*
X052108Y044705D01*
X052111Y044697D01*
X052115Y044687D01*
X052119Y044677D01*
X052125Y044667D01*
X052133Y04466D01*
X052134Y044659D01*
X052137Y044657D01*
X052141Y044654D01*
X052148Y044651D01*
X052156Y044648D01*
X052165Y044645D01*
X052175Y044642D01*
X052187Y044642D01*
X052192D01*
X052197Y044642D01*
X052204Y044643D01*
X052212Y044645D01*
X05222Y044647D01*
X052228Y04465D01*
X052237Y044654D01*
X052237Y044655D01*
X05224Y044657D01*
X052244Y04466D01*
X052249Y044664D01*
X052255Y044668D01*
X05226Y044674D01*
X052266Y044681D01*
X052271Y044688D01*
X052272Y044689D01*
X052274Y044692D01*
X052276Y044698D01*
X05228Y044704D01*
X052283Y044713D01*
X052286Y044722D01*
X05229Y044734D01*
X052294Y044747D01*
Y044747D01*
X052295Y044748D01*
Y04475D01*
X052296Y044753D01*
X052297Y04476D01*
X052299Y04477D01*
X0523Y044781D01*
X052302Y044794D01*
X052303Y044807D01*
Y044822D01*
Y044822D01*
Y044825D01*
Y044828D01*
Y044834D01*
X052302Y044832D01*
X052299Y044829D01*
X052296Y044823D01*
X052289Y044817D01*
X052283Y044809D01*
X052274Y044801D01*
X052264Y044794D01*
X052252Y044786D01*
X052251Y044785D01*
X052247Y044783D01*
X05224Y044781D01*
X052232Y044778D01*
X052222Y044774D01*
X052211Y044772D01*
X052198Y044769D01*
X052184Y044769D01*
X052178D01*
X052174Y044769D01*
X052169Y04477D01*
X052162Y044771D01*
X052148Y044774D01*
X052131Y044779D01*
X052123Y044783D01*
X052114Y044787D01*
X052106Y044793D01*
X052097Y044799D01*
X052088Y044806D01*
X05208Y044813D01*
X052079Y044814D01*
X052079Y044815D01*
X052076Y044818D01*
X052073Y044822D01*
X05207Y044826D01*
X052066Y044831D01*
X052063Y044837D01*
X052059Y044845D01*
X052055Y044852D01*
X052051Y044862D01*
X052048Y044871D01*
X052045Y044882D01*
X052042Y044893D01*
X052039Y044905D01*
X052038Y044918D01*
X052038Y044931D01*
Y044932D01*
Y044934D01*
Y044939D01*
X052038Y044944D01*
X052039Y04495D01*
X05204Y044958D01*
X052042Y044966D01*
X052043Y044975D01*
X052048Y044994D01*
X052052Y045004D01*
X052057Y045014D01*
X052061Y045025D01*
X052067Y045035D01*
X052074Y045044D01*
X052082Y045053D01*
X052082Y045054D01*
X052084Y045055D01*
X052086Y045057D01*
X05209Y04506D01*
X052094Y045063D01*
X052099Y045067D01*
X052105Y045072D01*
X052113Y045076D01*
X05212Y04508D01*
X052128Y045085D01*
X052147Y045092D01*
X052158Y045094D01*
X052169Y045097D01*
X052181Y045098D01*
X052193Y045099D01*
X052198D01*
X052202Y045098D01*
D02*
G37*
G36*
X051815Y045096D02*
X051827Y045095D01*
X05184Y045094D01*
X051852Y045093D01*
X051862Y045091D01*
X051864D01*
X051868Y04509D01*
X051875Y045088D01*
X051884Y045086D01*
X051893Y045083D01*
X051903Y045079D01*
X051914Y045074D01*
X051924Y045068D01*
X051924Y045067D01*
X051928Y045065D01*
X051933Y045061D01*
X051938Y045056D01*
X051944Y045049D01*
X051951Y045041D01*
X051958Y045032D01*
X051964Y04502D01*
X051964Y045019D01*
X051966Y045015D01*
X051968Y045009D01*
X051971Y045001D01*
X051974Y044991D01*
X051976Y04498D01*
X051978Y044967D01*
X051979Y044953D01*
Y044952D01*
Y04495D01*
Y044947D01*
X051978Y044942D01*
X051977Y044937D01*
X051976Y04493D01*
X051976Y044924D01*
X051973Y044916D01*
X051969Y044899D01*
X051961Y044881D01*
X051957Y044872D01*
X051952Y044863D01*
X051945Y044854D01*
X051938Y044846D01*
X051937Y044845D01*
X051936Y044844D01*
X051933Y044842D01*
X05193Y044839D01*
X051925Y044836D01*
X05192Y044832D01*
X051913Y044828D01*
X051905Y044825D01*
X051896Y04482D01*
X051885Y044816D01*
X051873Y044812D01*
X05186Y044809D01*
X051845Y044806D01*
X051829Y044804D01*
X051812Y044803D01*
X051793Y044803D01*
X051666D01*
Y0446D01*
X0516D01*
Y045097D01*
X051803D01*
X051815Y045096D01*
D02*
G37*
G36*
X032815D02*
X032827Y045095D01*
X03284Y045094D01*
X032852Y045093D01*
X032862Y045091D01*
X032864D01*
X032868Y04509D01*
X032875Y045088D01*
X032884Y045086D01*
X032893Y045083D01*
X032903Y045079D01*
X032914Y045074D01*
X032924Y045068D01*
X032924Y045067D01*
X032928Y045065D01*
X032933Y045061D01*
X032938Y045056D01*
X032944Y045049D01*
X032951Y045041D01*
X032958Y045032D01*
X032964Y04502D01*
X032964Y045019D01*
X032966Y045015D01*
X032968Y045009D01*
X032971Y045001D01*
X032974Y044991D01*
X032976Y04498D01*
X032978Y044967D01*
X032979Y044953D01*
Y044952D01*
Y04495D01*
Y044947D01*
X032978Y044942D01*
X032977Y044937D01*
X032976Y04493D01*
X032976Y044924D01*
X032973Y044916D01*
X032969Y044899D01*
X032961Y044881D01*
X032957Y044872D01*
X032952Y044863D01*
X032945Y044854D01*
X032938Y044846D01*
X032937Y044845D01*
X032936Y044844D01*
X032933Y044842D01*
X03293Y044839D01*
X032925Y044836D01*
X03292Y044832D01*
X032913Y044828D01*
X032905Y044825D01*
X032896Y04482D01*
X032885Y044816D01*
X032873Y044812D01*
X03286Y044809D01*
X032845Y044806D01*
X032829Y044804D01*
X032812Y044803D01*
X032793Y044803D01*
X032666D01*
Y0446D01*
X0326D01*
Y045097D01*
X032803D01*
X032815Y045096D01*
D02*
G37*
%LPC*%
G36*
X032807Y045038D02*
X032666D01*
Y044861D01*
X0328D01*
X032804Y044862D01*
X032809D01*
X032815Y044862D01*
X032828Y044864D01*
X032843Y044867D01*
X032859Y044871D01*
X032872Y044877D01*
X032878Y04488D01*
X032884Y044884D01*
X032885Y044885D01*
X032888Y044889D01*
X032892Y044894D01*
X032897Y044902D01*
X032902Y044911D01*
X032906Y044922D01*
X032909Y044936D01*
X032911Y044951D01*
Y044952D01*
Y044956D01*
X03291Y044962D01*
X032908Y04497D01*
X032907Y044978D01*
X032904Y044987D01*
X0329Y044996D01*
X032895Y045004D01*
X032894Y045005D01*
X032892Y045008D01*
X032889Y045012D01*
X032884Y045017D01*
X032877Y045021D01*
X032871Y045026D01*
X032862Y04503D01*
X032853Y045034D01*
X032852D01*
X03285Y045035D01*
X032846Y045035D01*
X03284Y045036D01*
X032831Y045037D01*
X032821Y045038D01*
X032807Y045038D01*
D02*
G37*
G36*
X0332Y045049D02*
X033194D01*
X033188Y045048D01*
X03318Y045046D01*
X033171Y045044D01*
X033161Y045039D01*
X033151Y045034D01*
X033142Y045026D01*
X033141Y045026D01*
X033138Y045023D01*
X033135Y045017D01*
X033131Y045011D01*
X033127Y045004D01*
X033123Y044994D01*
X03312Y044984D01*
X033119Y044973D01*
Y044971D01*
Y044967D01*
X033121Y044961D01*
X033122Y044952D01*
X033125Y044943D01*
X033128Y044934D01*
X033134Y044924D01*
X033141Y044915D01*
X033142Y044914D01*
X033145Y044912D01*
X03315Y044908D01*
X033157Y044905D01*
X033165Y0449D01*
X033176Y044897D01*
X033187Y044894D01*
X0332Y044893D01*
X033206D01*
X033212Y044895D01*
X033221Y044896D01*
X03323Y044899D01*
X03324Y044902D01*
X033249Y044908D01*
X033258Y044915D01*
X033259Y044916D01*
X033262Y044919D01*
X033266Y044924D01*
X03327Y04493D01*
X033274Y044938D01*
X033277Y044948D01*
X03328Y044958D01*
X033281Y04497D01*
Y04497D01*
Y044971D01*
Y044975D01*
X03328Y044982D01*
X033278Y044989D01*
X033275Y044998D01*
X033271Y045007D01*
X033265Y045017D01*
X033258Y045026D01*
X033257Y045026D01*
X033254Y045029D01*
X033249Y045033D01*
X033242Y045038D01*
X033234Y045041D01*
X033224Y045045D01*
X033213Y045048D01*
X0332Y045049D01*
D02*
G37*
G36*
X052201Y045048D02*
X052197D01*
X052194Y045048D01*
X052187Y045047D01*
X052177Y045045D01*
X052165Y04504D01*
X052154Y045034D01*
X052142Y045026D01*
X052136Y045021D01*
X05213Y045015D01*
X052128Y045014D01*
X052125Y045009D01*
X052121Y045001D01*
X052116Y044992D01*
X05211Y04498D01*
X052105Y044964D01*
X052102Y044948D01*
X0521Y044929D01*
Y044928D01*
Y044927D01*
Y044924D01*
X052101Y044921D01*
X052102Y044912D01*
X052104Y044902D01*
X052107Y044889D01*
X052113Y044876D01*
X052119Y044864D01*
X052128Y044852D01*
X05213Y04485D01*
X052134Y044847D01*
X05214Y044843D01*
X052148Y044837D01*
X052159Y044831D01*
X052171Y044827D01*
X052184Y044824D01*
X0522Y044822D01*
X052203D01*
X052206Y044823D01*
X052214Y044824D01*
X052224Y044826D01*
X052234Y04483D01*
X052246Y044834D01*
X052258Y044842D01*
X052268Y044852D01*
X05227Y044853D01*
X052273Y044857D01*
X052277Y044864D01*
X052283Y044873D01*
X052287Y044885D01*
X052292Y044899D01*
X052295Y044915D01*
X052296Y044933D01*
Y044934D01*
Y044936D01*
Y044939D01*
X052296Y044942D01*
Y044947D01*
X052295Y044952D01*
X052292Y044964D01*
X052289Y044977D01*
X052284Y044991D01*
X052277Y045004D01*
X052268Y045017D01*
X052267Y045019D01*
X052263Y045022D01*
X052258Y045027D01*
X052249Y045033D01*
X05224Y045038D01*
X052228Y045044D01*
X052215Y045047D01*
X052201Y045048D01*
D02*
G37*
G36*
X033199Y044843D02*
X033195D01*
X033192Y044843D01*
X033184Y044842D01*
X033174Y04484D01*
X033162Y044837D01*
X03315Y044831D01*
X033139Y044825D01*
X033128Y044815D01*
X033126Y044813D01*
X033123Y044809D01*
X033119Y044803D01*
X033114Y044795D01*
X033109Y044784D01*
X033104Y044772D01*
X033101Y044758D01*
X0331Y044743D01*
Y044742D01*
Y044738D01*
X0331Y044734D01*
X033101Y044727D01*
X033103Y044719D01*
X033105Y04471D01*
X033108Y044701D01*
X033112Y044692D01*
X033113Y044691D01*
X033114Y044688D01*
X033117Y044684D01*
X033121Y044679D01*
X033126Y044673D01*
X033132Y044666D01*
X03314Y04466D01*
X033148Y044654D01*
X03315Y044654D01*
X033153Y044652D01*
X033157Y044651D01*
X033164Y044648D01*
X033172Y044645D01*
X033181Y044644D01*
X03319Y044642D01*
X033201Y044642D01*
X033206D01*
X033209Y044642D01*
X033216Y044643D01*
X033227Y044645D01*
X033238Y044648D01*
X03325Y044654D01*
X033261Y04466D01*
X033273Y04467D01*
X033274Y044671D01*
X033277Y044675D01*
X033282Y044681D01*
X033287Y044689D01*
X033293Y044699D01*
X033297Y044712D01*
X0333Y044725D01*
X033302Y044741D01*
Y044742D01*
Y044744D01*
Y044746D01*
X033301Y044749D01*
X0333Y044756D01*
X033298Y044767D01*
X033295Y044778D01*
X033289Y044791D01*
X033282Y044803D01*
X033272Y044814D01*
X033271Y044815D01*
X033267Y044818D01*
X033261Y044823D01*
X033252Y044829D01*
X033242Y044834D01*
X033229Y044839D01*
X033215Y044842D01*
X033199Y044843D01*
D02*
G37*
G36*
X051807Y045038D02*
X051666D01*
Y044861D01*
X0518D01*
X051804Y044862D01*
X051809D01*
X051815Y044862D01*
X051828Y044864D01*
X051843Y044867D01*
X051859Y044871D01*
X051872Y044877D01*
X051878Y04488D01*
X051884Y044884D01*
X051885Y044885D01*
X051888Y044889D01*
X051892Y044894D01*
X051897Y044902D01*
X051902Y044911D01*
X051906Y044922D01*
X051909Y044936D01*
X051911Y044951D01*
Y044952D01*
Y044956D01*
X05191Y044962D01*
X051908Y04497D01*
X051907Y044978D01*
X051904Y044987D01*
X0519Y044996D01*
X051895Y045004D01*
X051894Y045005D01*
X051892Y045008D01*
X051889Y045012D01*
X051884Y045017D01*
X051877Y045021D01*
X051871Y045026D01*
X051862Y04503D01*
X051853Y045034D01*
X051852D01*
X05185Y045035D01*
X051846Y045035D01*
X05184Y045036D01*
X051831Y045037D01*
X051821Y045038D01*
X051807Y045038D01*
D02*
G37*
%LPD*%
D20*
X02743Y05265D02*
Y05365D01*
Y0547D02*
Y0557D01*
Y0567D02*
Y0577D01*
Y05875D02*
Y05975D01*
Y0413D02*
Y0423D01*
Y0433D02*
Y0443D01*
Y0453D02*
Y0463D01*
Y03465D02*
Y03565D01*
Y03265D02*
Y03365D01*
Y03065D02*
Y03165D01*
Y02865D02*
Y02965D01*
Y02665D02*
Y02765D01*
Y02465D02*
Y02565D01*
Y01195D02*
Y01295D01*
Y01395D02*
Y01495D01*
Y01605D02*
Y01705D01*
Y01805D02*
Y01905D01*
Y04725D02*
Y04825D01*
D23*
X02885Y05315D02*
G03*
X028731Y053569I-0008J0D01*
G01*
X028754Y05277D02*
G03*
X02885Y05315I-000706J00038D01*
G01*
Y0552D02*
G03*
X028731Y055619I-0008J0D01*
G01*
X028754Y05482D02*
G03*
X02885Y0552I-000706J00038D01*
G01*
Y0572D02*
G03*
X028731Y057619I-0008J0D01*
G01*
X028754Y05682D02*
G03*
X02885Y0572I-000706J00038D01*
G01*
Y05925D02*
G03*
X028731Y059669I-0008J0D01*
G01*
X028754Y05887D02*
G03*
X02885Y05925I-000706J00038D01*
G01*
Y0418D02*
G03*
X028731Y042219I-0008J0D01*
G01*
X028754Y04142D02*
G03*
X02885Y0418I-000706J00038D01*
G01*
Y0438D02*
G03*
X028731Y044219I-0008J0D01*
G01*
X028754Y04342D02*
G03*
X02885Y0438I-000706J00038D01*
G01*
Y0458D02*
G03*
X028731Y046219I-0008J0D01*
G01*
X028754Y04542D02*
G03*
X02885Y0458I-000706J00038D01*
G01*
Y03515D02*
G03*
X028731Y035569I-0008J0D01*
G01*
X028754Y03477D02*
G03*
X02885Y03515I-000706J00038D01*
G01*
Y03315D02*
G03*
X028731Y033569I-0008J0D01*
G01*
X028754Y03277D02*
G03*
X02885Y03315I-000706J00038D01*
G01*
Y03115D02*
G03*
X028731Y031569I-0008J0D01*
G01*
X028754Y03077D02*
G03*
X02885Y03115I-000706J00038D01*
G01*
Y02915D02*
G03*
X028731Y029569I-0008J0D01*
G01*
X028754Y02877D02*
G03*
X02885Y02915I-000706J00038D01*
G01*
Y02715D02*
G03*
X028731Y027569I-0008J0D01*
G01*
X028754Y02677D02*
G03*
X02885Y02715I-000706J00038D01*
G01*
X028754Y02477D02*
G03*
X02885Y02515I-000706J00038D01*
G01*
D02*
G03*
X028731Y025569I-0008J0D01*
G01*
X02885Y01245D02*
G03*
X028731Y012869I-0008J0D01*
G01*
X028754Y01207D02*
G03*
X02885Y01245I-000706J00038D01*
G01*
Y01445D02*
G03*
X028731Y014869I-0008J0D01*
G01*
X028754Y01407D02*
G03*
X02885Y01445I-000706J00038D01*
G01*
Y01655D02*
G03*
X028731Y016969I-0008J0D01*
G01*
X028754Y01617D02*
G03*
X02885Y01655I-000706J00038D01*
G01*
Y01855D02*
G03*
X028731Y018969I-0008J0D01*
G01*
X028754Y01817D02*
G03*
X02885Y01855I-000706J00038D01*
G01*
Y04775D02*
G03*
X028731Y048169I-0008J0D01*
G01*
X028754Y04737D02*
G03*
X02885Y04775I-000706J00038D01*
G01*
D47*
X0316Y0166D02*
G03*
X0341Y0141I0025J0D01*
G01*
X0506D02*
G03*
X0531Y0166I0J0025D01*
G01*
Y01985D01*
X0341Y0141D02*
X0506D01*
X0316Y0166D02*
Y01985D01*
D48*
X02805Y05355D02*
G03*
X02765Y05315I0J-0004D01*
G01*
X02805Y0534D02*
G03*
X0278Y05315I0J-00025D01*
G01*
X02805Y05275D02*
G03*
X02845Y05315I0J0004D01*
G01*
X02805Y0529D02*
G03*
X0283Y05315I0J00025D01*
G01*
X02758Y053534D02*
G03*
X02745Y05315I000465J-000372D01*
G01*
D02*
G03*
X02759Y05275I000611J-000011D01*
G01*
X02865Y05315D02*
G03*
X028498Y053549I-0006J0D01*
G01*
X028511Y05276D02*
G03*
X02865Y05315I-000469J000387D01*
G01*
X02805Y0556D02*
G03*
X02765Y0552I0J-0004D01*
G01*
X02805Y05545D02*
G03*
X0278Y0552I0J-00025D01*
G01*
X02805Y0548D02*
G03*
X02845Y0552I0J0004D01*
G01*
X02805Y05495D02*
G03*
X0283Y0552I0J00025D01*
G01*
X02758Y055584D02*
G03*
X02745Y0552I000465J-000372D01*
G01*
D02*
G03*
X02759Y0548I000611J-000011D01*
G01*
X02865Y0552D02*
G03*
X028498Y055599I-0006J0D01*
G01*
X028511Y05481D02*
G03*
X02865Y0552I-000469J000387D01*
G01*
X02805Y0576D02*
G03*
X02765Y0572I0J-0004D01*
G01*
X02805Y05745D02*
G03*
X0278Y0572I0J-00025D01*
G01*
X02805Y0568D02*
G03*
X02845Y0572I0J0004D01*
G01*
X02805Y05695D02*
G03*
X0283Y0572I0J00025D01*
G01*
X02758Y057584D02*
G03*
X02745Y0572I000465J-000372D01*
G01*
D02*
G03*
X02759Y0568I000611J-000011D01*
G01*
X02865Y0572D02*
G03*
X028498Y057599I-0006J0D01*
G01*
X028511Y05681D02*
G03*
X02865Y0572I-000469J000387D01*
G01*
X02805Y05965D02*
G03*
X02765Y05925I0J-0004D01*
G01*
X02805Y0595D02*
G03*
X0278Y05925I0J-00025D01*
G01*
X02805Y05885D02*
G03*
X02845Y05925I0J0004D01*
G01*
X02805Y059D02*
G03*
X0283Y05925I0J00025D01*
G01*
X02758Y059634D02*
G03*
X02745Y05925I000465J-000372D01*
G01*
D02*
G03*
X02759Y05885I000611J-000011D01*
G01*
X02865Y05925D02*
G03*
X028498Y059649I-0006J0D01*
G01*
X028511Y05886D02*
G03*
X02865Y05925I-000469J000387D01*
G01*
X02805Y0422D02*
G03*
X02765Y0418I0J-0004D01*
G01*
X02805Y04205D02*
G03*
X0278Y0418I0J-00025D01*
G01*
X02805Y0414D02*
G03*
X02845Y0418I0J0004D01*
G01*
X02805Y04155D02*
G03*
X0283Y0418I0J00025D01*
G01*
X02758Y042184D02*
G03*
X02745Y0418I000465J-000372D01*
G01*
D02*
G03*
X02759Y0414I000611J-000011D01*
G01*
X02865Y0418D02*
G03*
X028498Y042199I-0006J0D01*
G01*
X028511Y04141D02*
G03*
X02865Y0418I-000469J000387D01*
G01*
X02805Y0442D02*
G03*
X02765Y0438I0J-0004D01*
G01*
X02805Y04405D02*
G03*
X0278Y0438I0J-00025D01*
G01*
X02805Y0434D02*
G03*
X02845Y0438I0J0004D01*
G01*
X02805Y04355D02*
G03*
X0283Y0438I0J00025D01*
G01*
X02758Y044184D02*
G03*
X02745Y0438I000465J-000372D01*
G01*
D02*
G03*
X02759Y0434I000611J-000011D01*
G01*
X02865Y0438D02*
G03*
X028498Y044199I-0006J0D01*
G01*
X028511Y04341D02*
G03*
X02865Y0438I-000469J000387D01*
G01*
X02805Y0462D02*
G03*
X02765Y0458I0J-0004D01*
G01*
X02805Y04605D02*
G03*
X0278Y0458I0J-00025D01*
G01*
X02805Y0454D02*
G03*
X02845Y0458I0J0004D01*
G01*
X02805Y04555D02*
G03*
X0283Y0458I0J00025D01*
G01*
X02758Y046184D02*
G03*
X02745Y0458I000465J-000372D01*
G01*
D02*
G03*
X02759Y0454I000611J-000011D01*
G01*
X02865Y0458D02*
G03*
X028498Y046199I-0006J0D01*
G01*
X028511Y04541D02*
G03*
X02865Y0458I-000469J000387D01*
G01*
X02805Y03555D02*
G03*
X02765Y03515I0J-0004D01*
G01*
X02805Y0354D02*
G03*
X0278Y03515I0J-00025D01*
G01*
X02805Y03475D02*
G03*
X02845Y03515I0J0004D01*
G01*
X02805Y0349D02*
G03*
X0283Y03515I0J00025D01*
G01*
X02758Y035534D02*
G03*
X02745Y03515I000465J-000372D01*
G01*
D02*
G03*
X02759Y03475I000611J-000011D01*
G01*
X02865Y03515D02*
G03*
X028498Y035549I-0006J0D01*
G01*
X028511Y03476D02*
G03*
X02865Y03515I-000469J000387D01*
G01*
X02805Y03355D02*
G03*
X02765Y03315I0J-0004D01*
G01*
X02805Y0334D02*
G03*
X0278Y03315I0J-00025D01*
G01*
X02805Y03275D02*
G03*
X02845Y03315I0J0004D01*
G01*
X02805Y0329D02*
G03*
X0283Y03315I0J00025D01*
G01*
X02758Y033534D02*
G03*
X02745Y03315I000465J-000372D01*
G01*
D02*
G03*
X02759Y03275I000611J-000011D01*
G01*
X02865Y03315D02*
G03*
X028498Y033549I-0006J0D01*
G01*
X028511Y03276D02*
G03*
X02865Y03315I-000469J000387D01*
G01*
X02805Y03155D02*
G03*
X02765Y03115I0J-0004D01*
G01*
X02805Y0314D02*
G03*
X0278Y03115I0J-00025D01*
G01*
X02805Y03075D02*
G03*
X02845Y03115I0J0004D01*
G01*
X02805Y0309D02*
G03*
X0283Y03115I0J00025D01*
G01*
X02758Y031534D02*
G03*
X02745Y03115I000465J-000372D01*
G01*
D02*
G03*
X02759Y03075I000611J-000011D01*
G01*
X02865Y03115D02*
G03*
X028498Y031549I-0006J0D01*
G01*
X028511Y03076D02*
G03*
X02865Y03115I-000469J000387D01*
G01*
X02805Y02955D02*
G03*
X02765Y02915I0J-0004D01*
G01*
X02805Y0294D02*
G03*
X0278Y02915I0J-00025D01*
G01*
X02805Y02875D02*
G03*
X02845Y02915I0J0004D01*
G01*
X02805Y0289D02*
G03*
X0283Y02915I0J00025D01*
G01*
X02758Y029534D02*
G03*
X02745Y02915I000465J-000372D01*
G01*
D02*
G03*
X02759Y02875I000611J-000011D01*
G01*
X02865Y02915D02*
G03*
X028498Y029549I-0006J0D01*
G01*
X028511Y02876D02*
G03*
X02865Y02915I-000469J000387D01*
G01*
X02805Y02755D02*
G03*
X02765Y02715I0J-0004D01*
G01*
X02805Y0274D02*
G03*
X0278Y02715I0J-00025D01*
G01*
X02805Y02675D02*
G03*
X02845Y02715I0J0004D01*
G01*
X02805Y0269D02*
G03*
X0283Y02715I0J00025D01*
G01*
X02758Y027534D02*
G03*
X02745Y02715I000465J-000372D01*
G01*
D02*
G03*
X02759Y02675I000611J-000011D01*
G01*
X02865Y02715D02*
G03*
X028498Y027549I-0006J0D01*
G01*
X028511Y02676D02*
G03*
X02865Y02715I-000469J000387D01*
G01*
X028511Y02476D02*
G03*
X02865Y02515I-000469J000387D01*
G01*
D02*
G03*
X028498Y025549I-0006J0D01*
G01*
X02745Y02515D02*
G03*
X02759Y02475I000611J-000011D01*
G01*
X02758Y025534D02*
G03*
X02745Y02515I000465J-000372D01*
G01*
X02805Y0249D02*
G03*
X0283Y02515I0J00025D01*
G01*
X02805Y02475D02*
G03*
X02845Y02515I0J0004D01*
G01*
X02805Y0254D02*
G03*
X0278Y02515I0J-00025D01*
G01*
X02805Y02555D02*
G03*
X02765Y02515I0J-0004D01*
G01*
X02805Y01285D02*
G03*
X02765Y01245I0J-0004D01*
G01*
X02805Y0127D02*
G03*
X0278Y01245I0J-00025D01*
G01*
X02805Y01205D02*
G03*
X02845Y01245I0J0004D01*
G01*
X02805Y0122D02*
G03*
X0283Y01245I0J00025D01*
G01*
X02758Y012834D02*
G03*
X02745Y01245I000465J-000372D01*
G01*
D02*
G03*
X02759Y01205I000611J-000011D01*
G01*
X02865Y01245D02*
G03*
X028498Y012849I-0006J0D01*
G01*
X028511Y01206D02*
G03*
X02865Y01245I-000469J000387D01*
G01*
X02805Y01485D02*
G03*
X02765Y01445I0J-0004D01*
G01*
X02805Y0147D02*
G03*
X0278Y01445I0J-00025D01*
G01*
X02805Y01405D02*
G03*
X02845Y01445I0J0004D01*
G01*
X02805Y0142D02*
G03*
X0283Y01445I0J00025D01*
G01*
X02758Y014834D02*
G03*
X02745Y01445I000465J-000372D01*
G01*
D02*
G03*
X02759Y01405I000611J-000011D01*
G01*
X02865Y01445D02*
G03*
X028498Y014849I-0006J0D01*
G01*
X028511Y01406D02*
G03*
X02865Y01445I-000469J000387D01*
G01*
X02805Y01695D02*
G03*
X02765Y01655I0J-0004D01*
G01*
X02805Y0168D02*
G03*
X0278Y01655I0J-00025D01*
G01*
X02805Y01615D02*
G03*
X02845Y01655I0J0004D01*
G01*
X02805Y0163D02*
G03*
X0283Y01655I0J00025D01*
G01*
X02758Y016934D02*
G03*
X02745Y01655I000465J-000372D01*
G01*
D02*
G03*
X02759Y01615I000611J-000011D01*
G01*
X02865Y01655D02*
G03*
X028498Y016949I-0006J0D01*
G01*
X028511Y01616D02*
G03*
X02865Y01655I-000469J000387D01*
G01*
X02805Y01895D02*
G03*
X02765Y01855I0J-0004D01*
G01*
X02805Y0188D02*
G03*
X0278Y01855I0J-00025D01*
G01*
X02805Y01815D02*
G03*
X02845Y01855I0J0004D01*
G01*
X02805Y0183D02*
G03*
X0283Y01855I0J00025D01*
G01*
X02758Y018934D02*
G03*
X02745Y01855I000465J-000372D01*
G01*
D02*
G03*
X02759Y01815I000611J-000011D01*
G01*
X02865Y01855D02*
G03*
X028498Y018949I-0006J0D01*
G01*
X028511Y01816D02*
G03*
X02865Y01855I-000469J000387D01*
G01*
X02805Y04815D02*
G03*
X02765Y04775I0J-0004D01*
G01*
X02805Y048D02*
G03*
X0278Y04775I0J-00025D01*
G01*
X02805Y04735D02*
G03*
X02845Y04775I0J0004D01*
G01*
X02805Y0475D02*
G03*
X0283Y04775I0J00025D01*
G01*
X02758Y048134D02*
G03*
X02745Y04775I000465J-000372D01*
G01*
D02*
G03*
X02759Y04735I000611J-000011D01*
G01*
X02865Y04775D02*
G03*
X028498Y048149I-0006J0D01*
G01*
X028511Y04736D02*
G03*
X02865Y04775I-000469J000387D01*
G01*
X037295Y017063D02*
Y019559D01*
X039094Y017063D02*
Y019559D01*
X036401Y0296D02*
Y032096D01*
X0382Y0296D02*
Y032096D01*
X046949Y022004D02*
Y0245D01*
X04515Y022004D02*
Y0245D01*
X046999Y029554D02*
Y03205D01*
X0452Y029554D02*
Y03205D01*
D88*
X03335Y0216D02*
D03*
X03235D02*
D03*
Y0226D02*
D03*
X03335D02*
D03*
X03235Y0236D02*
D03*
X03335D02*
D03*
X03235Y0246D02*
D03*
Y0256D02*
D03*
Y0266D02*
D03*
X03335Y0246D02*
D03*
Y0256D02*
D03*
Y0266D02*
D03*
X03235Y0276D02*
D03*
X03335D02*
D03*
X03235Y0286D02*
D03*
X03335D02*
D03*
X03235Y0296D02*
D03*
X03335D02*
D03*
X03235Y0306D02*
D03*
X03335D02*
D03*
X03235Y0316D02*
D03*
X03335D02*
D03*
X03235Y0326D02*
D03*
X03335D02*
D03*
X03235Y0336D02*
D03*
X03335D02*
D03*
X03235Y0346D02*
D03*
X03335D02*
D03*
X03235Y0356D02*
D03*
X03335D02*
D03*
X03235Y0366D02*
D03*
X03335D02*
D03*
X03235Y0376D02*
D03*
X03335D02*
D03*
X03235Y0386D02*
D03*
X03335D02*
D03*
X03235Y0396D02*
D03*
X03335D02*
D03*
X03235Y0406D02*
D03*
X03335D02*
D03*
X03235Y0416D02*
D03*
X03335D02*
D03*
X03235Y0426D02*
D03*
X03335D02*
D03*
X03235Y0436D02*
D03*
X03335D02*
D03*
X05235Y0216D02*
D03*
X05135D02*
D03*
Y0226D02*
D03*
X05235D02*
D03*
X05135Y0236D02*
D03*
X05235D02*
D03*
X05135Y0246D02*
D03*
Y0256D02*
D03*
Y0266D02*
D03*
X05235Y0246D02*
D03*
Y0256D02*
D03*
Y0266D02*
D03*
X05135Y0276D02*
D03*
X05235D02*
D03*
X05135Y0286D02*
D03*
X05235D02*
D03*
X05135Y0296D02*
D03*
X05235D02*
D03*
X05135Y0306D02*
D03*
X05235D02*
D03*
X05135Y0316D02*
D03*
X05235D02*
D03*
X05135Y0326D02*
D03*
X05235D02*
D03*
X05135Y0336D02*
D03*
X05235D02*
D03*
X05135Y0346D02*
D03*
X05235D02*
D03*
X05135Y0356D02*
D03*
X05235D02*
D03*
X05135Y0366D02*
D03*
X05235D02*
D03*
X05135Y0376D02*
D03*
X05235D02*
D03*
X05135Y0386D02*
D03*
X05235D02*
D03*
X05135Y0396D02*
D03*
X05235D02*
D03*
X05135Y0406D02*
D03*
X05235D02*
D03*
X05135Y0416D02*
D03*
X05235D02*
D03*
X05135Y0426D02*
D03*
X05235D02*
D03*
X05135Y0436D02*
D03*
X05235D02*
D03*
D89*
X03713Y019464D02*
D03*
Y019209D02*
D03*
X03713Y018953D02*
D03*
Y018697D02*
D03*
X03713Y018441D02*
D03*
X03713Y018183D02*
D03*
X03713Y017923D02*
D03*
Y017673D02*
D03*
X039258D02*
D03*
Y017923D02*
D03*
X039259Y018183D02*
D03*
X039259Y018441D02*
D03*
X039259Y018697D02*
D03*
Y018953D02*
D03*
X039259Y019209D02*
D03*
Y019464D02*
D03*
X03713Y017413D02*
D03*
Y017153D02*
D03*
X039259Y017413D02*
D03*
Y017153D02*
D03*
X036236Y032002D02*
D03*
Y031746D02*
D03*
Y03149D02*
D03*
Y031234D02*
D03*
Y030978D02*
D03*
Y03072D02*
D03*
Y03046D02*
D03*
Y03021D02*
D03*
X038365D02*
D03*
Y03046D02*
D03*
Y03072D02*
D03*
Y030978D02*
D03*
Y031234D02*
D03*
Y03149D02*
D03*
Y031746D02*
D03*
Y032002D02*
D03*
X036236Y02995D02*
D03*
Y02969D02*
D03*
X038365Y02995D02*
D03*
Y02969D02*
D03*
X047114Y022098D02*
D03*
Y022354D02*
D03*
Y02261D02*
D03*
Y022866D02*
D03*
Y023122D02*
D03*
Y02338D02*
D03*
Y02364D02*
D03*
Y02389D02*
D03*
X044985D02*
D03*
Y02364D02*
D03*
Y02338D02*
D03*
Y023122D02*
D03*
Y022866D02*
D03*
Y02261D02*
D03*
Y022354D02*
D03*
Y022098D02*
D03*
X047114Y02415D02*
D03*
Y02441D02*
D03*
X044985Y02415D02*
D03*
Y02441D02*
D03*
X047164Y029648D02*
D03*
Y029904D02*
D03*
Y03016D02*
D03*
Y030416D02*
D03*
Y030672D02*
D03*
Y03093D02*
D03*
Y03119D02*
D03*
Y03144D02*
D03*
X045035D02*
D03*
Y03119D02*
D03*
Y03093D02*
D03*
Y030672D02*
D03*
Y030416D02*
D03*
Y03016D02*
D03*
Y029904D02*
D03*
Y029648D02*
D03*
X047164Y0317D02*
D03*
Y03196D02*
D03*
X045035Y0317D02*
D03*
Y03196D02*
D03*
M02*
