%FSTAX24Y24*%
%MOIN*%
G70*
G01*
G75*
%ADD10R,0.0500X0.0394*%
%ADD11R,0.7500X0.0100*%
%ADD12R,0.0500X0.0500*%
G04:AMPARAMS|DCode=13|XSize=37.4mil|YSize=19.7mil|CornerRadius=2.5mil|HoleSize=0mil|Usage=FLASHONLY|Rotation=180.000|XOffset=0mil|YOffset=0mil|HoleType=Round|Shape=RoundedRectangle|*
%AMROUNDEDRECTD13*
21,1,0.0374,0.0148,0,0,180.0*
21,1,0.0325,0.0197,0,0,180.0*
1,1,0.0049,-0.0162,0.0074*
1,1,0.0049,0.0162,0.0074*
1,1,0.0049,0.0162,-0.0074*
1,1,0.0049,-0.0162,-0.0074*
%
%ADD13ROUNDEDRECTD13*%
%ADD14R,0.0500X0.0500*%
%ADD15R,0.0394X0.0500*%
%ADD16R,0.0390X0.0120*%
%ADD17O,0.1457X0.0256*%
%ADD18O,0.0118X0.0532*%
%ADD19C,0.0160*%
%ADD20C,0.0080*%
%ADD21C,0.0120*%
%ADD22C,0.0200*%
%ADD23C,0.0100*%
%ADD24C,0.1500*%
%ADD25C,0.1874*%
%ADD26C,0.0665*%
%ADD27R,0.0665X0.0665*%
%ADD28O,0.1575X0.1360*%
%ADD29R,0.1575X0.1360*%
%ADD30R,0.0638X0.0638*%
%ADD31C,0.0638*%
%ADD32C,0.0591*%
%ADD33R,0.0591X0.0591*%
%ADD34P,0.0714X8X202.5*%
%ADD35O,0.0900X0.0620*%
%ADD36R,0.0900X0.0620*%
%ADD37O,0.0850X0.0600*%
%ADD38R,0.0850X0.0600*%
%ADD39O,0.0800X0.0640*%
%ADD40R,0.0800X0.0640*%
%ADD41R,0.1181X0.0902*%
%ADD42O,0.1181X0.0902*%
%ADD43C,0.0400*%
%ADD44C,0.0500*%
%ADD45C,0.0400*%
%ADD46C,0.0079*%
%ADD47C,0.0050*%
%ADD48C,0.0060*%
%ADD49C,0.0098*%
%ADD50C,0.0070*%
%ADD51C,0.0040*%
%ADD52C,0.0059*%
%ADD53R,0.0315X0.0945*%
%ADD54R,0.0580X0.0474*%
%ADD55R,0.7580X0.0180*%
%ADD56R,0.0580X0.0580*%
G04:AMPARAMS|DCode=57|XSize=45.4mil|YSize=27.7mil|CornerRadius=6.5mil|HoleSize=0mil|Usage=FLASHONLY|Rotation=180.000|XOffset=0mil|YOffset=0mil|HoleType=Round|Shape=RoundedRectangle|*
%AMROUNDEDRECTD57*
21,1,0.0454,0.0148,0,0,180.0*
21,1,0.0325,0.0277,0,0,180.0*
1,1,0.0129,-0.0162,0.0074*
1,1,0.0129,0.0162,0.0074*
1,1,0.0129,0.0162,-0.0074*
1,1,0.0129,-0.0162,-0.0074*
%
%ADD57ROUNDEDRECTD57*%
%ADD58R,0.0580X0.0580*%
%ADD59R,0.0474X0.0580*%
%ADD60R,0.0470X0.0200*%
%ADD61O,0.1537X0.0336*%
%ADD62O,0.0158X0.0572*%
%ADD63C,0.1580*%
%ADD64C,0.1954*%
%ADD65C,0.0745*%
%ADD66R,0.0745X0.0745*%
%ADD67O,0.1655X0.1440*%
%ADD68R,0.1655X0.1440*%
%ADD69R,0.0718X0.0718*%
%ADD70C,0.0718*%
%ADD71C,0.0671*%
%ADD72R,0.0671X0.0671*%
%ADD73P,0.0801X8X202.5*%
%ADD74O,0.0980X0.0700*%
%ADD75R,0.0980X0.0700*%
%ADD76O,0.0930X0.0680*%
%ADD77R,0.0930X0.0680*%
%ADD78O,0.0880X0.0720*%
%ADD79R,0.0880X0.0720*%
%ADD80R,0.1261X0.0982*%
%ADD81O,0.1261X0.0982*%
%ADD82C,0.0480*%
%ADD83C,0.0580*%
%ADD84C,0.0039*%
%ADD85C,0.0020*%
%ADD86C,0.0100*%
%ADD87C,0.0030*%
%ADD88R,0.0200X0.0200*%
%ADD89R,0.0330X0.0080*%
%ADD90R,0.6000X0.6750*%
%ADD91R,0.4000X0.4500*%
%ADD92R,0.7250X0.7000*%
%ADD93C,0.0067*%
D47*
X05611Y06195D02*
X05729D01*
X0567Y06136D02*
Y06254D01*
X05067Y05671D02*
X051954D01*
X051312Y056068D02*
Y057352D01*
X035313Y056151D02*
X035743D01*
X035528Y055936D02*
Y056365D01*
X035857Y057269D02*
X036286D01*
X036071Y057054D02*
Y057483D01*
X0364Y056151D02*
X03683D01*
X036615Y055936D02*
Y056365D01*
X036944Y057269D02*
X037373D01*
X037158Y057054D02*
Y057483D01*
X037487Y056151D02*
X037917D01*
X037702Y055936D02*
Y056365D01*
X038031Y057269D02*
X03846D01*
X038245Y057054D02*
Y057483D01*
X038574Y056151D02*
X039004D01*
X038789Y055936D02*
Y056365D01*
X039118Y057269D02*
X039547D01*
X039332Y057054D02*
Y057483D01*
X039661Y056151D02*
X040091D01*
X039876Y055936D02*
Y056365D01*
X040205Y057269D02*
X040634D01*
X040419Y057054D02*
Y057483D01*
X040748Y056151D02*
X041178D01*
X040963Y055936D02*
Y056365D01*
X041292Y057269D02*
X041721D01*
X041507Y057054D02*
Y057483D01*
X041835Y056151D02*
X042265D01*
X04205Y055936D02*
Y056365D01*
X042379Y057269D02*
X042808D01*
X042593Y057054D02*
Y057483D01*
X042922Y056151D02*
X043352D01*
X043137Y055936D02*
Y056365D01*
X043466Y057269D02*
X043895D01*
X043681Y057054D02*
Y057483D01*
X044009Y056151D02*
X044439D01*
X044224Y055936D02*
Y056365D01*
X044553Y057269D02*
X044982D01*
X044768Y057054D02*
Y057483D01*
X045096Y056151D02*
X045526D01*
X045311Y055936D02*
Y056365D01*
X04564Y057269D02*
X046069D01*
X045855Y057054D02*
Y057483D01*
X046183Y056151D02*
X046613D01*
X046398Y055936D02*
Y056365D01*
X046727Y057269D02*
X047156D01*
X046942Y057054D02*
Y057483D01*
X04727Y056151D02*
X0477D01*
X047485Y055936D02*
Y056365D01*
X047814Y057269D02*
X048243D01*
X048029Y057054D02*
Y057483D01*
X048357Y056151D02*
X048787D01*
X048572Y055936D02*
Y056365D01*
X032146Y05671D02*
X03343D01*
X032788Y056068D02*
Y057352D01*
X02796Y06195D02*
X02914D01*
X02855Y06136D02*
Y06254D01*
X02416Y03975D02*
X02484D01*
X0245Y03941D02*
Y04009D01*
X02416Y04175D02*
X02484D01*
X0245Y04141D02*
Y04209D01*
X02416Y04375D02*
X02484D01*
X0245Y04341D02*
Y04409D01*
X02416Y04575D02*
X02484D01*
X0245Y04541D02*
Y04609D01*
X02416Y04775D02*
X02484D01*
X0245Y04741D02*
Y04809D01*
X02416Y04975D02*
X02484D01*
X0245Y04941D02*
Y05009D01*
X03315Y0216D02*
X03355D01*
X03335Y0214D02*
Y0218D01*
X03215Y0216D02*
X03255D01*
X03235Y0214D02*
Y0218D01*
X03315Y0226D02*
X03355D01*
X03335Y0224D02*
Y0228D01*
X03215Y0226D02*
X03255D01*
X03235Y0224D02*
Y0228D01*
X03315Y0236D02*
X03355D01*
X03335Y0234D02*
Y0238D01*
X03215Y0236D02*
X03255D01*
X03235Y0234D02*
Y0238D01*
X03315Y0246D02*
X03355D01*
X03335Y0244D02*
Y0248D01*
X03215Y0246D02*
X03255D01*
X03235Y0244D02*
Y0248D01*
X03315Y0256D02*
X03355D01*
X03335Y0254D02*
Y0258D01*
X03215Y0256D02*
X03255D01*
X03235Y0254D02*
Y0258D01*
X03315Y0266D02*
X03355D01*
X03335Y0264D02*
Y0268D01*
X03215Y0266D02*
X03255D01*
X03235Y0264D02*
Y0268D01*
X03315Y0276D02*
X03355D01*
X03335Y0274D02*
Y0278D01*
X03215Y0276D02*
X03255D01*
X03235Y0274D02*
Y0278D01*
X03315Y0286D02*
X03355D01*
X03335Y0284D02*
Y0288D01*
X03215Y0286D02*
X03255D01*
X03235Y0284D02*
Y0288D01*
X03315Y0296D02*
X03355D01*
X03335Y0294D02*
Y0298D01*
X03215Y0296D02*
X03255D01*
X03235Y0294D02*
Y0298D01*
X03315Y0306D02*
X03355D01*
X03335Y0304D02*
Y0308D01*
X03215Y0306D02*
X03255D01*
X03235Y0304D02*
Y0308D01*
X03315Y0316D02*
X03355D01*
X03335Y0314D02*
Y0318D01*
X03215Y0316D02*
X03255D01*
X03235Y0314D02*
Y0318D01*
X03315Y0326D02*
X03355D01*
X03335Y0324D02*
Y0328D01*
X03215Y0326D02*
X03255D01*
X03235Y0324D02*
Y0328D01*
X03315Y0336D02*
X03355D01*
X03335Y0334D02*
Y0338D01*
X03215Y0336D02*
X03255D01*
X03235Y0334D02*
Y0338D01*
X03315Y0346D02*
X03355D01*
X03335Y0344D02*
Y0348D01*
X03215Y0346D02*
X03255D01*
X03235Y0344D02*
Y0348D01*
X03315Y0356D02*
X03355D01*
X03335Y0354D02*
Y0358D01*
X03215Y0356D02*
X03255D01*
X03235Y0354D02*
Y0358D01*
X03315Y0366D02*
X03355D01*
X03335Y0364D02*
Y0368D01*
X03215Y0366D02*
X03255D01*
X03235Y0364D02*
Y0368D01*
X03315Y0376D02*
X03355D01*
X03335Y0374D02*
Y0378D01*
X03215Y0376D02*
X03255D01*
X03235Y0374D02*
Y0378D01*
X03315Y0386D02*
X03355D01*
X03335Y0384D02*
Y0388D01*
X03215Y0386D02*
X03255D01*
X03235Y0384D02*
Y0388D01*
X03315Y0396D02*
X03355D01*
X03335Y0394D02*
Y0398D01*
X03215Y0396D02*
X03255D01*
X03235Y0394D02*
Y0398D01*
X03315Y0406D02*
X03355D01*
X03335Y0404D02*
Y0408D01*
X03215Y0406D02*
X03255D01*
X03235Y0404D02*
Y0408D01*
X03315Y0416D02*
X03355D01*
X03335Y0414D02*
Y0418D01*
X03215Y0416D02*
X03255D01*
X03235Y0414D02*
Y0418D01*
X03315Y0426D02*
X03355D01*
X03335Y0424D02*
Y0428D01*
X03215Y0426D02*
X03255D01*
X03235Y0424D02*
Y0428D01*
X03315Y0436D02*
X03355D01*
X03335Y0434D02*
Y0438D01*
X03215Y0436D02*
X03255D01*
X03235Y0434D02*
Y0438D01*
X05215Y0216D02*
X05255D01*
X05235Y0214D02*
Y0218D01*
X05115Y0216D02*
X05155D01*
X05135Y0214D02*
Y0218D01*
X05215Y0226D02*
X05255D01*
X05235Y0224D02*
Y0228D01*
X05115Y0226D02*
X05155D01*
X05135Y0224D02*
Y0228D01*
X05215Y0236D02*
X05255D01*
X05235Y0234D02*
Y0238D01*
X05115Y0236D02*
X05155D01*
X05135Y0234D02*
Y0238D01*
X05215Y0246D02*
X05255D01*
X05235Y0244D02*
Y0248D01*
X05115Y0246D02*
X05155D01*
X05135Y0244D02*
Y0248D01*
X05215Y0256D02*
X05255D01*
X05235Y0254D02*
Y0258D01*
X05115Y0256D02*
X05155D01*
X05135Y0254D02*
Y0258D01*
X05215Y0266D02*
X05255D01*
X05235Y0264D02*
Y0268D01*
X05115Y0266D02*
X05155D01*
X05135Y0264D02*
Y0268D01*
X05215Y0276D02*
X05255D01*
X05235Y0274D02*
Y0278D01*
X05115Y0276D02*
X05155D01*
X05135Y0274D02*
Y0278D01*
X05215Y0286D02*
X05255D01*
X05235Y0284D02*
Y0288D01*
X05115Y0286D02*
X05155D01*
X05135Y0284D02*
Y0288D01*
X05215Y0296D02*
X05255D01*
X05235Y0294D02*
Y0298D01*
X05115Y0296D02*
X05155D01*
X05135Y0294D02*
Y0298D01*
X05215Y0306D02*
X05255D01*
X05235Y0304D02*
Y0308D01*
X05115Y0306D02*
X05155D01*
X05135Y0304D02*
Y0308D01*
X05215Y0316D02*
X05255D01*
X05235Y0314D02*
Y0318D01*
X05115Y0316D02*
X05155D01*
X05135Y0314D02*
Y0318D01*
X05215Y0326D02*
X05255D01*
X05235Y0324D02*
Y0328D01*
X05115Y0326D02*
X05155D01*
X05135Y0324D02*
Y0328D01*
X05215Y0336D02*
X05255D01*
X05235Y0334D02*
Y0338D01*
X05115Y0336D02*
X05155D01*
X05135Y0334D02*
Y0338D01*
X05215Y0346D02*
X05255D01*
X05235Y0344D02*
Y0348D01*
X05115Y0346D02*
X05155D01*
X05135Y0344D02*
Y0348D01*
X05215Y0356D02*
X05255D01*
X05235Y0354D02*
Y0358D01*
X05115Y0356D02*
X05155D01*
X05135Y0354D02*
Y0358D01*
X05215Y0366D02*
X05255D01*
X05235Y0364D02*
Y0368D01*
X05115Y0366D02*
X05155D01*
X05135Y0364D02*
Y0368D01*
X05215Y0376D02*
X05255D01*
X05235Y0374D02*
Y0378D01*
X05115Y0376D02*
X05155D01*
X05135Y0374D02*
Y0378D01*
X05215Y0386D02*
X05255D01*
X05235Y0384D02*
Y0388D01*
X05115Y0386D02*
X05155D01*
X05135Y0384D02*
Y0388D01*
X05215Y0396D02*
X05255D01*
X05235Y0394D02*
Y0398D01*
X05115Y0396D02*
X05155D01*
X05135Y0394D02*
Y0398D01*
X05215Y0406D02*
X05255D01*
X05235Y0404D02*
Y0408D01*
X05115Y0406D02*
X05155D01*
X05135Y0404D02*
Y0408D01*
X05215Y0416D02*
X05255D01*
X05235Y0414D02*
Y0418D01*
X05115Y0416D02*
X05155D01*
X05135Y0414D02*
Y0418D01*
X05215Y0426D02*
X05255D01*
X05235Y0424D02*
Y0428D01*
X05115Y0426D02*
X05155D01*
X05135Y0424D02*
Y0428D01*
X05215Y0436D02*
X05255D01*
X05235Y0434D02*
Y0438D01*
X05115Y0436D02*
X05155D01*
X05135Y0434D02*
Y0438D01*
X02421Y03715D02*
X02489D01*
X02455Y03681D02*
Y03749D01*
X02421Y03515D02*
X02489D01*
X02455Y03481D02*
Y03549D01*
X02421Y03315D02*
X02489D01*
X02455Y03281D02*
Y03349D01*
X02421Y03115D02*
X02489D01*
X02455Y03081D02*
Y03149D01*
X02421Y02915D02*
X02489D01*
X02455Y02881D02*
Y02949D01*
X02421Y02715D02*
X02489D01*
X02455Y02681D02*
Y02749D01*
X02421Y02515D02*
X02489D01*
X02455Y02481D02*
Y02549D01*
X02421Y02315D02*
X02489D01*
X02455Y02281D02*
Y02349D01*
X035673Y0529D02*
X036027D01*
X03585Y052723D02*
Y053077D01*
X035673Y0539D02*
X036027D01*
X03585Y053723D02*
Y054077D01*
X036673Y0529D02*
X037027D01*
X03685Y052723D02*
Y053077D01*
X036673Y0539D02*
X037027D01*
X03685Y053723D02*
Y054077D01*
X037673Y0529D02*
X038027D01*
X03785Y052723D02*
Y053077D01*
X037673Y0539D02*
X038027D01*
X03785Y053723D02*
Y054077D01*
X038673Y0529D02*
X039027D01*
X03885Y052723D02*
Y053077D01*
X038673Y0539D02*
X039027D01*
X03885Y053723D02*
Y054077D01*
X039673Y0529D02*
X040027D01*
X03985Y052723D02*
Y053077D01*
X039673Y0539D02*
X040027D01*
X03985Y053723D02*
Y054077D01*
X040673Y0529D02*
X041027D01*
X04085Y052723D02*
Y053077D01*
X040673Y0539D02*
X041027D01*
X04085Y053723D02*
Y054077D01*
X041673Y0529D02*
X042027D01*
X04185Y052723D02*
Y053077D01*
X041673Y0539D02*
X042027D01*
X04185Y053723D02*
Y054077D01*
X042673Y0529D02*
X043027D01*
X04285Y052723D02*
Y053077D01*
X042673Y0539D02*
X043027D01*
X04285Y053723D02*
Y054077D01*
X043673Y0529D02*
X044027D01*
X04385Y052723D02*
Y053077D01*
X043673Y0539D02*
X044027D01*
X04385Y053723D02*
Y054077D01*
X044673Y0529D02*
X045027D01*
X04485Y052723D02*
Y053077D01*
X044673Y0539D02*
X045027D01*
X04485Y053723D02*
Y054077D01*
X045673Y0529D02*
X046027D01*
X04585Y052723D02*
Y053077D01*
X045673Y0539D02*
X046027D01*
X04585Y053723D02*
Y054077D01*
X046673Y0529D02*
X047027D01*
X04685Y052723D02*
Y053077D01*
X046673Y0539D02*
X047027D01*
X04685Y053723D02*
Y054077D01*
X047673Y0529D02*
X048027D01*
X04785Y052723D02*
Y053077D01*
X047673Y0539D02*
X048027D01*
X04785Y053723D02*
Y054077D01*
X02739Y05315D02*
X02771D01*
X02755Y05299D02*
Y05331D01*
X02839Y05315D02*
X02871D01*
X02855Y05299D02*
Y05331D01*
X02739Y0552D02*
X02771D01*
X02755Y05504D02*
Y05536D01*
X02839Y0552D02*
X02871D01*
X02855Y05504D02*
Y05536D01*
X02739Y0572D02*
X02771D01*
X02755Y05704D02*
Y05736D01*
X02839Y0572D02*
X02871D01*
X02855Y05704D02*
Y05736D01*
X02739Y05925D02*
X02771D01*
X02755Y05909D02*
Y05941D01*
X02839Y05925D02*
X02871D01*
X02855Y05909D02*
Y05941D01*
X02739Y0418D02*
X02771D01*
X02755Y04164D02*
Y04196D01*
X02839Y0418D02*
X02871D01*
X02855Y04164D02*
Y04196D01*
X02739Y0438D02*
X02771D01*
X02755Y04364D02*
Y04396D01*
X02839Y0438D02*
X02871D01*
X02855Y04364D02*
Y04396D01*
X02739Y0458D02*
X02771D01*
X02755Y04564D02*
Y04596D01*
X02839Y0458D02*
X02871D01*
X02855Y04564D02*
Y04596D01*
X030525Y03415D02*
X030875D01*
X0307Y033975D02*
Y034325D01*
X030525Y03515D02*
X030875D01*
X0307Y034975D02*
Y035325D01*
X030525Y03615D02*
X030875D01*
X0307Y035975D02*
Y036325D01*
X030525Y03715D02*
X030875D01*
X0307Y036975D02*
Y037325D01*
X030525Y03815D02*
X030875D01*
X0307Y037975D02*
Y038325D01*
X02739Y03515D02*
X02771D01*
X02755Y03499D02*
Y03531D01*
X02839Y03515D02*
X02871D01*
X02855Y03499D02*
Y03531D01*
X02739Y03315D02*
X02771D01*
X02755Y03299D02*
Y03331D01*
X02839Y03315D02*
X02871D01*
X02855Y03299D02*
Y03331D01*
X02739Y03115D02*
X02771D01*
X02755Y03099D02*
Y03131D01*
X02839Y03115D02*
X02871D01*
X02855Y03099D02*
Y03131D01*
X02739Y02915D02*
X02771D01*
X02755Y02899D02*
Y02931D01*
X02839Y02915D02*
X02871D01*
X02855Y02899D02*
Y02931D01*
X02739Y02715D02*
X02771D01*
X02755Y02699D02*
Y02731D01*
X02839Y02715D02*
X02871D01*
X02855Y02699D02*
Y02731D01*
X02839Y02515D02*
X02871D01*
X02855Y02499D02*
Y02531D01*
X02739Y02515D02*
X02771D01*
X02755Y02499D02*
Y02531D01*
X030575Y0194D02*
X030925D01*
X03075Y019225D02*
Y019575D01*
X030575Y0204D02*
X030925D01*
X03075Y020225D02*
Y020575D01*
X030575Y0214D02*
X030925D01*
X03075Y021225D02*
Y021575D01*
X030575Y0224D02*
X030925D01*
X03075Y022225D02*
Y022575D01*
X030575Y0234D02*
X030925D01*
X03075Y023225D02*
Y023575D01*
X02739Y01245D02*
X02771D01*
X02755Y01229D02*
Y01261D01*
X02839Y01245D02*
X02871D01*
X02855Y01229D02*
Y01261D01*
X02739Y01445D02*
X02771D01*
X02755Y01429D02*
Y01461D01*
X02839Y01445D02*
X02871D01*
X02855Y01429D02*
Y01461D01*
X02739Y01655D02*
X02771D01*
X02755Y01639D02*
Y01671D01*
X02839Y01655D02*
X02871D01*
X02855Y01639D02*
Y01671D01*
X02739Y01855D02*
X02771D01*
X02755Y01839D02*
Y01871D01*
X02839Y01855D02*
X02871D01*
X02855Y01839D02*
Y01871D01*
X04992Y0356D02*
X05028D01*
X0501Y03542D02*
Y03578D01*
X04992Y0346D02*
X05028D01*
X0501Y03442D02*
Y03478D01*
X04992Y0336D02*
X05028D01*
X0501Y03342D02*
Y03378D01*
X04992Y0326D02*
X05028D01*
X0501Y03242D02*
Y03278D01*
X04992Y0316D02*
X05028D01*
X0501Y03142D02*
Y03178D01*
X04992Y0306D02*
X05028D01*
X0501Y03042D02*
Y03078D01*
X030525Y0534D02*
X030875D01*
X0307Y053225D02*
Y053575D01*
X030525Y0544D02*
X030875D01*
X0307Y054225D02*
Y054575D01*
X030525Y0554D02*
X030875D01*
X0307Y055225D02*
Y055575D01*
X030525Y0564D02*
X030875D01*
X0307Y056225D02*
Y056575D01*
X030525Y0574D02*
X030875D01*
X0307Y057225D02*
Y057575D01*
X030525Y0466D02*
X030875D01*
X0307Y046425D02*
Y046775D01*
X030525Y0476D02*
X030875D01*
X0307Y047425D02*
Y047775D01*
X030525Y0486D02*
X030875D01*
X0307Y048425D02*
Y048775D01*
X030525Y0496D02*
X030875D01*
X0307Y049425D02*
Y049775D01*
X030525Y0506D02*
X030875D01*
X0307Y050425D02*
Y050775D01*
X02739Y04775D02*
X02771D01*
X02755Y04759D02*
Y04791D01*
X02839Y04775D02*
X02871D01*
X02855Y04759D02*
Y04791D01*
X04Y0447D02*
X0404D01*
X0402Y0445D02*
Y0449D01*
X043Y0447D02*
X0434D01*
X0432Y0445D02*
Y0449D01*
X04Y0437D02*
X0404D01*
X0402Y0435D02*
Y0439D01*
X043Y0437D02*
X0434D01*
X0432Y0435D02*
Y0439D01*
X046279Y039435D02*
X046639D01*
X046459Y039255D02*
Y039615D01*
X056526Y04895D02*
X056974D01*
X05675Y048726D02*
Y049174D01*
X056526Y05045D02*
X056974D01*
X05675Y050226D02*
Y050674D01*
X056526Y05195D02*
X056974D01*
X05675Y051726D02*
Y052174D01*
X056526Y05345D02*
X056974D01*
X05675Y053226D02*
Y053674D01*
X056526Y05495D02*
X056974D01*
X05675Y054726D02*
Y055174D01*
X056526Y05645D02*
X056974D01*
X05675Y056226D02*
Y056674D01*
X02421Y0522D02*
X02489D01*
X02455Y05186D02*
Y05254D01*
X02421Y0542D02*
X02489D01*
X02455Y05386D02*
Y05454D01*
X02421Y0562D02*
X02489D01*
X02455Y05586D02*
Y05654D01*
X02421Y0582D02*
X02489D01*
X02455Y05786D02*
Y05854D01*
X02421Y0602D02*
X02489D01*
X02455Y05986D02*
Y06054D01*
X02421Y0622D02*
X02489D01*
X02455Y06186D02*
Y06254D01*
X02421Y010454D02*
X02489D01*
X02455Y010114D02*
Y010794D01*
X02421Y012454D02*
X02489D01*
X02455Y012114D02*
Y012794D01*
X02421Y014454D02*
X02489D01*
X02455Y014114D02*
Y014794D01*
X02421Y016454D02*
X02489D01*
X02455Y016114D02*
Y016794D01*
X02421Y018454D02*
X02489D01*
X02455Y018114D02*
Y018794D01*
X02421Y020454D02*
X02489D01*
X02455Y020114D02*
Y020794D01*
X05606Y01045D02*
X05674D01*
X0564Y01011D02*
Y01079D01*
X05606Y01245D02*
X05674D01*
X0564Y01211D02*
Y01279D01*
X05606Y01445D02*
X05674D01*
X0564Y01411D02*
Y01479D01*
X05606Y01645D02*
X05674D01*
X0564Y01611D02*
Y01679D01*
X05606Y01845D02*
X05674D01*
X0564Y01811D02*
Y01879D01*
X05606Y02045D02*
X05674D01*
X0564Y02011D02*
Y02079D01*
X05606Y02245D02*
X05674D01*
X0564Y02211D02*
Y02279D01*
X05606Y02445D02*
X05674D01*
X0564Y02411D02*
Y02479D01*
X05606Y02645D02*
X05674D01*
X0564Y02611D02*
Y02679D01*
X05606Y02845D02*
X05674D01*
X0564Y02811D02*
Y02879D01*
X05606Y03045D02*
X05674D01*
X0564Y03011D02*
Y03079D01*
X05606Y03245D02*
X05674D01*
X0564Y03211D02*
Y03279D01*
X05606Y03445D02*
X05674D01*
X0564Y03411D02*
Y03479D01*
X05606Y03645D02*
X05674D01*
X0564Y03611D02*
Y03679D01*
X05606Y03845D02*
X05674D01*
X0564Y03811D02*
Y03879D01*
X05606Y04045D02*
X05674D01*
X0564Y04011D02*
Y04079D01*
X05606Y04245D02*
X05674D01*
X0564Y04211D02*
Y04279D01*
X05606Y04445D02*
X05674D01*
X0564Y04411D02*
Y04479D01*
X03536Y01055D02*
X03654D01*
X03595Y00996D02*
Y01114D01*
X043104Y019978D02*
X043344D01*
X043224Y019858D02*
Y020098D01*
X042039Y020207D02*
X042279D01*
X042159Y020087D02*
Y020327D01*
X030992Y043309D02*
X031232D01*
X031112Y043189D02*
Y043429D01*
X037574Y044798D02*
X037814D01*
X037694Y044678D02*
Y044918D01*
X033659Y044652D02*
X033899D01*
X033779Y044532D02*
Y044772D01*
X034372Y03562D02*
X034612D01*
X034492Y0355D02*
Y03574D01*
X034407Y033452D02*
X034647D01*
X034527Y033332D02*
Y033572D01*
X035898Y034605D02*
X036138D01*
X036018Y034485D02*
Y034725D01*
X037665Y041088D02*
X037905D01*
X037785Y040968D02*
Y041208D01*
X035202Y034574D02*
X035442D01*
X035322Y034454D02*
Y034694D01*
X036045Y036963D02*
X036285D01*
X036165Y036843D02*
Y037083D01*
X031592Y0431D02*
X031832D01*
X031712Y04298D02*
Y04322D01*
X031451Y040544D02*
X031691D01*
X031571Y040424D02*
Y040664D01*
X037974Y04207D02*
X038214D01*
X038094Y04195D02*
Y04219D01*
X03163Y042096D02*
X03187D01*
X03175Y041976D02*
Y042216D01*
X041234Y034929D02*
X041474D01*
X041354Y034809D02*
Y035049D01*
X041757Y034477D02*
X041997D01*
X041877Y034357D02*
Y034597D01*
X040877Y034388D02*
X041117D01*
X040997Y034268D02*
Y034508D01*
X041053Y033493D02*
X041293D01*
X041173Y033373D02*
Y033613D01*
X04171Y032297D02*
X04195D01*
X04183Y032177D02*
Y032417D01*
X045198Y033498D02*
X045438D01*
X045318Y033378D02*
Y033618D01*
X045794Y032747D02*
X046034D01*
X045914Y032627D02*
Y032867D01*
X047091Y027862D02*
X047331D01*
X047211Y027742D02*
Y027982D01*
X04666Y026435D02*
X0469D01*
X04678Y026315D02*
Y026555D01*
X046623Y028342D02*
X046863D01*
X046743Y028222D02*
Y028462D01*
X049543Y029545D02*
X049783D01*
X049663Y029425D02*
Y029665D01*
X037735Y029739D02*
X037975D01*
X037855Y029619D02*
Y029859D01*
X037736Y029093D02*
X037976D01*
X037856Y028973D02*
Y029213D01*
X03981Y033333D02*
X04005D01*
X03993Y033213D02*
Y033453D01*
X046141Y023111D02*
X046381D01*
X046261Y022991D02*
Y023231D01*
X034762Y032015D02*
X035002D01*
X034882Y031895D02*
Y032135D01*
X034771Y031402D02*
X035011D01*
X034891Y031282D02*
Y031522D01*
X03413Y02895D02*
X03437D01*
X03425Y02883D02*
Y02907D01*
X034006Y030249D02*
X034246D01*
X034126Y030129D02*
Y030369D01*
X035732Y028812D02*
X035972D01*
X035852Y028692D02*
Y028932D01*
X035266Y028345D02*
X035506D01*
X035386Y028225D02*
Y028465D01*
X040273Y022955D02*
X040513D01*
X040393Y022835D02*
Y023075D01*
X038281Y023501D02*
X038521D01*
X038401Y023381D02*
Y023621D01*
X038625Y022328D02*
X038865D01*
X038745Y022208D02*
Y022448D01*
X040032Y015522D02*
X040272D01*
X040152Y015402D02*
Y015642D01*
X033883Y02058D02*
X034123D01*
X034003Y02046D02*
Y0207D01*
X030284Y01801D02*
X030524D01*
X030404Y01789D02*
Y01813D01*
X039819Y017111D02*
X040059D01*
X039939Y016991D02*
Y017231D01*
X041013Y026775D02*
X041253D01*
X041133Y026655D02*
Y026895D01*
X053305Y019532D02*
X053545D01*
X053425Y019411D02*
Y019651D01*
X038896Y026671D02*
X039136D01*
X039016Y026551D02*
Y026791D01*
X035769Y027418D02*
X036009D01*
X035889Y027299D02*
Y027538D01*
X034244Y026656D02*
X034484D01*
X034364Y026536D02*
Y026776D01*
X034938Y026104D02*
X035178D01*
X035058Y025984D02*
Y026224D01*
X034547Y025094D02*
X034787D01*
X034667Y024974D02*
Y025214D01*
X034045Y024322D02*
X034285D01*
X034165Y024202D02*
Y024442D01*
X034005Y025664D02*
X034245D01*
X034125Y025544D02*
Y025784D01*
X048395Y030167D02*
X048635D01*
X048515Y030047D02*
Y030287D01*
X048986Y032598D02*
X049226D01*
X049106Y032478D02*
Y032718D01*
X02908Y05815D02*
X02932D01*
X0292Y05803D02*
Y05827D01*
X02938Y02885D02*
X02962D01*
X0295Y02873D02*
Y02897D01*
X03018Y0242D02*
X03042D01*
X0303Y02408D02*
Y02432D01*
X033799Y01555D02*
X034039D01*
X033919Y01543D02*
Y01567D01*
X03288Y01565D02*
X03312D01*
X033Y01553D02*
Y01577D01*
X03198Y01555D02*
X03222D01*
X0321Y01543D02*
Y01567D01*
X03448Y02945D02*
X03472D01*
X0346Y02933D02*
Y02957D01*
X03128Y0301D02*
X03152D01*
X0314Y02998D02*
Y03022D01*
X03193Y01725D02*
X03217D01*
X03205Y01713D02*
Y01737D01*
X03378Y0401D02*
X03402D01*
X0339Y03998D02*
Y04022D01*
X03153Y0145D02*
X03177D01*
X03165Y01438D02*
Y01462D01*
X03148Y0168D02*
X03172D01*
X0316Y01668D02*
Y01692D01*
X02678Y0239D02*
X02702D01*
X0269Y02378D02*
Y02402D01*
X02613Y01995D02*
X02637D01*
X02625Y01983D02*
Y02007D01*
X02608Y0241D02*
X02632D01*
X0262Y02398D02*
Y02422D01*
X029187Y028043D02*
X029427D01*
X029307Y027923D02*
Y028163D01*
X030569Y026166D02*
X030809D01*
X030689Y026046D02*
Y026286D01*
X031204Y027371D02*
X031444D01*
X031324Y027251D02*
Y027491D01*
X03028Y03075D02*
X03052D01*
X0304Y03063D02*
Y03087D01*
X03098Y03945D02*
X03122D01*
X0311Y03933D02*
Y03957D01*
X03083Y04115D02*
X03107D01*
X03095Y04103D02*
Y04127D01*
X03118Y04575D02*
X03142D01*
X0313Y04563D02*
Y04587D01*
X03023Y0604D02*
X03047D01*
X03035Y06028D02*
Y06052D01*
X03138Y0308D02*
X03162D01*
X0315Y03068D02*
Y03092D01*
X03153Y032528D02*
X03177D01*
X03165Y032408D02*
Y032648D01*
X02973Y03045D02*
X02997D01*
X02985Y03033D02*
Y03057D01*
X030775Y02896D02*
X031015D01*
X030895Y02884D02*
Y02908D01*
X02913Y03025D02*
X02937D01*
X02925Y03013D02*
Y03037D01*
X02898Y0401D02*
X02922D01*
X0291Y03998D02*
Y04022D01*
X02843Y04055D02*
X02867D01*
X02855Y04043D02*
Y04067D01*
X02673Y04055D02*
X02697D01*
X02685Y04043D02*
Y04067D01*
X02618Y0401D02*
X02642D01*
X0263Y03998D02*
Y04022D01*
X02908Y0226D02*
X02932D01*
X0292Y02248D02*
Y02272D01*
X044323Y02548D02*
X044563D01*
X044443Y02536D02*
Y0256D01*
X034079Y03293D02*
X034319D01*
X034199Y03281D02*
Y03305D01*
X041892Y023839D02*
X042132D01*
X042012Y023719D02*
Y023959D01*
X042228Y017669D02*
X042468D01*
X042348Y017549D02*
Y017789D01*
X040806Y0236D02*
X041046D01*
X040926Y02348D02*
Y02372D01*
X038453Y018471D02*
X038693D01*
X038573Y018351D02*
Y018591D01*
X040068Y018298D02*
X040308D01*
X040188Y018178D02*
Y018418D01*
X041288Y024176D02*
X041528D01*
X041408Y024056D02*
Y024296D01*
X040714Y030658D02*
X040954D01*
X040834Y030538D02*
Y030778D01*
X042906Y029942D02*
X043146D01*
X043026Y029822D02*
Y030062D01*
X04356Y022253D02*
X0438D01*
X04368Y022133D02*
Y022373D01*
X041597Y028462D02*
X041837D01*
X041717Y028342D02*
Y028582D01*
X043796Y025082D02*
X044036D01*
X043916Y024962D02*
Y025202D01*
X0435Y026084D02*
X04374D01*
X04362Y025964D02*
Y026204D01*
X044638Y02752D02*
X044878D01*
X044758Y0274D02*
Y02764D01*
X042466Y030867D02*
X042706D01*
X042586Y030747D02*
Y030987D01*
X037549Y030339D02*
X037789D01*
X037669Y030219D02*
Y030459D01*
X039441Y031261D02*
X039681D01*
X039561Y031141D02*
Y031381D01*
X039211Y02848D02*
X039451D01*
X039332Y02836D02*
Y0286D01*
X042168Y031765D02*
X042408D01*
X042288Y031645D02*
Y031885D01*
X050442Y025909D02*
X050682D01*
X050562Y025789D02*
Y026029D01*
X033566Y01336D02*
X033806D01*
X033686Y01324D02*
Y01348D01*
X034229Y036505D02*
X034469D01*
X034349Y036385D02*
Y036625D01*
X034515Y038902D02*
X034755D01*
X034635Y038782D02*
Y039022D01*
X034015Y039347D02*
X034255D01*
X034135Y039227D02*
Y039467D01*
X0341Y040639D02*
X03434D01*
X03422Y040519D02*
Y040759D01*
X036145Y044162D02*
X036385D01*
X036265Y044042D02*
Y044282D01*
X037387Y047036D02*
X037627D01*
X037507Y046916D02*
Y047156D01*
X044099Y035504D02*
X044339D01*
X044219Y035384D02*
Y035624D01*
X043942Y037584D02*
X044182D01*
X044062Y037464D02*
Y037704D01*
X046228Y044324D02*
X046468D01*
X046348Y044204D02*
Y044444D01*
X04523Y05219D02*
X04547D01*
X04535Y05207D02*
Y05231D01*
X04523Y043396D02*
X04547D01*
X04535Y043276D02*
Y043516D01*
X046557Y042046D02*
X046797D01*
X046677Y041926D02*
Y042166D01*
X044238Y052172D02*
X044478D01*
X044358Y052052D02*
Y052292D01*
X044057Y046544D02*
X044297D01*
X044177Y046424D02*
Y046664D01*
X043482Y045936D02*
X043722D01*
X043602Y045816D02*
Y046056D01*
X04323Y052209D02*
X04347D01*
X04335Y052089D02*
Y052329D01*
X042704Y040867D02*
X042944D01*
X042824Y040747D02*
Y040987D01*
X040452Y037572D02*
X040692D01*
X040572Y037452D02*
Y037692D01*
X039789Y039841D02*
X040029D01*
X039909Y039721D02*
Y039961D01*
X039613Y042187D02*
X039853D01*
X039733Y042067D02*
Y042307D01*
X042123Y042297D02*
X042363D01*
X042243Y042177D02*
Y042417D01*
X038571Y051543D02*
X038811D01*
X038691Y051423D02*
Y051663D01*
X033103Y053926D02*
X033343D01*
X033223Y053806D02*
Y054046D01*
X037107Y045653D02*
X037347D01*
X037227Y045533D02*
Y045773D01*
X03491Y048649D02*
X03515D01*
X03503Y048529D02*
Y048769D01*
X035025Y049641D02*
X035265D01*
X035145Y049521D02*
Y049761D01*
X034914Y04638D02*
X035154D01*
X035034Y04626D02*
Y0465D01*
X033418Y054911D02*
X033658D01*
X033538Y054791D02*
Y055031D01*
X048672Y058187D02*
X048912D01*
X048792Y058067D02*
Y058307D01*
X047041Y040554D02*
X047281D01*
X047161Y040434D02*
Y040674D01*
X047035Y049066D02*
X047275D01*
X047155Y048946D02*
Y049186D01*
X049372Y044499D02*
X049612D01*
X049492Y044379D02*
Y044619D01*
X044848Y036565D02*
X045089D01*
X044969Y036445D02*
Y036685D01*
X048899Y036482D02*
X049139D01*
X049019Y036362D02*
Y036602D01*
X048299Y036392D02*
X048539D01*
X048419Y036272D02*
Y036512D01*
X048861Y037454D02*
X049101D01*
X048981Y037334D02*
Y037574D01*
X050088Y03832D02*
X050328D01*
X050208Y0382D02*
Y03844D01*
X047236Y03689D02*
X047476D01*
X047356Y03677D02*
Y03701D01*
X047092Y035865D02*
X047332D01*
X047212Y035745D02*
Y035985D01*
X044972Y037224D02*
X045212D01*
X045092Y037104D02*
Y037344D01*
X046641Y018225D02*
X046881D01*
X046761Y018105D02*
Y018345D01*
X042169Y019463D02*
X042409D01*
X042289Y019343D02*
Y019583D01*
X036821Y021296D02*
X037061D01*
X036941Y021176D02*
Y021416D01*
X054305Y024581D02*
X054545D01*
X054425Y024461D02*
Y024701D01*
X048502Y021551D02*
X048742D01*
X048622Y021431D02*
Y021671D01*
X039568Y021514D02*
X039808D01*
X039688Y021394D02*
Y021634D01*
X03691Y019776D02*
X03715D01*
X03703Y019656D02*
Y019896D01*
X042607Y037315D02*
X042847D01*
X042727Y037195D02*
Y037435D01*
X037902Y045826D02*
X038142D01*
X038022Y045706D02*
Y045946D01*
X038009Y046543D02*
X038249D01*
X038129Y046423D02*
Y046663D01*
X036128Y016584D02*
X036368D01*
X036248Y016464D02*
Y016704D01*
X033064Y018006D02*
X033304D01*
X033184Y017886D02*
Y018126D01*
X03569Y014965D02*
X03593D01*
X03581Y014845D02*
Y015085D01*
X041044Y037281D02*
X041284D01*
X041164Y037161D02*
Y037401D01*
X038858Y035278D02*
X039098D01*
X038978Y035158D02*
Y035398D01*
X035881Y040094D02*
X036121D01*
X036001Y039974D02*
Y040214D01*
X045965Y04175D02*
X046205D01*
X046085Y04163D02*
Y04187D01*
X043244Y021571D02*
X043484D01*
X043364Y021451D02*
Y021691D01*
X045292Y029132D02*
X045532D01*
X045412Y029012D02*
Y029252D01*
X046555Y029095D02*
X046795D01*
X046675Y028975D02*
Y029215D01*
X045291Y034512D02*
X045531D01*
X045411Y034392D02*
Y034632D01*
X046863Y033138D02*
X047103D01*
X046983Y033018D02*
Y033258D01*
X046673Y027035D02*
X046913D01*
X046793Y026915D02*
Y027155D01*
X045584Y027658D02*
X045824D01*
X045704Y027538D02*
Y027778D01*
M02*
