M48
;Layer_Color=9474304
;FILE_FORMAT=2:4
INCH,LZ
;TYPE=PLATED
T1F00S00C0.0240
T2F00S00C0.0320
T3F00S00C0.0350
T4F00S00C0.0354
T5F00S00C0.0360
T6F00S00C0.0400
T7F00S00C0.0429
T8F00S00C0.0449
T9F00S00C0.0680
T10F00S00C0.1180
T11F00S00C0.1283
%
T01
X03165Y0145
X0321Y01555
X033919Y01555
X033686Y01336
X03581Y014965
X040152Y015522
X048622Y021551
X050562Y025909
X049663Y029545
X048515Y030167
X047211Y027862
X054425Y024581
X053425Y019532
X046761Y018225
X042348Y017669
X042289Y019463
X042159Y020207
X043224Y019978
X043364Y021571
X04368Y022253
X043916Y025082
X044443Y02548
X04362Y026084
X044758Y02752
X045704Y027658
X046793Y027035
X04678Y026435
X046743Y028342
X046675Y029095
X045412Y029132
X043026Y029942
X042586Y030867
X040834Y030658
X041717Y028462
X041133Y026775
X039016Y026671
X039332Y02848
X037856Y029093
X037855Y029739
X037669Y030339
X035852Y028812
X035386Y028345
X035889Y027418
X035058Y026104
X034364Y026656
X034125Y025664
X034667Y025094
X034165Y024322
X034003Y02058
X033184Y018006
X03205Y01725
X0316Y0168
X033Y01565
X036248Y016584
X03703Y019776
X036941Y021296
X038745Y022328
X038401Y023501
X040393Y022955
X040926Y0236
X041408Y024176
X042012Y023839
X039688Y021514
X040188Y018298
X039939Y017111
X038573Y018471
X046261Y023111
X03425Y02895
X0346Y02945
X034126Y030249
X0314Y0301
X0315Y0308
X031324Y027371
X030689Y026166
X0303Y0242
X0292Y0226
X0269Y0239
X0262Y0241
X02625Y01995
X030404Y01801
X029307Y028043
X0295Y02885
X030895Y02896
X0304Y03075
X02985Y03045
X02925Y03025
X0291Y0401
X02855Y04055
X02685
X0263Y0401
X0311Y03945
X03095Y04115
X031112Y043309
X031712Y0431
X03175Y042096
X031571Y040544
X03422Y040639
X0339Y0401
X034135Y039347
X034635Y038902
X036001Y040094
X037785Y041088
X038094Y04207
X039733Y042187
X039909Y039841
X040572Y037572
X041164Y037281
X042727Y037315
X044062Y037584
X045092Y037224
X044969Y036565
X044219Y035504
X045411Y034512
X045318Y033498
X045914Y032747
X04183Y032297
X042288Y031765
X041173Y033493
X040997Y034388
X041354Y034929
X041877Y034477
X03993Y033333
X039561Y031261
X038978Y035278
X036018Y034605
X035322Y034574
X034492Y03562
X034349Y036505
X036165Y036963
X034527Y033452
X034199Y03293
X034882Y032015
X034891Y031402
X03165Y032528
X0313Y04575
X033779Y044652
X036265Y044162
X037694Y044798
X037227Y045653
X038022Y045826
X038129Y046543
X035034Y04638
X043602Y045936
X044177Y046544
X04535Y043396
X046348Y044324
X046677Y042046
X046085Y04175
X042824Y040867
X042243Y042297
X047161Y040554
X047356Y03689
X047212Y035865
X048419Y036392
X049019Y036482
X048981Y037454
X050208Y03832
X049106Y032598
X046983Y033138
X049492Y044499
X047155Y049066
X048792Y058187
X04535Y05219
X044358Y052172
X04335Y052209
X038691Y051543
X035145Y049641
X03503Y048649
X037507Y047036
X033223Y053926
X033538Y054911
X0292Y05815
X03035Y0604
T02
X02755Y01245
X02855
Y01445
X02755
Y01655
X02855
Y01855
X02755
Y02515
X02855
Y02715
X02755
Y02915
X02855
Y03115
X02755
Y03315
X02855
Y03515
X02755
Y0418
X02855
Y0438
X02755
Y0458
X02855
Y04775
X02755
Y05315
X02855
Y0552
X02755
Y0572
X02855
Y05925
X02755
T03
X03075Y0194
Y0204
Y0214
Y0224
Y0234
X0307Y03415
Y03515
Y03615
Y03715
Y03815
Y0466
Y0476
Y0486
Y0496
Y0506
Y0534
Y0544
Y0554
Y0564
Y0574
T04
X04785Y0529
Y0539
X04685
X04585
X04485
X04385
X04285
X04185
X04085
X03985
X03885
X03785
X03685
X03585
Y0529
X03685
X03785
X03885
X03985
X04085
X04185
X04285
X04385
X04485
X04585
X04685
T05
X0501Y0306
X046459Y039435
X0501Y0356
Y0346
Y0336
Y0326
Y0316
T06
X05135Y0216
X05235
Y0226
X05135
Y0236
X05235
Y0246
X05135
Y0256
X05235
Y0266
X05135
Y0276
X05235
Y0286
X05135
Y0296
X05235
Y0306
X05135
X03335
Y0296
Y0286
Y0276
Y0266
Y0256
Y0246
Y0236
Y0226
Y0216
X03235
Y0226
Y0236
Y0246
Y0256
Y0266
Y0276
Y0286
Y0296
Y0306
Y0316
X03335
Y0326
X03235
Y0336
X03335
Y0346
X03235
Y0356
X03335
Y0366
X03235
Y0376
X03335
Y0386
X03235
Y0396
X03335
Y0406
X03235
Y0416
X03335
Y0426
X03235
Y0436
X03335
X0402Y0437
Y0447
X0432
Y0437
X05135Y0436
Y0426
Y0416
Y0406
Y0396
Y0386
Y0376
Y0366
Y0356
Y0346
Y0336
Y0326
Y0316
X05235
Y0326
Y0336
Y0346
Y0356
Y0366
Y0376
Y0386
Y0396
Y0406
Y0416
Y0426
Y0436
T07
X047485Y056151
X048572
X048029Y057269
X046942
X045855
X044768
X043681
X042593
X041507
X040419
X039332
X038245
X037158
X036071
X035528Y056151
X036615
X037702
X038789
X039876
X040963
X04205
X043137
X044224
X045311
X046398
T08
X05675Y04895
Y05045
Y05195
Y05345
Y05495
Y05645
T09
X02455Y010454
Y012454
Y014454
X0564Y01445
Y01245
Y01045
Y01645
Y01845
Y02045
Y02245
Y02445
Y02645
Y02845
Y03045
X02455Y03115
Y02915
Y02715
Y02515
Y02315
Y020454
Y018454
Y016454
Y03315
Y03515
Y03715
X0245Y03975
Y04175
Y04375
Y04575
X0564Y04445
Y04245
Y04045
Y03845
Y03645
Y03445
Y03245
X0245Y04775
Y04975
X02455Y0522
Y0542
Y0562
Y0582
Y0602
Y0622
T10
X03595Y01055
X0567Y06195
X02855
T11
X051312Y05671
X032788
M30
