%FSTAX24Y24*%
%MOIN*%
G70*
G01*
G75*
G04 Layer_Color=16711935*
%ADD10R,0.0500X0.0394*%
%ADD11R,0.7500X0.0100*%
%ADD12R,0.0500X0.0500*%
G04:AMPARAMS|DCode=13|XSize=37.4mil|YSize=19.7mil|CornerRadius=2.5mil|HoleSize=0mil|Usage=FLASHONLY|Rotation=180.000|XOffset=0mil|YOffset=0mil|HoleType=Round|Shape=RoundedRectangle|*
%AMROUNDEDRECTD13*
21,1,0.0374,0.0148,0,0,180.0*
21,1,0.0325,0.0197,0,0,180.0*
1,1,0.0049,-0.0162,0.0074*
1,1,0.0049,0.0162,0.0074*
1,1,0.0049,0.0162,-0.0074*
1,1,0.0049,-0.0162,-0.0074*
%
%ADD13ROUNDEDRECTD13*%
%ADD14R,0.0500X0.0500*%
%ADD15R,0.0394X0.0500*%
%ADD16R,0.0390X0.0120*%
%ADD17O,0.1457X0.0256*%
%ADD18O,0.0118X0.0532*%
%ADD19C,0.0160*%
%ADD20C,0.0080*%
%ADD21C,0.0120*%
%ADD22C,0.0200*%
%ADD23C,0.0100*%
%ADD24C,0.1500*%
%ADD25C,0.1874*%
%ADD26C,0.0665*%
%ADD27R,0.0665X0.0665*%
%ADD28O,0.1575X0.1360*%
%ADD29R,0.1575X0.1360*%
%ADD30R,0.0638X0.0638*%
%ADD31C,0.0638*%
%ADD32C,0.0591*%
%ADD33R,0.0591X0.0591*%
%ADD34P,0.0714X8X202.5*%
%ADD35O,0.0900X0.0620*%
%ADD36R,0.0900X0.0620*%
%ADD37O,0.0850X0.0600*%
%ADD38R,0.0850X0.0600*%
%ADD39O,0.0800X0.0640*%
%ADD40R,0.0800X0.0640*%
%ADD41R,0.1181X0.0902*%
%ADD42O,0.1181X0.0902*%
%ADD43C,0.0400*%
%ADD44C,0.0500*%
%ADD45C,0.0400*%
%ADD46C,0.0079*%
%ADD47C,0.0050*%
%ADD48C,0.0060*%
%ADD49C,0.0098*%
%ADD50C,0.0070*%
%ADD51C,0.0040*%
%ADD52C,0.0059*%
%ADD53R,0.0315X0.0945*%
%ADD54R,0.0580X0.0474*%
%ADD55R,0.7580X0.0180*%
%ADD56R,0.0580X0.0580*%
G04:AMPARAMS|DCode=57|XSize=45.4mil|YSize=27.7mil|CornerRadius=6.5mil|HoleSize=0mil|Usage=FLASHONLY|Rotation=180.000|XOffset=0mil|YOffset=0mil|HoleType=Round|Shape=RoundedRectangle|*
%AMROUNDEDRECTD57*
21,1,0.0454,0.0148,0,0,180.0*
21,1,0.0325,0.0277,0,0,180.0*
1,1,0.0129,-0.0162,0.0074*
1,1,0.0129,0.0162,0.0074*
1,1,0.0129,0.0162,-0.0074*
1,1,0.0129,-0.0162,-0.0074*
%
%ADD57ROUNDEDRECTD57*%
%ADD58R,0.0580X0.0580*%
%ADD59R,0.0474X0.0580*%
%ADD60R,0.0470X0.0200*%
%ADD61O,0.1537X0.0336*%
%ADD62O,0.0158X0.0572*%
%ADD63C,0.1580*%
%ADD64C,0.1954*%
%ADD65C,0.0745*%
%ADD66R,0.0745X0.0745*%
%ADD67O,0.1655X0.1440*%
%ADD68R,0.1655X0.1440*%
%ADD69R,0.0718X0.0718*%
%ADD70C,0.0718*%
%ADD71C,0.0671*%
%ADD72R,0.0671X0.0671*%
%ADD73P,0.0801X8X202.5*%
%ADD74O,0.0980X0.0700*%
%ADD75R,0.0980X0.0700*%
%ADD76O,0.0930X0.0680*%
%ADD77R,0.0930X0.0680*%
%ADD78O,0.0880X0.0720*%
%ADD79R,0.0880X0.0720*%
%ADD80R,0.1261X0.0982*%
%ADD81O,0.1261X0.0982*%
%ADD82C,0.0480*%
%ADD83C,0.0580*%
%ADD84C,0.0039*%
%ADD85C,0.0020*%
D84*
X043214Y03983D02*
G03*
X043214Y03983I-000197J0D01*
G01*
X042663Y038216D02*
Y040184D01*
X044237Y038216D02*
Y040184D01*
X042663D02*
X044237D01*
X042663Y038216D02*
X044237D01*
D85*
X030493Y044245D02*
Y045555D01*
X030907D01*
Y044245D02*
Y045555D01*
X030493Y044245D02*
X030907D01*
X030356Y045274D02*
X030493D01*
X030356D02*
Y04555D01*
X030493D01*
X030907Y045156D02*
X031044D01*
Y044959D02*
Y045156D01*
X030907Y044959D02*
X031044D01*
X030356Y045156D02*
X030493D01*
X030356Y044959D02*
X030493D01*
X030356D02*
Y045156D01*
X031044Y045274D02*
Y04555D01*
X030907Y045274D02*
X031044D01*
X030907Y04555D02*
X031044D01*
X030356Y044841D02*
X030493D01*
X030356Y044644D02*
X030493D01*
X030356D02*
Y044841D01*
X030907Y04425D02*
X031044D01*
X030907Y044526D02*
X031044D01*
Y04425D02*
Y044526D01*
X030356D02*
X030493D01*
X030356Y04425D02*
X030493D01*
X030356D02*
Y044526D01*
X030907Y044644D02*
X031044D01*
X030907Y044841D02*
X031044D01*
Y044644D02*
Y044841D01*
X030395Y04555D02*
Y045559D01*
X031005D01*
Y04555D02*
Y045559D01*
Y044639D02*
Y044644D01*
X030912Y044639D02*
X031005D01*
X030912Y044531D02*
Y044639D01*
Y044531D02*
X031005D01*
Y044526D02*
Y044531D01*
X030912Y044954D02*
X031005D01*
X030912Y044846D02*
Y044954D01*
Y044846D02*
X031005D01*
Y044841D02*
Y044846D01*
Y044954D02*
Y044959D01*
X030395Y044526D02*
Y044531D01*
X030488D02*
Y044639D01*
X030395D02*
X030488D01*
X030395Y044531D02*
X030488D01*
X030395Y044639D02*
Y044644D01*
X031005Y044241D02*
Y04425D01*
X030395Y044241D02*
X031005D01*
X030395D02*
Y04425D01*
Y045156D02*
Y045161D01*
X030488D02*
Y045269D01*
X030395D02*
X030488D01*
X030395D02*
Y045274D01*
Y045161D02*
X030488D01*
X030395Y044846D02*
X030488D01*
Y044954D01*
X030395D02*
Y044959D01*
Y044954D02*
X030488D01*
X030395Y044841D02*
Y044846D01*
X031005Y045269D02*
Y045274D01*
X030912Y045269D02*
X031005D01*
Y045156D02*
Y045161D01*
X030912D02*
X031005D01*
X030912D02*
Y045269D01*
X030493Y013995D02*
Y015305D01*
X030907D01*
Y013995D02*
Y015305D01*
X030493Y013995D02*
X030907D01*
X030356Y015024D02*
X030493D01*
X030356D02*
Y0153D01*
X030493D01*
X030907Y014906D02*
X031044D01*
Y014709D02*
Y014906D01*
X030907Y014709D02*
X031044D01*
X030356Y014906D02*
X030493D01*
X030356Y014709D02*
X030493D01*
X030356D02*
Y014906D01*
X031044Y015024D02*
Y0153D01*
X030907Y015024D02*
X031044D01*
X030907Y0153D02*
X031044D01*
X030356Y014591D02*
X030493D01*
X030356Y014394D02*
X030493D01*
X030356D02*
Y014591D01*
X030907Y014D02*
X031044D01*
X030907Y014276D02*
X031044D01*
Y014D02*
Y014276D01*
X030356D02*
X030493D01*
X030356Y014D02*
X030493D01*
X030356D02*
Y014276D01*
X030907Y014394D02*
X031044D01*
X030907Y014591D02*
X031044D01*
Y014394D02*
Y014591D01*
X030395Y0153D02*
Y015309D01*
X031005D01*
Y0153D02*
Y015309D01*
Y014389D02*
Y014394D01*
X030912Y014389D02*
X031005D01*
X030912Y014281D02*
Y014389D01*
Y014281D02*
X031005D01*
Y014276D02*
Y014281D01*
X030912Y014704D02*
X031005D01*
X030912Y014596D02*
Y014704D01*
Y014596D02*
X031005D01*
Y014591D02*
Y014596D01*
Y014704D02*
Y014709D01*
X030395Y014276D02*
Y014281D01*
X030488D02*
Y014389D01*
X030395D02*
X030488D01*
X030395Y014281D02*
X030488D01*
X030395Y014389D02*
Y014394D01*
X031005Y013991D02*
Y014D01*
X030395Y013991D02*
X031005D01*
X030395D02*
Y014D01*
Y014906D02*
Y014911D01*
X030488D02*
Y015019D01*
X030395D02*
X030488D01*
X030395D02*
Y015024D01*
Y014911D02*
X030488D01*
X030395Y014596D02*
X030488D01*
Y014704D01*
X030395D02*
Y014709D01*
Y014704D02*
X030488D01*
X030395Y014591D02*
Y014596D01*
X031005Y015019D02*
Y015024D01*
X030912Y015019D02*
X031005D01*
Y014906D02*
Y014911D01*
X030912D02*
X031005D01*
X030912D02*
Y015019D01*
X030493Y016395D02*
Y017705D01*
X030907D01*
Y016395D02*
Y017705D01*
X030493Y016395D02*
X030907D01*
X030356Y017424D02*
X030493D01*
X030356D02*
Y0177D01*
X030493D01*
X030907Y017306D02*
X031044D01*
Y017109D02*
Y017306D01*
X030907Y017109D02*
X031044D01*
X030356Y017306D02*
X030493D01*
X030356Y017109D02*
X030493D01*
X030356D02*
Y017306D01*
X031044Y017424D02*
Y0177D01*
X030907Y017424D02*
X031044D01*
X030907Y0177D02*
X031044D01*
X030356Y016991D02*
X030493D01*
X030356Y016794D02*
X030493D01*
X030356D02*
Y016991D01*
X030907Y0164D02*
X031044D01*
X030907Y016676D02*
X031044D01*
Y0164D02*
Y016676D01*
X030356D02*
X030493D01*
X030356Y0164D02*
X030493D01*
X030356D02*
Y016676D01*
X030907Y016794D02*
X031044D01*
X030907Y016991D02*
X031044D01*
Y016794D02*
Y016991D01*
X030395Y0177D02*
Y017709D01*
X031005D01*
Y0177D02*
Y017709D01*
Y016789D02*
Y016794D01*
X030912Y016789D02*
X031005D01*
X030912Y016681D02*
Y016789D01*
Y016681D02*
X031005D01*
Y016676D02*
Y016681D01*
X030912Y017104D02*
X031005D01*
X030912Y016996D02*
Y017104D01*
Y016996D02*
X031005D01*
Y016991D02*
Y016996D01*
Y017104D02*
Y017109D01*
X030395Y016676D02*
Y016681D01*
X030488D02*
Y016789D01*
X030395D02*
X030488D01*
X030395Y016681D02*
X030488D01*
X030395Y016789D02*
Y016794D01*
X031005Y016391D02*
Y0164D01*
X030395Y016391D02*
X031005D01*
X030395D02*
Y0164D01*
Y017306D02*
Y017311D01*
X030488D02*
Y017419D01*
X030395D02*
X030488D01*
X030395D02*
Y017424D01*
Y017311D02*
X030488D01*
X030395Y016996D02*
X030488D01*
Y017104D01*
X030395D02*
Y017109D01*
Y017104D02*
X030488D01*
X030395Y016991D02*
Y016996D01*
X031005Y017419D02*
Y017424D01*
X030912Y017419D02*
X031005D01*
Y017306D02*
Y017311D01*
X030912D02*
X031005D01*
X030912D02*
Y017419D01*
X030493Y024545D02*
Y025855D01*
X030907D01*
Y024545D02*
Y025855D01*
X030493Y024545D02*
X030907D01*
X030356Y025574D02*
X030493D01*
X030356D02*
Y02585D01*
X030493D01*
X030907Y025456D02*
X031044D01*
Y025259D02*
Y025456D01*
X030907Y025259D02*
X031044D01*
X030356Y025456D02*
X030493D01*
X030356Y025259D02*
X030493D01*
X030356D02*
Y025456D01*
X031044Y025574D02*
Y02585D01*
X030907Y025574D02*
X031044D01*
X030907Y02585D02*
X031044D01*
X030356Y025141D02*
X030493D01*
X030356Y024944D02*
X030493D01*
X030356D02*
Y025141D01*
X030907Y02455D02*
X031044D01*
X030907Y024826D02*
X031044D01*
Y02455D02*
Y024826D01*
X030356D02*
X030493D01*
X030356Y02455D02*
X030493D01*
X030356D02*
Y024826D01*
X030907Y024944D02*
X031044D01*
X030907Y025141D02*
X031044D01*
Y024944D02*
Y025141D01*
X030395Y02585D02*
Y025859D01*
X031005D01*
Y02585D02*
Y025859D01*
Y024939D02*
Y024944D01*
X030912Y024939D02*
X031005D01*
X030912Y024831D02*
Y024939D01*
Y024831D02*
X031005D01*
Y024826D02*
Y024831D01*
X030912Y025254D02*
X031005D01*
X030912Y025146D02*
Y025254D01*
Y025146D02*
X031005D01*
Y025141D02*
Y025146D01*
Y025254D02*
Y025259D01*
X030395Y024826D02*
Y024831D01*
X030488D02*
Y024939D01*
X030395D02*
X030488D01*
X030395Y024831D02*
X030488D01*
X030395Y024939D02*
Y024944D01*
X031005Y024541D02*
Y02455D01*
X030395Y024541D02*
X031005D01*
X030395D02*
Y02455D01*
Y025456D02*
Y025461D01*
X030488D02*
Y025569D01*
X030395D02*
X030488D01*
X030395D02*
Y025574D01*
Y025461D02*
X030488D01*
X030395Y025146D02*
X030488D01*
Y025254D01*
X030395D02*
Y025259D01*
Y025254D02*
X030488D01*
X030395Y025141D02*
Y025146D01*
X031005Y025569D02*
Y025574D01*
X030912Y025569D02*
X031005D01*
Y025456D02*
Y025461D01*
X030912D02*
X031005D01*
X030912D02*
Y025569D01*
X030493Y041195D02*
Y042505D01*
X030907D01*
Y041195D02*
Y042505D01*
X030493Y041195D02*
X030907D01*
X030356Y042224D02*
X030493D01*
X030356D02*
Y0425D01*
X030493D01*
X030907Y042106D02*
X031044D01*
Y041909D02*
Y042106D01*
X030907Y041909D02*
X031044D01*
X030356Y042106D02*
X030493D01*
X030356Y041909D02*
X030493D01*
X030356D02*
Y042106D01*
X031044Y042224D02*
Y0425D01*
X030907Y042224D02*
X031044D01*
X030907Y0425D02*
X031044D01*
X030356Y041791D02*
X030493D01*
X030356Y041594D02*
X030493D01*
X030356D02*
Y041791D01*
X030907Y0412D02*
X031044D01*
X030907Y041476D02*
X031044D01*
Y0412D02*
Y041476D01*
X030356D02*
X030493D01*
X030356Y0412D02*
X030493D01*
X030356D02*
Y041476D01*
X030907Y041594D02*
X031044D01*
X030907Y041791D02*
X031044D01*
Y041594D02*
Y041791D01*
X030395Y0425D02*
Y042509D01*
X031005D01*
Y0425D02*
Y042509D01*
Y041589D02*
Y041594D01*
X030912Y041589D02*
X031005D01*
X030912Y041481D02*
Y041589D01*
Y041481D02*
X031005D01*
Y041476D02*
Y041481D01*
X030912Y041904D02*
X031005D01*
X030912Y041796D02*
Y041904D01*
Y041796D02*
X031005D01*
Y041791D02*
Y041796D01*
Y041904D02*
Y041909D01*
X030395Y041476D02*
Y041481D01*
X030488D02*
Y041589D01*
X030395D02*
X030488D01*
X030395Y041481D02*
X030488D01*
X030395Y041589D02*
Y041594D01*
X031005Y041191D02*
Y0412D01*
X030395Y041191D02*
X031005D01*
X030395D02*
Y0412D01*
Y042106D02*
Y042111D01*
X030488D02*
Y042219D01*
X030395D02*
X030488D01*
X030395D02*
Y042224D01*
Y042111D02*
X030488D01*
X030395Y041796D02*
X030488D01*
Y041904D01*
X030395D02*
Y041909D01*
Y041904D02*
X030488D01*
X030395Y041791D02*
Y041796D01*
X031005Y042219D02*
Y042224D01*
X030912Y042219D02*
X031005D01*
Y042106D02*
Y042111D01*
X030912D02*
X031005D01*
X030912D02*
Y042219D01*
X030907Y058895D02*
Y060205D01*
X030493Y058895D02*
X030907D01*
X030493D02*
Y060205D01*
X030907D01*
Y059176D02*
X031044D01*
Y0589D02*
Y059176D01*
X030907Y0589D02*
X031044D01*
X030356Y059294D02*
X030493D01*
X030356D02*
Y059491D01*
X030493D01*
X030907Y059294D02*
X031044D01*
X030907Y059491D02*
X031044D01*
Y059294D02*
Y059491D01*
X030356Y0589D02*
Y059176D01*
X030493D01*
X030356Y0589D02*
X030493D01*
X030907Y059609D02*
X031044D01*
X030907Y059806D02*
X031044D01*
Y059609D02*
Y059806D01*
X030356Y0602D02*
X030493D01*
X030356Y059924D02*
X030493D01*
X030356D02*
Y0602D01*
X030907Y059924D02*
X031044D01*
X030907Y0602D02*
X031044D01*
Y059924D02*
Y0602D01*
X030356Y059806D02*
X030493D01*
X030356Y059609D02*
X030493D01*
X030356D02*
Y059806D01*
X031005Y058891D02*
Y0589D01*
X030395Y058891D02*
X031005D01*
X030395D02*
Y0589D01*
Y059806D02*
Y059811D01*
X030488D01*
Y059919D01*
X030395D02*
X030488D01*
X030395D02*
Y059924D01*
Y059496D02*
X030488D01*
Y059604D01*
X030395D02*
X030488D01*
X030395D02*
Y059609D01*
Y059491D02*
Y059496D01*
X031005Y059919D02*
Y059924D01*
X030912Y059811D02*
Y059919D01*
Y059811D02*
X031005D01*
X030912Y059919D02*
X031005D01*
Y059806D02*
Y059811D01*
X030395Y0602D02*
Y060209D01*
X031005D01*
Y0602D02*
Y060209D01*
Y059289D02*
Y059294D01*
X030912Y059181D02*
Y059289D01*
Y059181D02*
X031005D01*
Y059176D02*
Y059181D01*
X030912Y059289D02*
X031005D01*
X030912Y059604D02*
X031005D01*
X030912Y059496D02*
Y059604D01*
X031005Y059491D02*
Y059496D01*
X030912D02*
X031005D01*
Y059604D02*
Y059609D01*
X030395Y059176D02*
Y059181D01*
X030488D01*
X030395Y059289D02*
Y059294D01*
Y059289D02*
X030488D01*
Y059181D02*
Y059289D01*
X030493Y027545D02*
Y028855D01*
X030907D01*
Y027545D02*
Y028855D01*
X030493Y027545D02*
X030907D01*
X030356Y028574D02*
X030493D01*
X030356D02*
Y02885D01*
X030493D01*
X030907Y028456D02*
X031044D01*
Y028259D02*
Y028456D01*
X030907Y028259D02*
X031044D01*
X030356Y028456D02*
X030493D01*
X030356Y028259D02*
X030493D01*
X030356D02*
Y028456D01*
X031044Y028574D02*
Y02885D01*
X030907Y028574D02*
X031044D01*
X030907Y02885D02*
X031044D01*
X030356Y028141D02*
X030493D01*
X030356Y027944D02*
X030493D01*
X030356D02*
Y028141D01*
X030907Y02755D02*
X031044D01*
X030907Y027826D02*
X031044D01*
Y02755D02*
Y027826D01*
X030356D02*
X030493D01*
X030356Y02755D02*
X030493D01*
X030356D02*
Y027826D01*
X030907Y027944D02*
X031044D01*
X030907Y028141D02*
X031044D01*
Y027944D02*
Y028141D01*
X030395Y02885D02*
Y028859D01*
X031005D01*
Y02885D02*
Y028859D01*
Y027939D02*
Y027944D01*
X030912Y027939D02*
X031005D01*
X030912Y027831D02*
Y027939D01*
Y027831D02*
X031005D01*
Y027826D02*
Y027831D01*
X030912Y028254D02*
X031005D01*
X030912Y028146D02*
Y028254D01*
Y028146D02*
X031005D01*
Y028141D02*
Y028146D01*
Y028254D02*
Y028259D01*
X030395Y027826D02*
Y027831D01*
X030488D02*
Y027939D01*
X030395D02*
X030488D01*
X030395Y027831D02*
X030488D01*
X030395Y027939D02*
Y027944D01*
X031005Y027541D02*
Y02755D01*
X030395Y027541D02*
X031005D01*
X030395D02*
Y02755D01*
Y028456D02*
Y028461D01*
X030488D02*
Y028569D01*
X030395D02*
X030488D01*
X030395D02*
Y028574D01*
Y028461D02*
X030488D01*
X030395Y028146D02*
X030488D01*
Y028254D01*
X030395D02*
Y028259D01*
Y028254D02*
X030488D01*
X030395Y028141D02*
Y028146D01*
X031005Y028569D02*
Y028574D01*
X030912Y028569D02*
X031005D01*
Y028456D02*
Y028461D01*
X030912D02*
X031005D01*
X030912D02*
Y028569D01*
X030907Y031095D02*
Y032405D01*
X030493Y031095D02*
X030907D01*
X030493D02*
Y032405D01*
X030907D01*
Y031376D02*
X031044D01*
Y0311D02*
Y031376D01*
X030907Y0311D02*
X031044D01*
X030356Y031494D02*
X030493D01*
X030356D02*
Y031691D01*
X030493D01*
X030907Y031494D02*
X031044D01*
X030907Y031691D02*
X031044D01*
Y031494D02*
Y031691D01*
X030356Y0311D02*
Y031376D01*
X030493D01*
X030356Y0311D02*
X030493D01*
X030907Y031809D02*
X031044D01*
X030907Y032006D02*
X031044D01*
Y031809D02*
Y032006D01*
X030356Y0324D02*
X030493D01*
X030356Y032124D02*
X030493D01*
X030356D02*
Y0324D01*
X030907Y032124D02*
X031044D01*
X030907Y0324D02*
X031044D01*
Y032124D02*
Y0324D01*
X030356Y032006D02*
X030493D01*
X030356Y031809D02*
X030493D01*
X030356D02*
Y032006D01*
X031005Y031091D02*
Y0311D01*
X030395Y031091D02*
X031005D01*
X030395D02*
Y0311D01*
Y032006D02*
Y032011D01*
X030488D01*
Y032119D01*
X030395D02*
X030488D01*
X030395D02*
Y032124D01*
Y031696D02*
X030488D01*
Y031804D01*
X030395D02*
X030488D01*
X030395D02*
Y031809D01*
Y031691D02*
Y031696D01*
X031005Y032119D02*
Y032124D01*
X030912Y032011D02*
Y032119D01*
Y032011D02*
X031005D01*
X030912Y032119D02*
X031005D01*
Y032006D02*
Y032011D01*
X030395Y0324D02*
Y032409D01*
X031005D01*
Y0324D02*
Y032409D01*
Y031489D02*
Y031494D01*
X030912Y031381D02*
Y031489D01*
Y031381D02*
X031005D01*
Y031376D02*
Y031381D01*
X030912Y031489D02*
X031005D01*
X030912Y031804D02*
X031005D01*
X030912Y031696D02*
Y031804D01*
X031005Y031691D02*
Y031696D01*
X030912D02*
X031005D01*
Y031804D02*
Y031809D01*
X030395Y031376D02*
Y031381D01*
X030488D01*
X030395Y031489D02*
Y031494D01*
Y031489D02*
X030488D01*
Y031381D02*
Y031489D01*
M02*
