%FSTAX24Y24*%
%MOIN*%
G70*
G01*
G75*
G04 Layer_Color=255*
%ADD10R,0.0500X0.0394*%
%ADD11R,0.7500X0.0100*%
%ADD12R,0.0500X0.0500*%
G04:AMPARAMS|DCode=13|XSize=37.4mil|YSize=19.7mil|CornerRadius=2.5mil|HoleSize=0mil|Usage=FLASHONLY|Rotation=180.000|XOffset=0mil|YOffset=0mil|HoleType=Round|Shape=RoundedRectangle|*
%AMROUNDEDRECTD13*
21,1,0.0374,0.0148,0,0,180.0*
21,1,0.0325,0.0197,0,0,180.0*
1,1,0.0049,-0.0162,0.0074*
1,1,0.0049,0.0162,0.0074*
1,1,0.0049,0.0162,-0.0074*
1,1,0.0049,-0.0162,-0.0074*
%
%ADD13ROUNDEDRECTD13*%
%ADD14R,0.0500X0.0500*%
%ADD15R,0.0394X0.0500*%
%ADD16R,0.0390X0.0120*%
%ADD17O,0.1457X0.0256*%
%ADD18O,0.0118X0.0532*%
%ADD19C,0.0160*%
%ADD20C,0.0080*%
%ADD21C,0.0120*%
%ADD22C,0.0200*%
%ADD23C,0.0100*%
%ADD24C,0.1500*%
%ADD25C,0.1874*%
%ADD26C,0.0665*%
%ADD27R,0.0665X0.0665*%
%ADD28O,0.1575X0.1360*%
%ADD29R,0.1575X0.1360*%
%ADD30R,0.0638X0.0638*%
%ADD31C,0.0638*%
%ADD32C,0.0591*%
%ADD33R,0.0591X0.0591*%
%ADD34P,0.0714X8X202.5*%
%ADD35O,0.0900X0.0620*%
%ADD36R,0.0900X0.0620*%
%ADD37O,0.0850X0.0600*%
%ADD38R,0.0850X0.0600*%
%ADD39O,0.0800X0.0640*%
%ADD40R,0.0800X0.0640*%
%ADD41R,0.1181X0.0902*%
%ADD42O,0.1181X0.0902*%
%ADD43C,0.0400*%
%ADD44C,0.0500*%
%ADD45C,0.0400*%
D11*
X044926Y009795D02*
D03*
D24*
X0567Y06195D02*
D03*
X02855D02*
D03*
X03595Y01055D02*
D03*
D25*
X051312Y05671D02*
D03*
X032788D02*
D03*
D26*
X035528Y056151D02*
D03*
X036071Y057269D02*
D03*
X036615Y056151D02*
D03*
X037158Y057269D02*
D03*
X037702Y056151D02*
D03*
X038245Y057269D02*
D03*
X038789Y056151D02*
D03*
X039332Y057269D02*
D03*
X039876Y056151D02*
D03*
X040419Y057269D02*
D03*
X040963Y056151D02*
D03*
X041507Y057269D02*
D03*
X04205Y056151D02*
D03*
X042593Y057269D02*
D03*
X043137Y056151D02*
D03*
X043681Y057269D02*
D03*
X044224Y056151D02*
D03*
X044768Y057269D02*
D03*
X045311Y056151D02*
D03*
X045855Y057269D02*
D03*
X046398Y056151D02*
D03*
X046942Y057269D02*
D03*
X047485Y056151D02*
D03*
X048029Y057269D02*
D03*
D27*
X048572Y056151D02*
D03*
D28*
X0245Y03975D02*
D03*
Y04175D02*
D03*
Y04375D02*
D03*
Y04575D02*
D03*
Y04775D02*
D03*
X02455Y03515D02*
D03*
Y03315D02*
D03*
Y03115D02*
D03*
Y02915D02*
D03*
Y02715D02*
D03*
Y02515D02*
D03*
Y02315D02*
D03*
Y0522D02*
D03*
Y0542D02*
D03*
Y0562D02*
D03*
Y0582D02*
D03*
Y0602D02*
D03*
Y010454D02*
D03*
Y012454D02*
D03*
Y014454D02*
D03*
Y016454D02*
D03*
Y018454D02*
D03*
X0564Y01245D02*
D03*
Y01445D02*
D03*
Y01645D02*
D03*
Y01845D02*
D03*
Y02045D02*
D03*
Y02245D02*
D03*
Y02445D02*
D03*
Y02645D02*
D03*
Y02845D02*
D03*
Y03045D02*
D03*
Y03245D02*
D03*
Y03445D02*
D03*
Y03645D02*
D03*
Y03845D02*
D03*
Y04045D02*
D03*
Y04245D02*
D03*
Y04445D02*
D03*
D29*
X0245Y04975D02*
D03*
X02455Y03715D02*
D03*
Y0622D02*
D03*
Y020454D02*
D03*
X0564Y01045D02*
D03*
D30*
X03335Y0216D02*
D03*
X05235D02*
D03*
D31*
X03235D02*
D03*
X03335Y0226D02*
D03*
X03235D02*
D03*
X03335Y0236D02*
D03*
X03235D02*
D03*
X03335Y0246D02*
D03*
X03235D02*
D03*
X03335Y0256D02*
D03*
X03235D02*
D03*
X03335Y0266D02*
D03*
X03235D02*
D03*
X03335Y0276D02*
D03*
X03235D02*
D03*
X03335Y0286D02*
D03*
X03235D02*
D03*
X03335Y0296D02*
D03*
X03235D02*
D03*
X03335Y0306D02*
D03*
X03235D02*
D03*
X03335Y0316D02*
D03*
X03235D02*
D03*
X03335Y0326D02*
D03*
X03235D02*
D03*
X03335Y0336D02*
D03*
X03235D02*
D03*
X03335Y0346D02*
D03*
X03235D02*
D03*
X03335Y0356D02*
D03*
X03235D02*
D03*
X03335Y0366D02*
D03*
X03235D02*
D03*
X03335Y0376D02*
D03*
X03235D02*
D03*
X03335Y0386D02*
D03*
X03235D02*
D03*
X03335Y0396D02*
D03*
X03235D02*
D03*
X03335Y0406D02*
D03*
X03235D02*
D03*
X03335Y0416D02*
D03*
X03235D02*
D03*
X03335Y0426D02*
D03*
X03235D02*
D03*
X03335Y0436D02*
D03*
X03235D02*
D03*
X05135Y0216D02*
D03*
X05235Y0226D02*
D03*
X05135D02*
D03*
X05235Y0236D02*
D03*
X05135D02*
D03*
X05235Y0246D02*
D03*
X05135D02*
D03*
X05235Y0256D02*
D03*
X05135D02*
D03*
X05235Y0266D02*
D03*
X05135D02*
D03*
X05235Y0276D02*
D03*
X05135D02*
D03*
X05235Y0286D02*
D03*
X05135D02*
D03*
X05235Y0296D02*
D03*
X05135D02*
D03*
X05235Y0306D02*
D03*
X05135D02*
D03*
X05235Y0316D02*
D03*
X05135D02*
D03*
X05235Y0326D02*
D03*
X05135D02*
D03*
X05235Y0336D02*
D03*
X05135D02*
D03*
X05235Y0346D02*
D03*
X05135D02*
D03*
X05235Y0356D02*
D03*
X05135D02*
D03*
X05235Y0366D02*
D03*
X05135D02*
D03*
X05235Y0376D02*
D03*
X05135D02*
D03*
X05235Y0386D02*
D03*
X05135D02*
D03*
X05235Y0396D02*
D03*
X05135D02*
D03*
X05235Y0406D02*
D03*
X05135D02*
D03*
X05235Y0416D02*
D03*
X05135D02*
D03*
X05235Y0426D02*
D03*
X05135D02*
D03*
X05235Y0436D02*
D03*
X05135D02*
D03*
D32*
X03585Y0529D02*
D03*
Y0539D02*
D03*
X03685Y0529D02*
D03*
Y0539D02*
D03*
X03785Y0529D02*
D03*
Y0539D02*
D03*
X03885Y0529D02*
D03*
Y0539D02*
D03*
X03985Y0529D02*
D03*
Y0539D02*
D03*
X04085Y0529D02*
D03*
Y0539D02*
D03*
X04185Y0529D02*
D03*
Y0539D02*
D03*
X04285Y0529D02*
D03*
Y0539D02*
D03*
X04385Y0529D02*
D03*
Y0539D02*
D03*
X04485Y0529D02*
D03*
Y0539D02*
D03*
X04585Y0529D02*
D03*
Y0539D02*
D03*
X04685Y0529D02*
D03*
Y0539D02*
D03*
X04785Y0529D02*
D03*
D33*
Y0539D02*
D03*
D34*
X02755Y05315D02*
D03*
X02855D02*
D03*
X02755Y0552D02*
D03*
X02855D02*
D03*
X02755Y0572D02*
D03*
X02855D02*
D03*
X02755Y05925D02*
D03*
X02855D02*
D03*
X02755Y0418D02*
D03*
X02855D02*
D03*
X02755Y0438D02*
D03*
X02855D02*
D03*
X02755Y0458D02*
D03*
X02855D02*
D03*
X02755Y03515D02*
D03*
X02855D02*
D03*
X02755Y03315D02*
D03*
X02855D02*
D03*
X02755Y03115D02*
D03*
X02855D02*
D03*
X02755Y02915D02*
D03*
X02855D02*
D03*
X02755Y02715D02*
D03*
X02855D02*
D03*
Y02515D02*
D03*
X02755D02*
D03*
Y01245D02*
D03*
X02855D02*
D03*
X02755Y01445D02*
D03*
X02855D02*
D03*
X02755Y01655D02*
D03*
X02855D02*
D03*
X02755Y01855D02*
D03*
X02855D02*
D03*
X02755Y04775D02*
D03*
X02855D02*
D03*
D35*
X0307Y03415D02*
D03*
Y03515D02*
D03*
Y03615D02*
D03*
Y03715D02*
D03*
X03075Y0194D02*
D03*
Y0204D02*
D03*
Y0214D02*
D03*
Y0224D02*
D03*
X0307Y0534D02*
D03*
Y0544D02*
D03*
Y0554D02*
D03*
Y0564D02*
D03*
Y0466D02*
D03*
Y0476D02*
D03*
Y0486D02*
D03*
Y0496D02*
D03*
D36*
Y03815D02*
D03*
X03075Y0234D02*
D03*
X0307Y0574D02*
D03*
Y0506D02*
D03*
D37*
X0501Y0356D02*
D03*
Y0346D02*
D03*
Y0336D02*
D03*
Y0326D02*
D03*
Y0316D02*
D03*
D38*
Y0306D02*
D03*
X046459Y039435D02*
D03*
D39*
X0402Y0447D02*
D03*
X0432D02*
D03*
X0402Y0437D02*
D03*
D40*
X0432D02*
D03*
D41*
X05675Y04895D02*
D03*
D42*
Y05045D02*
D03*
Y05195D02*
D03*
Y05345D02*
D03*
Y05495D02*
D03*
Y05645D02*
D03*
M02*
