%FSTAX24Y24*%
%MOIN*%
G70*
G01*
G75*
G04 Layer_Physical_Order=2*
G04 Layer_Color=16711680*
%ADD10R,0.0500X0.0394*%
%ADD11R,0.7500X0.0100*%
%ADD12R,0.0500X0.0500*%
G04:AMPARAMS|DCode=13|XSize=37.4mil|YSize=19.7mil|CornerRadius=2.5mil|HoleSize=0mil|Usage=FLASHONLY|Rotation=180.000|XOffset=0mil|YOffset=0mil|HoleType=Round|Shape=RoundedRectangle|*
%AMROUNDEDRECTD13*
21,1,0.0374,0.0148,0,0,180.0*
21,1,0.0325,0.0197,0,0,180.0*
1,1,0.0049,-0.0162,0.0074*
1,1,0.0049,0.0162,0.0074*
1,1,0.0049,0.0162,-0.0074*
1,1,0.0049,-0.0162,-0.0074*
%
%ADD13ROUNDEDRECTD13*%
%ADD14R,0.0500X0.0500*%
%ADD15R,0.0394X0.0500*%
%ADD16R,0.0390X0.0120*%
%ADD17O,0.1457X0.0256*%
%ADD18O,0.0118X0.0532*%
%ADD19C,0.0160*%
%ADD20C,0.0080*%
%ADD21C,0.0120*%
%ADD22C,0.0200*%
%ADD23C,0.0100*%
%ADD24C,0.1500*%
%ADD25C,0.1874*%
%ADD26C,0.0665*%
%ADD27R,0.0665X0.0665*%
%ADD28O,0.1575X0.1360*%
%ADD29R,0.1575X0.1360*%
%ADD30R,0.0638X0.0638*%
%ADD31C,0.0638*%
%ADD32C,0.0591*%
%ADD33R,0.0591X0.0591*%
%ADD34P,0.0714X8X202.5*%
%ADD35O,0.0900X0.0620*%
%ADD36R,0.0900X0.0620*%
%ADD37O,0.0850X0.0600*%
%ADD38R,0.0850X0.0600*%
%ADD39O,0.0800X0.0640*%
%ADD40R,0.0800X0.0640*%
%ADD41R,0.1181X0.0902*%
%ADD42O,0.1181X0.0902*%
%ADD43C,0.0400*%
%ADD44C,0.0500*%
%ADD45C,0.0400*%
G36*
X057628Y063396D02*
X057752Y063358D01*
X057866Y063297D01*
X057965Y063215D01*
X058047Y063116D01*
X058108Y063002D01*
X058146Y062878D01*
X058157Y06276D01*
X058155Y06275D01*
Y009871D01*
X058151Y00985D01*
X058151D01*
X058154Y009847D01*
X058141Y009721D01*
X058104Y009598D01*
X058043Y009484D01*
X057961Y009384D01*
X057861Y009302D01*
X057748Y009242D01*
X057624Y009204D01*
X057529Y009195D01*
X023547D01*
X023502Y009204D01*
Y009204D01*
X023499Y009201D01*
X023374Y009214D01*
X02325Y009251D01*
X023136Y009312D01*
X023037Y009394D01*
X022955Y009493D01*
X022894Y009607D01*
X022856Y009731D01*
X022845Y00985D01*
Y009859D01*
X022847D01*
X022845Y009869D01*
Y062737D01*
X022849Y062757D01*
X022849D01*
X022846Y06276D01*
X022858Y062885D01*
X022896Y063009D01*
X022957Y063123D01*
X023039Y063222D01*
X023138Y063304D01*
X023252Y063365D01*
X023376Y063403D01*
X023383Y063403D01*
X057549D01*
X057628Y063396D01*
D02*
G37*
%LPC*%
G36*
X056507Y039334D02*
X056293D01*
X05612Y039317D01*
X055954Y039267D01*
X055801Y039185D01*
X055667Y039075D01*
X055557Y038941D01*
X055476Y038788D01*
X055425Y038622D01*
X055408Y03845D01*
X055425Y038278D01*
X055476Y038112D01*
X055557Y037959D01*
X055667Y037825D01*
X055801Y037715D01*
X055954Y037633D01*
X05612Y037583D01*
X056293Y037566D01*
X056507D01*
X05668Y037583D01*
X056846Y037633D01*
X056999Y037715D01*
X057133Y037825D01*
X057243Y037959D01*
X057324Y038112D01*
X057375Y038278D01*
X057392Y03845D01*
X057375Y038622D01*
X057324Y038788D01*
X057243Y038941D01*
X057133Y039075D01*
X056999Y039185D01*
X056846Y039267D01*
X05668Y039317D01*
X056507Y039334D01*
D02*
G37*
G36*
X02445Y0397D02*
X023614D01*
X023624Y039597D01*
X023668Y03945D01*
X023741Y039315D01*
X023838Y039196D01*
X023957Y039098D01*
X024093Y039026D01*
X02424Y038981D01*
X024393Y038966D01*
X02445D01*
Y0397D01*
D02*
G37*
G36*
X038928Y035624D02*
X038886Y035619D01*
X038801Y035583D01*
X038728Y035527D01*
X038672Y035454D01*
X038637Y035369D01*
X038631Y035328D01*
X038928D01*
Y035624D01*
D02*
G37*
G36*
X039028D02*
Y035328D01*
X039324D01*
X039319Y035369D01*
X039283Y035454D01*
X039227Y035527D01*
X039154Y035583D01*
X039069Y035619D01*
X039028Y035624D01*
D02*
G37*
G36*
X025386Y0397D02*
X02455D01*
Y038966D01*
X024607D01*
X02476Y038981D01*
X024907Y039026D01*
X025043Y039098D01*
X025162Y039196D01*
X025259Y039315D01*
X025332Y03945D01*
X025376Y039597D01*
X025386Y0397D01*
D02*
G37*
G36*
X02445Y040534D02*
X024393D01*
X02424Y040519D01*
X024093Y040474D01*
X023957Y040402D01*
X023838Y040304D01*
X023741Y040185D01*
X023668Y04005D01*
X023624Y039903D01*
X023614Y0398D01*
X02445D01*
Y040534D01*
D02*
G37*
G36*
X024607D02*
X02455D01*
Y0398D01*
X025386D01*
X025376Y039903D01*
X025332Y04005D01*
X025259Y040185D01*
X025162Y040304D01*
X025043Y040402D01*
X024907Y040474D01*
X02476Y040519D01*
X024607Y040534D01*
D02*
G37*
G36*
X035951Y040044D02*
X035705D01*
X035709Y040016D01*
X035739Y039943D01*
X035787Y03988D01*
X035849Y039832D01*
X035922Y039802D01*
X035951Y039798D01*
Y040044D01*
D02*
G37*
G36*
X036297D02*
X036051D01*
Y039798D01*
X036079Y039802D01*
X036152Y039832D01*
X036215Y03988D01*
X036263Y039943D01*
X036293Y040016D01*
X036297Y040044D01*
D02*
G37*
G36*
X039324Y035228D02*
X039028D01*
Y034931D01*
X039069Y034937D01*
X039154Y034972D01*
X039227Y035028D01*
X039283Y035101D01*
X039319Y035186D01*
X039324Y035228D01*
D02*
G37*
G36*
X025436Y0231D02*
X0246D01*
Y022366D01*
X024657D01*
X02481Y022381D01*
X024957Y022426D01*
X025093Y022498D01*
X025212Y022596D01*
X025309Y022715D01*
X025382Y02285D01*
X025426Y022997D01*
X025436Y0231D01*
D02*
G37*
G36*
X0245Y023934D02*
X024443D01*
X02429Y023919D01*
X024143Y023874D01*
X024007Y023802D01*
X023888Y023704D01*
X023791Y023585D01*
X023718Y02345D01*
X023674Y023303D01*
X023664Y0232D01*
X0245D01*
Y023934D01*
D02*
G37*
G36*
X052769Y022019D02*
X0524D01*
Y02165D01*
X052769D01*
Y022019D01*
D02*
G37*
G36*
X0245Y0231D02*
X023664D01*
X023674Y022997D01*
X023718Y02285D01*
X023791Y022715D01*
X023888Y022596D01*
X024007Y022498D01*
X024143Y022426D01*
X02429Y022381D01*
X024443Y022366D01*
X0245D01*
Y0231D01*
D02*
G37*
G36*
X024657Y023934D02*
X0246D01*
Y0232D01*
X025436D01*
X025426Y023303D01*
X025382Y02345D01*
X025309Y023585D01*
X025212Y023704D01*
X025093Y023802D01*
X024957Y023874D01*
X02481Y023919D01*
X024657Y023934D01*
D02*
G37*
G36*
X056507Y033334D02*
X056293D01*
X05612Y033317D01*
X055954Y033267D01*
X055801Y033185D01*
X055667Y033075D01*
X055557Y032941D01*
X055476Y032788D01*
X055425Y032622D01*
X055408Y03245D01*
X055425Y032278D01*
X055476Y032112D01*
X055557Y031959D01*
X055667Y031825D01*
X055801Y031715D01*
X055954Y031633D01*
X05612Y031583D01*
X056293Y031566D01*
X056507D01*
X05668Y031583D01*
X056846Y031633D01*
X056999Y031715D01*
X057133Y031825D01*
X057243Y031959D01*
X057324Y032112D01*
X057375Y032278D01*
X057392Y03245D01*
X057375Y032622D01*
X057324Y032788D01*
X057243Y032941D01*
X057133Y033075D01*
X056999Y033185D01*
X056846Y033267D01*
X05668Y033317D01*
X056507Y033334D01*
D02*
G37*
G36*
X038928Y035228D02*
X038631D01*
X038637Y035186D01*
X038672Y035101D01*
X038728Y035028D01*
X038801Y034972D01*
X038886Y034937D01*
X038928Y034931D01*
Y035228D01*
D02*
G37*
G36*
X024657Y026034D02*
X024443D01*
X02427Y026017D01*
X024104Y025967D01*
X023951Y025885D01*
X023817Y025775D01*
X023707Y025641D01*
X023626Y025488D01*
X023575Y025322D01*
X023558Y02515D01*
X023575Y024978D01*
X023626Y024812D01*
X023707Y024659D01*
X023817Y024525D01*
X023951Y024415D01*
X024104Y024333D01*
X02427Y024283D01*
X024443Y024266D01*
X024657D01*
X02483Y024283D01*
X024996Y024333D01*
X025149Y024415D01*
X025283Y024525D01*
X025393Y024659D01*
X025474Y024812D01*
X025503Y024905D01*
X02702D01*
Y024885D01*
X027285Y02462D01*
X027305D01*
Y0246D01*
X027321Y024522D01*
X027324Y024506D01*
X027377Y024427D01*
X027827Y023977D01*
X027906Y023924D01*
X027922Y023921D01*
X028Y023905D01*
X030027D01*
X030098Y023851D01*
X0301Y02385D01*
Y02289D01*
X030333D01*
X030349Y022843D01*
X030246Y022764D01*
X030165Y022657D01*
X030159Y022645D01*
X02985D01*
X029756Y022626D01*
X029677Y022573D01*
X029643Y022539D01*
X029598Y022561D01*
X029603Y0226D01*
X02959Y022704D01*
X029549Y022802D01*
X029485Y022885D01*
X029402Y022949D01*
X029304Y02299D01*
X0292Y023003D01*
X029149Y022997D01*
X028573Y023573D01*
X028494Y023626D01*
X028478Y023629D01*
X0284Y023645D01*
X027501D01*
X027297Y023849D01*
X027303Y0239D01*
X02729Y024004D01*
X027249Y024102D01*
X027185Y024185D01*
X027102Y024249D01*
X027004Y02429D01*
X0269Y024303D01*
X026796Y02429D01*
X026698Y024249D01*
X02665Y024212D01*
X026609Y024207D01*
X026586Y024213D01*
X026549Y024302D01*
X026495Y024373D01*
Y0245D01*
X026476Y024594D01*
X026423Y024673D01*
X026373Y024723D01*
X026294Y024776D01*
X026278Y024779D01*
X0262Y024795D01*
X026122Y024779D01*
X026106Y024776D01*
X026027Y024723D01*
X025974Y024644D01*
X025971Y024628D01*
X025955Y02455D01*
Y024416D01*
X025915Y024385D01*
X025851Y024302D01*
X02581Y024204D01*
X025797Y0241D01*
X02581Y023996D01*
X025851Y023898D01*
X025915Y023815D01*
X025998Y023751D01*
X026005Y023748D01*
Y020266D01*
X025965Y020235D01*
X025901Y020152D01*
X02586Y020054D01*
X025847Y01995D01*
X02586Y019846D01*
X025901Y019748D01*
X025965Y019665D01*
X026048Y019601D01*
X026146Y01956D01*
X02625Y019547D01*
X026354Y01956D01*
X026452Y019601D01*
X026535Y019665D01*
X026599Y019748D01*
X02664Y019846D01*
X026653Y01995D01*
X02664Y020054D01*
X026599Y020152D01*
X026535Y020235D01*
X026495Y020266D01*
Y023705D01*
X026544Y023715D01*
X026551Y023698D01*
X026615Y023615D01*
X026698Y023551D01*
X026796Y02351D01*
X0269Y023497D01*
X026951Y023503D01*
X027227Y023227D01*
X02728Y023192D01*
X027306Y023174D01*
X0274Y023155D01*
X028299D01*
X028803Y022651D01*
X028797Y0226D01*
X02881Y022496D01*
X028851Y022398D01*
X028915Y022315D01*
X028998Y022251D01*
X029096Y02221D01*
X0292Y022197D01*
X029239Y022202D01*
X029261Y022157D01*
X028377Y021273D01*
X028324Y021194D01*
X028321Y021178D01*
X028305Y0211D01*
Y01908D01*
X028285D01*
X02805Y018845D01*
X027815Y01908D01*
X027285D01*
X02702Y018815D01*
Y018698D01*
X025503D01*
X025474Y018792D01*
X025393Y018945D01*
X025283Y019079D01*
X025149Y019189D01*
X024996Y01927D01*
X02483Y019321D01*
X024657Y019338D01*
X024443D01*
X02427Y019321D01*
X024104Y01927D01*
X023951Y019189D01*
X023817Y019079D01*
X023707Y018945D01*
X023626Y018792D01*
X023575Y018626D01*
X023558Y018454D01*
X023575Y018281D01*
X023626Y018115D01*
X023707Y017962D01*
X023817Y017828D01*
X023951Y017718D01*
X024104Y017637D01*
X02427Y017586D01*
X024443Y017569D01*
X024657D01*
X02483Y017586D01*
X024996Y017637D01*
X025149Y017718D01*
X025283Y017828D01*
X025393Y017962D01*
X025474Y018115D01*
X025503Y018209D01*
X027096D01*
X027285Y01802D01*
X027815D01*
X02805Y018255D01*
X028285Y01802D01*
X028815D01*
X029009Y018214D01*
X029055Y018195D01*
Y016905D01*
X029009Y016886D01*
X028815Y01708D01*
X028285D01*
X02805Y016845D01*
X027815Y01708D01*
X027285D01*
X02702Y016815D01*
Y016698D01*
X025503D01*
X025474Y016792D01*
X025393Y016945D01*
X025283Y017079D01*
X025149Y017189D01*
X024996Y01727D01*
X02483Y017321D01*
X024657Y017338D01*
X024443D01*
X02427Y017321D01*
X024104Y01727D01*
X023951Y017189D01*
X023817Y017079D01*
X023707Y016945D01*
X023626Y016792D01*
X023575Y016626D01*
X023558Y016454D01*
X023575Y016281D01*
X023626Y016115D01*
X023707Y015962D01*
X023817Y015828D01*
X023951Y015718D01*
X024104Y015637D01*
X02427Y015586D01*
X024443Y015569D01*
X024657D01*
X02483Y015586D01*
X024996Y015637D01*
X025149Y015718D01*
X025283Y015828D01*
X025393Y015962D01*
X025474Y016115D01*
X025503Y016209D01*
X027096D01*
X027285Y01602D01*
X027815D01*
X02805Y016255D01*
X028285Y01602D01*
X028815D01*
X02908Y016285D01*
Y016305D01*
X0291D01*
X029178Y016321D01*
X029194Y016324D01*
X029273Y016377D01*
X029309Y016413D01*
X029355Y016394D01*
Y015001D01*
X029099Y014746D01*
X029049D01*
X028815Y01498D01*
X028285D01*
X02805Y014745D01*
X027815Y01498D01*
X027285D01*
X02702Y014715D01*
Y014698D01*
X025503D01*
X025474Y014792D01*
X025393Y014945D01*
X025283Y015079D01*
X025149Y015189D01*
X024996Y01527D01*
X02483Y015321D01*
X024657Y015338D01*
X024443D01*
X02427Y015321D01*
X024104Y01527D01*
X023951Y015189D01*
X023817Y015079D01*
X023707Y014945D01*
X023626Y014792D01*
X023575Y014626D01*
X023558Y014454D01*
X023575Y014281D01*
X023626Y014115D01*
X023707Y013962D01*
X023817Y013828D01*
X023951Y013718D01*
X024104Y013637D01*
X02427Y013586D01*
X024443Y013569D01*
X024657D01*
X02483Y013586D01*
X024996Y013637D01*
X025149Y013718D01*
X025283Y013828D01*
X025393Y013962D01*
X025474Y014115D01*
X025503Y014209D01*
X02702D01*
Y014185D01*
X027285Y01392D01*
X027815D01*
X02805Y014155D01*
X028285Y01392D01*
X028815D01*
X02908Y014185D01*
Y014205D01*
X02915D01*
X029228Y014221D01*
X029244Y014224D01*
X029323Y014277D01*
X029609Y014563D01*
X029655Y014544D01*
Y012851D01*
X029499Y012695D01*
X02908D01*
Y012715D01*
X028815Y01298D01*
X028285D01*
X02805Y012745D01*
X027815Y01298D01*
X027285D01*
X02702Y012715D01*
Y012698D01*
X025503D01*
X025474Y012792D01*
X025393Y012945D01*
X025283Y013079D01*
X025149Y013189D01*
X024996Y01327D01*
X02483Y013321D01*
X024657Y013338D01*
X024443D01*
X02427Y013321D01*
X024104Y01327D01*
X023951Y013189D01*
X023817Y013079D01*
X023707Y012945D01*
X023626Y012792D01*
X023575Y012626D01*
X023558Y012454D01*
X023575Y012281D01*
X023626Y012115D01*
X023707Y011962D01*
X023817Y011828D01*
X023951Y011718D01*
X024104Y011637D01*
X02427Y011586D01*
X024443Y011569D01*
X024657D01*
X02483Y011586D01*
X024996Y011637D01*
X025149Y011718D01*
X025283Y011828D01*
X025393Y011962D01*
X025474Y012115D01*
X025503Y012209D01*
X02702D01*
Y012185D01*
X027285Y01192D01*
X027815D01*
X02805Y012155D01*
X028285Y01192D01*
X028815D01*
X02908Y012185D01*
Y012205D01*
X0296D01*
X029678Y012221D01*
X029694Y012224D01*
X029773Y012277D01*
X030073Y012577D01*
X030126Y012656D01*
X030129Y012672D01*
X030145Y01275D01*
Y017648D01*
X03019Y01767D01*
X030202Y01766D01*
X030299Y01762D01*
X030404Y017606D01*
X030508Y01762D01*
X030605Y01766D01*
X030689Y017725D01*
X03073Y017779D01*
X032855D01*
X032899Y017721D01*
X032983Y017657D01*
X03308Y017617D01*
X033184Y017603D01*
X033289Y017617D01*
X033386Y017657D01*
X03347Y017721D01*
X033534Y017805D01*
X033574Y017902D01*
X033588Y018006D01*
X033574Y018111D01*
X033534Y018208D01*
X03347Y018292D01*
X033386Y018356D01*
X033289Y018396D01*
X033184Y01841D01*
X03308Y018396D01*
X032983Y018356D01*
X032899Y018292D01*
X032881Y018268D01*
X03071D01*
X030689Y018295D01*
X030605Y018359D01*
X030508Y0184D01*
X030404Y018413D01*
X030299Y0184D01*
X030202Y018359D01*
X03019Y01835D01*
X030145Y018372D01*
Y018949D01*
X030233Y019037D01*
X030246Y019036D01*
X030353Y018955D01*
X030477Y018903D01*
X03061Y018886D01*
X03089D01*
X031023Y018903D01*
X031147Y018955D01*
X031254Y019036D01*
X031335Y019143D01*
X031387Y019267D01*
X031404Y0194D01*
X031387Y019533D01*
X031335Y019657D01*
X031254Y019764D01*
X031147Y019845D01*
X031076Y019875D01*
Y019925D01*
X031147Y019955D01*
X031254Y020036D01*
X031335Y020143D01*
X031387Y020267D01*
X031404Y0204D01*
X031387Y020533D01*
X031335Y020657D01*
X031254Y020764D01*
X031147Y020845D01*
X031076Y020875D01*
Y020925D01*
X031147Y020955D01*
X031254Y021036D01*
X031335Y021143D01*
X031387Y021267D01*
X031404Y0214D01*
X031387Y021533D01*
X031335Y021657D01*
X031254Y021764D01*
X031147Y021845D01*
X031076Y021875D01*
Y021925D01*
X031147Y021955D01*
X031254Y022036D01*
X031335Y022143D01*
X031387Y022267D01*
X031404Y0224D01*
X031387Y022533D01*
X031335Y022657D01*
X031254Y022764D01*
X031151Y022843D01*
X031167Y02289D01*
X0314D01*
Y02391D01*
X030638D01*
X030616Y023955D01*
X030649Y023998D01*
X03069Y024096D01*
X030703Y0242D01*
X03069Y024304D01*
X030649Y024402D01*
X030585Y024485D01*
X030502Y024549D01*
X030404Y02459D01*
X0303Y024603D01*
X030196Y02459D01*
X030098Y024549D01*
X030015Y024485D01*
X029951Y024402D01*
X029948Y024395D01*
X028101D01*
X027871Y024626D01*
Y024676D01*
X02805Y024855D01*
X028285Y02462D01*
X028815D01*
X02908Y024885D01*
Y025415D01*
X028815Y02568D01*
X028285D01*
X02805Y025445D01*
X027815Y02568D01*
X027285D01*
X02702Y025415D01*
Y025395D01*
X025503D01*
X025474Y025488D01*
X025393Y025641D01*
X025283Y025775D01*
X025149Y025885D01*
X024996Y025967D01*
X02483Y026017D01*
X024657Y026034D01*
D02*
G37*
G36*
X056507Y027334D02*
X056293D01*
X05612Y027317D01*
X055954Y027267D01*
X055801Y027185D01*
X055667Y027075D01*
X055557Y026941D01*
X055476Y026788D01*
X055425Y026622D01*
X055408Y02645D01*
X055425Y026278D01*
X055476Y026112D01*
X055494Y026077D01*
X054397Y02498D01*
X054321Y02497D01*
X054223Y02493D01*
X05414Y024866D01*
X054076Y024782D01*
X054035Y024685D01*
X054022Y024581D01*
X054035Y024476D01*
X054076Y024379D01*
X05414Y024295D01*
X054223Y024231D01*
X054321Y024191D01*
X054425Y024177D01*
X05453Y024191D01*
X054627Y024231D01*
X05471Y024295D01*
X054775Y024379D01*
X054815Y024476D01*
X054825Y024553D01*
X055922Y02565D01*
X055954Y025633D01*
X05612Y025583D01*
X056293Y025566D01*
X056507D01*
X05668Y025583D01*
X056846Y025633D01*
X056999Y025715D01*
X057133Y025825D01*
X057243Y025959D01*
X057324Y026112D01*
X057375Y026278D01*
X057392Y02645D01*
X057375Y026622D01*
X057324Y026788D01*
X057243Y026941D01*
X057133Y027075D01*
X056999Y027185D01*
X056846Y027267D01*
X05668Y027317D01*
X056507Y027334D01*
D02*
G37*
G36*
X0524Y043016D02*
Y04265D01*
X052766D01*
X052758Y042709D01*
X052716Y042811D01*
X052649Y042899D01*
X052561Y042966D01*
X052459Y043008D01*
X0524Y043016D01*
D02*
G37*
G36*
X0513Y04355D02*
X050934D01*
X050942Y043491D01*
X050984Y043389D01*
X051051Y043301D01*
X051139Y043234D01*
X051241Y043192D01*
X0513Y043184D01*
Y04355D01*
D02*
G37*
G36*
X0514Y043016D02*
Y04265D01*
X051766D01*
X051758Y042709D01*
X051716Y042811D01*
X051649Y042899D01*
X051561Y042966D01*
X051459Y043008D01*
X0514Y043016D01*
D02*
G37*
G36*
X0523D02*
X052241Y043008D01*
X052139Y042966D01*
X052051Y042899D01*
X051984Y042811D01*
X051942Y042709D01*
X051934Y04265D01*
X0523D01*
Y043016D01*
D02*
G37*
G36*
X051766Y04355D02*
X0514D01*
Y043184D01*
X051459Y043192D01*
X051561Y043234D01*
X051649Y043301D01*
X051716Y043389D01*
X051758Y043491D01*
X051766Y04355D01*
D02*
G37*
G36*
X04315Y04365D02*
X0427D01*
Y04328D01*
X04315D01*
Y04365D01*
D02*
G37*
G36*
X0437D02*
X04325D01*
Y04328D01*
X0437D01*
Y04365D01*
D02*
G37*
G36*
X0523Y04355D02*
X051934D01*
X051942Y043491D01*
X051984Y043389D01*
X052051Y043301D01*
X052139Y043234D01*
X052241Y043192D01*
X0523Y043184D01*
Y04355D01*
D02*
G37*
G36*
X052766D02*
X0524D01*
Y043184D01*
X052459Y043192D01*
X052561Y043234D01*
X052649Y043301D01*
X052716Y043389D01*
X052758Y043491D01*
X052766Y04355D01*
D02*
G37*
G36*
X0513Y043016D02*
X051241Y043008D01*
X051139Y042966D01*
X051051Y042899D01*
X050984Y042811D01*
X050942Y042709D01*
X050934Y04265D01*
X0513D01*
Y043016D01*
D02*
G37*
G36*
X042774Y040817D02*
X042478D01*
X042483Y040776D01*
X042519Y04069D01*
X042575Y040617D01*
X042648Y040561D01*
X042733Y040526D01*
X042774Y04052D01*
Y040817D01*
D02*
G37*
G36*
Y041213D02*
X042733Y041208D01*
X042648Y041173D01*
X042575Y041117D01*
X042519Y041043D01*
X042483Y040958D01*
X042478Y040917D01*
X042774D01*
Y041213D01*
D02*
G37*
G36*
X035951Y04039D02*
X035922Y040386D01*
X035849Y040356D01*
X035787Y040308D01*
X035739Y040245D01*
X035709Y040172D01*
X035705Y040144D01*
X035951D01*
Y04039D01*
D02*
G37*
G36*
X036051D02*
Y040144D01*
X036297D01*
X036293Y040172D01*
X036263Y040245D01*
X036215Y040308D01*
X036152Y040356D01*
X036079Y040386D01*
X036051Y04039D01*
D02*
G37*
G36*
X042874Y041213D02*
Y040917D01*
X043171D01*
X043165Y040958D01*
X04313Y041043D01*
X043074Y041117D01*
X043001Y041173D01*
X042916Y041208D01*
X042874Y041213D01*
D02*
G37*
G36*
X0523Y04255D02*
X051934D01*
X051942Y042491D01*
X051984Y042389D01*
X052051Y042301D01*
X052139Y042234D01*
X052241Y042192D01*
X0523Y042184D01*
Y04255D01*
D02*
G37*
G36*
X052766D02*
X0524D01*
Y042184D01*
X052459Y042192D01*
X052561Y042234D01*
X052649Y042301D01*
X052716Y042389D01*
X052758Y042491D01*
X052766Y04255D01*
D02*
G37*
G36*
X0513D02*
X050934D01*
X050942Y042491D01*
X050984Y042389D01*
X051051Y042301D01*
X051139Y042234D01*
X051241Y042192D01*
X0513Y042184D01*
Y04255D01*
D02*
G37*
G36*
X051766D02*
X0514D01*
Y042184D01*
X051459Y042192D01*
X051561Y042234D01*
X051649Y042301D01*
X051716Y042389D01*
X051758Y042491D01*
X051766Y04255D01*
D02*
G37*
G36*
X0523Y022019D02*
X051931D01*
Y02165D01*
X0523D01*
Y022019D01*
D02*
G37*
G36*
X037377Y019726D02*
X03708D01*
Y01943D01*
X037121Y019435D01*
X037207Y019471D01*
X03728Y019527D01*
X037336Y0196D01*
X037371Y019685D01*
X037377Y019726D01*
D02*
G37*
G36*
X056507Y021334D02*
X056293D01*
X05612Y021317D01*
X055954Y021267D01*
X055801Y021185D01*
X055667Y021075D01*
X055557Y020941D01*
X055476Y020788D01*
X055425Y020622D01*
X055408Y02045D01*
X055425Y020278D01*
X055476Y020112D01*
X055557Y019959D01*
X055667Y019825D01*
X055801Y019715D01*
X055954Y019633D01*
X05612Y019583D01*
X056293Y019566D01*
X056507D01*
X05668Y019583D01*
X056846Y019633D01*
X056999Y019715D01*
X057133Y019825D01*
X057243Y019959D01*
X057324Y020112D01*
X057375Y020278D01*
X057392Y02045D01*
X057375Y020622D01*
X057324Y020788D01*
X057243Y020941D01*
X057133Y021075D01*
X056999Y021185D01*
X056846Y021267D01*
X05668Y021317D01*
X056507Y021334D01*
D02*
G37*
G36*
X036941Y0217D02*
X036837Y021686D01*
X03674Y021646D01*
X036656Y021582D01*
X036592Y021498D01*
X036552Y021401D01*
X036538Y021296D01*
X036552Y021192D01*
X036592Y021095D01*
X036656Y021011D01*
X03674Y020947D01*
X036837Y020907D01*
X036941Y020893D01*
X036982Y020898D01*
X038603Y019278D01*
X038603Y019278D01*
X038657Y019236D01*
X038657Y019236D01*
X038657Y019236D01*
D01*
X038657Y019236D01*
X038657Y019236D01*
X038721Y01921D01*
X038789Y019201D01*
X038789Y019201D01*
X041986D01*
X042004Y019178D01*
X042088Y019114D01*
X042185Y019073D01*
X042289Y01906D01*
X042394Y019073D01*
X042491Y019114D01*
X042575Y019178D01*
X042639Y019261D01*
X042679Y019359D01*
X042693Y019463D01*
X042679Y019567D01*
X042639Y019665D01*
X042575Y019748D01*
X042491Y019812D01*
X042394Y019853D01*
X042354Y019858D01*
X042341Y019906D01*
X042408Y019958D01*
X042464Y020031D01*
X0425Y020116D01*
X042505Y020157D01*
X041812D01*
X041818Y020116D01*
X041853Y020031D01*
X041909Y019958D01*
X041982Y019902D01*
X042067Y019866D01*
X042086Y019864D01*
X042093Y019814D01*
X042088Y019812D01*
X042004Y019748D01*
X041986Y019725D01*
X038897D01*
X037343Y02128D01*
X037345Y021296D01*
X037331Y021401D01*
X037291Y021498D01*
X037227Y021582D01*
X037143Y021646D01*
X037046Y021686D01*
X036941Y0217D01*
D02*
G37*
G36*
X03698Y019726D02*
X036684D01*
X036689Y019685D01*
X036724Y0196D01*
X03678Y019527D01*
X036854Y019471D01*
X036939Y019435D01*
X03698Y01943D01*
Y019726D01*
D02*
G37*
G36*
X025537Y021334D02*
X023563D01*
Y019574D01*
X025537D01*
Y021334D01*
D02*
G37*
G36*
X042109Y020554D02*
X042067Y020548D01*
X041982Y020513D01*
X041909Y020457D01*
X041853Y020384D01*
X041818Y020299D01*
X041812Y020257D01*
X042109D01*
Y020554D01*
D02*
G37*
G36*
X039638Y021464D02*
X039342D01*
X039347Y021423D01*
X039382Y021338D01*
X039439Y021265D01*
X039512Y021208D01*
X039597Y021173D01*
X039638Y021168D01*
Y021464D01*
D02*
G37*
G36*
X03698Y020123D02*
X036939Y020117D01*
X036854Y020082D01*
X03678Y020026D01*
X036724Y019953D01*
X036689Y019868D01*
X036684Y019826D01*
X03698D01*
Y020123D01*
D02*
G37*
G36*
X03708D02*
Y019826D01*
X037377D01*
X037371Y019868D01*
X037336Y019953D01*
X03728Y020026D01*
X037207Y020082D01*
X037121Y020117D01*
X03708Y020123D01*
D02*
G37*
G36*
X056507Y017334D02*
X056293D01*
X05612Y017317D01*
X055954Y017267D01*
X055801Y017185D01*
X055667Y017075D01*
X055557Y016941D01*
X055476Y016788D01*
X055425Y016622D01*
X055408Y01645D01*
X055425Y016278D01*
X055476Y016112D01*
X055557Y015959D01*
X055667Y015825D01*
X055801Y015715D01*
X055954Y015633D01*
X05612Y015583D01*
X056293Y015566D01*
X056507D01*
X05668Y015583D01*
X056846Y015633D01*
X056999Y015715D01*
X057133Y015825D01*
X057243Y015959D01*
X057324Y016112D01*
X057375Y016278D01*
X057392Y01645D01*
X057375Y016622D01*
X057324Y016788D01*
X057243Y016941D01*
X057133Y017075D01*
X056999Y017185D01*
X056846Y017267D01*
X05668Y017317D01*
X056507Y017334D01*
D02*
G37*
G36*
X0245Y010404D02*
X023664D01*
X023674Y010301D01*
X023718Y010154D01*
X023791Y010018D01*
X023888Y009899D01*
X024007Y009802D01*
X024143Y009729D01*
X02429Y009685D01*
X024443Y00967D01*
X0245D01*
Y010404D01*
D02*
G37*
G36*
X025436D02*
X0246D01*
Y00967D01*
X024657D01*
X02481Y009685D01*
X024957Y009729D01*
X025093Y009802D01*
X025212Y009899D01*
X025309Y010018D01*
X025382Y010154D01*
X025426Y010301D01*
X025436Y010404D01*
D02*
G37*
G36*
X048876Y010045D02*
X040976D01*
Y009545D01*
X048876D01*
Y010045D01*
D02*
G37*
G36*
X03595Y011505D02*
X035764Y011486D01*
X035585Y011432D01*
X03542Y011344D01*
X035275Y011225D01*
X035156Y01108D01*
X035068Y010915D01*
X035014Y010736D01*
X034995Y01055D01*
X035014Y010364D01*
X035068Y010185D01*
X035156Y01002D01*
X035275Y009875D01*
X03542Y009756D01*
X035585Y009668D01*
X035764Y009614D01*
X03595Y009595D01*
X036136Y009614D01*
X036315Y009668D01*
X03648Y009756D01*
X036625Y009875D01*
X036744Y01002D01*
X036832Y010185D01*
X036886Y010364D01*
X036905Y01055D01*
X036886Y010736D01*
X036832Y010915D01*
X036744Y01108D01*
X036625Y011225D01*
X03648Y011344D01*
X036315Y011432D01*
X036136Y011486D01*
X03595Y011505D01*
D02*
G37*
G36*
X0245Y011237D02*
X024443D01*
X02429Y011222D01*
X024143Y011178D01*
X024007Y011105D01*
X023888Y011008D01*
X023791Y010889D01*
X023718Y010753D01*
X023674Y010606D01*
X023664Y010504D01*
X0245D01*
Y011237D01*
D02*
G37*
G36*
X03576Y014915D02*
X035463D01*
X035469Y014874D01*
X035504Y014789D01*
X03556Y014716D01*
X035633Y01466D01*
X035718Y014624D01*
X03576Y014619D01*
Y014915D01*
D02*
G37*
G36*
X036156D02*
X03586D01*
Y014619D01*
X035901Y014624D01*
X035986Y01466D01*
X036059Y014716D01*
X036116Y014789D01*
X036151Y014874D01*
X036156Y014915D01*
D02*
G37*
G36*
X024657Y011237D02*
X0246D01*
Y010504D01*
X025436D01*
X025426Y010606D01*
X025382Y010753D01*
X025309Y010889D01*
X025212Y011008D01*
X025093Y011105D01*
X024957Y011178D01*
X02481Y011222D01*
X024657Y011237D01*
D02*
G37*
G36*
X056507Y015334D02*
X056293D01*
X05612Y015317D01*
X055954Y015267D01*
X055801Y015185D01*
X055667Y015075D01*
X055557Y014941D01*
X055476Y014788D01*
X055425Y014622D01*
X055408Y01445D01*
X055425Y014278D01*
X055476Y014112D01*
X055557Y013959D01*
X055667Y013825D01*
X055801Y013715D01*
X055954Y013633D01*
X05612Y013583D01*
X056293Y013566D01*
X056507D01*
X05668Y013583D01*
X056846Y013633D01*
X056999Y013715D01*
X057133Y013825D01*
X057243Y013959D01*
X057324Y014112D01*
X057375Y014278D01*
X057392Y01445D01*
X057375Y014622D01*
X057324Y014788D01*
X057243Y014941D01*
X057133Y015075D01*
X056999Y015185D01*
X056846Y015267D01*
X05668Y015317D01*
X056507Y015334D01*
D02*
G37*
G36*
X048572Y021898D02*
X048531Y021892D01*
X048446Y021857D01*
X048373Y021801D01*
X048317Y021728D01*
X048281Y021643D01*
X048276Y021601D01*
X048572D01*
Y021898D01*
D02*
G37*
G36*
X048672D02*
Y021601D01*
X048969D01*
X048963Y021643D01*
X048928Y021728D01*
X048872Y021801D01*
X048799Y021857D01*
X048714Y021892D01*
X048672Y021898D01*
D02*
G37*
G36*
X039638Y021861D02*
X039597Y021855D01*
X039512Y02182D01*
X039439Y021764D01*
X039382Y021691D01*
X039347Y021606D01*
X039342Y021564D01*
X039638D01*
Y021861D01*
D02*
G37*
G36*
X039738D02*
Y021564D01*
X040035D01*
X040029Y021606D01*
X039994Y021691D01*
X039938Y021764D01*
X039865Y02182D01*
X03978Y021855D01*
X039738Y021861D01*
D02*
G37*
G36*
X0323Y022016D02*
X032241Y022008D01*
X032139Y021966D01*
X032051Y021899D01*
X031984Y021811D01*
X031942Y021709D01*
X031934Y02165D01*
X0323D01*
Y022016D01*
D02*
G37*
G36*
X0513D02*
X051241Y022008D01*
X051139Y021966D01*
X051051Y021899D01*
X050984Y021811D01*
X050942Y021709D01*
X050934Y02165D01*
X0513D01*
Y022016D01*
D02*
G37*
G36*
X0514D02*
Y02165D01*
X051766D01*
X051758Y021709D01*
X051716Y021811D01*
X051649Y021899D01*
X051561Y021966D01*
X051459Y022008D01*
X0514Y022016D01*
D02*
G37*
G36*
X0324D02*
Y02165D01*
X032766D01*
X032758Y021709D01*
X032716Y021811D01*
X032649Y021899D01*
X032561Y021966D01*
X032459Y022008D01*
X0324Y022016D01*
D02*
G37*
G36*
X0333Y022019D02*
X032931D01*
Y02165D01*
X0333D01*
Y022019D01*
D02*
G37*
G36*
X048969Y021501D02*
X048672D01*
Y021205D01*
X048714Y02121D01*
X048799Y021245D01*
X048872Y021302D01*
X048928Y021375D01*
X048963Y02146D01*
X048969Y021501D01*
D02*
G37*
G36*
X0523Y02155D02*
X051931D01*
Y021181D01*
X0523D01*
Y02155D01*
D02*
G37*
G36*
X052769D02*
X0524D01*
Y021181D01*
X052769D01*
Y02155D01*
D02*
G37*
G36*
X040035Y021464D02*
X039738D01*
Y021168D01*
X03978Y021173D01*
X039865Y021208D01*
X039938Y021265D01*
X039994Y021338D01*
X040029Y021423D01*
X040035Y021464D01*
D02*
G37*
G36*
X0333Y02155D02*
X032931D01*
Y021181D01*
X0333D01*
Y02155D01*
D02*
G37*
G36*
X0323D02*
X031934D01*
X031942Y021491D01*
X031984Y021389D01*
X032051Y021301D01*
X032139Y021234D01*
X032241Y021192D01*
X0323Y021184D01*
Y02155D01*
D02*
G37*
G36*
X051766D02*
X0514D01*
Y021184D01*
X051459Y021192D01*
X051561Y021234D01*
X051649Y021301D01*
X051716Y021389D01*
X051758Y021491D01*
X051766Y02155D01*
D02*
G37*
G36*
X048572Y021501D02*
X048276D01*
X048281Y02146D01*
X048317Y021375D01*
X048373Y021302D01*
X048446Y021245D01*
X048531Y02121D01*
X048572Y021205D01*
Y021501D01*
D02*
G37*
G36*
X032766Y02155D02*
X0324D01*
Y021184D01*
X032459Y021192D01*
X032561Y021234D01*
X032649Y021301D01*
X032716Y021389D01*
X032758Y021491D01*
X032766Y02155D01*
D02*
G37*
G36*
X0513D02*
X050934D01*
X050942Y021491D01*
X050984Y021389D01*
X051051Y021301D01*
X051139Y021234D01*
X051241Y021192D01*
X0513Y021184D01*
Y02155D01*
D02*
G37*
G36*
X04411Y057219D02*
X043731D01*
Y056839D01*
X043793Y056847D01*
X043899Y056891D01*
X043989Y05696D01*
X044058Y057051D01*
X044102Y057156D01*
X04411Y057219D01*
D02*
G37*
G36*
X043631D02*
X043251D01*
X043259Y057156D01*
X043303Y057051D01*
X043372Y05696D01*
X043462Y056891D01*
X043568Y056847D01*
X043631Y056839D01*
Y057219D01*
D02*
G37*
G36*
X036121Y057699D02*
Y057319D01*
X036501D01*
X036493Y057382D01*
X036449Y057487D01*
X03638Y057577D01*
X03629Y057647D01*
X036184Y05769D01*
X036121Y057699D01*
D02*
G37*
G36*
X036021D02*
X035958Y05769D01*
X035853Y057647D01*
X035763Y057577D01*
X035694Y057487D01*
X03565Y057382D01*
X035642Y057319D01*
X036021D01*
Y057699D01*
D02*
G37*
G36*
X041936Y057219D02*
X041557D01*
Y056839D01*
X041619Y056847D01*
X041725Y056891D01*
X041815Y05696D01*
X041884Y057051D01*
X041928Y057156D01*
X041936Y057219D01*
D02*
G37*
G36*
X041456D02*
X041077D01*
X041085Y057156D01*
X041129Y057051D01*
X041198Y05696D01*
X041288Y056891D01*
X041394Y056847D01*
X041456Y056839D01*
Y057219D01*
D02*
G37*
G36*
X043023D02*
X042643D01*
Y056839D01*
X042706Y056847D01*
X042812Y056891D01*
X042902Y05696D01*
X042971Y057051D01*
X043015Y057156D01*
X043023Y057219D01*
D02*
G37*
G36*
X042544D02*
X042164D01*
X042172Y057156D01*
X042216Y057051D01*
X042285Y05696D01*
X042375Y056891D01*
X042481Y056847D01*
X042544Y056839D01*
Y057219D01*
D02*
G37*
G36*
X039382Y057699D02*
Y057319D01*
X039762D01*
X039754Y057382D01*
X03971Y057487D01*
X039641Y057577D01*
X039551Y057647D01*
X039445Y05769D01*
X039382Y057699D01*
D02*
G37*
G36*
X039282D02*
X03922Y05769D01*
X039114Y057647D01*
X039024Y057577D01*
X038955Y057487D01*
X038911Y057382D01*
X038903Y057319D01*
X039282D01*
Y057699D01*
D02*
G37*
G36*
X0358Y05285D02*
X035458D01*
X035465Y052797D01*
X035505Y052701D01*
X035568Y052618D01*
X035651Y052555D01*
X035747Y052515D01*
X0358Y052508D01*
Y05285D01*
D02*
G37*
G36*
X040369Y057699D02*
X040307Y05769D01*
X040201Y057647D01*
X040111Y057577D01*
X040042Y057487D01*
X039998Y057382D01*
X03999Y057319D01*
X040369D01*
Y057699D01*
D02*
G37*
G36*
X037208D02*
Y057319D01*
X037588D01*
X03758Y057382D01*
X037536Y057487D01*
X037467Y057577D01*
X037377Y057647D01*
X037271Y05769D01*
X037208Y057699D01*
D02*
G37*
G36*
X037108D02*
X037046Y05769D01*
X03694Y057647D01*
X03685Y057577D01*
X036781Y057487D01*
X036737Y057382D01*
X036729Y057319D01*
X037108D01*
Y057699D01*
D02*
G37*
G36*
X038295D02*
Y057319D01*
X038675D01*
X038667Y057382D01*
X038623Y057487D01*
X038554Y057577D01*
X038464Y057647D01*
X038358Y05769D01*
X038295Y057699D01*
D02*
G37*
G36*
X038195D02*
X038133Y05769D01*
X038027Y057647D01*
X037937Y057577D01*
X037868Y057487D01*
X037824Y057382D01*
X037816Y057319D01*
X038195D01*
Y057699D01*
D02*
G37*
G36*
X048792Y05859D02*
X048688Y058577D01*
X04859Y058536D01*
X048507Y058472D01*
X048443Y058389D01*
X048402Y058291D01*
X048389Y058187D01*
X048402Y058083D01*
X048443Y057985D01*
X048507Y057902D01*
X04859Y057838D01*
X048688Y057797D01*
X048792Y057784D01*
X048843Y05779D01*
X048982Y057651D01*
Y056683D01*
X048045D01*
X048045Y056684D01*
D01*
X048042Y056733D01*
X048168Y05675D01*
X048297Y056804D01*
X048408Y056889D01*
X048494Y057D01*
X048548Y05713D01*
X048566Y057269D01*
X048548Y057408D01*
X048494Y057538D01*
X048408Y057649D01*
X048297Y057734D01*
X048168Y057788D01*
X048029Y057806D01*
X047889Y057788D01*
X04776Y057734D01*
X047649Y057649D01*
X047563Y057538D01*
X04751Y057409D01*
X04751D01*
Y057409D01*
X047461D01*
X04746D01*
D01*
D01*
Y057409D01*
D01*
X04746D01*
X047407Y057538D01*
X047321Y057649D01*
X04721Y057734D01*
X047081Y057788D01*
X046942Y057806D01*
X046802Y057788D01*
X046673Y057734D01*
X046562Y057649D01*
X046476Y057538D01*
X046423Y057409D01*
X046423D01*
Y057409D01*
X046374D01*
X046373D01*
D01*
D01*
Y057409D01*
D01*
X046373D01*
X04632Y057538D01*
X046234Y057649D01*
X046123Y057734D01*
X045994Y057788D01*
X045855Y057806D01*
X045715Y057788D01*
X045586Y057734D01*
X045475Y057649D01*
X045389Y057538D01*
X045336Y057409D01*
X045336D01*
Y057409D01*
X045286D01*
X045286D01*
D01*
D01*
Y057409D01*
D01*
X045286D01*
X045233Y057538D01*
X045147Y057649D01*
X045036Y057734D01*
X044907Y057788D01*
X044768Y057806D01*
X044628Y057788D01*
X044499Y057734D01*
X044388Y057649D01*
X044302Y057538D01*
X044249Y057408D01*
X04423Y057269D01*
X044249Y05713D01*
X044302Y057D01*
X044388Y056889D01*
X044499Y056804D01*
X044628Y05675D01*
X044768Y056732D01*
X044907Y05675D01*
X045036Y056804D01*
X045147Y056889D01*
X045233Y057D01*
X045286Y057129D01*
X045286D01*
Y057129D01*
X045336D01*
X045336D01*
D01*
D01*
Y057129D01*
D01*
X045336D01*
X045389Y057D01*
X045475Y056889D01*
X045586Y056804D01*
X045715Y05675D01*
X045855Y056732D01*
X045994Y05675D01*
X046123Y056804D01*
X046234Y056889D01*
X04632Y057D01*
X046373Y057129D01*
X046373D01*
Y057129D01*
X046423D01*
X046423D01*
D01*
D01*
Y057129D01*
D01*
X046423D01*
X046476Y057D01*
X046562Y056889D01*
X046673Y056804D01*
X046802Y05675D01*
X046942Y056732D01*
X047081Y05675D01*
X04721Y056804D01*
X047321Y056889D01*
X047407Y057D01*
X04746Y057129D01*
X04746D01*
Y057129D01*
X04751D01*
X04751D01*
D01*
D01*
Y057129D01*
D01*
X04751D01*
X047563Y057D01*
X047649Y056889D01*
X04776Y056804D01*
X047889Y05675D01*
X048029Y056732D01*
X048034Y056728D01*
X048039Y056683D01*
X048039D01*
Y056683D01*
X048039D01*
Y056333D01*
X04799Y056323D01*
X04795Y056419D01*
X047865Y056531D01*
X047754Y056616D01*
X047624Y05667D01*
X047485Y056688D01*
X047346Y05667D01*
X047216Y056616D01*
X047105Y056531D01*
X04702Y056419D01*
X046967Y056291D01*
X046966D01*
Y056291D01*
D01*
D01*
X046966D01*
X046917D01*
D01*
D01*
Y056291D01*
X046917D01*
X046863Y056419D01*
X046778Y056531D01*
X046667Y056616D01*
X046537Y05667D01*
X046398Y056688D01*
X046259Y05667D01*
X046129Y056616D01*
X046018Y056531D01*
X045933Y056419D01*
X04588Y056291D01*
X045879D01*
Y056291D01*
D01*
D01*
X045879D01*
X04583D01*
D01*
D01*
Y056291D01*
X04583D01*
X045776Y056419D01*
X045691Y056531D01*
X04558Y056616D01*
X04545Y05667D01*
X045311Y056688D01*
X045172Y05667D01*
X045042Y056616D01*
X044931Y056531D01*
X044846Y056419D01*
X044793Y056291D01*
X044792D01*
Y056291D01*
D01*
D01*
X044792D01*
X044743D01*
D01*
D01*
Y056291D01*
X044743D01*
X044689Y056419D01*
X044604Y056531D01*
X044493Y056616D01*
X044363Y05667D01*
X044224Y056688D01*
X044085Y05667D01*
X043955Y056616D01*
X043844Y056531D01*
X043759Y056419D01*
X043706Y056291D01*
X043705D01*
Y056291D01*
D01*
D01*
X043705D01*
X043656D01*
D01*
D01*
Y056291D01*
X043656D01*
X043602Y056419D01*
X043517Y056531D01*
X043406Y056616D01*
X043276Y05667D01*
X043137Y056688D01*
X042998Y05667D01*
X042868Y056616D01*
X042757Y056531D01*
X042672Y056419D01*
X042618Y056291D01*
X042618D01*
Y056291D01*
D01*
D01*
X042618D01*
X042569D01*
D01*
D01*
Y056291D01*
X042568D01*
X042515Y056419D01*
X04243Y056531D01*
X042319Y056616D01*
X042189Y05667D01*
X04205Y056688D01*
X041911Y05667D01*
X041781Y056616D01*
X04167Y056531D01*
X041585Y056419D01*
X041532Y056291D01*
X041531D01*
Y056291D01*
D01*
D01*
X041531D01*
X041482D01*
D01*
D01*
Y056291D01*
X041481D01*
X041428Y056419D01*
X041343Y056531D01*
X041232Y056616D01*
X041102Y05667D01*
X040963Y056688D01*
X040824Y05667D01*
X040694Y056616D01*
X040583Y056531D01*
X040498Y056419D01*
X040444Y056291D01*
X040444D01*
Y056291D01*
D01*
D01*
X040444D01*
X040395D01*
D01*
D01*
Y056291D01*
X040394D01*
X040341Y056419D01*
X040256Y056531D01*
X040145Y056616D01*
X040015Y05667D01*
X039876Y056688D01*
X039737Y05667D01*
X039607Y056616D01*
X039496Y056531D01*
X039411Y056419D01*
X039357Y056291D01*
X039357D01*
Y056291D01*
D01*
D01*
X039357D01*
X039308D01*
D01*
D01*
Y056291D01*
X039307D01*
X039254Y056419D01*
X039169Y056531D01*
X039058Y056616D01*
X038928Y05667D01*
X038789Y056688D01*
X03865Y05667D01*
X03852Y056616D01*
X038409Y056531D01*
X038324Y056419D01*
X03827Y056291D01*
X03827D01*
Y056291D01*
D01*
D01*
X03827D01*
X038221D01*
D01*
D01*
Y056291D01*
X03822D01*
X038167Y056419D01*
X038082Y056531D01*
X037971Y056616D01*
X037841Y05667D01*
X037702Y056688D01*
X037563Y05667D01*
X037433Y056616D01*
X037322Y056531D01*
X037237Y056419D01*
X037183Y056291D01*
X037183D01*
Y056291D01*
D01*
D01*
X037183D01*
X037134D01*
D01*
D01*
Y056291D01*
X037133D01*
X03708Y056419D01*
X036995Y056531D01*
X036884Y056616D01*
X036754Y05667D01*
X036615Y056688D01*
X036476Y05667D01*
X036346Y056616D01*
X036235Y056531D01*
X03615Y056419D01*
X036096Y056291D01*
X036096D01*
Y056291D01*
D01*
D01*
X036096D01*
X036047D01*
D01*
D01*
Y056291D01*
X036046D01*
X035993Y056419D01*
X035908Y056531D01*
X035797Y056616D01*
X035667Y05667D01*
X035528Y056688D01*
X035389Y05667D01*
X035259Y056616D01*
X035148Y056531D01*
X035063Y056419D01*
X035009Y05629D01*
X034991Y056151D01*
X035009Y056012D01*
X035063Y055882D01*
X035148Y055771D01*
X035259Y055686D01*
X035389Y055632D01*
X035528Y055614D01*
X035667Y055632D01*
X035797Y055686D01*
X035908Y055771D01*
X035993Y055882D01*
X036046Y056011D01*
X036047D01*
Y056011D01*
D01*
D01*
X036047D01*
X036096D01*
D01*
D01*
Y056011D01*
X036096D01*
X03615Y055882D01*
X036235Y055771D01*
X036346Y055686D01*
X036476Y055632D01*
X036615Y055614D01*
X036754Y055632D01*
X036884Y055686D01*
X036995Y055771D01*
X03708Y055882D01*
X037133Y056011D01*
X037134D01*
Y056011D01*
D01*
D01*
X037134D01*
X037183D01*
D01*
D01*
Y056011D01*
X037183D01*
X037237Y055882D01*
X037322Y055771D01*
X037433Y055686D01*
X037563Y055632D01*
X037702Y055614D01*
X037841Y055632D01*
X037971Y055686D01*
X038082Y055771D01*
X038167Y055882D01*
X03822Y056011D01*
X038221D01*
Y056011D01*
D01*
D01*
X038221D01*
X03827D01*
D01*
D01*
Y056011D01*
X03827D01*
X038324Y055882D01*
X038409Y055771D01*
X03852Y055686D01*
X03865Y055632D01*
X038789Y055614D01*
X038928Y055632D01*
X039058Y055686D01*
X039169Y055771D01*
X039254Y055882D01*
X039307Y056011D01*
X039308D01*
Y056011D01*
D01*
D01*
X039308D01*
X039357D01*
D01*
D01*
Y056011D01*
X039357D01*
X039411Y055882D01*
X039496Y055771D01*
X039607Y055686D01*
X039737Y055632D01*
X039876Y055614D01*
X040015Y055632D01*
X040145Y055686D01*
X040256Y055771D01*
X040341Y055882D01*
X040394Y056011D01*
X040395D01*
Y056011D01*
D01*
D01*
X040395D01*
X040444D01*
D01*
D01*
Y056011D01*
X040444D01*
X040498Y055882D01*
X040583Y055771D01*
X040694Y055686D01*
X040824Y055632D01*
X040963Y055614D01*
X041102Y055632D01*
X041232Y055686D01*
X041343Y055771D01*
X041428Y055882D01*
X041481Y056011D01*
X041482D01*
Y056011D01*
D01*
D01*
X041482D01*
X041531D01*
D01*
D01*
Y056011D01*
X041532D01*
X041585Y055882D01*
X04167Y055771D01*
X041781Y055686D01*
X041911Y055632D01*
X04205Y055614D01*
X042189Y055632D01*
X042319Y055686D01*
X04243Y055771D01*
X042515Y055882D01*
X042568Y056011D01*
X042569D01*
Y056011D01*
D01*
D01*
X042569D01*
X042618D01*
D01*
D01*
Y056011D01*
X042618D01*
X042672Y055882D01*
X042757Y055771D01*
X042868Y055686D01*
X042998Y055632D01*
X043137Y055614D01*
X043276Y055632D01*
X043406Y055686D01*
X043517Y055771D01*
X043602Y055882D01*
X043656Y056011D01*
X043656D01*
Y056011D01*
D01*
D01*
X043656D01*
X043705D01*
D01*
D01*
Y056011D01*
X043706D01*
X043759Y055882D01*
X043844Y055771D01*
X043955Y055686D01*
X044085Y055632D01*
X044224Y055614D01*
X044363Y055632D01*
X044493Y055686D01*
X044604Y055771D01*
X044689Y055882D01*
X044743Y056011D01*
X044743D01*
Y056011D01*
D01*
D01*
X044743D01*
X044792D01*
D01*
D01*
Y056011D01*
X044793D01*
X044846Y055882D01*
X044931Y055771D01*
X045042Y055686D01*
X045172Y055632D01*
X045311Y055614D01*
X04545Y055632D01*
X04558Y055686D01*
X045691Y055771D01*
X045776Y055882D01*
X04583Y056011D01*
X04583D01*
Y056011D01*
D01*
D01*
X04583D01*
X045879D01*
D01*
D01*
Y056011D01*
X04588D01*
X045933Y055882D01*
X046018Y055771D01*
X046129Y055686D01*
X046259Y055632D01*
X046398Y055614D01*
X046537Y055632D01*
X046667Y055686D01*
X046778Y055771D01*
X046863Y055882D01*
X046917Y056011D01*
X046917D01*
Y056011D01*
D01*
D01*
X046917D01*
X046966D01*
D01*
D01*
Y056011D01*
X046967D01*
X04702Y055882D01*
X047105Y055771D01*
X047216Y055686D01*
X047346Y055632D01*
X047485Y055614D01*
X047624Y055632D01*
X047754Y055686D01*
X047865Y055771D01*
X04795Y055882D01*
X04799Y055979D01*
X048039Y055969D01*
Y055618D01*
X049105D01*
Y05591D01*
X049164Y055922D01*
X049179Y055925D01*
X049258Y055978D01*
X0494Y056119D01*
X049453Y056199D01*
X049472Y056293D01*
Y057752D01*
X049456Y05783D01*
X049453Y057846D01*
X0494Y057925D01*
X049189Y058136D01*
X049196Y058187D01*
X049182Y058291D01*
X049142Y058389D01*
X049077Y058472D01*
X048994Y058536D01*
X048897Y058577D01*
X048792Y05859D01*
D02*
G37*
G36*
X05689Y057104D02*
X05661D01*
X056483Y057091D01*
X05636Y057054D01*
X056247Y056994D01*
X056148Y056912D01*
X056067Y056813D01*
X056006Y0567D01*
X055969Y056578D01*
X055956Y05645D01*
X055969Y056322D01*
X056006Y0562D01*
X056067Y056087D01*
X056148Y055988D01*
X056247Y055906D01*
X05636Y055846D01*
X056483Y055809D01*
X05661Y055796D01*
X05689D01*
X057017Y055809D01*
X05714Y055846D01*
X057253Y055906D01*
X057352Y055988D01*
X057433Y056087D01*
X057494Y0562D01*
X057531Y056322D01*
X057544Y05645D01*
X057531Y056578D01*
X057494Y0567D01*
X057433Y056813D01*
X057352Y056912D01*
X057253Y056994D01*
X05714Y057054D01*
X057017Y057091D01*
X05689Y057104D01*
D02*
G37*
G36*
X036501Y057219D02*
X036121D01*
Y056839D01*
X036184Y056847D01*
X03629Y056891D01*
X03638Y05696D01*
X036449Y057051D01*
X036493Y057156D01*
X036501Y057219D01*
D02*
G37*
G36*
X036021D02*
X035642D01*
X03565Y057156D01*
X035694Y057051D01*
X035763Y05696D01*
X035853Y056891D01*
X035958Y056847D01*
X036021Y056839D01*
Y057219D01*
D02*
G37*
G36*
X0358Y053292D02*
X035747Y053285D01*
X035651Y053245D01*
X035568Y053182D01*
X035505Y053099D01*
X035465Y053003D01*
X035458Y05295D01*
X0358D01*
Y053292D01*
D02*
G37*
G36*
X05689Y054104D02*
X05661D01*
X056483Y054091D01*
X05636Y054054D01*
X056247Y053994D01*
X056148Y053912D01*
X056067Y053813D01*
X056006Y0537D01*
X055969Y053578D01*
X055956Y05345D01*
X055969Y053322D01*
X056006Y0532D01*
X056067Y053087D01*
X056148Y052988D01*
X056247Y052906D01*
X05636Y052846D01*
X056483Y052809D01*
X05661Y052796D01*
X05689D01*
X057017Y052809D01*
X05714Y052846D01*
X057253Y052906D01*
X057352Y052988D01*
X057433Y053087D01*
X057494Y0532D01*
X057531Y053322D01*
X057544Y05345D01*
X057531Y053578D01*
X057494Y0537D01*
X057433Y053813D01*
X057352Y053912D01*
X057253Y053994D01*
X05714Y054054D01*
X057017Y054091D01*
X05689Y054104D01*
D02*
G37*
G36*
X051312Y05785D02*
X051134Y057836D01*
X05096Y057795D01*
X050794Y057726D01*
X050642Y057633D01*
X050506Y057516D01*
X050389Y05738D01*
X050296Y057228D01*
X050227Y057062D01*
X050186Y056888D01*
X050172Y05671D01*
X050186Y056531D01*
X050227Y056357D01*
X050296Y056192D01*
X050389Y056039D01*
X050506Y055903D01*
X050642Y055787D01*
X050794Y055694D01*
X05096Y055625D01*
X051134Y055583D01*
X051312Y055569D01*
X051491Y055583D01*
X051665Y055625D01*
X05183Y055694D01*
X051983Y055787D01*
X052119Y055903D01*
X052235Y056039D01*
X052328Y056192D01*
X052397Y056357D01*
X052439Y056531D01*
X052453Y05671D01*
X052439Y056888D01*
X052397Y057062D01*
X052328Y057228D01*
X052235Y05738D01*
X052119Y057516D01*
X051983Y057633D01*
X05183Y057726D01*
X051665Y057795D01*
X051491Y057836D01*
X051312Y05785D01*
D02*
G37*
G36*
X05689Y055604D02*
X05661D01*
X056483Y055591D01*
X05636Y055554D01*
X056247Y055494D01*
X056148Y055412D01*
X056067Y055313D01*
X056006Y0552D01*
X055969Y055078D01*
X055956Y05495D01*
X055969Y054822D01*
X056006Y0547D01*
X056067Y054587D01*
X056148Y054488D01*
X056247Y054406D01*
X05636Y054346D01*
X056483Y054309D01*
X05661Y054296D01*
X05689D01*
X057017Y054309D01*
X05714Y054346D01*
X057253Y054406D01*
X057352Y054488D01*
X057433Y054587D01*
X057494Y0547D01*
X057531Y054822D01*
X057544Y05495D01*
X057531Y055078D01*
X057494Y0552D01*
X057433Y055313D01*
X057352Y055412D01*
X057253Y055494D01*
X05714Y055554D01*
X057017Y055591D01*
X05689Y055604D01*
D02*
G37*
G36*
X039762Y057219D02*
X039382D01*
Y056839D01*
X039445Y056847D01*
X039551Y056891D01*
X039641Y05696D01*
X03971Y057051D01*
X039754Y057156D01*
X039762Y057219D01*
D02*
G37*
G36*
X039282D02*
X038903D01*
X038911Y057156D01*
X038955Y057051D01*
X039024Y05696D01*
X039114Y056891D01*
X03922Y056847D01*
X039282Y056839D01*
Y057219D01*
D02*
G37*
G36*
X040849D02*
X040469D01*
Y056839D01*
X040532Y056847D01*
X040638Y056891D01*
X040728Y05696D01*
X040797Y057051D01*
X040841Y057156D01*
X040849Y057219D01*
D02*
G37*
G36*
X040369D02*
X03999D01*
X039998Y057156D01*
X040042Y057051D01*
X040111Y05696D01*
X040201Y056891D01*
X040307Y056847D01*
X040369Y056839D01*
Y057219D01*
D02*
G37*
G36*
X037588D02*
X037208D01*
Y056839D01*
X037271Y056847D01*
X037377Y056891D01*
X037467Y05696D01*
X037536Y057051D01*
X03758Y057156D01*
X037588Y057219D01*
D02*
G37*
G36*
X037108D02*
X036729D01*
X036737Y057156D01*
X036781Y057051D01*
X03685Y05696D01*
X03694Y056891D01*
X037046Y056847D01*
X037108Y056839D01*
Y057219D01*
D02*
G37*
G36*
X038675D02*
X038295D01*
Y056839D01*
X038358Y056847D01*
X038464Y056891D01*
X038554Y05696D01*
X038623Y057051D01*
X038667Y057156D01*
X038675Y057219D01*
D02*
G37*
G36*
X038195D02*
X037816D01*
X037824Y057156D01*
X037868Y057051D01*
X037937Y05696D01*
X038027Y056891D01*
X038133Y056847D01*
X038195Y056839D01*
Y057219D01*
D02*
G37*
G36*
X0567Y062905D02*
X056514Y062886D01*
X056335Y062832D01*
X05617Y062744D01*
X056025Y062625D01*
X055906Y06248D01*
X055818Y062315D01*
X055764Y062136D01*
X055745Y06195D01*
X055764Y061764D01*
X055818Y061585D01*
X055906Y06142D01*
X056025Y061275D01*
X05617Y061156D01*
X056335Y061068D01*
X056514Y061014D01*
X0567Y060995D01*
X056886Y061014D01*
X057065Y061068D01*
X05723Y061156D01*
X057375Y061275D01*
X057494Y06142D01*
X057582Y061585D01*
X057636Y061764D01*
X057655Y06195D01*
X057636Y062136D01*
X057582Y062315D01*
X057494Y06248D01*
X057375Y062625D01*
X05723Y062744D01*
X057065Y062832D01*
X056886Y062886D01*
X0567Y062905D01*
D02*
G37*
G36*
X02855D02*
X028364Y062886D01*
X028185Y062832D01*
X02802Y062744D01*
X027875Y062625D01*
X027756Y06248D01*
X027668Y062315D01*
X027614Y062136D01*
X027595Y06195D01*
X027614Y061764D01*
X027668Y061585D01*
X027756Y06142D01*
X027875Y061275D01*
X02802Y061156D01*
X028185Y061068D01*
X028364Y061014D01*
X02855Y060995D01*
X028736Y061014D01*
X028915Y061068D01*
X02908Y061156D01*
X029225Y061275D01*
X029344Y06142D01*
X029432Y061585D01*
X029486Y061764D01*
X029505Y06195D01*
X029486Y062136D01*
X029432Y062315D01*
X029344Y06248D01*
X029225Y062625D01*
X02908Y062744D01*
X028915Y062832D01*
X028736Y062886D01*
X02855Y062905D01*
D02*
G37*
G36*
X043697Y04465D02*
X04325D01*
Y044276D01*
X04328D01*
X04339Y044291D01*
X043492Y044333D01*
X04358Y0444D01*
X043647Y044488D01*
X043689Y04459D01*
X043697Y04465D01*
D02*
G37*
G36*
X04315Y045124D02*
X04312D01*
X04301Y045109D01*
X042908Y045067D01*
X04282Y045D01*
X042753Y044912D01*
X042711Y04481D01*
X042703Y04475D01*
X04315D01*
Y045124D01*
D02*
G37*
G36*
X043731Y057699D02*
Y057319D01*
X04411D01*
X044102Y057382D01*
X044058Y057487D01*
X043989Y057577D01*
X043899Y057647D01*
X043793Y05769D01*
X043731Y057699D01*
D02*
G37*
G36*
X043631D02*
X043568Y05769D01*
X043462Y057647D01*
X043372Y057577D01*
X043303Y057487D01*
X043259Y057382D01*
X043251Y057319D01*
X043631D01*
Y057699D01*
D02*
G37*
G36*
X025537Y06308D02*
X023563D01*
Y06132D01*
X025537D01*
Y061897D01*
X025975D01*
X027736Y060136D01*
X027799Y060088D01*
X027872Y060058D01*
X02795Y060047D01*
X028675D01*
X029181Y059541D01*
X029162Y059495D01*
X02908D01*
Y059515D01*
X028815Y05978D01*
X028285D01*
X02805Y059545D01*
X027815Y05978D01*
X027716D01*
X027123Y060373D01*
X027044Y060426D01*
X027028Y060429D01*
X02695Y060445D01*
X025503D01*
X025474Y060538D01*
X025393Y060691D01*
X025283Y060825D01*
X025149Y060935D01*
X024996Y061017D01*
X02483Y061067D01*
X024657Y061084D01*
X024443D01*
X02427Y061067D01*
X024104Y061017D01*
X023951Y060935D01*
X023817Y060825D01*
X023707Y060691D01*
X023626Y060538D01*
X023575Y060372D01*
X023558Y0602D01*
X023575Y060028D01*
X023626Y059862D01*
X023707Y059709D01*
X023817Y059575D01*
X023951Y059465D01*
X024104Y059383D01*
X02427Y059333D01*
X024443Y059316D01*
X024657D01*
X02483Y059333D01*
X024996Y059383D01*
X025149Y059465D01*
X025283Y059575D01*
X025393Y059709D01*
X025474Y059862D01*
X025503Y059955D01*
X026849D01*
X027154Y059649D01*
X02702Y059515D01*
Y058985D01*
X027285Y05872D01*
X027355D01*
Y05855D01*
X027371Y058472D01*
X027374Y058456D01*
X027427Y058377D01*
X027827Y057977D01*
X02788Y057942D01*
X027906Y057924D01*
X028Y057905D01*
X028884D01*
X028915Y057865D01*
X028998Y057801D01*
X029096Y05776D01*
X0292Y057747D01*
X029304Y05776D01*
X029402Y057801D01*
X02941Y057807D01*
X029455Y057785D01*
Y057156D01*
X029409Y057137D01*
X029173Y057373D01*
X029094Y057426D01*
X02908Y057429D01*
Y057465D01*
X028815Y05773D01*
X028285D01*
X02805Y057495D01*
X027815Y05773D01*
X02738D01*
X02673Y05838D01*
X026648Y058436D01*
X02655Y058455D01*
X0255D01*
X025474Y058538D01*
X025393Y058691D01*
X025283Y058825D01*
X025149Y058935D01*
X024996Y059017D01*
X02483Y059067D01*
X024657Y059084D01*
X024443D01*
X02427Y059067D01*
X024104Y059017D01*
X023951Y058935D01*
X023817Y058825D01*
X023707Y058691D01*
X023626Y058538D01*
X023575Y058372D01*
X023558Y0582D01*
X023575Y058028D01*
X023626Y057862D01*
X023707Y057709D01*
X023817Y057575D01*
X023951Y057465D01*
X024104Y057383D01*
X02427Y057333D01*
X024443Y057316D01*
X024657D01*
X02483Y057333D01*
X024996Y057383D01*
X025149Y057465D01*
X025283Y057575D01*
X025393Y057709D01*
X025474Y057862D01*
X0255Y057945D01*
X026444D01*
X02702Y05737D01*
Y056935D01*
X027285Y05667D01*
X027815D01*
X02805Y056905D01*
X028285Y05667D01*
X028815D01*
X028959Y056814D01*
X029005Y056795D01*
Y05575D01*
X029021Y055672D01*
X029024Y055656D01*
X029077Y055577D01*
X029427Y055227D01*
X029506Y055174D01*
X0296Y055155D01*
X030109D01*
X030115Y055143D01*
X030196Y055036D01*
X030303Y054955D01*
X030374Y054925D01*
Y054875D01*
X030303Y054845D01*
X030196Y054764D01*
X030115Y054657D01*
X030109Y054645D01*
X029751D01*
X02908Y055316D01*
Y055465D01*
X028815Y05573D01*
X028285D01*
X02805Y055495D01*
X027815Y05573D01*
X027666D01*
X027023Y056373D01*
X026944Y056426D01*
X026928Y056429D01*
X02685Y056445D01*
X025503D01*
X025474Y056538D01*
X025393Y056691D01*
X025283Y056825D01*
X025149Y056935D01*
X024996Y057017D01*
X02483Y057067D01*
X024657Y057084D01*
X024443D01*
X02427Y057067D01*
X024104Y057017D01*
X023951Y056935D01*
X023817Y056825D01*
X023707Y056691D01*
X023626Y056538D01*
X023575Y056372D01*
X023558Y0562D01*
X023575Y056028D01*
X023626Y055862D01*
X023707Y055709D01*
X023817Y055575D01*
X023951Y055465D01*
X024104Y055383D01*
X02427Y055333D01*
X024443Y055316D01*
X024657D01*
X02483Y055333D01*
X024996Y055383D01*
X025149Y055465D01*
X025283Y055575D01*
X025393Y055709D01*
X025474Y055862D01*
X025503Y055955D01*
X026749D01*
X027129Y055574D01*
X02702Y055465D01*
Y054935D01*
X027285Y05467D01*
X027815D01*
X02805Y054905D01*
X028285Y05467D01*
X028815D01*
X028899Y054754D01*
X028949D01*
X029477Y054227D01*
X029556Y054174D01*
X029556Y054174D01*
X029556Y054174D01*
D01*
X029556Y054174D01*
X029556Y054174D01*
X02965Y054155D01*
X030109D01*
X030115Y054143D01*
X030196Y054036D01*
X030303Y053955D01*
X030374Y053925D01*
Y053875D01*
X030303Y053845D01*
X030196Y053764D01*
X030115Y053657D01*
X030063Y053533D01*
X030046Y0534D01*
X030041Y053395D01*
X02908D01*
Y053415D01*
X028815Y05368D01*
X028285D01*
X02805Y053445D01*
X027815Y05368D01*
X027716D01*
X027023Y054373D01*
X026944Y054426D01*
X026928Y054429D01*
X02685Y054445D01*
X025503D01*
X025474Y054538D01*
X025393Y054691D01*
X025283Y054825D01*
X025149Y054935D01*
X024996Y055017D01*
X02483Y055067D01*
X024657Y055084D01*
X024443D01*
X02427Y055067D01*
X024104Y055017D01*
X023951Y054935D01*
X023817Y054825D01*
X023707Y054691D01*
X023626Y054538D01*
X023575Y054372D01*
X023558Y0542D01*
X023575Y054028D01*
X023626Y053862D01*
X023707Y053709D01*
X023817Y053575D01*
X023951Y053465D01*
X024104Y053383D01*
X02427Y053333D01*
X024443Y053316D01*
X024657D01*
X02483Y053333D01*
X024996Y053383D01*
X025149Y053465D01*
X025283Y053575D01*
X025393Y053709D01*
X025474Y053862D01*
X025503Y053955D01*
X026749D01*
X027154Y053549D01*
X02702Y053415D01*
Y052885D01*
X027285Y05262D01*
X027815D01*
X02805Y052855D01*
X028285Y05262D01*
X028815D01*
X02908Y052885D01*
Y052905D01*
X0303D01*
X030378Y052921D01*
X030382Y052922D01*
X030427Y052903D01*
X03056Y052886D01*
X03084D01*
X030973Y052903D01*
X031056Y052937D01*
X031098Y05291D01*
Y05111D01*
X03005D01*
Y050882D01*
X0296D01*
X029527Y050873D01*
X029499Y050861D01*
X029459Y050845D01*
X0294Y0508D01*
X028633Y050032D01*
X025487D01*
Y05063D01*
X023513D01*
Y04887D01*
X025487D01*
Y049468D01*
X02875D01*
X028823Y049477D01*
X028843Y049485D01*
X028891Y049505D01*
X02895Y04955D01*
X029717Y050318D01*
X03005D01*
Y05009D01*
X030283D01*
X030299Y050043D01*
X030196Y049964D01*
X030115Y049857D01*
X030109Y049845D01*
X02955D01*
X029456Y049826D01*
X029377Y049773D01*
X028377Y048773D01*
X028324Y048694D01*
X028321Y048678D01*
X028305Y0486D01*
Y04828D01*
X028285D01*
X02805Y048045D01*
X027815Y04828D01*
X027285D01*
X02702Y048015D01*
Y047995D01*
X025453D01*
X025424Y048088D01*
X025343Y048241D01*
X025233Y048375D01*
X025099Y048485D01*
X024946Y048567D01*
X02478Y048617D01*
X024607Y048634D01*
X024393D01*
X02422Y048617D01*
X024054Y048567D01*
X023901Y048485D01*
X023767Y048375D01*
X023657Y048241D01*
X023576Y048088D01*
X023525Y047922D01*
X023508Y04775D01*
X023525Y047578D01*
X023576Y047412D01*
X023657Y047259D01*
X023767Y047125D01*
X023901Y047015D01*
X024054Y046933D01*
X02422Y046883D01*
X024393Y046866D01*
X024607D01*
X02478Y046883D01*
X024946Y046933D01*
X025099Y047015D01*
X025233Y047125D01*
X025343Y047259D01*
X025424Y047412D01*
X025453Y047505D01*
X02702D01*
Y047485D01*
X027285Y04722D01*
X027815D01*
X02805Y047455D01*
X028285Y04722D01*
X028815D01*
X028909Y047314D01*
X028955Y047295D01*
Y046255D01*
X028909Y046236D01*
X028815Y04633D01*
X028285D01*
X02805Y046095D01*
X027815Y04633D01*
X027285D01*
X02702Y046065D01*
Y045995D01*
X025453D01*
X025424Y046088D01*
X025343Y046241D01*
X025233Y046375D01*
X025099Y046485D01*
X024946Y046567D01*
X02478Y046617D01*
X024607Y046634D01*
X024393D01*
X02422Y046617D01*
X024054Y046567D01*
X023901Y046485D01*
X023767Y046375D01*
X023657Y046241D01*
X023576Y046088D01*
X023525Y045922D01*
X023508Y04575D01*
X023525Y045578D01*
X023576Y045412D01*
X023657Y045259D01*
X023767Y045125D01*
X023901Y045015D01*
X024054Y044933D01*
X02422Y044883D01*
X024393Y044866D01*
X024607D01*
X02478Y044883D01*
X024946Y044933D01*
X025099Y045015D01*
X025233Y045125D01*
X025343Y045259D01*
X025424Y045412D01*
X025453Y045505D01*
X02705D01*
X027285Y04527D01*
X027815D01*
X02805Y045505D01*
X028285Y04527D01*
X028815D01*
X02908Y045535D01*
Y045634D01*
X029209Y045763D01*
X029255Y045744D01*
Y044351D01*
X029049Y044146D01*
X028999D01*
X028815Y04433D01*
X028285D01*
X02805Y044095D01*
X027815Y04433D01*
X027285D01*
X02702Y044065D01*
Y043995D01*
X025453D01*
X025424Y044088D01*
X025343Y044241D01*
X025233Y044375D01*
X025099Y044485D01*
X024946Y044567D01*
X02478Y044617D01*
X024607Y044634D01*
X024393D01*
X02422Y044617D01*
X024054Y044567D01*
X023901Y044485D01*
X023767Y044375D01*
X023657Y044241D01*
X023576Y044088D01*
X023525Y043922D01*
X023508Y04375D01*
X023525Y043578D01*
X023576Y043412D01*
X023657Y043259D01*
X023767Y043125D01*
X023901Y043015D01*
X024054Y042933D01*
X02422Y042883D01*
X024393Y042866D01*
X024607D01*
X02478Y042883D01*
X024946Y042933D01*
X025099Y043015D01*
X025233Y043125D01*
X025343Y043259D01*
X025424Y043412D01*
X025453Y043505D01*
X02705D01*
X027285Y04327D01*
X027815D01*
X02805Y043505D01*
X028285Y04327D01*
X028815D01*
X02908Y043535D01*
Y043561D01*
X029128Y043571D01*
X029144Y043574D01*
X029223Y043627D01*
X029509Y043913D01*
X029555Y043894D01*
Y042401D01*
X029199Y042045D01*
X02908D01*
Y042065D01*
X028815Y04233D01*
X028285D01*
X02805Y042095D01*
X027815Y04233D01*
X027285D01*
X02702Y042065D01*
Y041995D01*
X025453D01*
X025424Y042088D01*
X025343Y042241D01*
X025233Y042375D01*
X025099Y042485D01*
X024946Y042567D01*
X02478Y042617D01*
X024607Y042634D01*
X024393D01*
X02422Y042617D01*
X024054Y042567D01*
X023901Y042485D01*
X023767Y042375D01*
X023657Y042241D01*
X023576Y042088D01*
X023525Y041922D01*
X023508Y04175D01*
X023525Y041578D01*
X023576Y041412D01*
X023657Y041259D01*
X023767Y041125D01*
X023901Y041015D01*
X024054Y040933D01*
X02422Y040883D01*
X024393Y040866D01*
X024607D01*
X02478Y040883D01*
X024946Y040933D01*
X024962Y040942D01*
X025505Y040399D01*
Y03975D01*
X025521Y039672D01*
X025524Y039656D01*
X025577Y039577D01*
X026377Y038777D01*
X026456Y038724D01*
X02655Y038705D01*
X03005D01*
Y03866D01*
X03005D01*
Y038553D01*
X027D01*
X027Y038553D01*
X026896Y03854D01*
X026798Y038499D01*
X026715Y038435D01*
X026715Y038435D01*
X025833Y037553D01*
X025537D01*
Y03803D01*
X023563D01*
Y03627D01*
X025537D01*
Y036747D01*
X026D01*
X026Y036747D01*
X026104Y03676D01*
X026202Y036801D01*
X026285Y036865D01*
X027167Y037747D01*
X027941D01*
X02796Y0377D01*
X027377Y037117D01*
X027324Y037038D01*
X027321Y037022D01*
X027305Y036944D01*
Y03568D01*
X027285D01*
X02702Y035415D01*
Y035395D01*
X025503D01*
X025474Y035488D01*
X025393Y035641D01*
X025283Y035775D01*
X025149Y035885D01*
X024996Y035967D01*
X02483Y036017D01*
X024657Y036034D01*
X024443D01*
X02427Y036017D01*
X024104Y035967D01*
X023951Y035885D01*
X023817Y035775D01*
X023707Y035641D01*
X023626Y035488D01*
X023575Y035322D01*
X023558Y03515D01*
X023575Y034978D01*
X023626Y034812D01*
X023707Y034659D01*
X023817Y034525D01*
X023951Y034415D01*
X024104Y034333D01*
X02427Y034283D01*
X024443Y034266D01*
X024657D01*
X02483Y034283D01*
X024996Y034333D01*
X025149Y034415D01*
X025283Y034525D01*
X025393Y034659D01*
X025474Y034812D01*
X025503Y034905D01*
X02702D01*
Y034885D01*
X027285Y03462D01*
X027815D01*
X02805Y034855D01*
X028285Y03462D01*
X028565D01*
X028584Y034574D01*
X028377Y034367D01*
X028324Y034287D01*
X028321Y034272D01*
X028305Y034194D01*
Y03368D01*
X028285D01*
X02805Y033445D01*
X027815Y03368D01*
X027285D01*
X02702Y033415D01*
Y033395D01*
X025503D01*
X025474Y033488D01*
X025393Y033641D01*
X025283Y033775D01*
X025149Y033885D01*
X024996Y033967D01*
X02483Y034017D01*
X024657Y034034D01*
X024443D01*
X02427Y034017D01*
X024104Y033967D01*
X023951Y033885D01*
X023817Y033775D01*
X023707Y033641D01*
X023626Y033488D01*
X023575Y033322D01*
X023558Y03315D01*
X023575Y032978D01*
X023626Y032812D01*
X023707Y032659D01*
X023817Y032525D01*
X023951Y032415D01*
X024104Y032333D01*
X02427Y032283D01*
X024443Y032266D01*
X024657D01*
X02483Y032283D01*
X024996Y032333D01*
X025149Y032415D01*
X025283Y032525D01*
X025393Y032659D01*
X025474Y032812D01*
X025503Y032905D01*
X02702D01*
Y032885D01*
X027285Y03262D01*
X027313D01*
X027321Y03258D01*
X027324Y032564D01*
X027377Y032485D01*
X027683Y032179D01*
X027763Y032125D01*
X027778Y032122D01*
X027856Y032107D01*
X028664D01*
X0287Y032114D01*
X028724Y03207D01*
X028377Y031723D01*
X028348Y03168D01*
X028285D01*
X02805Y031445D01*
X027815Y03168D01*
X027285D01*
X02702Y031415D01*
Y031395D01*
X025503D01*
X025474Y031488D01*
X025393Y031641D01*
X025283Y031775D01*
X025149Y031885D01*
X024996Y031967D01*
X02483Y032017D01*
X024657Y032034D01*
X024443D01*
X02427Y032017D01*
X024104Y031967D01*
X023951Y031885D01*
X023817Y031775D01*
X023707Y031641D01*
X023626Y031488D01*
X023575Y031322D01*
X023558Y03115D01*
X023575Y030978D01*
X023626Y030812D01*
X023707Y030659D01*
X023817Y030525D01*
X023951Y030415D01*
X024104Y030333D01*
X02427Y030283D01*
X024443Y030266D01*
X024657D01*
X02483Y030283D01*
X024996Y030333D01*
X025149Y030415D01*
X025283Y030525D01*
X025393Y030659D01*
X025474Y030812D01*
X025503Y030905D01*
X02702D01*
Y030885D01*
X027285Y03062D01*
X027815D01*
X02805Y030855D01*
X028285Y03062D01*
X028559D01*
X028578Y030574D01*
X028377Y030373D01*
X028324Y030294D01*
X028321Y030278D01*
X028305Y0302D01*
Y02968D01*
X028285D01*
X02805Y029445D01*
X027815Y02968D01*
X027285D01*
X02702Y029415D01*
Y029395D01*
X025503D01*
X025474Y029488D01*
X025393Y029641D01*
X025283Y029775D01*
X025149Y029885D01*
X024996Y029967D01*
X02483Y030017D01*
X024657Y030034D01*
X024443D01*
X02427Y030017D01*
X024104Y029967D01*
X023951Y029885D01*
X023817Y029775D01*
X023707Y029641D01*
X023626Y029488D01*
X023575Y029322D01*
X023558Y02915D01*
X023575Y028978D01*
X023626Y028812D01*
X023707Y028659D01*
X023817Y028525D01*
X023951Y028415D01*
X024104Y028333D01*
X02427Y028283D01*
X024443Y028266D01*
X024657D01*
X02483Y028283D01*
X024996Y028333D01*
X025149Y028415D01*
X025283Y028525D01*
X025393Y028659D01*
X025474Y028812D01*
X025503Y028905D01*
X02702D01*
Y028885D01*
X027285Y02862D01*
X027815D01*
X02805Y028855D01*
X028285Y02862D01*
X028559D01*
X028578Y028574D01*
X028399Y028395D01*
X02785D01*
X027772Y028379D01*
X027756Y028376D01*
X027677Y028323D01*
X027377Y028023D01*
X027324Y027944D01*
X027321Y027928D01*
X027305Y02785D01*
Y02768D01*
X027285D01*
X02702Y027415D01*
Y027395D01*
X025503D01*
X025474Y027488D01*
X025393Y027641D01*
X025283Y027775D01*
X025149Y027885D01*
X024996Y027967D01*
X02483Y028017D01*
X024657Y028034D01*
X024443D01*
X02427Y028017D01*
X024104Y027967D01*
X023951Y027885D01*
X023817Y027775D01*
X023707Y027641D01*
X023626Y027488D01*
X023575Y027322D01*
X023558Y02715D01*
X023575Y026978D01*
X023626Y026812D01*
X023707Y026659D01*
X023817Y026525D01*
X023951Y026415D01*
X024104Y026333D01*
X02427Y026283D01*
X024443Y026266D01*
X024657D01*
X02483Y026283D01*
X024996Y026333D01*
X025149Y026415D01*
X025283Y026525D01*
X025393Y026659D01*
X025474Y026812D01*
X025503Y026905D01*
X02702D01*
Y026885D01*
X027285Y02662D01*
X027815D01*
X02805Y026855D01*
X028285Y02662D01*
X028815D01*
X02908Y026885D01*
Y027415D01*
X028815Y02768D01*
X028285D01*
X02805Y027445D01*
X027815Y02768D01*
X027795D01*
Y027749D01*
X027951Y027905D01*
X0285D01*
X028578Y027921D01*
X028594Y027924D01*
X028673Y027977D01*
X02888Y028184D01*
X028922Y028156D01*
X028918Y028147D01*
X028904Y028043D01*
X028918Y027938D01*
X028958Y027841D01*
X029022Y027757D01*
X029106Y027693D01*
X029203Y027653D01*
X029307Y027639D01*
X029412Y027653D01*
X029509Y027693D01*
X029593Y027757D01*
X029624Y027798D01*
X031181D01*
X031191Y027749D01*
X031123Y027721D01*
X031039Y027656D01*
X030975Y027573D01*
X030935Y027476D01*
X030921Y027371D01*
X030935Y027267D01*
X030975Y027169D01*
X031039Y027086D01*
X031123Y027022D01*
X031166Y027004D01*
Y026766D01*
X030905Y026504D01*
X03089Y026516D01*
X030793Y026556D01*
X030689Y02657D01*
X030584Y026556D01*
X030487Y026516D01*
X030403Y026452D01*
X030339Y026368D01*
X030299Y026271D01*
X030285Y026166D01*
X030299Y026062D01*
X030339Y025965D01*
X030403Y025881D01*
X030487Y025817D01*
X030584Y025777D01*
X030689Y025763D01*
X030793Y025777D01*
X03089Y025817D01*
X030974Y025881D01*
X030977Y025885D01*
X031039Y025893D01*
X031059Y025902D01*
X031107Y025922D01*
X031166Y025967D01*
X031648Y026449D01*
X031693Y026508D01*
X031713Y026556D01*
X031722Y026576D01*
X031731Y026649D01*
Y026957D01*
X031777Y026977D01*
X031827Y026927D01*
X031893Y026883D01*
X031897Y026862D01*
X031844Y026735D01*
X031827Y0266D01*
X031844Y026465D01*
X031897Y026338D01*
X03198Y02623D01*
X032088Y026147D01*
X032141Y026125D01*
Y026075D01*
X032088Y026053D01*
X03198Y02597D01*
X031897Y025862D01*
X031844Y025735D01*
X031827Y0256D01*
X031844Y025465D01*
X031897Y025338D01*
X03198Y02523D01*
X032088Y025147D01*
X032141Y025125D01*
Y025075D01*
X032088Y025053D01*
X03198Y02497D01*
X031897Y024862D01*
X031844Y024735D01*
X031827Y0246D01*
X031844Y024465D01*
X031897Y024338D01*
X03198Y02423D01*
X032088Y024147D01*
X032141Y024125D01*
Y024075D01*
X032088Y024053D01*
X03198Y02397D01*
X031897Y023862D01*
X031844Y023735D01*
X031827Y0236D01*
X031844Y023465D01*
X031897Y023338D01*
X03198Y02323D01*
X032088Y023147D01*
X032141Y023125D01*
Y023075D01*
X032088Y023053D01*
X03198Y02297D01*
X031897Y022862D01*
X031844Y022735D01*
X031827Y0226D01*
X031844Y022465D01*
X031897Y022338D01*
X03198Y02223D01*
X032088Y022147D01*
X032215Y022094D01*
X03235Y022077D01*
X032485Y022094D01*
X032612Y022147D01*
X03272Y02223D01*
X032803Y022338D01*
X032825Y022391D01*
X032875D01*
X032897Y022338D01*
X03298Y02223D01*
X033088Y022147D01*
X033215Y022094D01*
X03335Y022077D01*
X033485Y022094D01*
X033612Y022147D01*
X03372Y02223D01*
X033758Y022279D01*
X033805Y022263D01*
Y022019D01*
X033769D01*
Y022019D01*
X0334D01*
Y0216D01*
Y021181D01*
X033769D01*
Y021181D01*
X03377D01*
X033805Y021146D01*
Y020931D01*
X033801Y02093D01*
X033717Y020866D01*
X033653Y020782D01*
X033613Y020685D01*
X033599Y02058D01*
X033613Y020476D01*
X033653Y020379D01*
X033717Y020295D01*
X033801Y020231D01*
X033898Y020191D01*
X034003Y020177D01*
X034107Y020191D01*
X034204Y020231D01*
X034288Y020295D01*
X034352Y020379D01*
X034392Y020476D01*
X034406Y02058D01*
X034392Y020685D01*
X034352Y020782D01*
X034295Y020857D01*
Y023669D01*
X034279Y023747D01*
X034276Y023763D01*
X034223Y023842D01*
X034189Y023876D01*
X034205Y023924D01*
X034269Y023932D01*
X034366Y023972D01*
X03445Y024036D01*
X034481Y024077D01*
X035185D01*
X035264Y024093D01*
X035279Y024096D01*
X035359Y024149D01*
X036049Y02484D01*
X037351D01*
X037931Y024259D01*
X037946Y024187D01*
X037867Y024134D01*
X037567Y023834D01*
X037514Y023755D01*
X037511Y023739D01*
X037495Y023661D01*
Y023333D01*
X037511Y023255D01*
X037514Y02324D01*
X037567Y02316D01*
X038348Y022379D01*
X038341Y022328D01*
X038355Y022224D01*
X038395Y022127D01*
X03846Y022043D01*
X038543Y021979D01*
X03864Y021939D01*
X038745Y021925D01*
X038849Y021939D01*
X038947Y021979D01*
X03903Y022043D01*
X039094Y022127D01*
X039135Y022224D01*
X039148Y022328D01*
X039135Y022433D01*
X039094Y02253D01*
X03903Y022614D01*
X038947Y022678D01*
X038849Y022718D01*
X038745Y022732D01*
X038694Y022725D01*
X038364Y023055D01*
X038387Y0231D01*
X038401Y023098D01*
X038506Y023111D01*
X038603Y023152D01*
X038686Y023216D01*
X038749Y023298D01*
X038795Y023328D01*
X039597Y02413D01*
X039643Y024111D01*
Y02355D01*
X039659Y023472D01*
X039662Y023456D01*
X039715Y023377D01*
X040012Y02308D01*
X040004Y02306D01*
X03999Y022955D01*
X040004Y022851D01*
X040044Y022753D01*
X040108Y02267D01*
X040192Y022606D01*
X040289Y022565D01*
X040393Y022552D01*
X040498Y022565D01*
X040595Y022606D01*
X040601Y02261D01*
X040646Y022588D01*
Y022303D01*
X040655Y02223D01*
X040663Y02221D01*
X040683Y022162D01*
X040728Y022103D01*
X042233Y020598D01*
X042211Y020554D01*
X042209Y020554D01*
Y020257D01*
X042505D01*
X042505Y02026D01*
X04255Y020282D01*
X042825Y020007D01*
X042821Y019978D01*
X042835Y019874D01*
X042875Y019776D01*
X042939Y019693D01*
X043023Y019629D01*
X04312Y019588D01*
X043224Y019575D01*
X043253Y019578D01*
X04569Y017142D01*
X04567Y017096D01*
X043267D01*
X042745Y017618D01*
X042752Y017669D01*
X042738Y017773D01*
X042698Y017871D01*
X042634Y017954D01*
X04255Y018018D01*
X042453Y018059D01*
X042348Y018072D01*
X042244Y018059D01*
X042147Y018018D01*
X042063Y017954D01*
X041999Y017871D01*
X041959Y017773D01*
X041958Y017765D01*
X04191Y017749D01*
X040645Y019014D01*
X040566Y019067D01*
X04055Y019071D01*
X040472Y019086D01*
X038943D01*
X038868Y019071D01*
X038849Y019067D01*
X03877Y019014D01*
X038624Y018868D01*
X038573Y018875D01*
X038468Y018861D01*
X038371Y018821D01*
X038288Y018757D01*
X038223Y018673D01*
X038183Y018576D01*
X038169Y018471D01*
X038183Y018367D01*
X038223Y01827D01*
X038288Y018186D01*
X038321Y01816D01*
Y01781D01*
X038006Y017495D01*
X032366D01*
X032335Y017535D01*
X032252Y017599D01*
X032154Y01764D01*
X03205Y017653D01*
X031946Y01764D01*
X031848Y017599D01*
X031765Y017535D01*
X031701Y017452D01*
X03166Y017354D01*
X031647Y01725D01*
X031648Y017237D01*
X031613Y017202D01*
X0316Y017203D01*
X031496Y01719D01*
X031398Y017149D01*
X031376Y017132D01*
X0313D01*
X031227Y017123D01*
X031207Y017115D01*
X031159Y017095D01*
X0311Y01705D01*
X0308Y01675D01*
X030755Y016691D01*
X030735Y016643D01*
X030727Y016623D01*
X030718Y01655D01*
Y0148D01*
X030727Y014727D01*
X030735Y014707D01*
X030755Y014659D01*
X0308Y0146D01*
X0311Y0143D01*
X031159Y014255D01*
X031207Y014235D01*
X031227Y014227D01*
X0313Y014218D01*
X031363D01*
X031365Y014215D01*
X031448Y014151D01*
X031546Y01411D01*
X03165Y014097D01*
X031654Y014097D01*
X03259Y013161D01*
X032649Y013116D01*
X032697Y013096D01*
X032717Y013087D01*
X03279Y013078D01*
X033398D01*
X033401Y013075D01*
X033484Y013011D01*
X033581Y012971D01*
X033686Y012957D01*
X03379Y012971D01*
X033888Y013011D01*
X033971Y013075D01*
X034035Y013159D01*
X034076Y013256D01*
X034089Y01336D01*
X034076Y013465D01*
X034035Y013562D01*
X033971Y013646D01*
X033888Y01371D01*
X03379Y01375D01*
X033686Y013764D01*
X033581Y01375D01*
X033484Y01371D01*
X033401Y013646D01*
X033398Y013643D01*
X032907D01*
X032053Y014496D01*
X032053Y0145D01*
X03204Y014604D01*
X031999Y014702D01*
X031935Y014785D01*
X031852Y014849D01*
X031754Y01489D01*
X03165Y014903D01*
X031546Y01489D01*
X031448Y014849D01*
X031393Y014807D01*
X031282Y014917D01*
Y016433D01*
X031343Y016493D01*
X031398Y016451D01*
X031496Y01641D01*
X0316Y016397D01*
X031704Y01641D01*
X031802Y016451D01*
X031885Y016515D01*
X031949Y016598D01*
X03199Y016696D01*
X032003Y0168D01*
X032002Y016813D01*
X032037Y016848D01*
X03205Y016847D01*
X032154Y01686D01*
X032252Y016901D01*
X032335Y016965D01*
X032366Y017005D01*
X036091D01*
X0361Y016956D01*
X036046Y016934D01*
X035962Y01687D01*
X035907Y016798D01*
X033103D01*
X033025Y016782D01*
X03301Y016779D01*
X03293Y016726D01*
X032151Y015947D01*
X0321Y015953D01*
X031996Y01594D01*
X031898Y015899D01*
X031815Y015835D01*
X031751Y015752D01*
X03171Y015654D01*
X031697Y01555D01*
X03171Y015446D01*
X031751Y015348D01*
X031815Y015265D01*
X031898Y015201D01*
X031996Y01516D01*
X0321Y015147D01*
X032204Y01516D01*
X032302Y015201D01*
X032385Y015265D01*
X032449Y015348D01*
X03249Y015446D01*
X032503Y01555D01*
X032497Y015601D01*
X032551Y015655D01*
X032598Y015639D01*
X03261Y015546D01*
X032651Y015448D01*
X032715Y015365D01*
X032798Y015301D01*
X032896Y01526D01*
X033Y015247D01*
X033104Y01526D01*
X033202Y015301D01*
X033285Y015365D01*
X033349Y015448D01*
X03339Y015546D01*
X033403Y01565D01*
X033397Y015701D01*
X033472Y015776D01*
X033514Y015748D01*
X03348Y015667D01*
X033465Y01555D01*
X03348Y015433D01*
X033526Y015323D01*
X033598Y015229D01*
X033692Y015157D01*
X033801Y015112D01*
X033919Y015096D01*
X034036Y015112D01*
X034146Y015157D01*
X03424Y015229D01*
X034298Y015305D01*
X0356D01*
X035616Y015258D01*
X03556Y015215D01*
X035504Y015142D01*
X035469Y015057D01*
X035463Y015015D01*
X036156D01*
X036151Y015057D01*
X036116Y015142D01*
X036059Y015215D01*
X036003Y015258D01*
X03602Y015305D01*
X039814D01*
X039867Y015236D01*
X03995Y015172D01*
X040048Y015132D01*
X040152Y015118D01*
X040257Y015132D01*
X040354Y015172D01*
X040437Y015236D01*
X040502Y01532D01*
X040542Y015417D01*
X040556Y015522D01*
X040542Y015626D01*
X040502Y015723D01*
X040437Y015807D01*
X040354Y015871D01*
X040257Y015911D01*
X040152Y015925D01*
X040048Y015911D01*
X03995Y015871D01*
X039867Y015807D01*
X039857Y015795D01*
X034309D01*
X034283Y015837D01*
X034298Y015868D01*
X038969D01*
X039047Y015884D01*
X039062Y015887D01*
X039142Y01594D01*
X039913Y016711D01*
X039939Y016708D01*
X040043Y016721D01*
X040141Y016762D01*
X040224Y016826D01*
X040288Y016909D01*
X040329Y017007D01*
X040342Y017111D01*
X040329Y017215D01*
X040288Y017313D01*
X040224Y017396D01*
X040141Y01746D01*
X040043Y017501D01*
X039939Y017514D01*
X039835Y017501D01*
X039737Y01746D01*
X039654Y017396D01*
X03959Y017313D01*
X039549Y017215D01*
X039536Y017111D01*
X039545Y017036D01*
X038867Y016358D01*
X036632D01*
X036604Y016399D01*
X036637Y01648D01*
X036651Y016584D01*
X036637Y016689D01*
X036597Y016786D01*
X036533Y01687D01*
X036449Y016934D01*
X036395Y016956D01*
X036405Y017005D01*
X038107D01*
X038185Y017021D01*
X038201Y017024D01*
X03828Y017077D01*
X038739Y017536D01*
X038792Y017615D01*
X038811Y017709D01*
Y01815D01*
X038858Y018186D01*
X038922Y01827D01*
X038963Y018367D01*
X038976Y018471D01*
X03897Y018522D01*
X039044Y018597D01*
X039856D01*
X039878Y018552D01*
X039838Y0185D01*
X03981Y018433D01*
X039732Y018355D01*
X039679Y018276D01*
X039661Y018182D01*
X039679Y018088D01*
X039732Y018009D01*
X039812Y017956D01*
X039905Y017937D01*
X039981Y017952D01*
X039986Y017949D01*
X040083Y017908D01*
X040188Y017895D01*
X040292Y017908D01*
X040389Y017949D01*
X040473Y018013D01*
X040487Y018031D01*
X040537Y018035D01*
X048395Y010177D01*
X048474Y010124D01*
X048568Y010105D01*
X055413D01*
Y00957D01*
X057387D01*
Y01133D01*
X055413D01*
Y010595D01*
X048669D01*
X047105Y012159D01*
X047124Y012205D01*
X055447D01*
X055476Y012112D01*
X055557Y011959D01*
X055667Y011825D01*
X055801Y011715D01*
X055954Y011633D01*
X05612Y011583D01*
X056293Y011566D01*
X056507D01*
X05668Y011583D01*
X056846Y011633D01*
X056999Y011715D01*
X057133Y011825D01*
X057243Y011959D01*
X057324Y012112D01*
X057375Y012278D01*
X057392Y01245D01*
X057375Y012622D01*
X057324Y012788D01*
X057243Y012941D01*
X057133Y013075D01*
X056999Y013185D01*
X056846Y013267D01*
X05668Y013317D01*
X056507Y013334D01*
X056293D01*
X05612Y013317D01*
X055954Y013267D01*
X055801Y013185D01*
X055667Y013075D01*
X055557Y012941D01*
X055476Y012788D01*
X055447Y012695D01*
X046965D01*
X043086Y016574D01*
X04311Y016618D01*
X043166Y016606D01*
X053587D01*
X053665Y016622D01*
X053681Y016625D01*
X05376Y016678D01*
X055287Y018205D01*
X055447D01*
X055476Y018112D01*
X055557Y017959D01*
X055667Y017825D01*
X055801Y017715D01*
X055954Y017633D01*
X05612Y017583D01*
X056293Y017566D01*
X056507D01*
X05668Y017583D01*
X056846Y017633D01*
X056999Y017715D01*
X057133Y017825D01*
X057243Y017959D01*
X057324Y018112D01*
X057375Y018278D01*
X057392Y01845D01*
X057375Y018622D01*
X057324Y018788D01*
X057243Y018941D01*
X057133Y019075D01*
X056999Y019185D01*
X056846Y019267D01*
X05668Y019317D01*
X056507Y019334D01*
X056293D01*
X05612Y019317D01*
X055954Y019267D01*
X055801Y019185D01*
X055667Y019075D01*
X055557Y018941D01*
X055476Y018788D01*
X055447Y018695D01*
X055186D01*
X055092Y018676D01*
X055013Y018623D01*
X053486Y017096D01*
X051454D01*
X051435Y017142D01*
X053421Y019129D01*
X053425Y019128D01*
X053529Y019142D01*
X053627Y019182D01*
X05371Y019246D01*
X053774Y01933D01*
X053815Y019427D01*
X053828Y019532D01*
X053815Y019636D01*
X053774Y019733D01*
X05371Y019817D01*
X053627Y019881D01*
X053577Y019901D01*
X053567Y01995D01*
X054362Y020745D01*
X05494D01*
X055018Y020761D01*
X055033Y020764D01*
X055113Y020817D01*
X055938Y021642D01*
X055954Y021633D01*
X05612Y021583D01*
X056293Y021566D01*
X056507D01*
X05668Y021583D01*
X056846Y021633D01*
X056999Y021715D01*
X057133Y021825D01*
X057243Y021959D01*
X057324Y022112D01*
X057375Y022278D01*
X057392Y02245D01*
X057375Y022622D01*
X057324Y022788D01*
X057243Y022941D01*
X057133Y023075D01*
X056999Y023185D01*
X056846Y023267D01*
X05668Y023317D01*
X056507Y023334D01*
X056293D01*
X05612Y023317D01*
X055954Y023267D01*
X055801Y023185D01*
X055667Y023075D01*
X055557Y022941D01*
X055476Y022788D01*
X055425Y022622D01*
X055408Y02245D01*
X055425Y022278D01*
X055476Y022112D01*
X055557Y021959D01*
X05556Y021956D01*
X054838Y021234D01*
X054261D01*
X054167Y021216D01*
X054141Y021198D01*
X054088Y021163D01*
X050789Y017864D01*
X047025D01*
X047009Y017911D01*
X047046Y01794D01*
X04711Y018023D01*
X047151Y018121D01*
X047164Y018225D01*
X047151Y01833D01*
X04711Y018427D01*
X047046Y01851D01*
X046963Y018575D01*
X046865Y018615D01*
X046761Y018629D01*
X046684Y018618D01*
X045658Y019644D01*
Y023021D01*
X045819Y023181D01*
X045863Y023159D01*
X045857Y023111D01*
X045871Y023007D01*
X045911Y022909D01*
X045975Y022826D01*
X046059Y022762D01*
X046156Y022721D01*
X046261Y022708D01*
X046365Y022721D01*
X046462Y022762D01*
X046546Y022826D01*
X046577Y022866D01*
X050854D01*
X050881Y022825D01*
X050844Y022735D01*
X050827Y0226D01*
X050844Y022465D01*
X050897Y022338D01*
X05098Y02223D01*
X051088Y022147D01*
X051215Y022094D01*
X05135Y022077D01*
X051485Y022094D01*
X051612Y022147D01*
X05172Y02223D01*
X051803Y022338D01*
X051825Y022391D01*
X051875D01*
X051897Y022338D01*
X05198Y02223D01*
X052088Y022147D01*
X052215Y022094D01*
X05235Y022077D01*
X052485Y022094D01*
X052612Y022147D01*
X05272Y02223D01*
X052803Y022338D01*
X052856Y022465D01*
X052873Y0226D01*
X052856Y022735D01*
X052819Y022824D01*
X052846Y022866D01*
X054713D01*
X054791Y022881D01*
X054807Y022885D01*
X054886Y022938D01*
X055725Y023777D01*
X055801Y023715D01*
X055954Y023633D01*
X05612Y023583D01*
X056293Y023566D01*
X056507D01*
X05668Y023583D01*
X056846Y023633D01*
X056999Y023715D01*
X057133Y023825D01*
X057243Y023959D01*
X057324Y024112D01*
X057375Y024278D01*
X057392Y02445D01*
X057375Y024622D01*
X057324Y024788D01*
X057243Y024941D01*
X057133Y025075D01*
X056999Y025185D01*
X056846Y025267D01*
X05668Y025317D01*
X056507Y025334D01*
X056293D01*
X05612Y025317D01*
X055954Y025267D01*
X055801Y025185D01*
X055667Y025075D01*
X055557Y024941D01*
X055476Y024788D01*
X055425Y024622D01*
X055408Y02445D01*
X055425Y024278D01*
X055451Y024194D01*
X054612Y023355D01*
X052855D01*
X052828Y023397D01*
X052856Y023465D01*
X052873Y0236D01*
X052856Y023735D01*
X052803Y023862D01*
X05272Y02397D01*
X052612Y024053D01*
X052559Y024075D01*
Y024125D01*
X052612Y024147D01*
X05272Y02423D01*
X052803Y024338D01*
X052856Y024465D01*
X052873Y0246D01*
X052856Y024735D01*
X052803Y024862D01*
X05272Y02497D01*
X052612Y025053D01*
X052559Y025075D01*
Y025125D01*
X052612Y025147D01*
X05272Y02523D01*
X052803Y025338D01*
X052856Y025465D01*
X052873Y0256D01*
X052856Y025735D01*
X052803Y025862D01*
X05272Y02597D01*
X052612Y026053D01*
X052559Y026075D01*
Y026125D01*
X052612Y026147D01*
X05272Y02623D01*
X052803Y026338D01*
X052856Y026465D01*
X052873Y0266D01*
X052856Y026735D01*
X052803Y026862D01*
X05272Y02697D01*
X052612Y027053D01*
X052559Y027075D01*
Y027125D01*
X052612Y027147D01*
X05272Y02723D01*
X052803Y027338D01*
X052856Y027465D01*
X052873Y0276D01*
X052856Y027735D01*
X052823Y027814D01*
X052851Y027855D01*
X055207D01*
X055285Y027871D01*
X055301Y027874D01*
X05538Y027927D01*
X055477Y028024D01*
X055526Y028017D01*
X055557Y027959D01*
X055667Y027825D01*
X055801Y027715D01*
X055954Y027633D01*
X05612Y027583D01*
X056293Y027566D01*
X056507D01*
X05668Y027583D01*
X056846Y027633D01*
X056999Y027715D01*
X057133Y027825D01*
X057243Y027959D01*
X057324Y028112D01*
X057375Y028278D01*
X057392Y02845D01*
X057375Y028622D01*
X057324Y028788D01*
X057243Y028941D01*
X057133Y029075D01*
X056999Y029185D01*
X056846Y029267D01*
X05668Y029317D01*
X056507Y029334D01*
X056293D01*
X05612Y029317D01*
X055954Y029267D01*
X055801Y029185D01*
X055667Y029075D01*
X055557Y028941D01*
X055476Y028788D01*
X055436Y028658D01*
X055384Y028623D01*
X055106Y028345D01*
X052851D01*
X052823Y028386D01*
X052856Y028465D01*
X052873Y0286D01*
X052856Y028735D01*
X052823Y028814D01*
X052851Y028855D01*
X054119D01*
X054197Y028871D01*
X054213Y028874D01*
X054292Y028927D01*
X055446Y030081D01*
X055496Y030074D01*
X055557Y029959D01*
X055667Y029825D01*
X055801Y029715D01*
X055954Y029633D01*
X05612Y029583D01*
X056293Y029566D01*
X056507D01*
X05668Y029583D01*
X056846Y029633D01*
X056999Y029715D01*
X057133Y029825D01*
X057243Y029959D01*
X057324Y030112D01*
X057375Y030278D01*
X057392Y03045D01*
X057375Y030622D01*
X057324Y030788D01*
X057243Y030941D01*
X057133Y031075D01*
X056999Y031185D01*
X056846Y031267D01*
X05668Y031317D01*
X056507Y031334D01*
X056293D01*
X05612Y031317D01*
X055954Y031267D01*
X055801Y031185D01*
X055667Y031075D01*
X055557Y030941D01*
X055476Y030788D01*
X055425Y030622D01*
X055425Y030621D01*
X055396D01*
X055318Y030606D01*
X055302Y030603D01*
X055223Y03055D01*
X054018Y029345D01*
X052851D01*
X052823Y029386D01*
X052856Y029465D01*
X052873Y0296D01*
X052856Y029735D01*
X052803Y029862D01*
X05272Y02997D01*
X052612Y030053D01*
X052559Y030075D01*
Y030125D01*
X052612Y030147D01*
X05272Y03023D01*
X052803Y030338D01*
X052856Y030465D01*
X052873Y0306D01*
X052856Y030735D01*
X052803Y030862D01*
X05272Y03097D01*
X052612Y031053D01*
X052559Y031075D01*
Y031125D01*
X052612Y031147D01*
X05272Y03123D01*
X052803Y031338D01*
X052856Y031465D01*
X052873Y0316D01*
X052856Y031735D01*
X052803Y031862D01*
X05272Y03197D01*
X052612Y032053D01*
X052559Y032075D01*
Y032125D01*
X052612Y032147D01*
X05272Y03223D01*
X052803Y032338D01*
X052856Y032465D01*
X052873Y0326D01*
X052856Y032735D01*
X052803Y032862D01*
X05272Y03297D01*
X052612Y033053D01*
X052559Y033075D01*
Y033125D01*
X052612Y033147D01*
X05272Y03323D01*
X052803Y033338D01*
X052856Y033465D01*
X052873Y0336D01*
X052856Y033735D01*
X052824Y033811D01*
X052852Y033853D01*
X055645D01*
X055667Y033825D01*
X055801Y033715D01*
X055954Y033633D01*
X05612Y033583D01*
X056293Y033566D01*
X056507D01*
X05668Y033583D01*
X056846Y033633D01*
X056999Y033715D01*
X057133Y033825D01*
X057243Y033959D01*
X057324Y034112D01*
X057375Y034278D01*
X057392Y03445D01*
X057375Y034622D01*
X057324Y034788D01*
X057243Y034941D01*
X057133Y035075D01*
X056999Y035185D01*
X056846Y035267D01*
X05668Y035317D01*
X056507Y035334D01*
X056293D01*
X05612Y035317D01*
X055954Y035267D01*
X055801Y035185D01*
X055667Y035075D01*
X055557Y034941D01*
X055476Y034788D01*
X055425Y034622D01*
X055408Y03445D01*
X055415Y034379D01*
X055382Y034342D01*
X05285D01*
X052822Y034384D01*
X052856Y034465D01*
X052873Y0346D01*
X052856Y034735D01*
X052823Y034814D01*
X052851Y034855D01*
X054511D01*
X054589Y034871D01*
X054605Y034874D01*
X054684Y034927D01*
X055602Y035845D01*
X055652Y035843D01*
X055667Y035825D01*
X055801Y035715D01*
X055954Y035633D01*
X05612Y035583D01*
X056293Y035566D01*
X056507D01*
X05668Y035583D01*
X056846Y035633D01*
X056999Y035715D01*
X057133Y035825D01*
X057243Y035959D01*
X057324Y036112D01*
X057375Y036278D01*
X057392Y03645D01*
X057375Y036622D01*
X057324Y036788D01*
X057243Y036941D01*
X057133Y037075D01*
X056999Y037185D01*
X056846Y037267D01*
X05668Y037317D01*
X056507Y037334D01*
X056293D01*
X05612Y037317D01*
X055954Y037267D01*
X055801Y037185D01*
X055667Y037075D01*
X055557Y036941D01*
X055476Y036788D01*
X055425Y036622D01*
X055408Y03645D01*
X055418Y036353D01*
X05441Y035345D01*
X052851D01*
X052823Y035386D01*
X052856Y035465D01*
X052873Y0356D01*
X052856Y035735D01*
X052803Y035862D01*
X05272Y03597D01*
X052612Y036053D01*
X052559Y036075D01*
Y036125D01*
X052612Y036147D01*
X05272Y03623D01*
X052803Y036338D01*
X052856Y036465D01*
X052873Y0366D01*
X052856Y036735D01*
X052803Y036862D01*
X05272Y03697D01*
X052612Y037053D01*
X052559Y037075D01*
Y037125D01*
X052612Y037147D01*
X05272Y03723D01*
X052803Y037338D01*
X052856Y037465D01*
X052873Y0376D01*
X052856Y037735D01*
X052803Y037862D01*
X05272Y03797D01*
X052612Y038053D01*
X052559Y038075D01*
Y038125D01*
X052612Y038147D01*
X05272Y03823D01*
X052803Y038338D01*
X052856Y038465D01*
X052873Y0386D01*
X052856Y038735D01*
X052823Y038814D01*
X052851Y038855D01*
X053086D01*
X053164Y038871D01*
X05318Y038874D01*
X053259Y038927D01*
X054538Y040205D01*
X055447D01*
X055476Y040112D01*
X055557Y039959D01*
X055667Y039825D01*
X055801Y039715D01*
X055954Y039633D01*
X05612Y039583D01*
X056293Y039566D01*
X056507D01*
X05668Y039583D01*
X056846Y039633D01*
X056999Y039715D01*
X057133Y039825D01*
X057243Y039959D01*
X057324Y040112D01*
X057375Y040278D01*
X057392Y04045D01*
X057375Y040622D01*
X057324Y040788D01*
X057243Y040941D01*
X057133Y041075D01*
X056999Y041185D01*
X056846Y041267D01*
X05668Y041317D01*
X056507Y041334D01*
X056293D01*
X05612Y041317D01*
X055954Y041267D01*
X055801Y041185D01*
X055667Y041075D01*
X055557Y040941D01*
X055476Y040788D01*
X055447Y040695D01*
X054436D01*
X054358Y040679D01*
X054343Y040676D01*
X054263Y040623D01*
X052985Y039345D01*
X052851D01*
X052823Y039386D01*
X052856Y039465D01*
X052873Y0396D01*
X052856Y039735D01*
X052803Y039862D01*
X05272Y03997D01*
X052612Y040053D01*
X052559Y040075D01*
Y040125D01*
X052612Y040147D01*
X05272Y04023D01*
X052803Y040338D01*
X052856Y040465D01*
X052873Y0406D01*
X052856Y040735D01*
X052803Y040862D01*
X05272Y04097D01*
X052612Y041053D01*
X052559Y041075D01*
Y041125D01*
X052612Y041147D01*
X05272Y04123D01*
X052803Y041338D01*
X052856Y041465D01*
X052873Y0416D01*
X052856Y041735D01*
X052803Y041862D01*
X05272Y04197D01*
X052612Y042053D01*
X052485Y042106D01*
X05235Y042123D01*
X052215Y042106D01*
X052088Y042053D01*
X05198Y04197D01*
X051897Y041862D01*
X051875Y041809D01*
X051825D01*
X051803Y041862D01*
X05172Y04197D01*
X051612Y042053D01*
X051485Y042106D01*
X05135Y042123D01*
X051215Y042106D01*
X051088Y042053D01*
X05098Y04197D01*
X050897Y041862D01*
X05089Y041845D01*
X05049D01*
X050412Y041829D01*
X050396Y041826D01*
X050317Y041773D01*
X050049Y041505D01*
X049996Y041426D01*
X049993Y04141D01*
X049977Y041332D01*
Y040379D01*
X048042Y038443D01*
X047995Y038463D01*
Y043253D01*
X048992Y044249D01*
X049179D01*
X049206Y044214D01*
X04929Y044149D01*
X049387Y044109D01*
X049492Y044095D01*
X049596Y044109D01*
X049693Y044149D01*
X049777Y044214D01*
X049841Y044297D01*
X049881Y044394D01*
X049895Y044499D01*
X049881Y044603D01*
X049841Y044701D01*
X049777Y044784D01*
X049693Y044848D01*
X049596Y044889D01*
X049492Y044902D01*
X049387Y044889D01*
X04929Y044848D01*
X049246Y044814D01*
X048875D01*
X048802Y044805D01*
X048782Y044796D01*
X048734Y044776D01*
X048675Y044732D01*
X047513Y04357D01*
X047468Y043511D01*
X047448Y043463D01*
X04744Y043443D01*
X047431Y04337D01*
Y043339D01*
X047383Y043324D01*
X047364Y043352D01*
X046652Y044064D01*
X046697Y044123D01*
X046737Y04422D01*
X046751Y044324D01*
X046737Y044429D01*
X046697Y044526D01*
X046633Y04461D01*
X046549Y044674D01*
X046452Y044714D01*
X046348Y044728D01*
X046243Y044714D01*
X046146Y044674D01*
X046062Y04461D01*
X045998Y044526D01*
X045958Y044429D01*
X045957Y044425D01*
X04591Y044408D01*
X045175Y045143D01*
X04511Y045187D01*
X044422Y045875D01*
Y046228D01*
X044462Y046259D01*
X044527Y046342D01*
X044567Y04644D01*
X044581Y046544D01*
X044567Y046649D01*
X044527Y046746D01*
X044462Y046829D01*
X044379Y046893D01*
X044282Y046934D01*
X044177Y046948D01*
X044073Y046934D01*
X043975Y046893D01*
X043892Y046829D01*
X043828Y046746D01*
X043787Y046649D01*
X043774Y046544D01*
X043787Y04644D01*
X043828Y046342D01*
X043852Y046311D01*
X043816Y046276D01*
X043804Y046286D01*
X043706Y046326D01*
X043602Y04634D01*
X043498Y046326D01*
X0434Y046286D01*
X043317Y046221D01*
X043253Y046138D01*
X043212Y046041D01*
X043199Y045936D01*
X043212Y045832D01*
X043253Y045734D01*
X043317Y045651D01*
X0434Y045587D01*
X043498Y045547D01*
X043593Y045534D01*
X04529Y043837D01*
X045274Y04379D01*
X045246Y043786D01*
X045148Y043745D01*
X045065Y043681D01*
X045001Y043598D01*
X04496Y0435D01*
X044947Y043396D01*
X04496Y043292D01*
X045001Y043194D01*
X045065Y043111D01*
X045148Y043047D01*
X045239Y043009D01*
Y042746D01*
X043183Y04069D01*
X043141Y040718D01*
X043165Y040776D01*
X043171Y040817D01*
X042874D01*
Y04052D01*
X042916Y040526D01*
X042974Y04055D01*
X043001Y040508D01*
X041431Y038937D01*
X041377Y038858D01*
X041374Y038843D01*
X041359Y038764D01*
Y037624D01*
X041317Y037597D01*
X041255Y037622D01*
X041214Y037628D01*
Y037281D01*
Y036935D01*
X041255Y03694D01*
X041317Y036966D01*
X041359Y036939D01*
Y036266D01*
X040315Y035222D01*
X040262Y035143D01*
X040259Y035127D01*
X040243Y035049D01*
Y034052D01*
X040199Y034028D01*
X040132Y034073D01*
X040117Y034076D01*
X040039Y034091D01*
X039523D01*
X037421Y036193D01*
Y036785D01*
X037406Y036863D01*
X037402Y036879D01*
X037349Y036958D01*
X036331Y037976D01*
Y03884D01*
X036313Y038933D01*
X03626Y039013D01*
X034622Y040651D01*
X034609Y040744D01*
X03458Y040814D01*
X034608Y040855D01*
X036921D01*
X036929Y040857D01*
X037458D01*
X037499Y040803D01*
X037583Y040738D01*
X03768Y040698D01*
X037785Y040684D01*
X037889Y040698D01*
X037986Y040738D01*
X03807Y040803D01*
X038112Y040857D01*
X03851D01*
X038588Y040872D01*
X038604Y040876D01*
X038683Y040929D01*
X039127Y041372D01*
X039346D01*
X039365Y041326D01*
X039142Y041104D01*
X039089Y041024D01*
X039086Y041009D01*
X039071Y040931D01*
Y040434D01*
X039086Y040356D01*
X039089Y040341D01*
X039142Y040261D01*
X039512Y039892D01*
X039505Y039841D01*
X039519Y039736D01*
X039559Y039639D01*
X039623Y039556D01*
X039707Y039491D01*
X039804Y039451D01*
X039909Y039437D01*
X040013Y039451D01*
X04011Y039491D01*
X040194Y039556D01*
X040258Y039639D01*
X040261Y039647D01*
X04031Y039637D01*
Y037875D01*
X040287Y037858D01*
X040223Y037774D01*
X040183Y037677D01*
X040169Y037572D01*
X040183Y037468D01*
X040223Y037371D01*
X040287Y037287D01*
X040371Y037223D01*
X040468Y037183D01*
X040572Y037169D01*
X040677Y037183D01*
X040774Y037223D01*
X040774Y037223D01*
X040821Y037204D01*
X040823Y03719D01*
X040858Y037105D01*
X040914Y037032D01*
X040987Y036976D01*
X041072Y03694D01*
X041114Y036935D01*
Y037281D01*
Y037628D01*
X041072Y037622D01*
X041013Y037598D01*
X040969Y037623D01*
X040962Y037677D01*
X040922Y037774D01*
X040858Y037858D01*
X040835Y037875D01*
Y040771D01*
X042025Y041961D01*
X042042Y041948D01*
X042139Y041908D01*
X042243Y041894D01*
X042348Y041908D01*
X042445Y041948D01*
X042529Y042012D01*
X042593Y042096D01*
X042633Y042193D01*
X042647Y042297D01*
X042633Y042402D01*
X042593Y042499D01*
X042529Y042583D01*
X042445Y042647D01*
X042348Y042687D01*
X042243Y042701D01*
X042139Y042687D01*
X042042Y042647D01*
X041958Y042583D01*
X041935Y042552D01*
X041922Y042551D01*
X041859Y042524D01*
X041805Y042483D01*
X041805Y042483D01*
X04115Y041828D01*
X041106Y041851D01*
X041124Y041944D01*
Y044244D01*
X041109Y044323D01*
X041106Y044338D01*
X041053Y044418D01*
X0408Y04467D01*
X040804Y0447D01*
X040787Y044836D01*
X040734Y044962D01*
X040651Y045071D01*
X040542Y045154D01*
X040416Y045207D01*
X04028Y045224D01*
X04012D01*
X039984Y045207D01*
X039858Y045154D01*
X039749Y045071D01*
X039666Y044962D01*
X039613Y044836D01*
X03961Y04481D01*
X03956Y044813D01*
Y045362D01*
X040138Y045941D01*
X041954D01*
X042032Y045956D01*
X042047Y045959D01*
X042127Y046012D01*
X043722Y047607D01*
X051097D01*
X0538Y044904D01*
Y043601D01*
X053816Y043523D01*
X053819Y043508D01*
X053872Y043428D01*
X054979Y042321D01*
X055059Y042268D01*
X055074Y042265D01*
X055152Y042249D01*
X055434D01*
X055476Y042112D01*
X055557Y041959D01*
X055667Y041825D01*
X055801Y041715D01*
X055954Y041633D01*
X05612Y041583D01*
X056293Y041566D01*
X056507D01*
X05668Y041583D01*
X056846Y041633D01*
X056999Y041715D01*
X057133Y041825D01*
X057243Y041959D01*
X057324Y042112D01*
X057375Y042278D01*
X057392Y04245D01*
X057375Y042622D01*
X057324Y042788D01*
X057243Y042941D01*
X057133Y043075D01*
X056999Y043185D01*
X056846Y043267D01*
X05668Y043317D01*
X056507Y043334D01*
X056293D01*
X05612Y043317D01*
X055954Y043267D01*
X055801Y043185D01*
X055667Y043075D01*
X055557Y042941D01*
X055476Y042788D01*
X05546Y042738D01*
X055254D01*
X05429Y043703D01*
Y045006D01*
X054271Y045099D01*
X054218Y045179D01*
X051371Y048025D01*
X051292Y048078D01*
X051277Y048081D01*
X051198Y048097D01*
X04368D01*
X043661Y048143D01*
X043763Y048244D01*
X046596D01*
X046596Y048244D01*
X046664Y048253D01*
X046727Y04828D01*
X046782Y048321D01*
X047126Y048666D01*
X047155Y048662D01*
X04726Y048676D01*
X047357Y048716D01*
X04744Y04878D01*
X047458Y048804D01*
X052293D01*
X052293Y048804D01*
X052361Y048812D01*
X052424Y048839D01*
X052478Y04888D01*
X053786Y050188D01*
X056012D01*
X056067Y050087D01*
X056148Y049988D01*
X056247Y049906D01*
X05636Y049846D01*
X056483Y049809D01*
X05661Y049796D01*
X05689D01*
X057017Y049809D01*
X05714Y049846D01*
X057253Y049906D01*
X057352Y049988D01*
X057433Y050087D01*
X057494Y0502D01*
X057531Y050322D01*
X057544Y05045D01*
X057531Y050578D01*
X057494Y0507D01*
X057433Y050813D01*
X057352Y050912D01*
X057253Y050994D01*
X05714Y051054D01*
X057017Y051091D01*
X05689Y051104D01*
X05661D01*
X056483Y051091D01*
X05636Y051054D01*
X056247Y050994D01*
X056148Y050912D01*
X056067Y050813D01*
X056012Y050712D01*
X053677D01*
X053677Y050712D01*
X053609Y050703D01*
X053546Y050677D01*
X053492Y050635D01*
X053492Y050635D01*
X052184Y049328D01*
X047458D01*
X04744Y049351D01*
X047357Y049415D01*
X04726Y049455D01*
X047155Y049469D01*
X047051Y049455D01*
X046953Y049415D01*
X04687Y049351D01*
X046806Y049267D01*
X046765Y04917D01*
X046752Y049066D01*
X046755Y049037D01*
X046487Y048769D01*
X043665D01*
X043645Y048815D01*
X046523Y051693D01*
X046576Y051772D01*
X046579Y051788D01*
X046595Y051866D01*
Y052425D01*
X046636Y052452D01*
X046721Y052417D01*
X04685Y0524D01*
X046979Y052417D01*
X0471Y052467D01*
X047203Y052547D01*
X047283Y05265D01*
X047325Y052753D01*
X047375D01*
X047417Y05265D01*
X047497Y052547D01*
X0476Y052467D01*
X047721Y052417D01*
X04785Y0524D01*
X047979Y052417D01*
X0481Y052467D01*
X048203Y052547D01*
X048283Y05265D01*
X048333Y052771D01*
X04835Y0529D01*
X048333Y053029D01*
X048283Y05315D01*
X048203Y053253D01*
X0481Y053333D01*
X048044Y053356D01*
X048054Y053405D01*
X048345D01*
Y054395D01*
X047355D01*
Y054104D01*
X047306Y054094D01*
X047283Y05415D01*
X047203Y054253D01*
X0471Y054333D01*
X046979Y054383D01*
X04685Y0544D01*
X046721Y054383D01*
X0466Y054333D01*
X046497Y054253D01*
X046417Y05415D01*
X046375Y054047D01*
X046325D01*
X046283Y05415D01*
X046203Y054253D01*
X0461Y054333D01*
X045979Y054383D01*
X04585Y0544D01*
X045721Y054383D01*
X0456Y054333D01*
X045497Y054253D01*
X045417Y05415D01*
X045375Y054047D01*
X045325D01*
X045283Y05415D01*
X045203Y054253D01*
X0451Y054333D01*
X044979Y054383D01*
X04485Y0544D01*
X044721Y054383D01*
X0446Y054333D01*
X044497Y054253D01*
X044417Y05415D01*
X044375Y054047D01*
X044325D01*
X044283Y05415D01*
X044203Y054253D01*
X0441Y054333D01*
X043979Y054383D01*
X04385Y0544D01*
X043721Y054383D01*
X0436Y054333D01*
X043497Y054253D01*
X043417Y05415D01*
X043375Y054047D01*
X043325D01*
X043283Y05415D01*
X043203Y054253D01*
X0431Y054333D01*
X042979Y054383D01*
X04285Y0544D01*
X042721Y054383D01*
X0426Y054333D01*
X042497Y054253D01*
X042417Y05415D01*
X042375Y054047D01*
X042325D01*
X042283Y05415D01*
X042203Y054253D01*
X0421Y054333D01*
X041979Y054383D01*
X04185Y0544D01*
X041721Y054383D01*
X0416Y054333D01*
X041497Y054253D01*
X041417Y05415D01*
X041375Y054047D01*
X041325D01*
X041283Y05415D01*
X041203Y054253D01*
X0411Y054333D01*
X040979Y054383D01*
X04085Y0544D01*
X040721Y054383D01*
X0406Y054333D01*
X040497Y054253D01*
X040417Y05415D01*
X040375Y054047D01*
X040325D01*
X040283Y05415D01*
X040203Y054253D01*
X0401Y054333D01*
X040051Y054353D01*
X040023Y054395D01*
X039334Y055084D01*
X039254Y055137D01*
X039239Y05514D01*
X039161Y055156D01*
X033854D01*
X033823Y055196D01*
X03374Y05526D01*
X033642Y055301D01*
X033538Y055314D01*
X033433Y055301D01*
X033336Y05526D01*
X033253Y055196D01*
X033188Y055113D01*
X033148Y055015D01*
X033134Y054911D01*
X033148Y054807D01*
X033188Y054709D01*
X033253Y054626D01*
X033336Y054562D01*
X033433Y054521D01*
X033538Y054508D01*
X033642Y054521D01*
X03374Y054562D01*
X033823Y054626D01*
X033854Y054666D01*
X039059D01*
X039486Y054239D01*
X039417Y05415D01*
X039375Y054047D01*
X039325D01*
X039283Y05415D01*
X039203Y054253D01*
X0391Y054333D01*
X038979Y054383D01*
X03885Y0544D01*
X038721Y054383D01*
X0386Y054333D01*
X038497Y054253D01*
X038417Y05415D01*
X038375Y054047D01*
X038325D01*
X038283Y05415D01*
X038203Y054253D01*
X0381Y054333D01*
X037979Y054383D01*
X03785Y0544D01*
X037721Y054383D01*
X0376Y054333D01*
X037497Y054253D01*
X037417Y05415D01*
X037375Y054047D01*
X037325D01*
X037283Y05415D01*
X037203Y054253D01*
X0371Y054333D01*
X036979Y054383D01*
X03685Y0544D01*
X036721Y054383D01*
X0366Y054333D01*
X036497Y054253D01*
X036417Y05415D01*
X036375Y054047D01*
X036325D01*
X036283Y05415D01*
X036203Y054253D01*
X0361Y054333D01*
X035979Y054383D01*
X03585Y0544D01*
X035721Y054383D01*
X0356Y054333D01*
X035497Y054253D01*
X035417Y05415D01*
X035415Y054145D01*
X03356D01*
X033508Y054212D01*
X033425Y054276D01*
X033327Y054316D01*
X033223Y05433D01*
X033118Y054316D01*
X033021Y054276D01*
X032938Y054212D01*
X032873Y054128D01*
X032833Y054031D01*
X032819Y053926D01*
X032833Y053822D01*
X032873Y053725D01*
X032938Y053641D01*
X033021Y053577D01*
X033118Y053537D01*
X033223Y053523D01*
X033327Y053537D01*
X033425Y053577D01*
X033508Y053641D01*
X033519Y053655D01*
X035415D01*
X035417Y05365D01*
X035497Y053547D01*
X0356Y053467D01*
X035721Y053417D01*
X03585Y0534D01*
X035979Y053417D01*
X036071Y053456D01*
X03611Y053424D01*
X036105Y0534D01*
Y053259D01*
X03606Y053237D01*
X036049Y053245D01*
X035953Y053285D01*
X0359Y053292D01*
Y0529D01*
Y052508D01*
X035953Y052515D01*
X036049Y052555D01*
X03606Y052563D01*
X036105Y052541D01*
Y051998D01*
X034417Y05031D01*
X034364Y05023D01*
X034361Y050215D01*
X034345Y050137D01*
Y045902D01*
X034361Y045824D01*
X034364Y045809D01*
X034417Y045729D01*
X034666Y04548D01*
X034746Y045427D01*
X034761Y045424D01*
X034839Y045408D01*
X036896D01*
X036922Y045366D01*
X036908Y045337D01*
X032033D01*
X031955Y045322D01*
X03194Y045319D01*
X03186Y045266D01*
X031182Y044588D01*
X031129Y044508D01*
X031126Y044493D01*
X031111Y044415D01*
Y043713D01*
X031007Y043699D01*
X03091Y043659D01*
X030858Y043619D01*
X030813Y043641D01*
Y044864D01*
X031296Y045347D01*
X0313Y045347D01*
X031404Y04536D01*
X031502Y045401D01*
X031585Y045465D01*
X031649Y045548D01*
X03169Y045646D01*
X031703Y04575D01*
X031703Y045754D01*
X031715Y045766D01*
X03176Y045824D01*
X031776Y045864D01*
X031788Y045892D01*
X031798Y045965D01*
Y050441D01*
X031788Y050515D01*
X03178Y050534D01*
X03176Y050583D01*
X031715Y050641D01*
X031662Y050694D01*
Y056327D01*
X031711Y056337D01*
X031772Y056192D01*
X031865Y056039D01*
X031981Y055903D01*
X032117Y055787D01*
X03227Y055694D01*
X032435Y055625D01*
X032609Y055583D01*
X032788Y055569D01*
X032966Y055583D01*
X03314Y055625D01*
X033306Y055694D01*
X033458Y055787D01*
X033594Y055903D01*
X03371Y056039D01*
X033804Y056192D01*
X033872Y056357D01*
X033914Y056531D01*
X033928Y05671D01*
X033914Y056888D01*
X033872Y057062D01*
X033804Y057228D01*
X03371Y05738D01*
X033594Y057516D01*
X033458Y057633D01*
X033306Y057726D01*
X03314Y057795D01*
X032966Y057836D01*
X032788Y05785D01*
X032609Y057836D01*
X032435Y057795D01*
X03227Y057726D01*
X032117Y057633D01*
X031981Y057516D01*
X031865Y05738D01*
X031772Y057228D01*
X031711Y057082D01*
X031662Y057092D01*
Y05867D01*
X031653Y058743D01*
X031645Y058763D01*
X031625Y058811D01*
X03158Y05887D01*
X030632Y059817D01*
Y060113D01*
X030635Y060115D01*
X030699Y060198D01*
X03074Y060296D01*
X030753Y0604D01*
X03074Y060504D01*
X030699Y060602D01*
X030635Y060685D01*
X030552Y060749D01*
X030454Y06079D01*
X03035Y060803D01*
X030246Y06079D01*
X030148Y060749D01*
X030065Y060685D01*
X030001Y060602D01*
X02996Y060504D01*
X029947Y0604D01*
X02996Y060296D01*
X030001Y060198D01*
X030065Y060115D01*
X030068Y060113D01*
Y0597D01*
X030077Y059627D01*
X030085Y059607D01*
X030105Y059559D01*
X03015Y0595D01*
X031098Y058553D01*
Y05791D01*
X031003D01*
Y05845D01*
X031003Y05845D01*
X030992Y058528D01*
X030962Y058601D01*
X030914Y058664D01*
X029014Y060564D01*
X028951Y060612D01*
X02893Y060621D01*
X028878Y060642D01*
X0288Y060653D01*
X028075D01*
X026314Y062414D01*
X026251Y062462D01*
X02623Y062471D01*
X026178Y062492D01*
X0261Y062503D01*
X025537D01*
Y06308D01*
D02*
G37*
G36*
X04328Y045124D02*
X04325D01*
Y04475D01*
X043697D01*
X043689Y04481D01*
X043647Y044912D01*
X04358Y045D01*
X043492Y045067D01*
X04339Y045109D01*
X04328Y045124D01*
D02*
G37*
G36*
X0514Y044016D02*
Y04365D01*
X051766D01*
X051758Y043709D01*
X051716Y043811D01*
X051649Y043899D01*
X051561Y043966D01*
X051459Y044008D01*
X0514Y044016D01*
D02*
G37*
G36*
X0523D02*
X052241Y044008D01*
X052139Y043966D01*
X052051Y043899D01*
X051984Y043811D01*
X051942Y043709D01*
X051934Y04365D01*
X0523D01*
Y044016D01*
D02*
G37*
G36*
X056507Y045334D02*
X056293D01*
X05612Y045317D01*
X055954Y045267D01*
X055801Y045185D01*
X055667Y045075D01*
X055557Y044941D01*
X055476Y044788D01*
X055425Y044622D01*
X055408Y04445D01*
X055425Y044278D01*
X055476Y044112D01*
X055557Y043959D01*
X055667Y043825D01*
X055801Y043715D01*
X055954Y043633D01*
X05612Y043583D01*
X056293Y043566D01*
X056507D01*
X05668Y043583D01*
X056846Y043633D01*
X056999Y043715D01*
X057133Y043825D01*
X057243Y043959D01*
X057324Y044112D01*
X057375Y044278D01*
X057392Y04445D01*
X057375Y044622D01*
X057324Y044788D01*
X057243Y044941D01*
X057133Y045075D01*
X056999Y045185D01*
X056846Y045267D01*
X05668Y045317D01*
X056507Y045334D01*
D02*
G37*
G36*
X0513Y044016D02*
X051241Y044008D01*
X051139Y043966D01*
X051051Y043899D01*
X050984Y043811D01*
X050942Y043709D01*
X050934Y04365D01*
X0513D01*
Y044016D01*
D02*
G37*
G36*
X0437Y04412D02*
X04325D01*
Y04375D01*
X0437D01*
Y04412D01*
D02*
G37*
G36*
X04315Y04465D02*
X042703D01*
X042711Y04459D01*
X042753Y044488D01*
X04282Y0444D01*
X042908Y044333D01*
X04301Y044291D01*
X04312Y044276D01*
X04315D01*
Y04465D01*
D02*
G37*
G36*
X0524Y044016D02*
Y04365D01*
X052766D01*
X052758Y043709D01*
X052716Y043811D01*
X052649Y043899D01*
X052561Y043966D01*
X052459Y044008D01*
X0524Y044016D01*
D02*
G37*
G36*
X04315Y04412D02*
X0427D01*
Y04375D01*
X04315D01*
Y04412D01*
D02*
G37*
G36*
X05689Y052604D02*
X05661D01*
X056483Y052591D01*
X05636Y052554D01*
X056247Y052494D01*
X056148Y052412D01*
X056067Y052313D01*
X056006Y0522D01*
X055969Y052078D01*
X055956Y05195D01*
X055969Y051822D01*
X056006Y0517D01*
X056067Y051587D01*
X056148Y051488D01*
X056247Y051406D01*
X05636Y051346D01*
X056483Y051309D01*
X05661Y051296D01*
X05689D01*
X057017Y051309D01*
X05714Y051346D01*
X057253Y051406D01*
X057352Y051488D01*
X057433Y051587D01*
X057494Y0517D01*
X057531Y051822D01*
X057544Y05195D01*
X057531Y052078D01*
X057494Y0522D01*
X057433Y052313D01*
X057352Y052412D01*
X057253Y052494D01*
X05714Y052554D01*
X057017Y052591D01*
X05689Y052604D01*
D02*
G37*
G36*
X040469Y057699D02*
Y057319D01*
X040849D01*
X040841Y057382D01*
X040797Y057487D01*
X040728Y057577D01*
X040638Y057647D01*
X040532Y05769D01*
X040469Y057699D01*
D02*
G37*
G36*
X057441Y049501D02*
X0568D01*
Y049D01*
X057441D01*
Y049501D01*
D02*
G37*
G36*
X024657Y052984D02*
X0246D01*
Y05225D01*
X025436D01*
X025426Y052353D01*
X025382Y0525D01*
X025309Y052635D01*
X025212Y052754D01*
X025093Y052852D01*
X024957Y052924D01*
X02481Y052969D01*
X024657Y052984D01*
D02*
G37*
G36*
X0245D02*
X024443D01*
X02429Y052969D01*
X024143Y052924D01*
X024007Y052852D01*
X023888Y052754D01*
X023791Y052635D01*
X023718Y0525D01*
X023674Y052353D01*
X023664Y05225D01*
X0245D01*
Y052984D01*
D02*
G37*
G36*
X025436Y05215D02*
X0246D01*
Y051416D01*
X024657D01*
X02481Y051431D01*
X024957Y051476D01*
X025093Y051548D01*
X025212Y051646D01*
X025309Y051765D01*
X025382Y0519D01*
X025426Y052047D01*
X025436Y05215D01*
D02*
G37*
G36*
X0245D02*
X023664D01*
X023674Y052047D01*
X023718Y0519D01*
X023791Y051765D01*
X023888Y051646D01*
X024007Y051548D01*
X024143Y051476D01*
X02429Y051431D01*
X024443Y051416D01*
X0245D01*
Y05215D01*
D02*
G37*
G36*
X0567Y049501D02*
X056059D01*
Y049D01*
X0567D01*
Y049501D01*
D02*
G37*
G36*
X041557Y057699D02*
Y057319D01*
X041936D01*
X041928Y057382D01*
X041884Y057487D01*
X041815Y057577D01*
X041725Y057647D01*
X041619Y05769D01*
X041557Y057699D01*
D02*
G37*
G36*
X041456D02*
X041394Y05769D01*
X041288Y057647D01*
X041198Y057577D01*
X041129Y057487D01*
X041085Y057382D01*
X041077Y057319D01*
X041456D01*
Y057699D01*
D02*
G37*
G36*
X042643D02*
Y057319D01*
X043023D01*
X043015Y057382D01*
X042971Y057487D01*
X042902Y057577D01*
X042812Y057647D01*
X042706Y05769D01*
X042643Y057699D01*
D02*
G37*
G36*
X042544D02*
X042481Y05769D01*
X042375Y057647D01*
X042285Y057577D01*
X042216Y057487D01*
X042172Y057382D01*
X042164Y057319D01*
X042544D01*
Y057699D01*
D02*
G37*
G36*
X0567Y0489D02*
X056059D01*
Y048399D01*
X0567D01*
Y0489D01*
D02*
G37*
G36*
X057441D02*
X0568D01*
Y048399D01*
X057441D01*
Y0489D01*
D02*
G37*
%LPD*%
G36*
X050508Y026305D02*
X050458Y026299D01*
X05036Y026258D01*
X050277Y026194D01*
X050213Y026111D01*
X050173Y026013D01*
X050159Y025909D01*
X050159Y025905D01*
X048159Y023906D01*
X045861D01*
X045788Y023896D01*
X045754Y023882D01*
X04572Y023868D01*
X045662Y023823D01*
X045176Y023337D01*
X045131Y023279D01*
X045111Y023231D01*
X045103Y023211D01*
X045094Y023138D01*
Y019527D01*
X045103Y019454D01*
X045111Y019434D01*
X045131Y019386D01*
X045176Y019327D01*
X04637Y018134D01*
X046371Y018121D01*
X046395Y018064D01*
X046353Y018037D01*
X043144Y021245D01*
Y021305D01*
X043189Y021327D01*
X043212Y021309D01*
X043285Y021279D01*
X043314Y021275D01*
Y021571D01*
Y021867D01*
X043285Y021863D01*
X043212Y021833D01*
X043189Y021815D01*
X043144Y021837D01*
Y022234D01*
X04319Y022254D01*
X043289Y022155D01*
X04329Y022148D01*
X043331Y022051D01*
X043395Y021967D01*
X043478Y021903D01*
X043576Y021863D01*
X04368Y021849D01*
X043784Y021863D01*
X043882Y021903D01*
X043965Y021967D01*
X044029Y022051D01*
X04407Y022148D01*
X044083Y022253D01*
X04407Y022357D01*
X044029Y022454D01*
X043965Y022538D01*
X043882Y022602D01*
X043784Y022642D01*
X04368Y022656D01*
X043576Y022642D01*
X043518Y022619D01*
X043424Y022712D01*
Y025687D01*
X043466Y025715D01*
X043515Y025694D01*
X04362Y025681D01*
X043634Y025682D01*
X043671Y025649D01*
Y025475D01*
Y025399D01*
X043631Y025368D01*
X043567Y025284D01*
X043526Y025187D01*
X043513Y025082D01*
X043526Y024978D01*
X043567Y024881D01*
X043631Y024797D01*
X043714Y024733D01*
X043812Y024693D01*
X043916Y024679D01*
X044021Y024693D01*
X044118Y024733D01*
X044201Y024797D01*
X044266Y024881D01*
X044306Y024978D01*
X044312Y025027D01*
X044338Y02509D01*
X044443Y025076D01*
X044547Y02509D01*
X044645Y025131D01*
X044728Y025195D01*
X044788Y025272D01*
X047882D01*
X04796Y025288D01*
X047976Y025291D01*
X048055Y025344D01*
X049066Y026355D01*
X050505D01*
X050508Y026305D01*
D02*
G37*
G36*
X035499Y025158D02*
X035572Y025109D01*
X035574Y025085D01*
X035567Y025049D01*
X035084Y024566D01*
X034481D01*
X03445Y024607D01*
X034366Y024671D01*
X034269Y024711D01*
X034165Y024725D01*
X03406Y024711D01*
X033963Y024671D01*
X033913Y024633D01*
X033867Y024652D01*
X033856Y024735D01*
X033823Y024814D01*
X033851Y024855D01*
X034346D01*
X034381Y024809D01*
X034465Y024745D01*
X034562Y024704D01*
X034667Y024691D01*
X034771Y024704D01*
X034868Y024745D01*
X034952Y024809D01*
X035016Y024892D01*
X035056Y02499D01*
X03507Y025094D01*
X035056Y025199D01*
X035016Y025296D01*
X034956Y025375D01*
X034978Y025419D01*
X035237D01*
X035499Y025158D01*
D02*
G37*
G36*
X037466Y028988D02*
X037507Y028891D01*
X037571Y028808D01*
X037654Y028744D01*
X037751Y028703D01*
X037836Y028692D01*
X037852Y028645D01*
X036871Y027663D01*
X036205D01*
X036174Y027704D01*
X036091Y027768D01*
X036048Y027786D01*
X036038Y027835D01*
X037214Y02901D01*
X037463D01*
X037466Y028988D01*
D02*
G37*
G36*
X050832Y025557D02*
X050844Y025465D01*
X050897Y025338D01*
X05098Y02523D01*
X051088Y025147D01*
X051141Y025125D01*
Y025075D01*
X051088Y025053D01*
X05098Y02497D01*
X050897Y024862D01*
X050844Y024735D01*
X050827Y0246D01*
X050844Y024465D01*
X050897Y024338D01*
X05098Y02423D01*
X051088Y024147D01*
X051141Y024125D01*
Y024075D01*
X051088Y024053D01*
X05098Y02397D01*
X050897Y023862D01*
X050844Y023735D01*
X050827Y0236D01*
X050844Y023465D01*
X050872Y023397D01*
X050845Y023356D01*
X048465D01*
X048449Y023403D01*
X048476Y023424D01*
X050559Y025506D01*
X050562Y025506D01*
X050667Y025519D01*
X050764Y02556D01*
X050786Y025577D01*
X050832Y025557D01*
D02*
G37*
G36*
X038593Y028626D02*
X038592Y028618D01*
Y02685D01*
X038607Y026772D01*
X03861Y026757D01*
X038621Y02674D01*
X038612Y026671D01*
X038626Y026566D01*
X038666Y026469D01*
X03873Y026386D01*
X038771Y026354D01*
Y026002D01*
X038771Y026D01*
X038626Y025855D01*
X036439D01*
X035466Y026829D01*
X035386Y026882D01*
X035371Y026885D01*
X035293Y026901D01*
X03468D01*
X034649Y026941D01*
X034566Y027005D01*
X034468Y027046D01*
X034364Y027059D01*
X034259Y027046D01*
X034216Y027028D01*
X033964Y027279D01*
X033885Y027332D01*
X033869Y027335D01*
X033846Y02734D01*
X033822Y027384D01*
X033856Y027465D01*
X033873Y0276D01*
X033856Y027735D01*
X033849Y027752D01*
X03389Y02778D01*
X034425Y027245D01*
X034504Y027192D01*
X034504Y027192D01*
X034504Y027192D01*
D01*
X034504Y027192D01*
X034504Y027192D01*
X034598Y027174D01*
X035573D01*
X035604Y027133D01*
X035687Y027069D01*
X035785Y027029D01*
X035889Y027015D01*
X035993Y027029D01*
X036091Y027069D01*
X036174Y027133D01*
X036205Y027174D01*
X036972D01*
X03705Y027189D01*
X037066Y027192D01*
X037145Y027245D01*
X038549Y028649D01*
X038593Y028626D01*
D02*
G37*
G36*
X042038Y028147D02*
Y025152D01*
X041459Y024573D01*
X041408Y02458D01*
X041304Y024566D01*
X041252Y024544D01*
X04121Y024572D01*
Y026381D01*
X041238Y026385D01*
X041335Y026425D01*
X041419Y02649D01*
X041483Y026573D01*
X041523Y02667D01*
X041537Y026775D01*
X041523Y026879D01*
X041483Y026977D01*
X041419Y02706D01*
X041416Y027062D01*
Y028133D01*
X041461Y028155D01*
X041516Y028113D01*
X041613Y028073D01*
X041717Y028059D01*
X041822Y028073D01*
X041919Y028113D01*
X041993Y028169D01*
X042038Y028147D01*
D02*
G37*
G36*
X050877Y027814D02*
X050844Y027735D01*
X050827Y0276D01*
X050844Y027465D01*
X050877Y027386D01*
X050849Y027345D01*
X048603D01*
X048509Y027326D01*
X04843Y027273D01*
X047297Y026141D01*
X047115D01*
X047092Y026185D01*
X047129Y026233D01*
X04716Y026308D01*
X047432Y026581D01*
X047468Y026634D01*
X047486Y02666D01*
X047504Y026754D01*
Y027191D01*
X047489Y027269D01*
X047486Y027285D01*
X047432Y027364D01*
X047354Y027443D01*
X047363Y027492D01*
X047413Y027512D01*
X047496Y027577D01*
X047527Y027617D01*
X047579D01*
X047657Y027633D01*
X047673Y027636D01*
X047752Y027689D01*
X047919Y027855D01*
X050849D01*
X050877Y027814D01*
D02*
G37*
G36*
X030397Y058325D02*
Y05791D01*
X03005D01*
Y05689D01*
X030283D01*
X030299Y056843D01*
X030196Y056764D01*
X03017Y056729D01*
X03012Y056726D01*
X029945Y056901D01*
Y058712D01*
X029991Y058731D01*
X030397Y058325D01*
D02*
G37*
G36*
X030165Y022143D02*
X030246Y022036D01*
X030353Y021955D01*
X030424Y021925D01*
Y021875D01*
X030353Y021845D01*
X030246Y021764D01*
X030165Y021657D01*
X030159Y021645D01*
X0299D01*
X029822Y021629D01*
X029806Y021626D01*
X029727Y021573D01*
X029127Y020973D01*
X029074Y020894D01*
X029071Y020878D01*
X029055Y0208D01*
Y018905D01*
X029009Y018886D01*
X028815Y01908D01*
X028795D01*
Y020999D01*
X029951Y022155D01*
X030159D01*
X030165Y022143D01*
D02*
G37*
G36*
X029124Y058979D02*
X029455Y058649D01*
Y058515D01*
X02941Y058493D01*
X029402Y058499D01*
X029304Y05854D01*
X0292Y058553D01*
X029096Y05854D01*
X028998Y058499D01*
X028915Y058435D01*
X028884Y058395D01*
X028101D01*
X027845Y058651D01*
Y05875D01*
X02805Y058955D01*
X028285Y05872D01*
X028815D01*
X029074Y058979D01*
X029124D01*
D02*
G37*
G36*
X030165Y021143D02*
X030246Y021036D01*
X030353Y020955D01*
X030424Y020925D01*
Y020875D01*
X030353Y020845D01*
X030246Y020764D01*
X030165Y020657D01*
X030113Y020533D01*
X030111Y020519D01*
X030056Y020508D01*
X03003Y02049D01*
X029977Y020455D01*
X029591Y020069D01*
X029545Y020088D01*
Y020699D01*
X030001Y021155D01*
X030159D01*
X030165Y021143D01*
D02*
G37*
G36*
X029927Y056227D02*
X02998Y056192D01*
X030006Y056174D01*
X0301Y056155D01*
X030109D01*
X030115Y056143D01*
X030196Y056036D01*
X030303Y055955D01*
X030374Y055925D01*
Y055875D01*
X030303Y055845D01*
X030196Y055764D01*
X030115Y055657D01*
X030109Y055645D01*
X029701D01*
X029495Y055851D01*
Y056594D01*
X029541Y056613D01*
X029927Y056227D01*
D02*
G37*
G36*
X042655Y024071D02*
Y021144D01*
X04267Y021066D01*
X042674Y02105D01*
X04272Y020981D01*
X042681Y020949D01*
X04121Y02242D01*
Y023314D01*
X041211Y023314D01*
X041275Y023398D01*
X041316Y023495D01*
X041329Y0236D01*
X041316Y023704D01*
X041299Y023743D01*
X04133Y023783D01*
X041408Y023773D01*
X041512Y023786D01*
X041572Y023811D01*
X041616Y023786D01*
X041622Y023735D01*
X041663Y023638D01*
X041727Y023554D01*
X04181Y02349D01*
X041908Y02345D01*
X042012Y023436D01*
X042117Y02345D01*
X042214Y02349D01*
X042297Y023554D01*
X042362Y023638D01*
X042402Y023735D01*
X042416Y023839D01*
X042409Y02389D01*
X042609Y02409D01*
X042655Y024071D01*
D02*
G37*
G36*
X039022Y02504D02*
X038468Y024485D01*
X038398D01*
X037843Y02504D01*
X037862Y025086D01*
X039003D01*
X039022Y02504D01*
D02*
G37*
G36*
X039417Y05365D02*
X039497Y053547D01*
X0396Y053467D01*
X039721Y053417D01*
X03985Y0534D01*
X039979Y053417D01*
X040071Y053456D01*
X04011Y053424D01*
X040105Y0534D01*
Y053259D01*
X04006Y053237D01*
X040049Y053245D01*
X039953Y053285D01*
X0399Y053292D01*
Y0529D01*
Y052508D01*
X039953Y052515D01*
X040049Y052555D01*
X04006Y052563D01*
X040105Y052541D01*
Y049631D01*
X039757Y049282D01*
X035418D01*
X035412Y049281D01*
X035392Y049326D01*
X03543Y049356D01*
X035494Y04944D01*
X035535Y049537D01*
X035548Y049641D01*
X035542Y049692D01*
X037523Y051673D01*
X037576Y051753D01*
X037595Y051846D01*
X037595Y051846D01*
X037595Y051846D01*
Y051846D01*
Y052541D01*
X03764Y052563D01*
X037651Y052555D01*
X037747Y052515D01*
X0378Y052508D01*
Y0529D01*
X0379D01*
Y052508D01*
X037953Y052515D01*
X038049Y052555D01*
X03806Y052563D01*
X038105Y052541D01*
Y051881D01*
X038121Y051803D01*
X038124Y051788D01*
X038177Y051708D01*
X038294Y051592D01*
X038287Y051543D01*
X038301Y051439D01*
X038342Y051342D01*
X038406Y051258D01*
X038489Y051194D01*
X038587Y051154D01*
X038691Y05114D01*
X038795Y051154D01*
X038893Y051194D01*
X038976Y051258D01*
X03904Y051342D01*
X039081Y051439D01*
X039094Y051543D01*
X039081Y051648D01*
X03904Y051745D01*
X038976Y051829D01*
X038893Y051893D01*
X038795Y051933D01*
X038691Y051947D01*
X038638Y05194D01*
X038595Y051983D01*
Y052541D01*
X03864Y052563D01*
X038651Y052555D01*
X038747Y052515D01*
X0388Y052508D01*
Y0529D01*
Y053292D01*
X038747Y053285D01*
X038651Y053245D01*
X03864Y053237D01*
X038607Y053253D01*
X038598Y053302D01*
X038716Y05342D01*
X038721Y053417D01*
X03885Y0534D01*
X038979Y053417D01*
X0391Y053467D01*
X039203Y053547D01*
X039283Y05365D01*
X039325Y053753D01*
X039375D01*
X039417Y05365D01*
D02*
G37*
G36*
X040646Y024557D02*
Y023889D01*
X040641Y023885D01*
X040577Y023801D01*
X040536Y023704D01*
X040523Y0236D01*
X040536Y023495D01*
X040577Y023398D01*
X040614Y023349D01*
X040584Y023309D01*
X040498Y023345D01*
X04043Y023354D01*
X040132Y023651D01*
Y02411D01*
X040599Y024577D01*
X040646Y024557D01*
D02*
G37*
G36*
X045694Y041653D02*
X045695Y041645D01*
X045735Y041548D01*
X045799Y041464D01*
X0458Y041458D01*
X044443Y040102D01*
X044401Y040047D01*
X044375Y039984D01*
X044366Y039916D01*
X044366Y039916D01*
Y039087D01*
X043876Y038598D01*
X043835Y038543D01*
X043808Y03848D01*
X0438Y038412D01*
X0438Y038412D01*
Y037887D01*
X043777Y037869D01*
X043712Y037786D01*
X043672Y037688D01*
X043658Y037584D01*
X043672Y037479D01*
X043712Y037382D01*
X043777Y037299D01*
X04386Y037234D01*
X043957Y037194D01*
X044062Y03718D01*
X044166Y037194D01*
X044264Y037234D01*
X044305Y037266D01*
X04435Y037244D01*
Y036939D01*
X044365Y03686D01*
X044368Y036845D01*
X044421Y036766D01*
X044572Y036615D01*
X044565Y036565D01*
X044579Y03646D01*
X044619Y036363D01*
X044683Y036279D01*
X044767Y036215D01*
X044864Y036175D01*
X044969Y036161D01*
X045073Y036175D01*
X045109Y03619D01*
X045137Y036148D01*
X045015Y036027D01*
X044497D01*
X044404Y036008D01*
X044324Y035955D01*
X04427Y035901D01*
X044219Y035907D01*
X044115Y035894D01*
X044018Y035853D01*
X043934Y035789D01*
X04387Y035706D01*
X04383Y035608D01*
X043816Y035504D01*
X04383Y0354D01*
X04387Y035302D01*
X043934Y035219D01*
X044018Y035155D01*
X044115Y035114D01*
X044219Y0351D01*
X044324Y035114D01*
X044421Y035155D01*
X044505Y035219D01*
X044569Y035302D01*
X044609Y0354D01*
X044623Y035504D01*
X044652Y035537D01*
X044859D01*
X044879Y035491D01*
X043596Y034209D01*
X042232D01*
X04221Y034254D01*
X042226Y034275D01*
X042267Y034373D01*
X042281Y034477D01*
X042267Y034581D01*
X042226Y034679D01*
X042162Y034762D01*
X042122Y034793D01*
Y035545D01*
X042337Y03576D01*
X04239Y035839D01*
X042393Y035855D01*
X042408Y035933D01*
Y037078D01*
X042456Y037094D01*
X042478Y037065D01*
X042551Y037009D01*
X042636Y036974D01*
X042677Y036969D01*
Y037315D01*
Y037661D01*
X042636Y037656D01*
X042551Y037621D01*
X042478Y037565D01*
X042456Y037536D01*
X042408Y037552D01*
Y038431D01*
X045647Y041669D01*
X045694Y041653D01*
D02*
G37*
G36*
X046773Y040445D02*
X046811Y040353D01*
X046875Y040269D01*
X046959Y040205D01*
X047056Y040165D01*
X047148Y040153D01*
Y03816D01*
X045385Y036397D01*
X045343Y036424D01*
X045358Y03646D01*
X045372Y036565D01*
X045358Y036669D01*
X045318Y036766D01*
X045274Y036823D01*
X045287Y036871D01*
X045294Y036874D01*
X045377Y036938D01*
X045442Y037022D01*
X045482Y037119D01*
X045496Y037224D01*
X045482Y037328D01*
X045442Y037425D01*
X045404Y037474D01*
X045972Y038042D01*
X046025Y038121D01*
X046028Y038136D01*
X046044Y038215D01*
Y038935D01*
X047084D01*
Y039935D01*
X04627D01*
X046251Y039981D01*
X046724Y040454D01*
X046773Y040445D01*
D02*
G37*
G36*
X034281Y036945D02*
X034265Y036898D01*
X034244Y036895D01*
X034147Y036855D01*
X034063Y036791D01*
X033999Y036707D01*
X033959Y03661D01*
X033945Y036505D01*
X033955Y036429D01*
X033886Y03636D01*
X033836Y036365D01*
X033822Y036385D01*
X033856Y036465D01*
X033873Y0366D01*
X033856Y036735D01*
X033803Y036862D01*
X03372Y03697D01*
X033612Y037053D01*
X033559Y037075D01*
Y037125D01*
X033612Y037147D01*
X03372Y03723D01*
X033803Y037338D01*
X033811Y037356D01*
X03386Y037366D01*
X034281Y036945D01*
D02*
G37*
G36*
X050565Y03805D02*
Y037653D01*
X04946Y036547D01*
X049412Y036563D01*
X049409Y036587D01*
X049369Y036684D01*
X049305Y036768D01*
X049221Y036832D01*
X049124Y036872D01*
X049019Y036886D01*
X048997Y036883D01*
X048861Y037019D01*
X048883Y037064D01*
X048981Y037051D01*
X049085Y037065D01*
X049182Y037105D01*
X049266Y037169D01*
X049297Y03721D01*
X0495D01*
X049578Y037225D01*
X049593Y037228D01*
X049673Y037281D01*
X050327Y037936D01*
X05041Y03797D01*
X050494Y038034D01*
X050518Y038066D01*
X050565Y03805D01*
D02*
G37*
G36*
X0369Y052508D02*
X036953Y052515D01*
X037049Y052555D01*
X03706Y052563D01*
X037105Y052541D01*
Y051948D01*
X035196Y050038D01*
X035145Y050045D01*
X03504Y050031D01*
X034943Y049991D01*
X034879Y049942D01*
X034834Y049964D01*
Y050035D01*
X036523Y051724D01*
X036576Y051803D01*
X036595Y051897D01*
X036595Y051897D01*
X036595Y051897D01*
Y051897D01*
Y052541D01*
X03664Y052563D01*
X036651Y052555D01*
X036747Y052515D01*
X0368Y052508D01*
Y0529D01*
X0369D01*
Y052508D01*
D02*
G37*
G36*
X031836Y038668D02*
X031827Y0386D01*
X031844Y038465D01*
X031897Y038338D01*
X03198Y03823D01*
X032088Y038147D01*
X032141Y038125D01*
Y038075D01*
X032088Y038053D01*
X03198Y03797D01*
X031897Y037862D01*
X031844Y037735D01*
X031827Y0376D01*
X031835Y037537D01*
X031833Y037535D01*
X03179Y037514D01*
X031531Y037773D01*
X031452Y037826D01*
X031436Y037829D01*
X031358Y037845D01*
X03135D01*
Y03866D01*
X03135D01*
Y03867D01*
X031385Y038705D01*
X031803D01*
X031836Y038668D01*
D02*
G37*
G36*
X034853Y038147D02*
X034885Y038099D01*
X035119Y037864D01*
Y037363D01*
X035073Y037344D01*
X034459Y037958D01*
Y038476D01*
X034505Y038495D01*
X034853Y038147D01*
D02*
G37*
G36*
X031377Y036985D02*
Y036443D01*
X031392Y036365D01*
X031396Y036349D01*
X031449Y03627D01*
X031793Y035925D01*
X031872Y035872D01*
X031846Y035739D01*
X031844Y035735D01*
X031827Y0356D01*
X031838Y035514D01*
X031793Y035492D01*
X031462Y035823D01*
X031383Y035876D01*
X031367Y035879D01*
X031325Y035887D01*
X031301Y035931D01*
X031337Y036017D01*
X031354Y03615D01*
X031337Y036283D01*
X031285Y036407D01*
X031204Y036514D01*
X031097Y036595D01*
X031026Y036625D01*
Y036675D01*
X031097Y036705D01*
X031204Y036786D01*
X031285Y036893D01*
X031328Y036995D01*
X031377Y036985D01*
D02*
G37*
G36*
X029213Y037309D02*
X028377Y036473D01*
X028324Y036394D01*
X028321Y036378D01*
X028305Y0363D01*
Y03568D01*
X028285D01*
X02805Y035445D01*
X027815Y03568D01*
X027795D01*
Y036843D01*
X028307Y037355D01*
X029194D01*
X029213Y037309D01*
D02*
G37*
G36*
X05094Y037282D02*
X05098Y03723D01*
X051088Y037147D01*
X051141Y037125D01*
Y037075D01*
X051088Y037053D01*
X05098Y03697D01*
X050897Y036862D01*
X050844Y036735D01*
X050827Y0366D01*
X050844Y036465D01*
X050897Y036338D01*
X05098Y03623D01*
X051088Y036147D01*
X051141Y036125D01*
Y036075D01*
X051088Y036053D01*
X05098Y03597D01*
X050897Y035862D01*
X050844Y035735D01*
X050827Y0356D01*
X050844Y035465D01*
X050877Y035386D01*
X050849Y035345D01*
X050705D01*
X050678Y035386D01*
X050712Y035469D01*
X050729Y0356D01*
X050712Y035731D01*
X050662Y035852D01*
X050582Y035957D01*
X050477Y036037D01*
X050356Y036087D01*
X050225Y036104D01*
X049975D01*
X049844Y036087D01*
X049723Y036037D01*
X049676Y036001D01*
X049643Y036039D01*
X05089Y037285D01*
X05094Y037282D01*
D02*
G37*
G36*
X046986Y03674D02*
X047007Y036688D01*
X047071Y036605D01*
X047094Y036587D01*
Y03625D01*
X04701Y036215D01*
X046927Y036151D01*
X046862Y036067D01*
X046822Y03597D01*
X046808Y035865D01*
X046822Y035761D01*
X046855Y035681D01*
X046827Y03564D01*
X045891D01*
X045872Y035686D01*
X046936Y03675D01*
X046986Y03674D01*
D02*
G37*
G36*
X035914Y034986D02*
X035904Y034937D01*
X035841Y034911D01*
X035768Y034855D01*
X035715Y034785D01*
X035704D01*
X035646Y034809D01*
X035608Y034859D01*
X035524Y034923D01*
X035427Y034963D01*
X035322Y034977D01*
X035218Y034963D01*
X035121Y034923D01*
X035037Y034859D01*
X034998Y034808D01*
X034995D01*
X034917Y034793D01*
X034901Y03479D01*
X034822Y034737D01*
X03443Y034345D01*
X033851D01*
X033823Y034386D01*
X033856Y034465D01*
X033873Y0346D01*
X033856Y034735D01*
X033803Y034862D01*
X03372Y03497D01*
X033612Y035053D01*
X033559Y035075D01*
Y035125D01*
X033612Y035147D01*
X03372Y03523D01*
X033803Y035338D01*
X033856Y035465D01*
X033873Y0356D01*
X033856Y035735D01*
X033824Y035812D01*
X033852Y035854D01*
X03397D01*
X034048Y035869D01*
X034064Y035872D01*
X034143Y035925D01*
X034323Y036105D01*
X034349Y036102D01*
X034453Y036116D01*
X03455Y036156D01*
X034634Y03622D01*
X034676Y036223D01*
X035914Y034986D01*
D02*
G37*
G36*
X030115Y036893D02*
X030196Y036786D01*
X030303Y036705D01*
X030374Y036675D01*
Y036625D01*
X030303Y036595D01*
X030196Y036514D01*
X030115Y036407D01*
X030109Y036395D01*
X0296D01*
X029506Y036376D01*
X029427Y036323D01*
X028969Y035865D01*
X028916Y035786D01*
X028913Y03577D01*
X028897Y035692D01*
Y035663D01*
X028851Y035644D01*
X028815Y03568D01*
X028795D01*
Y036199D01*
X029501Y036905D01*
X030109D01*
X030115Y036893D01*
D02*
G37*
G36*
X047855Y037603D02*
Y036712D01*
X04787Y036634D01*
X047873Y036618D01*
X047926Y036539D01*
X048023Y036443D01*
X048016Y036392D01*
X04803Y036287D01*
X04807Y03619D01*
X048134Y036107D01*
X048218Y036042D01*
X048315Y036002D01*
X048419Y035988D01*
X048524Y036002D01*
X048621Y036042D01*
X048705Y036107D01*
X048759Y036178D01*
X048818Y036133D01*
X048915Y036093D01*
X048939Y03609D01*
X048955Y036042D01*
X048552Y03564D01*
X047596D01*
X047568Y035681D01*
X047602Y035761D01*
X047615Y035865D01*
X047604Y035953D01*
X04761Y035967D01*
X047619Y036035D01*
Y036587D01*
X047642Y036605D01*
X047706Y036688D01*
X047746Y036786D01*
X04776Y03689D01*
X047746Y036995D01*
X047706Y037092D01*
X047642Y037175D01*
X047558Y03724D01*
X047506Y037261D01*
X047497Y03731D01*
X047808Y037622D01*
X047855Y037603D01*
D02*
G37*
G36*
X030126Y048327D02*
X030196Y048236D01*
X030303Y048155D01*
X030374Y048125D01*
Y048075D01*
X030303Y048045D01*
X030196Y047964D01*
X030115Y047857D01*
X030063Y047733D01*
X030059Y047706D01*
X029491Y047137D01*
X029445Y047156D01*
Y047699D01*
X030071Y048325D01*
X030084Y04833D01*
X030126Y048327D01*
D02*
G37*
G36*
X030115Y049343D02*
X030196Y049236D01*
X030303Y049155D01*
X030374Y049125D01*
Y049075D01*
X030303Y049045D01*
X030196Y048964D01*
X030115Y048857D01*
X030109Y048845D01*
X03D01*
X029906Y048826D01*
X029827Y048773D01*
X029099Y048046D01*
X029049D01*
X028815Y04828D01*
X028795D01*
Y048499D01*
X029651Y049355D01*
X030109D01*
X030115Y049343D01*
D02*
G37*
G36*
X039613Y043564D02*
X039666Y043438D01*
X039749Y043329D01*
X039858Y043246D01*
X039984Y043193D01*
X04012Y043176D01*
X04028D01*
X040416Y043193D01*
X040542Y043246D01*
X04059Y043282D01*
X040635Y04326D01*
Y042046D01*
X040462Y041873D01*
X040417Y041896D01*
X04043Y041958D01*
Y042369D01*
X040414Y042447D01*
X040411Y042463D01*
X040358Y042542D01*
X03956Y04334D01*
Y043587D01*
X03961Y04359D01*
X039613Y043564D01*
D02*
G37*
G36*
X03974Y046234D02*
X039142Y045637D01*
X039089Y045557D01*
X039086Y045542D01*
X039071Y045464D01*
Y043239D01*
X039086Y043161D01*
X039089Y043145D01*
X039142Y043066D01*
X039241Y042968D01*
X039221Y042921D01*
X034775D01*
X034423Y043273D01*
X034344Y043326D01*
X034328Y043329D01*
X03425Y043345D01*
X033851D01*
X033823Y043386D01*
X033856Y043465D01*
X033873Y0436D01*
X033856Y043735D01*
X033803Y043862D01*
X03372Y04397D01*
X033612Y044053D01*
X033485Y044106D01*
X03335Y044123D01*
X033215Y044106D01*
X033088Y044053D01*
X03298Y04397D01*
X032897Y043862D01*
X032875Y043809D01*
X032825D01*
X032803Y043862D01*
X03272Y04397D01*
X032612Y044053D01*
X032485Y044106D01*
X03235Y044123D01*
X032215Y044106D01*
X032088Y044053D01*
X03198Y04397D01*
X031897Y043862D01*
X031844Y043735D01*
X031827Y0436D01*
X031836Y043527D01*
X031801Y043492D01*
X031712Y043503D01*
X031626Y043492D01*
X031592Y043529D01*
X0316Y04357D01*
Y044313D01*
X032135Y044848D01*
X033382D01*
X03341Y044806D01*
X033389Y044756D01*
X033375Y044652D01*
X033389Y044547D01*
X033429Y04445D01*
X033493Y044366D01*
X033577Y044302D01*
X033674Y044262D01*
X033779Y044248D01*
X033883Y044262D01*
X033981Y044302D01*
X03405Y044356D01*
X035842D01*
X035892Y044305D01*
X035876Y044266D01*
X035862Y044162D01*
X035876Y044057D01*
X035916Y04396D01*
X03598Y043877D01*
X036064Y043812D01*
X036161Y043772D01*
X036265Y043758D01*
X03637Y043772D01*
X036467Y043812D01*
X036551Y043877D01*
X036615Y04396D01*
X036655Y044057D01*
X036669Y044162D01*
X036655Y044266D01*
X036615Y044364D01*
X036551Y044447D01*
X036467Y044511D01*
X03637Y044552D01*
X036333Y044556D01*
X036116Y044773D01*
X036076Y0448D01*
X036091Y044848D01*
X037259D01*
X037292Y04481D01*
X03729Y044798D01*
X037304Y044694D01*
X037344Y044596D01*
X037408Y044513D01*
X037492Y044449D01*
X037589Y044408D01*
X037694Y044395D01*
X037798Y044408D01*
X037895Y044449D01*
X037979Y044513D01*
X038043Y044596D01*
X038083Y044694D01*
X038097Y044798D01*
X038083Y044902D01*
X038043Y045D01*
X037979Y045083D01*
X037895Y045147D01*
X037798Y045188D01*
X037694Y045201D01*
X03763Y045193D01*
X037557Y045266D01*
X037498Y045305D01*
X037496Y045355D01*
X037512Y045367D01*
X037576Y045451D01*
X037616Y045548D01*
X037624Y045604D01*
X037671Y045623D01*
X037673Y045624D01*
X037737Y045541D01*
X03782Y045477D01*
X037918Y045436D01*
X038022Y045423D01*
X038126Y045436D01*
X038224Y045477D01*
X038307Y045541D01*
X038371Y045624D01*
X038412Y045722D01*
X038426Y045826D01*
X038412Y04593D01*
X038371Y046028D01*
X038307Y046111D01*
X038286Y046128D01*
X038292Y046178D01*
X03833Y046193D01*
X038414Y046258D01*
X038432Y046281D01*
X039721D01*
X03974Y046234D01*
D02*
G37*
G36*
X03091Y04296D02*
X031007Y04292D01*
X031112Y042906D01*
X031216Y04292D01*
X031301Y042955D01*
X031347Y042935D01*
X031362Y042898D01*
X031427Y042815D01*
X03151Y042751D01*
X031607Y04271D01*
X031712Y042697D01*
X031801Y042708D01*
X031836Y042673D01*
X031827Y0426D01*
X031836Y042528D01*
X031801Y042493D01*
X03175Y0425D01*
X031646Y042486D01*
X031548Y042445D01*
X031465Y042381D01*
X031401Y042298D01*
X03136Y0422D01*
X031347Y042096D01*
X03136Y041992D01*
X031401Y041894D01*
X031465Y041811D01*
X031548Y041747D01*
X031646Y041706D01*
X03175Y041693D01*
X0318Y041699D01*
X031835Y041664D01*
X031827Y0416D01*
X031844Y041465D01*
X031897Y041338D01*
X031893Y041317D01*
X031827Y041273D01*
X031491Y040937D01*
X031467Y040934D01*
X03137Y040893D01*
X031324Y040912D01*
X031323Y040923D01*
X031321Y040927D01*
X031306Y040964D01*
X03134Y041046D01*
X031353Y04115D01*
X03134Y041254D01*
X031299Y041352D01*
X031235Y041435D01*
X031152Y041499D01*
X031054Y04154D01*
X03095Y041553D01*
X030946Y041553D01*
X030813Y041686D01*
Y042978D01*
X030858Y043D01*
X03091Y04296D01*
D02*
G37*
G36*
X046947Y043077D02*
Y0424D01*
X046902Y042378D01*
X046879Y042395D01*
X046782Y042436D01*
X046677Y04245D01*
X046573Y042436D01*
X046475Y042395D01*
X046392Y042331D01*
X046328Y042248D01*
X046287Y04215D01*
X046286Y042142D01*
X046243Y042117D01*
X046189Y042139D01*
X046181Y04214D01*
X046165Y042188D01*
X046337Y04236D01*
X04639Y042439D01*
X046393Y042455D01*
X046409Y042533D01*
Y04355D01*
X046455Y043569D01*
X046947Y043077D01*
D02*
G37*
G36*
X0345Y042504D02*
X03458Y042451D01*
X034595Y042448D01*
X034673Y042432D01*
X037831D01*
X037847Y042385D01*
X037809Y042355D01*
X037801Y042345D01*
X033851D01*
X033823Y042386D01*
X033856Y042465D01*
X033873Y0426D01*
X033856Y042735D01*
X033823Y042814D01*
X033851Y042855D01*
X034149D01*
X0345Y042504D01*
D02*
G37*
G36*
X040389Y041067D02*
X040387Y041065D01*
X040345Y041011D01*
X040319Y040947D01*
X04031Y04088D01*
X04031Y04088D01*
Y040045D01*
X040261Y040035D01*
X040258Y040043D01*
X040194Y040126D01*
X04011Y04019D01*
X040013Y040231D01*
X039909Y040244D01*
X039858Y040238D01*
X03956Y040536D01*
Y040829D01*
X039823Y041092D01*
X040272D01*
X04035Y041108D01*
X040365Y041111D01*
X040389Y041067D01*
D02*
G37*
G36*
X050877Y040814D02*
X050844Y040735D01*
X050827Y0406D01*
X050844Y040465D01*
X050897Y040338D01*
X05098Y04023D01*
X051088Y040147D01*
X051141Y040125D01*
Y040075D01*
X051088Y040053D01*
X05098Y03997D01*
X050897Y039862D01*
X050844Y039735D01*
X050827Y0396D01*
X050844Y039465D01*
X050897Y039338D01*
X050919Y039309D01*
X050913Y039273D01*
X050637Y038997D01*
X050584Y038917D01*
X050581Y038902D01*
X050565Y038824D01*
Y038589D01*
X050518Y038573D01*
X050494Y038605D01*
X05041Y038669D01*
X050313Y038709D01*
X050208Y038723D01*
X050104Y038709D01*
X050007Y038669D01*
X049923Y038605D01*
X049859Y038521D01*
X049819Y038424D01*
X049805Y03832D01*
X049819Y038215D01*
X049847Y038147D01*
X049398Y037699D01*
X049297D01*
X049266Y03774D01*
X049182Y037804D01*
X049085Y037844D01*
X048981Y037858D01*
X048876Y037844D01*
X048779Y037804D01*
X04871Y037751D01*
X048665Y037773D01*
Y037979D01*
X050675Y039989D01*
X050728Y040068D01*
X050747Y040162D01*
Y040826D01*
X050776Y040855D01*
X050849D01*
X050877Y040814D01*
D02*
G37*
G36*
X046432Y041468D02*
Y041251D01*
X045316Y040134D01*
X045263Y040055D01*
X045259Y040039D01*
X045244Y039961D01*
Y038815D01*
X044421Y037992D01*
X044372Y037918D01*
X044324Y037933D01*
Y038304D01*
X044814Y038793D01*
X044814Y038793D01*
X044855Y038848D01*
X044882Y038911D01*
X044891Y038979D01*
Y039808D01*
X04627Y041187D01*
X04627Y041187D01*
X046312Y041241D01*
X046338Y041305D01*
X046338Y041305D01*
X046338Y041305D01*
Y041305D01*
X046347Y041372D01*
X046347Y041372D01*
Y041447D01*
X04637Y041464D01*
X046385Y041484D01*
X046432Y041468D01*
D02*
G37*
G36*
X03198Y04023D02*
X032088Y040147D01*
X032141Y040125D01*
Y040075D01*
X032088Y040053D01*
X03198Y03997D01*
X031897Y039862D01*
X031844Y039735D01*
X031827Y0396D01*
X031844Y039465D01*
X031897Y039338D01*
X031919Y039309D01*
X031913Y039273D01*
X031835Y039195D01*
X031465D01*
X031443Y03924D01*
X031449Y039248D01*
X03149Y039346D01*
X031503Y03945D01*
X03149Y039554D01*
X031449Y039652D01*
X031385Y039735D01*
X031332Y039776D01*
Y040165D01*
X031374Y040193D01*
X031467Y040154D01*
X031571Y040141D01*
X031676Y040154D01*
X031773Y040195D01*
X031857Y040259D01*
X031882Y040292D01*
X031932D01*
X03198Y04023D01*
D02*
G37*
G36*
X039337Y042238D02*
X03933Y042187D01*
X039344Y042083D01*
X039384Y041985D01*
X039444Y041907D01*
X039422Y041862D01*
X039026D01*
X038932Y041843D01*
X038853Y04179D01*
X038409Y041346D01*
X038091D01*
X03807Y041373D01*
X037986Y041437D01*
X037889Y041477D01*
X037785Y041491D01*
X03768Y041477D01*
X037583Y041437D01*
X037499Y041373D01*
X037479Y041346D01*
X036853D01*
X036845Y041345D01*
X033851D01*
X033823Y041386D01*
X033856Y041465D01*
X033873Y0416D01*
X033856Y041735D01*
X033823Y041814D01*
X033851Y041855D01*
X037755D01*
X037809Y041785D01*
X037893Y041721D01*
X03799Y04168D01*
X038094Y041667D01*
X038199Y04168D01*
X038296Y041721D01*
X03838Y041785D01*
X038444Y041868D01*
X038484Y041966D01*
X038498Y04207D01*
X038484Y042175D01*
X038444Y042272D01*
X03838Y042355D01*
X038342Y042385D01*
X038358Y042432D01*
X039142D01*
X039337Y042238D01*
D02*
G37*
G36*
X030148Y046299D02*
X030196Y046236D01*
X030303Y046155D01*
X030427Y046103D01*
X03056Y046086D01*
X03084D01*
X030973Y046103D01*
X031097Y046155D01*
X031188Y046224D01*
X031233Y046202D01*
Y046145D01*
X031196Y04614D01*
X031098Y046099D01*
X031015Y046035D01*
X030951Y045952D01*
X03091Y045854D01*
X030897Y04575D01*
X030897Y045746D01*
X030331Y04518D01*
X030286Y045122D01*
X030266Y045074D01*
X030258Y045054D01*
X030248Y044981D01*
Y041569D01*
X030258Y041496D01*
X030266Y041476D01*
X030286Y041428D01*
X030331Y04137D01*
X030547Y041154D01*
X030547Y04115D01*
X03056Y041046D01*
X030601Y040948D01*
X030665Y040865D01*
X030673Y040858D01*
X030677Y040827D01*
X030685Y040807D01*
X030705Y040759D01*
X03075Y0407D01*
X030768Y040683D01*
Y039674D01*
X030751Y039652D01*
X03071Y039554D01*
X030697Y03945D01*
X03071Y039346D01*
X030751Y039248D01*
X030757Y03924D01*
X030735Y039195D01*
X026651D01*
X026182Y039664D01*
X026204Y039709D01*
X0263Y039697D01*
X026404Y03971D01*
X026502Y039751D01*
X026585Y039815D01*
X026616Y039855D01*
X028784D01*
X028815Y039815D01*
X028898Y039751D01*
X028996Y03971D01*
X0291Y039697D01*
X029204Y03971D01*
X029302Y039751D01*
X029385Y039815D01*
X029449Y039898D01*
X02949Y039996D01*
X029503Y0401D01*
X02949Y040204D01*
X029449Y040302D01*
X029385Y040385D01*
X029302Y040449D01*
X029204Y04049D01*
X0291Y040503D01*
X028996Y04049D01*
X028989Y040487D01*
X028949Y040517D01*
X028953Y04055D01*
X02894Y040654D01*
X028899Y040752D01*
X028835Y040835D01*
X028752Y040899D01*
X028654Y04094D01*
X02855Y040953D01*
X028446Y04094D01*
X028348Y040899D01*
X028265Y040835D01*
X028234Y040795D01*
X027166D01*
X027135Y040835D01*
X027052Y040899D01*
X026954Y04094D01*
X02685Y040953D01*
X026746Y04094D01*
X026648Y040899D01*
X026565Y040835D01*
X026501Y040752D01*
X02646Y040654D01*
X026447Y04055D01*
X026451Y040517D01*
X026411Y040487D01*
X026404Y04049D01*
X0263Y040503D01*
X026196Y04049D01*
X026098Y040449D01*
X02604Y040404D01*
X025995Y040426D01*
Y0405D01*
X025979Y040578D01*
X025976Y040594D01*
X025923Y040673D01*
X02534Y041256D01*
X025343Y041259D01*
X025424Y041412D01*
X025453Y041505D01*
X02705D01*
X027285Y04127D01*
X027815D01*
X02805Y041505D01*
X028285Y04127D01*
X028815D01*
X02908Y041535D01*
Y041555D01*
X0293D01*
X029378Y041571D01*
X029394Y041574D01*
X029473Y041627D01*
X029973Y042127D01*
X030026Y042206D01*
X030045Y0423D01*
Y046249D01*
X030098Y046302D01*
X030148Y046299D01*
D02*
G37*
G36*
X03702Y048745D02*
X036977Y048716D01*
X035043Y046782D01*
X035034Y046783D01*
X034929Y04677D01*
X034876Y046748D01*
X034834Y046775D01*
Y048252D01*
X034876Y04828D01*
X034926Y048259D01*
X03503Y048246D01*
X035135Y048259D01*
X035232Y0483D01*
X035315Y048364D01*
X03538Y048447D01*
X03542Y048545D01*
X035434Y048649D01*
X035427Y0487D01*
X03552Y048793D01*
X037006D01*
X03702Y048745D01*
D02*
G37*
G36*
X0439Y052508D02*
X043953Y052515D01*
X044049Y052555D01*
X04406Y052563D01*
X044105Y052541D01*
Y052482D01*
X044073Y052457D01*
X044009Y052374D01*
X043969Y052276D01*
X043955Y052172D01*
X043969Y052068D01*
X044009Y05197D01*
X044073Y051887D01*
X044157Y051823D01*
X044254Y051782D01*
X044358Y051769D01*
X044463Y051782D01*
X04456Y051823D01*
X044644Y051887D01*
X044708Y05197D01*
X044748Y052068D01*
X044762Y052172D01*
X044748Y052276D01*
X044708Y052374D01*
X044758Y052413D01*
X04485Y0524D01*
X044963Y052415D01*
X044994Y052376D01*
X04496Y052295D01*
X044947Y05219D01*
X04496Y052086D01*
X045001Y051988D01*
X045065Y051905D01*
X045148Y051841D01*
X045246Y0518D01*
X04535Y051787D01*
X045454Y0518D01*
X045552Y051841D01*
X045635Y051905D01*
X045699Y051988D01*
X04574Y052086D01*
X045753Y05219D01*
X04574Y052295D01*
X045706Y052376D01*
X045737Y052415D01*
X04585Y0524D01*
X045979Y052417D01*
X046064Y052452D01*
X046105Y052425D01*
Y051967D01*
X041419Y047281D01*
X037823D01*
X037792Y047322D01*
X037708Y047386D01*
X037611Y047426D01*
X037507Y04744D01*
X037402Y047426D01*
X037305Y047386D01*
X037221Y047322D01*
X037201Y047296D01*
X037188Y0473D01*
X037177Y047349D01*
X037571Y047743D01*
X041429D01*
X041507Y047759D01*
X041523Y047762D01*
X041602Y047815D01*
X042523Y048736D01*
X042576Y048815D01*
X042579Y048831D01*
X042595Y048909D01*
Y052541D01*
X04264Y052563D01*
X042651Y052555D01*
X042747Y052515D01*
X0428Y052508D01*
Y0529D01*
X0429D01*
Y052508D01*
X042953Y052515D01*
X043049Y052555D01*
X04306Y052563D01*
X043076Y052556D01*
X04308Y052506D01*
X043065Y052494D01*
X043001Y05241D01*
X04296Y052313D01*
X042947Y052209D01*
X04296Y052104D01*
X043001Y052007D01*
X043065Y051923D01*
X043148Y051859D01*
X043246Y051819D01*
X04335Y051805D01*
X043454Y051819D01*
X043552Y051859D01*
X043635Y051923D01*
X043699Y052007D01*
X04374Y052104D01*
X043753Y052209D01*
X04374Y052313D01*
X043699Y05241D01*
X043635Y052494D01*
X04362Y052506D01*
X043624Y052556D01*
X04364Y052563D01*
X043651Y052555D01*
X043747Y052515D01*
X0438Y052508D01*
Y0529D01*
X0439D01*
Y052508D01*
D02*
G37*
G36*
X039445Y031691D02*
X039436Y031642D01*
X03936Y03161D01*
X039276Y031546D01*
X039212Y031463D01*
X039172Y031365D01*
X039169Y031344D01*
X039122Y031328D01*
X038421Y032029D01*
Y032649D01*
X038468Y032669D01*
X039445Y031691D01*
D02*
G37*
G36*
X031365Y032242D02*
X031448Y032178D01*
X031546Y032138D01*
X03165Y032124D01*
X031754Y032138D01*
X031852Y032178D01*
X031929Y032238D01*
X031979Y032231D01*
X03198Y03223D01*
X032088Y032147D01*
X032141Y032125D01*
Y032075D01*
X032088Y032053D01*
X03198Y03197D01*
X031897Y031862D01*
X031844Y031735D01*
X031827Y0316D01*
X031844Y031465D01*
X031897Y031338D01*
X03198Y03123D01*
X032088Y031147D01*
X032141Y031125D01*
Y031075D01*
X032088Y031053D01*
X03198Y03097D01*
X031934Y03091D01*
X031885Y030917D01*
X031849Y031002D01*
X031785Y031085D01*
X031702Y031149D01*
X031604Y03119D01*
X0315Y031203D01*
X031396Y03119D01*
X031298Y031149D01*
X031215Y031085D01*
X031184Y031045D01*
X031074D01*
X030755Y031363D01*
X030676Y031416D01*
X03066Y031419D01*
X030582Y031435D01*
X030296D01*
X030277Y031481D01*
X031079Y032283D01*
X031334D01*
X031365Y032242D01*
D02*
G37*
G36*
X049521Y033811D02*
X049488Y033731D01*
X049471Y0336D01*
X049488Y033469D01*
X049538Y033348D01*
X049538Y033348D01*
X049507Y033326D01*
X049507D01*
X049507Y033326D01*
X049428Y033273D01*
X049151Y032996D01*
X049106Y033002D01*
X049001Y032988D01*
X048904Y032948D01*
X048821Y032884D01*
X048757Y0328D01*
X048716Y032703D01*
X048702Y032598D01*
X048716Y032494D01*
X048757Y032397D01*
X048821Y032313D01*
X048904Y032249D01*
X049001Y032209D01*
X049005Y032208D01*
X049021Y032161D01*
X048342Y031482D01*
X048289Y031402D01*
X048286Y031387D01*
X048271Y031309D01*
Y030483D01*
X04823Y030452D01*
X048166Y030369D01*
X048126Y030271D01*
X048112Y030167D01*
X048126Y030063D01*
X048166Y029965D01*
X04823Y029882D01*
X048314Y029818D01*
X048411Y029777D01*
X048515Y029763D01*
X04862Y029777D01*
X048717Y029818D01*
X048801Y029882D01*
X048865Y029965D01*
X048905Y030063D01*
X048919Y030167D01*
X048905Y030271D01*
X048865Y030369D01*
X048801Y030452D01*
X04876Y030483D01*
Y031207D01*
X049408Y031855D01*
X049495D01*
X049522Y031814D01*
X049488Y031731D01*
X049471Y0316D01*
X049488Y031469D01*
X049519Y031395D01*
Y031372D01*
X049501Y031338D01*
X049425Y031323D01*
X049346Y03127D01*
X049235Y031159D01*
X049182Y03108D01*
X049179Y031064D01*
X049164Y030986D01*
Y0298D01*
X049179Y029722D01*
X049182Y029707D01*
X049235Y029627D01*
X049267Y029596D01*
X04926Y029545D01*
X049274Y029441D01*
X049296Y029386D01*
X049269Y029345D01*
X047501D01*
X047407Y029326D01*
X047328Y029273D01*
X047123Y029068D01*
X047078Y02909D01*
X047079Y029095D01*
X047065Y0292D01*
X047025Y029297D01*
X04696Y029381D01*
X046877Y029445D01*
X046797Y029478D01*
Y032737D01*
X046839Y032765D01*
X046878Y032748D01*
X046983Y032735D01*
X047087Y032748D01*
X047185Y032789D01*
X047268Y032853D01*
X047332Y032936D01*
X047373Y033034D01*
X047386Y033138D01*
X047373Y033243D01*
X047332Y03334D01*
X047268Y033423D01*
X047185Y033488D01*
X047096Y033524D01*
X047086Y033573D01*
X047365Y033853D01*
X049493D01*
X049521Y033811D01*
D02*
G37*
G36*
X031499Y035094D02*
Y034443D01*
X031514Y034365D01*
X031517Y034349D01*
X03157Y03427D01*
X031913Y033927D01*
X031919Y033891D01*
X031897Y033862D01*
X031844Y033735D01*
X031827Y0336D01*
X031844Y033465D01*
X031897Y033338D01*
X03198Y03323D01*
X032088Y033147D01*
X032141Y033125D01*
Y033075D01*
X032088Y033053D01*
X03198Y03297D01*
X031909Y032878D01*
X031859Y032871D01*
X031852Y032877D01*
X031754Y032917D01*
X03165Y032931D01*
X031546Y032917D01*
X031448Y032877D01*
X031365Y032813D01*
X031334Y032772D01*
X030978D01*
X030884Y032754D01*
X030858Y032736D01*
X030805Y032701D01*
X030228Y032125D01*
X030184Y032148D01*
X030195Y0322D01*
Y032931D01*
X030873Y033609D01*
X030896Y033643D01*
X030973Y033653D01*
X031097Y033705D01*
X031204Y033786D01*
X031285Y033893D01*
X031337Y034017D01*
X031354Y03415D01*
X031337Y034283D01*
X031285Y034407D01*
X031204Y034514D01*
X031097Y034595D01*
X031026Y034625D01*
Y034675D01*
X031097Y034705D01*
X031204Y034786D01*
X031285Y034893D01*
X031337Y035017D01*
X031354Y03515D01*
X031351Y035175D01*
X031396Y035197D01*
X031499Y035094D01*
D02*
G37*
G36*
X039248Y033673D02*
X039328Y03362D01*
X039343Y033617D01*
X039421Y033602D01*
X039575D01*
X039597Y033557D01*
X03958Y033535D01*
X03954Y033438D01*
X039526Y033333D01*
X03954Y033229D01*
X03958Y033132D01*
X039644Y033048D01*
X039647Y033046D01*
Y03276D01*
X039601Y032741D01*
X038981Y033361D01*
Y033875D01*
X039028Y033894D01*
X039248Y033673D01*
D02*
G37*
G36*
X050876Y030811D02*
X050844Y030735D01*
X050827Y0306D01*
X050844Y030465D01*
X050897Y030338D01*
X05098Y03023D01*
X051088Y030147D01*
X051141Y030125D01*
Y030075D01*
X051088Y030053D01*
X05098Y02997D01*
X050897Y029862D01*
X050844Y029735D01*
X050827Y0296D01*
X050844Y029465D01*
X050877Y029386D01*
X050849Y029345D01*
X050058D01*
X05003Y029386D01*
X050053Y029441D01*
X050067Y029545D01*
X050053Y02965D01*
X050013Y029747D01*
X049949Y029831D01*
X049865Y029895D01*
X049768Y029935D01*
X049663Y029949D01*
X049653Y029958D01*
Y0301D01*
X050725D01*
Y030852D01*
X050848D01*
X050876Y030811D01*
D02*
G37*
G36*
X028872Y030117D02*
X028901Y030048D01*
X028965Y029965D01*
X029048Y029901D01*
X029146Y02986D01*
X02925Y029847D01*
X029354Y02986D01*
X029452Y029901D01*
X029535Y029965D01*
X029599Y030048D01*
X029612Y030078D01*
X029658Y030097D01*
X029746Y03006D01*
X02985Y030047D01*
X029954Y03006D01*
X029965Y030065D01*
X030038Y030079D01*
X030073Y030103D01*
X030118Y030079D01*
Y029455D01*
X030127Y029382D01*
X030135Y029362D01*
X030155Y029314D01*
X0302Y029255D01*
X030492Y028964D01*
X030491Y02896D01*
X030505Y028856D01*
X030545Y028758D01*
X03061Y028675D01*
X030693Y028611D01*
X03079Y02857D01*
X030895Y028557D01*
X030999Y02857D01*
X031097Y028611D01*
X03118Y028675D01*
X031244Y028758D01*
X031256Y028787D01*
X031305Y028778D01*
Y0284D01*
X031314Y028357D01*
X031286Y028315D01*
X031147Y028287D01*
X029624D01*
X029593Y028328D01*
X029509Y028392D01*
X029496Y028397D01*
X029503Y028447D01*
X029604Y02846D01*
X029702Y028501D01*
X029785Y028565D01*
X029849Y028648D01*
X02989Y028746D01*
X029903Y02885D01*
X02989Y028954D01*
X029849Y029052D01*
X029785Y029135D01*
X029702Y029199D01*
X029604Y02924D01*
X0295Y029253D01*
X029396Y02924D01*
X029298Y029199D01*
X029215Y029135D01*
X029181Y029091D01*
X029119Y029079D01*
X029088Y029104D01*
X02908Y029116D01*
Y029415D01*
X028815Y02968D01*
X028795D01*
Y030093D01*
X028833Y030125D01*
X028872Y030117D01*
D02*
G37*
G36*
X050877Y028814D02*
X050844Y028735D01*
X050827Y0286D01*
X050844Y028465D01*
X050877Y028386D01*
X050849Y028345D01*
X047817D01*
X047739Y028329D01*
X047724Y028326D01*
X047644Y028273D01*
X047517Y028146D01*
X047496Y028147D01*
X047413Y028211D01*
X047315Y028252D01*
X047211Y028265D01*
X047176Y028261D01*
X04714Y028296D01*
X047146Y028342D01*
X04714Y028393D01*
X047602Y028855D01*
X050849D01*
X050877Y028814D01*
D02*
G37*
G36*
X034845Y029079D02*
Y02864D01*
X034861Y028562D01*
X034864Y028547D01*
X034917Y028467D01*
X034989Y028396D01*
X034982Y028345D01*
X034996Y028241D01*
X03502Y028183D01*
X034992Y028141D01*
X034854D01*
X034495Y0285D01*
Y028634D01*
X034535Y028665D01*
X034599Y028748D01*
X03464Y028846D01*
X034653Y02895D01*
X03464Y029052D01*
X034704Y02906D01*
X034802Y029101D01*
X034845Y029079D01*
D02*
G37*
G36*
X030879Y030574D02*
X030894Y030571D01*
X030972Y030555D01*
X031184D01*
X031215Y030515D01*
X031225Y030507D01*
X031218Y030458D01*
X031198Y030449D01*
X031115Y030385D01*
X031051Y030302D01*
X03101Y030204D01*
X030997Y0301D01*
X03101Y029996D01*
X031051Y029898D01*
X031115Y029815D01*
X031198Y029751D01*
X031296Y02971D01*
X031305Y029709D01*
Y029142D01*
X031256Y029133D01*
X031244Y029162D01*
X03118Y029245D01*
X031097Y029309D01*
X030999Y02935D01*
X030895Y029363D01*
X030891Y029363D01*
X030682Y029572D01*
Y030463D01*
X030685Y030465D01*
X030749Y030548D01*
X030771Y0306D01*
X030819Y030614D01*
X030879Y030574D01*
D02*
G37*
G36*
X037652Y033686D02*
Y031811D01*
X037668Y031733D01*
X037671Y031718D01*
X037724Y031638D01*
X038668Y030694D01*
Y02946D01*
X038304Y029097D01*
X038257Y029113D01*
X038246Y029197D01*
X038205Y029295D01*
X038141Y029378D01*
X038124Y029391D01*
Y029441D01*
X03814Y029454D01*
X038204Y029538D01*
X038245Y029635D01*
X038258Y029739D01*
X038252Y02979D01*
X038411Y02995D01*
X038464Y030029D01*
X038483Y030123D01*
Y030598D01*
X038464Y030692D01*
X038447Y030718D01*
X038411Y030771D01*
X038256Y030927D01*
X038255Y030928D01*
X038193Y03099D01*
X038114Y031043D01*
X038098Y031046D01*
X03802Y031062D01*
X036344D01*
X035262Y032144D01*
X035231Y032217D01*
X035167Y032301D01*
X035084Y032365D01*
X034986Y032405D01*
X034887Y032418D01*
X034871Y032465D01*
X036652Y034246D01*
X036687Y034299D01*
X036705Y034325D01*
X036723Y034419D01*
Y034549D01*
X03677Y034568D01*
X037652Y033686D01*
D02*
G37*
G36*
X035678Y030308D02*
X035756Y030292D01*
X037253D01*
X037274Y030271D01*
X037279Y030235D01*
X03732Y030138D01*
X037384Y030054D01*
X037467Y02999D01*
X037485Y029983D01*
X037504Y029937D01*
X037465Y029844D01*
X037452Y029739D01*
X037465Y029635D01*
X037504Y029541D01*
X037476Y0295D01*
X037113D01*
X037019Y029481D01*
X03694Y029428D01*
X036301Y028789D01*
X036256Y028811D01*
X036256Y028812D01*
X036242Y028916D01*
X036202Y029014D01*
X036138Y029097D01*
X036054Y029161D01*
X035957Y029202D01*
X035852Y029215D01*
X035802Y029209D01*
X035729Y029282D01*
Y030082D01*
X03571Y030176D01*
X035657Y030255D01*
X035647Y030265D01*
X03567Y030309D01*
X035678Y030308D01*
D02*
G37*
G36*
X035768Y034355D02*
X035841Y034299D01*
X035921Y034266D01*
X035931Y034217D01*
X034855Y033142D01*
X034818Y033175D01*
X034876Y03325D01*
X034916Y033348D01*
X03493Y033452D01*
X034916Y033557D01*
X034876Y033654D01*
X034812Y033737D01*
X034728Y033802D01*
X034647Y033835D01*
X034642Y033885D01*
X034704Y033927D01*
X035053Y034276D01*
X035121Y034224D01*
X035218Y034184D01*
X035322Y03417D01*
X035427Y034184D01*
X035524Y034224D01*
X035608Y034288D01*
X035672Y034372D01*
X035682Y034397D01*
X035732Y034403D01*
X035768Y034355D01*
D02*
G37*
G36*
X049522Y034814D02*
X049488Y034731D01*
X049471Y0346D01*
X049488Y034469D01*
X049523Y034384D01*
X049496Y034342D01*
X047384D01*
X047365Y034388D01*
X047832Y034855D01*
X049495D01*
X049522Y034814D01*
D02*
G37*
G36*
X0419Y052508D02*
X041953Y052515D01*
X042049Y052555D01*
X04206Y052563D01*
X042105Y052541D01*
Y04901D01*
X041328Y048232D01*
X03747D01*
X037392Y048217D01*
X037376Y048214D01*
X037297Y048161D01*
X036736Y047601D01*
X036683Y047521D01*
X03668Y047506D01*
X036665Y047428D01*
Y046603D01*
X03668Y046525D01*
X036683Y046509D01*
X036736Y04643D01*
X037092Y046075D01*
X037082Y046026D01*
X037025Y046002D01*
X036941Y045938D01*
X03691Y045897D01*
X034941D01*
X034881Y045957D01*
X034909Y045999D01*
X034929Y04599D01*
X035034Y045976D01*
X035138Y04599D01*
X035236Y046031D01*
X035319Y046095D01*
X035383Y046178D01*
X035424Y046276D01*
X035437Y04638D01*
X035425Y046472D01*
X037251Y048298D01*
X040704D01*
X040782Y048314D01*
X040798Y048317D01*
X040877Y04837D01*
X041523Y049016D01*
X041576Y049095D01*
X041579Y04911D01*
X041595Y049189D01*
Y052541D01*
X04164Y052563D01*
X041651Y052555D01*
X041747Y052515D01*
X0418Y052508D01*
Y0529D01*
X0419D01*
Y052508D01*
D02*
G37*
G36*
X0409D02*
X040953Y052515D01*
X041049Y052555D01*
X04106Y052563D01*
X041105Y052541D01*
Y04929D01*
X040603Y048788D01*
X040002D01*
X039988Y048835D01*
X040031Y048864D01*
X040523Y049356D01*
X040576Y049436D01*
X040579Y049451D01*
X040595Y04953D01*
Y052541D01*
X04064Y052563D01*
X040651Y052555D01*
X040747Y052515D01*
X0408Y052508D01*
Y0529D01*
X0409D01*
Y052508D01*
D02*
G37*
G36*
X047389Y035104D02*
X046028Y033743D01*
X045634D01*
X045603Y033784D01*
X045519Y033848D01*
X045422Y033888D01*
X045318Y033902D01*
X045213Y033888D01*
X045116Y033848D01*
X045032Y033784D01*
X044968Y0337D01*
X044928Y033603D01*
X044914Y033498D01*
X044928Y033394D01*
X044968Y033297D01*
X045032Y033213D01*
X045055Y033196D01*
Y032739D01*
X04507Y032661D01*
X045074Y032645D01*
X045127Y032566D01*
X04571Y031982D01*
Y029314D01*
X045663Y029298D01*
X045626Y029346D01*
X045563Y029394D01*
X04549Y029425D01*
X045462Y029428D01*
Y029132D01*
Y028836D01*
X04549Y02884D01*
X045563Y02887D01*
X045626Y028918D01*
X045663Y028967D01*
X04571Y028951D01*
Y02809D01*
X045726Y028012D01*
X045728Y028001D01*
X045699Y02796D01*
X045625Y02795D01*
X045552Y02792D01*
X04549Y027872D01*
X045442Y027809D01*
X045411Y027736D01*
X045408Y027708D01*
X045704D01*
Y027658D01*
X045754D01*
Y027362D01*
X045782Y027366D01*
X045855Y027396D01*
X045918Y027444D01*
X045966Y027507D01*
X045996Y02758D01*
X046003Y027633D01*
X04605Y027649D01*
X046452Y027247D01*
X046444Y027236D01*
X046404Y027139D01*
X04639Y027035D01*
X046404Y02693D01*
X046444Y026833D01*
X046508Y026749D01*
Y026749D01*
X046494Y02672D01*
X046494Y02672D01*
X046494D01*
X04643Y026636D01*
X04639Y026539D01*
X046376Y026435D01*
X04639Y02633D01*
X04643Y026233D01*
X046467Y026185D01*
X046445Y026141D01*
X044727D01*
X044719Y026146D01*
X044703Y026149D01*
X044625Y026165D01*
X044165D01*
X044146Y026211D01*
X044958Y027023D01*
X045003Y027081D01*
X045023Y027129D01*
X045031Y027149D01*
X045041Y027223D01*
Y027232D01*
X045044Y027234D01*
X045108Y027318D01*
X045148Y027415D01*
X045162Y02752D01*
X045148Y027624D01*
X045108Y027721D01*
X045044Y027805D01*
X04496Y027869D01*
X044863Y027909D01*
X044758Y027923D01*
X044654Y027909D01*
X044557Y027869D01*
X044473Y027805D01*
X044409Y027721D01*
X044369Y027624D01*
X044355Y02752D01*
X044369Y027415D01*
X044409Y027318D01*
X044429Y027292D01*
X043623Y026487D01*
X04362Y026487D01*
X043515Y026474D01*
X043466Y026453D01*
X043424Y026481D01*
Y029127D01*
X043675Y029378D01*
X043728Y029458D01*
X043731Y029473D01*
X043747Y029551D01*
Y031708D01*
X043731Y031786D01*
X043728Y031802D01*
X043675Y031881D01*
X043087Y032469D01*
X043007Y032523D01*
X042992Y032526D01*
X042914Y032541D01*
X042146D01*
X042115Y032582D01*
X042031Y032646D01*
X041934Y032686D01*
X04183Y0327D01*
X041725Y032686D01*
X041628Y032646D01*
X041544Y032582D01*
X04148Y032498D01*
X04144Y032401D01*
X041426Y032297D01*
X04143Y032272D01*
X041385Y03225D01*
X04091Y032724D01*
Y033134D01*
X040955Y033156D01*
X040971Y033144D01*
X041069Y033103D01*
X041173Y033089D01*
X041278Y033103D01*
X041375Y033144D01*
X041459Y033208D01*
X04149Y033248D01*
X04377D01*
X043848Y033264D01*
X043864Y033267D01*
X043943Y03332D01*
X045072Y034449D01*
X045119Y034433D01*
X045149Y03436D01*
X045197Y034298D01*
X04526Y03425D01*
X045333Y034219D01*
X045361Y034216D01*
Y034512D01*
X045411D01*
Y034562D01*
X045707D01*
X045703Y03459D01*
X045673Y034663D01*
X045625Y034726D01*
X045562Y034774D01*
X04549Y034804D01*
X045474Y03485D01*
X045773Y03515D01*
X047369D01*
X047389Y035104D01*
D02*
G37*
%LPC*%
G36*
X045362Y029082D02*
X045116D01*
X04512Y029054D01*
X04515Y028981D01*
X045198Y028918D01*
X045261Y02887D01*
X045334Y02884D01*
X045362Y028836D01*
Y029082D01*
D02*
G37*
G36*
X043414Y021867D02*
Y021621D01*
X04366D01*
X043656Y021649D01*
X043626Y021722D01*
X043578Y021785D01*
X043515Y021833D01*
X043442Y021863D01*
X043414Y021867D01*
D02*
G37*
G36*
X034442Y03557D02*
X034145D01*
X034151Y035529D01*
X034186Y035444D01*
X034242Y035371D01*
X034315Y035315D01*
X0344Y035279D01*
X034442Y035274D01*
Y03557D01*
D02*
G37*
G36*
X034838D02*
X034542D01*
Y035274D01*
X034583Y035279D01*
X034668Y035315D01*
X034741Y035371D01*
X034797Y035444D01*
X034833Y035529D01*
X034838Y03557D01*
D02*
G37*
G36*
X04366Y021521D02*
X043414D01*
Y021275D01*
X043442Y021279D01*
X043515Y021309D01*
X043578Y021357D01*
X043626Y02142D01*
X043656Y021493D01*
X04366Y021521D01*
D02*
G37*
G36*
X039242Y05285D02*
X0389D01*
Y052508D01*
X038953Y052515D01*
X039049Y052555D01*
X039132Y052618D01*
X039195Y052701D01*
X039235Y052797D01*
X039242Y05285D01*
D02*
G37*
G36*
X0398D02*
X039458D01*
X039465Y052797D01*
X039505Y052701D01*
X039568Y052618D01*
X039651Y052555D01*
X039747Y052515D01*
X0398Y052508D01*
Y05285D01*
D02*
G37*
G36*
X045654Y027608D02*
X045408D01*
X045411Y02758D01*
X045442Y027507D01*
X04549Y027444D01*
X045552Y027396D01*
X045625Y027366D01*
X045654Y027362D01*
Y027608D01*
D02*
G37*
G36*
X0398Y053292D02*
X039747Y053285D01*
X039651Y053245D01*
X039568Y053182D01*
X039505Y053099D01*
X039465Y053003D01*
X039458Y05295D01*
X0398D01*
Y053292D01*
D02*
G37*
G36*
X0389D02*
Y05295D01*
X039242D01*
X039235Y053003D01*
X039195Y053099D01*
X039132Y053182D01*
X039049Y053245D01*
X038953Y053285D01*
X0389Y053292D01*
D02*
G37*
G36*
X042777Y037661D02*
Y037365D01*
X043074D01*
X043068Y037406D01*
X043033Y037491D01*
X042977Y037565D01*
X042904Y037621D01*
X042819Y037656D01*
X042777Y037661D01*
D02*
G37*
G36*
X045707Y034462D02*
X045461D01*
Y034216D01*
X04549Y034219D01*
X045562Y03425D01*
X045625Y034298D01*
X045673Y03436D01*
X045703Y034433D01*
X045707Y034462D01*
D02*
G37*
G36*
X043074Y037265D02*
X042777D01*
Y036969D01*
X042819Y036974D01*
X042904Y037009D01*
X042977Y037065D01*
X043033Y037138D01*
X043068Y037224D01*
X043074Y037265D01*
D02*
G37*
G36*
X045362Y029428D02*
X045334Y029425D01*
X045261Y029394D01*
X045198Y029346D01*
X04515Y029284D01*
X04512Y029211D01*
X045116Y029182D01*
X045362D01*
Y029428D01*
D02*
G37*
G36*
X034542Y035967D02*
Y03567D01*
X034838D01*
X034833Y035712D01*
X034797Y035797D01*
X034741Y03587D01*
X034668Y035926D01*
X034583Y035961D01*
X034542Y035967D01*
D02*
G37*
G36*
X034442D02*
X0344Y035961D01*
X034315Y035926D01*
X034242Y03587D01*
X034186Y035797D01*
X034151Y035712D01*
X034145Y03567D01*
X034442D01*
Y035967D01*
D02*
G37*
%LPD*%
D11*
X044926Y009795D02*
D03*
D19*
X031515Y045965D02*
Y050441D01*
X0313Y04575D02*
X031515Y045965D01*
X031357Y0506D02*
X031515Y050441D01*
X03138Y050577D02*
Y05867D01*
X0307Y0506D02*
X031357D01*
X046007Y017224D02*
X051118D01*
X040928Y022303D02*
X046007Y017224D01*
X040928Y022303D02*
Y02656D01*
X030531Y044981D02*
X0313Y04575D01*
X030531Y041569D02*
Y044981D01*
Y041569D02*
X03095Y04115D01*
X03993Y03251D02*
X041315Y031124D01*
X03993Y03251D02*
Y033333D01*
X043713Y033926D02*
X047713Y037926D01*
X041458Y033926D02*
X043713D01*
X040997Y034388D02*
X041458Y033926D01*
X041133Y026775D02*
X041153Y026794D01*
X041163D01*
X053425Y019532D02*
X053442Y019548D01*
X0313Y0145D02*
X03165D01*
X031Y0148D02*
X0313Y0145D01*
X031Y0148D02*
Y01655D01*
X0313Y01685D01*
X0316Y0168D02*
X03165Y01685D01*
X0313D02*
X03165D01*
X030689Y026166D02*
X030966D01*
X031449Y026649D01*
Y027199D01*
X031324Y027323D02*
X031449Y027199D01*
X031324Y027323D02*
Y027371D01*
X031Y04085D02*
X03105D01*
Y0395D02*
X0311Y03945D01*
X03095Y0409D02*
X031Y04085D01*
X03095Y0409D02*
Y04115D01*
X03105Y0395D02*
Y04085D01*
X03035Y0597D02*
X03138Y05867D01*
X03035Y0597D02*
Y0604D01*
X0304Y029455D02*
X030895Y02896D01*
X0304Y029455D02*
Y03075D01*
X0245Y04975D02*
X02875D01*
X0296Y0506D01*
X0307D01*
X04362Y026084D02*
X044758Y027223D01*
Y02752D01*
X041133Y026775D02*
Y02899D01*
X040928Y02656D02*
X041163Y026794D01*
X041315Y029172D02*
Y031124D01*
X041133Y02899D02*
X041315Y029172D01*
X048276Y023623D02*
X050562Y025909D01*
X045861Y023623D02*
X048276D01*
X045376Y023138D02*
X045861Y023623D01*
X045376Y019527D02*
Y023138D01*
X03279Y01336D02*
X033686D01*
X03165Y0145D02*
X03279Y01336D01*
X047713Y037926D02*
Y04337D01*
X048875Y044532D01*
X049508Y044524D02*
Y044532D01*
X0495Y044499D02*
X049517Y044515D01*
X049492Y044499D02*
X0495D01*
X049508Y044524D02*
X049517Y044515D01*
X048875Y044532D02*
X049508D01*
X051118Y017224D02*
X053425Y019532D01*
X046678Y018225D02*
X046761D01*
X045376Y019527D02*
X046678Y018225D01*
D20*
X03735Y052643D02*
Y053157D01*
X046425Y017619D02*
X05089D01*
X0429Y021144D02*
X046425Y017619D01*
X0429Y021144D02*
Y029816D01*
X031356Y04357D02*
Y044415D01*
X031215Y04343D02*
X031356Y04357D01*
X031215Y04334D02*
Y04343D01*
X031356Y044415D02*
X032033Y045093D01*
X037384D01*
X033779Y044652D02*
X03383Y0446D01*
X033779Y044639D02*
Y044652D01*
X03383Y0446D02*
X035943D01*
X034218Y033596D02*
X034573D01*
X033727Y033106D02*
X034218Y033596D01*
X036479Y034419D02*
Y034767D01*
X034296Y032236D02*
X036479Y034419D01*
X038737Y033259D02*
Y034135D01*
X038457Y033026D02*
Y034019D01*
X038177Y031927D02*
Y033903D01*
X037176Y036091D02*
X039421Y033846D01*
X040039D01*
X037176Y036091D02*
Y036785D01*
X036896Y035975D02*
X038737Y034135D01*
X036896Y035975D02*
Y036155D01*
X037897Y031811D02*
Y033787D01*
X038737Y033259D02*
X03961Y032387D01*
X038457Y033026D02*
X040041Y031441D01*
X03961Y032378D02*
Y032387D01*
X040041Y025317D02*
Y031441D01*
X036127Y036925D02*
X036896Y036155D01*
X032086Y0341D02*
X034531D01*
X032894Y033106D02*
X033727D01*
X034995Y034564D02*
X035322D01*
X034531Y0341D02*
X034995Y034564D01*
X031571Y040671D02*
X032Y0411D01*
X038065Y0421D02*
X038094Y04207D01*
X03425Y0431D02*
X034673Y042677D01*
X040039Y033846D02*
X040382Y033503D01*
Y03251D02*
Y033503D01*
X040488Y033947D02*
Y035049D01*
Y033947D02*
X040665Y03377D01*
Y032623D02*
Y03377D01*
Y032623D02*
X041997Y031291D01*
X03961Y032378D02*
X040321Y031666D01*
X031571Y040544D02*
Y040671D01*
X034673Y042677D02*
X039244D01*
X032068Y042096D02*
X032072Y0421D01*
X03175Y042096D02*
X032068D01*
X045914Y032747D02*
X047264Y034097D01*
X041173Y033493D02*
X04377D01*
X045914Y032747D02*
X045959D01*
X046235Y032471D01*
X051086Y0391D02*
X053086D01*
X046743Y028342D02*
X047501Y0291D01*
X047211Y027862D02*
X047579D01*
X047501Y0291D02*
X054119D01*
X047817Y0281D02*
X055207D01*
X048603Y0271D02*
X051614D01*
X04678Y026435D02*
X046941D01*
X047259Y026754D01*
X047399Y025896D02*
X048603Y0271D01*
X044625Y02592D02*
X044649Y025896D01*
X047399D01*
X043916Y025675D02*
X044161Y02592D01*
X044625D01*
X037897Y031811D02*
X038913Y030795D01*
Y029359D02*
Y030795D01*
X038238Y030123D02*
Y030598D01*
X037855Y029739D02*
X038238Y030123D01*
X037795Y029255D02*
X037856Y029194D01*
X037113Y029255D02*
X037795D01*
X037856Y029093D02*
Y029194D01*
X034598Y027418D02*
X035889D01*
X036972D01*
X038913Y029359D01*
X035754Y027896D02*
X037113Y029255D01*
X034752Y027896D02*
X035754D01*
X049408Y0298D02*
X049663Y029545D01*
X049563D02*
X049663D01*
X049408Y0298D02*
Y030986D01*
X049519Y031097D01*
X051877D01*
Y031127D02*
X05235Y0316D01*
X053086Y0391D02*
X054436Y04045D01*
X0564D01*
X05081Y038824D02*
X051086Y0391D01*
X050674Y0411D02*
X05185D01*
X05235Y0416D01*
X050502Y040928D02*
X050674Y0411D01*
X05049Y0416D02*
X05135D01*
X050222Y041332D02*
X05049Y0416D01*
X040382Y03251D02*
X041717Y031175D01*
X039487Y031234D02*
X039588D01*
X042562Y024389D02*
Y030867D01*
X040321Y025201D02*
Y031666D01*
X039588Y031234D02*
X039748Y031075D01*
Y029693D02*
Y031075D01*
X038177Y031927D02*
X039459Y030645D01*
Y029241D02*
Y030645D01*
X056047Y034097D02*
X0564Y03445D01*
X047264Y034097D02*
X056047D01*
X049601Y0331D02*
X05085D01*
X049307Y0321D02*
X05185D01*
X055861Y03645D02*
X0564D01*
X054511Y0351D02*
X055861Y03645D01*
X0564D01*
X047579Y027862D02*
X047817Y0281D01*
X046261Y023111D02*
X051075D01*
X035185Y024322D02*
X035948Y025084D01*
X034165Y024322D02*
X035185D01*
X033964Y031068D02*
X03509Y029941D01*
X03285Y0291D02*
X03365D01*
X034296Y03127D02*
Y032236D01*
Y03127D02*
X035484Y030082D01*
X03509Y02864D02*
Y029941D01*
X03185Y0281D02*
X033916D01*
X034126Y030249D02*
Y030276D01*
X032Y0271D02*
X033791D01*
X035484Y029181D02*
Y030082D01*
X031743Y034443D02*
X032086Y0341D01*
X031743Y034443D02*
Y035196D01*
X031289Y03565D02*
X031743Y035196D01*
X029815Y03565D02*
X030282D01*
X029142Y034786D02*
Y035692D01*
X02855Y034194D02*
X029142Y034786D01*
X02855Y03315D02*
Y034194D01*
X030591Y03515D02*
X0307D01*
X02965Y034209D02*
X030591Y03515D01*
X02965Y03265D02*
Y034209D01*
X0307Y033782D02*
Y03415D01*
X02995Y033032D02*
X0307Y033782D01*
X02995Y0322D02*
Y033032D01*
X029142Y035692D02*
X0296Y03615D01*
X0324Y0336D02*
X032894Y033106D01*
X035484Y029181D02*
X035852Y028812D01*
X03509Y02864D02*
X035386Y028345D01*
X03425Y028399D02*
X034752Y027896D01*
X03425Y028399D02*
Y02895D01*
X033916Y0281D02*
X034598Y027418D01*
X040393Y022955D02*
Y023044D01*
X039888Y02355D02*
X040393Y023044D01*
X039888Y02355D02*
Y024211D01*
X038401Y023501D02*
X038622D01*
X03774Y023333D02*
Y023661D01*
Y023333D02*
X038745Y022328D01*
X038566Y018272D02*
X038713Y018418D01*
X038943Y018841D02*
X040472D01*
X038694Y018592D02*
X038943Y018841D01*
X038566Y017709D02*
Y018272D01*
X038107Y01725D02*
X038566Y017709D01*
X03205Y01725D02*
X038107D01*
X040188Y018298D02*
X04062D01*
X040188Y018291D02*
Y018298D01*
X040187Y018291D02*
X040188Y018291D01*
X040014Y018291D02*
X040187D01*
X039905Y018182D02*
X040014Y018291D01*
X040472Y018841D02*
X046864Y01245D01*
X04062Y018298D02*
X048568Y01035D01*
X034003Y02058D02*
X03405Y020628D01*
X030404Y01801D02*
Y018023D01*
X033Y01565D02*
X033463Y016113D01*
X0321Y01555D02*
X033103Y016553D01*
X039939Y017083D02*
Y017111D01*
X033919Y01555D02*
X040091D01*
X03285Y0241D02*
X033619D01*
X03285Y0251D02*
X034523D01*
X033086Y0261D02*
X0337D01*
X038297Y02424D02*
X038569D01*
X037453Y025084D02*
X038297Y02424D01*
X035948Y025084D02*
X037453D01*
X038728Y025611D02*
X039017Y0259D01*
X036338Y025611D02*
X038728D01*
X035293Y026656D02*
X036338Y025611D01*
X035672Y025331D02*
X039263D01*
X035338Y025664D02*
X035672Y025331D01*
X039017Y0259D02*
Y026003D01*
X039016Y026002D02*
Y026671D01*
Y026002D02*
X039017Y026003D01*
X03804Y02396D02*
X038685D01*
X03774Y023661D02*
X03804Y02396D01*
X034364Y026656D02*
X035293D01*
X033791Y0271D02*
Y027106D01*
X034241Y026656D01*
X034364D01*
X034983Y02618D02*
X035058Y026104D01*
X034983Y02618D02*
Y026185D01*
X033785D02*
X034983D01*
X0337Y0261D02*
X033785Y026185D01*
X034125Y025664D02*
X035338D01*
X034654Y025107D02*
X034667Y025094D01*
X03453Y025107D02*
X034654D01*
X034523Y0251D02*
X03453Y025107D01*
X03405Y020628D02*
Y023669D01*
X033619Y0241D02*
X03405Y023669D01*
X049103Y032602D02*
X049601Y0331D01*
X05085D02*
X05135Y0326D01*
X051614Y0321D02*
X05185D01*
X05235Y0326D01*
X048515Y031309D02*
X049307Y0321D01*
X048515Y030167D02*
Y031309D01*
X051614Y0271D02*
X052114Y0266D01*
X048909Y027096D02*
X048913Y0271D01*
X052114Y0266D02*
X05235D01*
X048965D02*
X05135D01*
X0245Y02915D02*
X02755D01*
X0245Y02715D02*
X02755D01*
X027546Y012454D02*
X02755Y01245D01*
X02455Y012454D02*
X027546D01*
Y014454D02*
X02755Y01445D01*
X02455Y014454D02*
X027546D01*
X02733Y018454D02*
X027426Y01855D01*
X02855Y01245D02*
X0296D01*
X0299Y01275D01*
Y01905D01*
X03025Y0194D01*
X03075D01*
X02855Y01445D02*
X02915D01*
X0296Y0149D01*
Y019732D01*
X03015Y020282D01*
X030632D01*
X03075Y0204D01*
X02855Y01655D02*
X0291D01*
X0293Y01675D01*
Y0208D01*
X0299Y0214D01*
X03075D01*
X02985Y0224D02*
X03075D01*
X02455Y018454D02*
X02733D01*
X027504D01*
X02855Y03515D02*
Y0363D01*
X0294Y03715D01*
X0307D01*
X0296Y03615D02*
X0307D01*
X02755Y02715D02*
Y02785D01*
X02785Y02815D01*
X0245Y04775D02*
X02755D01*
X0245Y04575D02*
X0275D01*
X02755Y0458D01*
X0245Y04375D02*
X0275D01*
X0245Y04175D02*
X0275D01*
X02455Y0542D02*
X02685D01*
X02755Y0535D01*
Y05315D02*
Y0535D01*
X02455Y0562D02*
X02685D01*
X02755Y0555D01*
Y0552D02*
Y0555D01*
X02855Y05925D02*
X0292D01*
X02925Y05575D02*
X0296Y0554D01*
X0307D01*
X0301Y0564D02*
X0307D01*
X0297Y0568D02*
X0301Y0564D01*
X0297Y0568D02*
Y05875D01*
X0292Y05925D02*
X0297Y05875D01*
X02855Y0572D02*
X029D01*
X02925Y05695D01*
Y05575D02*
Y05695D01*
X02855Y0552D02*
X02885D01*
X02965Y0544D01*
X03055D01*
X02855Y05315D02*
X0303D01*
X03055Y0534D01*
X02455Y0602D02*
X02695D01*
X02755Y0596D01*
Y05925D02*
Y0596D01*
X0276Y05855D02*
X028Y05815D01*
X0276Y05855D02*
Y0592D01*
X02755Y05925D02*
X0276Y0592D01*
X028Y05815D02*
X0292D01*
X02955Y0496D02*
X03065D01*
X02855Y0486D02*
X02955Y0496D01*
X02855Y04775D02*
Y0486D01*
X03D02*
X03065D01*
X0292Y0478D02*
X03Y0486D01*
X02855Y0458D02*
X0289D01*
X0292Y0461D01*
Y0478D01*
X0303Y0476D02*
X03065D01*
X0295Y0468D02*
X0303Y0476D01*
X0295Y04425D02*
Y0468D01*
X02905Y0438D02*
X0295Y04425D01*
X02855Y0438D02*
X02905D01*
X03005Y0466D02*
X03065D01*
X0298Y04635D02*
X03005Y0466D01*
X0298Y0423D02*
Y04635D01*
X0293Y0418D02*
X0298Y0423D01*
X02855Y0418D02*
X0293D01*
X02785Y02815D02*
X0285D01*
X0292Y02885D01*
X0295D01*
X03025Y02415D02*
X0303Y0242D01*
X0245Y02515D02*
X02755D01*
Y0246D02*
Y02515D01*
Y0246D02*
X028Y02415D01*
X03025D01*
X03235Y0296D02*
X03285Y0301D01*
X03235Y0336D02*
X0324D01*
X03235Y0266D02*
X03285Y0261D01*
X033086D01*
X03235Y0256D02*
X03285Y0251D01*
X03235Y0246D02*
X03285Y0241D01*
X02455Y016454D02*
X027554D01*
X03235Y0286D02*
X03285Y0291D01*
X03365D02*
X03415Y0296D01*
X03445D01*
X0346Y02945D01*
X0314Y0301D02*
X03155Y02995D01*
Y0284D02*
Y02995D01*
Y0284D02*
X03185Y0281D01*
X033036Y0261D02*
X033086D01*
X048568Y01035D02*
X05565D01*
X05575Y01045D01*
X046864Y01245D02*
X05575D01*
X0284Y0234D02*
X0292Y0226D01*
X0274Y0234D02*
X0284D01*
X02685Y02395D02*
X0274Y0234D01*
X02625Y01995D02*
Y0245D01*
X0262Y02455D02*
X02625Y0245D01*
X0245Y03315D02*
X02455D01*
X02755D01*
X0262Y0241D02*
Y02455D01*
X031764Y027336D02*
X032Y0271D01*
X029307Y028043D02*
X031407D01*
X031764Y027686D01*
Y027336D02*
Y027686D01*
X0245Y03115D02*
X02455D01*
X02755D01*
X02855D02*
Y03155D01*
X030972Y0308D02*
X0315D01*
X030582Y03119D02*
X030972Y0308D01*
X03009Y03119D02*
X030582D01*
X02855Y03155D02*
X02965Y03265D01*
X030978Y032528D02*
X03165D01*
X02952Y03107D02*
X030978Y032528D01*
X02855Y0302D02*
X02916Y03081D01*
X029945Y031045D02*
X03009Y03119D01*
X02916Y03081D02*
Y03141D01*
X02995Y0322D01*
X02855Y02915D02*
Y0302D01*
X02941Y030632D02*
X02952Y030742D01*
X02941Y03061D02*
Y030632D01*
X02952Y030742D02*
Y03107D01*
X0293Y0305D02*
X02941Y03061D01*
X02985Y0304D02*
X029945Y030305D01*
X02985Y0304D02*
Y03045D01*
X02925Y03025D02*
X0293D01*
X029945Y030305D02*
Y031045D01*
X0293Y03025D02*
Y0305D01*
X0263Y0401D02*
X0291D01*
X02685Y04055D02*
X02855D01*
X0245Y04175D02*
X02575Y0405D01*
Y03975D02*
Y0405D01*
Y03975D02*
X02655Y03895D01*
X031936D01*
X032086Y0391D01*
X02855Y0211D02*
X02985Y0224D01*
X02855Y01855D02*
Y0211D01*
X05633Y03038D02*
X0564Y03045D01*
X054119Y0291D02*
X055396Y030377D01*
X055937D01*
X056214Y0301D01*
X056446D01*
X056598Y030252D01*
X055557Y02845D02*
X0564D01*
X055207Y0281D02*
X055557Y02845D01*
X047882Y025517D02*
X048965Y0266D01*
X044607Y025517D02*
X047882D01*
X044601Y025511D02*
X044607Y025517D01*
X044325Y025511D02*
X044601D01*
X044298Y02548D02*
X044443D01*
X034882Y032015D02*
X035044D01*
X038082Y030754D02*
Y030755D01*
Y030754D02*
X038238Y030598D01*
X037552Y030339D02*
X037669D01*
X035044Y032015D02*
X036243Y030817D01*
X03802D01*
X038082Y030755D01*
X037354Y030537D02*
X037552Y030339D01*
X035756Y030537D02*
X037354D01*
X034891Y031402D02*
X035756Y030537D01*
X030262Y03565D02*
X031289D01*
X029422Y035257D02*
X029815Y03565D01*
X029422Y034517D02*
Y035257D01*
X029206Y0343D02*
X029422Y034517D01*
X029206Y032894D02*
Y0343D01*
X028664Y032352D02*
X029206Y032894D01*
X027856Y032352D02*
X028664D01*
X02755Y032658D02*
X027856Y032352D01*
X02755Y032658D02*
Y03315D01*
X03285Y0301D02*
X0341D01*
X033964Y031068D02*
Y032687D01*
X034173Y032897D01*
X051041Y023111D02*
X054713D01*
X056052Y02445D01*
X0564D01*
X039263Y025331D02*
X039466Y025533D01*
X038569Y02424D02*
X039746Y025417D01*
Y026063D01*
X039761Y026078D01*
X039746Y026094D02*
X039761Y026078D01*
X038685Y02396D02*
X040041Y025317D01*
X038622Y023501D02*
X040321Y025201D01*
X039888Y024211D02*
X040601Y024925D01*
X039466Y025533D02*
Y027708D01*
X039346Y027827D02*
X039466Y027708D01*
X039346Y027827D02*
Y028465D01*
X039332Y02848D02*
X039346Y028465D01*
X038836Y02685D02*
X039016Y026671D01*
X038836Y02685D02*
Y028618D01*
X043916Y025082D02*
Y025475D01*
Y025029D02*
Y025082D01*
Y025675D01*
X042012Y023839D02*
X042562Y024389D01*
X041408Y024176D02*
X042282Y02505D01*
X04318Y022611D02*
Y029229D01*
Y022611D02*
X043537Y022253D01*
X04368D01*
X0429Y029816D02*
X043026Y029942D01*
X04318Y029229D02*
X043502Y029551D01*
X042282Y02505D02*
Y028686D01*
X041997Y028971D02*
X042282Y028686D01*
X041997Y028971D02*
Y031291D01*
X041717Y028462D02*
Y031175D01*
X039746Y026094D02*
Y029691D01*
X039748Y029693D01*
X038836Y028618D02*
X039459Y029241D01*
X040601Y024925D02*
Y030425D01*
X040834Y030658D01*
X043026Y029942D02*
X043026Y029943D01*
Y031413D01*
X042675Y031765D02*
X043026Y031413D01*
X042288Y031765D02*
X042288Y031765D01*
X042675D01*
X042288Y031765D02*
X042288Y031765D01*
X043502Y029551D02*
Y031708D01*
X042914Y032296D02*
X043502Y031708D01*
X04183Y032297D02*
X041847Y032314D01*
X04183Y032297D02*
X04183Y032296D01*
X042914D01*
X055186Y01845D02*
X05575D01*
X054261Y02099D02*
X05494D01*
X0564Y02245D01*
X02755Y03515D02*
Y036944D01*
X028206Y0376D01*
X031358D01*
X0245Y03515D02*
X02455D01*
X02755D01*
X031622Y036443D02*
X031966Y036098D01*
X03397D01*
X031358Y0376D02*
X031622Y037337D01*
Y036443D02*
Y037337D01*
X035721Y036755D02*
X038457Y034019D01*
X036087Y037875D02*
X037176Y036785D01*
X035364Y036716D02*
Y037966D01*
Y036716D02*
X038177Y033903D01*
X035073Y036611D02*
X037897Y033787D01*
X034789Y036457D02*
X036479Y034767D01*
X03397Y036098D02*
X034332Y03646D01*
Y036489D01*
X034349Y036505D01*
X034287Y036567D02*
X034349Y036505D01*
X033934Y037637D02*
X034789Y036783D01*
Y036457D02*
Y036783D01*
X034214Y037856D02*
Y038898D01*
Y037856D02*
X035073Y036998D01*
Y036611D02*
Y036998D01*
X036087Y037875D02*
Y03884D01*
X034179Y039391D02*
X034222Y039347D01*
X034135Y039347D02*
X034179Y039391D01*
X034135Y039347D02*
Y039347D01*
X031712Y0431D02*
X03425D01*
X0339Y0401D02*
X034196D01*
X035721Y036755D02*
Y038575D01*
X034298Y040628D02*
X036087Y03884D01*
X034196Y0401D02*
X035721Y038575D01*
X035058Y038272D02*
X035364Y037966D01*
X035058Y038272D02*
Y038288D01*
X034635Y038711D02*
X035058Y038288D01*
X034635Y038711D02*
Y038902D01*
X037384Y045093D02*
X037686Y044791D01*
X04685Y053657D02*
Y0539D01*
X04635Y053157D02*
X04685Y053657D01*
X035943Y0446D02*
X036323Y04422D01*
X045116Y035782D02*
X047393Y038059D01*
X047191Y041268D02*
Y043179D01*
X046348Y044022D02*
X047191Y043179D01*
X046348Y044022D02*
Y044324D01*
X04535Y0534D02*
X04585Y0539D01*
X04535Y05219D02*
Y0534D01*
Y043396D02*
X045484Y043262D01*
Y042645D02*
Y043262D01*
X044981Y04497D02*
X045002D01*
X046164Y042533D02*
Y043808D01*
X045002Y04497D02*
X046164Y043808D01*
X04579Y042555D02*
Y043683D01*
X043602Y045871D02*
X04579Y043683D01*
X04435Y0534D02*
X04485Y0539D01*
X04435Y052172D02*
Y0534D01*
X044177Y045774D02*
X044981Y04497D01*
X044177Y045774D02*
Y046544D01*
X043602Y045871D02*
Y045936D01*
X04335Y0534D02*
X04385Y0539D01*
X04335Y052209D02*
Y0534D01*
X04235D02*
X04285Y0539D01*
X04235Y048909D02*
Y0534D01*
X036853Y041102D02*
X03851D01*
X037507Y047036D02*
X04152D01*
X04635Y051866D01*
Y053157D01*
X039315Y040434D02*
X039909Y039841D01*
X039244Y042677D02*
X039733Y042187D01*
X040185Y041958D02*
Y042369D01*
X039315Y043239D02*
X040185Y042369D01*
X039315Y043239D02*
Y045464D01*
X039844Y041617D02*
X040185Y041958D01*
X039026Y041617D02*
X039844D01*
X03851Y041102D02*
X039026Y041617D01*
X039315Y040434D02*
Y040931D01*
X039722Y041337D01*
X040272D01*
X04088Y041944D01*
X040424Y0447D02*
X04088Y044244D01*
X0402Y0447D02*
X040424D01*
X04088Y041944D02*
Y044244D01*
X04135Y0534D02*
X04185Y0539D01*
X04135Y049189D02*
Y0534D01*
X04035D02*
X04085Y0539D01*
X04035Y04953D02*
Y0534D01*
X03835D02*
X03885Y0539D01*
X03835Y051881D02*
Y0534D01*
X03735D02*
X03785Y0539D01*
X03735Y053157D02*
Y0534D01*
X03635D02*
X03685Y0539D01*
X03635Y051897D02*
Y0534D01*
X041429Y047988D02*
X04235Y048909D01*
X036909Y046603D02*
X037371Y046141D01*
X036909Y046603D02*
Y047428D01*
X03747Y047988D01*
X041429D01*
X040704Y048543D02*
X04135Y049189D01*
X03715Y048543D02*
X040704D01*
X035034Y046427D02*
X03715Y048543D01*
X03835Y051881D02*
X038688Y051543D01*
X038691D01*
X033275Y0539D02*
X03585D01*
X033183Y053808D02*
Y053887D01*
X033223Y053926D01*
X033183Y053808D02*
X033275Y0539D01*
X03459Y050137D02*
X03635Y051897D01*
X035145Y049641D02*
X03735Y051846D01*
Y052643D01*
X03503Y048649D02*
X035418Y049037D01*
X039858D01*
X04035Y04953D01*
X032072Y0421D02*
X038134D01*
X032Y0411D02*
X036921D01*
X03459Y045902D02*
Y050137D01*
Y045902D02*
X034839Y045653D01*
X037227D01*
X035034Y04638D02*
Y046427D01*
X034135Y038977D02*
X034214Y038898D01*
X034135Y038977D02*
Y039347D01*
X032086Y0391D02*
X03361D01*
X033934Y038776D01*
Y037637D02*
Y038776D01*
X033538Y054911D02*
X039161D01*
X03985Y054222D01*
Y0539D02*
Y054222D01*
X048792Y058187D02*
X049227Y057752D01*
Y056293D02*
Y057752D01*
X049085Y056151D02*
X049227Y056293D01*
X048572Y056151D02*
X049085D01*
X040037Y046185D02*
X041954D01*
X039315Y045464D02*
X040037Y046185D01*
X041954D02*
X04362Y047852D01*
X051198D01*
X054045Y045006D01*
Y043601D02*
Y045006D01*
X046677Y04115D02*
Y042046D01*
X047113Y040602D02*
X047393Y040322D01*
Y038059D02*
Y040322D01*
X0451Y037516D02*
X045799Y038215D01*
Y03903D01*
X045794Y039035D02*
X045799Y03903D01*
X044594Y037819D02*
X045489Y038713D01*
Y039961D01*
X045794Y039035D02*
Y03987D01*
X047191Y041268D01*
X045489Y039961D02*
X046677Y04115D01*
X044594Y036939D02*
Y037819D01*
Y036939D02*
X044969Y036565D01*
X0451Y037158D02*
Y037516D01*
X04377Y033493D02*
X045672Y035395D01*
X05081Y037551D02*
Y038824D01*
X045672Y035395D02*
X048654D01*
X05081Y037551D01*
X048981Y036521D02*
X049019Y036482D01*
X048981Y036521D02*
Y036553D01*
X048099Y036712D02*
X048419Y036392D01*
X04842Y037113D02*
X048981Y036553D01*
X04842Y037113D02*
Y03808D01*
X050502Y040162D01*
Y040928D01*
X050222Y040278D02*
Y041332D01*
X048099Y038155D02*
X050222Y040278D01*
X048099Y036712D02*
Y038155D01*
X048981Y037454D02*
X0495D01*
X050225Y03818D01*
X050208Y038196D02*
X050225Y03818D01*
X050208Y038196D02*
Y03832D01*
X054045Y043601D02*
X055152Y042494D01*
X056356D01*
X0564Y04245D01*
X053587Y016851D02*
X055186Y01845D01*
X042348Y017669D02*
X043166Y016851D01*
X053587D01*
X05089Y017619D02*
X054261Y02099D01*
X037371Y046141D02*
X037707D01*
X038022Y045826D01*
X032741Y019776D02*
X03703D01*
X03235Y020168D02*
X032741Y019776D01*
X038146Y021514D02*
X039688D01*
X037412Y022248D02*
X038146Y021514D01*
X035947Y022248D02*
X037412D01*
X034443Y020744D02*
X035947Y022248D01*
X034443Y020398D02*
Y020744D01*
X034132Y020087D02*
X034443Y020398D01*
X033743Y020087D02*
X034132D01*
X03335Y02048D02*
X033743Y020087D01*
X03335Y02048D02*
Y0216D01*
X038969Y016113D02*
X039939Y017083D01*
X033463Y016113D02*
X038969D01*
X033103Y016553D02*
X036248D01*
X03235Y020168D02*
Y0216D01*
X033167Y018023D02*
X033184Y018006D01*
X030404Y018023D02*
X033167D01*
X048622Y021551D02*
X051301D01*
X05135Y0216D01*
X05235D01*
X040488Y035049D02*
X041604Y036165D01*
Y038764D01*
X045484Y042645D01*
X041354Y034929D02*
Y035519D01*
X041884Y036049D01*
Y038648D01*
X041877Y034477D02*
Y035647D01*
X042164Y035933D01*
Y038532D01*
X041884Y038648D02*
X04579Y042555D01*
X042164Y038532D02*
X046164Y042533D01*
X040904Y037281D02*
X041164D01*
X040755Y037132D02*
X040904Y037281D01*
X038627Y037132D02*
X040755D01*
X035961Y039798D02*
X038627Y037132D01*
X038978Y035278D02*
X039697D01*
X041164Y036744D01*
Y037281D01*
X035961Y039798D02*
Y040055D01*
X036001Y040094D01*
X035003Y03562D02*
X036018Y034605D01*
X034492Y03562D02*
X035003D01*
X042824Y040867D02*
Y041406D01*
X043381Y041963D01*
Y043519D01*
X0432Y0437D02*
X043381Y043519D01*
X045412Y029132D02*
Y031983D01*
X044465Y03293D02*
X045412Y031983D01*
X044465Y03293D02*
Y033679D01*
X044497Y035782D02*
X045116D01*
X044219Y035504D02*
X044497Y035782D01*
X044465Y033679D02*
X045243Y034456D01*
X045411Y034487D02*
Y034512D01*
Y034487D02*
X045442Y034456D01*
X045243D02*
X045442D01*
X0453Y032739D02*
X045955Y032084D01*
X0453Y032739D02*
Y03348D01*
X045318Y033498D01*
X046129D01*
X047731Y0351D01*
X054511D01*
X045955Y02809D02*
Y032084D01*
Y02809D02*
X046794Y027251D01*
Y026977D02*
Y027251D01*
X046793Y026977D02*
X046794Y026977D01*
X046793Y026977D02*
Y027035D01*
X046235Y028206D02*
X046966Y027475D01*
X046976D01*
X046235Y028206D02*
Y032471D01*
X046976Y027475D02*
X047259Y027191D01*
Y026754D02*
Y027191D01*
X045412Y02795D02*
X045704Y027658D01*
X045412Y02795D02*
Y029132D01*
D21*
X044062Y037584D02*
Y038412D01*
X044628Y038979D01*
X040572Y037572D02*
Y04088D01*
X044628Y038979D02*
Y039916D01*
X046085Y041372D01*
X040572Y04088D02*
X04199Y042297D01*
X042243D01*
X047155Y049066D02*
X052293D01*
X053677Y05045D01*
X05675D01*
X047356Y036035D02*
Y03689D01*
X047212Y03589D02*
X047356Y036035D01*
X047212Y035865D02*
Y03589D01*
X038789Y019463D02*
X042289D01*
X036955Y021296D02*
X038789Y019463D01*
X036941Y021296D02*
X036955D01*
X038129Y046543D02*
X04169D01*
X043654Y048507D01*
X046596D01*
X047155Y049066D01*
X046085Y041372D02*
Y04175D01*
X046535Y029235D02*
X046675Y029095D01*
X046535Y029235D02*
Y032856D01*
X04687Y033192D01*
X046924Y033138D02*
X046983D01*
X04687Y033192D02*
X046924Y033138D01*
D22*
X02445Y0622D02*
X0261D01*
X02795Y06035D01*
X03055Y0574D02*
X0307Y05755D01*
X02795Y06035D02*
X0288D01*
X0307Y05845D01*
Y05755D02*
Y05845D01*
X054425Y024581D02*
X056294Y02645D01*
X0564D01*
X03581Y013807D02*
Y014965D01*
X032457Y010454D02*
X03581Y013807D01*
X02455Y010454D02*
X032457D01*
D23*
X02455Y0582D02*
X02655D01*
X02755Y0572D01*
D24*
X0567Y06195D02*
D03*
X02855D02*
D03*
X03595Y01055D02*
D03*
D25*
X051312Y05671D02*
D03*
X032788D02*
D03*
D26*
X035528Y056151D02*
D03*
X036071Y057269D02*
D03*
X036615Y056151D02*
D03*
X037158Y057269D02*
D03*
X037702Y056151D02*
D03*
X038245Y057269D02*
D03*
X038789Y056151D02*
D03*
X039332Y057269D02*
D03*
X039876Y056151D02*
D03*
X040419Y057269D02*
D03*
X040963Y056151D02*
D03*
X041507Y057269D02*
D03*
X04205Y056151D02*
D03*
X042593Y057269D02*
D03*
X043137Y056151D02*
D03*
X043681Y057269D02*
D03*
X044224Y056151D02*
D03*
X044768Y057269D02*
D03*
X045311Y056151D02*
D03*
X045855Y057269D02*
D03*
X046398Y056151D02*
D03*
X046942Y057269D02*
D03*
X047485Y056151D02*
D03*
X048029Y057269D02*
D03*
D27*
X048572Y056151D02*
D03*
D28*
X0245Y03975D02*
D03*
Y04175D02*
D03*
Y04375D02*
D03*
Y04575D02*
D03*
Y04775D02*
D03*
X02455Y03515D02*
D03*
Y03315D02*
D03*
Y03115D02*
D03*
Y02915D02*
D03*
Y02715D02*
D03*
Y02515D02*
D03*
Y02315D02*
D03*
Y0522D02*
D03*
Y0542D02*
D03*
Y0562D02*
D03*
Y0582D02*
D03*
Y0602D02*
D03*
Y010454D02*
D03*
Y012454D02*
D03*
Y014454D02*
D03*
Y016454D02*
D03*
Y018454D02*
D03*
X0564Y01245D02*
D03*
Y01445D02*
D03*
Y01645D02*
D03*
Y01845D02*
D03*
Y02045D02*
D03*
Y02245D02*
D03*
Y02445D02*
D03*
Y02645D02*
D03*
Y02845D02*
D03*
Y03045D02*
D03*
Y03245D02*
D03*
Y03445D02*
D03*
Y03645D02*
D03*
Y03845D02*
D03*
Y04045D02*
D03*
Y04245D02*
D03*
Y04445D02*
D03*
D29*
X0245Y04975D02*
D03*
X02455Y03715D02*
D03*
Y0622D02*
D03*
Y020454D02*
D03*
X0564Y01045D02*
D03*
D30*
X03335Y0216D02*
D03*
X05235D02*
D03*
D31*
X03235D02*
D03*
X03335Y0226D02*
D03*
X03235D02*
D03*
X03335Y0236D02*
D03*
X03235D02*
D03*
X03335Y0246D02*
D03*
X03235D02*
D03*
X03335Y0256D02*
D03*
X03235D02*
D03*
X03335Y0266D02*
D03*
X03235D02*
D03*
X03335Y0276D02*
D03*
X03235D02*
D03*
X03335Y0286D02*
D03*
X03235D02*
D03*
X03335Y0296D02*
D03*
X03235D02*
D03*
X03335Y0306D02*
D03*
X03235D02*
D03*
X03335Y0316D02*
D03*
X03235D02*
D03*
X03335Y0326D02*
D03*
X03235D02*
D03*
X03335Y0336D02*
D03*
X03235D02*
D03*
X03335Y0346D02*
D03*
X03235D02*
D03*
X03335Y0356D02*
D03*
X03235D02*
D03*
X03335Y0366D02*
D03*
X03235D02*
D03*
X03335Y0376D02*
D03*
X03235D02*
D03*
X03335Y0386D02*
D03*
X03235D02*
D03*
X03335Y0396D02*
D03*
X03235D02*
D03*
X03335Y0406D02*
D03*
X03235D02*
D03*
X03335Y0416D02*
D03*
X03235D02*
D03*
X03335Y0426D02*
D03*
X03235D02*
D03*
X03335Y0436D02*
D03*
X03235D02*
D03*
X05135Y0216D02*
D03*
X05235Y0226D02*
D03*
X05135D02*
D03*
X05235Y0236D02*
D03*
X05135D02*
D03*
X05235Y0246D02*
D03*
X05135D02*
D03*
X05235Y0256D02*
D03*
X05135D02*
D03*
X05235Y0266D02*
D03*
X05135D02*
D03*
X05235Y0276D02*
D03*
X05135D02*
D03*
X05235Y0286D02*
D03*
X05135D02*
D03*
X05235Y0296D02*
D03*
X05135D02*
D03*
X05235Y0306D02*
D03*
X05135D02*
D03*
X05235Y0316D02*
D03*
X05135D02*
D03*
X05235Y0326D02*
D03*
X05135D02*
D03*
X05235Y0336D02*
D03*
X05135D02*
D03*
X05235Y0346D02*
D03*
X05135D02*
D03*
X05235Y0356D02*
D03*
X05135D02*
D03*
X05235Y0366D02*
D03*
X05135D02*
D03*
X05235Y0376D02*
D03*
X05135D02*
D03*
X05235Y0386D02*
D03*
X05135D02*
D03*
X05235Y0396D02*
D03*
X05135D02*
D03*
X05235Y0406D02*
D03*
X05135D02*
D03*
X05235Y0416D02*
D03*
X05135D02*
D03*
X05235Y0426D02*
D03*
X05135D02*
D03*
X05235Y0436D02*
D03*
X05135D02*
D03*
D32*
X03585Y0529D02*
D03*
Y0539D02*
D03*
X03685Y0529D02*
D03*
Y0539D02*
D03*
X03785Y0529D02*
D03*
Y0539D02*
D03*
X03885Y0529D02*
D03*
Y0539D02*
D03*
X03985Y0529D02*
D03*
Y0539D02*
D03*
X04085Y0529D02*
D03*
Y0539D02*
D03*
X04185Y0529D02*
D03*
Y0539D02*
D03*
X04285Y0529D02*
D03*
Y0539D02*
D03*
X04385Y0529D02*
D03*
Y0539D02*
D03*
X04485Y0529D02*
D03*
Y0539D02*
D03*
X04585Y0529D02*
D03*
Y0539D02*
D03*
X04685Y0529D02*
D03*
Y0539D02*
D03*
X04785Y0529D02*
D03*
D33*
Y0539D02*
D03*
D34*
X02755Y05315D02*
D03*
X02855D02*
D03*
X02755Y0552D02*
D03*
X02855D02*
D03*
X02755Y0572D02*
D03*
X02855D02*
D03*
X02755Y05925D02*
D03*
X02855D02*
D03*
X02755Y0418D02*
D03*
X02855D02*
D03*
X02755Y0438D02*
D03*
X02855D02*
D03*
X02755Y0458D02*
D03*
X02855D02*
D03*
X02755Y03515D02*
D03*
X02855D02*
D03*
X02755Y03315D02*
D03*
X02855D02*
D03*
X02755Y03115D02*
D03*
X02855D02*
D03*
X02755Y02915D02*
D03*
X02855D02*
D03*
X02755Y02715D02*
D03*
X02855D02*
D03*
Y02515D02*
D03*
X02755D02*
D03*
Y01245D02*
D03*
X02855D02*
D03*
X02755Y01445D02*
D03*
X02855D02*
D03*
X02755Y01655D02*
D03*
X02855D02*
D03*
X02755Y01855D02*
D03*
X02855D02*
D03*
X02755Y04775D02*
D03*
X02855D02*
D03*
D35*
X0307Y03415D02*
D03*
Y03515D02*
D03*
Y03615D02*
D03*
Y03715D02*
D03*
X03075Y0194D02*
D03*
Y0204D02*
D03*
Y0214D02*
D03*
Y0224D02*
D03*
X0307Y0534D02*
D03*
Y0544D02*
D03*
Y0554D02*
D03*
Y0564D02*
D03*
Y0466D02*
D03*
Y0476D02*
D03*
Y0486D02*
D03*
Y0496D02*
D03*
D36*
Y03815D02*
D03*
X03075Y0234D02*
D03*
X0307Y0574D02*
D03*
Y0506D02*
D03*
D37*
X0501Y0356D02*
D03*
Y0346D02*
D03*
Y0336D02*
D03*
Y0326D02*
D03*
Y0316D02*
D03*
D38*
Y0306D02*
D03*
X046459Y039435D02*
D03*
D39*
X0402Y0447D02*
D03*
X0432D02*
D03*
X0402Y0437D02*
D03*
D40*
X0432D02*
D03*
D41*
X05675Y04895D02*
D03*
D42*
Y05045D02*
D03*
Y05195D02*
D03*
Y05345D02*
D03*
Y05495D02*
D03*
Y05645D02*
D03*
D43*
X043224Y019978D02*
D03*
X031112Y043309D02*
D03*
X037694Y044798D02*
D03*
X033779Y044652D02*
D03*
X034527Y033452D02*
D03*
X037785Y041088D02*
D03*
X035322Y034574D02*
D03*
X036165Y036963D02*
D03*
X031712Y0431D02*
D03*
X031571Y040544D02*
D03*
X038094Y04207D02*
D03*
X03175Y042096D02*
D03*
X041354Y034929D02*
D03*
X041877Y034477D02*
D03*
X040997Y034388D02*
D03*
X041173Y033493D02*
D03*
X04183Y032297D02*
D03*
X045318Y033498D02*
D03*
X045914Y032747D02*
D03*
X047211Y027862D02*
D03*
X04678Y026435D02*
D03*
X046743Y028342D02*
D03*
X049663Y029545D02*
D03*
X037855Y029739D02*
D03*
X037856Y029093D02*
D03*
X03993Y033333D02*
D03*
X046261Y023111D02*
D03*
X034882Y032015D02*
D03*
X034891Y031402D02*
D03*
X03425Y02895D02*
D03*
X034126Y030249D02*
D03*
X035852Y028812D02*
D03*
X035386Y028345D02*
D03*
X040393Y022955D02*
D03*
X038401Y023501D02*
D03*
X038745Y022328D02*
D03*
X040152Y015522D02*
D03*
X034003Y02058D02*
D03*
X030404Y01801D02*
D03*
X039939Y017111D02*
D03*
X041133Y026775D02*
D03*
X053425Y019532D02*
D03*
X039016Y026671D02*
D03*
X035889Y027418D02*
D03*
X034364Y026656D02*
D03*
X035058Y026104D02*
D03*
X034667Y025094D02*
D03*
X034165Y024322D02*
D03*
X034125Y025664D02*
D03*
X048515Y030167D02*
D03*
X049106Y032598D02*
D03*
X0292Y05815D02*
D03*
X0295Y02885D02*
D03*
X0303Y0242D02*
D03*
X033Y01565D02*
D03*
X0321Y01555D02*
D03*
X0346Y02945D02*
D03*
X0314Y0301D02*
D03*
X03205Y01725D02*
D03*
X0339Y0401D02*
D03*
X03165Y0145D02*
D03*
X0316Y0168D02*
D03*
X0269Y0239D02*
D03*
X02625Y01995D02*
D03*
X0262Y0241D02*
D03*
X029307Y028043D02*
D03*
X030689Y026166D02*
D03*
X031324Y027371D02*
D03*
X0304Y03075D02*
D03*
X0311Y03945D02*
D03*
X03095Y04115D02*
D03*
X0313Y04575D02*
D03*
X03035Y0604D02*
D03*
X0315Y0308D02*
D03*
X03165Y032528D02*
D03*
X02985Y03045D02*
D03*
X030895Y02896D02*
D03*
X02925Y03025D02*
D03*
X0291Y0401D02*
D03*
X02855Y04055D02*
D03*
X02685D02*
D03*
X0263Y0401D02*
D03*
X0292Y0226D02*
D03*
X044443Y02548D02*
D03*
X034199Y03293D02*
D03*
X042012Y023839D02*
D03*
X042348Y017669D02*
D03*
X040926Y0236D02*
D03*
X038573Y018471D02*
D03*
X040188Y018298D02*
D03*
X041408Y024176D02*
D03*
X040834Y030658D02*
D03*
X043026Y029942D02*
D03*
X04368Y022253D02*
D03*
X041717Y028462D02*
D03*
X043916Y025082D02*
D03*
X04362Y026084D02*
D03*
X044758Y02752D02*
D03*
X042586Y030867D02*
D03*
X037669Y030339D02*
D03*
X039561Y031261D02*
D03*
X039332Y02848D02*
D03*
X042288Y031765D02*
D03*
X050562Y025909D02*
D03*
X033686Y01336D02*
D03*
X034349Y036505D02*
D03*
X034635Y038902D02*
D03*
X034135Y039347D02*
D03*
X03422Y040639D02*
D03*
X036265Y044162D02*
D03*
X037507Y047036D02*
D03*
X044219Y035504D02*
D03*
X044062Y037584D02*
D03*
X046348Y044324D02*
D03*
X04535Y05219D02*
D03*
Y043396D02*
D03*
X046677Y042046D02*
D03*
X044358Y052172D02*
D03*
X044177Y046544D02*
D03*
X043602Y045936D02*
D03*
X04335Y052209D02*
D03*
X040572Y037572D02*
D03*
X039909Y039841D02*
D03*
X039733Y042187D02*
D03*
X042243Y042297D02*
D03*
X038691Y051543D02*
D03*
X033223Y053926D02*
D03*
X037227Y045653D02*
D03*
X03503Y048649D02*
D03*
X035145Y049641D02*
D03*
X035034Y04638D02*
D03*
X033538Y054911D02*
D03*
X048792Y058187D02*
D03*
X047161Y040554D02*
D03*
X047155Y049066D02*
D03*
X049492Y044499D02*
D03*
X044969Y036565D02*
D03*
X049019Y036482D02*
D03*
X048419Y036392D02*
D03*
X048981Y037454D02*
D03*
X050208Y03832D02*
D03*
X047356Y03689D02*
D03*
X047212Y035865D02*
D03*
X045092Y037224D02*
D03*
X046761Y018225D02*
D03*
X042289Y019463D02*
D03*
X036941Y021296D02*
D03*
X054425Y024581D02*
D03*
X038022Y045826D02*
D03*
X038129Y046543D02*
D03*
X036248Y016584D02*
D03*
X033184Y018006D02*
D03*
X036001Y040094D02*
D03*
X046085Y04175D02*
D03*
X043364Y021571D02*
D03*
X045412Y029132D02*
D03*
X046675Y029095D02*
D03*
X045411Y034512D02*
D03*
X046983Y033138D02*
D03*
X046793Y027035D02*
D03*
X045704Y027658D02*
D03*
D44*
X042159Y020207D02*
D03*
X034492Y03562D02*
D03*
X036018Y034605D02*
D03*
X033919Y01555D02*
D03*
X042824Y040867D02*
D03*
X048622Y021551D02*
D03*
X039688Y021514D02*
D03*
X03703Y019776D02*
D03*
X042727Y037315D02*
D03*
X03581Y014965D02*
D03*
X041164Y037281D02*
D03*
X038978Y035278D02*
D03*
D45*
X0245Y03715D02*
X02455D01*
X026D01*
X027Y03815D01*
X0307D01*
M02*
