%FSTAX24Y24*%
%MOIN*%
G70*
G01*
G75*
G04 Layer_Color=2752767*
%ADD10R,0.0500X0.0394*%
%ADD11R,0.7500X0.0100*%
%ADD12R,0.0500X0.0500*%
G04:AMPARAMS|DCode=13|XSize=37.4mil|YSize=19.7mil|CornerRadius=2.5mil|HoleSize=0mil|Usage=FLASHONLY|Rotation=180.000|XOffset=0mil|YOffset=0mil|HoleType=Round|Shape=RoundedRectangle|*
%AMROUNDEDRECTD13*
21,1,0.0374,0.0148,0,0,180.0*
21,1,0.0325,0.0197,0,0,180.0*
1,1,0.0049,-0.0162,0.0074*
1,1,0.0049,0.0162,0.0074*
1,1,0.0049,0.0162,-0.0074*
1,1,0.0049,-0.0162,-0.0074*
%
%ADD13ROUNDEDRECTD13*%
%ADD14R,0.0500X0.0500*%
%ADD15R,0.0394X0.0500*%
%ADD16R,0.0390X0.0120*%
%ADD17O,0.1457X0.0256*%
%ADD18O,0.0118X0.0532*%
%ADD19C,0.0160*%
%ADD20C,0.0080*%
%ADD21C,0.0120*%
%ADD22C,0.0200*%
%ADD23C,0.0100*%
%ADD24C,0.1500*%
%ADD25C,0.1874*%
%ADD26C,0.0665*%
%ADD27R,0.0665X0.0665*%
%ADD28O,0.1575X0.1360*%
%ADD29R,0.1575X0.1360*%
%ADD30R,0.0638X0.0638*%
%ADD31C,0.0638*%
%ADD32C,0.0591*%
%ADD33R,0.0591X0.0591*%
%ADD34P,0.0714X8X202.5*%
%ADD35O,0.0900X0.0620*%
%ADD36R,0.0900X0.0620*%
%ADD37O,0.0850X0.0600*%
%ADD38R,0.0850X0.0600*%
%ADD39O,0.0800X0.0640*%
%ADD40R,0.0800X0.0640*%
%ADD41R,0.1181X0.0902*%
%ADD42O,0.1181X0.0902*%
%ADD43C,0.0400*%
%ADD44C,0.0500*%
%ADD45C,0.0400*%
%ADD46C,0.0079*%
%ADD47C,0.0050*%
%ADD48C,0.0060*%
%ADD49C,0.0098*%
%ADD50C,0.0070*%
%ADD51C,0.0040*%
%ADD52C,0.0059*%
%ADD53R,0.0315X0.0945*%
%ADD54R,0.0580X0.0474*%
%ADD55R,0.7580X0.0180*%
%ADD56R,0.0580X0.0580*%
G04:AMPARAMS|DCode=57|XSize=45.4mil|YSize=27.7mil|CornerRadius=6.5mil|HoleSize=0mil|Usage=FLASHONLY|Rotation=180.000|XOffset=0mil|YOffset=0mil|HoleType=Round|Shape=RoundedRectangle|*
%AMROUNDEDRECTD57*
21,1,0.0454,0.0148,0,0,180.0*
21,1,0.0325,0.0277,0,0,180.0*
1,1,0.0129,-0.0162,0.0074*
1,1,0.0129,0.0162,0.0074*
1,1,0.0129,0.0162,-0.0074*
1,1,0.0129,-0.0162,-0.0074*
%
%ADD57ROUNDEDRECTD57*%
%ADD58R,0.0580X0.0580*%
%ADD59R,0.0474X0.0580*%
%ADD60R,0.0470X0.0200*%
%ADD61O,0.1537X0.0336*%
%ADD62O,0.0158X0.0572*%
%ADD63C,0.1580*%
%ADD64C,0.1954*%
%ADD65C,0.0745*%
%ADD66R,0.0745X0.0745*%
%ADD67O,0.1655X0.1440*%
%ADD68R,0.1655X0.1440*%
%ADD69R,0.0718X0.0718*%
%ADD70C,0.0718*%
%ADD71C,0.0671*%
%ADD72R,0.0671X0.0671*%
%ADD73P,0.0801X8X202.5*%
%ADD74O,0.0980X0.0700*%
%ADD75R,0.0980X0.0700*%
%ADD76O,0.0930X0.0680*%
%ADD77R,0.0930X0.0680*%
%ADD78O,0.0880X0.0720*%
%ADD79R,0.0880X0.0720*%
%ADD80R,0.1261X0.0982*%
%ADD81O,0.1261X0.0982*%
%ADD82C,0.0480*%
%ADD83C,0.0580*%
%ADD84C,0.0039*%
%ADD85C,0.0020*%
%ADD86C,0.0100*%
%ADD87C,0.0030*%
%ADD88R,0.0200X0.0200*%
%ADD89R,0.0330X0.0080*%
%ADD90R,0.6000X0.6750*%
%ADD91R,0.4000X0.4500*%
%ADD92R,0.7250X0.7000*%
%ADD93C,0.0067*%
D47*
X0565Y06175D02*
Y06215D01*
X0569D01*
Y06175D01*
X0565D01*
X035528Y055951D02*
X035328Y056351D01*
X035728D01*
X035528Y055951D01*
X036071Y057069D02*
X035871Y057469D01*
X036271D01*
X036071Y057069D01*
X036615Y055951D02*
X036415Y056351D01*
X036815D01*
X036615Y055951D01*
X037158Y057069D02*
X036958Y057469D01*
X037358D01*
X037158Y057069D01*
X037702Y055951D02*
X037502Y056351D01*
X037902D01*
X037702Y055951D01*
X038245Y057069D02*
X038045Y057469D01*
X038445D01*
X038245Y057069D01*
X038789Y055951D02*
X038589Y056351D01*
X038989D01*
X038789Y055951D01*
X039332Y057069D02*
X039132Y057469D01*
X039532D01*
X039332Y057069D01*
X039876Y055951D02*
X039676Y056351D01*
X040076D01*
X039876Y055951D01*
X040419Y057069D02*
X040219Y057469D01*
X040619D01*
X040419Y057069D01*
X040963Y055951D02*
X040763Y056351D01*
X041163D01*
X040963Y055951D01*
X041507Y057069D02*
X041307Y057469D01*
X041707D01*
X041507Y057069D01*
X04205Y055951D02*
X04185Y056351D01*
X04225D01*
X04205Y055951D01*
X042593Y057069D02*
X042393Y057469D01*
X042793D01*
X042593Y057069D01*
X043137Y055951D02*
X042937Y056351D01*
X043337D01*
X043137Y055951D01*
X043681Y057069D02*
X043481Y057469D01*
X043881D01*
X043681Y057069D01*
X044224Y055951D02*
X044024Y056351D01*
X044424D01*
X044224Y055951D01*
X044768Y057069D02*
X044568Y057469D01*
X044968D01*
X044768Y057069D01*
X045311Y055951D02*
X045111Y056351D01*
X045511D01*
X045311Y055951D01*
X045855Y057069D02*
X045655Y057469D01*
X046055D01*
X045855Y057069D01*
X046398Y055951D02*
X046198Y056351D01*
X046598D01*
X046398Y055951D01*
X046942Y057069D02*
X046742Y057469D01*
X047142D01*
X046942Y057069D01*
X047485Y055951D02*
X047285Y056351D01*
X047685D01*
X047485Y055951D01*
X048029Y057069D02*
X047829Y057469D01*
X048229D01*
X048029Y057069D01*
X048572Y055951D02*
X048372Y056351D01*
X048772D01*
X048572Y055951D01*
X02835Y06175D02*
Y06215D01*
X02875D01*
Y06175D01*
X02835D01*
X0245Y03955D02*
X0246Y03965D01*
X0247D01*
X0246Y03975D01*
X0247Y03985D01*
X0246D01*
X0245Y03995D01*
X0244Y03985D01*
X0243D01*
X0244Y03975D01*
X0243Y03965D01*
X0244D01*
X0245Y03955D01*
Y04155D02*
X0246Y04165D01*
X0247D01*
X0246Y04175D01*
X0247Y04185D01*
X0246D01*
X0245Y04195D01*
X0244Y04185D01*
X0243D01*
X0244Y04175D01*
X0243Y04165D01*
X0244D01*
X0245Y04155D01*
Y04355D02*
X0246Y04365D01*
X0247D01*
X0246Y04375D01*
X0247Y04385D01*
X0246D01*
X0245Y04395D01*
X0244Y04385D01*
X0243D01*
X0244Y04375D01*
X0243Y04365D01*
X0244D01*
X0245Y04355D01*
Y04555D02*
X0246Y04565D01*
X0247D01*
X0246Y04575D01*
X0247Y04585D01*
X0246D01*
X0245Y04595D01*
X0244Y04585D01*
X0243D01*
X0244Y04575D01*
X0243Y04565D01*
X0244D01*
X0245Y04555D01*
Y04755D02*
X0246Y04765D01*
X0247D01*
X0246Y04775D01*
X0247Y04785D01*
X0246D01*
X0245Y04795D01*
X0244Y04785D01*
X0243D01*
X0244Y04775D01*
X0243Y04765D01*
X0244D01*
X0245Y04755D01*
Y04955D02*
X0246Y04965D01*
X0247D01*
X0246Y04975D01*
X0247Y04985D01*
X0246D01*
X0245Y04995D01*
X0244Y04985D01*
X0243D01*
X0244Y04975D01*
X0243Y04965D01*
X0244D01*
X0245Y04955D01*
X03315Y0214D02*
X03325Y0216D01*
X03315Y0218D01*
X03335Y0217D01*
X03355Y0218D01*
X03345Y0216D01*
X03355Y0214D01*
X03335Y0215D01*
X03315Y0214D01*
X03215D02*
X03225Y0216D01*
X03215Y0218D01*
X03235Y0217D01*
X03255Y0218D01*
X03245Y0216D01*
X03255Y0214D01*
X03235Y0215D01*
X03215Y0214D01*
X03315Y0224D02*
X03325Y0226D01*
X03315Y0228D01*
X03335Y0227D01*
X03355Y0228D01*
X03345Y0226D01*
X03355Y0224D01*
X03335Y0225D01*
X03315Y0224D01*
X03215D02*
X03225Y0226D01*
X03215Y0228D01*
X03235Y0227D01*
X03255Y0228D01*
X03245Y0226D01*
X03255Y0224D01*
X03235Y0225D01*
X03215Y0224D01*
X03315Y0234D02*
X03325Y0236D01*
X03315Y0238D01*
X03335Y0237D01*
X03355Y0238D01*
X03345Y0236D01*
X03355Y0234D01*
X03335Y0235D01*
X03315Y0234D01*
X03215D02*
X03225Y0236D01*
X03215Y0238D01*
X03235Y0237D01*
X03255Y0238D01*
X03245Y0236D01*
X03255Y0234D01*
X03235Y0235D01*
X03215Y0234D01*
X03315Y0244D02*
X03325Y0246D01*
X03315Y0248D01*
X03335Y0247D01*
X03355Y0248D01*
X03345Y0246D01*
X03355Y0244D01*
X03335Y0245D01*
X03315Y0244D01*
X03215D02*
X03225Y0246D01*
X03215Y0248D01*
X03235Y0247D01*
X03255Y0248D01*
X03245Y0246D01*
X03255Y0244D01*
X03235Y0245D01*
X03215Y0244D01*
X03315Y0254D02*
X03325Y0256D01*
X03315Y0258D01*
X03335Y0257D01*
X03355Y0258D01*
X03345Y0256D01*
X03355Y0254D01*
X03335Y0255D01*
X03315Y0254D01*
X03215D02*
X03225Y0256D01*
X03215Y0258D01*
X03235Y0257D01*
X03255Y0258D01*
X03245Y0256D01*
X03255Y0254D01*
X03235Y0255D01*
X03215Y0254D01*
X03315Y0264D02*
X03325Y0266D01*
X03315Y0268D01*
X03335Y0267D01*
X03355Y0268D01*
X03345Y0266D01*
X03355Y0264D01*
X03335Y0265D01*
X03315Y0264D01*
X03215D02*
X03225Y0266D01*
X03215Y0268D01*
X03235Y0267D01*
X03255Y0268D01*
X03245Y0266D01*
X03255Y0264D01*
X03235Y0265D01*
X03215Y0264D01*
X03315Y0274D02*
X03325Y0276D01*
X03315Y0278D01*
X03335Y0277D01*
X03355Y0278D01*
X03345Y0276D01*
X03355Y0274D01*
X03335Y0275D01*
X03315Y0274D01*
X03215D02*
X03225Y0276D01*
X03215Y0278D01*
X03235Y0277D01*
X03255Y0278D01*
X03245Y0276D01*
X03255Y0274D01*
X03235Y0275D01*
X03215Y0274D01*
X03315Y0284D02*
X03325Y0286D01*
X03315Y0288D01*
X03335Y0287D01*
X03355Y0288D01*
X03345Y0286D01*
X03355Y0284D01*
X03335Y0285D01*
X03315Y0284D01*
X03215D02*
X03225Y0286D01*
X03215Y0288D01*
X03235Y0287D01*
X03255Y0288D01*
X03245Y0286D01*
X03255Y0284D01*
X03235Y0285D01*
X03215Y0284D01*
X03315Y0294D02*
X03325Y0296D01*
X03315Y0298D01*
X03335Y0297D01*
X03355Y0298D01*
X03345Y0296D01*
X03355Y0294D01*
X03335Y0295D01*
X03315Y0294D01*
X03215D02*
X03225Y0296D01*
X03215Y0298D01*
X03235Y0297D01*
X03255Y0298D01*
X03245Y0296D01*
X03255Y0294D01*
X03235Y0295D01*
X03215Y0294D01*
X03315Y0304D02*
X03325Y0306D01*
X03315Y0308D01*
X03335Y0307D01*
X03355Y0308D01*
X03345Y0306D01*
X03355Y0304D01*
X03335Y0305D01*
X03315Y0304D01*
X03215D02*
X03225Y0306D01*
X03215Y0308D01*
X03235Y0307D01*
X03255Y0308D01*
X03245Y0306D01*
X03255Y0304D01*
X03235Y0305D01*
X03215Y0304D01*
X03315Y0314D02*
X03325Y0316D01*
X03315Y0318D01*
X03335Y0317D01*
X03355Y0318D01*
X03345Y0316D01*
X03355Y0314D01*
X03335Y0315D01*
X03315Y0314D01*
X03215D02*
X03225Y0316D01*
X03215Y0318D01*
X03235Y0317D01*
X03255Y0318D01*
X03245Y0316D01*
X03255Y0314D01*
X03235Y0315D01*
X03215Y0314D01*
X03315Y0324D02*
X03325Y0326D01*
X03315Y0328D01*
X03335Y0327D01*
X03355Y0328D01*
X03345Y0326D01*
X03355Y0324D01*
X03335Y0325D01*
X03315Y0324D01*
X03215D02*
X03225Y0326D01*
X03215Y0328D01*
X03235Y0327D01*
X03255Y0328D01*
X03245Y0326D01*
X03255Y0324D01*
X03235Y0325D01*
X03215Y0324D01*
X03315Y0334D02*
X03325Y0336D01*
X03315Y0338D01*
X03335Y0337D01*
X03355Y0338D01*
X03345Y0336D01*
X03355Y0334D01*
X03335Y0335D01*
X03315Y0334D01*
X03215D02*
X03225Y0336D01*
X03215Y0338D01*
X03235Y0337D01*
X03255Y0338D01*
X03245Y0336D01*
X03255Y0334D01*
X03235Y0335D01*
X03215Y0334D01*
X03315Y0344D02*
X03325Y0346D01*
X03315Y0348D01*
X03335Y0347D01*
X03355Y0348D01*
X03345Y0346D01*
X03355Y0344D01*
X03335Y0345D01*
X03315Y0344D01*
X03215D02*
X03225Y0346D01*
X03215Y0348D01*
X03235Y0347D01*
X03255Y0348D01*
X03245Y0346D01*
X03255Y0344D01*
X03235Y0345D01*
X03215Y0344D01*
X03315Y0354D02*
X03325Y0356D01*
X03315Y0358D01*
X03335Y0357D01*
X03355Y0358D01*
X03345Y0356D01*
X03355Y0354D01*
X03335Y0355D01*
X03315Y0354D01*
X03215D02*
X03225Y0356D01*
X03215Y0358D01*
X03235Y0357D01*
X03255Y0358D01*
X03245Y0356D01*
X03255Y0354D01*
X03235Y0355D01*
X03215Y0354D01*
X03315Y0364D02*
X03325Y0366D01*
X03315Y0368D01*
X03335Y0367D01*
X03355Y0368D01*
X03345Y0366D01*
X03355Y0364D01*
X03335Y0365D01*
X03315Y0364D01*
X03215D02*
X03225Y0366D01*
X03215Y0368D01*
X03235Y0367D01*
X03255Y0368D01*
X03245Y0366D01*
X03255Y0364D01*
X03235Y0365D01*
X03215Y0364D01*
X03315Y0374D02*
X03325Y0376D01*
X03315Y0378D01*
X03335Y0377D01*
X03355Y0378D01*
X03345Y0376D01*
X03355Y0374D01*
X03335Y0375D01*
X03315Y0374D01*
X03215D02*
X03225Y0376D01*
X03215Y0378D01*
X03235Y0377D01*
X03255Y0378D01*
X03245Y0376D01*
X03255Y0374D01*
X03235Y0375D01*
X03215Y0374D01*
X03315Y0384D02*
X03325Y0386D01*
X03315Y0388D01*
X03335Y0387D01*
X03355Y0388D01*
X03345Y0386D01*
X03355Y0384D01*
X03335Y0385D01*
X03315Y0384D01*
X03215D02*
X03225Y0386D01*
X03215Y0388D01*
X03235Y0387D01*
X03255Y0388D01*
X03245Y0386D01*
X03255Y0384D01*
X03235Y0385D01*
X03215Y0384D01*
X03315Y0394D02*
X03325Y0396D01*
X03315Y0398D01*
X03335Y0397D01*
X03355Y0398D01*
X03345Y0396D01*
X03355Y0394D01*
X03335Y0395D01*
X03315Y0394D01*
X03215D02*
X03225Y0396D01*
X03215Y0398D01*
X03235Y0397D01*
X03255Y0398D01*
X03245Y0396D01*
X03255Y0394D01*
X03235Y0395D01*
X03215Y0394D01*
X03315Y0404D02*
X03325Y0406D01*
X03315Y0408D01*
X03335Y0407D01*
X03355Y0408D01*
X03345Y0406D01*
X03355Y0404D01*
X03335Y0405D01*
X03315Y0404D01*
X03215D02*
X03225Y0406D01*
X03215Y0408D01*
X03235Y0407D01*
X03255Y0408D01*
X03245Y0406D01*
X03255Y0404D01*
X03235Y0405D01*
X03215Y0404D01*
X03315Y0414D02*
X03325Y0416D01*
X03315Y0418D01*
X03335Y0417D01*
X03355Y0418D01*
X03345Y0416D01*
X03355Y0414D01*
X03335Y0415D01*
X03315Y0414D01*
X03215D02*
X03225Y0416D01*
X03215Y0418D01*
X03235Y0417D01*
X03255Y0418D01*
X03245Y0416D01*
X03255Y0414D01*
X03235Y0415D01*
X03215Y0414D01*
X03315Y0424D02*
X03325Y0426D01*
X03315Y0428D01*
X03335Y0427D01*
X03355Y0428D01*
X03345Y0426D01*
X03355Y0424D01*
X03335Y0425D01*
X03315Y0424D01*
X03215D02*
X03225Y0426D01*
X03215Y0428D01*
X03235Y0427D01*
X03255Y0428D01*
X03245Y0426D01*
X03255Y0424D01*
X03235Y0425D01*
X03215Y0424D01*
X03315Y0434D02*
X03325Y0436D01*
X03315Y0438D01*
X03335Y0437D01*
X03355Y0438D01*
X03345Y0436D01*
X03355Y0434D01*
X03335Y0435D01*
X03315Y0434D01*
X03215D02*
X03225Y0436D01*
X03215Y0438D01*
X03235Y0437D01*
X03255Y0438D01*
X03245Y0436D01*
X03255Y0434D01*
X03235Y0435D01*
X03215Y0434D01*
X05215Y0214D02*
X05225Y0216D01*
X05215Y0218D01*
X05235Y0217D01*
X05255Y0218D01*
X05245Y0216D01*
X05255Y0214D01*
X05235Y0215D01*
X05215Y0214D01*
X05115D02*
X05125Y0216D01*
X05115Y0218D01*
X05135Y0217D01*
X05155Y0218D01*
X05145Y0216D01*
X05155Y0214D01*
X05135Y0215D01*
X05115Y0214D01*
X05215Y0224D02*
X05225Y0226D01*
X05215Y0228D01*
X05235Y0227D01*
X05255Y0228D01*
X05245Y0226D01*
X05255Y0224D01*
X05235Y0225D01*
X05215Y0224D01*
X05115D02*
X05125Y0226D01*
X05115Y0228D01*
X05135Y0227D01*
X05155Y0228D01*
X05145Y0226D01*
X05155Y0224D01*
X05135Y0225D01*
X05115Y0224D01*
X05215Y0234D02*
X05225Y0236D01*
X05215Y0238D01*
X05235Y0237D01*
X05255Y0238D01*
X05245Y0236D01*
X05255Y0234D01*
X05235Y0235D01*
X05215Y0234D01*
X05115D02*
X05125Y0236D01*
X05115Y0238D01*
X05135Y0237D01*
X05155Y0238D01*
X05145Y0236D01*
X05155Y0234D01*
X05135Y0235D01*
X05115Y0234D01*
X05215Y0244D02*
X05225Y0246D01*
X05215Y0248D01*
X05235Y0247D01*
X05255Y0248D01*
X05245Y0246D01*
X05255Y0244D01*
X05235Y0245D01*
X05215Y0244D01*
X05115D02*
X05125Y0246D01*
X05115Y0248D01*
X05135Y0247D01*
X05155Y0248D01*
X05145Y0246D01*
X05155Y0244D01*
X05135Y0245D01*
X05115Y0244D01*
X05215Y0254D02*
X05225Y0256D01*
X05215Y0258D01*
X05235Y0257D01*
X05255Y0258D01*
X05245Y0256D01*
X05255Y0254D01*
X05235Y0255D01*
X05215Y0254D01*
X05115D02*
X05125Y0256D01*
X05115Y0258D01*
X05135Y0257D01*
X05155Y0258D01*
X05145Y0256D01*
X05155Y0254D01*
X05135Y0255D01*
X05115Y0254D01*
X05215Y0264D02*
X05225Y0266D01*
X05215Y0268D01*
X05235Y0267D01*
X05255Y0268D01*
X05245Y0266D01*
X05255Y0264D01*
X05235Y0265D01*
X05215Y0264D01*
X05115D02*
X05125Y0266D01*
X05115Y0268D01*
X05135Y0267D01*
X05155Y0268D01*
X05145Y0266D01*
X05155Y0264D01*
X05135Y0265D01*
X05115Y0264D01*
X05215Y0274D02*
X05225Y0276D01*
X05215Y0278D01*
X05235Y0277D01*
X05255Y0278D01*
X05245Y0276D01*
X05255Y0274D01*
X05235Y0275D01*
X05215Y0274D01*
X05115D02*
X05125Y0276D01*
X05115Y0278D01*
X05135Y0277D01*
X05155Y0278D01*
X05145Y0276D01*
X05155Y0274D01*
X05135Y0275D01*
X05115Y0274D01*
X05215Y0284D02*
X05225Y0286D01*
X05215Y0288D01*
X05235Y0287D01*
X05255Y0288D01*
X05245Y0286D01*
X05255Y0284D01*
X05235Y0285D01*
X05215Y0284D01*
X05115D02*
X05125Y0286D01*
X05115Y0288D01*
X05135Y0287D01*
X05155Y0288D01*
X05145Y0286D01*
X05155Y0284D01*
X05135Y0285D01*
X05115Y0284D01*
X05215Y0294D02*
X05225Y0296D01*
X05215Y0298D01*
X05235Y0297D01*
X05255Y0298D01*
X05245Y0296D01*
X05255Y0294D01*
X05235Y0295D01*
X05215Y0294D01*
X05115D02*
X05125Y0296D01*
X05115Y0298D01*
X05135Y0297D01*
X05155Y0298D01*
X05145Y0296D01*
X05155Y0294D01*
X05135Y0295D01*
X05115Y0294D01*
X05215Y0304D02*
X05225Y0306D01*
X05215Y0308D01*
X05235Y0307D01*
X05255Y0308D01*
X05245Y0306D01*
X05255Y0304D01*
X05235Y0305D01*
X05215Y0304D01*
X05115D02*
X05125Y0306D01*
X05115Y0308D01*
X05135Y0307D01*
X05155Y0308D01*
X05145Y0306D01*
X05155Y0304D01*
X05135Y0305D01*
X05115Y0304D01*
X05215Y0314D02*
X05225Y0316D01*
X05215Y0318D01*
X05235Y0317D01*
X05255Y0318D01*
X05245Y0316D01*
X05255Y0314D01*
X05235Y0315D01*
X05215Y0314D01*
X05115D02*
X05125Y0316D01*
X05115Y0318D01*
X05135Y0317D01*
X05155Y0318D01*
X05145Y0316D01*
X05155Y0314D01*
X05135Y0315D01*
X05115Y0314D01*
X05215Y0324D02*
X05225Y0326D01*
X05215Y0328D01*
X05235Y0327D01*
X05255Y0328D01*
X05245Y0326D01*
X05255Y0324D01*
X05235Y0325D01*
X05215Y0324D01*
X05115D02*
X05125Y0326D01*
X05115Y0328D01*
X05135Y0327D01*
X05155Y0328D01*
X05145Y0326D01*
X05155Y0324D01*
X05135Y0325D01*
X05115Y0324D01*
X05215Y0334D02*
X05225Y0336D01*
X05215Y0338D01*
X05235Y0337D01*
X05255Y0338D01*
X05245Y0336D01*
X05255Y0334D01*
X05235Y0335D01*
X05215Y0334D01*
X05115D02*
X05125Y0336D01*
X05115Y0338D01*
X05135Y0337D01*
X05155Y0338D01*
X05145Y0336D01*
X05155Y0334D01*
X05135Y0335D01*
X05115Y0334D01*
X05215Y0344D02*
X05225Y0346D01*
X05215Y0348D01*
X05235Y0347D01*
X05255Y0348D01*
X05245Y0346D01*
X05255Y0344D01*
X05235Y0345D01*
X05215Y0344D01*
X05115D02*
X05125Y0346D01*
X05115Y0348D01*
X05135Y0347D01*
X05155Y0348D01*
X05145Y0346D01*
X05155Y0344D01*
X05135Y0345D01*
X05115Y0344D01*
X05215Y0354D02*
X05225Y0356D01*
X05215Y0358D01*
X05235Y0357D01*
X05255Y0358D01*
X05245Y0356D01*
X05255Y0354D01*
X05235Y0355D01*
X05215Y0354D01*
X05115D02*
X05125Y0356D01*
X05115Y0358D01*
X05135Y0357D01*
X05155Y0358D01*
X05145Y0356D01*
X05155Y0354D01*
X05135Y0355D01*
X05115Y0354D01*
X05215Y0364D02*
X05225Y0366D01*
X05215Y0368D01*
X05235Y0367D01*
X05255Y0368D01*
X05245Y0366D01*
X05255Y0364D01*
X05235Y0365D01*
X05215Y0364D01*
X05115D02*
X05125Y0366D01*
X05115Y0368D01*
X05135Y0367D01*
X05155Y0368D01*
X05145Y0366D01*
X05155Y0364D01*
X05135Y0365D01*
X05115Y0364D01*
X05215Y0374D02*
X05225Y0376D01*
X05215Y0378D01*
X05235Y0377D01*
X05255Y0378D01*
X05245Y0376D01*
X05255Y0374D01*
X05235Y0375D01*
X05215Y0374D01*
X05115D02*
X05125Y0376D01*
X05115Y0378D01*
X05135Y0377D01*
X05155Y0378D01*
X05145Y0376D01*
X05155Y0374D01*
X05135Y0375D01*
X05115Y0374D01*
X05215Y0384D02*
X05225Y0386D01*
X05215Y0388D01*
X05235Y0387D01*
X05255Y0388D01*
X05245Y0386D01*
X05255Y0384D01*
X05235Y0385D01*
X05215Y0384D01*
X05115D02*
X05125Y0386D01*
X05115Y0388D01*
X05135Y0387D01*
X05155Y0388D01*
X05145Y0386D01*
X05155Y0384D01*
X05135Y0385D01*
X05115Y0384D01*
X05215Y0394D02*
X05225Y0396D01*
X05215Y0398D01*
X05235Y0397D01*
X05255Y0398D01*
X05245Y0396D01*
X05255Y0394D01*
X05235Y0395D01*
X05215Y0394D01*
X05115D02*
X05125Y0396D01*
X05115Y0398D01*
X05135Y0397D01*
X05155Y0398D01*
X05145Y0396D01*
X05155Y0394D01*
X05135Y0395D01*
X05115Y0394D01*
X05215Y0404D02*
X05225Y0406D01*
X05215Y0408D01*
X05235Y0407D01*
X05255Y0408D01*
X05245Y0406D01*
X05255Y0404D01*
X05235Y0405D01*
X05215Y0404D01*
X05115D02*
X05125Y0406D01*
X05115Y0408D01*
X05135Y0407D01*
X05155Y0408D01*
X05145Y0406D01*
X05155Y0404D01*
X05135Y0405D01*
X05115Y0404D01*
X05215Y0414D02*
X05225Y0416D01*
X05215Y0418D01*
X05235Y0417D01*
X05255Y0418D01*
X05245Y0416D01*
X05255Y0414D01*
X05235Y0415D01*
X05215Y0414D01*
X05115D02*
X05125Y0416D01*
X05115Y0418D01*
X05135Y0417D01*
X05155Y0418D01*
X05145Y0416D01*
X05155Y0414D01*
X05135Y0415D01*
X05115Y0414D01*
X05215Y0424D02*
X05225Y0426D01*
X05215Y0428D01*
X05235Y0427D01*
X05255Y0428D01*
X05245Y0426D01*
X05255Y0424D01*
X05235Y0425D01*
X05215Y0424D01*
X05115D02*
X05125Y0426D01*
X05115Y0428D01*
X05135Y0427D01*
X05155Y0428D01*
X05145Y0426D01*
X05155Y0424D01*
X05135Y0425D01*
X05115Y0424D01*
X05215Y0434D02*
X05225Y0436D01*
X05215Y0438D01*
X05235Y0437D01*
X05255Y0438D01*
X05245Y0436D01*
X05255Y0434D01*
X05235Y0435D01*
X05215Y0434D01*
X05115D02*
X05125Y0436D01*
X05115Y0438D01*
X05135Y0437D01*
X05155Y0438D01*
X05145Y0436D01*
X05155Y0434D01*
X05135Y0435D01*
X05115Y0434D01*
X02455Y03695D02*
X02465Y03705D01*
X02475D01*
X02465Y03715D01*
X02475Y03725D01*
X02465D01*
X02455Y03735D01*
X02445Y03725D01*
X02435D01*
X02445Y03715D01*
X02435Y03705D01*
X02445D01*
X02455Y03695D01*
Y03495D02*
X02465Y03505D01*
X02475D01*
X02465Y03515D01*
X02475Y03525D01*
X02465D01*
X02455Y03535D01*
X02445Y03525D01*
X02435D01*
X02445Y03515D01*
X02435Y03505D01*
X02445D01*
X02455Y03495D01*
Y03295D02*
X02465Y03305D01*
X02475D01*
X02465Y03315D01*
X02475Y03325D01*
X02465D01*
X02455Y03335D01*
X02445Y03325D01*
X02435D01*
X02445Y03315D01*
X02435Y03305D01*
X02445D01*
X02455Y03295D01*
Y03095D02*
X02465Y03105D01*
X02475D01*
X02465Y03115D01*
X02475Y03125D01*
X02465D01*
X02455Y03135D01*
X02445Y03125D01*
X02435D01*
X02445Y03115D01*
X02435Y03105D01*
X02445D01*
X02455Y03095D01*
Y02895D02*
X02465Y02905D01*
X02475D01*
X02465Y02915D01*
X02475Y02925D01*
X02465D01*
X02455Y02935D01*
X02445Y02925D01*
X02435D01*
X02445Y02915D01*
X02435Y02905D01*
X02445D01*
X02455Y02895D01*
Y02695D02*
X02465Y02705D01*
X02475D01*
X02465Y02715D01*
X02475Y02725D01*
X02465D01*
X02455Y02735D01*
X02445Y02725D01*
X02435D01*
X02445Y02715D01*
X02435Y02705D01*
X02445D01*
X02455Y02695D01*
Y02495D02*
X02465Y02505D01*
X02475D01*
X02465Y02515D01*
X02475Y02525D01*
X02465D01*
X02455Y02535D01*
X02445Y02525D01*
X02435D01*
X02445Y02515D01*
X02435Y02505D01*
X02445D01*
X02455Y02495D01*
Y02295D02*
X02465Y02305D01*
X02475D01*
X02465Y02315D01*
X02475Y02325D01*
X02465D01*
X02455Y02335D01*
X02445Y02325D01*
X02435D01*
X02445Y02315D01*
X02435Y02305D01*
X02445D01*
X02455Y02295D01*
X03575Y0528D02*
Y0527D01*
X03595D01*
Y0528D01*
X03605D01*
Y053D01*
X03595D01*
Y0531D01*
X03575D01*
Y053D01*
X03565D01*
Y0528D01*
X03575D01*
Y0538D02*
Y0537D01*
X03595D01*
Y0538D01*
X03605D01*
Y054D01*
X03595D01*
Y0541D01*
X03575D01*
Y054D01*
X03565D01*
Y0538D01*
X03575D01*
X03675Y0528D02*
Y0527D01*
X03695D01*
Y0528D01*
X03705D01*
Y053D01*
X03695D01*
Y0531D01*
X03675D01*
Y053D01*
X03665D01*
Y0528D01*
X03675D01*
Y0538D02*
Y0537D01*
X03695D01*
Y0538D01*
X03705D01*
Y054D01*
X03695D01*
Y0541D01*
X03675D01*
Y054D01*
X03665D01*
Y0538D01*
X03675D01*
X03775Y0528D02*
Y0527D01*
X03795D01*
Y0528D01*
X03805D01*
Y053D01*
X03795D01*
Y0531D01*
X03775D01*
Y053D01*
X03765D01*
Y0528D01*
X03775D01*
Y0538D02*
Y0537D01*
X03795D01*
Y0538D01*
X03805D01*
Y054D01*
X03795D01*
Y0541D01*
X03775D01*
Y054D01*
X03765D01*
Y0538D01*
X03775D01*
X03875Y0528D02*
Y0527D01*
X03895D01*
Y0528D01*
X03905D01*
Y053D01*
X03895D01*
Y0531D01*
X03875D01*
Y053D01*
X03865D01*
Y0528D01*
X03875D01*
Y0538D02*
Y0537D01*
X03895D01*
Y0538D01*
X03905D01*
Y054D01*
X03895D01*
Y0541D01*
X03875D01*
Y054D01*
X03865D01*
Y0538D01*
X03875D01*
X03975Y0528D02*
Y0527D01*
X03995D01*
Y0528D01*
X04005D01*
Y053D01*
X03995D01*
Y0531D01*
X03975D01*
Y053D01*
X03965D01*
Y0528D01*
X03975D01*
Y0538D02*
Y0537D01*
X03995D01*
Y0538D01*
X04005D01*
Y054D01*
X03995D01*
Y0541D01*
X03975D01*
Y054D01*
X03965D01*
Y0538D01*
X03975D01*
X04075Y0528D02*
Y0527D01*
X04095D01*
Y0528D01*
X04105D01*
Y053D01*
X04095D01*
Y0531D01*
X04075D01*
Y053D01*
X04065D01*
Y0528D01*
X04075D01*
Y0538D02*
Y0537D01*
X04095D01*
Y0538D01*
X04105D01*
Y054D01*
X04095D01*
Y0541D01*
X04075D01*
Y054D01*
X04065D01*
Y0538D01*
X04075D01*
X04175Y0528D02*
Y0527D01*
X04195D01*
Y0528D01*
X04205D01*
Y053D01*
X04195D01*
Y0531D01*
X04175D01*
Y053D01*
X04165D01*
Y0528D01*
X04175D01*
Y0538D02*
Y0537D01*
X04195D01*
Y0538D01*
X04205D01*
Y054D01*
X04195D01*
Y0541D01*
X04175D01*
Y054D01*
X04165D01*
Y0538D01*
X04175D01*
X04275Y0528D02*
Y0527D01*
X04295D01*
Y0528D01*
X04305D01*
Y053D01*
X04295D01*
Y0531D01*
X04275D01*
Y053D01*
X04265D01*
Y0528D01*
X04275D01*
Y0538D02*
Y0537D01*
X04295D01*
Y0538D01*
X04305D01*
Y054D01*
X04295D01*
Y0541D01*
X04275D01*
Y054D01*
X04265D01*
Y0538D01*
X04275D01*
X04375Y0528D02*
Y0527D01*
X04395D01*
Y0528D01*
X04405D01*
Y053D01*
X04395D01*
Y0531D01*
X04375D01*
Y053D01*
X04365D01*
Y0528D01*
X04375D01*
Y0538D02*
Y0537D01*
X04395D01*
Y0538D01*
X04405D01*
Y054D01*
X04395D01*
Y0541D01*
X04375D01*
Y054D01*
X04365D01*
Y0538D01*
X04375D01*
X04475Y0528D02*
Y0527D01*
X04495D01*
Y0528D01*
X04505D01*
Y053D01*
X04495D01*
Y0531D01*
X04475D01*
Y053D01*
X04465D01*
Y0528D01*
X04475D01*
Y0538D02*
Y0537D01*
X04495D01*
Y0538D01*
X04505D01*
Y054D01*
X04495D01*
Y0541D01*
X04475D01*
Y054D01*
X04465D01*
Y0538D01*
X04475D01*
X04575Y0528D02*
Y0527D01*
X04595D01*
Y0528D01*
X04605D01*
Y053D01*
X04595D01*
Y0531D01*
X04575D01*
Y053D01*
X04565D01*
Y0528D01*
X04575D01*
Y0538D02*
Y0537D01*
X04595D01*
Y0538D01*
X04605D01*
Y054D01*
X04595D01*
Y0541D01*
X04575D01*
Y054D01*
X04565D01*
Y0538D01*
X04575D01*
X04675Y0528D02*
Y0527D01*
X04695D01*
Y0528D01*
X04705D01*
Y053D01*
X04695D01*
Y0531D01*
X04675D01*
Y053D01*
X04665D01*
Y0528D01*
X04675D01*
Y0538D02*
Y0537D01*
X04695D01*
Y0538D01*
X04705D01*
Y054D01*
X04695D01*
Y0541D01*
X04675D01*
Y054D01*
X04665D01*
Y0538D01*
X04675D01*
X04775Y0528D02*
Y0527D01*
X04795D01*
Y0528D01*
X04805D01*
Y053D01*
X04795D01*
Y0531D01*
X04775D01*
Y053D01*
X04765D01*
Y0528D01*
X04775D01*
Y0538D02*
Y0537D01*
X04795D01*
Y0538D01*
X04805D01*
Y054D01*
X04795D01*
Y0541D01*
X04775D01*
Y054D01*
X04765D01*
Y0538D01*
X04775D01*
X02735Y05295D02*
X02745D01*
X02755Y05305D01*
X02765Y05295D01*
X02775D01*
Y05305D01*
X02765Y05315D01*
X02775Y05325D01*
Y05335D01*
X02765D01*
X02755Y05325D01*
X02745Y05335D01*
X02735D01*
Y05325D01*
X02745Y05315D01*
X02735Y05305D01*
Y05295D01*
X02835D02*
X02845D01*
X02855Y05305D01*
X02865Y05295D01*
X02875D01*
Y05305D01*
X02865Y05315D01*
X02875Y05325D01*
Y05335D01*
X02865D01*
X02855Y05325D01*
X02845Y05335D01*
X02835D01*
Y05325D01*
X02845Y05315D01*
X02835Y05305D01*
Y05295D01*
X02735Y055D02*
X02745D01*
X02755Y0551D01*
X02765Y055D01*
X02775D01*
Y0551D01*
X02765Y0552D01*
X02775Y0553D01*
Y0554D01*
X02765D01*
X02755Y0553D01*
X02745Y0554D01*
X02735D01*
Y0553D01*
X02745Y0552D01*
X02735Y0551D01*
Y055D01*
X02835D02*
X02845D01*
X02855Y0551D01*
X02865Y055D01*
X02875D01*
Y0551D01*
X02865Y0552D01*
X02875Y0553D01*
Y0554D01*
X02865D01*
X02855Y0553D01*
X02845Y0554D01*
X02835D01*
Y0553D01*
X02845Y0552D01*
X02835Y0551D01*
Y055D01*
X02735Y057D02*
X02745D01*
X02755Y0571D01*
X02765Y057D01*
X02775D01*
Y0571D01*
X02765Y0572D01*
X02775Y0573D01*
Y0574D01*
X02765D01*
X02755Y0573D01*
X02745Y0574D01*
X02735D01*
Y0573D01*
X02745Y0572D01*
X02735Y0571D01*
Y057D01*
X02835D02*
X02845D01*
X02855Y0571D01*
X02865Y057D01*
X02875D01*
Y0571D01*
X02865Y0572D01*
X02875Y0573D01*
Y0574D01*
X02865D01*
X02855Y0573D01*
X02845Y0574D01*
X02835D01*
Y0573D01*
X02845Y0572D01*
X02835Y0571D01*
Y057D01*
X02735Y05905D02*
X02745D01*
X02755Y05915D01*
X02765Y05905D01*
X02775D01*
Y05915D01*
X02765Y05925D01*
X02775Y05935D01*
Y05945D01*
X02765D01*
X02755Y05935D01*
X02745Y05945D01*
X02735D01*
Y05935D01*
X02745Y05925D01*
X02735Y05915D01*
Y05905D01*
X02835D02*
X02845D01*
X02855Y05915D01*
X02865Y05905D01*
X02875D01*
Y05915D01*
X02865Y05925D01*
X02875Y05935D01*
Y05945D01*
X02865D01*
X02855Y05935D01*
X02845Y05945D01*
X02835D01*
Y05935D01*
X02845Y05925D01*
X02835Y05915D01*
Y05905D01*
X02735Y0416D02*
X02745D01*
X02755Y0417D01*
X02765Y0416D01*
X02775D01*
Y0417D01*
X02765Y0418D01*
X02775Y0419D01*
Y042D01*
X02765D01*
X02755Y0419D01*
X02745Y042D01*
X02735D01*
Y0419D01*
X02745Y0418D01*
X02735Y0417D01*
Y0416D01*
X02835D02*
X02845D01*
X02855Y0417D01*
X02865Y0416D01*
X02875D01*
Y0417D01*
X02865Y0418D01*
X02875Y0419D01*
Y042D01*
X02865D01*
X02855Y0419D01*
X02845Y042D01*
X02835D01*
Y0419D01*
X02845Y0418D01*
X02835Y0417D01*
Y0416D01*
X02735Y0436D02*
X02745D01*
X02755Y0437D01*
X02765Y0436D01*
X02775D01*
Y0437D01*
X02765Y0438D01*
X02775Y0439D01*
Y044D01*
X02765D01*
X02755Y0439D01*
X02745Y044D01*
X02735D01*
Y0439D01*
X02745Y0438D01*
X02735Y0437D01*
Y0436D01*
X02835D02*
X02845D01*
X02855Y0437D01*
X02865Y0436D01*
X02875D01*
Y0437D01*
X02865Y0438D01*
X02875Y0439D01*
Y044D01*
X02865D01*
X02855Y0439D01*
X02845Y044D01*
X02835D01*
Y0439D01*
X02845Y0438D01*
X02835Y0437D01*
Y0436D01*
X02735Y0456D02*
X02745D01*
X02755Y0457D01*
X02765Y0456D01*
X02775D01*
Y0457D01*
X02765Y0458D01*
X02775Y0459D01*
Y046D01*
X02765D01*
X02755Y0459D01*
X02745Y046D01*
X02735D01*
Y0459D01*
X02745Y0458D01*
X02735Y0457D01*
Y0456D01*
X02835D02*
X02845D01*
X02855Y0457D01*
X02865Y0456D01*
X02875D01*
Y0457D01*
X02865Y0458D01*
X02875Y0459D01*
Y046D01*
X02865D01*
X02855Y0459D01*
X02845Y046D01*
X02835D01*
Y0459D01*
X02845Y0458D01*
X02835Y0457D01*
Y0456D01*
X0305Y03415D02*
X0307Y03435D01*
X0309Y03415D01*
X0307Y03395D01*
X0305Y03415D01*
Y03515D02*
X0307Y03535D01*
X0309Y03515D01*
X0307Y03495D01*
X0305Y03515D01*
Y03615D02*
X0307Y03635D01*
X0309Y03615D01*
X0307Y03595D01*
X0305Y03615D01*
Y03715D02*
X0307Y03735D01*
X0309Y03715D01*
X0307Y03695D01*
X0305Y03715D01*
Y03815D02*
X0307Y03835D01*
X0309Y03815D01*
X0307Y03795D01*
X0305Y03815D01*
X02735Y03495D02*
X02745D01*
X02755Y03505D01*
X02765Y03495D01*
X02775D01*
Y03505D01*
X02765Y03515D01*
X02775Y03525D01*
Y03535D01*
X02765D01*
X02755Y03525D01*
X02745Y03535D01*
X02735D01*
Y03525D01*
X02745Y03515D01*
X02735Y03505D01*
Y03495D01*
X02835D02*
X02845D01*
X02855Y03505D01*
X02865Y03495D01*
X02875D01*
Y03505D01*
X02865Y03515D01*
X02875Y03525D01*
Y03535D01*
X02865D01*
X02855Y03525D01*
X02845Y03535D01*
X02835D01*
Y03525D01*
X02845Y03515D01*
X02835Y03505D01*
Y03495D01*
X02735Y03295D02*
X02745D01*
X02755Y03305D01*
X02765Y03295D01*
X02775D01*
Y03305D01*
X02765Y03315D01*
X02775Y03325D01*
Y03335D01*
X02765D01*
X02755Y03325D01*
X02745Y03335D01*
X02735D01*
Y03325D01*
X02745Y03315D01*
X02735Y03305D01*
Y03295D01*
X02835D02*
X02845D01*
X02855Y03305D01*
X02865Y03295D01*
X02875D01*
Y03305D01*
X02865Y03315D01*
X02875Y03325D01*
Y03335D01*
X02865D01*
X02855Y03325D01*
X02845Y03335D01*
X02835D01*
Y03325D01*
X02845Y03315D01*
X02835Y03305D01*
Y03295D01*
X02735Y03095D02*
X02745D01*
X02755Y03105D01*
X02765Y03095D01*
X02775D01*
Y03105D01*
X02765Y03115D01*
X02775Y03125D01*
Y03135D01*
X02765D01*
X02755Y03125D01*
X02745Y03135D01*
X02735D01*
Y03125D01*
X02745Y03115D01*
X02735Y03105D01*
Y03095D01*
X02835D02*
X02845D01*
X02855Y03105D01*
X02865Y03095D01*
X02875D01*
Y03105D01*
X02865Y03115D01*
X02875Y03125D01*
Y03135D01*
X02865D01*
X02855Y03125D01*
X02845Y03135D01*
X02835D01*
Y03125D01*
X02845Y03115D01*
X02835Y03105D01*
Y03095D01*
X02735Y02895D02*
X02745D01*
X02755Y02905D01*
X02765Y02895D01*
X02775D01*
Y02905D01*
X02765Y02915D01*
X02775Y02925D01*
Y02935D01*
X02765D01*
X02755Y02925D01*
X02745Y02935D01*
X02735D01*
Y02925D01*
X02745Y02915D01*
X02735Y02905D01*
Y02895D01*
X02835D02*
X02845D01*
X02855Y02905D01*
X02865Y02895D01*
X02875D01*
Y02905D01*
X02865Y02915D01*
X02875Y02925D01*
Y02935D01*
X02865D01*
X02855Y02925D01*
X02845Y02935D01*
X02835D01*
Y02925D01*
X02845Y02915D01*
X02835Y02905D01*
Y02895D01*
X02735Y02695D02*
X02745D01*
X02755Y02705D01*
X02765Y02695D01*
X02775D01*
Y02705D01*
X02765Y02715D01*
X02775Y02725D01*
Y02735D01*
X02765D01*
X02755Y02725D01*
X02745Y02735D01*
X02735D01*
Y02725D01*
X02745Y02715D01*
X02735Y02705D01*
Y02695D01*
X02835D02*
X02845D01*
X02855Y02705D01*
X02865Y02695D01*
X02875D01*
Y02705D01*
X02865Y02715D01*
X02875Y02725D01*
Y02735D01*
X02865D01*
X02855Y02725D01*
X02845Y02735D01*
X02835D01*
Y02725D01*
X02845Y02715D01*
X02835Y02705D01*
Y02695D01*
Y02495D02*
X02845D01*
X02855Y02505D01*
X02865Y02495D01*
X02875D01*
Y02505D01*
X02865Y02515D01*
X02875Y02525D01*
Y02535D01*
X02865D01*
X02855Y02525D01*
X02845Y02535D01*
X02835D01*
Y02525D01*
X02845Y02515D01*
X02835Y02505D01*
Y02495D01*
X02735D02*
X02745D01*
X02755Y02505D01*
X02765Y02495D01*
X02775D01*
Y02505D01*
X02765Y02515D01*
X02775Y02525D01*
Y02535D01*
X02765D01*
X02755Y02525D01*
X02745Y02535D01*
X02735D01*
Y02525D01*
X02745Y02515D01*
X02735Y02505D01*
Y02495D01*
X03055Y0194D02*
X03075Y0196D01*
X03095Y0194D01*
X03075Y0192D01*
X03055Y0194D01*
Y0204D02*
X03075Y0206D01*
X03095Y0204D01*
X03075Y0202D01*
X03055Y0204D01*
Y0214D02*
X03075Y0216D01*
X03095Y0214D01*
X03075Y0212D01*
X03055Y0214D01*
Y0224D02*
X03075Y0226D01*
X03095Y0224D01*
X03075Y0222D01*
X03055Y0224D01*
Y0234D02*
X03075Y0236D01*
X03095Y0234D01*
X03075Y0232D01*
X03055Y0234D01*
X02735Y01225D02*
X02745D01*
X02755Y01235D01*
X02765Y01225D01*
X02775D01*
Y01235D01*
X02765Y01245D01*
X02775Y01255D01*
Y01265D01*
X02765D01*
X02755Y01255D01*
X02745Y01265D01*
X02735D01*
Y01255D01*
X02745Y01245D01*
X02735Y01235D01*
Y01225D01*
X02835D02*
X02845D01*
X02855Y01235D01*
X02865Y01225D01*
X02875D01*
Y01235D01*
X02865Y01245D01*
X02875Y01255D01*
Y01265D01*
X02865D01*
X02855Y01255D01*
X02845Y01265D01*
X02835D01*
Y01255D01*
X02845Y01245D01*
X02835Y01235D01*
Y01225D01*
X02735Y01425D02*
X02745D01*
X02755Y01435D01*
X02765Y01425D01*
X02775D01*
Y01435D01*
X02765Y01445D01*
X02775Y01455D01*
Y01465D01*
X02765D01*
X02755Y01455D01*
X02745Y01465D01*
X02735D01*
Y01455D01*
X02745Y01445D01*
X02735Y01435D01*
Y01425D01*
X02835D02*
X02845D01*
X02855Y01435D01*
X02865Y01425D01*
X02875D01*
Y01435D01*
X02865Y01445D01*
X02875Y01455D01*
Y01465D01*
X02865D01*
X02855Y01455D01*
X02845Y01465D01*
X02835D01*
Y01455D01*
X02845Y01445D01*
X02835Y01435D01*
Y01425D01*
X02735Y01635D02*
X02745D01*
X02755Y01645D01*
X02765Y01635D01*
X02775D01*
Y01645D01*
X02765Y01655D01*
X02775Y01665D01*
Y01675D01*
X02765D01*
X02755Y01665D01*
X02745Y01675D01*
X02735D01*
Y01665D01*
X02745Y01655D01*
X02735Y01645D01*
Y01635D01*
X02835D02*
X02845D01*
X02855Y01645D01*
X02865Y01635D01*
X02875D01*
Y01645D01*
X02865Y01655D01*
X02875Y01665D01*
Y01675D01*
X02865D01*
X02855Y01665D01*
X02845Y01675D01*
X02835D01*
Y01665D01*
X02845Y01655D01*
X02835Y01645D01*
Y01635D01*
X02735Y01835D02*
X02745D01*
X02755Y01845D01*
X02765Y01835D01*
X02775D01*
Y01845D01*
X02765Y01855D01*
X02775Y01865D01*
Y01875D01*
X02765D01*
X02755Y01865D01*
X02745Y01875D01*
X02735D01*
Y01865D01*
X02745Y01855D01*
X02735Y01845D01*
Y01835D01*
X02835D02*
X02845D01*
X02855Y01845D01*
X02865Y01835D01*
X02875D01*
Y01845D01*
X02865Y01855D01*
X02875Y01865D01*
Y01875D01*
X02865D01*
X02855Y01865D01*
X02845Y01875D01*
X02835D01*
Y01865D01*
X02845Y01855D01*
X02835Y01845D01*
Y01835D01*
X0499Y0354D02*
Y0358D01*
X0503D01*
Y0354D01*
X0499D01*
X04998Y03548D02*
Y03572D01*
X05022D01*
Y03548D01*
X04998D01*
X0499Y0344D02*
Y0348D01*
X0503D01*
Y0344D01*
X0499D01*
X04998Y03448D02*
Y03472D01*
X05022D01*
Y03448D01*
X04998D01*
X0499Y0334D02*
Y0338D01*
X0503D01*
Y0334D01*
X0499D01*
X04998Y03348D02*
Y03372D01*
X05022D01*
Y03348D01*
X04998D01*
X0499Y0324D02*
Y0328D01*
X0503D01*
Y0324D01*
X0499D01*
X04998Y03248D02*
Y03272D01*
X05022D01*
Y03248D01*
X04998D01*
X0499Y0314D02*
Y0318D01*
X0503D01*
Y0314D01*
X0499D01*
X04998Y03148D02*
Y03172D01*
X05022D01*
Y03148D01*
X04998D01*
X0499Y0304D02*
Y0308D01*
X0503D01*
Y0304D01*
X0499D01*
X04998Y03048D02*
Y03072D01*
X05022D01*
Y03048D01*
X04998D01*
X0305Y0534D02*
X0307Y0536D01*
X0309Y0534D01*
X0307Y0532D01*
X0305Y0534D01*
Y0544D02*
X0307Y0546D01*
X0309Y0544D01*
X0307Y0542D01*
X0305Y0544D01*
Y0554D02*
X0307Y0556D01*
X0309Y0554D01*
X0307Y0552D01*
X0305Y0554D01*
Y0564D02*
X0307Y0566D01*
X0309Y0564D01*
X0307Y0562D01*
X0305Y0564D01*
Y0574D02*
X0307Y0576D01*
X0309Y0574D01*
X0307Y0572D01*
X0305Y0574D01*
Y0466D02*
X0307Y0468D01*
X0309Y0466D01*
X0307Y0464D01*
X0305Y0466D01*
Y0476D02*
X0307Y0478D01*
X0309Y0476D01*
X0307Y0474D01*
X0305Y0476D01*
Y0486D02*
X0307Y0488D01*
X0309Y0486D01*
X0307Y0484D01*
X0305Y0486D01*
Y0496D02*
X0307Y0498D01*
X0309Y0496D01*
X0307Y0494D01*
X0305Y0496D01*
Y0506D02*
X0307Y0508D01*
X0309Y0506D01*
X0307Y0504D01*
X0305Y0506D01*
X02735Y04755D02*
X02745D01*
X02755Y04765D01*
X02765Y04755D01*
X02775D01*
Y04765D01*
X02765Y04775D01*
X02775Y04785D01*
Y04795D01*
X02765D01*
X02755Y04785D01*
X02745Y04795D01*
X02735D01*
Y04785D01*
X02745Y04775D01*
X02735Y04765D01*
Y04755D01*
X02835D02*
X02845D01*
X02855Y04765D01*
X02865Y04755D01*
X02875D01*
Y04765D01*
X02865Y04775D01*
X02875Y04785D01*
Y04795D01*
X02865D01*
X02855Y04785D01*
X02845Y04795D01*
X02835D01*
Y04785D01*
X02845Y04775D01*
X02835Y04765D01*
Y04755D01*
X04Y0445D02*
X0401Y0447D01*
X04Y0449D01*
X0402Y0448D01*
X0404Y0449D01*
X0403Y0447D01*
X0404Y0445D01*
X0402Y0446D01*
X04Y0445D01*
X043D02*
X0431Y0447D01*
X043Y0449D01*
X0432Y0448D01*
X0434Y0449D01*
X0433Y0447D01*
X0434Y0445D01*
X0432Y0446D01*
X043Y0445D01*
X04Y0435D02*
X0401Y0437D01*
X04Y0439D01*
X0402Y0438D01*
X0404Y0439D01*
X0403Y0437D01*
X0404Y0435D01*
X0402Y0436D01*
X04Y0435D01*
X043D02*
X0431Y0437D01*
X043Y0439D01*
X0432Y0438D01*
X0434Y0439D01*
X0433Y0437D01*
X0434Y0435D01*
X0432Y0436D01*
X043Y0435D01*
X046259Y039235D02*
Y039635D01*
X046659D01*
Y039235D01*
X046259D01*
X046339Y039315D02*
Y039555D01*
X046579D01*
Y039315D01*
X046339D01*
X02455Y052D02*
X02465Y0521D01*
X02475D01*
X02465Y0522D01*
X02475Y0523D01*
X02465D01*
X02455Y0524D01*
X02445Y0523D01*
X02435D01*
X02445Y0522D01*
X02435Y0521D01*
X02445D01*
X02455Y052D01*
Y054D02*
X02465Y0541D01*
X02475D01*
X02465Y0542D01*
X02475Y0543D01*
X02465D01*
X02455Y0544D01*
X02445Y0543D01*
X02435D01*
X02445Y0542D01*
X02435Y0541D01*
X02445D01*
X02455Y054D01*
Y056D02*
X02465Y0561D01*
X02475D01*
X02465Y0562D01*
X02475Y0563D01*
X02465D01*
X02455Y0564D01*
X02445Y0563D01*
X02435D01*
X02445Y0562D01*
X02435Y0561D01*
X02445D01*
X02455Y056D01*
Y058D02*
X02465Y0581D01*
X02475D01*
X02465Y0582D01*
X02475Y0583D01*
X02465D01*
X02455Y0584D01*
X02445Y0583D01*
X02435D01*
X02445Y0582D01*
X02435Y0581D01*
X02445D01*
X02455Y058D01*
Y06D02*
X02465Y0601D01*
X02475D01*
X02465Y0602D01*
X02475Y0603D01*
X02465D01*
X02455Y0604D01*
X02445Y0603D01*
X02435D01*
X02445Y0602D01*
X02435Y0601D01*
X02445D01*
X02455Y06D01*
Y062D02*
X02465Y0621D01*
X02475D01*
X02465Y0622D01*
X02475Y0623D01*
X02465D01*
X02455Y0624D01*
X02445Y0623D01*
X02435D01*
X02445Y0622D01*
X02435Y0621D01*
X02445D01*
X02455Y062D01*
Y010254D02*
X02465Y010354D01*
X02475D01*
X02465Y010454D01*
X02475Y010554D01*
X02465D01*
X02455Y010654D01*
X02445Y010554D01*
X02435D01*
X02445Y010454D01*
X02435Y010354D01*
X02445D01*
X02455Y010254D01*
Y012254D02*
X02465Y012354D01*
X02475D01*
X02465Y012454D01*
X02475Y012554D01*
X02465D01*
X02455Y012654D01*
X02445Y012554D01*
X02435D01*
X02445Y012454D01*
X02435Y012354D01*
X02445D01*
X02455Y012254D01*
Y014254D02*
X02465Y014354D01*
X02475D01*
X02465Y014454D01*
X02475Y014554D01*
X02465D01*
X02455Y014654D01*
X02445Y014554D01*
X02435D01*
X02445Y014454D01*
X02435Y014354D01*
X02445D01*
X02455Y014254D01*
Y016254D02*
X02465Y016354D01*
X02475D01*
X02465Y016454D01*
X02475Y016554D01*
X02465D01*
X02455Y016654D01*
X02445Y016554D01*
X02435D01*
X02445Y016454D01*
X02435Y016354D01*
X02445D01*
X02455Y016254D01*
Y018254D02*
X02465Y018354D01*
X02475D01*
X02465Y018454D01*
X02475Y018554D01*
X02465D01*
X02455Y018654D01*
X02445Y018554D01*
X02435D01*
X02445Y018454D01*
X02435Y018354D01*
X02445D01*
X02455Y018254D01*
Y020254D02*
X02465Y020354D01*
X02475D01*
X02465Y020454D01*
X02475Y020554D01*
X02465D01*
X02455Y020654D01*
X02445Y020554D01*
X02435D01*
X02445Y020454D01*
X02435Y020354D01*
X02445D01*
X02455Y020254D01*
X0564Y01025D02*
X0565Y01035D01*
X0566D01*
X0565Y01045D01*
X0566Y01055D01*
X0565D01*
X0564Y01065D01*
X0563Y01055D01*
X0562D01*
X0563Y01045D01*
X0562Y01035D01*
X0563D01*
X0564Y01025D01*
Y01225D02*
X0565Y01235D01*
X0566D01*
X0565Y01245D01*
X0566Y01255D01*
X0565D01*
X0564Y01265D01*
X0563Y01255D01*
X0562D01*
X0563Y01245D01*
X0562Y01235D01*
X0563D01*
X0564Y01225D01*
Y01425D02*
X0565Y01435D01*
X0566D01*
X0565Y01445D01*
X0566Y01455D01*
X0565D01*
X0564Y01465D01*
X0563Y01455D01*
X0562D01*
X0563Y01445D01*
X0562Y01435D01*
X0563D01*
X0564Y01425D01*
Y01625D02*
X0565Y01635D01*
X0566D01*
X0565Y01645D01*
X0566Y01655D01*
X0565D01*
X0564Y01665D01*
X0563Y01655D01*
X0562D01*
X0563Y01645D01*
X0562Y01635D01*
X0563D01*
X0564Y01625D01*
Y01825D02*
X0565Y01835D01*
X0566D01*
X0565Y01845D01*
X0566Y01855D01*
X0565D01*
X0564Y01865D01*
X0563Y01855D01*
X0562D01*
X0563Y01845D01*
X0562Y01835D01*
X0563D01*
X0564Y01825D01*
Y02025D02*
X0565Y02035D01*
X0566D01*
X0565Y02045D01*
X0566Y02055D01*
X0565D01*
X0564Y02065D01*
X0563Y02055D01*
X0562D01*
X0563Y02045D01*
X0562Y02035D01*
X0563D01*
X0564Y02025D01*
Y02225D02*
X0565Y02235D01*
X0566D01*
X0565Y02245D01*
X0566Y02255D01*
X0565D01*
X0564Y02265D01*
X0563Y02255D01*
X0562D01*
X0563Y02245D01*
X0562Y02235D01*
X0563D01*
X0564Y02225D01*
Y02425D02*
X0565Y02435D01*
X0566D01*
X0565Y02445D01*
X0566Y02455D01*
X0565D01*
X0564Y02465D01*
X0563Y02455D01*
X0562D01*
X0563Y02445D01*
X0562Y02435D01*
X0563D01*
X0564Y02425D01*
Y02625D02*
X0565Y02635D01*
X0566D01*
X0565Y02645D01*
X0566Y02655D01*
X0565D01*
X0564Y02665D01*
X0563Y02655D01*
X0562D01*
X0563Y02645D01*
X0562Y02635D01*
X0563D01*
X0564Y02625D01*
Y02825D02*
X0565Y02835D01*
X0566D01*
X0565Y02845D01*
X0566Y02855D01*
X0565D01*
X0564Y02865D01*
X0563Y02855D01*
X0562D01*
X0563Y02845D01*
X0562Y02835D01*
X0563D01*
X0564Y02825D01*
Y03025D02*
X0565Y03035D01*
X0566D01*
X0565Y03045D01*
X0566Y03055D01*
X0565D01*
X0564Y03065D01*
X0563Y03055D01*
X0562D01*
X0563Y03045D01*
X0562Y03035D01*
X0563D01*
X0564Y03025D01*
Y03225D02*
X0565Y03235D01*
X0566D01*
X0565Y03245D01*
X0566Y03255D01*
X0565D01*
X0564Y03265D01*
X0563Y03255D01*
X0562D01*
X0563Y03245D01*
X0562Y03235D01*
X0563D01*
X0564Y03225D01*
Y03425D02*
X0565Y03435D01*
X0566D01*
X0565Y03445D01*
X0566Y03455D01*
X0565D01*
X0564Y03465D01*
X0563Y03455D01*
X0562D01*
X0563Y03445D01*
X0562Y03435D01*
X0563D01*
X0564Y03425D01*
Y03625D02*
X0565Y03635D01*
X0566D01*
X0565Y03645D01*
X0566Y03655D01*
X0565D01*
X0564Y03665D01*
X0563Y03655D01*
X0562D01*
X0563Y03645D01*
X0562Y03635D01*
X0563D01*
X0564Y03625D01*
Y03825D02*
X0565Y03835D01*
X0566D01*
X0565Y03845D01*
X0566Y03855D01*
X0565D01*
X0564Y03865D01*
X0563Y03855D01*
X0562D01*
X0563Y03845D01*
X0562Y03835D01*
X0563D01*
X0564Y03825D01*
Y04025D02*
X0565Y04035D01*
X0566D01*
X0565Y04045D01*
X0566Y04055D01*
X0565D01*
X0564Y04065D01*
X0563Y04055D01*
X0562D01*
X0563Y04045D01*
X0562Y04035D01*
X0563D01*
X0564Y04025D01*
Y04225D02*
X0565Y04235D01*
X0566D01*
X0565Y04245D01*
X0566Y04255D01*
X0565D01*
X0564Y04265D01*
X0563Y04255D01*
X0562D01*
X0563Y04245D01*
X0562Y04235D01*
X0563D01*
X0564Y04225D01*
Y04425D02*
X0565Y04435D01*
X0566D01*
X0565Y04445D01*
X0566Y04455D01*
X0565D01*
X0564Y04465D01*
X0563Y04455D01*
X0562D01*
X0563Y04445D01*
X0562Y04435D01*
X0563D01*
X0564Y04425D01*
X03575Y01035D02*
Y01075D01*
X03615D01*
Y01035D01*
X03575D01*
X043224Y019778D02*
X043024Y020178D01*
X043424D01*
X043224Y019778D01*
Y019858D02*
X043104Y020098D01*
X043344D01*
X043224Y019858D01*
X042159Y020007D02*
X041959Y020407D01*
X042359D01*
X042159Y020007D01*
Y020087D02*
X042039Y020327D01*
X042279D01*
X042159Y020087D01*
X031112Y043109D02*
X030912Y043509D01*
X031312D01*
X031112Y043109D01*
Y043189D02*
X030992Y043429D01*
X031232D01*
X031112Y043189D01*
X037694Y044598D02*
X037494Y044998D01*
X037894D01*
X037694Y044598D01*
Y044678D02*
X037574Y044918D01*
X037814D01*
X037694Y044678D01*
X033779Y044452D02*
X033579Y044852D01*
X033979D01*
X033779Y044452D01*
Y044532D02*
X033659Y044772D01*
X033899D01*
X033779Y044532D01*
X034492Y03542D02*
X034292Y03582D01*
X034692D01*
X034492Y03542D01*
Y0355D02*
X034372Y03574D01*
X034612D01*
X034492Y0355D01*
X034527Y033252D02*
X034327Y033652D01*
X034727D01*
X034527Y033252D01*
Y033332D02*
X034407Y033572D01*
X034647D01*
X034527Y033332D01*
X036018Y034405D02*
X035818Y034805D01*
X036218D01*
X036018Y034405D01*
Y034485D02*
X035898Y034725D01*
X036138D01*
X036018Y034485D01*
X037785Y040888D02*
X037585Y041288D01*
X037985D01*
X037785Y040888D01*
Y040968D02*
X037665Y041208D01*
X037905D01*
X037785Y040968D01*
X035322Y034374D02*
X035122Y034774D01*
X035522D01*
X035322Y034374D01*
Y034454D02*
X035202Y034694D01*
X035442D01*
X035322Y034454D01*
X036165Y036763D02*
X035965Y037163D01*
X036365D01*
X036165Y036763D01*
Y036843D02*
X036045Y037083D01*
X036285D01*
X036165Y036843D01*
X031712Y0429D02*
X031512Y0433D01*
X031912D01*
X031712Y0429D01*
Y04298D02*
X031592Y04322D01*
X031832D01*
X031712Y04298D01*
X031571Y040344D02*
X031371Y040744D01*
X031771D01*
X031571Y040344D01*
Y040424D02*
X031451Y040664D01*
X031691D01*
X031571Y040424D01*
X038094Y04187D02*
X037894Y04227D01*
X038294D01*
X038094Y04187D01*
Y04195D02*
X037974Y04219D01*
X038214D01*
X038094Y04195D01*
X03175Y041896D02*
X03155Y042296D01*
X03195D01*
X03175Y041896D01*
Y041976D02*
X03163Y042216D01*
X03187D01*
X03175Y041976D01*
X041354Y034729D02*
X041154Y035129D01*
X041554D01*
X041354Y034729D01*
Y034809D02*
X041234Y035049D01*
X041474D01*
X041354Y034809D01*
X041877Y034277D02*
X041677Y034677D01*
X042077D01*
X041877Y034277D01*
Y034357D02*
X041757Y034597D01*
X041997D01*
X041877Y034357D01*
X040997Y034188D02*
X040797Y034588D01*
X041197D01*
X040997Y034188D01*
Y034268D02*
X040877Y034508D01*
X041117D01*
X040997Y034268D01*
X041173Y033293D02*
X040973Y033693D01*
X041373D01*
X041173Y033293D01*
Y033373D02*
X041053Y033613D01*
X041293D01*
X041173Y033373D01*
X04183Y032097D02*
X04163Y032497D01*
X04203D01*
X04183Y032097D01*
Y032177D02*
X04171Y032417D01*
X04195D01*
X04183Y032177D01*
X045318Y033298D02*
X045118Y033698D01*
X045518D01*
X045318Y033298D01*
Y033378D02*
X045198Y033618D01*
X045438D01*
X045318Y033378D01*
X045914Y032547D02*
X045714Y032947D01*
X046114D01*
X045914Y032547D01*
Y032627D02*
X045794Y032867D01*
X046034D01*
X045914Y032627D01*
X047211Y027662D02*
X047011Y028062D01*
X047411D01*
X047211Y027662D01*
Y027742D02*
X047091Y027982D01*
X047331D01*
X047211Y027742D01*
X04678Y026235D02*
X04658Y026635D01*
X04698D01*
X04678Y026235D01*
Y026315D02*
X04666Y026555D01*
X0469D01*
X04678Y026315D01*
X046743Y028142D02*
X046543Y028542D01*
X046943D01*
X046743Y028142D01*
Y028222D02*
X046623Y028462D01*
X046863D01*
X046743Y028222D01*
X049663Y029345D02*
X049463Y029745D01*
X049863D01*
X049663Y029345D01*
Y029425D02*
X049543Y029665D01*
X049783D01*
X049663Y029425D01*
X037855Y029539D02*
X037655Y029939D01*
X038055D01*
X037855Y029539D01*
Y029619D02*
X037735Y029859D01*
X037975D01*
X037855Y029619D01*
X037856Y028893D02*
X037656Y029293D01*
X038056D01*
X037856Y028893D01*
Y028973D02*
X037736Y029213D01*
X037976D01*
X037856Y028973D01*
X03993Y033133D02*
X03973Y033533D01*
X04013D01*
X03993Y033133D01*
Y033213D02*
X03981Y033453D01*
X04005D01*
X03993Y033213D01*
X046261Y022911D02*
X046061Y023311D01*
X046461D01*
X046261Y022911D01*
Y022991D02*
X046141Y023231D01*
X046381D01*
X046261Y022991D01*
X034882Y031815D02*
X034682Y032215D01*
X035082D01*
X034882Y031815D01*
Y031895D02*
X034762Y032135D01*
X035002D01*
X034882Y031895D01*
X034891Y031202D02*
X034691Y031602D01*
X035091D01*
X034891Y031202D01*
Y031282D02*
X034771Y031522D01*
X035011D01*
X034891Y031282D01*
X03425Y02875D02*
X03405Y02915D01*
X03445D01*
X03425Y02875D01*
Y02883D02*
X03413Y02907D01*
X03437D01*
X03425Y02883D01*
X034126Y030049D02*
X033926Y030449D01*
X034326D01*
X034126Y030049D01*
Y030129D02*
X034006Y030369D01*
X034246D01*
X034126Y030129D01*
X035852Y028612D02*
X035652Y029012D01*
X036052D01*
X035852Y028612D01*
Y028692D02*
X035732Y028932D01*
X035972D01*
X035852Y028692D01*
X035386Y028145D02*
X035186Y028545D01*
X035586D01*
X035386Y028145D01*
Y028225D02*
X035266Y028465D01*
X035506D01*
X035386Y028225D01*
X040393Y022755D02*
X040193Y023155D01*
X040593D01*
X040393Y022755D01*
Y022835D02*
X040273Y023075D01*
X040513D01*
X040393Y022835D01*
X038401Y023301D02*
X038201Y023701D01*
X038601D01*
X038401Y023301D01*
Y023381D02*
X038281Y023621D01*
X038521D01*
X038401Y023381D01*
X038745Y022128D02*
X038545Y022528D01*
X038945D01*
X038745Y022128D01*
Y022208D02*
X038625Y022448D01*
X038865D01*
X038745Y022208D01*
X040152Y015322D02*
X039952Y015722D01*
X040352D01*
X040152Y015322D01*
Y015402D02*
X040032Y015642D01*
X040272D01*
X040152Y015402D01*
X034003Y02038D02*
X033803Y02078D01*
X034203D01*
X034003Y02038D01*
Y02046D02*
X033883Y0207D01*
X034123D01*
X034003Y02046D01*
X030404Y01781D02*
X030204Y01821D01*
X030604D01*
X030404Y01781D01*
Y01789D02*
X030284Y01813D01*
X030524D01*
X030404Y01789D01*
X039939Y016911D02*
X039739Y017311D01*
X040139D01*
X039939Y016911D01*
Y016991D02*
X039819Y017231D01*
X040059D01*
X039939Y016991D01*
X041133Y026575D02*
X040933Y026975D01*
X041333D01*
X041133Y026575D01*
Y026655D02*
X041013Y026895D01*
X041253D01*
X041133Y026655D01*
X053425Y019332D02*
X053225Y019732D01*
X053625D01*
X053425Y019332D01*
Y019411D02*
X053305Y019651D01*
X053545D01*
X053425Y019411D01*
X039016Y026471D02*
X038816Y026871D01*
X039216D01*
X039016Y026471D01*
Y026551D02*
X038896Y026791D01*
X039136D01*
X039016Y026551D01*
X035889Y027218D02*
X035689Y027619D01*
X036089D01*
X035889Y027218D01*
Y027299D02*
X035769Y027538D01*
X036009D01*
X035889Y027299D01*
X034364Y026456D02*
X034164Y026856D01*
X034564D01*
X034364Y026456D01*
Y026536D02*
X034244Y026776D01*
X034484D01*
X034364Y026536D01*
X035058Y025904D02*
X034858Y026304D01*
X035258D01*
X035058Y025904D01*
Y025984D02*
X034938Y026224D01*
X035178D01*
X035058Y025984D01*
X034667Y024894D02*
X034467Y025294D01*
X034867D01*
X034667Y024894D01*
Y024974D02*
X034547Y025214D01*
X034787D01*
X034667Y024974D01*
X034165Y024122D02*
X033965Y024522D01*
X034365D01*
X034165Y024122D01*
Y024202D02*
X034045Y024442D01*
X034285D01*
X034165Y024202D01*
X034125Y025464D02*
X033925Y025864D01*
X034325D01*
X034125Y025464D01*
Y025544D02*
X034005Y025784D01*
X034245D01*
X034125Y025544D01*
X048515Y029967D02*
X048315Y030367D01*
X048715D01*
X048515Y029967D01*
Y030047D02*
X048395Y030287D01*
X048635D01*
X048515Y030047D01*
X049106Y032398D02*
X048906Y032798D01*
X049306D01*
X049106Y032398D01*
Y032478D02*
X048986Y032718D01*
X049226D01*
X049106Y032478D01*
X0292Y05795D02*
X029Y05835D01*
X0294D01*
X0292Y05795D01*
Y05803D02*
X02908Y05827D01*
X02932D01*
X0292Y05803D01*
X0295Y02865D02*
X0293Y02905D01*
X0297D01*
X0295Y02865D01*
Y02873D02*
X02938Y02897D01*
X02962D01*
X0295Y02873D01*
X0303Y024D02*
X0301Y0244D01*
X0305D01*
X0303Y024D01*
Y02408D02*
X03018Y02432D01*
X03042D01*
X0303Y02408D01*
X033919Y01535D02*
X033719Y01575D01*
X034119D01*
X033919Y01535D01*
Y01543D02*
X033799Y01567D01*
X034039D01*
X033919Y01543D01*
X033Y01545D02*
X0328Y01585D01*
X0332D01*
X033Y01545D01*
Y01553D02*
X03288Y01577D01*
X03312D01*
X033Y01553D01*
X0321Y01535D02*
X0319Y01575D01*
X0323D01*
X0321Y01535D01*
Y01543D02*
X03198Y01567D01*
X03222D01*
X0321Y01543D01*
X0346Y02925D02*
X0344Y02965D01*
X0348D01*
X0346Y02925D01*
Y02933D02*
X03448Y02957D01*
X03472D01*
X0346Y02933D01*
X0314Y0299D02*
X0312Y0303D01*
X0316D01*
X0314Y0299D01*
Y02998D02*
X03128Y03022D01*
X03152D01*
X0314Y02998D01*
X03205Y01705D02*
X03185Y01745D01*
X03225D01*
X03205Y01705D01*
Y01713D02*
X03193Y01737D01*
X03217D01*
X03205Y01713D01*
X0339Y0399D02*
X0337Y0403D01*
X0341D01*
X0339Y0399D01*
Y03998D02*
X03378Y04022D01*
X03402D01*
X0339Y03998D01*
X03165Y0143D02*
X03145Y0147D01*
X03185D01*
X03165Y0143D01*
Y01438D02*
X03153Y01462D01*
X03177D01*
X03165Y01438D01*
X0316Y0166D02*
X0314Y017D01*
X0318D01*
X0316Y0166D01*
Y01668D02*
X03148Y01692D01*
X03172D01*
X0316Y01668D01*
X0269Y0237D02*
X0267Y0241D01*
X0271D01*
X0269Y0237D01*
Y02378D02*
X02678Y02402D01*
X02702D01*
X0269Y02378D01*
X02625Y01975D02*
X02605Y02015D01*
X02645D01*
X02625Y01975D01*
Y01983D02*
X02613Y02007D01*
X02637D01*
X02625Y01983D01*
X0262Y0239D02*
X026Y0243D01*
X0264D01*
X0262Y0239D01*
Y02398D02*
X02608Y02422D01*
X02632D01*
X0262Y02398D01*
X029307Y027843D02*
X029107Y028243D01*
X029507D01*
X029307Y027843D01*
Y027923D02*
X029187Y028163D01*
X029427D01*
X029307Y027923D01*
X030689Y025966D02*
X030489Y026366D01*
X030889D01*
X030689Y025966D01*
Y026046D02*
X030569Y026286D01*
X030809D01*
X030689Y026046D01*
X031324Y027171D02*
X031124Y027571D01*
X031524D01*
X031324Y027171D01*
Y027251D02*
X031204Y027491D01*
X031444D01*
X031324Y027251D01*
X0304Y03055D02*
X0302Y03095D01*
X0306D01*
X0304Y03055D01*
Y03063D02*
X03028Y03087D01*
X03052D01*
X0304Y03063D01*
X0311Y03925D02*
X0309Y03965D01*
X0313D01*
X0311Y03925D01*
Y03933D02*
X03098Y03957D01*
X03122D01*
X0311Y03933D01*
X03095Y04095D02*
X03075Y04135D01*
X03115D01*
X03095Y04095D01*
Y04103D02*
X03083Y04127D01*
X03107D01*
X03095Y04103D01*
X0313Y04555D02*
X0311Y04595D01*
X0315D01*
X0313Y04555D01*
Y04563D02*
X03118Y04587D01*
X03142D01*
X0313Y04563D01*
X03035Y0602D02*
X03015Y0606D01*
X03055D01*
X03035Y0602D01*
Y06028D02*
X03023Y06052D01*
X03047D01*
X03035Y06028D01*
X0315Y0306D02*
X0313Y031D01*
X0317D01*
X0315Y0306D01*
Y03068D02*
X03138Y03092D01*
X03162D01*
X0315Y03068D01*
X03165Y032328D02*
X03145Y032728D01*
X03185D01*
X03165Y032328D01*
Y032408D02*
X03153Y032648D01*
X03177D01*
X03165Y032408D01*
X02985Y03025D02*
X02965Y03065D01*
X03005D01*
X02985Y03025D01*
Y03033D02*
X02973Y03057D01*
X02997D01*
X02985Y03033D01*
X030895Y02876D02*
X030695Y02916D01*
X031095D01*
X030895Y02876D01*
Y02884D02*
X030775Y02908D01*
X031015D01*
X030895Y02884D01*
X02925Y03005D02*
X02905Y03045D01*
X02945D01*
X02925Y03005D01*
Y03013D02*
X02913Y03037D01*
X02937D01*
X02925Y03013D01*
X0291Y0399D02*
X0289Y0403D01*
X0293D01*
X0291Y0399D01*
Y03998D02*
X02898Y04022D01*
X02922D01*
X0291Y03998D01*
X02855Y04035D02*
X02835Y04075D01*
X02875D01*
X02855Y04035D01*
Y04043D02*
X02843Y04067D01*
X02867D01*
X02855Y04043D01*
X02685Y04035D02*
X02665Y04075D01*
X02705D01*
X02685Y04035D01*
Y04043D02*
X02673Y04067D01*
X02697D01*
X02685Y04043D01*
X0263Y0399D02*
X0261Y0403D01*
X0265D01*
X0263Y0399D01*
Y03998D02*
X02618Y04022D01*
X02642D01*
X0263Y03998D01*
X0292Y0224D02*
X029Y0228D01*
X0294D01*
X0292Y0224D01*
Y02248D02*
X02908Y02272D01*
X02932D01*
X0292Y02248D01*
X044443Y02528D02*
X044243Y02568D01*
X044643D01*
X044443Y02528D01*
Y02536D02*
X044323Y0256D01*
X044563D01*
X044443Y02536D01*
X034199Y03273D02*
X033999Y03313D01*
X034399D01*
X034199Y03273D01*
Y03281D02*
X034079Y03305D01*
X034319D01*
X034199Y03281D01*
X042012Y023639D02*
X041812Y024039D01*
X042212D01*
X042012Y023639D01*
Y023719D02*
X041892Y023959D01*
X042132D01*
X042012Y023719D01*
X042348Y017469D02*
X042148Y017869D01*
X042548D01*
X042348Y017469D01*
Y017549D02*
X042228Y017789D01*
X042468D01*
X042348Y017549D01*
X040926Y0234D02*
X040726Y0238D01*
X041126D01*
X040926Y0234D01*
Y02348D02*
X040806Y02372D01*
X041046D01*
X040926Y02348D01*
X038573Y018271D02*
X038373Y018671D01*
X038773D01*
X038573Y018271D01*
Y018351D02*
X038453Y018591D01*
X038693D01*
X038573Y018351D01*
X040188Y018098D02*
X039988Y018498D01*
X040388D01*
X040188Y018098D01*
Y018178D02*
X040068Y018418D01*
X040308D01*
X040188Y018178D01*
X041408Y023976D02*
X041208Y024376D01*
X041608D01*
X041408Y023976D01*
Y024056D02*
X041288Y024296D01*
X041528D01*
X041408Y024056D01*
X040834Y030458D02*
X040634Y030858D01*
X041034D01*
X040834Y030458D01*
Y030538D02*
X040714Y030778D01*
X040954D01*
X040834Y030538D01*
X043026Y029742D02*
X042826Y030142D01*
X043226D01*
X043026Y029742D01*
Y029822D02*
X042906Y030062D01*
X043146D01*
X043026Y029822D01*
X04368Y022053D02*
X04348Y022453D01*
X04388D01*
X04368Y022053D01*
Y022133D02*
X04356Y022373D01*
X0438D01*
X04368Y022133D01*
X041717Y028262D02*
X041517Y028662D01*
X041917D01*
X041717Y028262D01*
Y028342D02*
X041597Y028582D01*
X041837D01*
X041717Y028342D01*
X043916Y024882D02*
X043716Y025282D01*
X044116D01*
X043916Y024882D01*
Y024962D02*
X043796Y025202D01*
X044036D01*
X043916Y024962D01*
X04362Y025884D02*
X04342Y026284D01*
X04382D01*
X04362Y025884D01*
Y025964D02*
X0435Y026204D01*
X04374D01*
X04362Y025964D01*
X044758Y02732D02*
X044558Y02772D01*
X044958D01*
X044758Y02732D01*
Y0274D02*
X044638Y02764D01*
X044878D01*
X044758Y0274D01*
X042586Y030667D02*
X042386Y031067D01*
X042786D01*
X042586Y030667D01*
Y030747D02*
X042466Y030987D01*
X042706D01*
X042586Y030747D01*
X037669Y030139D02*
X037469Y030539D01*
X037869D01*
X037669Y030139D01*
Y030219D02*
X037549Y030459D01*
X037789D01*
X037669Y030219D01*
X039561Y031061D02*
X039361Y031461D01*
X039761D01*
X039561Y031061D01*
Y031141D02*
X039441Y031381D01*
X039681D01*
X039561Y031141D01*
X039332Y02828D02*
X039132Y02868D01*
X039532D01*
X039332Y02828D01*
Y02836D02*
X039211Y0286D01*
X039451D01*
X039332Y02836D01*
X042288Y031565D02*
X042088Y031965D01*
X042488D01*
X042288Y031565D01*
Y031645D02*
X042168Y031885D01*
X042408D01*
X042288Y031645D01*
X050562Y025709D02*
X050362Y026109D01*
X050762D01*
X050562Y025709D01*
Y025789D02*
X050442Y026029D01*
X050682D01*
X050562Y025789D01*
X033686Y01316D02*
X033486Y01356D01*
X033886D01*
X033686Y01316D01*
Y01324D02*
X033566Y01348D01*
X033806D01*
X033686Y01324D01*
X034349Y036305D02*
X034149Y036705D01*
X034549D01*
X034349Y036305D01*
Y036385D02*
X034229Y036625D01*
X034469D01*
X034349Y036385D01*
X034635Y038702D02*
X034435Y039102D01*
X034835D01*
X034635Y038702D01*
Y038782D02*
X034515Y039022D01*
X034755D01*
X034635Y038782D01*
X034135Y039147D02*
X033935Y039547D01*
X034335D01*
X034135Y039147D01*
Y039227D02*
X034015Y039467D01*
X034255D01*
X034135Y039227D01*
X03422Y040439D02*
X03402Y040839D01*
X03442D01*
X03422Y040439D01*
Y040519D02*
X0341Y040759D01*
X03434D01*
X03422Y040519D01*
X036265Y043962D02*
X036065Y044362D01*
X036465D01*
X036265Y043962D01*
Y044042D02*
X036145Y044282D01*
X036385D01*
X036265Y044042D01*
X037507Y046836D02*
X037307Y047236D01*
X037707D01*
X037507Y046836D01*
Y046916D02*
X037387Y047156D01*
X037627D01*
X037507Y046916D01*
X044219Y035304D02*
X044019Y035704D01*
X044419D01*
X044219Y035304D01*
Y035384D02*
X044099Y035624D01*
X044339D01*
X044219Y035384D01*
X044062Y037384D02*
X043862Y037784D01*
X044262D01*
X044062Y037384D01*
Y037464D02*
X043942Y037704D01*
X044182D01*
X044062Y037464D01*
X046348Y044124D02*
X046148Y044524D01*
X046548D01*
X046348Y044124D01*
Y044204D02*
X046228Y044444D01*
X046468D01*
X046348Y044204D01*
X04535Y05199D02*
X04515Y05239D01*
X04555D01*
X04535Y05199D01*
Y05207D02*
X04523Y05231D01*
X04547D01*
X04535Y05207D01*
Y043196D02*
X04515Y043596D01*
X04555D01*
X04535Y043196D01*
Y043276D02*
X04523Y043516D01*
X04547D01*
X04535Y043276D01*
X046677Y041846D02*
X046477Y042246D01*
X046877D01*
X046677Y041846D01*
Y041926D02*
X046557Y042166D01*
X046797D01*
X046677Y041926D01*
X044358Y051972D02*
X044158Y052372D01*
X044558D01*
X044358Y051972D01*
Y052052D02*
X044238Y052292D01*
X044478D01*
X044358Y052052D01*
X044177Y046344D02*
X043977Y046744D01*
X044377D01*
X044177Y046344D01*
Y046424D02*
X044057Y046664D01*
X044297D01*
X044177Y046424D01*
X043602Y045736D02*
X043402Y046136D01*
X043802D01*
X043602Y045736D01*
Y045816D02*
X043482Y046056D01*
X043722D01*
X043602Y045816D01*
X04335Y052009D02*
X04315Y052409D01*
X04355D01*
X04335Y052009D01*
Y052089D02*
X04323Y052329D01*
X04347D01*
X04335Y052089D01*
X042824Y040667D02*
X042624Y041067D01*
X043024D01*
X042824Y040667D01*
Y040747D02*
X042704Y040987D01*
X042944D01*
X042824Y040747D01*
X040572Y037372D02*
X040372Y037772D01*
X040772D01*
X040572Y037372D01*
Y037452D02*
X040452Y037692D01*
X040692D01*
X040572Y037452D01*
X039909Y039641D02*
X039709Y040041D01*
X040109D01*
X039909Y039641D01*
Y039721D02*
X039789Y039961D01*
X040029D01*
X039909Y039721D01*
X039733Y041987D02*
X039533Y042387D01*
X039933D01*
X039733Y041987D01*
Y042067D02*
X039613Y042307D01*
X039853D01*
X039733Y042067D01*
X042243Y042097D02*
X042043Y042497D01*
X042443D01*
X042243Y042097D01*
Y042177D02*
X042123Y042417D01*
X042363D01*
X042243Y042177D01*
X038691Y051343D02*
X038491Y051743D01*
X038891D01*
X038691Y051343D01*
Y051423D02*
X038571Y051663D01*
X038811D01*
X038691Y051423D01*
X033223Y053726D02*
X033023Y054126D01*
X033423D01*
X033223Y053726D01*
Y053806D02*
X033103Y054046D01*
X033343D01*
X033223Y053806D01*
X037227Y045453D02*
X037027Y045853D01*
X037427D01*
X037227Y045453D01*
Y045533D02*
X037107Y045773D01*
X037347D01*
X037227Y045533D01*
X03503Y048449D02*
X03483Y048849D01*
X03523D01*
X03503Y048449D01*
Y048529D02*
X03491Y048769D01*
X03515D01*
X03503Y048529D01*
X035145Y049441D02*
X034945Y049841D01*
X035345D01*
X035145Y049441D01*
Y049521D02*
X035025Y049761D01*
X035265D01*
X035145Y049521D01*
X035034Y04618D02*
X034834Y04658D01*
X035234D01*
X035034Y04618D01*
Y04626D02*
X034914Y0465D01*
X035154D01*
X035034Y04626D01*
X033538Y054711D02*
X033338Y055111D01*
X033738D01*
X033538Y054711D01*
Y054791D02*
X033418Y055031D01*
X033658D01*
X033538Y054791D01*
X048792Y057987D02*
X048592Y058387D01*
X048992D01*
X048792Y057987D01*
Y058067D02*
X048672Y058307D01*
X048912D01*
X048792Y058067D01*
X047161Y040354D02*
X046961Y040754D01*
X047361D01*
X047161Y040354D01*
Y040434D02*
X047041Y040674D01*
X047281D01*
X047161Y040434D01*
X047155Y048866D02*
X046955Y049266D01*
X047355D01*
X047155Y048866D01*
Y048946D02*
X047035Y049186D01*
X047275D01*
X047155Y048946D01*
X049492Y044299D02*
X049292Y044699D01*
X049692D01*
X049492Y044299D01*
Y044379D02*
X049372Y044619D01*
X049612D01*
X049492Y044379D01*
X044969Y036365D02*
X044769Y036765D01*
X045168D01*
X044969Y036365D01*
Y036445D02*
X044848Y036685D01*
X045089D01*
X044969Y036445D01*
X049019Y036282D02*
X048819Y036682D01*
X049219D01*
X049019Y036282D01*
Y036362D02*
X048899Y036602D01*
X049139D01*
X049019Y036362D01*
X048419Y036192D02*
X048219Y036592D01*
X048619D01*
X048419Y036192D01*
Y036272D02*
X048299Y036512D01*
X048539D01*
X048419Y036272D01*
X048981Y037254D02*
X048781Y037654D01*
X049181D01*
X048981Y037254D01*
Y037334D02*
X048861Y037574D01*
X049101D01*
X048981Y037334D01*
X050208Y03812D02*
X050008Y03852D01*
X050408D01*
X050208Y03812D01*
Y0382D02*
X050088Y03844D01*
X050328D01*
X050208Y0382D01*
X047356Y03669D02*
X047156Y03709D01*
X047556D01*
X047356Y03669D01*
Y03677D02*
X047236Y03701D01*
X047476D01*
X047356Y03677D01*
X047212Y035665D02*
X047012Y036065D01*
X047412D01*
X047212Y035665D01*
Y035745D02*
X047092Y035985D01*
X047332D01*
X047212Y035745D01*
X045092Y037024D02*
X044892Y037424D01*
X045292D01*
X045092Y037024D01*
Y037104D02*
X044972Y037344D01*
X045212D01*
X045092Y037104D01*
X046761Y018025D02*
X046561Y018425D01*
X046961D01*
X046761Y018025D01*
Y018105D02*
X046641Y018345D01*
X046881D01*
X046761Y018105D01*
X042289Y019263D02*
X042089Y019663D01*
X042489D01*
X042289Y019263D01*
Y019343D02*
X042169Y019583D01*
X042409D01*
X042289Y019343D01*
X036941Y021096D02*
X036741Y021496D01*
X037141D01*
X036941Y021096D01*
Y021176D02*
X036821Y021416D01*
X037061D01*
X036941Y021176D01*
X054425Y024381D02*
X054225Y024781D01*
X054625D01*
X054425Y024381D01*
Y024461D02*
X054305Y024701D01*
X054545D01*
X054425Y024461D01*
X048622Y021351D02*
X048422Y021751D01*
X048822D01*
X048622Y021351D01*
Y021431D02*
X048502Y021671D01*
X048742D01*
X048622Y021431D01*
X039688Y021314D02*
X039488Y021714D01*
X039888D01*
X039688Y021314D01*
Y021394D02*
X039568Y021634D01*
X039808D01*
X039688Y021394D01*
X03703Y019576D02*
X03683Y019976D01*
X03723D01*
X03703Y019576D01*
Y019656D02*
X03691Y019896D01*
X03715D01*
X03703Y019656D01*
X042727Y037115D02*
X042527Y037515D01*
X042927D01*
X042727Y037115D01*
Y037195D02*
X042607Y037435D01*
X042847D01*
X042727Y037195D01*
X038022Y045626D02*
X037822Y046026D01*
X038222D01*
X038022Y045626D01*
Y045706D02*
X037902Y045946D01*
X038142D01*
X038022Y045706D01*
X038129Y046343D02*
X037929Y046743D01*
X038329D01*
X038129Y046343D01*
Y046423D02*
X038009Y046663D01*
X038249D01*
X038129Y046423D01*
X036248Y016384D02*
X036048Y016784D01*
X036448D01*
X036248Y016384D01*
Y016464D02*
X036128Y016704D01*
X036368D01*
X036248Y016464D01*
X033184Y017806D02*
X032984Y018206D01*
X033384D01*
X033184Y017806D01*
Y017886D02*
X033064Y018126D01*
X033304D01*
X033184Y017886D01*
X03581Y014765D02*
X03561Y015165D01*
X03601D01*
X03581Y014765D01*
Y014845D02*
X03569Y015085D01*
X03593D01*
X03581Y014845D01*
X041164Y037081D02*
X040964Y037481D01*
X041364D01*
X041164Y037081D01*
Y037161D02*
X041044Y037401D01*
X041284D01*
X041164Y037161D01*
X038978Y035078D02*
X038778Y035478D01*
X039178D01*
X038978Y035078D01*
Y035158D02*
X038858Y035398D01*
X039098D01*
X038978Y035158D01*
X036001Y039894D02*
X035801Y040294D01*
X036201D01*
X036001Y039894D01*
Y039974D02*
X035881Y040214D01*
X036121D01*
X036001Y039974D01*
X046085Y04155D02*
X045885Y04195D01*
X046285D01*
X046085Y04155D01*
Y04163D02*
X045965Y04187D01*
X046205D01*
X046085Y04163D01*
X043364Y021371D02*
X043164Y021771D01*
X043564D01*
X043364Y021371D01*
Y021451D02*
X043244Y021691D01*
X043484D01*
X043364Y021451D01*
X045412Y028932D02*
X045212Y029332D01*
X045612D01*
X045412Y028932D01*
Y029012D02*
X045292Y029252D01*
X045532D01*
X045412Y029012D01*
X046675Y028895D02*
X046475Y029295D01*
X046875D01*
X046675Y028895D01*
Y028975D02*
X046555Y029215D01*
X046795D01*
X046675Y028975D01*
X045411Y034312D02*
X045211Y034712D01*
X045611D01*
X045411Y034312D01*
Y034392D02*
X045291Y034632D01*
X045531D01*
X045411Y034392D01*
X046983Y032938D02*
X046783Y033338D01*
X047183D01*
X046983Y032938D01*
Y033018D02*
X046863Y033258D01*
X047103D01*
X046983Y033018D01*
X046793Y026835D02*
X046593Y027235D01*
X046993D01*
X046793Y026835D01*
Y026915D02*
X046673Y027155D01*
X046913D01*
X046793Y026915D01*
X045704Y027458D02*
X045504Y027858D01*
X045904D01*
X045704Y027458D01*
Y027538D02*
X045584Y027778D01*
X045824D01*
X045704Y027538D01*
D51*
X05687Y04895D02*
G03*
X05687Y04895I-00012J0D01*
G01*
Y05045D02*
G03*
X05687Y05045I-00012J0D01*
G01*
Y05195D02*
G03*
X05687Y05195I-00012J0D01*
G01*
Y05345D02*
G03*
X05687Y05345I-00012J0D01*
G01*
Y05495D02*
G03*
X05687Y05495I-00012J0D01*
G01*
Y05645D02*
G03*
X05687Y05645I-00012J0D01*
G01*
D93*
X051512Y05671D02*
G03*
X051512Y05671I-0002J0D01*
G01*
X032988D02*
G03*
X032988Y05671I-0002J0D01*
G01*
X05695Y04895D02*
G03*
X05695Y04895I-0002J0D01*
G01*
Y05045D02*
G03*
X05695Y05045I-0002J0D01*
G01*
Y05195D02*
G03*
X05695Y05195I-0002J0D01*
G01*
Y05345D02*
G03*
X05695Y05345I-0002J0D01*
G01*
Y05495D02*
G03*
X05695Y05495I-0002J0D01*
G01*
Y05645D02*
G03*
X05695Y05645I-0002J0D01*
G01*
M02*
