%FSTAX24Y24*%
%MOIN*%
G70*
G01*
G75*
G04 Layer_Color=8421504*
%ADD10R,0.0500X0.0394*%
%ADD11R,0.7500X0.0100*%
%ADD12R,0.0500X0.0500*%
G04:AMPARAMS|DCode=13|XSize=37.4mil|YSize=19.7mil|CornerRadius=2.5mil|HoleSize=0mil|Usage=FLASHONLY|Rotation=180.000|XOffset=0mil|YOffset=0mil|HoleType=Round|Shape=RoundedRectangle|*
%AMROUNDEDRECTD13*
21,1,0.0374,0.0148,0,0,180.0*
21,1,0.0325,0.0197,0,0,180.0*
1,1,0.0049,-0.0162,0.0074*
1,1,0.0049,0.0162,0.0074*
1,1,0.0049,0.0162,-0.0074*
1,1,0.0049,-0.0162,-0.0074*
%
%ADD13ROUNDEDRECTD13*%
%ADD14R,0.0500X0.0500*%
%ADD15R,0.0394X0.0500*%
%ADD16R,0.0390X0.0120*%
%ADD17O,0.1457X0.0256*%
%ADD18O,0.0118X0.0532*%
%ADD19C,0.0160*%
%ADD20C,0.0080*%
%ADD21C,0.0120*%
%ADD22C,0.0200*%
%ADD23C,0.0100*%
%ADD24C,0.1500*%
%ADD25C,0.1874*%
%ADD26C,0.0665*%
%ADD27R,0.0665X0.0665*%
%ADD28O,0.1575X0.1360*%
%ADD29R,0.1575X0.1360*%
%ADD30R,0.0638X0.0638*%
%ADD31C,0.0638*%
%ADD32C,0.0591*%
%ADD33R,0.0591X0.0591*%
%ADD34P,0.0714X8X202.5*%
%ADD35O,0.0900X0.0620*%
%ADD36R,0.0900X0.0620*%
%ADD37O,0.0850X0.0600*%
%ADD38R,0.0850X0.0600*%
%ADD39O,0.0800X0.0640*%
%ADD40R,0.0800X0.0640*%
%ADD41R,0.1181X0.0902*%
%ADD42O,0.1181X0.0902*%
%ADD43C,0.0400*%
%ADD44C,0.0500*%
%ADD45C,0.0400*%
%ADD46C,0.0079*%
%ADD47C,0.0050*%
%ADD48C,0.0060*%
%ADD49C,0.0098*%
%ADD50C,0.0070*%
%ADD51C,0.0040*%
%ADD52C,0.0059*%
D10*
X053503Y025296D02*
D03*
Y026096D02*
D03*
X049567Y042733D02*
D03*
Y043533D02*
D03*
X042252Y041585D02*
D03*
Y040785D02*
D03*
X0294Y02435D02*
D03*
Y02515D02*
D03*
X053516Y022605D02*
D03*
Y021805D02*
D03*
X053503Y023595D02*
D03*
Y024395D02*
D03*
X0503Y0254D02*
D03*
Y0246D02*
D03*
Y02285D02*
D03*
Y02365D02*
D03*
X050286Y021153D02*
D03*
Y021953D02*
D03*
X047199Y020713D02*
D03*
Y021513D02*
D03*
X037467Y035389D02*
D03*
Y034589D02*
D03*
X0294Y02715D02*
D03*
Y02635D02*
D03*
X039323Y032585D02*
D03*
Y033385D02*
D03*
X04095Y03815D02*
D03*
Y03895D02*
D03*
X04005Y03815D02*
D03*
Y03895D02*
D03*
X043477Y041593D02*
D03*
Y040793D02*
D03*
X0501Y0394D02*
D03*
Y0402D02*
D03*
X038561Y032585D02*
D03*
Y033385D02*
D03*
D11*
X044845Y009737D02*
D03*
D12*
X050367Y043633D02*
D03*
Y042733D02*
D03*
X036669Y034472D02*
D03*
Y035372D02*
D03*
D13*
X031054Y045372D02*
D03*
Y045057D02*
D03*
Y044743D02*
D03*
Y044428D02*
D03*
X030346D02*
D03*
Y044743D02*
D03*
Y045057D02*
D03*
Y045372D02*
D03*
X031054Y015122D02*
D03*
Y014807D02*
D03*
Y014493D02*
D03*
Y014178D02*
D03*
X030346D02*
D03*
Y014493D02*
D03*
Y014807D02*
D03*
Y015122D02*
D03*
X031054Y017522D02*
D03*
Y017207D02*
D03*
Y016893D02*
D03*
Y016578D02*
D03*
X030346D02*
D03*
Y016893D02*
D03*
Y017207D02*
D03*
Y017522D02*
D03*
X031054Y025672D02*
D03*
Y025357D02*
D03*
Y025043D02*
D03*
Y024728D02*
D03*
X030346D02*
D03*
Y025043D02*
D03*
Y025357D02*
D03*
Y025672D02*
D03*
X031054Y042322D02*
D03*
Y042007D02*
D03*
Y041693D02*
D03*
Y041378D02*
D03*
X030346D02*
D03*
Y041693D02*
D03*
Y042007D02*
D03*
Y042322D02*
D03*
Y059078D02*
D03*
Y059393D02*
D03*
Y059707D02*
D03*
Y060022D02*
D03*
X031054D02*
D03*
Y059707D02*
D03*
Y059393D02*
D03*
Y059078D02*
D03*
Y028672D02*
D03*
Y028357D02*
D03*
Y028043D02*
D03*
Y027728D02*
D03*
X030346D02*
D03*
Y028043D02*
D03*
Y028357D02*
D03*
Y028672D02*
D03*
Y031278D02*
D03*
Y031593D02*
D03*
Y031907D02*
D03*
Y032222D02*
D03*
X031054D02*
D03*
Y031907D02*
D03*
Y031593D02*
D03*
Y031278D02*
D03*
D14*
X051198Y01796D02*
D03*
X052098D02*
D03*
D15*
X052094Y018743D02*
D03*
X051294D02*
D03*
X044775Y020726D02*
D03*
X043975D02*
D03*
X044775Y021576D02*
D03*
X043975D02*
D03*
X046968Y02911D02*
D03*
X047769D02*
D03*
X037038Y020427D02*
D03*
X036238D02*
D03*
X036157Y032572D02*
D03*
X036957D02*
D03*
X045134Y040709D02*
D03*
X044334D02*
D03*
X046981Y038478D02*
D03*
X046181D02*
D03*
X046981Y037668D02*
D03*
X046181D02*
D03*
X044027Y028313D02*
D03*
X044827D02*
D03*
X038991Y019999D02*
D03*
X039791D02*
D03*
X038991Y020799D02*
D03*
X039791D02*
D03*
X044032Y029115D02*
D03*
X044832D02*
D03*
D16*
X037045Y019465D02*
D03*
Y019209D02*
D03*
Y018953D02*
D03*
Y018697D02*
D03*
Y018441D02*
D03*
Y018183D02*
D03*
Y017923D02*
D03*
Y017673D02*
D03*
X039344D02*
D03*
Y017923D02*
D03*
Y018183D02*
D03*
Y018441D02*
D03*
Y018697D02*
D03*
Y018953D02*
D03*
Y019209D02*
D03*
Y019465D02*
D03*
X037045Y017413D02*
D03*
Y017153D02*
D03*
X039344Y017413D02*
D03*
Y017153D02*
D03*
X036151Y032002D02*
D03*
Y031746D02*
D03*
Y03149D02*
D03*
Y031234D02*
D03*
Y030978D02*
D03*
Y03072D02*
D03*
Y03046D02*
D03*
Y03021D02*
D03*
X03845D02*
D03*
Y03046D02*
D03*
Y03072D02*
D03*
Y030978D02*
D03*
Y031234D02*
D03*
Y03149D02*
D03*
Y031746D02*
D03*
Y032002D02*
D03*
X036151Y02995D02*
D03*
Y02969D02*
D03*
X03845Y02995D02*
D03*
Y02969D02*
D03*
X047199Y022098D02*
D03*
Y022354D02*
D03*
Y02261D02*
D03*
Y022866D02*
D03*
Y023122D02*
D03*
Y02338D02*
D03*
Y02364D02*
D03*
Y02389D02*
D03*
X0449D02*
D03*
Y02364D02*
D03*
Y02338D02*
D03*
Y023122D02*
D03*
Y022866D02*
D03*
Y02261D02*
D03*
Y022354D02*
D03*
Y022098D02*
D03*
X047199Y02415D02*
D03*
Y02441D02*
D03*
X0449Y02415D02*
D03*
Y02441D02*
D03*
X047249Y029648D02*
D03*
Y029904D02*
D03*
Y03016D02*
D03*
Y030416D02*
D03*
Y030672D02*
D03*
Y03093D02*
D03*
Y03119D02*
D03*
Y03144D02*
D03*
X04495D02*
D03*
Y03119D02*
D03*
Y03093D02*
D03*
Y030672D02*
D03*
Y030416D02*
D03*
Y03016D02*
D03*
Y029904D02*
D03*
Y029648D02*
D03*
X047249Y0317D02*
D03*
Y03196D02*
D03*
X04495Y0317D02*
D03*
Y03196D02*
D03*
D17*
X042271Y03995D02*
D03*
Y03945D02*
D03*
Y03895D02*
D03*
Y03845D02*
D03*
X044629Y03995D02*
D03*
Y03945D02*
D03*
Y03895D02*
D03*
Y03845D02*
D03*
D18*
X049494Y040176D02*
D03*
X049297D02*
D03*
X0491D02*
D03*
X048903D02*
D03*
X048706D02*
D03*
Y038424D02*
D03*
X048903D02*
D03*
X0491D02*
D03*
X049297D02*
D03*
X049494D02*
D03*
M02*
