M48
;DRILL file {KiCad (after 2015-may-25 BZR unknown)-product} date 31/07/2015 11:07:58 AM
;FORMAT={2:4/ absolute / inch / suppress leading zeros}
FMAT,2
INCH,TZ
T1C0.025
T2C0.035
T3C0.040
T4C0.046
T5C0.050
T6C0.080
T7C0.120
%
G90
G05
M72
T1
X10350Y-18700
X10375Y-24500
X10825Y-29225
X11025Y-24500
X11102Y-15205
X11413Y-14236
X11650Y-15571
X11675Y-24500
X12300Y-21300
X12350Y-17850
X12625Y-22475
X13350Y-18325
X13800Y-27225
X14499Y-17135
X14700Y-19300
X15025Y-18025
X15275Y-26225
X15500Y-13825
X15625Y-24200
X16024Y-14752
X16600Y-23025
X16650Y-24250
X16975Y-20525
X17025Y-17675
X17075Y-19125
X17197Y-12445
X17525Y-17675
X17775Y-18500
X17988Y-14740
X18071Y-15280
X18150Y-16225
X18750Y-15225
X19500Y-19575
X19500Y-23075
X19550Y-13825
X19775Y-18600
X20000Y-19575
X20400Y-21550
X20550Y-13675
X20800Y-23700
X20950Y-13325
X21275Y-15375
X21300Y-17525
X21300Y-18275
X22200Y-10350
X22200Y-18725
X22600Y-22025
X23025Y-28600
X23150Y-22475
X23350Y-15875
X23375Y-20950
X23725Y-22475
X23800Y-17525
X24125Y-21300
X24450Y-12075
X24450Y-13325
X24625Y-24500
X24650Y-28600
X25100Y-16275
X25275Y-14300
X25275Y-15300
X25400Y-17450
X25575Y-16625
X25925Y-13450
X25925Y-17550
X25950Y-30200
X26100Y-22100
X26550Y-21700
X26850Y-28475
X27275Y-17925
X27625Y-17550
X27800Y-19500
X27825Y-16275
X27925Y-20350
X28175Y-16625
X28900Y-27225
X29325Y-18775
X29350Y-16975
X29425Y-13050
X29700Y-18300
X30075Y-29300
X30450Y-28150
X30550Y-21525
X30900Y-26825
X32400Y-28125
X32875Y-20325
X32950Y-14850
X32975Y-13050
X33375Y-17300
X33400Y-21175
X33975Y-28125
X34575Y-17300
X34925Y-13500
X35400Y-15825
X35825Y-13350
X35825Y-30050
X40175Y-12525
X40350Y-14925
X40350Y-15525
X41075Y-12525
X41575Y-24950
X41675Y-14925
X41675Y-15525
X41750Y-12150
T2
X25400Y-22975
X25400Y-25975
X26400Y-22975
X26400Y-25975
X27400Y-22975
X27400Y-25975
X28400Y-22975
X28400Y-25975
X29400Y-22975
X29400Y-25975
X30400Y-22975
X30400Y-25975
X31400Y-22975
X31400Y-25975
X32400Y-22975
X32400Y-25975
X33400Y-22975
X33400Y-25975
X34400Y-22975
X34400Y-25975
X35400Y-22975
X35400Y-25975
X36400Y-22975
X36400Y-25975
X37400Y-22975
X37400Y-25975
X38400Y-22975
X38400Y-25975
T3
X10700Y-10900
X10700Y-11900
X11700Y-10900
X11700Y-11900
X12700Y-10900
X12700Y-11900
X13700Y-10900
X13700Y-11900
X14700Y-10900
X14700Y-11900
X15700Y-10900
X15700Y-11900
X16700Y-10900
X16700Y-11900
X17700Y-10900
X17700Y-11900
X18000Y-24250
X18000Y-25250
X18000Y-26250
X18000Y-27250
X18000Y-28250
X18000Y-29250
X18000Y-30250
X18000Y-31250
X18700Y-10900
X18700Y-11900
X19000Y-24250
X19000Y-25250
X19000Y-26250
X19000Y-27250
X19000Y-28250
X19000Y-29250
X19000Y-30250
X19000Y-31250
X19700Y-10900
X19700Y-11900
X20000Y-24250
X20000Y-25250
X20000Y-26250
X20000Y-27250
X20000Y-28250
X20000Y-29250
X20000Y-30250
X20000Y-31250
X20700Y-10900
X20700Y-11900
X21700Y-10900
X21700Y-11900
X22700Y-10900
X22700Y-11900
X23975Y-11125
X24975Y-11125
X25975Y-11125
X26975Y-11125
X27575Y-30125
X27975Y-11125
X28575Y-30125
X28975Y-11125
X29575Y-30125
X29975Y-11125
X30575Y-30125
X30975Y-11125
X31000Y-14000
X31000Y-15000
X31000Y-16000
X31000Y-17000
X31000Y-18000
X31000Y-19000
X31000Y-20000
X31000Y-21000
X31575Y-30125
X31975Y-11125
X32000Y-14000
X32000Y-15000
X32000Y-16000
X32000Y-17000
X32000Y-18000
X32000Y-19000
X32000Y-20000
X32000Y-21000
X32575Y-30125
X32975Y-11125
X33575Y-30125
X34575Y-11125
X34575Y-18800
X34575Y-19800
X34575Y-20800
X34575Y-30125
X35575Y-11125
X36575Y-11125
X36575Y-13800
X36575Y-18800
X36575Y-19800
X36575Y-20800
X36575Y-28125
X36575Y-29125
X36575Y-30125
X37575Y-11125
X37575Y-13800
X37575Y-18800
X37575Y-19800
X37575Y-20800
X37575Y-28125
X37575Y-29125
X37575Y-30125
X38575Y-11125
X38575Y-13800
X38575Y-28125
X38575Y-29125
X38575Y-30125
X39575Y-11125
X39575Y-13800
X39575Y-28125
X39575Y-29125
X39575Y-30125
X40575Y-11125
X40575Y-13800
X40575Y-28125
X40575Y-29125
X40575Y-30125
X41575Y-11125
X41575Y-13800
X41575Y-28125
X41575Y-29125
X41575Y-30125
X42950Y-11050
X42950Y-12050
X42950Y-13050
X42950Y-14050
X42950Y-15050
X42950Y-16050
T5
X10575Y-25700
X10575Y-28300
T6
X42575Y-28125
T7
X22075Y-30125
T4
X13100Y-27980G85X13100Y-28920
G05
X13880Y-30450G85X14820Y-30450
G05
X15500Y-27880G85X15500Y-29020
G05
T0
M30
