G04 #@! TF.FileFunction,Paste,Top*
%FSLAX46Y46*%
G04 Gerber Fmt 4.6, Leading zero omitted, Abs format (unit mm)*
G04 Created by KiCad (PCBNEW (after 2015-may-25 BZR unknown)-product) date 31/07/2015 1:29:45 PM*
%MOMM*%
G01*
G04 APERTURE LIST*
%ADD10C,0.150000*%
%ADD11C,0.127000*%
%ADD12R,1.498600X0.800100*%
%ADD13R,1.998980X1.420000*%
%ADD14R,1.998980X1.450340*%
%ADD15R,1.400000X1.800000*%
%ADD16R,1.422400X1.066800*%
%ADD17R,1.270000X1.016000*%
%ADD18R,1.549400X0.500380*%
%ADD19R,1.000760X1.501140*%
%ADD20R,1.066800X1.422400*%
%ADD21R,1.300480X1.498600*%
%ADD22R,1.498600X1.300480*%
%ADD23R,1.117600X0.599440*%
%ADD24R,2.032000X3.810000*%
%ADD25R,2.032000X1.524000*%
%ADD26R,0.800100X1.198880*%
%ADD27R,0.609600X2.032000*%
%ADD28R,3.048000X1.625600*%
%ADD29C,1.905000*%
%ADD30R,0.762000X0.762000*%
%ADD31R,1.524000X2.032000*%
%ADD32R,2.540000X2.667000*%
%ADD33R,1.270000X0.762000*%
%ADD34O,1.778000X0.762000*%
%ADD35C,4.572000*%
%ADD36C,2.540000*%
G04 APERTURE END LIST*
D10*
D11*
X110490000Y-81280000D02*
X110490000Y-25400000D01*
X25400000Y-25400000D02*
X110490000Y-25400000D01*
X110490000Y-81280000D02*
X25400000Y-81280000D01*
X25400000Y-81280000D02*
X25400000Y-25400000D01*
D12*
X31496000Y-41907460D03*
X31896000Y-40808000D03*
X31496000Y-39707820D03*
X31296000Y-38608000D03*
X31496000Y-37508180D03*
X31296000Y-36408000D03*
X31496000Y-35308540D03*
X31496000Y-34208720D03*
D13*
X28746000Y-33418000D03*
D14*
X27896000Y-46568000D03*
D15*
X41696000Y-39818000D03*
X41696000Y-35018000D03*
D16*
X30289500Y-66611500D03*
X30289500Y-64579500D03*
X44196000Y-54673500D03*
X44196000Y-56705500D03*
D17*
X58991500Y-49466500D03*
X58991500Y-51498500D03*
X66484500Y-51498500D03*
X66484500Y-49466500D03*
X63944500Y-51498500D03*
X63944500Y-49466500D03*
D16*
X52197000Y-42291000D03*
X52197000Y-40259000D03*
D18*
X44005500Y-36131500D03*
X44005500Y-37401500D03*
X44005500Y-38671500D03*
X44005500Y-39941500D03*
X44005500Y-41211500D03*
X44005500Y-42481500D03*
X44005500Y-43751500D03*
X49339500Y-43751500D03*
X49339500Y-42481500D03*
X49339500Y-41211500D03*
X49339500Y-39941500D03*
X49339500Y-38671500D03*
X49339500Y-37401500D03*
X49339500Y-36131500D03*
D19*
X56070500Y-36639500D03*
X56070500Y-41846500D03*
X57848500Y-41846500D03*
X57848500Y-36639500D03*
D16*
X88582500Y-35687000D03*
X88582500Y-37719000D03*
D20*
X39306500Y-59753500D03*
X41338500Y-59753500D03*
X41338500Y-50482500D03*
X39306500Y-50482500D03*
X39306500Y-57213500D03*
X41338500Y-57213500D03*
D21*
X47625000Y-33401000D03*
X45720000Y-33401000D03*
D22*
X52197000Y-37973000D03*
X52197000Y-36068000D03*
X52197000Y-46418500D03*
X52197000Y-44513500D03*
X58991500Y-46418500D03*
X58991500Y-44513500D03*
X61468000Y-49530000D03*
X61468000Y-51435000D03*
X69024500Y-49530000D03*
X69024500Y-51435000D03*
X53022500Y-54737000D03*
X53022500Y-56642000D03*
X55499000Y-56642000D03*
X55499000Y-54737000D03*
X56388000Y-49530000D03*
X56388000Y-51435000D03*
D23*
X38671500Y-52768500D03*
X38671500Y-54673500D03*
X38671500Y-53721000D03*
X41338500Y-54673500D03*
X41338500Y-52768500D03*
D24*
X33782000Y-57086500D03*
D25*
X27432000Y-57086500D03*
X27432000Y-59372500D03*
X27432000Y-54800500D03*
D26*
X45275500Y-49720500D03*
X44323000Y-52133500D03*
X43370500Y-49720500D03*
D27*
X46990000Y-51435000D03*
X46990000Y-56261000D03*
X48260000Y-51435000D03*
X49530000Y-51435000D03*
X50800000Y-51435000D03*
X48260000Y-56261000D03*
X49530000Y-56261000D03*
X50800000Y-56261000D03*
D16*
X53721000Y-49466500D03*
X53721000Y-51498500D03*
D28*
X60769500Y-74993500D03*
X65341500Y-74930000D03*
X38163500Y-64579500D03*
X33591500Y-64643000D03*
D29*
X26860500Y-71882000D03*
X26860500Y-65278000D03*
D30*
X96075500Y-43434000D03*
X96075500Y-42227500D03*
X94043500Y-43434000D03*
X94043500Y-42227500D03*
D31*
X31305500Y-78930500D03*
X27495500Y-78930500D03*
D25*
X55181500Y-60261500D03*
X55181500Y-64071500D03*
D32*
X42291000Y-64579500D03*
D33*
X42291000Y-66929000D03*
D34*
X34417000Y-49974500D03*
X34417000Y-52514500D03*
X31369000Y-51244500D03*
D30*
X32893000Y-52514500D03*
X32893000Y-51244500D03*
X32893000Y-49974500D03*
D22*
X30226000Y-59372500D03*
X30226000Y-57467500D03*
D35*
X56070500Y-76517500D03*
D36*
X108140500Y-71437500D03*
D21*
X93726000Y-31115000D03*
X95631000Y-31115000D03*
X97599500Y-31115000D03*
X99504500Y-31115000D03*
M02*
