G04 #@! TF.FileFunction,Legend,Bot*
%FSLAX46Y46*%
G04 Gerber Fmt 4.6, Leading zero omitted, Abs format (unit mm)*
G04 Created by KiCad (PCBNEW (after 2015-may-25 BZR unknown)-product) date 31/07/2015 1:29:45 PM*
%MOMM*%
G01*
G04 APERTURE LIST*
%ADD10C,0.150000*%
%ADD11C,0.304800*%
%ADD12C,0.127000*%
%ADD13C,0.101600*%
%ADD14C,0.254000*%
%ADD15C,0.100000*%
%ADD16C,0.152400*%
%ADD17R,2.032000X2.032000*%
%ADD18C,2.032000*%
%ADD19R,2.286000X2.730500*%
%ADD20R,0.927100X1.978660*%
%ADD21R,1.808480X2.006600*%
%ADD22R,1.574800X1.930400*%
%ADD23R,1.930400X1.574800*%
%ADD24R,2.006600X1.808480*%
%ADD25C,1.524000*%
%ADD26R,1.808480X1.557020*%
%ADD27R,1.107440X2.506980*%
%ADD28R,5.080000X4.064000*%
%ADD29R,2.540000X1.778000*%
%ADD30O,2.540000X1.778000*%
%ADD31R,1.879600X0.914400*%
%ADD32R,1.930400X2.108200*%
%ADD33R,2.413000X2.413000*%
%ADD34C,2.413000*%
%ADD35R,3.175000X3.048000*%
%ADD36R,1.270000X1.778000*%
%ADD37O,3.556000X5.080000*%
%ADD38R,3.556000X5.080000*%
%ADD39O,5.080000X3.556000*%
%ADD40O,1.270000X2.286000*%
%ADD41R,1.270000X1.270000*%
%ADD42C,5.080000*%
%ADD43C,3.048000*%
%ADD44O,2.032000X2.794000*%
%ADD45R,2.032000X2.794000*%
G04 APERTURE END LIST*
D10*
D11*
X109526286Y-42826097D02*
X107726286Y-42826097D01*
X107726286Y-43135621D01*
X107812000Y-43321335D01*
X107983429Y-43445144D01*
X108154857Y-43507049D01*
X108497714Y-43568954D01*
X108754857Y-43568954D01*
X109097714Y-43507049D01*
X109269143Y-43445144D01*
X109440571Y-43321335D01*
X109526286Y-43135621D01*
X109526286Y-42826097D01*
X109440571Y-44621335D02*
X109526286Y-44497525D01*
X109526286Y-44249906D01*
X109440571Y-44126097D01*
X109269143Y-44064192D01*
X108583429Y-44064192D01*
X108412000Y-44126097D01*
X108326286Y-44249906D01*
X108326286Y-44497525D01*
X108412000Y-44621335D01*
X108583429Y-44683240D01*
X108754857Y-44683240D01*
X108926286Y-44064192D01*
X108326286Y-45116573D02*
X109526286Y-45364192D01*
X108669143Y-45611811D01*
X109526286Y-45859430D01*
X108326286Y-46107049D01*
X109526286Y-47159431D02*
X108583429Y-47159431D01*
X108412000Y-47097526D01*
X108326286Y-46973716D01*
X108326286Y-46726097D01*
X108412000Y-46602288D01*
X109440571Y-47159431D02*
X109526286Y-47035621D01*
X109526286Y-46726097D01*
X109440571Y-46602288D01*
X109269143Y-46540383D01*
X109097714Y-46540383D01*
X108926286Y-46602288D01*
X108840571Y-46726097D01*
X108840571Y-47035621D01*
X108754857Y-47159431D01*
X108326286Y-47654668D02*
X109526286Y-47964192D01*
X108326286Y-48273716D02*
X109526286Y-47964192D01*
X109954857Y-47840383D01*
X110040571Y-47778478D01*
X110126286Y-47654668D01*
X108326286Y-48768954D02*
X109526286Y-48768954D01*
X108497714Y-48768954D02*
X108412000Y-48830859D01*
X108326286Y-48954668D01*
X108326286Y-49140382D01*
X108412000Y-49264192D01*
X108583429Y-49326097D01*
X109526286Y-49326097D01*
X109440571Y-50440382D02*
X109526286Y-50316572D01*
X109526286Y-50068953D01*
X109440571Y-49945144D01*
X109269143Y-49883239D01*
X108583429Y-49883239D01*
X108412000Y-49945144D01*
X108326286Y-50068953D01*
X108326286Y-50316572D01*
X108412000Y-50440382D01*
X108583429Y-50502287D01*
X108754857Y-50502287D01*
X108926286Y-49883239D01*
X108669143Y-52297525D02*
X109526286Y-52297525D01*
X107726286Y-51864192D02*
X108669143Y-52297525D01*
X107726286Y-52730858D01*
X109526286Y-53349906D02*
X109440571Y-53226097D01*
X109354857Y-53164192D01*
X109183429Y-53102287D01*
X108669143Y-53102287D01*
X108497714Y-53164192D01*
X108412000Y-53226097D01*
X108326286Y-53349906D01*
X108326286Y-53535620D01*
X108412000Y-53659430D01*
X108497714Y-53721335D01*
X108669143Y-53783239D01*
X109183429Y-53783239D01*
X109354857Y-53721335D01*
X109440571Y-53659430D01*
X109526286Y-53535620D01*
X109526286Y-53349906D01*
X108326286Y-54897525D02*
X109526286Y-54897525D01*
X108326286Y-54340382D02*
X109269143Y-54340382D01*
X109440571Y-54402287D01*
X109526286Y-54526096D01*
X109526286Y-54711810D01*
X109440571Y-54835620D01*
X109354857Y-54897525D01*
X108326286Y-55516572D02*
X109526286Y-55516572D01*
X108497714Y-55516572D02*
X108412000Y-55578477D01*
X108326286Y-55702286D01*
X108326286Y-55888000D01*
X108412000Y-56011810D01*
X108583429Y-56073715D01*
X109526286Y-56073715D01*
X108326286Y-57249905D02*
X109783429Y-57249905D01*
X109954857Y-57188000D01*
X110040571Y-57126095D01*
X110126286Y-57002286D01*
X110126286Y-56816571D01*
X110040571Y-56692762D01*
X109440571Y-57249905D02*
X109526286Y-57126095D01*
X109526286Y-56878476D01*
X109440571Y-56754667D01*
X109354857Y-56692762D01*
X109183429Y-56630857D01*
X108669143Y-56630857D01*
X108497714Y-56692762D01*
X108412000Y-56754667D01*
X108326286Y-56878476D01*
X108326286Y-57126095D01*
X108412000Y-57249905D01*
X93290570Y-80421238D02*
X93290570Y-78389238D01*
X92637427Y-80421238D02*
X92637427Y-79356857D01*
X92709998Y-79163333D01*
X92855141Y-79066571D01*
X93072856Y-79066571D01*
X93217998Y-79163333D01*
X93290570Y-79260095D01*
X92129427Y-79066571D02*
X91548856Y-79066571D01*
X91911713Y-78389238D02*
X91911713Y-80130952D01*
X91839141Y-80324476D01*
X91693999Y-80421238D01*
X91548856Y-80421238D01*
X91258570Y-79066571D02*
X90677999Y-79066571D01*
X91040856Y-78389238D02*
X91040856Y-80130952D01*
X90968284Y-80324476D01*
X90823142Y-80421238D01*
X90677999Y-80421238D01*
X90169999Y-79066571D02*
X90169999Y-81098571D01*
X90169999Y-79163333D02*
X90024856Y-79066571D01*
X89734570Y-79066571D01*
X89589427Y-79163333D01*
X89516856Y-79260095D01*
X89444285Y-79453619D01*
X89444285Y-80034190D01*
X89516856Y-80227714D01*
X89589427Y-80324476D01*
X89734570Y-80421238D01*
X90024856Y-80421238D01*
X90169999Y-80324476D01*
X88791142Y-80227714D02*
X88718570Y-80324476D01*
X88791142Y-80421238D01*
X88863713Y-80324476D01*
X88791142Y-80227714D01*
X88791142Y-80421238D01*
X88791142Y-79163333D02*
X88718570Y-79260095D01*
X88791142Y-79356857D01*
X88863713Y-79260095D01*
X88791142Y-79163333D01*
X88791142Y-79356857D01*
X86976856Y-78292476D02*
X88283142Y-80905048D01*
X85380285Y-78292476D02*
X86686571Y-80905048D01*
X84872286Y-79066571D02*
X84872286Y-80808286D01*
X84944857Y-81001810D01*
X85090000Y-81098571D01*
X85162572Y-81098571D01*
X84872286Y-78389238D02*
X84944857Y-78486000D01*
X84872286Y-78582762D01*
X84799714Y-78486000D01*
X84872286Y-78389238D01*
X84872286Y-78582762D01*
X83493429Y-79066571D02*
X83493429Y-80421238D01*
X84146572Y-79066571D02*
X84146572Y-80130952D01*
X84074000Y-80324476D01*
X83928858Y-80421238D01*
X83711143Y-80421238D01*
X83566000Y-80324476D01*
X83493429Y-80227714D01*
X82767715Y-79066571D02*
X82767715Y-80421238D01*
X82767715Y-79260095D02*
X82695143Y-79163333D01*
X82550001Y-79066571D01*
X82332286Y-79066571D01*
X82187143Y-79163333D01*
X82114572Y-79356857D01*
X82114572Y-80421238D01*
X80735715Y-79066571D02*
X80735715Y-80711524D01*
X80808286Y-80905048D01*
X80880858Y-81001810D01*
X81026001Y-81098571D01*
X81243715Y-81098571D01*
X81388858Y-81001810D01*
X80735715Y-80324476D02*
X80880858Y-80421238D01*
X81171144Y-80421238D01*
X81316286Y-80324476D01*
X81388858Y-80227714D01*
X81461429Y-80034190D01*
X81461429Y-79453619D01*
X81388858Y-79260095D01*
X81316286Y-79163333D01*
X81171144Y-79066571D01*
X80880858Y-79066571D01*
X80735715Y-79163333D01*
X79792287Y-80421238D02*
X79937429Y-80324476D01*
X80010001Y-80130952D01*
X80010001Y-78389238D01*
X78631143Y-80324476D02*
X78776286Y-80421238D01*
X79066572Y-80421238D01*
X79211715Y-80324476D01*
X79284286Y-80130952D01*
X79284286Y-79356857D01*
X79211715Y-79163333D01*
X79066572Y-79066571D01*
X78776286Y-79066571D01*
X78631143Y-79163333D01*
X78558572Y-79356857D01*
X78558572Y-79550381D01*
X79284286Y-79743905D01*
X77905429Y-80227714D02*
X77832857Y-80324476D01*
X77905429Y-80421238D01*
X77978000Y-80324476D01*
X77905429Y-80227714D01*
X77905429Y-80421238D01*
X77324858Y-79066571D02*
X76962001Y-80421238D01*
X76599143Y-79066571D01*
X76018572Y-79066571D02*
X76018572Y-80421238D01*
X76018572Y-79260095D02*
X75946000Y-79163333D01*
X75800858Y-79066571D01*
X75583143Y-79066571D01*
X75438000Y-79163333D01*
X75365429Y-79356857D01*
X75365429Y-80421238D01*
D12*
X107823000Y-42037000D02*
X107823000Y-26797000D01*
X110363000Y-42037000D02*
X107823000Y-42037000D01*
X110363000Y-26797000D02*
X110363000Y-42037000D01*
X107823000Y-26797000D02*
X110363000Y-26797000D01*
X107608310Y-27508199D02*
X107366405Y-27271133D01*
X107608310Y-27101799D02*
X107100310Y-27101799D01*
X107100310Y-27372733D01*
X107124500Y-27440466D01*
X107148690Y-27474333D01*
X107197071Y-27508199D01*
X107269643Y-27508199D01*
X107318024Y-27474333D01*
X107342214Y-27440466D01*
X107366405Y-27372733D01*
X107366405Y-27101799D01*
X107608310Y-27745266D02*
X107269643Y-28117799D01*
X107269643Y-27745266D02*
X107608310Y-28117799D01*
X107608310Y-28388732D02*
X107100310Y-28388732D01*
X107100310Y-28558066D01*
X107124500Y-28659666D01*
X107172881Y-28727399D01*
X107221262Y-28761266D01*
X107318024Y-28795132D01*
X107390595Y-28795132D01*
X107487357Y-28761266D01*
X107535738Y-28727399D01*
X107584119Y-28659666D01*
X107608310Y-28558066D01*
X107608310Y-28388732D01*
X107100310Y-29540199D02*
X107100310Y-29946599D01*
X107608310Y-29743399D02*
X107100310Y-29743399D01*
X107608310Y-30115933D02*
X107269643Y-30488466D01*
X107269643Y-30115933D02*
X107608310Y-30488466D01*
X107608310Y-30759399D02*
X107100310Y-30759399D01*
X107100310Y-30928733D01*
X107124500Y-31030333D01*
X107172881Y-31098066D01*
X107221262Y-31131933D01*
X107318024Y-31165799D01*
X107390595Y-31165799D01*
X107487357Y-31131933D01*
X107535738Y-31098066D01*
X107584119Y-31030333D01*
X107608310Y-30928733D01*
X107608310Y-30759399D01*
X107124500Y-32385000D02*
X107100310Y-32317266D01*
X107100310Y-32215666D01*
X107124500Y-32114066D01*
X107172881Y-32046333D01*
X107221262Y-32012466D01*
X107318024Y-31978600D01*
X107390595Y-31978600D01*
X107487357Y-32012466D01*
X107535738Y-32046333D01*
X107584119Y-32114066D01*
X107608310Y-32215666D01*
X107608310Y-32283400D01*
X107584119Y-32385000D01*
X107559929Y-32418866D01*
X107390595Y-32418866D01*
X107390595Y-32283400D01*
X107608310Y-32723666D02*
X107100310Y-32723666D01*
X107608310Y-33130066D01*
X107100310Y-33130066D01*
X107608310Y-33468733D02*
X107100310Y-33468733D01*
X107100310Y-33638067D01*
X107124500Y-33739667D01*
X107172881Y-33807400D01*
X107221262Y-33841267D01*
X107318024Y-33875133D01*
X107390595Y-33875133D01*
X107487357Y-33841267D01*
X107535738Y-33807400D01*
X107584119Y-33739667D01*
X107608310Y-33638067D01*
X107608310Y-33468733D01*
X107100310Y-34654067D02*
X107100310Y-35094334D01*
X107293833Y-34857267D01*
X107293833Y-34958867D01*
X107318024Y-35026600D01*
X107342214Y-35060467D01*
X107390595Y-35094334D01*
X107511548Y-35094334D01*
X107559929Y-35060467D01*
X107584119Y-35026600D01*
X107608310Y-34958867D01*
X107608310Y-34755667D01*
X107584119Y-34687934D01*
X107559929Y-34654067D01*
X107100310Y-35297533D02*
X107608310Y-35534600D01*
X107100310Y-35771667D01*
X107100310Y-35941000D02*
X107100310Y-36381267D01*
X107293833Y-36144200D01*
X107293833Y-36245800D01*
X107318024Y-36313533D01*
X107342214Y-36347400D01*
X107390595Y-36381267D01*
X107511548Y-36381267D01*
X107559929Y-36347400D01*
X107584119Y-36313533D01*
X107608310Y-36245800D01*
X107608310Y-36042600D01*
X107584119Y-35974867D01*
X107559929Y-35941000D01*
X107342214Y-37465000D02*
X107366405Y-37566600D01*
X107390595Y-37600467D01*
X107438976Y-37634333D01*
X107511548Y-37634333D01*
X107559929Y-37600467D01*
X107584119Y-37566600D01*
X107608310Y-37498867D01*
X107608310Y-37227933D01*
X107100310Y-37227933D01*
X107100310Y-37465000D01*
X107124500Y-37532733D01*
X107148690Y-37566600D01*
X107197071Y-37600467D01*
X107245452Y-37600467D01*
X107293833Y-37566600D01*
X107318024Y-37532733D01*
X107342214Y-37465000D01*
X107342214Y-37227933D01*
X107608310Y-38243933D02*
X107342214Y-38243933D01*
X107293833Y-38210067D01*
X107269643Y-38142333D01*
X107269643Y-38006867D01*
X107293833Y-37939133D01*
X107584119Y-38243933D02*
X107608310Y-38176200D01*
X107608310Y-38006867D01*
X107584119Y-37939133D01*
X107535738Y-37905267D01*
X107487357Y-37905267D01*
X107438976Y-37939133D01*
X107414786Y-38006867D01*
X107414786Y-38176200D01*
X107390595Y-38243933D01*
X107269643Y-38481000D02*
X107269643Y-38751934D01*
X107100310Y-38582600D02*
X107535738Y-38582600D01*
X107584119Y-38616467D01*
X107608310Y-38684200D01*
X107608310Y-38751934D01*
X107608310Y-39903401D02*
X107608310Y-39497001D01*
X107608310Y-39700201D02*
X107100310Y-39700201D01*
X107172881Y-39632467D01*
X107221262Y-39564734D01*
X107245452Y-39497001D01*
X107269643Y-40208200D02*
X107777643Y-40208200D01*
X107293833Y-40208200D02*
X107269643Y-40275934D01*
X107269643Y-40411400D01*
X107293833Y-40479134D01*
X107318024Y-40513000D01*
X107366405Y-40546867D01*
X107511548Y-40546867D01*
X107559929Y-40513000D01*
X107584119Y-40479134D01*
X107608310Y-40411400D01*
X107608310Y-40275934D01*
X107584119Y-40208200D01*
X107269643Y-40851667D02*
X107777643Y-40851667D01*
X107293833Y-40851667D02*
X107269643Y-40919401D01*
X107269643Y-41054867D01*
X107293833Y-41122601D01*
X107318024Y-41156467D01*
X107366405Y-41190334D01*
X107511548Y-41190334D01*
X107559929Y-41156467D01*
X107584119Y-41122601D01*
X107608310Y-41054867D01*
X107608310Y-40919401D01*
X107584119Y-40851667D01*
X107584119Y-41461268D02*
X107608310Y-41529001D01*
X107608310Y-41664468D01*
X107584119Y-41732201D01*
X107535738Y-41766068D01*
X107511548Y-41766068D01*
X107463167Y-41732201D01*
X107438976Y-41664468D01*
X107438976Y-41562868D01*
X107414786Y-41495134D01*
X107366405Y-41461268D01*
X107342214Y-41461268D01*
X107293833Y-41495134D01*
X107269643Y-41562868D01*
X107269643Y-41664468D01*
X107293833Y-41732201D01*
X40017700Y-78794428D02*
X39981414Y-78721857D01*
X39981414Y-78613000D01*
X40017700Y-78504143D01*
X40090271Y-78431571D01*
X40162843Y-78395286D01*
X40307986Y-78359000D01*
X40416843Y-78359000D01*
X40561986Y-78395286D01*
X40634557Y-78431571D01*
X40707129Y-78504143D01*
X40743414Y-78613000D01*
X40743414Y-78685571D01*
X40707129Y-78794428D01*
X40670843Y-78830714D01*
X40416843Y-78830714D01*
X40416843Y-78685571D01*
X40743414Y-79157286D02*
X39981414Y-79157286D01*
X40743414Y-79592714D01*
X39981414Y-79592714D01*
X40743414Y-79955572D02*
X39981414Y-79955572D01*
X39981414Y-80137000D01*
X40017700Y-80245857D01*
X40090271Y-80318429D01*
X40162843Y-80354714D01*
X40307986Y-80391000D01*
X40416843Y-80391000D01*
X40561986Y-80354714D01*
X40634557Y-80318429D01*
X40707129Y-80245857D01*
X40743414Y-80137000D01*
X40743414Y-79955572D01*
X41175214Y-79229858D02*
X41175214Y-78867001D01*
X41538071Y-78830715D01*
X41501786Y-78867001D01*
X41465500Y-78939572D01*
X41465500Y-79121001D01*
X41501786Y-79193572D01*
X41538071Y-79229858D01*
X41610643Y-79266143D01*
X41792071Y-79266143D01*
X41864643Y-79229858D01*
X41900929Y-79193572D01*
X41937214Y-79121001D01*
X41937214Y-78939572D01*
X41900929Y-78867001D01*
X41864643Y-78830715D01*
X41175214Y-79483857D02*
X41937214Y-79737857D01*
X41175214Y-79991857D01*
X43094729Y-78431572D02*
X43131014Y-78540429D01*
X43131014Y-78721858D01*
X43094729Y-78794429D01*
X43058443Y-78830715D01*
X42985871Y-78867000D01*
X42913300Y-78867000D01*
X42840729Y-78830715D01*
X42804443Y-78794429D01*
X42768157Y-78721858D01*
X42731871Y-78576715D01*
X42695586Y-78504143D01*
X42659300Y-78467858D01*
X42586729Y-78431572D01*
X42514157Y-78431572D01*
X42441586Y-78467858D01*
X42405300Y-78504143D01*
X42369014Y-78576715D01*
X42369014Y-78758143D01*
X42405300Y-78867000D01*
X42731871Y-79193572D02*
X42731871Y-79447572D01*
X43131014Y-79556429D02*
X43131014Y-79193572D01*
X42369014Y-79193572D01*
X42369014Y-79556429D01*
X43131014Y-80318429D02*
X42768157Y-80064429D01*
X43131014Y-79883001D02*
X42369014Y-79883001D01*
X42369014Y-80173286D01*
X42405300Y-80245858D01*
X42441586Y-80282143D01*
X42514157Y-80318429D01*
X42623014Y-80318429D01*
X42695586Y-80282143D01*
X42731871Y-80245858D01*
X42768157Y-80173286D01*
X42768157Y-79883001D01*
X105029001Y-36884429D02*
X105137858Y-36848143D01*
X105174143Y-36811857D01*
X105210429Y-36739286D01*
X105210429Y-36630429D01*
X105174143Y-36557857D01*
X105137858Y-36521571D01*
X105065286Y-36485286D01*
X104775001Y-36485286D01*
X104775001Y-37247286D01*
X105029001Y-37247286D01*
X105101572Y-37211000D01*
X105137858Y-37174714D01*
X105174143Y-37102143D01*
X105174143Y-37029571D01*
X105137858Y-36957000D01*
X105101572Y-36920714D01*
X105029001Y-36884429D01*
X104775001Y-36884429D01*
X105899858Y-36485286D02*
X105537001Y-36485286D01*
X105537001Y-37247286D01*
X106153858Y-36485286D02*
X106153858Y-37247286D01*
X106589286Y-36485286D02*
X106262715Y-36920714D01*
X106589286Y-37247286D02*
X106153858Y-36811857D01*
X92319928Y-37211000D02*
X92247357Y-37247286D01*
X92138500Y-37247286D01*
X92029643Y-37211000D01*
X91957071Y-37138429D01*
X91920786Y-37065857D01*
X91884500Y-36920714D01*
X91884500Y-36811857D01*
X91920786Y-36666714D01*
X91957071Y-36594143D01*
X92029643Y-36521571D01*
X92138500Y-36485286D01*
X92211071Y-36485286D01*
X92319928Y-36521571D01*
X92356214Y-36557857D01*
X92356214Y-36811857D01*
X92211071Y-36811857D01*
X93118214Y-36485286D02*
X92864214Y-36848143D01*
X92682786Y-36485286D02*
X92682786Y-37247286D01*
X92973071Y-37247286D01*
X93045643Y-37211000D01*
X93081928Y-37174714D01*
X93118214Y-37102143D01*
X93118214Y-36993286D01*
X93081928Y-36920714D01*
X93045643Y-36884429D01*
X92973071Y-36848143D01*
X92682786Y-36848143D01*
X93444786Y-36485286D02*
X93444786Y-37247286D01*
X93880214Y-36485286D01*
X93880214Y-37247286D01*
D13*
X27664834Y-25560262D02*
X27967215Y-25560262D01*
X27997453Y-25862643D01*
X27967215Y-25832405D01*
X27906738Y-25802167D01*
X27755548Y-25802167D01*
X27695072Y-25832405D01*
X27664834Y-25862643D01*
X27634595Y-25923119D01*
X27634595Y-26074310D01*
X27664834Y-26134786D01*
X27695072Y-26165024D01*
X27755548Y-26195262D01*
X27906738Y-26195262D01*
X27967215Y-26165024D01*
X27997453Y-26134786D01*
X27453167Y-25560262D02*
X27241500Y-26195262D01*
X27029833Y-25560262D01*
X26697214Y-25560262D02*
X26636738Y-25560262D01*
X26576262Y-25590500D01*
X26546024Y-25620738D01*
X26515786Y-25681214D01*
X26485547Y-25802167D01*
X26485547Y-25953357D01*
X26515786Y-26074310D01*
X26546024Y-26134786D01*
X26576262Y-26165024D01*
X26636738Y-26195262D01*
X26697214Y-26195262D01*
X26757690Y-26165024D01*
X26787928Y-26134786D01*
X26818167Y-26074310D01*
X26848405Y-25953357D01*
X26848405Y-25802167D01*
X26818167Y-25681214D01*
X26787928Y-25620738D01*
X26757690Y-25590500D01*
X26697214Y-25560262D01*
D12*
X74004714Y-30113515D02*
X73242714Y-30113515D01*
X73242714Y-30294943D01*
X73279000Y-30403800D01*
X73351571Y-30476372D01*
X73424143Y-30512657D01*
X73569286Y-30548943D01*
X73678143Y-30548943D01*
X73823286Y-30512657D01*
X73895857Y-30476372D01*
X73968429Y-30403800D01*
X74004714Y-30294943D01*
X74004714Y-30113515D01*
X74004714Y-31274657D02*
X74004714Y-30839229D01*
X74004714Y-31056943D02*
X73242714Y-31056943D01*
X73351571Y-30984372D01*
X73424143Y-30911800D01*
X73460429Y-30839229D01*
X73315286Y-31564943D02*
X73279000Y-31601229D01*
X73242714Y-31673800D01*
X73242714Y-31855229D01*
X73279000Y-31927800D01*
X73315286Y-31964086D01*
X73387857Y-32000371D01*
X73460429Y-32000371D01*
X73569286Y-31964086D01*
X74004714Y-31528657D01*
X74004714Y-32000371D01*
X73206429Y-32871228D02*
X74186143Y-32218085D01*
X74004714Y-33125229D02*
X73242714Y-33125229D01*
X73787000Y-33379229D01*
X73242714Y-33633229D01*
X74004714Y-33633229D01*
X74004714Y-33996086D02*
X73242714Y-33996086D01*
X73968429Y-34322657D02*
X74004714Y-34431514D01*
X74004714Y-34612943D01*
X73968429Y-34685514D01*
X73932143Y-34721800D01*
X73859571Y-34758085D01*
X73787000Y-34758085D01*
X73714429Y-34721800D01*
X73678143Y-34685514D01*
X73641857Y-34612943D01*
X73605571Y-34467800D01*
X73569286Y-34395228D01*
X73533000Y-34358943D01*
X73460429Y-34322657D01*
X73387857Y-34322657D01*
X73315286Y-34358943D01*
X73279000Y-34395228D01*
X73242714Y-34467800D01*
X73242714Y-34649228D01*
X73279000Y-34758085D01*
X73242714Y-35229799D02*
X73242714Y-35374942D01*
X73279000Y-35447514D01*
X73351571Y-35520085D01*
X73496714Y-35556371D01*
X73750714Y-35556371D01*
X73895857Y-35520085D01*
X73968429Y-35447514D01*
X74004714Y-35374942D01*
X74004714Y-35229799D01*
X73968429Y-35157228D01*
X73895857Y-35084657D01*
X73750714Y-35048371D01*
X73496714Y-35048371D01*
X73351571Y-35084657D01*
X73279000Y-35157228D01*
X73242714Y-35229799D01*
X61087000Y-30198786D02*
X61087000Y-30561643D01*
X61304714Y-30126214D02*
X60542714Y-30380214D01*
X61304714Y-30634214D01*
X61304714Y-30888215D02*
X60542714Y-30888215D01*
X60542714Y-31069643D01*
X60579000Y-31178500D01*
X60651571Y-31251072D01*
X60724143Y-31287357D01*
X60869286Y-31323643D01*
X60978143Y-31323643D01*
X61123286Y-31287357D01*
X61195857Y-31251072D01*
X61268429Y-31178500D01*
X61304714Y-31069643D01*
X61304714Y-30888215D01*
X60542714Y-32013072D02*
X60542714Y-31650215D01*
X60905571Y-31613929D01*
X60869286Y-31650215D01*
X60833000Y-31722786D01*
X60833000Y-31904215D01*
X60869286Y-31976786D01*
X60905571Y-32013072D01*
X60978143Y-32049357D01*
X61159571Y-32049357D01*
X61232143Y-32013072D01*
X61268429Y-31976786D01*
X61304714Y-31904215D01*
X61304714Y-31722786D01*
X61268429Y-31650215D01*
X61232143Y-31613929D01*
X60506429Y-32920214D02*
X61486143Y-32267071D01*
X61268429Y-33137929D02*
X61304714Y-33246786D01*
X61304714Y-33428215D01*
X61268429Y-33500786D01*
X61232143Y-33537072D01*
X61159571Y-33573357D01*
X61087000Y-33573357D01*
X61014429Y-33537072D01*
X60978143Y-33500786D01*
X60941857Y-33428215D01*
X60905571Y-33283072D01*
X60869286Y-33210500D01*
X60833000Y-33174215D01*
X60760429Y-33137929D01*
X60687857Y-33137929D01*
X60615286Y-33174215D01*
X60579000Y-33210500D01*
X60542714Y-33283072D01*
X60542714Y-33464500D01*
X60579000Y-33573357D01*
X61232143Y-34335357D02*
X61268429Y-34299071D01*
X61304714Y-34190214D01*
X61304714Y-34117643D01*
X61268429Y-34008786D01*
X61195857Y-33936214D01*
X61123286Y-33899929D01*
X60978143Y-33863643D01*
X60869286Y-33863643D01*
X60724143Y-33899929D01*
X60651571Y-33936214D01*
X60579000Y-34008786D01*
X60542714Y-34117643D01*
X60542714Y-34190214D01*
X60579000Y-34299071D01*
X60615286Y-34335357D01*
X61304714Y-35024786D02*
X61304714Y-34661929D01*
X60542714Y-34661929D01*
X63627000Y-30244143D02*
X63627000Y-30607000D01*
X63844714Y-30171571D02*
X63082714Y-30425571D01*
X63844714Y-30679571D01*
X63844714Y-30933572D02*
X63082714Y-30933572D01*
X63082714Y-31115000D01*
X63119000Y-31223857D01*
X63191571Y-31296429D01*
X63264143Y-31332714D01*
X63409286Y-31369000D01*
X63518143Y-31369000D01*
X63663286Y-31332714D01*
X63735857Y-31296429D01*
X63808429Y-31223857D01*
X63844714Y-31115000D01*
X63844714Y-30933572D01*
X63336714Y-32022143D02*
X63844714Y-32022143D01*
X63046429Y-31840714D02*
X63590714Y-31659286D01*
X63590714Y-32131000D01*
X63046429Y-32965571D02*
X64026143Y-32312428D01*
X63808429Y-33183286D02*
X63844714Y-33292143D01*
X63844714Y-33473572D01*
X63808429Y-33546143D01*
X63772143Y-33582429D01*
X63699571Y-33618714D01*
X63627000Y-33618714D01*
X63554429Y-33582429D01*
X63518143Y-33546143D01*
X63481857Y-33473572D01*
X63445571Y-33328429D01*
X63409286Y-33255857D01*
X63373000Y-33219572D01*
X63300429Y-33183286D01*
X63227857Y-33183286D01*
X63155286Y-33219572D01*
X63119000Y-33255857D01*
X63082714Y-33328429D01*
X63082714Y-33509857D01*
X63119000Y-33618714D01*
X63844714Y-33945286D02*
X63082714Y-33945286D01*
X63082714Y-34126714D01*
X63119000Y-34235571D01*
X63191571Y-34308143D01*
X63264143Y-34344428D01*
X63409286Y-34380714D01*
X63518143Y-34380714D01*
X63663286Y-34344428D01*
X63735857Y-34308143D01*
X63808429Y-34235571D01*
X63844714Y-34126714D01*
X63844714Y-33945286D01*
X63627000Y-34671000D02*
X63627000Y-35033857D01*
X63844714Y-34598428D02*
X63082714Y-34852428D01*
X63844714Y-35106428D01*
X66167000Y-30198786D02*
X66167000Y-30561643D01*
X66384714Y-30126214D02*
X65622714Y-30380214D01*
X66384714Y-30634214D01*
X66384714Y-31323643D02*
X66021857Y-31069643D01*
X66384714Y-30888215D02*
X65622714Y-30888215D01*
X65622714Y-31178500D01*
X65659000Y-31251072D01*
X65695286Y-31287357D01*
X65767857Y-31323643D01*
X65876714Y-31323643D01*
X65949286Y-31287357D01*
X65985571Y-31251072D01*
X66021857Y-31178500D01*
X66021857Y-30888215D01*
X65985571Y-31650215D02*
X65985571Y-31904215D01*
X66384714Y-32013072D02*
X66384714Y-31650215D01*
X65622714Y-31650215D01*
X65622714Y-32013072D01*
X65985571Y-32593644D02*
X65985571Y-32339644D01*
X66384714Y-32339644D02*
X65622714Y-32339644D01*
X65622714Y-32702501D01*
X68199000Y-30534428D02*
X68162714Y-30461857D01*
X68162714Y-30353000D01*
X68199000Y-30244143D01*
X68271571Y-30171571D01*
X68344143Y-30135286D01*
X68489286Y-30099000D01*
X68598143Y-30099000D01*
X68743286Y-30135286D01*
X68815857Y-30171571D01*
X68888429Y-30244143D01*
X68924714Y-30353000D01*
X68924714Y-30425571D01*
X68888429Y-30534428D01*
X68852143Y-30570714D01*
X68598143Y-30570714D01*
X68598143Y-30425571D01*
X68924714Y-30897286D02*
X68162714Y-30897286D01*
X68924714Y-31332714D01*
X68162714Y-31332714D01*
X68924714Y-31695572D02*
X68162714Y-31695572D01*
X68162714Y-31877000D01*
X68199000Y-31985857D01*
X68271571Y-32058429D01*
X68344143Y-32094714D01*
X68489286Y-32131000D01*
X68598143Y-32131000D01*
X68743286Y-32094714D01*
X68815857Y-32058429D01*
X68888429Y-31985857D01*
X68924714Y-31877000D01*
X68924714Y-31695572D01*
X71464714Y-30126215D02*
X70702714Y-30126215D01*
X70702714Y-30307643D01*
X70739000Y-30416500D01*
X70811571Y-30489072D01*
X70884143Y-30525357D01*
X71029286Y-30561643D01*
X71138143Y-30561643D01*
X71283286Y-30525357D01*
X71355857Y-30489072D01*
X71428429Y-30416500D01*
X71464714Y-30307643D01*
X71464714Y-30126215D01*
X71464714Y-31287357D02*
X71464714Y-30851929D01*
X71464714Y-31069643D02*
X70702714Y-31069643D01*
X70811571Y-30997072D01*
X70884143Y-30924500D01*
X70920429Y-30851929D01*
X70702714Y-31541357D02*
X70702714Y-32013071D01*
X70993000Y-31759071D01*
X70993000Y-31867929D01*
X71029286Y-31940500D01*
X71065571Y-31976786D01*
X71138143Y-32013071D01*
X71319571Y-32013071D01*
X71392143Y-31976786D01*
X71428429Y-31940500D01*
X71464714Y-31867929D01*
X71464714Y-31650214D01*
X71428429Y-31577643D01*
X71392143Y-31541357D01*
X70666429Y-32883928D02*
X71646143Y-32230785D01*
X71428429Y-33101643D02*
X71464714Y-33210500D01*
X71464714Y-33391929D01*
X71428429Y-33464500D01*
X71392143Y-33500786D01*
X71319571Y-33537071D01*
X71247000Y-33537071D01*
X71174429Y-33500786D01*
X71138143Y-33464500D01*
X71101857Y-33391929D01*
X71065571Y-33246786D01*
X71029286Y-33174214D01*
X70993000Y-33137929D01*
X70920429Y-33101643D01*
X70847857Y-33101643D01*
X70775286Y-33137929D01*
X70739000Y-33174214D01*
X70702714Y-33246786D01*
X70702714Y-33428214D01*
X70739000Y-33537071D01*
X71392143Y-34299071D02*
X71428429Y-34262785D01*
X71464714Y-34153928D01*
X71464714Y-34081357D01*
X71428429Y-33972500D01*
X71355857Y-33899928D01*
X71283286Y-33863643D01*
X71138143Y-33827357D01*
X71029286Y-33827357D01*
X70884143Y-33863643D01*
X70811571Y-33899928D01*
X70739000Y-33972500D01*
X70702714Y-34081357D01*
X70702714Y-34153928D01*
X70739000Y-34262785D01*
X70775286Y-34299071D01*
X71464714Y-34625643D02*
X70702714Y-34625643D01*
X71464714Y-35061071D02*
X71029286Y-34734500D01*
X70702714Y-35061071D02*
X71138143Y-34625643D01*
X76544714Y-30082672D02*
X75782714Y-30082672D01*
X75782714Y-30264100D01*
X75819000Y-30372957D01*
X75891571Y-30445529D01*
X75964143Y-30481814D01*
X76109286Y-30518100D01*
X76218143Y-30518100D01*
X76363286Y-30481814D01*
X76435857Y-30445529D01*
X76508429Y-30372957D01*
X76544714Y-30264100D01*
X76544714Y-30082672D01*
X76544714Y-31243814D02*
X76544714Y-30808386D01*
X76544714Y-31026100D02*
X75782714Y-31026100D01*
X75891571Y-30953529D01*
X75964143Y-30880957D01*
X76000429Y-30808386D01*
X76544714Y-31969528D02*
X76544714Y-31534100D01*
X76544714Y-31751814D02*
X75782714Y-31751814D01*
X75891571Y-31679243D01*
X75964143Y-31606671D01*
X76000429Y-31534100D01*
X75746429Y-32840385D02*
X76726143Y-32187242D01*
X76544714Y-33094386D02*
X75782714Y-33094386D01*
X76327000Y-33348386D01*
X75782714Y-33602386D01*
X76544714Y-33602386D01*
X75782714Y-34110385D02*
X75782714Y-34255528D01*
X75819000Y-34328100D01*
X75891571Y-34400671D01*
X76036714Y-34436957D01*
X76290714Y-34436957D01*
X76435857Y-34400671D01*
X76508429Y-34328100D01*
X76544714Y-34255528D01*
X76544714Y-34110385D01*
X76508429Y-34037814D01*
X76435857Y-33965243D01*
X76290714Y-33928957D01*
X76036714Y-33928957D01*
X75891571Y-33965243D01*
X75819000Y-34037814D01*
X75782714Y-34110385D01*
X76508429Y-34727243D02*
X76544714Y-34836100D01*
X76544714Y-35017529D01*
X76508429Y-35090100D01*
X76472143Y-35126386D01*
X76399571Y-35162671D01*
X76327000Y-35162671D01*
X76254429Y-35126386D01*
X76218143Y-35090100D01*
X76181857Y-35017529D01*
X76145571Y-34872386D01*
X76109286Y-34799814D01*
X76073000Y-34763529D01*
X76000429Y-34727243D01*
X75927857Y-34727243D01*
X75855286Y-34763529D01*
X75819000Y-34799814D01*
X75782714Y-34872386D01*
X75782714Y-35053814D01*
X75819000Y-35162671D01*
X76544714Y-35489243D02*
X75782714Y-35489243D01*
X75746429Y-36396385D02*
X76726143Y-35743242D01*
X76036714Y-36614100D02*
X76036714Y-37158386D01*
X75710143Y-36831814D02*
X76689857Y-36614100D01*
X76363286Y-37085814D02*
X76363286Y-36541528D01*
X76689857Y-36868100D02*
X75710143Y-37085814D01*
X79084714Y-30044572D02*
X78322714Y-30044572D01*
X78322714Y-30226000D01*
X78359000Y-30334857D01*
X78431571Y-30407429D01*
X78504143Y-30443714D01*
X78649286Y-30480000D01*
X78758143Y-30480000D01*
X78903286Y-30443714D01*
X78975857Y-30407429D01*
X79048429Y-30334857D01*
X79084714Y-30226000D01*
X79084714Y-30044572D01*
X79084714Y-31205714D02*
X79084714Y-30770286D01*
X79084714Y-30988000D02*
X78322714Y-30988000D01*
X78431571Y-30915429D01*
X78504143Y-30842857D01*
X78540429Y-30770286D01*
X78322714Y-31677428D02*
X78322714Y-31750000D01*
X78359000Y-31822571D01*
X78395286Y-31858857D01*
X78467857Y-31895143D01*
X78613000Y-31931428D01*
X78794429Y-31931428D01*
X78939571Y-31895143D01*
X79012143Y-31858857D01*
X79048429Y-31822571D01*
X79084714Y-31750000D01*
X79084714Y-31677428D01*
X79048429Y-31604857D01*
X79012143Y-31568571D01*
X78939571Y-31532286D01*
X78794429Y-31496000D01*
X78613000Y-31496000D01*
X78467857Y-31532286D01*
X78395286Y-31568571D01*
X78359000Y-31604857D01*
X78322714Y-31677428D01*
X78286429Y-32802285D02*
X79266143Y-32149142D01*
X78576714Y-33020000D02*
X78576714Y-33564286D01*
X78250143Y-33237714D02*
X79229857Y-33020000D01*
X78903286Y-33491714D02*
X78903286Y-32947428D01*
X79229857Y-33274000D02*
X78250143Y-33491714D01*
X81624714Y-30153429D02*
X80862714Y-30153429D01*
X80862714Y-30334857D01*
X80899000Y-30443714D01*
X80971571Y-30516286D01*
X81044143Y-30552571D01*
X81189286Y-30588857D01*
X81298143Y-30588857D01*
X81443286Y-30552571D01*
X81515857Y-30516286D01*
X81588429Y-30443714D01*
X81624714Y-30334857D01*
X81624714Y-30153429D01*
X81624714Y-30951714D02*
X81624714Y-31096857D01*
X81588429Y-31169429D01*
X81552143Y-31205714D01*
X81443286Y-31278286D01*
X81298143Y-31314571D01*
X81007857Y-31314571D01*
X80935286Y-31278286D01*
X80899000Y-31242000D01*
X80862714Y-31169429D01*
X80862714Y-31024286D01*
X80899000Y-30951714D01*
X80935286Y-30915429D01*
X81007857Y-30879143D01*
X81189286Y-30879143D01*
X81261857Y-30915429D01*
X81298143Y-30951714D01*
X81334429Y-31024286D01*
X81334429Y-31169429D01*
X81298143Y-31242000D01*
X81261857Y-31278286D01*
X81189286Y-31314571D01*
X80826429Y-32185428D02*
X81806143Y-31532285D01*
X81116714Y-32403143D02*
X81116714Y-32947429D01*
X80790143Y-32620857D02*
X81769857Y-32403143D01*
X81443286Y-32874857D02*
X81443286Y-32330571D01*
X81769857Y-32657143D02*
X80790143Y-32874857D01*
X84164714Y-30171572D02*
X83402714Y-30171572D01*
X83402714Y-30353000D01*
X83439000Y-30461857D01*
X83511571Y-30534429D01*
X83584143Y-30570714D01*
X83729286Y-30607000D01*
X83838143Y-30607000D01*
X83983286Y-30570714D01*
X84055857Y-30534429D01*
X84128429Y-30461857D01*
X84164714Y-30353000D01*
X84164714Y-30171572D01*
X83729286Y-31042429D02*
X83693000Y-30969857D01*
X83656714Y-30933572D01*
X83584143Y-30897286D01*
X83547857Y-30897286D01*
X83475286Y-30933572D01*
X83439000Y-30969857D01*
X83402714Y-31042429D01*
X83402714Y-31187572D01*
X83439000Y-31260143D01*
X83475286Y-31296429D01*
X83547857Y-31332714D01*
X83584143Y-31332714D01*
X83656714Y-31296429D01*
X83693000Y-31260143D01*
X83729286Y-31187572D01*
X83729286Y-31042429D01*
X83765571Y-30969857D01*
X83801857Y-30933572D01*
X83874429Y-30897286D01*
X84019571Y-30897286D01*
X84092143Y-30933572D01*
X84128429Y-30969857D01*
X84164714Y-31042429D01*
X84164714Y-31187572D01*
X84128429Y-31260143D01*
X84092143Y-31296429D01*
X84019571Y-31332714D01*
X83874429Y-31332714D01*
X83801857Y-31296429D01*
X83765571Y-31260143D01*
X83729286Y-31187572D01*
X88228714Y-30108072D02*
X87466714Y-30108072D01*
X87466714Y-30289500D01*
X87503000Y-30398357D01*
X87575571Y-30470929D01*
X87648143Y-30507214D01*
X87793286Y-30543500D01*
X87902143Y-30543500D01*
X88047286Y-30507214D01*
X88119857Y-30470929D01*
X88192429Y-30398357D01*
X88228714Y-30289500D01*
X88228714Y-30108072D01*
X87466714Y-30797500D02*
X87466714Y-31305500D01*
X88228714Y-30978929D01*
X90768714Y-30153429D02*
X90006714Y-30153429D01*
X90006714Y-30334857D01*
X90043000Y-30443714D01*
X90115571Y-30516286D01*
X90188143Y-30552571D01*
X90333286Y-30588857D01*
X90442143Y-30588857D01*
X90587286Y-30552571D01*
X90659857Y-30516286D01*
X90732429Y-30443714D01*
X90768714Y-30334857D01*
X90768714Y-30153429D01*
X90006714Y-31242000D02*
X90006714Y-31096857D01*
X90043000Y-31024286D01*
X90079286Y-30988000D01*
X90188143Y-30915429D01*
X90333286Y-30879143D01*
X90623571Y-30879143D01*
X90696143Y-30915429D01*
X90732429Y-30951714D01*
X90768714Y-31024286D01*
X90768714Y-31169429D01*
X90732429Y-31242000D01*
X90696143Y-31278286D01*
X90623571Y-31314571D01*
X90442143Y-31314571D01*
X90369571Y-31278286D01*
X90333286Y-31242000D01*
X90297000Y-31169429D01*
X90297000Y-31024286D01*
X90333286Y-30951714D01*
X90369571Y-30915429D01*
X90442143Y-30879143D01*
X89970429Y-32185428D02*
X90950143Y-31532285D01*
X90260714Y-32403143D02*
X90260714Y-32947429D01*
X89934143Y-32620857D02*
X90913857Y-32403143D01*
X90587286Y-32874857D02*
X90587286Y-32330571D01*
X90913857Y-32657143D02*
X89934143Y-32874857D01*
X93308714Y-30153429D02*
X92546714Y-30153429D01*
X92546714Y-30334857D01*
X92583000Y-30443714D01*
X92655571Y-30516286D01*
X92728143Y-30552571D01*
X92873286Y-30588857D01*
X92982143Y-30588857D01*
X93127286Y-30552571D01*
X93199857Y-30516286D01*
X93272429Y-30443714D01*
X93308714Y-30334857D01*
X93308714Y-30153429D01*
X92546714Y-31278286D02*
X92546714Y-30915429D01*
X92909571Y-30879143D01*
X92873286Y-30915429D01*
X92837000Y-30988000D01*
X92837000Y-31169429D01*
X92873286Y-31242000D01*
X92909571Y-31278286D01*
X92982143Y-31314571D01*
X93163571Y-31314571D01*
X93236143Y-31278286D01*
X93272429Y-31242000D01*
X93308714Y-31169429D01*
X93308714Y-30988000D01*
X93272429Y-30915429D01*
X93236143Y-30879143D01*
X92510429Y-32185428D02*
X93490143Y-31532285D01*
X92800714Y-32403143D02*
X92800714Y-32947429D01*
X92474143Y-32620857D02*
X93453857Y-32403143D01*
X93127286Y-32874857D02*
X93127286Y-32330571D01*
X93453857Y-32657143D02*
X92474143Y-32874857D01*
X95912214Y-30108072D02*
X95150214Y-30108072D01*
X95150214Y-30289500D01*
X95186500Y-30398357D01*
X95259071Y-30470929D01*
X95331643Y-30507214D01*
X95476786Y-30543500D01*
X95585643Y-30543500D01*
X95730786Y-30507214D01*
X95803357Y-30470929D01*
X95875929Y-30398357D01*
X95912214Y-30289500D01*
X95912214Y-30108072D01*
X95404214Y-31196643D02*
X95912214Y-31196643D01*
X95113929Y-31015214D02*
X95658214Y-30833786D01*
X95658214Y-31305500D01*
X97690214Y-30183667D02*
X96928214Y-30183667D01*
X96928214Y-30304620D01*
X96964500Y-30377191D01*
X97037071Y-30425572D01*
X97109643Y-30449763D01*
X97254786Y-30473953D01*
X97363643Y-30473953D01*
X97508786Y-30449763D01*
X97581357Y-30425572D01*
X97653929Y-30377191D01*
X97690214Y-30304620D01*
X97690214Y-30183667D01*
X96928214Y-30643286D02*
X96928214Y-30957763D01*
X97218500Y-30788429D01*
X97218500Y-30861001D01*
X97254786Y-30909382D01*
X97291071Y-30933572D01*
X97363643Y-30957763D01*
X97545071Y-30957763D01*
X97617643Y-30933572D01*
X97653929Y-30909382D01*
X97690214Y-30861001D01*
X97690214Y-30715858D01*
X97653929Y-30667477D01*
X97617643Y-30643286D01*
X96891929Y-31538335D02*
X97871643Y-31102906D01*
X97653929Y-31683477D02*
X97690214Y-31756048D01*
X97690214Y-31877001D01*
X97653929Y-31925382D01*
X97617643Y-31949572D01*
X97545071Y-31973763D01*
X97472500Y-31973763D01*
X97399929Y-31949572D01*
X97363643Y-31925382D01*
X97327357Y-31877001D01*
X97291071Y-31780239D01*
X97254786Y-31731858D01*
X97218500Y-31707667D01*
X97145929Y-31683477D01*
X97073357Y-31683477D01*
X97000786Y-31707667D01*
X96964500Y-31731858D01*
X96928214Y-31780239D01*
X96928214Y-31901191D01*
X96964500Y-31973763D01*
X97762786Y-32530144D02*
X97726500Y-32481763D01*
X97653929Y-32433382D01*
X97545071Y-32360811D01*
X97508786Y-32312430D01*
X97508786Y-32264049D01*
X97690214Y-32288239D02*
X97653929Y-32239858D01*
X97581357Y-32191477D01*
X97436214Y-32167287D01*
X97182214Y-32167287D01*
X97037071Y-32191477D01*
X96964500Y-32239858D01*
X96928214Y-32288239D01*
X96928214Y-32385001D01*
X96964500Y-32433382D01*
X97037071Y-32481763D01*
X97182214Y-32505954D01*
X97436214Y-32505954D01*
X97581357Y-32481763D01*
X97653929Y-32433382D01*
X97690214Y-32385001D01*
X97690214Y-32288239D01*
X96928214Y-32675286D02*
X97690214Y-32796239D01*
X97145929Y-32893001D01*
X97690214Y-32989763D01*
X96928214Y-33110715D01*
X100928714Y-30138309D02*
X100166714Y-30138309D01*
X100166714Y-30259262D01*
X100203000Y-30331833D01*
X100275571Y-30380214D01*
X100348143Y-30404405D01*
X100493286Y-30428595D01*
X100602143Y-30428595D01*
X100747286Y-30404405D01*
X100819857Y-30380214D01*
X100892429Y-30331833D01*
X100928714Y-30259262D01*
X100928714Y-30138309D01*
X100239286Y-30622119D02*
X100203000Y-30646309D01*
X100166714Y-30694690D01*
X100166714Y-30815643D01*
X100203000Y-30864024D01*
X100239286Y-30888214D01*
X100311857Y-30912405D01*
X100384429Y-30912405D01*
X100493286Y-30888214D01*
X100928714Y-30597928D01*
X100928714Y-30912405D01*
X100130429Y-31492977D02*
X101110143Y-31057548D01*
X100928714Y-31928405D02*
X100928714Y-31638119D01*
X100928714Y-31783262D02*
X100166714Y-31783262D01*
X100275571Y-31734881D01*
X100348143Y-31686500D01*
X100384429Y-31638119D01*
X100420714Y-32146119D02*
X101182714Y-32146119D01*
X100457000Y-32146119D02*
X100420714Y-32194500D01*
X100420714Y-32291262D01*
X100457000Y-32339643D01*
X100493286Y-32363834D01*
X100565857Y-32388024D01*
X100783571Y-32388024D01*
X100856143Y-32363834D01*
X100892429Y-32339643D01*
X100928714Y-32291262D01*
X100928714Y-32194500D01*
X100892429Y-32146119D01*
X100420714Y-32605738D02*
X101182714Y-32605738D01*
X100457000Y-32605738D02*
X100420714Y-32654119D01*
X100420714Y-32750881D01*
X100457000Y-32799262D01*
X100493286Y-32823453D01*
X100565857Y-32847643D01*
X100783571Y-32847643D01*
X100856143Y-32823453D01*
X100892429Y-32799262D01*
X100928714Y-32750881D01*
X100928714Y-32654119D01*
X100892429Y-32605738D01*
X100892429Y-33041167D02*
X100928714Y-33089548D01*
X100928714Y-33186310D01*
X100892429Y-33234691D01*
X100819857Y-33258881D01*
X100783571Y-33258881D01*
X100711000Y-33234691D01*
X100674714Y-33186310D01*
X100674714Y-33113738D01*
X100638429Y-33065357D01*
X100565857Y-33041167D01*
X100529571Y-33041167D01*
X100457000Y-33065357D01*
X100420714Y-33113738D01*
X100420714Y-33186310D01*
X100457000Y-33234691D01*
X103468714Y-30165523D02*
X102706714Y-30165523D01*
X102706714Y-30286476D01*
X102743000Y-30359047D01*
X102815571Y-30407428D01*
X102888143Y-30431619D01*
X103033286Y-30455809D01*
X103142143Y-30455809D01*
X103287286Y-30431619D01*
X103359857Y-30407428D01*
X103432429Y-30359047D01*
X103468714Y-30286476D01*
X103468714Y-30165523D01*
X103468714Y-30939619D02*
X103468714Y-30649333D01*
X103468714Y-30794476D02*
X102706714Y-30794476D01*
X102815571Y-30746095D01*
X102888143Y-30697714D01*
X102924429Y-30649333D01*
X102670429Y-31520191D02*
X103650143Y-31084762D01*
X102706714Y-31616952D02*
X102706714Y-31907238D01*
X103468714Y-31762095D02*
X102706714Y-31762095D01*
X102706714Y-32028190D02*
X103468714Y-32366857D01*
X102706714Y-32366857D02*
X103468714Y-32028190D01*
X103468714Y-32560381D02*
X102706714Y-32560381D01*
X102706714Y-32681334D01*
X102743000Y-32753905D01*
X102815571Y-32802286D01*
X102888143Y-32826477D01*
X103033286Y-32850667D01*
X103142143Y-32850667D01*
X103287286Y-32826477D01*
X103359857Y-32802286D01*
X103432429Y-32753905D01*
X103468714Y-32681334D01*
X103468714Y-32560381D01*
X106008714Y-30168547D02*
X105246714Y-30168547D01*
X105246714Y-30289500D01*
X105283000Y-30362071D01*
X105355571Y-30410452D01*
X105428143Y-30434643D01*
X105573286Y-30458833D01*
X105682143Y-30458833D01*
X105827286Y-30434643D01*
X105899857Y-30410452D01*
X105972429Y-30362071D01*
X106008714Y-30289500D01*
X106008714Y-30168547D01*
X105246714Y-30773309D02*
X105246714Y-30821690D01*
X105283000Y-30870071D01*
X105319286Y-30894262D01*
X105391857Y-30918452D01*
X105537000Y-30942643D01*
X105718429Y-30942643D01*
X105863571Y-30918452D01*
X105936143Y-30894262D01*
X105972429Y-30870071D01*
X106008714Y-30821690D01*
X106008714Y-30773309D01*
X105972429Y-30724928D01*
X105936143Y-30700738D01*
X105863571Y-30676547D01*
X105718429Y-30652357D01*
X105537000Y-30652357D01*
X105391857Y-30676547D01*
X105319286Y-30700738D01*
X105283000Y-30724928D01*
X105246714Y-30773309D01*
X105210429Y-31523215D02*
X106190143Y-31087786D01*
X106008714Y-31982833D02*
X105645857Y-31813500D01*
X106008714Y-31692547D02*
X105246714Y-31692547D01*
X105246714Y-31886071D01*
X105283000Y-31934452D01*
X105319286Y-31958643D01*
X105391857Y-31982833D01*
X105500714Y-31982833D01*
X105573286Y-31958643D01*
X105609571Y-31934452D01*
X105645857Y-31886071D01*
X105645857Y-31692547D01*
X105246714Y-32152166D02*
X106008714Y-32490833D01*
X105246714Y-32490833D02*
X106008714Y-32152166D01*
X106008714Y-32684357D02*
X105246714Y-32684357D01*
X105246714Y-32805310D01*
X105283000Y-32877881D01*
X105355571Y-32926262D01*
X105428143Y-32950453D01*
X105573286Y-32974643D01*
X105682143Y-32974643D01*
X105827286Y-32950453D01*
X105899857Y-32926262D01*
X105972429Y-32877881D01*
X106008714Y-32805310D01*
X106008714Y-32684357D01*
X86550501Y-25626786D02*
X86550501Y-26388786D01*
X87457643Y-26425071D02*
X86804500Y-25445357D01*
X87856786Y-26388786D02*
X88001929Y-26388786D01*
X88074501Y-26352500D01*
X88147072Y-26279929D01*
X88183358Y-26134786D01*
X88183358Y-25880786D01*
X88147072Y-25735643D01*
X88074501Y-25663071D01*
X88001929Y-25626786D01*
X87856786Y-25626786D01*
X87784215Y-25663071D01*
X87711644Y-25735643D01*
X87675358Y-25880786D01*
X87675358Y-26134786D01*
X87711644Y-26279929D01*
X87784215Y-26352500D01*
X87856786Y-26388786D01*
X89453358Y-25626786D02*
X89090501Y-25626786D01*
X89090501Y-26388786D01*
X81951286Y-25626786D02*
X81951286Y-26388786D01*
X82858428Y-26425071D02*
X82205285Y-25445357D01*
X83257571Y-26388786D02*
X83402714Y-26388786D01*
X83475286Y-26352500D01*
X83547857Y-26279929D01*
X83584143Y-26134786D01*
X83584143Y-25880786D01*
X83547857Y-25735643D01*
X83475286Y-25663071D01*
X83402714Y-25626786D01*
X83257571Y-25626786D01*
X83185000Y-25663071D01*
X83112429Y-25735643D01*
X83076143Y-25880786D01*
X83076143Y-26134786D01*
X83112429Y-26279929D01*
X83185000Y-26352500D01*
X83257571Y-26388786D01*
X84491286Y-25626786D02*
X84491286Y-26388786D01*
X84491286Y-26025929D02*
X84926714Y-26025929D01*
X84926714Y-25626786D02*
X84926714Y-26388786D01*
X59626500Y-26670000D02*
X85026500Y-26670000D01*
X59626500Y-29845000D02*
X59626500Y-26670000D01*
X85026500Y-29845000D02*
X59626500Y-29845000D01*
X85026500Y-26670000D02*
X85026500Y-29845000D01*
X86550500Y-29845000D02*
X86550500Y-26670000D01*
X106870500Y-29845000D02*
X86550500Y-29845000D01*
X106870500Y-26670000D02*
X106870500Y-29845000D01*
X86550500Y-26670000D02*
X106870500Y-26670000D01*
X91630500Y-36322000D02*
X91630500Y-33782000D01*
X106870500Y-36322000D02*
X91630500Y-36322000D01*
X106870500Y-33782000D02*
X106870500Y-36322000D01*
X91630500Y-33782000D02*
X106870500Y-33782000D01*
X98506644Y-36884429D02*
X98252644Y-36884429D01*
X98252644Y-36485286D02*
X98252644Y-37247286D01*
X98615501Y-37247286D01*
X98796929Y-37247286D02*
X99232358Y-37247286D01*
X99014644Y-36485286D02*
X99014644Y-37247286D01*
X99486358Y-36485286D02*
X99486358Y-37247286D01*
X99667786Y-37247286D01*
X99776643Y-37211000D01*
X99849215Y-37138429D01*
X99885500Y-37065857D01*
X99921786Y-36920714D01*
X99921786Y-36811857D01*
X99885500Y-36666714D01*
X99849215Y-36594143D01*
X99776643Y-36521571D01*
X99667786Y-36485286D01*
X99486358Y-36485286D01*
X100248358Y-36485286D02*
X100248358Y-37247286D01*
X106045000Y-40349714D02*
X106008714Y-40277143D01*
X106008714Y-40168286D01*
X106045000Y-40059429D01*
X106117571Y-39986857D01*
X106190143Y-39950572D01*
X106335286Y-39914286D01*
X106444143Y-39914286D01*
X106589286Y-39950572D01*
X106661857Y-39986857D01*
X106734429Y-40059429D01*
X106770714Y-40168286D01*
X106770714Y-40240857D01*
X106734429Y-40349714D01*
X106698143Y-40386000D01*
X106444143Y-40386000D01*
X106444143Y-40240857D01*
X106770714Y-40712572D02*
X106008714Y-40712572D01*
X106008714Y-41002857D01*
X106045000Y-41075429D01*
X106081286Y-41111714D01*
X106153857Y-41148000D01*
X106262714Y-41148000D01*
X106335286Y-41111714D01*
X106371571Y-41075429D01*
X106407857Y-41002857D01*
X106407857Y-40712572D01*
X106734429Y-41438286D02*
X106770714Y-41547143D01*
X106770714Y-41728572D01*
X106734429Y-41801143D01*
X106698143Y-41837429D01*
X106625571Y-41873714D01*
X106553000Y-41873714D01*
X106480429Y-41837429D01*
X106444143Y-41801143D01*
X106407857Y-41728572D01*
X106371571Y-41583429D01*
X106335286Y-41510857D01*
X106299000Y-41474572D01*
X106226429Y-41438286D01*
X106153857Y-41438286D01*
X106081286Y-41474572D01*
X106045000Y-41510857D01*
X106008714Y-41583429D01*
X106008714Y-41764857D01*
X106045000Y-41873714D01*
X96692356Y-46191714D02*
X96692356Y-45429714D01*
X95894071Y-46119143D02*
X95930357Y-46155429D01*
X96039214Y-46191714D01*
X96111785Y-46191714D01*
X96220642Y-46155429D01*
X96293214Y-46082857D01*
X96329499Y-46010286D01*
X96365785Y-45865143D01*
X96365785Y-45756286D01*
X96329499Y-45611143D01*
X96293214Y-45538571D01*
X96220642Y-45466000D01*
X96111785Y-45429714D01*
X96039214Y-45429714D01*
X95930357Y-45466000D01*
X95894071Y-45502286D01*
X95603785Y-46155429D02*
X95494928Y-46191714D01*
X95313499Y-46191714D01*
X95240928Y-46155429D01*
X95204642Y-46119143D01*
X95168357Y-46046571D01*
X95168357Y-45974000D01*
X95204642Y-45901429D01*
X95240928Y-45865143D01*
X95313499Y-45828857D01*
X95458642Y-45792571D01*
X95531214Y-45756286D01*
X95567499Y-45720000D01*
X95603785Y-45647429D01*
X95603785Y-45574857D01*
X95567499Y-45502286D01*
X95531214Y-45466000D01*
X95458642Y-45429714D01*
X95277214Y-45429714D01*
X95168357Y-45466000D01*
X94841785Y-46191714D02*
X94841785Y-45429714D01*
X94551500Y-45429714D01*
X94478928Y-45466000D01*
X94442643Y-45502286D01*
X94406357Y-45574857D01*
X94406357Y-45683714D01*
X94442643Y-45756286D01*
X94478928Y-45792571D01*
X94551500Y-45828857D01*
X94841785Y-45828857D01*
X91122500Y-47625000D02*
X91122500Y-47879000D01*
X90995500Y-47498000D02*
X90995500Y-48006000D01*
X90868500Y-47371000D02*
X90868500Y-48133000D01*
X90741500Y-47244000D02*
X90741500Y-48260000D01*
X90614500Y-47117000D02*
X90614500Y-48387000D01*
X90487500Y-48514000D02*
X91249500Y-47752000D01*
X90487500Y-46990000D02*
X90487500Y-48514000D01*
X91249500Y-47752000D02*
X90487500Y-46990000D01*
X91630500Y-46482000D02*
X96710500Y-46482000D01*
X91630500Y-54102000D02*
X91630500Y-46482000D01*
X96710500Y-54102000D02*
X91630500Y-54102000D01*
X96710500Y-46482000D02*
X96710500Y-54102000D01*
X85788499Y-52414714D02*
X86151356Y-52414714D01*
X86187642Y-52777571D01*
X86151356Y-52741286D01*
X86078785Y-52705000D01*
X85897356Y-52705000D01*
X85824785Y-52741286D01*
X85788499Y-52777571D01*
X85752214Y-52850143D01*
X85752214Y-53031571D01*
X85788499Y-53104143D01*
X85824785Y-53140429D01*
X85897356Y-53176714D01*
X86078785Y-53176714D01*
X86151356Y-53140429D01*
X86187642Y-53104143D01*
X85534500Y-52414714D02*
X85280500Y-53176714D01*
X85026500Y-52414714D01*
X84627357Y-52414714D02*
X84554785Y-52414714D01*
X84482214Y-52451000D01*
X84445928Y-52487286D01*
X84409642Y-52559857D01*
X84373357Y-52705000D01*
X84373357Y-52886429D01*
X84409642Y-53031571D01*
X84445928Y-53104143D01*
X84482214Y-53140429D01*
X84554785Y-53176714D01*
X84627357Y-53176714D01*
X84699928Y-53140429D01*
X84736214Y-53104143D01*
X84772499Y-53031571D01*
X84808785Y-52886429D01*
X84808785Y-52705000D01*
X84772499Y-52559857D01*
X84736214Y-52487286D01*
X84699928Y-52451000D01*
X84627357Y-52414714D01*
X86160428Y-47334714D02*
X85688714Y-47334714D01*
X85942714Y-47625000D01*
X85833856Y-47625000D01*
X85761285Y-47661286D01*
X85724999Y-47697571D01*
X85688714Y-47770143D01*
X85688714Y-47951571D01*
X85724999Y-48024143D01*
X85761285Y-48060429D01*
X85833856Y-48096714D01*
X86051571Y-48096714D01*
X86124142Y-48060429D01*
X86160428Y-48024143D01*
X85471000Y-47334714D02*
X85217000Y-48096714D01*
X84963000Y-47334714D01*
X84781571Y-47334714D02*
X84309857Y-47334714D01*
X84563857Y-47625000D01*
X84454999Y-47625000D01*
X84382428Y-47661286D01*
X84346142Y-47697571D01*
X84309857Y-47770143D01*
X84309857Y-47951571D01*
X84346142Y-48024143D01*
X84382428Y-48060429D01*
X84454999Y-48096714D01*
X84672714Y-48096714D01*
X84745285Y-48060429D01*
X84781571Y-48024143D01*
X86069714Y-50419000D02*
X85706857Y-50419000D01*
X86142286Y-50636714D02*
X85888286Y-49874714D01*
X85634286Y-50636714D01*
X84944857Y-50636714D02*
X85198857Y-50273857D01*
X85380285Y-50636714D02*
X85380285Y-49874714D01*
X85090000Y-49874714D01*
X85017428Y-49911000D01*
X84981143Y-49947286D01*
X84944857Y-50019857D01*
X84944857Y-50128714D01*
X84981143Y-50201286D01*
X85017428Y-50237571D01*
X85090000Y-50273857D01*
X85380285Y-50273857D01*
X84618285Y-50237571D02*
X84364285Y-50237571D01*
X84255428Y-50636714D02*
X84618285Y-50636714D01*
X84618285Y-49874714D01*
X84255428Y-49874714D01*
X83674856Y-50237571D02*
X83928856Y-50237571D01*
X83928856Y-50636714D02*
X83928856Y-49874714D01*
X83565999Y-49874714D01*
X86550500Y-54102000D02*
X86550500Y-46482000D01*
X89090500Y-54102000D02*
X86550500Y-54102000D01*
X89090500Y-46482000D02*
X89090500Y-54102000D01*
X86550500Y-46482000D02*
X89090500Y-46482000D01*
X47806428Y-58365571D02*
X47552428Y-58365571D01*
X47443571Y-58764714D02*
X47806428Y-58764714D01*
X47806428Y-58002714D01*
X47443571Y-58002714D01*
X47189571Y-58002714D02*
X46681571Y-58764714D01*
X46681571Y-58002714D02*
X47189571Y-58764714D01*
X46500143Y-58002714D02*
X46064714Y-58002714D01*
X46282428Y-58764714D02*
X46282428Y-58002714D01*
X49339500Y-58991500D02*
X49339500Y-59182000D01*
X44577000Y-58991500D02*
X49339500Y-58991500D01*
X44577000Y-59182000D02*
X44577000Y-58991500D01*
X48767999Y-59272714D02*
X49130856Y-59272714D01*
X49167142Y-59635571D01*
X49130856Y-59599286D01*
X49058285Y-59563000D01*
X48876856Y-59563000D01*
X48804285Y-59599286D01*
X48767999Y-59635571D01*
X48731714Y-59708143D01*
X48731714Y-59889571D01*
X48767999Y-59962143D01*
X48804285Y-59998429D01*
X48876856Y-60034714D01*
X49058285Y-60034714D01*
X49130856Y-59998429D01*
X49167142Y-59962143D01*
X48514000Y-59272714D02*
X48260000Y-60034714D01*
X48006000Y-59272714D01*
X47606857Y-59272714D02*
X47534285Y-59272714D01*
X47461714Y-59309000D01*
X47425428Y-59345286D01*
X47389142Y-59417857D01*
X47352857Y-59563000D01*
X47352857Y-59744429D01*
X47389142Y-59889571D01*
X47425428Y-59962143D01*
X47461714Y-59998429D01*
X47534285Y-60034714D01*
X47606857Y-60034714D01*
X47679428Y-59998429D01*
X47715714Y-59962143D01*
X47751999Y-59889571D01*
X47788285Y-59744429D01*
X47788285Y-59563000D01*
X47751999Y-59417857D01*
X47715714Y-59345286D01*
X47679428Y-59309000D01*
X47606857Y-59272714D01*
X46300572Y-59309000D02*
X46373143Y-59272714D01*
X46482000Y-59272714D01*
X46590857Y-59309000D01*
X46663429Y-59381571D01*
X46699714Y-59454143D01*
X46736000Y-59599286D01*
X46736000Y-59708143D01*
X46699714Y-59853286D01*
X46663429Y-59925857D01*
X46590857Y-59998429D01*
X46482000Y-60034714D01*
X46409429Y-60034714D01*
X46300572Y-59998429D01*
X46264286Y-59962143D01*
X46264286Y-59708143D01*
X46409429Y-59708143D01*
X45937714Y-60034714D02*
X45937714Y-59272714D01*
X45502286Y-60034714D01*
X45502286Y-59272714D01*
X45139428Y-60034714D02*
X45139428Y-59272714D01*
X44958000Y-59272714D01*
X44849143Y-59309000D01*
X44776571Y-59381571D01*
X44740286Y-59454143D01*
X44704000Y-59599286D01*
X44704000Y-59708143D01*
X44740286Y-59853286D01*
X44776571Y-59925857D01*
X44849143Y-59998429D01*
X44958000Y-60034714D01*
X45139428Y-60034714D01*
X106870500Y-75247500D02*
X106870500Y-79057500D01*
X104330500Y-75247500D02*
X104330500Y-79057500D01*
X101790500Y-75247500D02*
X101790500Y-79057500D01*
X99250500Y-75247500D02*
X99250500Y-79057500D01*
X96710500Y-75247500D02*
X96710500Y-79057500D01*
X94170500Y-75247500D02*
X94170500Y-79057500D01*
X91630500Y-75247500D02*
X91630500Y-79057500D01*
X106870500Y-70167500D02*
X106870500Y-72707500D01*
X91630500Y-70167500D02*
X106870500Y-70167500D01*
X91630500Y-72707500D02*
X91630500Y-70167500D01*
X106870500Y-75247500D02*
X99250500Y-75247500D01*
X106870500Y-72707500D02*
X106870500Y-75247500D01*
X99250500Y-72707500D02*
X106870500Y-72707500D01*
X99250500Y-75247500D02*
X99250500Y-72707500D01*
X91630500Y-75247500D02*
X99250500Y-75247500D01*
X91630500Y-72707500D02*
X91630500Y-75247500D01*
X99250500Y-72707500D02*
X91630500Y-72707500D01*
X105727500Y-77751215D02*
X105727500Y-78114072D01*
X105945214Y-77678643D02*
X105183214Y-77932643D01*
X105945214Y-78186643D01*
X105183214Y-78803501D02*
X105183214Y-78440644D01*
X105546071Y-78404358D01*
X105509786Y-78440644D01*
X105473500Y-78513215D01*
X105473500Y-78694644D01*
X105509786Y-78767215D01*
X105546071Y-78803501D01*
X105618643Y-78839786D01*
X105800071Y-78839786D01*
X105872643Y-78803501D01*
X105908929Y-78767215D01*
X105945214Y-78694644D01*
X105945214Y-78513215D01*
X105908929Y-78440644D01*
X105872643Y-78404358D01*
X103187500Y-77751215D02*
X103187500Y-78114072D01*
X103405214Y-77678643D02*
X102643214Y-77932643D01*
X103405214Y-78186643D01*
X102897214Y-78767215D02*
X103405214Y-78767215D01*
X102606929Y-78585786D02*
X103151214Y-78404358D01*
X103151214Y-78876072D01*
X100647500Y-77751215D02*
X100647500Y-78114072D01*
X100865214Y-77678643D02*
X100103214Y-77932643D01*
X100865214Y-78186643D01*
X100103214Y-78368072D02*
X100103214Y-78839786D01*
X100393500Y-78585786D01*
X100393500Y-78694644D01*
X100429786Y-78767215D01*
X100466071Y-78803501D01*
X100538643Y-78839786D01*
X100720071Y-78839786D01*
X100792643Y-78803501D01*
X100828929Y-78767215D01*
X100865214Y-78694644D01*
X100865214Y-78476929D01*
X100828929Y-78404358D01*
X100792643Y-78368072D01*
X98107500Y-77751215D02*
X98107500Y-78114072D01*
X98325214Y-77678643D02*
X97563214Y-77932643D01*
X98325214Y-78186643D01*
X97635786Y-78404358D02*
X97599500Y-78440644D01*
X97563214Y-78513215D01*
X97563214Y-78694644D01*
X97599500Y-78767215D01*
X97635786Y-78803501D01*
X97708357Y-78839786D01*
X97780929Y-78839786D01*
X97889786Y-78803501D01*
X98325214Y-78368072D01*
X98325214Y-78839786D01*
X95567500Y-77751215D02*
X95567500Y-78114072D01*
X95785214Y-77678643D02*
X95023214Y-77932643D01*
X95785214Y-78186643D01*
X95785214Y-78839786D02*
X95785214Y-78404358D01*
X95785214Y-78622072D02*
X95023214Y-78622072D01*
X95132071Y-78549501D01*
X95204643Y-78476929D01*
X95240929Y-78404358D01*
X93027500Y-77751215D02*
X93027500Y-78114072D01*
X93245214Y-77678643D02*
X92483214Y-77932643D01*
X93245214Y-78186643D01*
X92483214Y-78585786D02*
X92483214Y-78658358D01*
X92519500Y-78730929D01*
X92555786Y-78767215D01*
X92628357Y-78803501D01*
X92773500Y-78839786D01*
X92954929Y-78839786D01*
X93100071Y-78803501D01*
X93172643Y-78767215D01*
X93208929Y-78730929D01*
X93245214Y-78658358D01*
X93245214Y-78585786D01*
X93208929Y-78513215D01*
X93172643Y-78476929D01*
X93100071Y-78440644D01*
X92954929Y-78404358D01*
X92773500Y-78404358D01*
X92628357Y-78440644D01*
X92555786Y-78476929D01*
X92519500Y-78513215D01*
X92483214Y-78585786D01*
X89344500Y-78359000D02*
X90360500Y-78359000D01*
X89344500Y-70167500D02*
X89344500Y-78359000D01*
X90360500Y-70167500D02*
X89344500Y-70167500D01*
X68770500Y-74930000D02*
X89090500Y-74930000D01*
X68770500Y-78105000D02*
X68770500Y-74930000D01*
X89090500Y-78105000D02*
X68770500Y-78105000D01*
X89090500Y-74930000D02*
X89090500Y-78105000D01*
X87403214Y-72879857D02*
X88165214Y-73133857D01*
X87403214Y-73387857D01*
X88165214Y-73641858D02*
X87657214Y-73641858D01*
X87403214Y-73641858D02*
X87439500Y-73605572D01*
X87475786Y-73641858D01*
X87439500Y-73678143D01*
X87403214Y-73641858D01*
X87475786Y-73641858D01*
X87657214Y-74004715D02*
X88165214Y-74004715D01*
X87729786Y-74004715D02*
X87693500Y-74041000D01*
X87657214Y-74113572D01*
X87657214Y-74222429D01*
X87693500Y-74295000D01*
X87766071Y-74331286D01*
X88165214Y-74331286D01*
X84899500Y-72761928D02*
X84863214Y-72689357D01*
X84863214Y-72580500D01*
X84899500Y-72471643D01*
X84972071Y-72399071D01*
X85044643Y-72362786D01*
X85189786Y-72326500D01*
X85298643Y-72326500D01*
X85443786Y-72362786D01*
X85516357Y-72399071D01*
X85588929Y-72471643D01*
X85625214Y-72580500D01*
X85625214Y-72653071D01*
X85588929Y-72761928D01*
X85552643Y-72798214D01*
X85298643Y-72798214D01*
X85298643Y-72653071D01*
X85625214Y-73124786D02*
X84863214Y-73124786D01*
X85625214Y-73560214D01*
X84863214Y-73560214D01*
X85625214Y-73923072D02*
X84863214Y-73923072D01*
X84863214Y-74104500D01*
X84899500Y-74213357D01*
X84972071Y-74285929D01*
X85044643Y-74322214D01*
X85189786Y-74358500D01*
X85298643Y-74358500D01*
X85443786Y-74322214D01*
X85516357Y-74285929D01*
X85588929Y-74213357D01*
X85625214Y-74104500D01*
X85625214Y-73923072D01*
X82359500Y-72761928D02*
X82323214Y-72689357D01*
X82323214Y-72580500D01*
X82359500Y-72471643D01*
X82432071Y-72399071D01*
X82504643Y-72362786D01*
X82649786Y-72326500D01*
X82758643Y-72326500D01*
X82903786Y-72362786D01*
X82976357Y-72399071D01*
X83048929Y-72471643D01*
X83085214Y-72580500D01*
X83085214Y-72653071D01*
X83048929Y-72761928D01*
X83012643Y-72798214D01*
X82758643Y-72798214D01*
X82758643Y-72653071D01*
X83085214Y-73124786D02*
X82323214Y-73124786D01*
X83085214Y-73560214D01*
X82323214Y-73560214D01*
X83085214Y-73923072D02*
X82323214Y-73923072D01*
X82323214Y-74104500D01*
X82359500Y-74213357D01*
X82432071Y-74285929D01*
X82504643Y-74322214D01*
X82649786Y-74358500D01*
X82758643Y-74358500D01*
X82903786Y-74322214D01*
X82976357Y-74285929D01*
X83048929Y-74213357D01*
X83085214Y-74104500D01*
X83085214Y-73923072D01*
X79783214Y-72898001D02*
X79783214Y-72535144D01*
X80146071Y-72498858D01*
X80109786Y-72535144D01*
X80073500Y-72607715D01*
X80073500Y-72789144D01*
X80109786Y-72861715D01*
X80146071Y-72898001D01*
X80218643Y-72934286D01*
X80400071Y-72934286D01*
X80472643Y-72898001D01*
X80508929Y-72861715D01*
X80545214Y-72789144D01*
X80545214Y-72607715D01*
X80508929Y-72535144D01*
X80472643Y-72498858D01*
X79783214Y-73152000D02*
X80545214Y-73406000D01*
X79783214Y-73660000D01*
X79783214Y-74059143D02*
X79783214Y-74131715D01*
X79819500Y-74204286D01*
X79855786Y-74240572D01*
X79928357Y-74276858D01*
X80073500Y-74313143D01*
X80254929Y-74313143D01*
X80400071Y-74276858D01*
X80472643Y-74240572D01*
X80508929Y-74204286D01*
X80545214Y-74131715D01*
X80545214Y-74059143D01*
X80508929Y-73986572D01*
X80472643Y-73950286D01*
X80400071Y-73914001D01*
X80254929Y-73877715D01*
X80073500Y-73877715D01*
X79928357Y-73914001D01*
X79855786Y-73950286D01*
X79819500Y-73986572D01*
X79783214Y-74059143D01*
X77243214Y-72462572D02*
X77243214Y-72934286D01*
X77533500Y-72680286D01*
X77533500Y-72789144D01*
X77569786Y-72861715D01*
X77606071Y-72898001D01*
X77678643Y-72934286D01*
X77860071Y-72934286D01*
X77932643Y-72898001D01*
X77968929Y-72861715D01*
X78005214Y-72789144D01*
X78005214Y-72571429D01*
X77968929Y-72498858D01*
X77932643Y-72462572D01*
X77243214Y-73152000D02*
X78005214Y-73406000D01*
X77243214Y-73660000D01*
X77243214Y-73841429D02*
X77243214Y-74313143D01*
X77533500Y-74059143D01*
X77533500Y-74168001D01*
X77569786Y-74240572D01*
X77606071Y-74276858D01*
X77678643Y-74313143D01*
X77860071Y-74313143D01*
X77932643Y-74276858D01*
X77968929Y-74240572D01*
X78005214Y-74168001D01*
X78005214Y-73950286D01*
X77968929Y-73877715D01*
X77932643Y-73841429D01*
X75465214Y-72988715D02*
X75102357Y-72734715D01*
X75465214Y-72553287D02*
X74703214Y-72553287D01*
X74703214Y-72843572D01*
X74739500Y-72916144D01*
X74775786Y-72952429D01*
X74848357Y-72988715D01*
X74957214Y-72988715D01*
X75029786Y-72952429D01*
X75066071Y-72916144D01*
X75102357Y-72843572D01*
X75102357Y-72553287D01*
X75428929Y-73279001D02*
X75465214Y-73387858D01*
X75465214Y-73569287D01*
X75428929Y-73641858D01*
X75392643Y-73678144D01*
X75320071Y-73714429D01*
X75247500Y-73714429D01*
X75174929Y-73678144D01*
X75138643Y-73641858D01*
X75102357Y-73569287D01*
X75066071Y-73424144D01*
X75029786Y-73351572D01*
X74993500Y-73315287D01*
X74920929Y-73279001D01*
X74848357Y-73279001D01*
X74775786Y-73315287D01*
X74739500Y-73351572D01*
X74703214Y-73424144D01*
X74703214Y-73605572D01*
X74739500Y-73714429D01*
X74703214Y-73932143D02*
X74703214Y-74367572D01*
X75465214Y-74149858D02*
X74703214Y-74149858D01*
X72163214Y-72898001D02*
X72163214Y-72535144D01*
X72526071Y-72498858D01*
X72489786Y-72535144D01*
X72453500Y-72607715D01*
X72453500Y-72789144D01*
X72489786Y-72861715D01*
X72526071Y-72898001D01*
X72598643Y-72934286D01*
X72780071Y-72934286D01*
X72852643Y-72898001D01*
X72888929Y-72861715D01*
X72925214Y-72789144D01*
X72925214Y-72607715D01*
X72888929Y-72535144D01*
X72852643Y-72498858D01*
X72163214Y-73152000D02*
X72925214Y-73406000D01*
X72163214Y-73660000D01*
X72163214Y-74059143D02*
X72163214Y-74131715D01*
X72199500Y-74204286D01*
X72235786Y-74240572D01*
X72308357Y-74276858D01*
X72453500Y-74313143D01*
X72634929Y-74313143D01*
X72780071Y-74276858D01*
X72852643Y-74240572D01*
X72888929Y-74204286D01*
X72925214Y-74131715D01*
X72925214Y-74059143D01*
X72888929Y-73986572D01*
X72852643Y-73950286D01*
X72780071Y-73914001D01*
X72634929Y-73877715D01*
X72453500Y-73877715D01*
X72308357Y-73914001D01*
X72235786Y-73950286D01*
X72199500Y-73986572D01*
X72163214Y-74059143D01*
X70385214Y-73124786D02*
X69623214Y-73124786D01*
X70385214Y-73560214D01*
X69623214Y-73560214D01*
X70312643Y-74358500D02*
X70348929Y-74322214D01*
X70385214Y-74213357D01*
X70385214Y-74140786D01*
X70348929Y-74031929D01*
X70276357Y-73959357D01*
X70203786Y-73923072D01*
X70058643Y-73886786D01*
X69949786Y-73886786D01*
X69804643Y-73923072D01*
X69732071Y-73959357D01*
X69659500Y-74031929D01*
X69623214Y-74140786D01*
X69623214Y-74213357D01*
X69659500Y-74322214D01*
X69695786Y-74358500D01*
X107151714Y-73533001D02*
X107151714Y-73170144D01*
X107514571Y-73133858D01*
X107478286Y-73170144D01*
X107442000Y-73242715D01*
X107442000Y-73424144D01*
X107478286Y-73496715D01*
X107514571Y-73533001D01*
X107587143Y-73569286D01*
X107768571Y-73569286D01*
X107841143Y-73533001D01*
X107877429Y-73496715D01*
X107913714Y-73424144D01*
X107913714Y-73242715D01*
X107877429Y-73170144D01*
X107841143Y-73133858D01*
X107151714Y-73787000D02*
X107913714Y-74041000D01*
X107151714Y-74295000D01*
X107151714Y-74694143D02*
X107151714Y-74766715D01*
X107188000Y-74839286D01*
X107224286Y-74875572D01*
X107296857Y-74911858D01*
X107442000Y-74948143D01*
X107623429Y-74948143D01*
X107768571Y-74911858D01*
X107841143Y-74875572D01*
X107877429Y-74839286D01*
X107913714Y-74766715D01*
X107913714Y-74694143D01*
X107877429Y-74621572D01*
X107841143Y-74585286D01*
X107768571Y-74549001D01*
X107623429Y-74512715D01*
X107442000Y-74512715D01*
X107296857Y-74549001D01*
X107224286Y-74585286D01*
X107188000Y-74621572D01*
X107151714Y-74694143D01*
X90678000Y-70856928D02*
X90641714Y-70784357D01*
X90641714Y-70675500D01*
X90678000Y-70566643D01*
X90750571Y-70494071D01*
X90823143Y-70457786D01*
X90968286Y-70421500D01*
X91077143Y-70421500D01*
X91222286Y-70457786D01*
X91294857Y-70494071D01*
X91367429Y-70566643D01*
X91403714Y-70675500D01*
X91403714Y-70748071D01*
X91367429Y-70856928D01*
X91331143Y-70893214D01*
X91077143Y-70893214D01*
X91077143Y-70748071D01*
X91403714Y-71219786D02*
X90641714Y-71219786D01*
X91403714Y-71655214D01*
X90641714Y-71655214D01*
X91403714Y-72018072D02*
X90641714Y-72018072D01*
X90641714Y-72199500D01*
X90678000Y-72308357D01*
X90750571Y-72380929D01*
X90823143Y-72417214D01*
X90968286Y-72453500D01*
X91077143Y-72453500D01*
X91222286Y-72417214D01*
X91294857Y-72380929D01*
X91367429Y-72308357D01*
X91403714Y-72199500D01*
X91403714Y-72018072D01*
X90641714Y-73097572D02*
X90641714Y-73569286D01*
X90932000Y-73315286D01*
X90932000Y-73424144D01*
X90968286Y-73496715D01*
X91004571Y-73533001D01*
X91077143Y-73569286D01*
X91258571Y-73569286D01*
X91331143Y-73533001D01*
X91367429Y-73496715D01*
X91403714Y-73424144D01*
X91403714Y-73206429D01*
X91367429Y-73133858D01*
X91331143Y-73097572D01*
X90641714Y-73787000D02*
X91403714Y-74041000D01*
X90641714Y-74295000D01*
X90641714Y-74476429D02*
X90641714Y-74948143D01*
X90932000Y-74694143D01*
X90932000Y-74803001D01*
X90968286Y-74875572D01*
X91004571Y-74911858D01*
X91077143Y-74948143D01*
X91258571Y-74948143D01*
X91331143Y-74911858D01*
X91367429Y-74875572D01*
X91403714Y-74803001D01*
X91403714Y-74585286D01*
X91367429Y-74512715D01*
X91331143Y-74476429D01*
X90170000Y-72045286D02*
X90170000Y-72408143D01*
X90387714Y-71972714D02*
X89625714Y-72226714D01*
X90387714Y-72480714D01*
X90387714Y-72734715D02*
X89625714Y-72734715D01*
X90387714Y-73170143D01*
X89625714Y-73170143D01*
X90170000Y-73496715D02*
X90170000Y-73859572D01*
X90387714Y-73424143D02*
X89625714Y-73678143D01*
X90387714Y-73932143D01*
X90387714Y-74549001D02*
X90387714Y-74186144D01*
X89625714Y-74186144D01*
X89625714Y-74948143D02*
X89625714Y-75093286D01*
X89662000Y-75165858D01*
X89734571Y-75238429D01*
X89879714Y-75274715D01*
X90133714Y-75274715D01*
X90278857Y-75238429D01*
X90351429Y-75165858D01*
X90387714Y-75093286D01*
X90387714Y-74948143D01*
X90351429Y-74875572D01*
X90278857Y-74803001D01*
X90133714Y-74766715D01*
X89879714Y-74766715D01*
X89734571Y-74803001D01*
X89662000Y-74875572D01*
X89625714Y-74948143D01*
X89662000Y-76000429D02*
X89625714Y-75927858D01*
X89625714Y-75819001D01*
X89662000Y-75710144D01*
X89734571Y-75637572D01*
X89807143Y-75601287D01*
X89952286Y-75565001D01*
X90061143Y-75565001D01*
X90206286Y-75601287D01*
X90278857Y-75637572D01*
X90351429Y-75710144D01*
X90387714Y-75819001D01*
X90387714Y-75891572D01*
X90351429Y-76000429D01*
X90315143Y-76036715D01*
X90061143Y-76036715D01*
X90061143Y-75891572D01*
X68543714Y-74694143D02*
X67781714Y-74694143D01*
X67781714Y-74984428D01*
X67818000Y-75057000D01*
X67854286Y-75093285D01*
X67926857Y-75129571D01*
X68035714Y-75129571D01*
X68108286Y-75093285D01*
X68144571Y-75057000D01*
X68180857Y-74984428D01*
X68180857Y-74694143D01*
X67781714Y-75601285D02*
X67781714Y-75746428D01*
X67818000Y-75819000D01*
X67890571Y-75891571D01*
X68035714Y-75927857D01*
X68289714Y-75927857D01*
X68434857Y-75891571D01*
X68507429Y-75819000D01*
X68543714Y-75746428D01*
X68543714Y-75601285D01*
X68507429Y-75528714D01*
X68434857Y-75456143D01*
X68289714Y-75419857D01*
X68035714Y-75419857D01*
X67890571Y-75456143D01*
X67818000Y-75528714D01*
X67781714Y-75601285D01*
X67781714Y-76181857D02*
X68543714Y-76363286D01*
X67999429Y-76508429D01*
X68543714Y-76653571D01*
X67781714Y-76835000D01*
X68144571Y-77125286D02*
X68144571Y-77379286D01*
X68543714Y-77488143D02*
X68543714Y-77125286D01*
X67781714Y-77125286D01*
X67781714Y-77488143D01*
X68543714Y-78250143D02*
X68180857Y-77996143D01*
X68543714Y-77814715D02*
X67781714Y-77814715D01*
X67781714Y-78105000D01*
X67818000Y-78177572D01*
X67854286Y-78213857D01*
X67926857Y-78250143D01*
X68035714Y-78250143D01*
X68108286Y-78213857D01*
X68144571Y-78177572D01*
X68180857Y-78105000D01*
X68180857Y-77814715D01*
X52768500Y-80645000D02*
X52070000Y-80645000D01*
X52768500Y-75311000D02*
X52768500Y-80645000D01*
X52768500Y-65405000D02*
X52133500Y-65405000D01*
X52768500Y-70739000D02*
X52768500Y-65405000D01*
X53076929Y-70993000D02*
X53113214Y-71101857D01*
X53113214Y-71283286D01*
X53076929Y-71355857D01*
X53040643Y-71392143D01*
X52968071Y-71428428D01*
X52895500Y-71428428D01*
X52822929Y-71392143D01*
X52786643Y-71355857D01*
X52750357Y-71283286D01*
X52714071Y-71138143D01*
X52677786Y-71065571D01*
X52641500Y-71029286D01*
X52568929Y-70993000D01*
X52496357Y-70993000D01*
X52423786Y-71029286D01*
X52387500Y-71065571D01*
X52351214Y-71138143D01*
X52351214Y-71319571D01*
X52387500Y-71428428D01*
X52714071Y-71755000D02*
X52714071Y-72009000D01*
X53113214Y-72117857D02*
X53113214Y-71755000D01*
X52351214Y-71755000D01*
X52351214Y-72117857D01*
X53113214Y-72879857D02*
X52750357Y-72625857D01*
X53113214Y-72444429D02*
X52351214Y-72444429D01*
X52351214Y-72734714D01*
X52387500Y-72807286D01*
X52423786Y-72843571D01*
X52496357Y-72879857D01*
X52605214Y-72879857D01*
X52677786Y-72843571D01*
X52714071Y-72807286D01*
X52750357Y-72734714D01*
X52750357Y-72444429D01*
X52351214Y-73097571D02*
X53113214Y-73351571D01*
X52351214Y-73605571D01*
X52351214Y-74004714D02*
X52351214Y-74149857D01*
X52387500Y-74222429D01*
X52460071Y-74295000D01*
X52605214Y-74331286D01*
X52859214Y-74331286D01*
X53004357Y-74295000D01*
X53076929Y-74222429D01*
X53113214Y-74149857D01*
X53113214Y-74004714D01*
X53076929Y-73932143D01*
X53004357Y-73859572D01*
X52859214Y-73823286D01*
X52605214Y-73823286D01*
X52460071Y-73859572D01*
X52387500Y-73932143D01*
X52351214Y-74004714D01*
X53076929Y-74621572D02*
X53113214Y-74730429D01*
X53113214Y-74911858D01*
X53076929Y-74984429D01*
X53040643Y-75020715D01*
X52968071Y-75057000D01*
X52895500Y-75057000D01*
X52822929Y-75020715D01*
X52786643Y-74984429D01*
X52750357Y-74911858D01*
X52714071Y-74766715D01*
X52677786Y-74694143D01*
X52641500Y-74657858D01*
X52568929Y-74621572D01*
X52496357Y-74621572D01*
X52423786Y-74657858D01*
X52387500Y-74694143D01*
X52351214Y-74766715D01*
X52351214Y-74948143D01*
X52387500Y-75057000D01*
X47180500Y-65214500D02*
X47180500Y-60515500D01*
X49339500Y-65214500D02*
X47180500Y-65214500D01*
X49339500Y-60515500D02*
X49339500Y-65214500D01*
X47180500Y-60515500D02*
X49339500Y-60515500D01*
X44640500Y-65214500D02*
X44640500Y-60515500D01*
X46799500Y-65214500D02*
X44640500Y-65214500D01*
X46799500Y-60515500D02*
X46799500Y-65214500D01*
X44640500Y-60515500D02*
X46799500Y-60515500D01*
X44640500Y-65595500D02*
X44640500Y-67754500D01*
X51879500Y-65595500D02*
X44640500Y-65595500D01*
X51879500Y-67754500D02*
X51879500Y-65595500D01*
X44640500Y-67754500D02*
X51879500Y-67754500D01*
X44640500Y-68135500D02*
X44640500Y-70294500D01*
X51879500Y-68135500D02*
X44640500Y-68135500D01*
X51879500Y-70294500D02*
X51879500Y-68135500D01*
X44640500Y-70294500D02*
X51879500Y-70294500D01*
X44640500Y-70675500D02*
X44640500Y-72834500D01*
X51879500Y-70675500D02*
X44640500Y-70675500D01*
X51879500Y-72834500D02*
X51879500Y-70675500D01*
X44640500Y-72834500D02*
X51879500Y-72834500D01*
X44640500Y-73215500D02*
X44640500Y-75374500D01*
X51879500Y-73215500D02*
X44640500Y-73215500D01*
X51879500Y-75374500D02*
X51879500Y-73215500D01*
X44640500Y-75374500D02*
X51879500Y-75374500D01*
X44640500Y-75755500D02*
X44640500Y-77914500D01*
X51879500Y-75755500D02*
X44640500Y-75755500D01*
X51879500Y-77914500D02*
X51879500Y-75755500D01*
X44640500Y-77914500D02*
X51879500Y-77914500D01*
X51879500Y-78295500D02*
X51879500Y-80454500D01*
X51879500Y-78295500D02*
X44640500Y-78295500D01*
X44640500Y-80454500D02*
X51879500Y-80454500D01*
X44640500Y-78295500D02*
X44640500Y-80454500D01*
X110490000Y-81280000D02*
X110490000Y-25400000D01*
D14*
X33528000Y-28956000D02*
X33528000Y-31496000D01*
X30924500Y-28956000D02*
X25908000Y-28956000D01*
X56388000Y-28956000D02*
X56388000Y-31496000D01*
X48768000Y-28956000D02*
X56388000Y-28956000D01*
X48768000Y-31496000D02*
X48768000Y-28956000D01*
X41148000Y-28956000D02*
X41148000Y-26416000D01*
X30924500Y-28956000D02*
X41148000Y-28956000D01*
X30924500Y-26416000D02*
X30924500Y-28956000D01*
X25908000Y-31496000D02*
X58928000Y-31496000D01*
X25908000Y-26416000D02*
X58928000Y-26416000D01*
D12*
X47516141Y-32666214D02*
X47516141Y-31904214D01*
X47225856Y-31904214D01*
X47153284Y-31940500D01*
X47116999Y-31976786D01*
X47080713Y-32049357D01*
X47080713Y-32158214D01*
X47116999Y-32230786D01*
X47153284Y-32267071D01*
X47225856Y-32303357D01*
X47516141Y-32303357D01*
X46354999Y-32666214D02*
X46790427Y-32666214D01*
X46572713Y-32666214D02*
X46572713Y-31904214D01*
X46645284Y-32013071D01*
X46717856Y-32085643D01*
X46790427Y-32121929D01*
X45447856Y-32593643D02*
X45411571Y-32629929D01*
X45447856Y-32666214D01*
X45484142Y-32629929D01*
X45447856Y-32593643D01*
X45447856Y-32666214D01*
X45447856Y-32194500D02*
X45411571Y-32230786D01*
X45447856Y-32267071D01*
X45484142Y-32230786D01*
X45447856Y-32194500D01*
X45447856Y-32267071D01*
X44250428Y-32267071D02*
X44141571Y-32303357D01*
X44105286Y-32339643D01*
X44069000Y-32412214D01*
X44069000Y-32521071D01*
X44105286Y-32593643D01*
X44141571Y-32629929D01*
X44214143Y-32666214D01*
X44504428Y-32666214D01*
X44504428Y-31904214D01*
X44250428Y-31904214D01*
X44177857Y-31940500D01*
X44141571Y-31976786D01*
X44105286Y-32049357D01*
X44105286Y-32121929D01*
X44141571Y-32194500D01*
X44177857Y-32230786D01*
X44250428Y-32267071D01*
X44504428Y-32267071D01*
X43307000Y-32593643D02*
X43343286Y-32629929D01*
X43452143Y-32666214D01*
X43524714Y-32666214D01*
X43633571Y-32629929D01*
X43706143Y-32557357D01*
X43742428Y-32484786D01*
X43778714Y-32339643D01*
X43778714Y-32230786D01*
X43742428Y-32085643D01*
X43706143Y-32013071D01*
X43633571Y-31940500D01*
X43524714Y-31904214D01*
X43452143Y-31904214D01*
X43343286Y-31940500D01*
X43307000Y-31976786D01*
X42980428Y-32666214D02*
X42980428Y-31904214D01*
X42726428Y-32448500D01*
X42472428Y-31904214D01*
X42472428Y-32666214D01*
X42145857Y-31976786D02*
X42109571Y-31940500D01*
X42037000Y-31904214D01*
X41855571Y-31904214D01*
X41783000Y-31940500D01*
X41746714Y-31976786D01*
X41710429Y-32049357D01*
X41710429Y-32121929D01*
X41746714Y-32230786D01*
X42182143Y-32666214D01*
X41710429Y-32666214D01*
X41275000Y-32230786D02*
X41347572Y-32194500D01*
X41383857Y-32158214D01*
X41420143Y-32085643D01*
X41420143Y-32049357D01*
X41383857Y-31976786D01*
X41347572Y-31940500D01*
X41275000Y-31904214D01*
X41129857Y-31904214D01*
X41057286Y-31940500D01*
X41021000Y-31976786D01*
X40984715Y-32049357D01*
X40984715Y-32085643D01*
X41021000Y-32158214D01*
X41057286Y-32194500D01*
X41129857Y-32230786D01*
X41275000Y-32230786D01*
X41347572Y-32267071D01*
X41383857Y-32303357D01*
X41420143Y-32375929D01*
X41420143Y-32521071D01*
X41383857Y-32593643D01*
X41347572Y-32629929D01*
X41275000Y-32666214D01*
X41129857Y-32666214D01*
X41057286Y-32629929D01*
X41021000Y-32593643D01*
X40984715Y-32521071D01*
X40984715Y-32375929D01*
X41021000Y-32303357D01*
X41057286Y-32267071D01*
X41129857Y-32230786D01*
X40730715Y-31904214D02*
X40259001Y-31904214D01*
X40513001Y-32194500D01*
X40404143Y-32194500D01*
X40331572Y-32230786D01*
X40295286Y-32267071D01*
X40259001Y-32339643D01*
X40259001Y-32521071D01*
X40295286Y-32593643D01*
X40331572Y-32629929D01*
X40404143Y-32666214D01*
X40621858Y-32666214D01*
X40694429Y-32629929D01*
X40730715Y-32593643D01*
X39569572Y-31904214D02*
X39932429Y-31904214D01*
X39968715Y-32267071D01*
X39932429Y-32230786D01*
X39859858Y-32194500D01*
X39678429Y-32194500D01*
X39605858Y-32230786D01*
X39569572Y-32267071D01*
X39533287Y-32339643D01*
X39533287Y-32521071D01*
X39569572Y-32593643D01*
X39605858Y-32629929D01*
X39678429Y-32666214D01*
X39859858Y-32666214D01*
X39932429Y-32629929D01*
X39968715Y-32593643D01*
X39388144Y-32738786D02*
X38807573Y-32738786D01*
X38227002Y-31940500D02*
X38299573Y-31904214D01*
X38408430Y-31904214D01*
X38517287Y-31940500D01*
X38589859Y-32013071D01*
X38626144Y-32085643D01*
X38662430Y-32230786D01*
X38662430Y-32339643D01*
X38626144Y-32484786D01*
X38589859Y-32557357D01*
X38517287Y-32629929D01*
X38408430Y-32666214D01*
X38335859Y-32666214D01*
X38227002Y-32629929D01*
X38190716Y-32593643D01*
X38190716Y-32339643D01*
X38335859Y-32339643D01*
X37864144Y-32666214D02*
X37864144Y-31904214D01*
X37573859Y-31904214D01*
X37501287Y-31940500D01*
X37465002Y-31976786D01*
X37428716Y-32049357D01*
X37428716Y-32158214D01*
X37465002Y-32230786D01*
X37501287Y-32267071D01*
X37573859Y-32303357D01*
X37864144Y-32303357D01*
X37102144Y-32666214D02*
X37102144Y-31904214D01*
X36594145Y-31904214D02*
X36449002Y-31904214D01*
X36376430Y-31940500D01*
X36303859Y-32013071D01*
X36267573Y-32158214D01*
X36267573Y-32412214D01*
X36303859Y-32557357D01*
X36376430Y-32629929D01*
X36449002Y-32666214D01*
X36594145Y-32666214D01*
X36666716Y-32629929D01*
X36739287Y-32557357D01*
X36775573Y-32412214D01*
X36775573Y-32158214D01*
X36739287Y-32013071D01*
X36666716Y-31940500D01*
X36594145Y-31904214D01*
D14*
X25908000Y-31496000D02*
X25908000Y-26416000D01*
X58928000Y-26416000D02*
X58928000Y-31496000D01*
D13*
X40289238Y-26195262D02*
X40500905Y-25892881D01*
X40652096Y-26195262D02*
X40652096Y-25560262D01*
X40410191Y-25560262D01*
X40349715Y-25590500D01*
X40319476Y-25620738D01*
X40289238Y-25681214D01*
X40289238Y-25771929D01*
X40319476Y-25832405D01*
X40349715Y-25862643D01*
X40410191Y-25892881D01*
X40652096Y-25892881D01*
X40047334Y-26165024D02*
X39956619Y-26195262D01*
X39805429Y-26195262D01*
X39744953Y-26165024D01*
X39714715Y-26134786D01*
X39684476Y-26074310D01*
X39684476Y-26013833D01*
X39714715Y-25953357D01*
X39744953Y-25923119D01*
X39805429Y-25892881D01*
X39926381Y-25862643D01*
X39986857Y-25832405D01*
X40017096Y-25802167D01*
X40047334Y-25741690D01*
X40047334Y-25681214D01*
X40017096Y-25620738D01*
X39986857Y-25590500D01*
X39926381Y-25560262D01*
X39775191Y-25560262D01*
X39684476Y-25590500D01*
X39503048Y-25560262D02*
X39140191Y-25560262D01*
X39321619Y-26195262D02*
X39321619Y-25560262D01*
X55934429Y-32515024D02*
X55843714Y-32545262D01*
X55692524Y-32545262D01*
X55632048Y-32515024D01*
X55601810Y-32484786D01*
X55571571Y-32424310D01*
X55571571Y-32363833D01*
X55601810Y-32303357D01*
X55632048Y-32273119D01*
X55692524Y-32242881D01*
X55813476Y-32212643D01*
X55873952Y-32182405D01*
X55904191Y-32152167D01*
X55934429Y-32091690D01*
X55934429Y-32031214D01*
X55904191Y-31970738D01*
X55873952Y-31940500D01*
X55813476Y-31910262D01*
X55662286Y-31910262D01*
X55571571Y-31940500D01*
X54936571Y-32484786D02*
X54966809Y-32515024D01*
X55057524Y-32545262D01*
X55118000Y-32545262D01*
X55208714Y-32515024D01*
X55269190Y-32454548D01*
X55299429Y-32394071D01*
X55329667Y-32273119D01*
X55329667Y-32182405D01*
X55299429Y-32061452D01*
X55269190Y-32000976D01*
X55208714Y-31940500D01*
X55118000Y-31910262D01*
X55057524Y-31910262D01*
X54966809Y-31940500D01*
X54936571Y-31970738D01*
X54664429Y-32545262D02*
X54664429Y-31910262D01*
X54301571Y-32545262D02*
X54573714Y-32182405D01*
X54301571Y-31910262D02*
X54664429Y-32273119D01*
X53575857Y-32545262D02*
X53575857Y-31910262D01*
X53364190Y-32363833D01*
X53152523Y-31910262D01*
X53152523Y-32545262D01*
X52850143Y-32545262D02*
X52850143Y-31910262D01*
X52578000Y-32515024D02*
X52487285Y-32545262D01*
X52336095Y-32545262D01*
X52275619Y-32515024D01*
X52245381Y-32484786D01*
X52215142Y-32424310D01*
X52215142Y-32363833D01*
X52245381Y-32303357D01*
X52275619Y-32273119D01*
X52336095Y-32242881D01*
X52457047Y-32212643D01*
X52517523Y-32182405D01*
X52547762Y-32152167D01*
X52578000Y-32091690D01*
X52578000Y-32031214D01*
X52547762Y-31970738D01*
X52517523Y-31940500D01*
X52457047Y-31910262D01*
X52305857Y-31910262D01*
X52215142Y-31940500D01*
X51822047Y-31910262D02*
X51701095Y-31910262D01*
X51640619Y-31940500D01*
X51580142Y-32000976D01*
X51549904Y-32121929D01*
X51549904Y-32333595D01*
X51580142Y-32454548D01*
X51640619Y-32515024D01*
X51701095Y-32545262D01*
X51822047Y-32545262D01*
X51882523Y-32515024D01*
X51943000Y-32454548D01*
X51973238Y-32333595D01*
X51973238Y-32121929D01*
X51943000Y-32000976D01*
X51882523Y-31940500D01*
X51822047Y-31910262D01*
X51035857Y-32545262D02*
X51035857Y-31910262D01*
X50824190Y-32363833D01*
X50612523Y-31910262D01*
X50612523Y-32545262D01*
X50189190Y-31910262D02*
X50068238Y-31910262D01*
X50007762Y-31940500D01*
X49947285Y-32000976D01*
X49917047Y-32121929D01*
X49917047Y-32333595D01*
X49947285Y-32454548D01*
X50007762Y-32515024D01*
X50068238Y-32545262D01*
X50189190Y-32545262D01*
X50249666Y-32515024D01*
X50310143Y-32454548D01*
X50340381Y-32333595D01*
X50340381Y-32121929D01*
X50310143Y-32000976D01*
X50249666Y-31940500D01*
X50189190Y-31910262D01*
X49675143Y-32515024D02*
X49584428Y-32545262D01*
X49433238Y-32545262D01*
X49372762Y-32515024D01*
X49342524Y-32484786D01*
X49312285Y-32424310D01*
X49312285Y-32363833D01*
X49342524Y-32303357D01*
X49372762Y-32273119D01*
X49433238Y-32242881D01*
X49554190Y-32212643D01*
X49614666Y-32182405D01*
X49644905Y-32152167D01*
X49675143Y-32091690D01*
X49675143Y-32031214D01*
X49644905Y-31970738D01*
X49614666Y-31940500D01*
X49554190Y-31910262D01*
X49403000Y-31910262D01*
X49312285Y-31940500D01*
X49040143Y-32545262D02*
X49040143Y-31910262D01*
X37507333Y-26195262D02*
X37719000Y-25892881D01*
X37870191Y-26195262D02*
X37870191Y-25560262D01*
X37628286Y-25560262D01*
X37567810Y-25590500D01*
X37537571Y-25620738D01*
X37507333Y-25681214D01*
X37507333Y-25771929D01*
X37537571Y-25832405D01*
X37567810Y-25862643D01*
X37628286Y-25892881D01*
X37870191Y-25892881D01*
X37295667Y-25560262D02*
X36872333Y-26195262D01*
X36872333Y-25560262D02*
X37295667Y-26195262D01*
X35281810Y-25560262D02*
X34918953Y-25560262D01*
X35100381Y-26195262D02*
X35100381Y-25560262D01*
X34767762Y-25560262D02*
X34344428Y-26195262D01*
X34344428Y-25560262D02*
X34767762Y-26195262D01*
X32741809Y-25590500D02*
X32802286Y-25560262D01*
X32893000Y-25560262D01*
X32983714Y-25590500D01*
X33044190Y-25650976D01*
X33074429Y-25711452D01*
X33104667Y-25832405D01*
X33104667Y-25923119D01*
X33074429Y-26044071D01*
X33044190Y-26104548D01*
X32983714Y-26165024D01*
X32893000Y-26195262D01*
X32832524Y-26195262D01*
X32741809Y-26165024D01*
X32711571Y-26134786D01*
X32711571Y-25923119D01*
X32832524Y-25923119D01*
X32439429Y-26195262D02*
X32439429Y-25560262D01*
X32076571Y-26195262D01*
X32076571Y-25560262D01*
X31774191Y-26195262D02*
X31774191Y-25560262D01*
X31623000Y-25560262D01*
X31532286Y-25590500D01*
X31471810Y-25650976D01*
X31441571Y-25711452D01*
X31411333Y-25832405D01*
X31411333Y-25923119D01*
X31441571Y-26044071D01*
X31471810Y-26104548D01*
X31532286Y-26165024D01*
X31623000Y-26195262D01*
X31774191Y-26195262D01*
X33013953Y-32388024D02*
X32923238Y-32418262D01*
X32772048Y-32418262D01*
X32711572Y-32388024D01*
X32681334Y-32357786D01*
X32651095Y-32297310D01*
X32651095Y-32236833D01*
X32681334Y-32176357D01*
X32711572Y-32146119D01*
X32772048Y-32115881D01*
X32893000Y-32085643D01*
X32953476Y-32055405D01*
X32983715Y-32025167D01*
X33013953Y-31964690D01*
X33013953Y-31904214D01*
X32983715Y-31843738D01*
X32953476Y-31813500D01*
X32893000Y-31783262D01*
X32741810Y-31783262D01*
X32651095Y-31813500D01*
X32016095Y-32357786D02*
X32046333Y-32388024D01*
X32137048Y-32418262D01*
X32197524Y-32418262D01*
X32288238Y-32388024D01*
X32348714Y-32327548D01*
X32378953Y-32267071D01*
X32409191Y-32146119D01*
X32409191Y-32055405D01*
X32378953Y-31934452D01*
X32348714Y-31873976D01*
X32288238Y-31813500D01*
X32197524Y-31783262D01*
X32137048Y-31783262D01*
X32046333Y-31813500D01*
X32016095Y-31843738D01*
X31441572Y-32418262D02*
X31743953Y-32418262D01*
X31743953Y-31783262D01*
X30489072Y-32388024D02*
X30398357Y-32418262D01*
X30247167Y-32418262D01*
X30186691Y-32388024D01*
X30156453Y-32357786D01*
X30126214Y-32297310D01*
X30126214Y-32236833D01*
X30156453Y-32176357D01*
X30186691Y-32146119D01*
X30247167Y-32115881D01*
X30368119Y-32085643D01*
X30428595Y-32055405D01*
X30458834Y-32025167D01*
X30489072Y-31964690D01*
X30489072Y-31904214D01*
X30458834Y-31843738D01*
X30428595Y-31813500D01*
X30368119Y-31783262D01*
X30216929Y-31783262D01*
X30126214Y-31813500D01*
X29854072Y-32418262D02*
X29854072Y-31783262D01*
X29702881Y-31783262D01*
X29612167Y-31813500D01*
X29551691Y-31873976D01*
X29521452Y-31934452D01*
X29491214Y-32055405D01*
X29491214Y-32146119D01*
X29521452Y-32267071D01*
X29551691Y-32327548D01*
X29612167Y-32388024D01*
X29702881Y-32418262D01*
X29854072Y-32418262D01*
X29249310Y-32236833D02*
X28946929Y-32236833D01*
X29309786Y-32418262D02*
X29098119Y-31783262D01*
X28886452Y-32418262D01*
X27964191Y-31783262D02*
X27571095Y-31783262D01*
X27782762Y-32025167D01*
X27692048Y-32025167D01*
X27631572Y-32055405D01*
X27601334Y-32085643D01*
X27571095Y-32146119D01*
X27571095Y-32297310D01*
X27601334Y-32357786D01*
X27631572Y-32388024D01*
X27692048Y-32418262D01*
X27873476Y-32418262D01*
X27933953Y-32388024D01*
X27964191Y-32357786D01*
X27389667Y-31783262D02*
X27178000Y-32418262D01*
X26966333Y-31783262D01*
X26815143Y-31783262D02*
X26422047Y-31783262D01*
X26633714Y-32025167D01*
X26543000Y-32025167D01*
X26482524Y-32055405D01*
X26452286Y-32085643D01*
X26422047Y-32146119D01*
X26422047Y-32297310D01*
X26452286Y-32357786D01*
X26482524Y-32388024D01*
X26543000Y-32418262D01*
X26724428Y-32418262D01*
X26784905Y-32388024D01*
X26815143Y-32357786D01*
D12*
X25400000Y-25400000D02*
X110490000Y-25400000D01*
X110490000Y-81280000D02*
X25400000Y-81280000D01*
X25400000Y-81280000D02*
X25400000Y-25400000D01*
D15*
G36*
X101599982Y-55869195D02*
X102489236Y-55832460D01*
X103461070Y-55735476D01*
X103734256Y-55654656D01*
X102279822Y-55654656D01*
X101107726Y-55516609D01*
X100116234Y-54997986D01*
X100061649Y-54950589D01*
X99319291Y-54285761D01*
X100212701Y-53514279D01*
X100872646Y-53031859D01*
X101544425Y-52802663D01*
X102478897Y-52742854D01*
X102521134Y-52742798D01*
X103502285Y-52647544D01*
X104422192Y-52399082D01*
X105139562Y-52053358D01*
X105513101Y-51666321D01*
X105537000Y-51548614D01*
X105375725Y-51515271D01*
X105015422Y-51772091D01*
X104418043Y-52123583D01*
X103602914Y-52390564D01*
X102784063Y-52524366D01*
X102175515Y-52476325D01*
X102091705Y-52436888D01*
X102054462Y-52171592D01*
X102504467Y-51735382D01*
X102604681Y-51662263D01*
X103343377Y-51315835D01*
X104230688Y-51144276D01*
X105099402Y-51148985D01*
X105782308Y-51331356D01*
X106094198Y-51633123D01*
X106109312Y-52194268D01*
X105904360Y-52991294D01*
X105540285Y-53811694D01*
X105404708Y-54037435D01*
X104575816Y-54889860D01*
X103485020Y-55437337D01*
X102279822Y-55654656D01*
X103734256Y-55654656D01*
X104110538Y-55543336D01*
X104644263Y-55174663D01*
X104977855Y-54852334D01*
X105560656Y-54172116D01*
X105992192Y-53520140D01*
X106076010Y-53340567D01*
X106398874Y-52859984D01*
X106721076Y-52705001D01*
X106894565Y-52632603D01*
X107006972Y-52359927D01*
X107067732Y-51803746D01*
X107086280Y-50880834D01*
X107073520Y-49596146D01*
X107044026Y-48163572D01*
X107004405Y-46736326D01*
X106960472Y-45505571D01*
X106928603Y-44833646D01*
X106830636Y-43805457D01*
X106676121Y-43291563D01*
X106454357Y-43279084D01*
X106154644Y-43755138D01*
X106110802Y-43849153D01*
X105805916Y-44518306D01*
X102298020Y-44444466D01*
X100878444Y-44410905D01*
X99902072Y-44369855D01*
X99283012Y-44305317D01*
X98935371Y-44201292D01*
X98773254Y-44041780D01*
X98710770Y-43810783D01*
X98705577Y-43775313D01*
X98496411Y-43309868D01*
X98242888Y-43180001D01*
X98121152Y-43251535D01*
X98028933Y-43505132D01*
X97962963Y-43999282D01*
X97919972Y-44792477D01*
X97896692Y-45943208D01*
X97889854Y-47509964D01*
X97895415Y-49397709D01*
X97914186Y-51218136D01*
X97949704Y-52809172D01*
X97999085Y-54104593D01*
X98059445Y-55038174D01*
X98127899Y-55543692D01*
X98166215Y-55615417D01*
X98424898Y-55396491D01*
X98573941Y-55109093D01*
X98287065Y-55109093D01*
X98203499Y-55019956D01*
X98162104Y-54496420D01*
X98149554Y-53911202D01*
X98151453Y-53062444D01*
X98202374Y-52664859D01*
X98326296Y-52641046D01*
X98485403Y-52827144D01*
X98926341Y-53156582D01*
X99213007Y-53092883D01*
X99821048Y-52690125D01*
X100515476Y-52180121D01*
X100022529Y-52180121D01*
X99472472Y-51480838D01*
X99185974Y-50932422D01*
X98989782Y-50214607D01*
X98892885Y-49465090D01*
X98904272Y-48821571D01*
X99032932Y-48421748D01*
X99270854Y-48392374D01*
X99870090Y-48788132D01*
X100580392Y-49300967D01*
X101272300Y-49831077D01*
X101816355Y-50278661D01*
X102083097Y-50543917D01*
X102091767Y-50567040D01*
X101891491Y-50796332D01*
X101388963Y-51205587D01*
X101054323Y-51450373D01*
X100022529Y-52180121D01*
X100515476Y-52180121D01*
X100556089Y-52150294D01*
X101295704Y-51570941D01*
X101917466Y-51049614D01*
X102298951Y-50683862D01*
X102362000Y-50583764D01*
X102164041Y-50328096D01*
X101651037Y-49879314D01*
X100944297Y-49326097D01*
X100165131Y-48757124D01*
X99434846Y-48261076D01*
X98874751Y-47926632D01*
X98609116Y-47840318D01*
X98452975Y-48216286D01*
X98480236Y-48921142D01*
X98649093Y-49805671D01*
X98917742Y-50720660D01*
X99244376Y-51516892D01*
X99587193Y-52045154D01*
X99823782Y-52175834D01*
X99835626Y-52295003D01*
X99570496Y-52559027D01*
X99197230Y-52827684D01*
X98884665Y-52960748D01*
X98878195Y-52961169D01*
X98726470Y-52732441D01*
X98536517Y-52140219D01*
X98435178Y-51712813D01*
X98339613Y-51047193D01*
X98263886Y-50106657D01*
X98208606Y-48986252D01*
X98174382Y-47781023D01*
X98161823Y-46586014D01*
X98171539Y-45496271D01*
X98204138Y-44606838D01*
X98260229Y-44012762D01*
X98340422Y-43809087D01*
X98384926Y-43871080D01*
X98676149Y-44260171D01*
X99288635Y-44883432D01*
X100127060Y-45648734D01*
X100917301Y-46318476D01*
X101932339Y-47140619D01*
X102658180Y-47681334D01*
X103210889Y-47999457D01*
X103706529Y-48153828D01*
X104261163Y-48203284D01*
X104642746Y-48207084D01*
X105478024Y-48184538D01*
X105953923Y-48062865D01*
X106239923Y-47761007D01*
X106280236Y-47677917D01*
X104494187Y-47677917D01*
X103717634Y-47655707D01*
X103123867Y-47543765D01*
X102552265Y-47274124D01*
X101842209Y-46778817D01*
X101211555Y-46288855D01*
X99449138Y-44899792D01*
X102720624Y-44826018D01*
X104090853Y-44789451D01*
X105026580Y-44741032D01*
X105622440Y-44663154D01*
X105973064Y-44538210D01*
X106173088Y-44348594D01*
X106275814Y-44164560D01*
X106447032Y-43874095D01*
X106535697Y-43966302D01*
X106571840Y-44503866D01*
X106577426Y-44794164D01*
X106522896Y-45752703D01*
X106365020Y-46644217D01*
X106304867Y-46844685D01*
X106109526Y-47314971D01*
X105842958Y-47563639D01*
X105352073Y-47661139D01*
X104494187Y-47677917D01*
X106280236Y-47677917D01*
X106440699Y-47347188D01*
X106601029Y-47013123D01*
X106707961Y-46924185D01*
X106772233Y-47142701D01*
X106804583Y-47731001D01*
X106815748Y-48751412D01*
X106816750Y-49530000D01*
X106812727Y-50818062D01*
X106793499Y-51639305D01*
X106748328Y-52056055D01*
X106666478Y-52130641D01*
X106537209Y-51925391D01*
X106440699Y-51712813D01*
X106182040Y-51209812D01*
X105864037Y-50954574D01*
X105314687Y-50863595D01*
X104669491Y-50852917D01*
X104008872Y-50876578D01*
X103452513Y-50985603D01*
X102873188Y-51237054D01*
X102143674Y-51687995D01*
X101136745Y-52395488D01*
X100982602Y-52506563D01*
X100004761Y-53255406D01*
X99180960Y-53966612D01*
X98616326Y-54544811D01*
X98430657Y-54821667D01*
X98287065Y-55109093D01*
X98573941Y-55109093D01*
X98667285Y-54929099D01*
X98928222Y-54242781D01*
X99892676Y-55089583D01*
X100472013Y-55558918D01*
X100972512Y-55799161D01*
X101599982Y-55869195D01*
X101599982Y-55869195D01*
X101599982Y-55869195D01*
G37*
X101599982Y-55869195D02*
X102489236Y-55832460D01*
X103461070Y-55735476D01*
X103734256Y-55654656D01*
X102279822Y-55654656D01*
X101107726Y-55516609D01*
X100116234Y-54997986D01*
X100061649Y-54950589D01*
X99319291Y-54285761D01*
X100212701Y-53514279D01*
X100872646Y-53031859D01*
X101544425Y-52802663D01*
X102478897Y-52742854D01*
X102521134Y-52742798D01*
X103502285Y-52647544D01*
X104422192Y-52399082D01*
X105139562Y-52053358D01*
X105513101Y-51666321D01*
X105537000Y-51548614D01*
X105375725Y-51515271D01*
X105015422Y-51772091D01*
X104418043Y-52123583D01*
X103602914Y-52390564D01*
X102784063Y-52524366D01*
X102175515Y-52476325D01*
X102091705Y-52436888D01*
X102054462Y-52171592D01*
X102504467Y-51735382D01*
X102604681Y-51662263D01*
X103343377Y-51315835D01*
X104230688Y-51144276D01*
X105099402Y-51148985D01*
X105782308Y-51331356D01*
X106094198Y-51633123D01*
X106109312Y-52194268D01*
X105904360Y-52991294D01*
X105540285Y-53811694D01*
X105404708Y-54037435D01*
X104575816Y-54889860D01*
X103485020Y-55437337D01*
X102279822Y-55654656D01*
X103734256Y-55654656D01*
X104110538Y-55543336D01*
X104644263Y-55174663D01*
X104977855Y-54852334D01*
X105560656Y-54172116D01*
X105992192Y-53520140D01*
X106076010Y-53340567D01*
X106398874Y-52859984D01*
X106721076Y-52705001D01*
X106894565Y-52632603D01*
X107006972Y-52359927D01*
X107067732Y-51803746D01*
X107086280Y-50880834D01*
X107073520Y-49596146D01*
X107044026Y-48163572D01*
X107004405Y-46736326D01*
X106960472Y-45505571D01*
X106928603Y-44833646D01*
X106830636Y-43805457D01*
X106676121Y-43291563D01*
X106454357Y-43279084D01*
X106154644Y-43755138D01*
X106110802Y-43849153D01*
X105805916Y-44518306D01*
X102298020Y-44444466D01*
X100878444Y-44410905D01*
X99902072Y-44369855D01*
X99283012Y-44305317D01*
X98935371Y-44201292D01*
X98773254Y-44041780D01*
X98710770Y-43810783D01*
X98705577Y-43775313D01*
X98496411Y-43309868D01*
X98242888Y-43180001D01*
X98121152Y-43251535D01*
X98028933Y-43505132D01*
X97962963Y-43999282D01*
X97919972Y-44792477D01*
X97896692Y-45943208D01*
X97889854Y-47509964D01*
X97895415Y-49397709D01*
X97914186Y-51218136D01*
X97949704Y-52809172D01*
X97999085Y-54104593D01*
X98059445Y-55038174D01*
X98127899Y-55543692D01*
X98166215Y-55615417D01*
X98424898Y-55396491D01*
X98573941Y-55109093D01*
X98287065Y-55109093D01*
X98203499Y-55019956D01*
X98162104Y-54496420D01*
X98149554Y-53911202D01*
X98151453Y-53062444D01*
X98202374Y-52664859D01*
X98326296Y-52641046D01*
X98485403Y-52827144D01*
X98926341Y-53156582D01*
X99213007Y-53092883D01*
X99821048Y-52690125D01*
X100515476Y-52180121D01*
X100022529Y-52180121D01*
X99472472Y-51480838D01*
X99185974Y-50932422D01*
X98989782Y-50214607D01*
X98892885Y-49465090D01*
X98904272Y-48821571D01*
X99032932Y-48421748D01*
X99270854Y-48392374D01*
X99870090Y-48788132D01*
X100580392Y-49300967D01*
X101272300Y-49831077D01*
X101816355Y-50278661D01*
X102083097Y-50543917D01*
X102091767Y-50567040D01*
X101891491Y-50796332D01*
X101388963Y-51205587D01*
X101054323Y-51450373D01*
X100022529Y-52180121D01*
X100515476Y-52180121D01*
X100556089Y-52150294D01*
X101295704Y-51570941D01*
X101917466Y-51049614D01*
X102298951Y-50683862D01*
X102362000Y-50583764D01*
X102164041Y-50328096D01*
X101651037Y-49879314D01*
X100944297Y-49326097D01*
X100165131Y-48757124D01*
X99434846Y-48261076D01*
X98874751Y-47926632D01*
X98609116Y-47840318D01*
X98452975Y-48216286D01*
X98480236Y-48921142D01*
X98649093Y-49805671D01*
X98917742Y-50720660D01*
X99244376Y-51516892D01*
X99587193Y-52045154D01*
X99823782Y-52175834D01*
X99835626Y-52295003D01*
X99570496Y-52559027D01*
X99197230Y-52827684D01*
X98884665Y-52960748D01*
X98878195Y-52961169D01*
X98726470Y-52732441D01*
X98536517Y-52140219D01*
X98435178Y-51712813D01*
X98339613Y-51047193D01*
X98263886Y-50106657D01*
X98208606Y-48986252D01*
X98174382Y-47781023D01*
X98161823Y-46586014D01*
X98171539Y-45496271D01*
X98204138Y-44606838D01*
X98260229Y-44012762D01*
X98340422Y-43809087D01*
X98384926Y-43871080D01*
X98676149Y-44260171D01*
X99288635Y-44883432D01*
X100127060Y-45648734D01*
X100917301Y-46318476D01*
X101932339Y-47140619D01*
X102658180Y-47681334D01*
X103210889Y-47999457D01*
X103706529Y-48153828D01*
X104261163Y-48203284D01*
X104642746Y-48207084D01*
X105478024Y-48184538D01*
X105953923Y-48062865D01*
X106239923Y-47761007D01*
X106280236Y-47677917D01*
X104494187Y-47677917D01*
X103717634Y-47655707D01*
X103123867Y-47543765D01*
X102552265Y-47274124D01*
X101842209Y-46778817D01*
X101211555Y-46288855D01*
X99449138Y-44899792D01*
X102720624Y-44826018D01*
X104090853Y-44789451D01*
X105026580Y-44741032D01*
X105622440Y-44663154D01*
X105973064Y-44538210D01*
X106173088Y-44348594D01*
X106275814Y-44164560D01*
X106447032Y-43874095D01*
X106535697Y-43966302D01*
X106571840Y-44503866D01*
X106577426Y-44794164D01*
X106522896Y-45752703D01*
X106365020Y-46644217D01*
X106304867Y-46844685D01*
X106109526Y-47314971D01*
X105842958Y-47563639D01*
X105352073Y-47661139D01*
X104494187Y-47677917D01*
X106280236Y-47677917D01*
X106440699Y-47347188D01*
X106601029Y-47013123D01*
X106707961Y-46924185D01*
X106772233Y-47142701D01*
X106804583Y-47731001D01*
X106815748Y-48751412D01*
X106816750Y-49530000D01*
X106812727Y-50818062D01*
X106793499Y-51639305D01*
X106748328Y-52056055D01*
X106666478Y-52130641D01*
X106537209Y-51925391D01*
X106440699Y-51712813D01*
X106182040Y-51209812D01*
X105864037Y-50954574D01*
X105314687Y-50863595D01*
X104669491Y-50852917D01*
X104008872Y-50876578D01*
X103452513Y-50985603D01*
X102873188Y-51237054D01*
X102143674Y-51687995D01*
X101136745Y-52395488D01*
X100982602Y-52506563D01*
X100004761Y-53255406D01*
X99180960Y-53966612D01*
X98616326Y-54544811D01*
X98430657Y-54821667D01*
X98287065Y-55109093D01*
X98573941Y-55109093D01*
X98667285Y-54929099D01*
X98928222Y-54242781D01*
X99892676Y-55089583D01*
X100472013Y-55558918D01*
X100972512Y-55799161D01*
X101599982Y-55869195D01*
X101599982Y-55869195D01*
D16*
X29908500Y-78930500D02*
X28892500Y-79692500D01*
X28892500Y-79692500D02*
X28892500Y-78168500D01*
X28892500Y-78168500D02*
X29908500Y-78930500D01*
X29908500Y-78930500D02*
X29908500Y-79692500D01*
X29908500Y-79692500D02*
X28892500Y-78930500D01*
X28892500Y-78930500D02*
X29908500Y-78168500D01*
X29908500Y-78168500D02*
X29908500Y-78930500D01*
X32893000Y-79248000D02*
G75*
G02X32575500Y-78930500I0J317500D01*
G01*
X32575500Y-78930500D02*
G75*
G02X32893000Y-78613000I317500J0D01*
G01*
X32893000Y-78613000D02*
X32893000Y-78168500D01*
X32893000Y-78168500D02*
X32575500Y-78168500D01*
X32575500Y-79692500D02*
X32893000Y-79692500D01*
X32893000Y-79692500D02*
X32893000Y-79248000D01*
X25908000Y-78613000D02*
G75*
G02X26225500Y-78930500I0J-317500D01*
G01*
X26225500Y-78930500D02*
G75*
G02X25908000Y-79248000I-317500J0D01*
G01*
X25908000Y-78613000D02*
X25908000Y-78168500D01*
X25908000Y-78168500D02*
X26225500Y-78168500D01*
X26225500Y-79692500D02*
X25908000Y-79692500D01*
X25908000Y-79692500D02*
X25908000Y-79248000D01*
X32575500Y-80391000D02*
X32575500Y-77470000D01*
X26225500Y-77470000D02*
X32575500Y-77470000D01*
X32575500Y-80391000D02*
X26225500Y-80391000D01*
X26225500Y-77470000D02*
X26225500Y-80391000D01*
D14*
X31940500Y-36830000D02*
X31940500Y-37211000D01*
X31686500Y-37465000D02*
X32321500Y-36830000D01*
X31686500Y-36830000D02*
X31686500Y-40386000D01*
X31686500Y-36830000D02*
X38671500Y-36830000D01*
X31877000Y-39243000D02*
X31877000Y-37973000D01*
X32067500Y-37973000D02*
X32067500Y-39243000D01*
X31686500Y-39243000D02*
X32321500Y-39243000D01*
X32321500Y-39243000D02*
X32321500Y-37973000D01*
X32321500Y-37973000D02*
X31686500Y-37973000D01*
X38671500Y-36830000D02*
X38671500Y-40386000D01*
X31686500Y-40386000D02*
X38671500Y-40386000D01*
D16*
X31242000Y-49403000D02*
X29654500Y-49403000D01*
X29654500Y-49403000D02*
X29654500Y-47244000D01*
X29654500Y-47244000D02*
X31242000Y-47244000D01*
X32004000Y-47244000D02*
X33528000Y-47244000D01*
X33528000Y-47244000D02*
X33591500Y-47244000D01*
X33591500Y-47244000D02*
X33591500Y-49403000D01*
X33591500Y-49403000D02*
X32004000Y-49403000D01*
X27114500Y-34734500D02*
X28892500Y-34734500D01*
X27114500Y-32575500D02*
X28892500Y-32575500D01*
X30035500Y-34734500D02*
X30924500Y-34734500D01*
X30924500Y-32575500D02*
X30035500Y-32575500D01*
X28892500Y-32575500D02*
X28892500Y-34734500D01*
X27114500Y-32575500D02*
X27114500Y-34734500D01*
X30924500Y-32575500D02*
X30924500Y-34734500D01*
X27114500Y-42481500D02*
X28892500Y-42481500D01*
X27114500Y-40322500D02*
X28892500Y-40322500D01*
X30035500Y-42481500D02*
X30924500Y-42481500D01*
X30924500Y-40322500D02*
X30035500Y-40322500D01*
X28892500Y-40322500D02*
X28892500Y-42481500D01*
X27114500Y-40322500D02*
X27114500Y-42481500D01*
X30924500Y-40322500D02*
X30924500Y-42481500D01*
X74231500Y-51879500D02*
X74231500Y-50101500D01*
X72072500Y-51879500D02*
X72072500Y-50101500D01*
X74231500Y-48958500D02*
X74231500Y-48069500D01*
X72072500Y-48069500D02*
X72072500Y-48958500D01*
X72072500Y-50101500D02*
X74231500Y-50101500D01*
X72072500Y-51879500D02*
X74231500Y-51879500D01*
X72072500Y-48069500D02*
X74231500Y-48069500D01*
X83185000Y-60642500D02*
X81407000Y-60642500D01*
X83185000Y-62801500D02*
X81407000Y-62801500D01*
X80264000Y-60642500D02*
X79375000Y-60642500D01*
X79375000Y-62801500D02*
X80264000Y-62801500D01*
X81407000Y-62801500D02*
X81407000Y-60642500D01*
X83185000Y-62801500D02*
X83185000Y-60642500D01*
X79375000Y-62801500D02*
X79375000Y-60642500D01*
X39243000Y-49530000D02*
X37465000Y-49530000D01*
X39243000Y-51689000D02*
X37465000Y-51689000D01*
X36322000Y-49530000D02*
X35433000Y-49530000D01*
X35433000Y-51689000D02*
X36322000Y-51689000D01*
X37465000Y-51689000D02*
X37465000Y-49530000D01*
X39243000Y-51689000D02*
X39243000Y-49530000D01*
X35433000Y-51689000D02*
X35433000Y-49530000D01*
X76898500Y-51879500D02*
X76898500Y-50101500D01*
X74739500Y-51879500D02*
X74739500Y-50101500D01*
X76898500Y-48958500D02*
X76898500Y-48069500D01*
X74739500Y-48069500D02*
X74739500Y-48958500D01*
X74739500Y-50101500D02*
X76898500Y-50101500D01*
X74739500Y-51879500D02*
X76898500Y-51879500D01*
X74739500Y-48069500D02*
X76898500Y-48069500D01*
X103251000Y-65849500D02*
X103251000Y-64262000D01*
X103251000Y-64262000D02*
X105410000Y-64262000D01*
X105410000Y-64262000D02*
X105410000Y-65849500D01*
X105410000Y-66611500D02*
X105410000Y-68135500D01*
X105410000Y-68135500D02*
X105410000Y-68199000D01*
X105410000Y-68199000D02*
X103251000Y-68199000D01*
X103251000Y-68199000D02*
X103251000Y-66611500D01*
X100711000Y-65849500D02*
X100711000Y-64262000D01*
X100711000Y-64262000D02*
X102870000Y-64262000D01*
X102870000Y-64262000D02*
X102870000Y-65849500D01*
X102870000Y-66611500D02*
X102870000Y-68135500D01*
X102870000Y-68135500D02*
X102870000Y-68199000D01*
X102870000Y-68199000D02*
X100711000Y-68199000D01*
X100711000Y-68199000D02*
X100711000Y-66611500D01*
X74485500Y-52641500D02*
X74485500Y-52324000D01*
X74358500Y-52324000D02*
X74358500Y-52641500D01*
X74358500Y-52641500D02*
X74612500Y-52641500D01*
X74612500Y-52641500D02*
X74612500Y-52324000D01*
X74485500Y-55689500D02*
X74485500Y-56007000D01*
X74612500Y-56007000D02*
X74612500Y-55689500D01*
X74612500Y-55689500D02*
X74358500Y-55689500D01*
X74358500Y-55689500D02*
X74358500Y-56007000D01*
X72326500Y-54102000D02*
X72644000Y-54102000D01*
X72644000Y-54102000D02*
X72644000Y-54229000D01*
X72644000Y-54229000D02*
X72326500Y-54229000D01*
X76644500Y-54102000D02*
X76327000Y-54102000D01*
X76327000Y-54102000D02*
X76327000Y-54229000D01*
X76327000Y-54229000D02*
X76644500Y-54229000D01*
X76644500Y-54165500D02*
X76644500Y-52387500D01*
X76644500Y-52387500D02*
X76644500Y-52324000D01*
X76644500Y-52324000D02*
X72326500Y-52324000D01*
X72326500Y-52324000D02*
X72326500Y-56007000D01*
X72326500Y-56007000D02*
X76644500Y-56007000D01*
X76644500Y-56007000D02*
X76644500Y-54165500D01*
X41973500Y-61214000D02*
X41148000Y-62039500D01*
X41973500Y-61785500D02*
X41783000Y-61976000D01*
X41973500Y-61595000D02*
X41592500Y-61976000D01*
X41338500Y-62039500D02*
X41973500Y-61404500D01*
X41973500Y-59118500D02*
X41338500Y-59118500D01*
X41973500Y-58356500D02*
X41338500Y-58356500D01*
X41338500Y-58356500D02*
X41338500Y-59118500D01*
X41465500Y-58356500D02*
X41465500Y-59118500D01*
X41719500Y-58356500D02*
X41719500Y-59118500D01*
X41846500Y-58356500D02*
X41846500Y-59118500D01*
X41592500Y-58356500D02*
X41592500Y-59118500D01*
X41973500Y-55435500D02*
X31051500Y-55435500D01*
X31051500Y-62039500D02*
X41973500Y-62039500D01*
X31051500Y-62039500D02*
X31051500Y-55435500D01*
X41973500Y-55435500D02*
X41973500Y-62039500D01*
X42037000Y-66738500D02*
X43624500Y-66738500D01*
X43624500Y-66738500D02*
X43624500Y-68897500D01*
X43624500Y-68897500D02*
X42037000Y-68897500D01*
X41275000Y-68897500D02*
X39751000Y-68897500D01*
X39751000Y-68897500D02*
X39687500Y-68897500D01*
X39687500Y-68897500D02*
X39687500Y-66738500D01*
X39687500Y-66738500D02*
X41275000Y-66738500D01*
D13*
X59944000Y-62103000D02*
X60452000Y-62103000D01*
X60452000Y-62103000D02*
X60452000Y-56769000D01*
X54864000Y-62103000D02*
X54356000Y-62103000D01*
X54356000Y-62103000D02*
X54356000Y-56769000D01*
X54864000Y-34163000D02*
X54356000Y-34163000D01*
X54356000Y-34163000D02*
X54356000Y-39497000D01*
X59944000Y-34163000D02*
X60452000Y-34163000D01*
X60452000Y-34163000D02*
X60452000Y-39497000D01*
X66548220Y-48133000D02*
G75*
G03X66548220Y-48133000I-9144220J0D01*
G01*
D16*
X65535968Y-48133000D02*
G75*
G03X65535968Y-48133000I-8131968J0D01*
G01*
D12*
X77470000Y-34290000D02*
X77470000Y-54610000D01*
X77470000Y-54610000D02*
X80010000Y-54610000D01*
X80010000Y-54610000D02*
X80010000Y-34290000D01*
X80010000Y-34290000D02*
X77470000Y-34290000D01*
X80010000Y-36830000D02*
X77470000Y-36830000D01*
X80010000Y-34290000D02*
X80010000Y-54610000D01*
X80010000Y-54610000D02*
X82550000Y-54610000D01*
X82550000Y-54610000D02*
X82550000Y-34290000D01*
X82550000Y-34290000D02*
X80010000Y-34290000D01*
X82550000Y-36830000D02*
X80010000Y-36830000D01*
D16*
X30797500Y-68580000D02*
X30797500Y-64960500D01*
X30797500Y-64960500D02*
X30353000Y-64960500D01*
X30797500Y-72199500D02*
X30353000Y-72199500D01*
X30797500Y-68580000D02*
X30797500Y-72199500D01*
X30353000Y-72199500D02*
X30353000Y-72898000D01*
X30353000Y-72898000D02*
X25336500Y-72898000D01*
X25336500Y-72898000D02*
X25336500Y-68580000D01*
X25336500Y-68580000D02*
X25336500Y-64262000D01*
X25336500Y-64262000D02*
X30353000Y-64262000D01*
X30353000Y-64262000D02*
X30353000Y-64960500D01*
X25908000Y-65976500D02*
X25527000Y-65976500D01*
X25908000Y-71183500D02*
X25527000Y-71183500D01*
X25908000Y-71183500D02*
X25908000Y-71374000D01*
X25908000Y-71374000D02*
X25527000Y-71183500D01*
X25527000Y-71183500D02*
X25908000Y-70993000D01*
X25908000Y-70993000D02*
X25908000Y-71183500D01*
X25908000Y-66167000D02*
X25908000Y-65786000D01*
X25908000Y-65786000D02*
X25527000Y-65976500D01*
X25527000Y-65976500D02*
X25908000Y-66167000D01*
X65659000Y-75692000D02*
X65659000Y-74168000D01*
X65659000Y-74168000D02*
X64389000Y-74168000D01*
X64389000Y-74168000D02*
X64389000Y-73279000D01*
X64389000Y-73279000D02*
X60960000Y-73279000D01*
X60960000Y-73279000D02*
X60960000Y-74549000D01*
X60960000Y-75311000D02*
X60960000Y-76581000D01*
X60960000Y-76581000D02*
X64389000Y-76581000D01*
X64389000Y-76581000D02*
X64389000Y-75692000D01*
X64389000Y-75692000D02*
X65659000Y-75692000D01*
X60452000Y-74930000D02*
X60452000Y-75311000D01*
X60452000Y-75311000D02*
X60960000Y-75311000D01*
X60452000Y-74930000D02*
X60452000Y-74549000D01*
X60452000Y-74549000D02*
X60960000Y-74549000D01*
D12*
X28575000Y-53594000D02*
X27114500Y-53594000D01*
X31051500Y-53594000D02*
X29591000Y-53594000D01*
X27114500Y-53594000D02*
X27114500Y-51435000D01*
X31051500Y-53594000D02*
X31051500Y-51435000D01*
X28321000Y-51435000D02*
X29845000Y-51435000D01*
D10*
X79121000Y-37540000D02*
X78359000Y-37540000D01*
X79121000Y-38660000D02*
X78359000Y-38660000D01*
X78359000Y-37540000D02*
G75*
G03X78359000Y-38660000I0J-560000D01*
G01*
X79121000Y-38660000D02*
G75*
G03X79121000Y-37540000I0J560000D01*
G01*
X79121000Y-40080000D02*
X78359000Y-40080000D01*
X79121000Y-41200000D02*
X78359000Y-41200000D01*
X78359000Y-40080000D02*
G75*
G03X78359000Y-41200000I0J-560000D01*
G01*
X79121000Y-41200000D02*
G75*
G03X79121000Y-40080000I0J560000D01*
G01*
X79121000Y-42620000D02*
X78359000Y-42620000D01*
X79121000Y-43740000D02*
X78359000Y-43740000D01*
X78359000Y-42620000D02*
G75*
G03X78359000Y-43740000I0J-560000D01*
G01*
X79121000Y-43740000D02*
G75*
G03X79121000Y-42620000I0J560000D01*
G01*
X79121000Y-45160000D02*
X78359000Y-45160000D01*
X79121000Y-46280000D02*
X78359000Y-46280000D01*
X78359000Y-45160000D02*
G75*
G03X78359000Y-46280000I0J-560000D01*
G01*
X79121000Y-46280000D02*
G75*
G03X79121000Y-45160000I0J560000D01*
G01*
X79121000Y-47700000D02*
X78359000Y-47700000D01*
X79121000Y-48820000D02*
X78359000Y-48820000D01*
X78359000Y-47700000D02*
G75*
G03X78359000Y-48820000I0J-560000D01*
G01*
X79121000Y-48820000D02*
G75*
G03X79121000Y-47700000I0J560000D01*
G01*
X79121000Y-50240000D02*
X78359000Y-50240000D01*
X79121000Y-51360000D02*
X78359000Y-51360000D01*
X78359000Y-50240000D02*
G75*
G03X78359000Y-51360000I0J-560000D01*
G01*
X79121000Y-51360000D02*
G75*
G03X79121000Y-50240000I0J560000D01*
G01*
X79121000Y-52780000D02*
X78359000Y-52780000D01*
X79121000Y-53900000D02*
X78359000Y-53900000D01*
X78359000Y-52780000D02*
G75*
G03X78359000Y-53900000I0J-560000D01*
G01*
X79121000Y-53900000D02*
G75*
G03X79121000Y-52780000I0J560000D01*
G01*
X81661000Y-37540000D02*
X80899000Y-37540000D01*
X81661000Y-38660000D02*
X80899000Y-38660000D01*
X80899000Y-37540000D02*
G75*
G03X80899000Y-38660000I0J-560000D01*
G01*
X81661000Y-38660000D02*
G75*
G03X81661000Y-37540000I0J560000D01*
G01*
X81661000Y-40080000D02*
X80899000Y-40080000D01*
X81661000Y-41200000D02*
X80899000Y-41200000D01*
X80899000Y-40080000D02*
G75*
G03X80899000Y-41200000I0J-560000D01*
G01*
X81661000Y-41200000D02*
G75*
G03X81661000Y-40080000I0J560000D01*
G01*
X81661000Y-42620000D02*
X80899000Y-42620000D01*
X81661000Y-43740000D02*
X80899000Y-43740000D01*
X80899000Y-42620000D02*
G75*
G03X80899000Y-43740000I0J-560000D01*
G01*
X81661000Y-43740000D02*
G75*
G03X81661000Y-42620000I0J560000D01*
G01*
X81661000Y-45160000D02*
X80899000Y-45160000D01*
X81661000Y-46280000D02*
X80899000Y-46280000D01*
X80899000Y-45160000D02*
G75*
G03X80899000Y-46280000I0J-560000D01*
G01*
X81661000Y-46280000D02*
G75*
G03X81661000Y-45160000I0J560000D01*
G01*
X81661000Y-47700000D02*
X80899000Y-47700000D01*
X81661000Y-48820000D02*
X80899000Y-48820000D01*
X80899000Y-47700000D02*
G75*
G03X80899000Y-48820000I0J-560000D01*
G01*
X81661000Y-48820000D02*
G75*
G03X81661000Y-47700000I0J560000D01*
G01*
X81661000Y-50240000D02*
X80899000Y-50240000D01*
X81661000Y-51360000D02*
X80899000Y-51360000D01*
X80899000Y-50240000D02*
G75*
G03X80899000Y-51360000I0J-560000D01*
G01*
X81661000Y-51360000D02*
G75*
G03X81661000Y-50240000I0J560000D01*
G01*
X81661000Y-52780000D02*
X80899000Y-52780000D01*
X81661000Y-53900000D02*
X80899000Y-53900000D01*
X80899000Y-52780000D02*
G75*
G03X80899000Y-53900000I0J-560000D01*
G01*
X81661000Y-53900000D02*
G75*
G03X81661000Y-52780000I0J560000D01*
G01*
X27738000Y-71882000D02*
G75*
G03X27738000Y-71882000I-877500J0D01*
G01*
X27738000Y-65278000D02*
G75*
G03X27738000Y-65278000I-877500J0D01*
G01*
X30659000Y-51498500D02*
X30659000Y-50482500D01*
X30047000Y-51498500D02*
X30047000Y-50482500D01*
X30659000Y-50482500D02*
G75*
G03X30047000Y-50482500I-306000J0D01*
G01*
X30047000Y-51498500D02*
G75*
G03X30659000Y-51498500I306000J0D01*
G01*
X28119000Y-51498500D02*
X28119000Y-50482500D01*
X27507000Y-51498500D02*
X27507000Y-50482500D01*
X28119000Y-50482500D02*
G75*
G03X27507000Y-50482500I-306000J0D01*
G01*
X27507000Y-51498500D02*
G75*
G03X28119000Y-51498500I306000J0D01*
G01*
X29389000Y-54546500D02*
X29389000Y-53530500D01*
X28777000Y-54546500D02*
X28777000Y-53530500D01*
X29389000Y-53530500D02*
G75*
G03X28777000Y-53530500I-306000J0D01*
G01*
X28777000Y-54546500D02*
G75*
G03X29389000Y-54546500I306000J0D01*
G01*
D12*
X29962928Y-77243214D02*
X29962928Y-76481214D01*
X29781500Y-76481214D01*
X29672643Y-76517500D01*
X29600071Y-76590071D01*
X29563786Y-76662643D01*
X29527500Y-76807786D01*
X29527500Y-76916643D01*
X29563786Y-77061786D01*
X29600071Y-77134357D01*
X29672643Y-77206929D01*
X29781500Y-77243214D01*
X29962928Y-77243214D01*
X29273500Y-76481214D02*
X28765500Y-76481214D01*
X29092071Y-77243214D01*
X33927142Y-76000429D02*
X33818285Y-76036714D01*
X33636856Y-76036714D01*
X33564285Y-76000429D01*
X33527999Y-75964143D01*
X33491714Y-75891571D01*
X33491714Y-75819000D01*
X33527999Y-75746429D01*
X33564285Y-75710143D01*
X33636856Y-75673857D01*
X33781999Y-75637571D01*
X33854571Y-75601286D01*
X33890856Y-75565000D01*
X33927142Y-75492429D01*
X33927142Y-75419857D01*
X33890856Y-75347286D01*
X33854571Y-75311000D01*
X33781999Y-75274714D01*
X33600571Y-75274714D01*
X33491714Y-75311000D01*
X33165142Y-76036714D02*
X33165142Y-75274714D01*
X32911142Y-75819000D01*
X32657142Y-75274714D01*
X32657142Y-76036714D01*
X32040285Y-75637571D02*
X31931428Y-75673857D01*
X31895143Y-75710143D01*
X31858857Y-75782714D01*
X31858857Y-75891571D01*
X31895143Y-75964143D01*
X31931428Y-76000429D01*
X32004000Y-76036714D01*
X32294285Y-76036714D01*
X32294285Y-75274714D01*
X32040285Y-75274714D01*
X31967714Y-75311000D01*
X31931428Y-75347286D01*
X31895143Y-75419857D01*
X31895143Y-75492429D01*
X31931428Y-75565000D01*
X31967714Y-75601286D01*
X32040285Y-75637571D01*
X32294285Y-75637571D01*
X31314571Y-75274714D02*
X31314571Y-75819000D01*
X31350857Y-75927857D01*
X31423428Y-76000429D01*
X31532285Y-76036714D01*
X31604857Y-76036714D01*
X30588857Y-75274714D02*
X30951714Y-75274714D01*
X30988000Y-75637571D01*
X30951714Y-75601286D01*
X30879143Y-75565000D01*
X30697714Y-75565000D01*
X30625143Y-75601286D01*
X30588857Y-75637571D01*
X30552572Y-75710143D01*
X30552572Y-75891571D01*
X30588857Y-75964143D01*
X30625143Y-76000429D01*
X30697714Y-76036714D01*
X30879143Y-76036714D01*
X30951714Y-76000429D01*
X30988000Y-75964143D01*
X30226000Y-75964143D02*
X30189715Y-76000429D01*
X30226000Y-76036714D01*
X30262286Y-76000429D01*
X30226000Y-75964143D01*
X30226000Y-76036714D01*
X29718001Y-75274714D02*
X29645429Y-75274714D01*
X29572858Y-75311000D01*
X29536572Y-75347286D01*
X29500286Y-75419857D01*
X29464001Y-75565000D01*
X29464001Y-75746429D01*
X29500286Y-75891571D01*
X29536572Y-75964143D01*
X29572858Y-76000429D01*
X29645429Y-76036714D01*
X29718001Y-76036714D01*
X29790572Y-76000429D01*
X29826858Y-75964143D01*
X29863143Y-75891571D01*
X29899429Y-75746429D01*
X29899429Y-75565000D01*
X29863143Y-75419857D01*
X29826858Y-75347286D01*
X29790572Y-75311000D01*
X29718001Y-75274714D01*
X28702001Y-75964143D02*
X28738287Y-76000429D01*
X28847144Y-76036714D01*
X28919715Y-76036714D01*
X29028572Y-76000429D01*
X29101144Y-75927857D01*
X29137429Y-75855286D01*
X29173715Y-75710143D01*
X29173715Y-75601286D01*
X29137429Y-75456143D01*
X29101144Y-75383571D01*
X29028572Y-75311000D01*
X28919715Y-75274714D01*
X28847144Y-75274714D01*
X28738287Y-75311000D01*
X28702001Y-75347286D01*
X28411715Y-75819000D02*
X28048858Y-75819000D01*
X28484287Y-76036714D02*
X28230287Y-75274714D01*
X27976287Y-76036714D01*
X27722286Y-75746429D02*
X27141715Y-75746429D01*
X26887715Y-75274714D02*
X26452286Y-75274714D01*
X26670000Y-76036714D02*
X26670000Y-75274714D01*
X25762858Y-76036714D02*
X26016858Y-75673857D01*
X26198286Y-76036714D02*
X26198286Y-75274714D01*
X25908001Y-75274714D01*
X25835429Y-75311000D01*
X25799144Y-75347286D01*
X25762858Y-75419857D01*
X25762858Y-75528714D01*
X25799144Y-75601286D01*
X25835429Y-75637571D01*
X25908001Y-75673857D01*
X26198286Y-75673857D01*
X31378071Y-37111214D02*
X31378071Y-37728071D01*
X31341786Y-37800643D01*
X31305500Y-37836929D01*
X31232929Y-37873214D01*
X31087786Y-37873214D01*
X31015214Y-37836929D01*
X30978929Y-37800643D01*
X30942643Y-37728071D01*
X30942643Y-37111214D01*
X30253214Y-37111214D02*
X30398357Y-37111214D01*
X30470928Y-37147500D01*
X30507214Y-37183786D01*
X30579785Y-37292643D01*
X30616071Y-37437786D01*
X30616071Y-37728071D01*
X30579785Y-37800643D01*
X30543500Y-37836929D01*
X30470928Y-37873214D01*
X30325785Y-37873214D01*
X30253214Y-37836929D01*
X30216928Y-37800643D01*
X30180643Y-37728071D01*
X30180643Y-37546643D01*
X30216928Y-37474071D01*
X30253214Y-37437786D01*
X30325785Y-37401500D01*
X30470928Y-37401500D01*
X30543500Y-37437786D01*
X30579785Y-37474071D01*
X30616071Y-37546643D01*
X37637356Y-37174714D02*
X37201927Y-37174714D01*
X37419641Y-37936714D02*
X37419641Y-37174714D01*
X37020499Y-37174714D02*
X36512499Y-37936714D01*
X36512499Y-37174714D02*
X37020499Y-37936714D01*
X36258499Y-37900429D02*
X36149642Y-37936714D01*
X35968213Y-37936714D01*
X35895642Y-37900429D01*
X35859356Y-37864143D01*
X35823071Y-37791571D01*
X35823071Y-37719000D01*
X35859356Y-37646429D01*
X35895642Y-37610143D01*
X35968213Y-37573857D01*
X36113356Y-37537571D01*
X36185928Y-37501286D01*
X36222213Y-37465000D01*
X36258499Y-37392429D01*
X36258499Y-37319857D01*
X36222213Y-37247286D01*
X36185928Y-37211000D01*
X36113356Y-37174714D01*
X35931928Y-37174714D01*
X35823071Y-37211000D01*
X35351357Y-37174714D02*
X35278785Y-37174714D01*
X35206214Y-37211000D01*
X35169928Y-37247286D01*
X35133642Y-37319857D01*
X35097357Y-37465000D01*
X35097357Y-37646429D01*
X35133642Y-37791571D01*
X35169928Y-37864143D01*
X35206214Y-37900429D01*
X35278785Y-37936714D01*
X35351357Y-37936714D01*
X35423928Y-37900429D01*
X35460214Y-37864143D01*
X35496499Y-37791571D01*
X35532785Y-37646429D01*
X35532785Y-37465000D01*
X35496499Y-37319857D01*
X35460214Y-37247286D01*
X35423928Y-37211000D01*
X35351357Y-37174714D01*
X34371643Y-37936714D02*
X34807071Y-37936714D01*
X34589357Y-37936714D02*
X34589357Y-37174714D01*
X34661928Y-37283571D01*
X34734500Y-37356143D01*
X34807071Y-37392429D01*
X33899929Y-37174714D02*
X33827357Y-37174714D01*
X33754786Y-37211000D01*
X33718500Y-37247286D01*
X33682214Y-37319857D01*
X33645929Y-37465000D01*
X33645929Y-37646429D01*
X33682214Y-37791571D01*
X33718500Y-37864143D01*
X33754786Y-37900429D01*
X33827357Y-37936714D01*
X33899929Y-37936714D01*
X33972500Y-37900429D01*
X34008786Y-37864143D01*
X34045071Y-37791571D01*
X34081357Y-37646429D01*
X34081357Y-37465000D01*
X34045071Y-37319857D01*
X34008786Y-37247286D01*
X33972500Y-37211000D01*
X33899929Y-37174714D01*
X33210500Y-37501286D02*
X33283072Y-37465000D01*
X33319357Y-37428714D01*
X33355643Y-37356143D01*
X33355643Y-37319857D01*
X33319357Y-37247286D01*
X33283072Y-37211000D01*
X33210500Y-37174714D01*
X33065357Y-37174714D01*
X32992786Y-37211000D01*
X32956500Y-37247286D01*
X32920215Y-37319857D01*
X32920215Y-37356143D01*
X32956500Y-37428714D01*
X32992786Y-37465000D01*
X33065357Y-37501286D01*
X33210500Y-37501286D01*
X33283072Y-37537571D01*
X33319357Y-37573857D01*
X33355643Y-37646429D01*
X33355643Y-37791571D01*
X33319357Y-37864143D01*
X33283072Y-37900429D01*
X33210500Y-37936714D01*
X33065357Y-37936714D01*
X32992786Y-37900429D01*
X32956500Y-37864143D01*
X32920215Y-37791571D01*
X32920215Y-37646429D01*
X32956500Y-37573857D01*
X32992786Y-37537571D01*
X33065357Y-37501286D01*
X32112857Y-47017214D02*
X32366857Y-46654357D01*
X32548285Y-47017214D02*
X32548285Y-46255214D01*
X32258000Y-46255214D01*
X32185428Y-46291500D01*
X32149143Y-46327786D01*
X32112857Y-46400357D01*
X32112857Y-46509214D01*
X32149143Y-46581786D01*
X32185428Y-46618071D01*
X32258000Y-46654357D01*
X32548285Y-46654357D01*
X31387143Y-47017214D02*
X31822571Y-47017214D01*
X31604857Y-47017214D02*
X31604857Y-46255214D01*
X31677428Y-46364071D01*
X31750000Y-46436643D01*
X31822571Y-46472929D01*
X31133143Y-46255214D02*
X30661429Y-46255214D01*
X30915429Y-46545500D01*
X30806571Y-46545500D01*
X30734000Y-46581786D01*
X30697714Y-46618071D01*
X30661429Y-46690643D01*
X30661429Y-46872071D01*
X30697714Y-46944643D01*
X30734000Y-46980929D01*
X30806571Y-47017214D01*
X31024286Y-47017214D01*
X31096857Y-46980929D01*
X31133143Y-46944643D01*
X32620857Y-33927143D02*
X32657143Y-33963429D01*
X32766000Y-33999714D01*
X32838571Y-33999714D01*
X32947428Y-33963429D01*
X33020000Y-33890857D01*
X33056285Y-33818286D01*
X33092571Y-33673143D01*
X33092571Y-33564286D01*
X33056285Y-33419143D01*
X33020000Y-33346571D01*
X32947428Y-33274000D01*
X32838571Y-33237714D01*
X32766000Y-33237714D01*
X32657143Y-33274000D01*
X32620857Y-33310286D01*
X31895143Y-33999714D02*
X32330571Y-33999714D01*
X32112857Y-33999714D02*
X32112857Y-33237714D01*
X32185428Y-33346571D01*
X32258000Y-33419143D01*
X32330571Y-33455429D01*
X31641143Y-33237714D02*
X31169429Y-33237714D01*
X31423429Y-33528000D01*
X31314571Y-33528000D01*
X31242000Y-33564286D01*
X31205714Y-33600571D01*
X31169429Y-33673143D01*
X31169429Y-33854571D01*
X31205714Y-33927143D01*
X31242000Y-33963429D01*
X31314571Y-33999714D01*
X31532286Y-33999714D01*
X31604857Y-33963429D01*
X31641143Y-33927143D01*
X29509357Y-40023143D02*
X29545643Y-40059429D01*
X29654500Y-40095714D01*
X29727071Y-40095714D01*
X29835928Y-40059429D01*
X29908500Y-39986857D01*
X29944785Y-39914286D01*
X29981071Y-39769143D01*
X29981071Y-39660286D01*
X29944785Y-39515143D01*
X29908500Y-39442571D01*
X29835928Y-39370000D01*
X29727071Y-39333714D01*
X29654500Y-39333714D01*
X29545643Y-39370000D01*
X29509357Y-39406286D01*
X28783643Y-40095714D02*
X29219071Y-40095714D01*
X29001357Y-40095714D02*
X29001357Y-39333714D01*
X29073928Y-39442571D01*
X29146500Y-39515143D01*
X29219071Y-39551429D01*
X28493357Y-39406286D02*
X28457071Y-39370000D01*
X28384500Y-39333714D01*
X28203071Y-39333714D01*
X28130500Y-39370000D01*
X28094214Y-39406286D01*
X28057929Y-39478857D01*
X28057929Y-39551429D01*
X28094214Y-39660286D01*
X28529643Y-40095714D01*
X28057929Y-40095714D01*
X73451357Y-47770143D02*
X73487643Y-47806429D01*
X73596500Y-47842714D01*
X73669071Y-47842714D01*
X73777928Y-47806429D01*
X73850500Y-47733857D01*
X73886785Y-47661286D01*
X73923071Y-47516143D01*
X73923071Y-47407286D01*
X73886785Y-47262143D01*
X73850500Y-47189571D01*
X73777928Y-47117000D01*
X73669071Y-47080714D01*
X73596500Y-47080714D01*
X73487643Y-47117000D01*
X73451357Y-47153286D01*
X72725643Y-47842714D02*
X73161071Y-47842714D01*
X72943357Y-47842714D02*
X72943357Y-47080714D01*
X73015928Y-47189571D01*
X73088500Y-47262143D01*
X73161071Y-47298429D01*
X71999929Y-47842714D02*
X72435357Y-47842714D01*
X72217643Y-47842714D02*
X72217643Y-47080714D01*
X72290214Y-47189571D01*
X72362786Y-47262143D01*
X72435357Y-47298429D01*
X81407000Y-63772143D02*
X81443286Y-63808429D01*
X81552143Y-63844714D01*
X81624714Y-63844714D01*
X81733571Y-63808429D01*
X81806143Y-63735857D01*
X81842428Y-63663286D01*
X81878714Y-63518143D01*
X81878714Y-63409286D01*
X81842428Y-63264143D01*
X81806143Y-63191571D01*
X81733571Y-63119000D01*
X81624714Y-63082714D01*
X81552143Y-63082714D01*
X81443286Y-63119000D01*
X81407000Y-63155286D01*
X80681286Y-63844714D02*
X81116714Y-63844714D01*
X80899000Y-63844714D02*
X80899000Y-63082714D01*
X80971571Y-63191571D01*
X81044143Y-63264143D01*
X81116714Y-63300429D01*
X40195500Y-50881643D02*
X40231786Y-50917929D01*
X40340643Y-50954214D01*
X40413214Y-50954214D01*
X40522071Y-50917929D01*
X40594643Y-50845357D01*
X40630928Y-50772786D01*
X40667214Y-50627643D01*
X40667214Y-50518786D01*
X40630928Y-50373643D01*
X40594643Y-50301071D01*
X40522071Y-50228500D01*
X40413214Y-50192214D01*
X40340643Y-50192214D01*
X40231786Y-50228500D01*
X40195500Y-50264786D01*
X39832643Y-50954214D02*
X39687500Y-50954214D01*
X39614928Y-50917929D01*
X39578643Y-50881643D01*
X39506071Y-50772786D01*
X39469786Y-50627643D01*
X39469786Y-50337357D01*
X39506071Y-50264786D01*
X39542357Y-50228500D01*
X39614928Y-50192214D01*
X39760071Y-50192214D01*
X39832643Y-50228500D01*
X39868928Y-50264786D01*
X39905214Y-50337357D01*
X39905214Y-50518786D01*
X39868928Y-50591357D01*
X39832643Y-50627643D01*
X39760071Y-50663929D01*
X39614928Y-50663929D01*
X39542357Y-50627643D01*
X39506071Y-50591357D01*
X39469786Y-50518786D01*
X76562857Y-47770143D02*
X76599143Y-47806429D01*
X76708000Y-47842714D01*
X76780571Y-47842714D01*
X76889428Y-47806429D01*
X76962000Y-47733857D01*
X76998285Y-47661286D01*
X77034571Y-47516143D01*
X77034571Y-47407286D01*
X76998285Y-47262143D01*
X76962000Y-47189571D01*
X76889428Y-47117000D01*
X76780571Y-47080714D01*
X76708000Y-47080714D01*
X76599143Y-47117000D01*
X76562857Y-47153286D01*
X75837143Y-47842714D02*
X76272571Y-47842714D01*
X76054857Y-47842714D02*
X76054857Y-47080714D01*
X76127428Y-47189571D01*
X76200000Y-47262143D01*
X76272571Y-47298429D01*
X75365429Y-47080714D02*
X75292857Y-47080714D01*
X75220286Y-47117000D01*
X75184000Y-47153286D01*
X75147714Y-47225857D01*
X75111429Y-47371000D01*
X75111429Y-47552429D01*
X75147714Y-47697571D01*
X75184000Y-47770143D01*
X75220286Y-47806429D01*
X75292857Y-47842714D01*
X75365429Y-47842714D01*
X75438000Y-47806429D01*
X75474286Y-47770143D01*
X75510571Y-47697571D01*
X75546857Y-47552429D01*
X75546857Y-47371000D01*
X75510571Y-47225857D01*
X75474286Y-47153286D01*
X75438000Y-47117000D01*
X75365429Y-47080714D01*
X104457500Y-64035214D02*
X104711500Y-63672357D01*
X104892928Y-64035214D02*
X104892928Y-63273214D01*
X104602643Y-63273214D01*
X104530071Y-63309500D01*
X104493786Y-63345786D01*
X104457500Y-63418357D01*
X104457500Y-63527214D01*
X104493786Y-63599786D01*
X104530071Y-63636071D01*
X104602643Y-63672357D01*
X104892928Y-63672357D01*
X103731786Y-64035214D02*
X104167214Y-64035214D01*
X103949500Y-64035214D02*
X103949500Y-63273214D01*
X104022071Y-63382071D01*
X104094643Y-63454643D01*
X104167214Y-63490929D01*
X101917500Y-64035214D02*
X102171500Y-63672357D01*
X102352928Y-64035214D02*
X102352928Y-63273214D01*
X102062643Y-63273214D01*
X101990071Y-63309500D01*
X101953786Y-63345786D01*
X101917500Y-63418357D01*
X101917500Y-63527214D01*
X101953786Y-63599786D01*
X101990071Y-63636071D01*
X102062643Y-63672357D01*
X102352928Y-63672357D01*
X101627214Y-63345786D02*
X101590928Y-63309500D01*
X101518357Y-63273214D01*
X101336928Y-63273214D01*
X101264357Y-63309500D01*
X101228071Y-63345786D01*
X101191786Y-63418357D01*
X101191786Y-63490929D01*
X101228071Y-63599786D01*
X101663500Y-64035214D01*
X101191786Y-64035214D01*
X71863857Y-53748214D02*
X71355857Y-54510214D01*
X71355857Y-53748214D02*
X71863857Y-54510214D01*
X70666429Y-54510214D02*
X71101857Y-54510214D01*
X70884143Y-54510214D02*
X70884143Y-53748214D01*
X70956714Y-53857071D01*
X71029286Y-53929643D01*
X71101857Y-53965929D01*
X71468343Y-55881814D02*
X71903771Y-55881814D01*
X71686057Y-55881814D02*
X71686057Y-55119814D01*
X71758628Y-55228671D01*
X71831200Y-55301243D01*
X71903771Y-55337529D01*
X70815200Y-55119814D02*
X70960343Y-55119814D01*
X71032914Y-55156100D01*
X71069200Y-55192386D01*
X71141771Y-55301243D01*
X71178057Y-55446386D01*
X71178057Y-55736671D01*
X71141771Y-55809243D01*
X71105486Y-55845529D01*
X71032914Y-55881814D01*
X70887771Y-55881814D01*
X70815200Y-55845529D01*
X70778914Y-55809243D01*
X70742629Y-55736671D01*
X70742629Y-55555243D01*
X70778914Y-55482671D01*
X70815200Y-55446386D01*
X70887771Y-55410100D01*
X71032914Y-55410100D01*
X71105486Y-55446386D01*
X71141771Y-55482671D01*
X71178057Y-55555243D01*
X70416057Y-55881814D02*
X70416057Y-55119814D01*
X70162057Y-55664100D01*
X69908057Y-55119814D01*
X69908057Y-55881814D01*
X69545200Y-55881814D02*
X69545200Y-55119814D01*
X69545200Y-55482671D02*
X69109772Y-55482671D01*
X69109772Y-55881814D02*
X69109772Y-55119814D01*
X68819486Y-55373814D02*
X68420343Y-55373814D01*
X68819486Y-55881814D01*
X68420343Y-55881814D01*
X42960471Y-62460414D02*
X42960471Y-63077271D01*
X42924186Y-63149843D01*
X42887900Y-63186129D01*
X42815329Y-63222414D01*
X42670186Y-63222414D01*
X42597614Y-63186129D01*
X42561329Y-63149843D01*
X42525043Y-63077271D01*
X42525043Y-62460414D01*
X41835614Y-62714414D02*
X41835614Y-63222414D01*
X42017043Y-62424129D02*
X42198471Y-62968414D01*
X41726757Y-62968414D01*
X38950899Y-59094914D02*
X38950899Y-58332914D01*
X38769471Y-58332914D01*
X38660614Y-58369200D01*
X38588042Y-58441771D01*
X38551757Y-58514343D01*
X38515471Y-58659486D01*
X38515471Y-58768343D01*
X38551757Y-58913486D01*
X38588042Y-58986057D01*
X38660614Y-59058629D01*
X38769471Y-59094914D01*
X38950899Y-59094914D01*
X38225185Y-59058629D02*
X38116328Y-59094914D01*
X37934899Y-59094914D01*
X37862328Y-59058629D01*
X37826042Y-59022343D01*
X37789757Y-58949771D01*
X37789757Y-58877200D01*
X37826042Y-58804629D01*
X37862328Y-58768343D01*
X37934899Y-58732057D01*
X38080042Y-58695771D01*
X38152614Y-58659486D01*
X38188899Y-58623200D01*
X38225185Y-58550629D01*
X38225185Y-58478057D01*
X38188899Y-58405486D01*
X38152614Y-58369200D01*
X38080042Y-58332914D01*
X37898614Y-58332914D01*
X37789757Y-58369200D01*
X37535757Y-58332914D02*
X37064043Y-58332914D01*
X37318043Y-58623200D01*
X37209185Y-58623200D01*
X37136614Y-58659486D01*
X37100328Y-58695771D01*
X37064043Y-58768343D01*
X37064043Y-58949771D01*
X37100328Y-59022343D01*
X37136614Y-59058629D01*
X37209185Y-59094914D01*
X37426900Y-59094914D01*
X37499471Y-59058629D01*
X37535757Y-59022343D01*
X36773757Y-58405486D02*
X36737471Y-58369200D01*
X36664900Y-58332914D01*
X36483471Y-58332914D01*
X36410900Y-58369200D01*
X36374614Y-58405486D01*
X36338329Y-58478057D01*
X36338329Y-58550629D01*
X36374614Y-58659486D01*
X36810043Y-59094914D01*
X36338329Y-59094914D01*
X36084329Y-58332914D02*
X35612615Y-58332914D01*
X35866615Y-58623200D01*
X35757757Y-58623200D01*
X35685186Y-58659486D01*
X35648900Y-58695771D01*
X35612615Y-58768343D01*
X35612615Y-58949771D01*
X35648900Y-59022343D01*
X35685186Y-59058629D01*
X35757757Y-59094914D01*
X35975472Y-59094914D01*
X36048043Y-59058629D01*
X36084329Y-59022343D01*
X34886901Y-59094914D02*
X35322329Y-59094914D01*
X35104615Y-59094914D02*
X35104615Y-58332914D01*
X35177186Y-58441771D01*
X35249758Y-58514343D01*
X35322329Y-58550629D01*
X34560329Y-59094914D02*
X34560329Y-58332914D01*
X34124901Y-59094914D01*
X34124901Y-58332914D01*
X41783000Y-66511714D02*
X42037000Y-66148857D01*
X42218428Y-66511714D02*
X42218428Y-65749714D01*
X41928143Y-65749714D01*
X41855571Y-65786000D01*
X41819286Y-65822286D01*
X41783000Y-65894857D01*
X41783000Y-66003714D01*
X41819286Y-66076286D01*
X41855571Y-66112571D01*
X41928143Y-66148857D01*
X42218428Y-66148857D01*
X41420143Y-66511714D02*
X41275000Y-66511714D01*
X41202428Y-66475429D01*
X41166143Y-66439143D01*
X41093571Y-66330286D01*
X41057286Y-66185143D01*
X41057286Y-65894857D01*
X41093571Y-65822286D01*
X41129857Y-65786000D01*
X41202428Y-65749714D01*
X41347571Y-65749714D01*
X41420143Y-65786000D01*
X41456428Y-65822286D01*
X41492714Y-65894857D01*
X41492714Y-66076286D01*
X41456428Y-66148857D01*
X41420143Y-66185143D01*
X41347571Y-66221429D01*
X41202428Y-66221429D01*
X41129857Y-66185143D01*
X41093571Y-66148857D01*
X41057286Y-66076286D01*
X53811713Y-37601071D02*
X53702856Y-37637357D01*
X53666571Y-37673643D01*
X53630285Y-37746214D01*
X53630285Y-37855071D01*
X53666571Y-37927643D01*
X53702856Y-37963929D01*
X53775428Y-38000214D01*
X54065713Y-38000214D01*
X54065713Y-37238214D01*
X53811713Y-37238214D01*
X53739142Y-37274500D01*
X53702856Y-37310786D01*
X53666571Y-37383357D01*
X53666571Y-37455929D01*
X53702856Y-37528500D01*
X53739142Y-37564786D01*
X53811713Y-37601071D01*
X54065713Y-37601071D01*
X53412571Y-37238214D02*
X52977142Y-37238214D01*
X53194856Y-38000214D02*
X53194856Y-37238214D01*
X52324000Y-38000214D02*
X52759428Y-38000214D01*
X52541714Y-38000214D02*
X52541714Y-37238214D01*
X52614285Y-37347071D01*
X52686857Y-37419643D01*
X52759428Y-37455929D01*
X59599284Y-48777071D02*
X59490427Y-48813357D01*
X59454142Y-48849643D01*
X59417856Y-48922214D01*
X59417856Y-49031071D01*
X59454142Y-49103643D01*
X59490427Y-49139929D01*
X59562999Y-49176214D01*
X59853284Y-49176214D01*
X59853284Y-48414214D01*
X59599284Y-48414214D01*
X59526713Y-48450500D01*
X59490427Y-48486786D01*
X59454142Y-48559357D01*
X59454142Y-48631929D01*
X59490427Y-48704500D01*
X59526713Y-48740786D01*
X59599284Y-48777071D01*
X59853284Y-48777071D01*
X59127570Y-48958500D02*
X58764713Y-48958500D01*
X59200142Y-49176214D02*
X58946142Y-48414214D01*
X58692142Y-49176214D01*
X58546999Y-48414214D02*
X58111570Y-48414214D01*
X58329284Y-49176214D02*
X58329284Y-48414214D01*
X57966428Y-48414214D02*
X57530999Y-48414214D01*
X57748713Y-49176214D02*
X57748713Y-48414214D01*
X57458428Y-49248786D02*
X56877857Y-49248786D01*
X56261000Y-49176214D02*
X56515000Y-48813357D01*
X56696428Y-49176214D02*
X56696428Y-48414214D01*
X56406143Y-48414214D01*
X56333571Y-48450500D01*
X56297286Y-48486786D01*
X56261000Y-48559357D01*
X56261000Y-48668214D01*
X56297286Y-48740786D01*
X56333571Y-48777071D01*
X56406143Y-48813357D01*
X56696428Y-48813357D01*
X56043286Y-48414214D02*
X55607857Y-48414214D01*
X55825571Y-49176214D02*
X55825571Y-48414214D01*
X54918429Y-49103643D02*
X54954715Y-49139929D01*
X55063572Y-49176214D01*
X55136143Y-49176214D01*
X55245000Y-49139929D01*
X55317572Y-49067357D01*
X55353857Y-48994786D01*
X55390143Y-48849643D01*
X55390143Y-48740786D01*
X55353857Y-48595643D01*
X55317572Y-48523071D01*
X55245000Y-48450500D01*
X55136143Y-48414214D01*
X55063572Y-48414214D01*
X54954715Y-48450500D01*
X54918429Y-48486786D01*
X53857071Y-59272714D02*
X54038500Y-59272714D01*
X54038500Y-58184143D01*
X53857071Y-58184143D01*
X53566785Y-58728429D02*
X52986214Y-58728429D01*
X52695928Y-59272714D02*
X52514499Y-59272714D01*
X52514499Y-58184143D01*
X52695928Y-58184143D01*
X53857071Y-36857214D02*
X54038500Y-36857214D01*
X54038500Y-35768643D01*
X53857071Y-35768643D01*
X53566785Y-36312929D02*
X52986214Y-36312929D01*
X53276500Y-36603214D02*
X53276500Y-36022643D01*
X52695928Y-36857214D02*
X52514499Y-36857214D01*
X52514499Y-35768643D01*
X52695928Y-35768643D01*
X79302428Y-55716714D02*
X79302428Y-54954714D01*
X79012143Y-54954714D01*
X78939571Y-54991000D01*
X78903286Y-55027286D01*
X78867000Y-55099857D01*
X78867000Y-55208714D01*
X78903286Y-55281286D01*
X78939571Y-55317571D01*
X79012143Y-55353857D01*
X79302428Y-55353857D01*
X78576714Y-55027286D02*
X78540428Y-54991000D01*
X78467857Y-54954714D01*
X78286428Y-54954714D01*
X78213857Y-54991000D01*
X78177571Y-55027286D01*
X78141286Y-55099857D01*
X78141286Y-55172429D01*
X78177571Y-55281286D01*
X78613000Y-55716714D01*
X78141286Y-55716714D01*
X82867500Y-56134000D02*
X82940071Y-56097714D01*
X83048928Y-56097714D01*
X83157785Y-56134000D01*
X83230357Y-56206571D01*
X83266642Y-56279143D01*
X83302928Y-56424286D01*
X83302928Y-56533143D01*
X83266642Y-56678286D01*
X83230357Y-56750857D01*
X83157785Y-56823429D01*
X83048928Y-56859714D01*
X82976357Y-56859714D01*
X82867500Y-56823429D01*
X82831214Y-56787143D01*
X82831214Y-56533143D01*
X82976357Y-56533143D01*
X82504642Y-56859714D02*
X82504642Y-56097714D01*
X82214357Y-56097714D01*
X82141785Y-56134000D01*
X82105500Y-56170286D01*
X82069214Y-56242857D01*
X82069214Y-56351714D01*
X82105500Y-56424286D01*
X82141785Y-56460571D01*
X82214357Y-56496857D01*
X82504642Y-56496857D01*
X81742642Y-56097714D02*
X81742642Y-56714571D01*
X81706357Y-56787143D01*
X81670071Y-56823429D01*
X81597500Y-56859714D01*
X81452357Y-56859714D01*
X81379785Y-56823429D01*
X81343500Y-56787143D01*
X81307214Y-56714571D01*
X81307214Y-56097714D01*
X81125785Y-56932286D02*
X80545214Y-56932286D01*
X80146071Y-56097714D02*
X80146071Y-56642000D01*
X80182357Y-56750857D01*
X80254928Y-56823429D01*
X80363785Y-56859714D01*
X80436357Y-56859714D01*
X79892072Y-56097714D02*
X79456643Y-56097714D01*
X79674357Y-56859714D02*
X79674357Y-56097714D01*
X79238929Y-56642000D02*
X78876072Y-56642000D01*
X79311501Y-56859714D02*
X79057501Y-56097714D01*
X78803501Y-56859714D01*
X78150358Y-56134000D02*
X78222929Y-56097714D01*
X78331786Y-56097714D01*
X78440643Y-56134000D01*
X78513215Y-56206571D01*
X78549500Y-56279143D01*
X78585786Y-56424286D01*
X78585786Y-56533143D01*
X78549500Y-56678286D01*
X78513215Y-56750857D01*
X78440643Y-56823429D01*
X78331786Y-56859714D01*
X78259215Y-56859714D01*
X78150358Y-56823429D01*
X78114072Y-56787143D01*
X78114072Y-56533143D01*
X78259215Y-56533143D01*
X81842428Y-55716714D02*
X81842428Y-54954714D01*
X81552143Y-54954714D01*
X81479571Y-54991000D01*
X81443286Y-55027286D01*
X81407000Y-55099857D01*
X81407000Y-55208714D01*
X81443286Y-55281286D01*
X81479571Y-55317571D01*
X81552143Y-55353857D01*
X81842428Y-55353857D01*
X81153000Y-54954714D02*
X80681286Y-54954714D01*
X80935286Y-55245000D01*
X80826428Y-55245000D01*
X80753857Y-55281286D01*
X80717571Y-55317571D01*
X80681286Y-55390143D01*
X80681286Y-55571571D01*
X80717571Y-55644143D01*
X80753857Y-55680429D01*
X80826428Y-55716714D01*
X81044143Y-55716714D01*
X81116714Y-55680429D01*
X81153000Y-55644143D01*
X32992785Y-65940214D02*
X32992785Y-65178214D01*
X32702500Y-65178214D01*
X32629928Y-65214500D01*
X32593643Y-65250786D01*
X32557357Y-65323357D01*
X32557357Y-65432214D01*
X32593643Y-65504786D01*
X32629928Y-65541071D01*
X32702500Y-65577357D01*
X32992785Y-65577357D01*
X31831643Y-65940214D02*
X32267071Y-65940214D01*
X32049357Y-65940214D02*
X32049357Y-65178214D01*
X32121928Y-65287071D01*
X32194500Y-65359643D01*
X32267071Y-65395929D01*
X31541357Y-65250786D02*
X31505071Y-65214500D01*
X31432500Y-65178214D01*
X31251071Y-65178214D01*
X31178500Y-65214500D01*
X31142214Y-65250786D01*
X31105929Y-65323357D01*
X31105929Y-65395929D01*
X31142214Y-65504786D01*
X31577643Y-65940214D01*
X31105929Y-65940214D01*
X35178999Y-66321214D02*
X35178999Y-66938071D01*
X35142714Y-67010643D01*
X35106428Y-67046929D01*
X35033857Y-67083214D01*
X34888714Y-67083214D01*
X34816142Y-67046929D01*
X34779857Y-67010643D01*
X34743571Y-66938071D01*
X34743571Y-66321214D01*
X34380713Y-66321214D02*
X34380713Y-66938071D01*
X34344428Y-67010643D01*
X34308142Y-67046929D01*
X34235571Y-67083214D01*
X34090428Y-67083214D01*
X34017856Y-67046929D01*
X33981571Y-67010643D01*
X33945285Y-66938071D01*
X33945285Y-66321214D01*
X33618713Y-67046929D02*
X33509856Y-67083214D01*
X33328427Y-67083214D01*
X33255856Y-67046929D01*
X33219570Y-67010643D01*
X33183285Y-66938071D01*
X33183285Y-66865500D01*
X33219570Y-66792929D01*
X33255856Y-66756643D01*
X33328427Y-66720357D01*
X33473570Y-66684071D01*
X33546142Y-66647786D01*
X33582427Y-66611500D01*
X33618713Y-66538929D01*
X33618713Y-66466357D01*
X33582427Y-66393786D01*
X33546142Y-66357500D01*
X33473570Y-66321214D01*
X33292142Y-66321214D01*
X33183285Y-66357500D01*
X32602713Y-66684071D02*
X32493856Y-66720357D01*
X32457571Y-66756643D01*
X32421285Y-66829214D01*
X32421285Y-66938071D01*
X32457571Y-67010643D01*
X32493856Y-67046929D01*
X32566428Y-67083214D01*
X32856713Y-67083214D01*
X32856713Y-66321214D01*
X32602713Y-66321214D01*
X32530142Y-66357500D01*
X32493856Y-66393786D01*
X32457571Y-66466357D01*
X32457571Y-66538929D01*
X32493856Y-66611500D01*
X32530142Y-66647786D01*
X32602713Y-66684071D01*
X32856713Y-66684071D01*
X32276142Y-67155786D02*
X31695571Y-67155786D01*
X31260142Y-66684071D02*
X31151285Y-66720357D01*
X31115000Y-66756643D01*
X31078714Y-66829214D01*
X31078714Y-66938071D01*
X31115000Y-67010643D01*
X31151285Y-67046929D01*
X31223857Y-67083214D01*
X31514142Y-67083214D01*
X31514142Y-66321214D01*
X31260142Y-66321214D01*
X31187571Y-66357500D01*
X31151285Y-66393786D01*
X31115000Y-66466357D01*
X31115000Y-66538929D01*
X31151285Y-66611500D01*
X31187571Y-66647786D01*
X31260142Y-66684071D01*
X31514142Y-66684071D01*
D13*
X65903928Y-73814214D02*
X65903928Y-73052214D01*
X65722500Y-73052214D01*
X65613643Y-73088500D01*
X65541071Y-73161071D01*
X65504786Y-73233643D01*
X65468500Y-73378786D01*
X65468500Y-73487643D01*
X65504786Y-73632786D01*
X65541071Y-73705357D01*
X65613643Y-73777929D01*
X65722500Y-73814214D01*
X65903928Y-73814214D01*
X65033071Y-73378786D02*
X65105643Y-73342500D01*
X65141928Y-73306214D01*
X65178214Y-73233643D01*
X65178214Y-73197357D01*
X65141928Y-73124786D01*
X65105643Y-73088500D01*
X65033071Y-73052214D01*
X64887928Y-73052214D01*
X64815357Y-73088500D01*
X64779071Y-73124786D01*
X64742786Y-73197357D01*
X64742786Y-73233643D01*
X64779071Y-73306214D01*
X64815357Y-73342500D01*
X64887928Y-73378786D01*
X65033071Y-73378786D01*
X65105643Y-73415071D01*
X65141928Y-73451357D01*
X65178214Y-73523929D01*
X65178214Y-73669071D01*
X65141928Y-73741643D01*
X65105643Y-73777929D01*
X65033071Y-73814214D01*
X64887928Y-73814214D01*
X64815357Y-73777929D01*
X64779071Y-73741643D01*
X64742786Y-73669071D01*
X64742786Y-73523929D01*
X64779071Y-73451357D01*
X64815357Y-73415071D01*
X64887928Y-73378786D01*
D12*
X29427714Y-55399215D02*
X28665714Y-55399215D01*
X28665714Y-55689500D01*
X28702000Y-55762072D01*
X28738286Y-55798357D01*
X28810857Y-55834643D01*
X28919714Y-55834643D01*
X28992286Y-55798357D01*
X29028571Y-55762072D01*
X29064857Y-55689500D01*
X29064857Y-55399215D01*
X29427714Y-56560357D02*
X29427714Y-56124929D01*
X29427714Y-56342643D02*
X28665714Y-56342643D01*
X28774571Y-56270072D01*
X28847143Y-56197500D01*
X28883429Y-56124929D01*
X29427714Y-57286071D02*
X29427714Y-56850643D01*
X29427714Y-57068357D02*
X28665714Y-57068357D01*
X28774571Y-56995786D01*
X28847143Y-56923214D01*
X28883429Y-56850643D01*
X25998714Y-51471286D02*
X26615571Y-51471286D01*
X26688143Y-51507571D01*
X26724429Y-51543857D01*
X26760714Y-51616428D01*
X26760714Y-51761571D01*
X26724429Y-51834143D01*
X26688143Y-51870428D01*
X26615571Y-51906714D01*
X25998714Y-51906714D01*
X25998714Y-52596143D02*
X25998714Y-52451000D01*
X26035000Y-52378429D01*
X26071286Y-52342143D01*
X26180143Y-52269572D01*
X26325286Y-52233286D01*
X26615571Y-52233286D01*
X26688143Y-52269572D01*
X26724429Y-52305857D01*
X26760714Y-52378429D01*
X26760714Y-52523572D01*
X26724429Y-52596143D01*
X26688143Y-52632429D01*
X26615571Y-52668714D01*
X26434143Y-52668714D01*
X26361571Y-52632429D01*
X26325286Y-52596143D01*
X26289000Y-52523572D01*
X26289000Y-52378429D01*
X26325286Y-52305857D01*
X26361571Y-52269572D01*
X26434143Y-52233286D01*
X26833286Y-52813857D02*
X26833286Y-53394428D01*
X25998714Y-53720999D02*
X25998714Y-53866142D01*
X26035000Y-53938714D01*
X26107571Y-54011285D01*
X26252714Y-54047571D01*
X26506714Y-54047571D01*
X26651857Y-54011285D01*
X26724429Y-53938714D01*
X26760714Y-53866142D01*
X26760714Y-53720999D01*
X26724429Y-53648428D01*
X26651857Y-53575857D01*
X26506714Y-53539571D01*
X26252714Y-53539571D01*
X26107571Y-53575857D01*
X26035000Y-53648428D01*
X25998714Y-53720999D01*
X26361571Y-54374143D02*
X26361571Y-54628143D01*
X26760714Y-54737000D02*
X26760714Y-54374143D01*
X25998714Y-54374143D01*
X25998714Y-54737000D01*
X27655762Y-55550405D02*
X27655762Y-55671357D01*
X27686000Y-55731833D01*
X27746476Y-55792310D01*
X27867429Y-55822548D01*
X28079095Y-55822548D01*
X28200048Y-55792310D01*
X28260524Y-55731833D01*
X28290762Y-55671357D01*
X28290762Y-55550405D01*
X28260524Y-55489929D01*
X28200048Y-55429452D01*
X28079095Y-55399214D01*
X27867429Y-55399214D01*
X27746476Y-55429452D01*
X27686000Y-55489929D01*
X27655762Y-55550405D01*
X28290762Y-56094690D02*
X27655762Y-56094690D01*
X28290762Y-56457548D01*
X27655762Y-56457548D01*
X29941762Y-55529238D02*
X29941762Y-55650190D01*
X29972000Y-55710666D01*
X30032476Y-55771143D01*
X30153429Y-55801381D01*
X30365095Y-55801381D01*
X30486048Y-55771143D01*
X30546524Y-55710666D01*
X30576762Y-55650190D01*
X30576762Y-55529238D01*
X30546524Y-55468762D01*
X30486048Y-55408285D01*
X30365095Y-55378047D01*
X30153429Y-55378047D01*
X30032476Y-55408285D01*
X29972000Y-55468762D01*
X29941762Y-55529238D01*
X30244143Y-56285190D02*
X30244143Y-56073523D01*
X30576762Y-56073523D02*
X29941762Y-56073523D01*
X29941762Y-56375904D01*
X30244143Y-56829476D02*
X30244143Y-56617809D01*
X30576762Y-56617809D02*
X29941762Y-56617809D01*
X29941762Y-56920190D01*
%LPC*%
D17*
X45720000Y-79375000D03*
X45720000Y-76835000D03*
X45720000Y-74295000D03*
X45720000Y-71755000D03*
X45720000Y-69215000D03*
X45720000Y-66675000D03*
X45720000Y-64135000D03*
X45720000Y-61595000D03*
D18*
X48260000Y-79375000D03*
X48260000Y-76835000D03*
X48260000Y-74295000D03*
X48260000Y-71755000D03*
X48260000Y-69215000D03*
X48260000Y-66675000D03*
X48260000Y-64135000D03*
X48260000Y-61595000D03*
D19*
X31305500Y-78930500D03*
X27495500Y-78930500D03*
D20*
X34917380Y-35808920D03*
X35567620Y-35808920D03*
X36217860Y-35808920D03*
X36868100Y-35808920D03*
X32976820Y-41402000D03*
X32966660Y-35808920D03*
X33616900Y-35808920D03*
X34267140Y-35808920D03*
X37518340Y-41407080D03*
X36868100Y-41407080D03*
X36217860Y-41407080D03*
X35567620Y-41407080D03*
X34917380Y-41407080D03*
X34267140Y-41407080D03*
X37518340Y-35808920D03*
X33616900Y-41402000D03*
X32316420Y-35808920D03*
X38168580Y-35808920D03*
X38168580Y-41407080D03*
X32316420Y-41407080D03*
D21*
X30670500Y-48323500D03*
X32575500Y-48323500D03*
D22*
X28003500Y-33655000D03*
X30035500Y-33655000D03*
X28003500Y-41402000D03*
X30035500Y-41402000D03*
D23*
X73152000Y-50990500D03*
X73152000Y-48958500D03*
D22*
X82296000Y-61722000D03*
X80264000Y-61722000D03*
X38354000Y-50609500D03*
X36322000Y-50609500D03*
D23*
X75819000Y-50990500D03*
X75819000Y-48958500D03*
D24*
X104330500Y-65278000D03*
X104330500Y-67183000D03*
X101790500Y-65278000D03*
X101790500Y-67183000D03*
D25*
X29654500Y-62230000D03*
X28003500Y-62230000D03*
X26352500Y-62230000D03*
D26*
X75628500Y-55118000D03*
X73342500Y-53213000D03*
X75628500Y-53213000D03*
X73342500Y-55118000D03*
D27*
X40957500Y-63388240D03*
X39687500Y-63388240D03*
X38417500Y-63388240D03*
X37147500Y-63388240D03*
X35877500Y-63388240D03*
X34607500Y-63388240D03*
X33337500Y-63388240D03*
X32067500Y-63388240D03*
X32067500Y-54086760D03*
X33337500Y-54086760D03*
X34607500Y-54086760D03*
X35877500Y-54086760D03*
X37147500Y-54086760D03*
X38417500Y-54086760D03*
X39687500Y-54086760D03*
X40957500Y-54086760D03*
D21*
X42608500Y-67818000D03*
X40703500Y-67818000D03*
D28*
X57404000Y-61087000D03*
X57404000Y-35179000D03*
D18*
X50800000Y-79375000D03*
X50800000Y-76835000D03*
X50800000Y-74295000D03*
X50800000Y-71755000D03*
X50800000Y-69215000D03*
X50800000Y-66675000D03*
X50800000Y-64135000D03*
X50800000Y-61595000D03*
X109093000Y-28067000D03*
X109093000Y-30607000D03*
D17*
X109093000Y-33147000D03*
D18*
X109093000Y-35687000D03*
X109093000Y-38227000D03*
X109093000Y-40767000D03*
D29*
X78740000Y-35560000D03*
D30*
X78740000Y-38100000D03*
X78740000Y-40640000D03*
X78740000Y-43180000D03*
X78740000Y-45720000D03*
X78740000Y-48260000D03*
X78740000Y-50800000D03*
X78740000Y-53340000D03*
D29*
X81280000Y-35560000D03*
D30*
X81280000Y-38100000D03*
X81280000Y-40640000D03*
X81280000Y-43180000D03*
X81280000Y-45720000D03*
X81280000Y-48260000D03*
X81280000Y-50800000D03*
X81280000Y-53340000D03*
D31*
X29527500Y-68580000D03*
X29527500Y-67929760D03*
X29527500Y-67279520D03*
X29527500Y-69230240D03*
X29527500Y-69880480D03*
D32*
X29273500Y-71755000D03*
X29273500Y-65405000D03*
D33*
X26860500Y-69786500D03*
X26860500Y-67373500D03*
D34*
X26860500Y-71882000D03*
X26860500Y-65278000D03*
D18*
X95440500Y-52832000D03*
X92900500Y-52832000D03*
X95440500Y-50292000D03*
X92900500Y-50292000D03*
X95440500Y-47752000D03*
D17*
X92900500Y-47752000D03*
D35*
X62611000Y-74930000D03*
D36*
X64960500Y-74930000D03*
D37*
X33274000Y-72263000D03*
D38*
X39370000Y-72263000D03*
D39*
X36449000Y-77343000D03*
D18*
X27178000Y-30226000D03*
X27178000Y-27686000D03*
X29718000Y-30226000D03*
X29718000Y-27686000D03*
X32258000Y-30226000D03*
D17*
X32258000Y-27686000D03*
D18*
X34798000Y-30226000D03*
X34798000Y-27686000D03*
X37338000Y-30226000D03*
X37338000Y-27686000D03*
X39878000Y-30226000D03*
X39878000Y-27686000D03*
X42418000Y-30226000D03*
X42418000Y-27686000D03*
X44958000Y-30226000D03*
X44958000Y-27686000D03*
X47498000Y-30226000D03*
X47498000Y-27686000D03*
X50038000Y-30226000D03*
X50038000Y-27686000D03*
X52578000Y-30226000D03*
X52578000Y-27686000D03*
X55118000Y-30226000D03*
X55118000Y-27686000D03*
X57658000Y-30226000D03*
X57658000Y-27686000D03*
X87820500Y-47752000D03*
X87820500Y-50292000D03*
X87820500Y-52832000D03*
X105600500Y-73977500D03*
X103060500Y-73977500D03*
X100520500Y-73977500D03*
X97980500Y-73977500D03*
X95440500Y-73977500D03*
X92900500Y-73977500D03*
D17*
X105600500Y-71437500D03*
X103060500Y-71437500D03*
X100520500Y-71437500D03*
X97980500Y-71437500D03*
X95440500Y-71437500D03*
X92900500Y-71437500D03*
D40*
X30353000Y-50990500D03*
X27813000Y-50990500D03*
X29083000Y-54038500D03*
D41*
X27813000Y-52514500D03*
X29083000Y-52514500D03*
X30353000Y-52514500D03*
D17*
X105600500Y-35052000D03*
X103060500Y-35052000D03*
D18*
X100520500Y-35052000D03*
X97980500Y-35052000D03*
X95440500Y-35052000D03*
X92900500Y-35052000D03*
X105600500Y-76517500D03*
X103060500Y-76517500D03*
X100520500Y-76517500D03*
X92900500Y-76517500D03*
X95440500Y-76517500D03*
X97980500Y-76517500D03*
X87820500Y-76517500D03*
D17*
X85280500Y-76517500D03*
X82740500Y-76517500D03*
D18*
X77660500Y-76517500D03*
X75120500Y-76517500D03*
X105600500Y-28257500D03*
X103060500Y-28257500D03*
X100520500Y-28257500D03*
X97980500Y-28257500D03*
X95440500Y-28257500D03*
X92900500Y-28257500D03*
X90360500Y-28257500D03*
X87820500Y-28257500D03*
X83756500Y-28257500D03*
X81216500Y-28257500D03*
X78676500Y-28257500D03*
X76136500Y-28257500D03*
X73596500Y-28257500D03*
X71056500Y-28257500D03*
D17*
X68516500Y-28257500D03*
D18*
X65976500Y-28257500D03*
X80200500Y-76517500D03*
D42*
X56070500Y-76517500D03*
D43*
X108140500Y-71437500D03*
D18*
X72580500Y-76517500D03*
X70040500Y-76517500D03*
X63436500Y-28257500D03*
X60896500Y-28257500D03*
D44*
X94996000Y-58356500D03*
X92456000Y-58356500D03*
X89916000Y-58356500D03*
X87376000Y-58356500D03*
X84836000Y-58356500D03*
X82296000Y-58356500D03*
D45*
X79756000Y-58356500D03*
D44*
X77216000Y-58356500D03*
X74676000Y-58356500D03*
X72136000Y-58356500D03*
X69596000Y-58356500D03*
X67056000Y-58356500D03*
X64516000Y-58356500D03*
X97536000Y-58356500D03*
X64516000Y-65976500D03*
X67056000Y-65976500D03*
X69596000Y-65976500D03*
X72136000Y-65976500D03*
X74676000Y-65976500D03*
X77216000Y-65976500D03*
X79756000Y-65976500D03*
D45*
X82296000Y-65976500D03*
D44*
X84836000Y-65976500D03*
X87376000Y-65976500D03*
X89916000Y-65976500D03*
X92456000Y-65976500D03*
X94996000Y-65976500D03*
X97536000Y-65976500D03*
M02*
