G04 #@! TF.FileFunction,Soldermask,Bot*
%FSLAX46Y46*%
G04 Gerber Fmt 4.6, Leading zero omitted, Abs format (unit mm)*
G04 Created by KiCad (PCBNEW (after 2015-may-25 BZR unknown)-product) date 31/07/2015 1:32:04 PM*
%MOMM*%
G01*
G04 APERTURE LIST*
%ADD10C,0.150000*%
%ADD11C,0.025400*%
%ADD12C,2.032000*%
%ADD13O,2.032000X3.048000*%
%ADD14C,2.286000*%
%ADD15R,2.286000X2.286000*%
%ADD16C,1.905000*%
%ADD17R,2.032000X2.032000*%
%ADD18C,4.318000*%
%ADD19R,4.318000X4.318000*%
%ADD20R,3.048000X3.048000*%
%ADD21C,3.048000*%
%ADD22C,4.572000*%
%ADD23R,2.608580X2.608580*%
%ADD24R,2.407920X2.407920*%
%ADD25C,1.557020*%
%ADD26C,3.810000*%
%ADD27C,4.292600*%
G04 APERTURE END LIST*
D10*
D11*
X73806666Y-54360000D02*
G75*
G03X73806666Y-54360000I-1666666J0D01*
G01*
X69640000Y-54360000D02*
X74640000Y-54360000D01*
X72140000Y-51860000D02*
X72140000Y-56860000D01*
X73806666Y-54360000D02*
G75*
G03X73806666Y-54360000I-1666666J0D01*
G01*
X69640000Y-54360000D02*
X74640000Y-54360000D01*
X72140000Y-51860000D02*
X72140000Y-56860000D01*
X73806666Y-54360000D02*
G75*
G03X73806666Y-54360000I-1666666J0D01*
G01*
X69640000Y-54360000D02*
X74640000Y-54360000D01*
X72140000Y-51860000D02*
X72140000Y-56860000D01*
X73806666Y-54360000D02*
G75*
G03X73806666Y-54360000I-1666666J0D01*
G01*
X69640000Y-54360000D02*
X74640000Y-54360000D01*
X72140000Y-51860000D02*
X72140000Y-56860000D01*
X73806666Y-54360000D02*
G75*
G03X73806666Y-54360000I-1666666J0D01*
G01*
X69640000Y-54360000D02*
X74640000Y-54360000D01*
X72140000Y-51860000D02*
X72140000Y-56860000D01*
X71755000Y-53975000D02*
X71755000Y-153670000D01*
X171450000Y-53975000D02*
X71755000Y-53975000D01*
X171450000Y-153670000D02*
X171450000Y-53975000D01*
X71755000Y-153670000D02*
X171450000Y-153670000D01*
D12*
X104775000Y-99060000D03*
X102235000Y-101600000D03*
X102235000Y-106680000D03*
X102235000Y-104140000D03*
X102235000Y-109220000D03*
X102235000Y-99060000D03*
X102235000Y-111760000D03*
X99695000Y-111760000D03*
X99695000Y-99060000D03*
X99695000Y-109220000D03*
X99695000Y-104140000D03*
X99695000Y-106680000D03*
X99695000Y-101600000D03*
X97155000Y-101600000D03*
X97155000Y-106680000D03*
X97155000Y-104140000D03*
X97155000Y-109220000D03*
X97155000Y-99060000D03*
X97155000Y-111760000D03*
D13*
X158115000Y-116840000D03*
X163195000Y-116840000D03*
X160655000Y-116840000D03*
X155575000Y-116840000D03*
X153035000Y-116840000D03*
X150495000Y-116840000D03*
X142875000Y-116840000D03*
X145415000Y-116840000D03*
X147955000Y-116840000D03*
X140335000Y-116840000D03*
X137795000Y-116840000D03*
X135255000Y-116840000D03*
X120015000Y-116840000D03*
X122555000Y-116840000D03*
X125095000Y-116840000D03*
X132715000Y-116840000D03*
X130175000Y-116840000D03*
X127635000Y-116840000D03*
X117475000Y-116840000D03*
X114935000Y-116840000D03*
X112395000Y-116840000D03*
X109855000Y-116840000D03*
X97155000Y-116840000D03*
X99695000Y-116840000D03*
X102235000Y-116840000D03*
X104775000Y-116840000D03*
X107315000Y-116840000D03*
X107315000Y-93980000D03*
X104775000Y-93980000D03*
X102235000Y-93980000D03*
X99695000Y-93980000D03*
X97155000Y-93980000D03*
X109855000Y-93980000D03*
X112395000Y-93980000D03*
X114935000Y-93980000D03*
X117475000Y-93980000D03*
X127635000Y-93980000D03*
X130175000Y-93980000D03*
X132715000Y-93980000D03*
X125095000Y-93980000D03*
X122555000Y-93980000D03*
X120015000Y-93980000D03*
X135255000Y-93980000D03*
X137795000Y-93980000D03*
X140335000Y-93980000D03*
X147955000Y-93980000D03*
X145415000Y-93980000D03*
X142875000Y-93980000D03*
X150495000Y-93980000D03*
X153035000Y-93980000D03*
X155575000Y-93980000D03*
X160655000Y-93980000D03*
X163195000Y-93980000D03*
X158115000Y-93980000D03*
D14*
X99314000Y-137795000D03*
X96774000Y-137795000D03*
D15*
X94234000Y-137795000D03*
D14*
X127381000Y-137795000D03*
X124841000Y-137795000D03*
D15*
X122301000Y-137795000D03*
D14*
X143256000Y-137795000D03*
X140716000Y-137795000D03*
D15*
X138176000Y-137795000D03*
D14*
X159131000Y-137795000D03*
X156591000Y-137795000D03*
D15*
X154051000Y-137795000D03*
D16*
X155575000Y-86360000D03*
X155575000Y-81280000D03*
X163195000Y-86360000D03*
X163195000Y-81280000D03*
X105410000Y-123190000D03*
X105410000Y-128270000D03*
X97790000Y-123190000D03*
X97790000Y-128270000D03*
D12*
X97790000Y-63817500D03*
X95250000Y-63817500D03*
X92710000Y-63817500D03*
X90170000Y-63817500D03*
X87630000Y-63817500D03*
X85090000Y-63817500D03*
X82550000Y-63817500D03*
X80010000Y-63817500D03*
X80010000Y-76517500D03*
X82550000Y-76517500D03*
X85090000Y-76517500D03*
X87630000Y-76517500D03*
X90170000Y-76517500D03*
X92710000Y-76517500D03*
X95250000Y-76517500D03*
X97790000Y-76517500D03*
X143510000Y-63817500D03*
X140970000Y-63817500D03*
X138430000Y-63817500D03*
X135890000Y-63817500D03*
X133350000Y-63817500D03*
X130810000Y-63817500D03*
X128270000Y-63817500D03*
X125730000Y-63817500D03*
X125730000Y-76517500D03*
X128270000Y-76517500D03*
X130810000Y-76517500D03*
X133350000Y-76517500D03*
X135890000Y-76517500D03*
X138430000Y-76517500D03*
X140970000Y-76517500D03*
X143510000Y-76517500D03*
X166370000Y-63817500D03*
X163830000Y-63817500D03*
X161290000Y-63817500D03*
X158750000Y-63817500D03*
X156210000Y-63817500D03*
X153670000Y-63817500D03*
X151130000Y-63817500D03*
X148590000Y-63817500D03*
X148590000Y-76517500D03*
X151130000Y-76517500D03*
X153670000Y-76517500D03*
X156210000Y-76517500D03*
X158750000Y-76517500D03*
X161290000Y-76517500D03*
X163830000Y-76517500D03*
X166370000Y-76517500D03*
X79692500Y-83502500D03*
X79692500Y-86042500D03*
X79692500Y-88582500D03*
X79692500Y-91122500D03*
X79692500Y-93662500D03*
X79692500Y-96202500D03*
X79692500Y-98742500D03*
X79692500Y-101282500D03*
X92392500Y-101282500D03*
X92392500Y-98742500D03*
X92392500Y-96202500D03*
X92392500Y-93662500D03*
X92392500Y-91122500D03*
X92392500Y-88582500D03*
X92392500Y-86042500D03*
X92392500Y-83502500D03*
X120650000Y-63817500D03*
X118110000Y-63817500D03*
X115570000Y-63817500D03*
X113030000Y-63817500D03*
X110490000Y-63817500D03*
X107950000Y-63817500D03*
X105410000Y-63817500D03*
X102870000Y-63817500D03*
X102870000Y-76517500D03*
X105410000Y-76517500D03*
X107950000Y-76517500D03*
X110490000Y-76517500D03*
X113030000Y-76517500D03*
X115570000Y-76517500D03*
X118110000Y-76517500D03*
X120650000Y-76517500D03*
D17*
X162560000Y-57785000D03*
D12*
X160020000Y-57785000D03*
X157480000Y-57785000D03*
X154940000Y-57785000D03*
D17*
X74930000Y-88582500D03*
D12*
X74930000Y-91122500D03*
X74930000Y-93662500D03*
X74930000Y-96202500D03*
D17*
X119380000Y-58102500D03*
D12*
X116840000Y-58102500D03*
X114300000Y-58102500D03*
X111760000Y-58102500D03*
D17*
X107137200Y-86106000D03*
D12*
X104597200Y-86106000D03*
X102057200Y-86106000D03*
X99517200Y-86106000D03*
D17*
X140970000Y-58102500D03*
D12*
X138430000Y-58102500D03*
X135890000Y-58102500D03*
X133350000Y-58102500D03*
D17*
X97472500Y-58102500D03*
D12*
X94932500Y-58102500D03*
X92392500Y-58102500D03*
X89852500Y-58102500D03*
D17*
X105410000Y-73342500D03*
D12*
X105410000Y-70802500D03*
X107950000Y-73342500D03*
X107950000Y-70802500D03*
X110490000Y-73342500D03*
X110490000Y-70802500D03*
D17*
X82550000Y-73342500D03*
D12*
X82550000Y-70802500D03*
X85090000Y-73342500D03*
X85090000Y-70802500D03*
X87630000Y-73342500D03*
X87630000Y-70802500D03*
D17*
X128270000Y-73342500D03*
D12*
X128270000Y-70802500D03*
X130810000Y-73342500D03*
X130810000Y-70802500D03*
X133350000Y-73342500D03*
X133350000Y-70802500D03*
D17*
X151130000Y-73342500D03*
D12*
X151130000Y-70802500D03*
X153670000Y-73342500D03*
X153670000Y-70802500D03*
X156210000Y-73342500D03*
X156210000Y-70802500D03*
D17*
X89217500Y-98742500D03*
D12*
X86677500Y-98742500D03*
X89217500Y-96202500D03*
X86677500Y-96202500D03*
X89217500Y-93662500D03*
X86677500Y-93662500D03*
D17*
X160477200Y-120192800D03*
D12*
X157937200Y-120192800D03*
X155397200Y-120192800D03*
D18*
X76200000Y-135636000D03*
X76200000Y-130556000D03*
D19*
X76200000Y-140716000D03*
D18*
X76200000Y-125476000D03*
D20*
X159131000Y-146685000D03*
D21*
X154051000Y-146685000D03*
D20*
X99314000Y-146685000D03*
D21*
X94234000Y-146685000D03*
D20*
X127381000Y-146685000D03*
D21*
X122301000Y-146685000D03*
D20*
X143256000Y-146685000D03*
D21*
X138176000Y-146685000D03*
D22*
X74930000Y-150495000D03*
X74930000Y-57150000D03*
X168275000Y-57150000D03*
X168275000Y-150495000D03*
D17*
X147701000Y-148717000D03*
D12*
X147701000Y-138557000D03*
D17*
X163576000Y-148717000D03*
D12*
X163576000Y-138557000D03*
D17*
X131826000Y-148717000D03*
D12*
X131826000Y-138557000D03*
D17*
X103759000Y-148717000D03*
D12*
X103759000Y-138557000D03*
D14*
X85852000Y-127000000D03*
X88392000Y-127000000D03*
D15*
X90932000Y-127000000D03*
D17*
X135788400Y-123444000D03*
D12*
X138328400Y-123444000D03*
X140868400Y-123444000D03*
X143408400Y-123444000D03*
D23*
X169989500Y-124264420D03*
D24*
X169989500Y-115765580D03*
D25*
X166989760Y-117764560D03*
X166989760Y-122265440D03*
D16*
X117310000Y-123160000D03*
X117310000Y-128240000D03*
X109690000Y-123160000D03*
X109690000Y-128240000D03*
D17*
X104648000Y-83566000D03*
D12*
X107188000Y-83566000D03*
X109728000Y-83566000D03*
X112268000Y-83566000D03*
D17*
X127508000Y-86106000D03*
D12*
X127508000Y-83566000D03*
D17*
X124968000Y-86106000D03*
D12*
X124968000Y-83566000D03*
D17*
X122428000Y-86106000D03*
D12*
X122428000Y-83566000D03*
D17*
X130403600Y-124104400D03*
D12*
X130403600Y-126644400D03*
X127863600Y-124104400D03*
X127863600Y-126644400D03*
X125323600Y-124104400D03*
X125323600Y-126644400D03*
D17*
X138887200Y-86410800D03*
D12*
X136347200Y-86410800D03*
X133807200Y-86410800D03*
X131267200Y-86410800D03*
D26*
X84886800Y-145034000D03*
X88341200Y-137414000D03*
D27*
X86614000Y-141224000D03*
D26*
X111556800Y-145034000D03*
X115011200Y-137414000D03*
D27*
X113284000Y-141224000D03*
D17*
X82651600Y-106019600D03*
D12*
X82651600Y-108559600D03*
X82651600Y-111099600D03*
D17*
X92811600Y-106019600D03*
D12*
X92811600Y-108559600D03*
X92811600Y-111099600D03*
D17*
X87731600Y-106019600D03*
D12*
X87731600Y-108559600D03*
X87731600Y-111099600D03*
D17*
X80111600Y-106019600D03*
D12*
X80111600Y-108559600D03*
X80111600Y-111099600D03*
D17*
X90271600Y-106019600D03*
D12*
X90271600Y-108559600D03*
X90271600Y-111099600D03*
D17*
X85191600Y-106019600D03*
D12*
X85191600Y-108559600D03*
X85191600Y-111099600D03*
D14*
X162966400Y-125171200D03*
X160426400Y-125171200D03*
D15*
X157886400Y-125171200D03*
M02*
