%FSLAX45Y45*%
G04 Gerber Fmt 4.5, Leading zero omitted, Abs format (unit mm)*
G04 Created by KiCad (PCBNEW (after 2015-may-25 BZR unknown)-product) date 30/07/2015 9:42:17 AM*
%MOMM*%
G01*
G04 APERTURE LIST*
%ADD10C,0.127000*%
%ADD11C,0.025400*%
%ADD12C,0.200000*%
%ADD13C,0.300000*%
G04 APERTURE END LIST*
D10*
D11*
X7175500Y-5397500D02*
X7175500Y-15367000D01*
X17145000Y-5397500D02*
X7175500Y-5397500D01*
X17145000Y-15367000D02*
X17145000Y-5397500D01*
X7175500Y-15367000D02*
X17145000Y-15367000D01*
D12*
X9264650Y-11601450D02*
X9328150Y-11664950D01*
X9328150Y-11601450D02*
X9264650Y-11664950D01*
X9982200Y-13049250D02*
X10045700Y-13112750D01*
X10045700Y-13049250D02*
X9982200Y-13112750D01*
X10875010Y-11337290D02*
X10938510Y-11400790D01*
X10938510Y-11337290D02*
X10875010Y-11400790D01*
X11647170Y-8147050D02*
X11710670Y-8210550D01*
X11710670Y-8147050D02*
X11647170Y-8210550D01*
X11769090Y-10778490D02*
X11832590Y-10841990D01*
X11832590Y-10778490D02*
X11769090Y-10841990D01*
X12094210Y-11225530D02*
X12157710Y-11289030D01*
X12157710Y-11225530D02*
X12094210Y-11289030D01*
X12801600Y-13049250D02*
X12865100Y-13112750D01*
X12865100Y-13049250D02*
X12801600Y-13112750D01*
X13115290Y-9142730D02*
X13178790Y-9206230D01*
X13178790Y-9142730D02*
X13115290Y-9206230D01*
X13430250Y-11987530D02*
X13493750Y-12051030D01*
X13493750Y-11987530D02*
X13430250Y-12051030D01*
X14314170Y-8233410D02*
X14377670Y-8296910D01*
X14377670Y-8233410D02*
X14314170Y-8296910D01*
X14389100Y-13049250D02*
X14452600Y-13112750D01*
X14452600Y-13049250D02*
X14389100Y-13112750D01*
X15030450Y-9721850D02*
X15093950Y-9785350D01*
X15093950Y-9721850D02*
X15030450Y-9785350D01*
X15731490Y-8406130D02*
X15794990Y-8469630D01*
X15794990Y-8406130D02*
X15731490Y-8469630D01*
X15970250Y-13049250D02*
X16033750Y-13112750D01*
X16033750Y-13049250D02*
X15970250Y-13112750D01*
X16122650Y-8406130D02*
X16186150Y-8469630D01*
X16186150Y-8406130D02*
X16122650Y-8469630D01*
X16341090Y-8949690D02*
X16404590Y-9013190D01*
X16404590Y-8949690D02*
X16341090Y-9013190D01*
X16910050Y-8959850D02*
X16973550Y-9023350D01*
X16973550Y-8959850D02*
X16910050Y-9023350D01*
X16731488Y-11776456D02*
G75*
G03X16731488Y-11776456I-32512J0D01*
G01*
X16731488Y-12226544D02*
G75*
G03X16731488Y-12226544I-32512J0D01*
G01*
X7969250Y-8309610D02*
X7969250Y-8390890D01*
X7928610Y-8350250D02*
X8009890Y-8350250D01*
X7969250Y-8563610D02*
X7969250Y-8644890D01*
X7928610Y-8604250D02*
X8009890Y-8604250D01*
X7969250Y-8817610D02*
X7969250Y-8898890D01*
X7928610Y-8858250D02*
X8009890Y-8858250D01*
X7969250Y-9071610D02*
X7969250Y-9152890D01*
X7928610Y-9112250D02*
X8009890Y-9112250D01*
X7969250Y-9325610D02*
X7969250Y-9406890D01*
X7928610Y-9366250D02*
X8009890Y-9366250D01*
X7969250Y-9579610D02*
X7969250Y-9660890D01*
X7928610Y-9620250D02*
X8009890Y-9620250D01*
X7969250Y-9833610D02*
X7969250Y-9914890D01*
X7928610Y-9874250D02*
X8009890Y-9874250D01*
X7969250Y-10087610D02*
X7969250Y-10168890D01*
X7928610Y-10128250D02*
X8009890Y-10128250D01*
X8001000Y-6341110D02*
X8001000Y-6422390D01*
X7960360Y-6381750D02*
X8041640Y-6381750D01*
X8001000Y-7611110D02*
X8001000Y-7692390D01*
X7960360Y-7651750D02*
X8041640Y-7651750D01*
X8255000Y-6341110D02*
X8255000Y-6422390D01*
X8214360Y-6381750D02*
X8295640Y-6381750D01*
X8255000Y-7611110D02*
X8255000Y-7692390D01*
X8214360Y-7651750D02*
X8295640Y-7651750D01*
X8509000Y-6341110D02*
X8509000Y-6422390D01*
X8468360Y-6381750D02*
X8549640Y-6381750D01*
X8509000Y-7611110D02*
X8509000Y-7692390D01*
X8468360Y-7651750D02*
X8549640Y-7651750D01*
X8763000Y-6341110D02*
X8763000Y-6422390D01*
X8722360Y-6381750D02*
X8803640Y-6381750D01*
X8763000Y-7611110D02*
X8763000Y-7692390D01*
X8722360Y-7651750D02*
X8803640Y-7651750D01*
X9017000Y-6341110D02*
X9017000Y-6422390D01*
X8976360Y-6381750D02*
X9057640Y-6381750D01*
X9017000Y-7611110D02*
X9017000Y-7692390D01*
X8976360Y-7651750D02*
X9057640Y-7651750D01*
X9239250Y-8309610D02*
X9239250Y-8390890D01*
X9198610Y-8350250D02*
X9279890Y-8350250D01*
X9239250Y-8563610D02*
X9239250Y-8644890D01*
X9198610Y-8604250D02*
X9279890Y-8604250D01*
X9239250Y-8817610D02*
X9239250Y-8898890D01*
X9198610Y-8858250D02*
X9279890Y-8858250D01*
X9239250Y-9071610D02*
X9239250Y-9152890D01*
X9198610Y-9112250D02*
X9279890Y-9112250D01*
X9239250Y-9325610D02*
X9239250Y-9406890D01*
X9198610Y-9366250D02*
X9279890Y-9366250D01*
X9239250Y-9579610D02*
X9239250Y-9660890D01*
X9198610Y-9620250D02*
X9279890Y-9620250D01*
X9239250Y-9833610D02*
X9239250Y-9914890D01*
X9198610Y-9874250D02*
X9279890Y-9874250D01*
X9239250Y-10087610D02*
X9239250Y-10168890D01*
X9198610Y-10128250D02*
X9279890Y-10128250D01*
X9271000Y-6341110D02*
X9271000Y-6422390D01*
X9230360Y-6381750D02*
X9311640Y-6381750D01*
X9271000Y-7611110D02*
X9271000Y-7692390D01*
X9230360Y-7651750D02*
X9311640Y-7651750D01*
X9525000Y-6341110D02*
X9525000Y-6422390D01*
X9484360Y-6381750D02*
X9565640Y-6381750D01*
X9525000Y-7611110D02*
X9525000Y-7692390D01*
X9484360Y-7651750D02*
X9565640Y-7651750D01*
X9779000Y-6341110D02*
X9779000Y-6422390D01*
X9738360Y-6381750D02*
X9819640Y-6381750D01*
X9779000Y-7611110D02*
X9779000Y-7692390D01*
X9738360Y-7651750D02*
X9819640Y-7651750D01*
X9779000Y-12278360D02*
X9779000Y-12359640D01*
X9738360Y-12319000D02*
X9819640Y-12319000D01*
X9779000Y-12786360D02*
X9779000Y-12867640D01*
X9738360Y-12827000D02*
X9819640Y-12827000D01*
X10287000Y-6341110D02*
X10287000Y-6422390D01*
X10246360Y-6381750D02*
X10327640Y-6381750D01*
X10287000Y-7611110D02*
X10287000Y-7692390D01*
X10246360Y-7651750D02*
X10327640Y-7651750D01*
X10541000Y-6341110D02*
X10541000Y-6422390D01*
X10500360Y-6381750D02*
X10581640Y-6381750D01*
X10541000Y-7611110D02*
X10541000Y-7692390D01*
X10500360Y-7651750D02*
X10581640Y-7651750D01*
X10541000Y-12278360D02*
X10541000Y-12359640D01*
X10500360Y-12319000D02*
X10581640Y-12319000D01*
X10541000Y-12786360D02*
X10541000Y-12867640D01*
X10500360Y-12827000D02*
X10581640Y-12827000D01*
X10795000Y-6341110D02*
X10795000Y-6422390D01*
X10754360Y-6381750D02*
X10835640Y-6381750D01*
X10795000Y-7611110D02*
X10795000Y-7692390D01*
X10754360Y-7651750D02*
X10835640Y-7651750D01*
X10969000Y-12275360D02*
X10969000Y-12356640D01*
X10928360Y-12316000D02*
X11009640Y-12316000D01*
X10969000Y-12783360D02*
X10969000Y-12864640D01*
X10928360Y-12824000D02*
X11009640Y-12824000D01*
X11049000Y-6341110D02*
X11049000Y-6422390D01*
X11008360Y-6381750D02*
X11089640Y-6381750D01*
X11049000Y-7611110D02*
X11049000Y-7692390D01*
X11008360Y-7651750D02*
X11089640Y-7651750D01*
X11303000Y-6341110D02*
X11303000Y-6422390D01*
X11262360Y-6381750D02*
X11343640Y-6381750D01*
X11303000Y-7611110D02*
X11303000Y-7692390D01*
X11262360Y-7651750D02*
X11343640Y-7651750D01*
X11557000Y-6341110D02*
X11557000Y-6422390D01*
X11516360Y-6381750D02*
X11597640Y-6381750D01*
X11557000Y-7611110D02*
X11557000Y-7692390D01*
X11516360Y-7651750D02*
X11597640Y-7651750D01*
X11731000Y-12275360D02*
X11731000Y-12356640D01*
X11690360Y-12316000D02*
X11771640Y-12316000D01*
X11731000Y-12783360D02*
X11731000Y-12864640D01*
X11690360Y-12824000D02*
X11771640Y-12824000D01*
X11811000Y-6341110D02*
X11811000Y-6422390D01*
X11770360Y-6381750D02*
X11851640Y-6381750D01*
X11811000Y-7611110D02*
X11811000Y-7692390D01*
X11770360Y-7651750D02*
X11851640Y-7651750D01*
X12065000Y-6341110D02*
X12065000Y-6422390D01*
X12024360Y-6381750D02*
X12105640Y-6381750D01*
X12065000Y-7611110D02*
X12065000Y-7692390D01*
X12024360Y-7651750D02*
X12105640Y-7651750D01*
X12573000Y-6341110D02*
X12573000Y-6422390D01*
X12532360Y-6381750D02*
X12613640Y-6381750D01*
X12573000Y-7611110D02*
X12573000Y-7692390D01*
X12532360Y-7651750D02*
X12613640Y-7651750D01*
X12827000Y-6341110D02*
X12827000Y-6422390D01*
X12786360Y-6381750D02*
X12867640Y-6381750D01*
X12827000Y-7611110D02*
X12827000Y-7692390D01*
X12786360Y-7651750D02*
X12867640Y-7651750D01*
X13081000Y-6341110D02*
X13081000Y-6422390D01*
X13040360Y-6381750D02*
X13121640Y-6381750D01*
X13081000Y-7611110D02*
X13081000Y-7692390D01*
X13040360Y-7651750D02*
X13121640Y-7651750D01*
X13335000Y-6341110D02*
X13335000Y-6422390D01*
X13294360Y-6381750D02*
X13375640Y-6381750D01*
X13335000Y-7611110D02*
X13335000Y-7692390D01*
X13294360Y-7651750D02*
X13375640Y-7651750D01*
X13589000Y-6341110D02*
X13589000Y-6422390D01*
X13548360Y-6381750D02*
X13629640Y-6381750D01*
X13589000Y-7611110D02*
X13589000Y-7692390D01*
X13548360Y-7651750D02*
X13629640Y-7651750D01*
X13843000Y-6341110D02*
X13843000Y-6422390D01*
X13802360Y-6381750D02*
X13883640Y-6381750D01*
X13843000Y-7611110D02*
X13843000Y-7692390D01*
X13802360Y-7651750D02*
X13883640Y-7651750D01*
X14097000Y-6341110D02*
X14097000Y-6422390D01*
X14056360Y-6381750D02*
X14137640Y-6381750D01*
X14097000Y-7611110D02*
X14097000Y-7692390D01*
X14056360Y-7651750D02*
X14137640Y-7651750D01*
X14351000Y-6341110D02*
X14351000Y-6422390D01*
X14310360Y-6381750D02*
X14391640Y-6381750D01*
X14351000Y-7611110D02*
X14351000Y-7692390D01*
X14310360Y-7651750D02*
X14391640Y-7651750D01*
X14859000Y-6341110D02*
X14859000Y-6422390D01*
X14818360Y-6381750D02*
X14899640Y-6381750D01*
X14859000Y-7611110D02*
X14859000Y-7692390D01*
X14818360Y-7651750D02*
X14899640Y-7651750D01*
X15113000Y-6341110D02*
X15113000Y-6422390D01*
X15072360Y-6381750D02*
X15153640Y-6381750D01*
X15113000Y-7611110D02*
X15113000Y-7692390D01*
X15072360Y-7651750D02*
X15153640Y-7651750D01*
X15367000Y-6341110D02*
X15367000Y-6422390D01*
X15326360Y-6381750D02*
X15407640Y-6381750D01*
X15367000Y-7611110D02*
X15367000Y-7692390D01*
X15326360Y-7651750D02*
X15407640Y-7651750D01*
X15557500Y-8087360D02*
X15557500Y-8168640D01*
X15516860Y-8128000D02*
X15598140Y-8128000D01*
X15557500Y-8595360D02*
X15557500Y-8676640D01*
X15516860Y-8636000D02*
X15598140Y-8636000D01*
X15621000Y-6341110D02*
X15621000Y-6422390D01*
X15580360Y-6381750D02*
X15661640Y-6381750D01*
X15621000Y-7611110D02*
X15621000Y-7692390D01*
X15580360Y-7651750D02*
X15661640Y-7651750D01*
X15875000Y-6341110D02*
X15875000Y-6422390D01*
X15834360Y-6381750D02*
X15915640Y-6381750D01*
X15875000Y-7611110D02*
X15875000Y-7692390D01*
X15834360Y-7651750D02*
X15915640Y-7651750D01*
X16129000Y-6341110D02*
X16129000Y-6422390D01*
X16088360Y-6381750D02*
X16169640Y-6381750D01*
X16129000Y-7611110D02*
X16129000Y-7692390D01*
X16088360Y-7651750D02*
X16169640Y-7651750D01*
X16319500Y-8087360D02*
X16319500Y-8168640D01*
X16278860Y-8128000D02*
X16360140Y-8128000D01*
X16319500Y-8595360D02*
X16319500Y-8676640D01*
X16278860Y-8636000D02*
X16360140Y-8636000D01*
X16383000Y-6341110D02*
X16383000Y-6422390D01*
X16342360Y-6381750D02*
X16423640Y-6381750D01*
X16383000Y-7611110D02*
X16383000Y-7692390D01*
X16342360Y-7651750D02*
X16423640Y-7651750D01*
X16637000Y-6341110D02*
X16637000Y-6422390D01*
X16596360Y-6381750D02*
X16677640Y-6381750D01*
X16637000Y-7611110D02*
X16637000Y-7692390D01*
X16596360Y-7651750D02*
X16677640Y-7651750D01*
X10407331Y-13887131D02*
X10407331Y-13824269D01*
X10344469Y-13824269D01*
X10344469Y-13887131D01*
X10407331Y-13887131D01*
X10407331Y-14903131D02*
X10407331Y-14840269D01*
X10344469Y-14840269D01*
X10344469Y-14903131D01*
X10407331Y-14903131D01*
X13214031Y-13887131D02*
X13214031Y-13824269D01*
X13151169Y-13824269D01*
X13151169Y-13887131D01*
X13214031Y-13887131D01*
X13214031Y-14903131D02*
X13214031Y-14840269D01*
X13151169Y-14840269D01*
X13151169Y-14903131D01*
X13214031Y-14903131D01*
X14801531Y-13887131D02*
X14801531Y-13824269D01*
X14738669Y-13824269D01*
X14738669Y-13887131D01*
X14801531Y-13887131D01*
X14801531Y-14903131D02*
X14801531Y-14840269D01*
X14738669Y-14840269D01*
X14738669Y-14903131D01*
X14801531Y-14903131D01*
X16389031Y-13887131D02*
X16389031Y-13824269D01*
X16326169Y-13824269D01*
X16326169Y-13887131D01*
X16389031Y-13887131D01*
X16389031Y-14903131D02*
X16389031Y-14840269D01*
X16326169Y-14840269D01*
X16326169Y-14903131D01*
X16389031Y-14903131D01*
X7493000Y-8909050D02*
X7543800Y-8858250D01*
X7493000Y-8807450D01*
X7442200Y-8858250D01*
X7493000Y-8909050D01*
X7493000Y-9163050D02*
X7543800Y-9112250D01*
X7493000Y-9061450D01*
X7442200Y-9112250D01*
X7493000Y-9163050D01*
X7493000Y-9417050D02*
X7543800Y-9366250D01*
X7493000Y-9315450D01*
X7442200Y-9366250D01*
X7493000Y-9417050D01*
X7493000Y-9671050D02*
X7543800Y-9620250D01*
X7493000Y-9569450D01*
X7442200Y-9620250D01*
X7493000Y-9671050D01*
X8011160Y-10652760D02*
X8061960Y-10601960D01*
X8011160Y-10551160D01*
X7960360Y-10601960D01*
X8011160Y-10652760D01*
X8011160Y-10906760D02*
X8061960Y-10855960D01*
X8011160Y-10805160D01*
X7960360Y-10855960D01*
X8011160Y-10906760D01*
X8011160Y-11160760D02*
X8061960Y-11109960D01*
X8011160Y-11059160D01*
X7960360Y-11109960D01*
X8011160Y-11160760D01*
X8255000Y-7131050D02*
X8305800Y-7080250D01*
X8255000Y-7029450D01*
X8204200Y-7080250D01*
X8255000Y-7131050D01*
X8255000Y-7385050D02*
X8305800Y-7334250D01*
X8255000Y-7283450D01*
X8204200Y-7334250D01*
X8255000Y-7385050D01*
X8265160Y-10652760D02*
X8315960Y-10601960D01*
X8265160Y-10551160D01*
X8214360Y-10601960D01*
X8265160Y-10652760D01*
X8265160Y-10906760D02*
X8315960Y-10855960D01*
X8265160Y-10805160D01*
X8214360Y-10855960D01*
X8265160Y-10906760D01*
X8265160Y-11160760D02*
X8315960Y-11109960D01*
X8265160Y-11059160D01*
X8214360Y-11109960D01*
X8265160Y-11160760D01*
X8509000Y-7131050D02*
X8559800Y-7080250D01*
X8509000Y-7029450D01*
X8458200Y-7080250D01*
X8509000Y-7131050D01*
X8509000Y-7385050D02*
X8559800Y-7334250D01*
X8509000Y-7283450D01*
X8458200Y-7334250D01*
X8509000Y-7385050D01*
X8519160Y-10652760D02*
X8569960Y-10601960D01*
X8519160Y-10551160D01*
X8468360Y-10601960D01*
X8519160Y-10652760D01*
X8519160Y-10906760D02*
X8569960Y-10855960D01*
X8519160Y-10805160D01*
X8468360Y-10855960D01*
X8519160Y-10906760D01*
X8519160Y-11160760D02*
X8569960Y-11109960D01*
X8519160Y-11059160D01*
X8468360Y-11109960D01*
X8519160Y-11160760D01*
X8585200Y-12750800D02*
X8636000Y-12700000D01*
X8585200Y-12649200D01*
X8534400Y-12700000D01*
X8585200Y-12750800D01*
X8667750Y-9417050D02*
X8718550Y-9366250D01*
X8667750Y-9315450D01*
X8616950Y-9366250D01*
X8667750Y-9417050D01*
X8667750Y-9671050D02*
X8718550Y-9620250D01*
X8667750Y-9569450D01*
X8616950Y-9620250D01*
X8667750Y-9671050D01*
X8667750Y-9925050D02*
X8718550Y-9874250D01*
X8667750Y-9823450D01*
X8616950Y-9874250D01*
X8667750Y-9925050D01*
X8763000Y-7131050D02*
X8813800Y-7080250D01*
X8763000Y-7029450D01*
X8712200Y-7080250D01*
X8763000Y-7131050D01*
X8763000Y-7385050D02*
X8813800Y-7334250D01*
X8763000Y-7283450D01*
X8712200Y-7334250D01*
X8763000Y-7385050D01*
X8773160Y-10652760D02*
X8823960Y-10601960D01*
X8773160Y-10551160D01*
X8722360Y-10601960D01*
X8773160Y-10652760D01*
X8773160Y-10906760D02*
X8823960Y-10855960D01*
X8773160Y-10805160D01*
X8722360Y-10855960D01*
X8773160Y-10906760D01*
X8773160Y-11160760D02*
X8823960Y-11109960D01*
X8773160Y-11059160D01*
X8722360Y-11109960D01*
X8773160Y-11160760D01*
X8839200Y-12750800D02*
X8890000Y-12700000D01*
X8839200Y-12649200D01*
X8788400Y-12700000D01*
X8839200Y-12750800D01*
X8921750Y-9417050D02*
X8972550Y-9366250D01*
X8921750Y-9315450D01*
X8870950Y-9366250D01*
X8921750Y-9417050D01*
X8921750Y-9671050D02*
X8972550Y-9620250D01*
X8921750Y-9569450D01*
X8870950Y-9620250D01*
X8921750Y-9671050D01*
X8921750Y-9925050D02*
X8972550Y-9874250D01*
X8921750Y-9823450D01*
X8870950Y-9874250D01*
X8921750Y-9925050D01*
X8985250Y-5861050D02*
X9036050Y-5810250D01*
X8985250Y-5759450D01*
X8934450Y-5810250D01*
X8985250Y-5861050D01*
X9027160Y-10652760D02*
X9077960Y-10601960D01*
X9027160Y-10551160D01*
X8976360Y-10601960D01*
X9027160Y-10652760D01*
X9027160Y-10906760D02*
X9077960Y-10855960D01*
X9027160Y-10805160D01*
X8976360Y-10855960D01*
X9027160Y-10906760D01*
X9027160Y-11160760D02*
X9077960Y-11109960D01*
X9027160Y-11059160D01*
X8976360Y-11109960D01*
X9027160Y-11160760D01*
X9093200Y-12750800D02*
X9144000Y-12700000D01*
X9093200Y-12649200D01*
X9042400Y-12700000D01*
X9093200Y-12750800D01*
X9239250Y-5861050D02*
X9290050Y-5810250D01*
X9239250Y-5759450D01*
X9188450Y-5810250D01*
X9239250Y-5861050D01*
X9281160Y-10652760D02*
X9331960Y-10601960D01*
X9281160Y-10551160D01*
X9230360Y-10601960D01*
X9281160Y-10652760D01*
X9281160Y-10906760D02*
X9331960Y-10855960D01*
X9281160Y-10805160D01*
X9230360Y-10855960D01*
X9281160Y-10906760D01*
X9281160Y-11160760D02*
X9331960Y-11109960D01*
X9281160Y-11059160D01*
X9230360Y-11109960D01*
X9281160Y-11160760D01*
X9423400Y-13830300D02*
X9474200Y-13779500D01*
X9423400Y-13728700D01*
X9372600Y-13779500D01*
X9423400Y-13830300D01*
X9493250Y-5861050D02*
X9544050Y-5810250D01*
X9493250Y-5759450D01*
X9442450Y-5810250D01*
X9493250Y-5861050D01*
X9677400Y-13830300D02*
X9728200Y-13779500D01*
X9677400Y-13728700D01*
X9626600Y-13779500D01*
X9677400Y-13830300D01*
X9715500Y-9448800D02*
X9766300Y-9398000D01*
X9715500Y-9347200D01*
X9664700Y-9398000D01*
X9715500Y-9448800D01*
X9715500Y-9956800D02*
X9766300Y-9906000D01*
X9715500Y-9855200D01*
X9664700Y-9906000D01*
X9715500Y-9956800D01*
X9715500Y-10210800D02*
X9766300Y-10160000D01*
X9715500Y-10109200D01*
X9664700Y-10160000D01*
X9715500Y-10210800D01*
X9715500Y-10464800D02*
X9766300Y-10414000D01*
X9715500Y-10363200D01*
X9664700Y-10414000D01*
X9715500Y-10464800D01*
X9715500Y-10718800D02*
X9766300Y-10668000D01*
X9715500Y-10617200D01*
X9664700Y-10668000D01*
X9715500Y-10718800D01*
X9715500Y-10972800D02*
X9766300Y-10922000D01*
X9715500Y-10871200D01*
X9664700Y-10922000D01*
X9715500Y-10972800D01*
X9715500Y-11226800D02*
X9766300Y-11176000D01*
X9715500Y-11125200D01*
X9664700Y-11176000D01*
X9715500Y-11226800D01*
X9715500Y-11734800D02*
X9766300Y-11684000D01*
X9715500Y-11633200D01*
X9664700Y-11684000D01*
X9715500Y-11734800D01*
X9747250Y-5861050D02*
X9798050Y-5810250D01*
X9747250Y-5759450D01*
X9696450Y-5810250D01*
X9747250Y-5861050D01*
X9931400Y-13830300D02*
X9982200Y-13779500D01*
X9931400Y-13728700D01*
X9880600Y-13779500D01*
X9931400Y-13830300D01*
X9951720Y-8661400D02*
X10002520Y-8610600D01*
X9951720Y-8559800D01*
X9900920Y-8610600D01*
X9951720Y-8661400D01*
X9969500Y-9448800D02*
X10020300Y-9398000D01*
X9969500Y-9347200D01*
X9918700Y-9398000D01*
X9969500Y-9448800D01*
X9969500Y-9956800D02*
X10020300Y-9906000D01*
X9969500Y-9855200D01*
X9918700Y-9906000D01*
X9969500Y-9956800D01*
X9969500Y-10210800D02*
X10020300Y-10160000D01*
X9969500Y-10109200D01*
X9918700Y-10160000D01*
X9969500Y-10210800D01*
X9969500Y-10464800D02*
X10020300Y-10414000D01*
X9969500Y-10363200D01*
X9918700Y-10414000D01*
X9969500Y-10464800D01*
X9969500Y-10718800D02*
X10020300Y-10668000D01*
X9969500Y-10617200D01*
X9918700Y-10668000D01*
X9969500Y-10718800D01*
X9969500Y-10972800D02*
X10020300Y-10922000D01*
X9969500Y-10871200D01*
X9918700Y-10922000D01*
X9969500Y-10972800D01*
X9969500Y-11226800D02*
X10020300Y-11176000D01*
X9969500Y-11125200D01*
X9918700Y-11176000D01*
X9969500Y-11226800D01*
X9969500Y-11734800D02*
X10020300Y-11684000D01*
X9969500Y-11633200D01*
X9918700Y-11684000D01*
X9969500Y-11734800D01*
X10205720Y-8661400D02*
X10256520Y-8610600D01*
X10205720Y-8559800D01*
X10154920Y-8610600D01*
X10205720Y-8661400D01*
X10223500Y-9448800D02*
X10274300Y-9398000D01*
X10223500Y-9347200D01*
X10172700Y-9398000D01*
X10223500Y-9448800D01*
X10223500Y-9956800D02*
X10274300Y-9906000D01*
X10223500Y-9855200D01*
X10172700Y-9906000D01*
X10223500Y-9956800D01*
X10223500Y-10210800D02*
X10274300Y-10160000D01*
X10223500Y-10109200D01*
X10172700Y-10160000D01*
X10223500Y-10210800D01*
X10223500Y-10464800D02*
X10274300Y-10414000D01*
X10223500Y-10363200D01*
X10172700Y-10414000D01*
X10223500Y-10464800D01*
X10223500Y-10718800D02*
X10274300Y-10668000D01*
X10223500Y-10617200D01*
X10172700Y-10668000D01*
X10223500Y-10718800D01*
X10223500Y-10972800D02*
X10274300Y-10922000D01*
X10223500Y-10871200D01*
X10172700Y-10922000D01*
X10223500Y-10972800D01*
X10223500Y-11226800D02*
X10274300Y-11176000D01*
X10223500Y-11125200D01*
X10172700Y-11176000D01*
X10223500Y-11226800D01*
X10223500Y-11734800D02*
X10274300Y-11684000D01*
X10223500Y-11633200D01*
X10172700Y-11684000D01*
X10223500Y-11734800D01*
X10459720Y-8661400D02*
X10510520Y-8610600D01*
X10459720Y-8559800D01*
X10408920Y-8610600D01*
X10459720Y-8661400D01*
X10464800Y-8407400D02*
X10515600Y-8356600D01*
X10464800Y-8305800D01*
X10414000Y-8356600D01*
X10464800Y-8407400D01*
X10477500Y-9448800D02*
X10528300Y-9398000D01*
X10477500Y-9347200D01*
X10426700Y-9398000D01*
X10477500Y-9448800D01*
X10477500Y-9956800D02*
X10528300Y-9906000D01*
X10477500Y-9855200D01*
X10426700Y-9906000D01*
X10477500Y-9956800D01*
X10477500Y-11734800D02*
X10528300Y-11684000D01*
X10477500Y-11633200D01*
X10426700Y-11684000D01*
X10477500Y-11734800D01*
X10541000Y-7131050D02*
X10591800Y-7080250D01*
X10541000Y-7029450D01*
X10490200Y-7080250D01*
X10541000Y-7131050D01*
X10541000Y-7385050D02*
X10591800Y-7334250D01*
X10541000Y-7283450D01*
X10490200Y-7334250D01*
X10541000Y-7385050D01*
X10713720Y-8661400D02*
X10764520Y-8610600D01*
X10713720Y-8559800D01*
X10662920Y-8610600D01*
X10713720Y-8661400D01*
X10718800Y-8407400D02*
X10769600Y-8356600D01*
X10718800Y-8305800D01*
X10668000Y-8356600D01*
X10718800Y-8407400D01*
X10731500Y-9448800D02*
X10782300Y-9398000D01*
X10731500Y-9347200D01*
X10680700Y-9398000D01*
X10731500Y-9448800D01*
X10731500Y-11734800D02*
X10782300Y-11684000D01*
X10731500Y-11633200D01*
X10680700Y-11684000D01*
X10731500Y-11734800D01*
X10795000Y-7131050D02*
X10845800Y-7080250D01*
X10795000Y-7029450D01*
X10744200Y-7080250D01*
X10795000Y-7131050D01*
X10795000Y-7385050D02*
X10845800Y-7334250D01*
X10795000Y-7283450D01*
X10744200Y-7334250D01*
X10795000Y-7385050D01*
X10972800Y-8407400D02*
X11023600Y-8356600D01*
X10972800Y-8305800D01*
X10922000Y-8356600D01*
X10972800Y-8407400D01*
X10985500Y-9448800D02*
X11036300Y-9398000D01*
X10985500Y-9347200D01*
X10934700Y-9398000D01*
X10985500Y-9448800D01*
X10985500Y-11734800D02*
X11036300Y-11684000D01*
X10985500Y-11633200D01*
X10934700Y-11684000D01*
X10985500Y-11734800D01*
X11049000Y-7131050D02*
X11099800Y-7080250D01*
X11049000Y-7029450D01*
X10998200Y-7080250D01*
X11049000Y-7131050D01*
X11049000Y-7385050D02*
X11099800Y-7334250D01*
X11049000Y-7283450D01*
X10998200Y-7334250D01*
X11049000Y-7385050D01*
X11176000Y-5861050D02*
X11226800Y-5810250D01*
X11176000Y-5759450D01*
X11125200Y-5810250D01*
X11176000Y-5861050D01*
X11226800Y-8407400D02*
X11277600Y-8356600D01*
X11226800Y-8305800D01*
X11176000Y-8356600D01*
X11226800Y-8407400D01*
X11239500Y-9448800D02*
X11290300Y-9398000D01*
X11239500Y-9347200D01*
X11188700Y-9398000D01*
X11239500Y-9448800D01*
X11239500Y-11734800D02*
X11290300Y-11684000D01*
X11239500Y-11633200D01*
X11188700Y-11684000D01*
X11239500Y-11734800D01*
X11430000Y-5861050D02*
X11480800Y-5810250D01*
X11430000Y-5759450D01*
X11379200Y-5810250D01*
X11430000Y-5861050D01*
X11493500Y-9448800D02*
X11544300Y-9398000D01*
X11493500Y-9347200D01*
X11442700Y-9398000D01*
X11493500Y-9448800D01*
X11493500Y-11734800D02*
X11544300Y-11684000D01*
X11493500Y-11633200D01*
X11442700Y-11684000D01*
X11493500Y-11734800D01*
X11684000Y-5861050D02*
X11734800Y-5810250D01*
X11684000Y-5759450D01*
X11633200Y-5810250D01*
X11684000Y-5861050D01*
X11747500Y-9448800D02*
X11798300Y-9398000D01*
X11747500Y-9347200D01*
X11696700Y-9398000D01*
X11747500Y-9448800D01*
X11747500Y-11734800D02*
X11798300Y-11684000D01*
X11747500Y-11633200D01*
X11696700Y-11684000D01*
X11747500Y-11734800D01*
X11938000Y-5861050D02*
X11988800Y-5810250D01*
X11938000Y-5759450D01*
X11887200Y-5810250D01*
X11938000Y-5861050D01*
X12001500Y-9448800D02*
X12052300Y-9398000D01*
X12001500Y-9347200D01*
X11950700Y-9398000D01*
X12001500Y-9448800D01*
X12001500Y-11734800D02*
X12052300Y-11684000D01*
X12001500Y-11633200D01*
X11950700Y-11684000D01*
X12001500Y-11734800D01*
X12230100Y-13830300D02*
X12280900Y-13779500D01*
X12230100Y-13728700D01*
X12179300Y-13779500D01*
X12230100Y-13830300D01*
X12242800Y-8407400D02*
X12293600Y-8356600D01*
X12242800Y-8305800D01*
X12192000Y-8356600D01*
X12242800Y-8407400D01*
X12242800Y-8661400D02*
X12293600Y-8610600D01*
X12242800Y-8559800D01*
X12192000Y-8610600D01*
X12242800Y-8661400D01*
X12255500Y-9448800D02*
X12306300Y-9398000D01*
X12255500Y-9347200D01*
X12204700Y-9398000D01*
X12255500Y-9448800D01*
X12255500Y-11734800D02*
X12306300Y-11684000D01*
X12255500Y-11633200D01*
X12204700Y-11684000D01*
X12255500Y-11734800D01*
X12484100Y-13830300D02*
X12534900Y-13779500D01*
X12484100Y-13728700D01*
X12433300Y-13779500D01*
X12484100Y-13830300D01*
X12496800Y-8407400D02*
X12547600Y-8356600D01*
X12496800Y-8305800D01*
X12446000Y-8356600D01*
X12496800Y-8407400D01*
X12496800Y-8661400D02*
X12547600Y-8610600D01*
X12496800Y-8559800D01*
X12446000Y-8610600D01*
X12496800Y-8661400D01*
X12509500Y-9448800D02*
X12560300Y-9398000D01*
X12509500Y-9347200D01*
X12458700Y-9398000D01*
X12509500Y-9448800D01*
X12509500Y-11734800D02*
X12560300Y-11684000D01*
X12509500Y-11633200D01*
X12458700Y-11684000D01*
X12509500Y-11734800D01*
X12532360Y-12461240D02*
X12583160Y-12410440D01*
X12532360Y-12359640D01*
X12481560Y-12410440D01*
X12532360Y-12461240D01*
X12532360Y-12715240D02*
X12583160Y-12664440D01*
X12532360Y-12613640D01*
X12481560Y-12664440D01*
X12532360Y-12715240D01*
X12738100Y-13830300D02*
X12788900Y-13779500D01*
X12738100Y-13728700D01*
X12687300Y-13779500D01*
X12738100Y-13830300D01*
X12750800Y-8407400D02*
X12801600Y-8356600D01*
X12750800Y-8305800D01*
X12700000Y-8356600D01*
X12750800Y-8407400D01*
X12750800Y-8661400D02*
X12801600Y-8610600D01*
X12750800Y-8559800D01*
X12700000Y-8610600D01*
X12750800Y-8661400D01*
X12763500Y-9448800D02*
X12814300Y-9398000D01*
X12763500Y-9347200D01*
X12712700Y-9398000D01*
X12763500Y-9448800D01*
X12763500Y-11734800D02*
X12814300Y-11684000D01*
X12763500Y-11633200D01*
X12712700Y-11684000D01*
X12763500Y-11734800D01*
X12786360Y-12461240D02*
X12837160Y-12410440D01*
X12786360Y-12359640D01*
X12735560Y-12410440D01*
X12786360Y-12461240D01*
X12786360Y-12715240D02*
X12837160Y-12664440D01*
X12786360Y-12613640D01*
X12735560Y-12664440D01*
X12786360Y-12715240D01*
X12827000Y-7131050D02*
X12877800Y-7080250D01*
X12827000Y-7029450D01*
X12776200Y-7080250D01*
X12827000Y-7131050D01*
X12827000Y-7385050D02*
X12877800Y-7334250D01*
X12827000Y-7283450D01*
X12776200Y-7334250D01*
X12827000Y-7385050D01*
X13017500Y-9448800D02*
X13068300Y-9398000D01*
X13017500Y-9347200D01*
X12966700Y-9398000D01*
X13017500Y-9448800D01*
X13017500Y-11734800D02*
X13068300Y-11684000D01*
X13017500Y-11633200D01*
X12966700Y-11684000D01*
X13017500Y-11734800D01*
X13040360Y-12461240D02*
X13091160Y-12410440D01*
X13040360Y-12359640D01*
X12989560Y-12410440D01*
X13040360Y-12461240D01*
X13040360Y-12715240D02*
X13091160Y-12664440D01*
X13040360Y-12613640D01*
X12989560Y-12664440D01*
X13040360Y-12715240D01*
X13081000Y-7131050D02*
X13131800Y-7080250D01*
X13081000Y-7029450D01*
X13030200Y-7080250D01*
X13081000Y-7131050D01*
X13081000Y-7385050D02*
X13131800Y-7334250D01*
X13081000Y-7283450D01*
X13030200Y-7334250D01*
X13081000Y-7385050D01*
X13126720Y-8691880D02*
X13177520Y-8641080D01*
X13126720Y-8590280D01*
X13075920Y-8641080D01*
X13126720Y-8691880D01*
X13271500Y-9448800D02*
X13322300Y-9398000D01*
X13271500Y-9347200D01*
X13220700Y-9398000D01*
X13271500Y-9448800D01*
X13271500Y-11734800D02*
X13322300Y-11684000D01*
X13271500Y-11633200D01*
X13220700Y-11684000D01*
X13271500Y-11734800D01*
X13335000Y-5861050D02*
X13385800Y-5810250D01*
X13335000Y-5759450D01*
X13284200Y-5810250D01*
X13335000Y-5861050D01*
X13335000Y-7131050D02*
X13385800Y-7080250D01*
X13335000Y-7029450D01*
X13284200Y-7080250D01*
X13335000Y-7131050D01*
X13335000Y-7385050D02*
X13385800Y-7334250D01*
X13335000Y-7283450D01*
X13284200Y-7334250D01*
X13335000Y-7385050D01*
X13380720Y-8691880D02*
X13431520Y-8641080D01*
X13380720Y-8590280D01*
X13329920Y-8641080D01*
X13380720Y-8691880D01*
X13525500Y-9448800D02*
X13576300Y-9398000D01*
X13525500Y-9347200D01*
X13474700Y-9398000D01*
X13525500Y-9448800D01*
X13525500Y-11734800D02*
X13576300Y-11684000D01*
X13525500Y-11633200D01*
X13474700Y-11684000D01*
X13525500Y-11734800D01*
X13578840Y-12395200D02*
X13629640Y-12344400D01*
X13578840Y-12293600D01*
X13528040Y-12344400D01*
X13578840Y-12395200D01*
X13589000Y-5861050D02*
X13639800Y-5810250D01*
X13589000Y-5759450D01*
X13538200Y-5810250D01*
X13589000Y-5861050D01*
X13634720Y-8691880D02*
X13685520Y-8641080D01*
X13634720Y-8590280D01*
X13583920Y-8641080D01*
X13634720Y-8691880D01*
X13779500Y-9448800D02*
X13830300Y-9398000D01*
X13779500Y-9347200D01*
X13728700Y-9398000D01*
X13779500Y-9448800D01*
X13779500Y-11734800D02*
X13830300Y-11684000D01*
X13779500Y-11633200D01*
X13728700Y-11684000D01*
X13779500Y-11734800D01*
X13817600Y-13830300D02*
X13868400Y-13779500D01*
X13817600Y-13728700D01*
X13766800Y-13779500D01*
X13817600Y-13830300D01*
X13832840Y-12395200D02*
X13883640Y-12344400D01*
X13832840Y-12293600D01*
X13782040Y-12344400D01*
X13832840Y-12395200D01*
X13843000Y-5861050D02*
X13893800Y-5810250D01*
X13843000Y-5759450D01*
X13792200Y-5810250D01*
X13843000Y-5861050D01*
X13888720Y-8691880D02*
X13939520Y-8641080D01*
X13888720Y-8590280D01*
X13837920Y-8641080D01*
X13888720Y-8691880D01*
X14033500Y-9448800D02*
X14084300Y-9398000D01*
X14033500Y-9347200D01*
X13982700Y-9398000D01*
X14033500Y-9448800D01*
X14033500Y-11734800D02*
X14084300Y-11684000D01*
X14033500Y-11633200D01*
X13982700Y-11684000D01*
X14033500Y-11734800D01*
X14071600Y-13830300D02*
X14122400Y-13779500D01*
X14071600Y-13728700D01*
X14020800Y-13779500D01*
X14071600Y-13830300D01*
X14086840Y-12395200D02*
X14137640Y-12344400D01*
X14086840Y-12293600D01*
X14036040Y-12344400D01*
X14086840Y-12395200D01*
X14097000Y-5861050D02*
X14147800Y-5810250D01*
X14097000Y-5759450D01*
X14046200Y-5810250D01*
X14097000Y-5861050D01*
X14287500Y-9448800D02*
X14338300Y-9398000D01*
X14287500Y-9347200D01*
X14236700Y-9398000D01*
X14287500Y-9448800D01*
X14287500Y-11734800D02*
X14338300Y-11684000D01*
X14287500Y-11633200D01*
X14236700Y-11684000D01*
X14287500Y-11734800D01*
X14325600Y-13830300D02*
X14376400Y-13779500D01*
X14325600Y-13728700D01*
X14274800Y-13779500D01*
X14325600Y-13830300D01*
X14340840Y-12395200D02*
X14391640Y-12344400D01*
X14340840Y-12293600D01*
X14290040Y-12344400D01*
X14340840Y-12395200D01*
X14541500Y-9448800D02*
X14592300Y-9398000D01*
X14541500Y-9347200D01*
X14490700Y-9398000D01*
X14541500Y-9448800D01*
X14541500Y-11734800D02*
X14592300Y-11684000D01*
X14541500Y-11633200D01*
X14490700Y-11684000D01*
X14541500Y-11734800D01*
X14795500Y-9448800D02*
X14846300Y-9398000D01*
X14795500Y-9347200D01*
X14744700Y-9398000D01*
X14795500Y-9448800D01*
X14795500Y-11734800D02*
X14846300Y-11684000D01*
X14795500Y-11633200D01*
X14744700Y-11684000D01*
X14795500Y-11734800D01*
X15049500Y-9448800D02*
X15100300Y-9398000D01*
X15049500Y-9347200D01*
X14998700Y-9398000D01*
X15049500Y-9448800D01*
X15049500Y-11734800D02*
X15100300Y-11684000D01*
X15049500Y-11633200D01*
X14998700Y-11684000D01*
X15049500Y-11734800D01*
X15113000Y-7131050D02*
X15163800Y-7080250D01*
X15113000Y-7029450D01*
X15062200Y-7080250D01*
X15113000Y-7131050D01*
X15113000Y-7385050D02*
X15163800Y-7334250D01*
X15113000Y-7283450D01*
X15062200Y-7334250D01*
X15113000Y-7385050D01*
X15303500Y-9448800D02*
X15354300Y-9398000D01*
X15303500Y-9347200D01*
X15252700Y-9398000D01*
X15303500Y-9448800D01*
X15303500Y-11734800D02*
X15354300Y-11684000D01*
X15303500Y-11633200D01*
X15252700Y-11684000D01*
X15303500Y-11734800D01*
X15367000Y-7131050D02*
X15417800Y-7080250D01*
X15367000Y-7029450D01*
X15316200Y-7080250D01*
X15367000Y-7131050D01*
X15367000Y-7385050D02*
X15417800Y-7334250D01*
X15367000Y-7283450D01*
X15316200Y-7334250D01*
X15367000Y-7385050D01*
X15405100Y-13830300D02*
X15455900Y-13779500D01*
X15405100Y-13728700D01*
X15354300Y-13779500D01*
X15405100Y-13830300D01*
X15494000Y-5829300D02*
X15544800Y-5778500D01*
X15494000Y-5727700D01*
X15443200Y-5778500D01*
X15494000Y-5829300D01*
X15539720Y-12070080D02*
X15590520Y-12019280D01*
X15539720Y-11968480D01*
X15488920Y-12019280D01*
X15539720Y-12070080D01*
X15557500Y-9448800D02*
X15608300Y-9398000D01*
X15557500Y-9347200D01*
X15506700Y-9398000D01*
X15557500Y-9448800D01*
X15557500Y-11734800D02*
X15608300Y-11684000D01*
X15557500Y-11633200D01*
X15506700Y-11684000D01*
X15557500Y-11734800D01*
X15621000Y-7131050D02*
X15671800Y-7080250D01*
X15621000Y-7029450D01*
X15570200Y-7080250D01*
X15621000Y-7131050D01*
X15621000Y-7385050D02*
X15671800Y-7334250D01*
X15621000Y-7283450D01*
X15570200Y-7334250D01*
X15621000Y-7385050D01*
X15659100Y-13830300D02*
X15709900Y-13779500D01*
X15659100Y-13728700D01*
X15608300Y-13779500D01*
X15659100Y-13830300D01*
X15748000Y-5829300D02*
X15798800Y-5778500D01*
X15748000Y-5727700D01*
X15697200Y-5778500D01*
X15748000Y-5829300D01*
X15788640Y-12567920D02*
X15839440Y-12517120D01*
X15788640Y-12466320D01*
X15737840Y-12517120D01*
X15788640Y-12567920D01*
X15793720Y-12070080D02*
X15844520Y-12019280D01*
X15793720Y-11968480D01*
X15742920Y-12019280D01*
X15793720Y-12070080D01*
X15811500Y-9448800D02*
X15862300Y-9398000D01*
X15811500Y-9347200D01*
X15760700Y-9398000D01*
X15811500Y-9448800D01*
X15811500Y-11734800D02*
X15862300Y-11684000D01*
X15811500Y-11633200D01*
X15760700Y-11684000D01*
X15811500Y-11734800D01*
X15913100Y-13830300D02*
X15963900Y-13779500D01*
X15913100Y-13728700D01*
X15862300Y-13779500D01*
X15913100Y-13830300D01*
X16002000Y-5829300D02*
X16052800Y-5778500D01*
X16002000Y-5727700D01*
X15951200Y-5778500D01*
X16002000Y-5829300D01*
X16042640Y-12567920D02*
X16093440Y-12517120D01*
X16042640Y-12466320D01*
X15991840Y-12517120D01*
X16042640Y-12567920D01*
X16047720Y-12070080D02*
X16098520Y-12019280D01*
X16047720Y-11968480D01*
X15996920Y-12019280D01*
X16047720Y-12070080D01*
X16065500Y-9448800D02*
X16116300Y-9398000D01*
X16065500Y-9347200D01*
X16014700Y-9398000D01*
X16065500Y-9448800D01*
X16065500Y-11734800D02*
X16116300Y-11684000D01*
X16065500Y-11633200D01*
X16014700Y-11684000D01*
X16065500Y-11734800D01*
X16256000Y-5829300D02*
X16306800Y-5778500D01*
X16256000Y-5727700D01*
X16205200Y-5778500D01*
X16256000Y-5829300D01*
X16296640Y-12567920D02*
X16347440Y-12517120D01*
X16296640Y-12466320D01*
X16245840Y-12517120D01*
X16296640Y-12567920D01*
X16319500Y-9448800D02*
X16370300Y-9398000D01*
X16319500Y-9347200D01*
X16268700Y-9398000D01*
X16319500Y-9448800D01*
X16319500Y-11734800D02*
X16370300Y-11684000D01*
X16319500Y-11633200D01*
X16268700Y-11684000D01*
X16319500Y-11734800D01*
X8425180Y-14439900D02*
X8552180Y-14566900D01*
X8552180Y-14439900D02*
X8425180Y-14566900D01*
X8552180Y-14503400D02*
G75*
G03X8552180Y-14503400I-63500J0D01*
G01*
X8770620Y-13677900D02*
X8897620Y-13804900D01*
X8897620Y-13677900D02*
X8770620Y-13804900D01*
X8897620Y-13741400D02*
G75*
G03X8897620Y-13741400I-63500J0D01*
G01*
X11092180Y-14439900D02*
X11219180Y-14566900D01*
X11219180Y-14439900D02*
X11092180Y-14566900D01*
X11219180Y-14503400D02*
G75*
G03X11219180Y-14503400I-63500J0D01*
G01*
X11437620Y-13677900D02*
X11564620Y-13804900D01*
X11564620Y-13677900D02*
X11437620Y-13804900D01*
X11564620Y-13741400D02*
G75*
G03X11564620Y-13741400I-63500J0D01*
G01*
X16923893Y-11501501D02*
X17074007Y-11651615D01*
X17074007Y-11501501D02*
X16923893Y-11651615D01*
X16998950Y-11501501D02*
X16998950Y-11651615D01*
X16923893Y-11576558D02*
X17074007Y-11576558D01*
X16923893Y-12351385D02*
X17074007Y-12501499D01*
X17074007Y-12351385D02*
X16923893Y-12501499D01*
X16998950Y-12351385D02*
X16998950Y-12501499D01*
X16923893Y-12426442D02*
X17074007Y-12426442D01*
X7543800Y-12471400D02*
X7696200Y-12623800D01*
X7696200Y-12471400D02*
X7543800Y-12623800D01*
X7673882Y-12601482D02*
X7673882Y-12493718D01*
X7566118Y-12493718D01*
X7566118Y-12601482D01*
X7673882Y-12601482D01*
X7543800Y-12979400D02*
X7696200Y-13131800D01*
X7696200Y-12979400D02*
X7543800Y-13131800D01*
X7673882Y-13109482D02*
X7673882Y-13001718D01*
X7566118Y-13001718D01*
X7566118Y-13109482D01*
X7673882Y-13109482D01*
X7543800Y-13487400D02*
X7696200Y-13639800D01*
X7696200Y-13487400D02*
X7543800Y-13639800D01*
X7673882Y-13617482D02*
X7673882Y-13509718D01*
X7566118Y-13509718D01*
X7566118Y-13617482D01*
X7673882Y-13617482D01*
X7543800Y-13995400D02*
X7696200Y-14147800D01*
X7696200Y-13995400D02*
X7543800Y-14147800D01*
X7673882Y-14125482D02*
X7673882Y-14017718D01*
X7566118Y-14017718D01*
X7566118Y-14125482D01*
X7673882Y-14125482D01*
X9347200Y-14592300D02*
X9499600Y-14744700D01*
X9499600Y-14592300D02*
X9347200Y-14744700D01*
X9477282Y-14722382D02*
X9477282Y-14614618D01*
X9369518Y-14614618D01*
X9369518Y-14722382D01*
X9477282Y-14722382D01*
X9855200Y-14592300D02*
X10007600Y-14744700D01*
X10007600Y-14592300D02*
X9855200Y-14744700D01*
X9985282Y-14722382D02*
X9985282Y-14614618D01*
X9877518Y-14614618D01*
X9877518Y-14722382D01*
X9985282Y-14722382D01*
X12153900Y-14592300D02*
X12306300Y-14744700D01*
X12306300Y-14592300D02*
X12153900Y-14744700D01*
X12283982Y-14722382D02*
X12283982Y-14614618D01*
X12176218Y-14614618D01*
X12176218Y-14722382D01*
X12283982Y-14722382D01*
X12661900Y-14592300D02*
X12814300Y-14744700D01*
X12814300Y-14592300D02*
X12661900Y-14744700D01*
X12791982Y-14722382D02*
X12791982Y-14614618D01*
X12684218Y-14614618D01*
X12684218Y-14722382D01*
X12791982Y-14722382D01*
X13741400Y-14592300D02*
X13893800Y-14744700D01*
X13893800Y-14592300D02*
X13741400Y-14744700D01*
X13871482Y-14722382D02*
X13871482Y-14614618D01*
X13763718Y-14614618D01*
X13763718Y-14722382D01*
X13871482Y-14722382D01*
X14249400Y-14592300D02*
X14401800Y-14744700D01*
X14401800Y-14592300D02*
X14249400Y-14744700D01*
X14379482Y-14722382D02*
X14379482Y-14614618D01*
X14271718Y-14614618D01*
X14271718Y-14722382D01*
X14379482Y-14722382D01*
X15328900Y-14592300D02*
X15481300Y-14744700D01*
X15481300Y-14592300D02*
X15328900Y-14744700D01*
X15458982Y-14722382D02*
X15458982Y-14614618D01*
X15351218Y-14614618D01*
X15351218Y-14722382D01*
X15458982Y-14722382D01*
X15836900Y-14592300D02*
X15989300Y-14744700D01*
X15989300Y-14592300D02*
X15836900Y-14744700D01*
X15966982Y-14722382D02*
X15966982Y-14614618D01*
X15859218Y-14614618D01*
X15859218Y-14722382D01*
X15966982Y-14722382D01*
X7340600Y-5562600D02*
X7645400Y-5867400D01*
X7645400Y-5562600D02*
X7340600Y-5867400D01*
X7493000Y-5867400D02*
X7645400Y-5715000D01*
X7493000Y-5562600D01*
X7340600Y-5715000D01*
X7493000Y-5867400D01*
X7340600Y-14897100D02*
X7645400Y-15201900D01*
X7645400Y-14897100D02*
X7340600Y-15201900D01*
X7493000Y-15201900D02*
X7645400Y-15049500D01*
X7493000Y-14897100D01*
X7340600Y-15049500D01*
X7493000Y-15201900D01*
X16675100Y-5562600D02*
X16979900Y-5867400D01*
X16979900Y-5562600D02*
X16675100Y-5867400D01*
X16827500Y-5867400D02*
X16979900Y-5715000D01*
X16827500Y-5562600D01*
X16675100Y-5715000D01*
X16827500Y-5867400D01*
X16675100Y-14897100D02*
X16979900Y-15201900D01*
X16979900Y-14897100D02*
X16675100Y-15201900D01*
X16827500Y-15201900D02*
X16979900Y-15049500D01*
X16827500Y-14897100D01*
X16675100Y-15049500D01*
X16827500Y-15201900D01*
X8661400Y-13933170D02*
X8661400Y-14311630D01*
X8472170Y-14122400D02*
X8850630Y-14122400D01*
X8850630Y-14122400D02*
G75*
G03X8850630Y-14122400I-189230J0D01*
G01*
X11328400Y-13933170D02*
X11328400Y-14311630D01*
X11139170Y-14122400D02*
X11517630Y-14122400D01*
X11517630Y-14122400D02*
G75*
G03X11517630Y-14122400I-189230J0D01*
G01*
D13*
X7445658Y-15833984D02*
X7445658Y-15533984D01*
X7517087Y-15533984D01*
X7559944Y-15548270D01*
X7588516Y-15576841D01*
X7602801Y-15605413D01*
X7617087Y-15662556D01*
X7617087Y-15705413D01*
X7602801Y-15762556D01*
X7588516Y-15791127D01*
X7559944Y-15819699D01*
X7517087Y-15833984D01*
X7445658Y-15833984D01*
X7745658Y-15833984D02*
X7745658Y-15633984D01*
X7745658Y-15691127D02*
X7759944Y-15662556D01*
X7774230Y-15648270D01*
X7802801Y-15633984D01*
X7831373Y-15633984D01*
X7931373Y-15833984D02*
X7931373Y-15633984D01*
X7931373Y-15533984D02*
X7917087Y-15548270D01*
X7931373Y-15562556D01*
X7945658Y-15548270D01*
X7931373Y-15533984D01*
X7931373Y-15562556D01*
X8117087Y-15833984D02*
X8088516Y-15819699D01*
X8074230Y-15791127D01*
X8074230Y-15533984D01*
X8274230Y-15833984D02*
X8245658Y-15819699D01*
X8231373Y-15791127D01*
X8231373Y-15533984D01*
X8617087Y-15833984D02*
X8617087Y-15533984D01*
X8717087Y-15748270D01*
X8817087Y-15533984D01*
X8817087Y-15833984D01*
X9088516Y-15833984D02*
X9088516Y-15676841D01*
X9074230Y-15648270D01*
X9045659Y-15633984D01*
X8988516Y-15633984D01*
X8959944Y-15648270D01*
X9088516Y-15819699D02*
X9059944Y-15833984D01*
X8988516Y-15833984D01*
X8959944Y-15819699D01*
X8945659Y-15791127D01*
X8945659Y-15762556D01*
X8959944Y-15733984D01*
X8988516Y-15719699D01*
X9059944Y-15719699D01*
X9088516Y-15705413D01*
X9231373Y-15633984D02*
X9231373Y-15933984D01*
X9231373Y-15648270D02*
X9259944Y-15633984D01*
X9317087Y-15633984D01*
X9345659Y-15648270D01*
X9359944Y-15662556D01*
X9374230Y-15691127D01*
X9374230Y-15776841D01*
X9359944Y-15805413D01*
X9345659Y-15819699D01*
X9317087Y-15833984D01*
X9259944Y-15833984D01*
X9231373Y-15819699D01*
X9502801Y-15805413D02*
X9517087Y-15819699D01*
X9502801Y-15833984D01*
X9488516Y-15819699D01*
X9502801Y-15805413D01*
X9502801Y-15833984D01*
X9502801Y-15648270D02*
X9517087Y-15662556D01*
X9502801Y-15676841D01*
X9488516Y-15662556D01*
X9502801Y-15648270D01*
X9502801Y-15676841D01*
X7110730Y-16296520D02*
X7174230Y-16360020D01*
X7174230Y-16296520D02*
X7110730Y-16360020D01*
X7502801Y-16163984D02*
X7531373Y-16163984D01*
X7559944Y-16178270D01*
X7574230Y-16192556D01*
X7588516Y-16221127D01*
X7602801Y-16278270D01*
X7602801Y-16349699D01*
X7588516Y-16406841D01*
X7574230Y-16435413D01*
X7559944Y-16449699D01*
X7531373Y-16463984D01*
X7502801Y-16463984D01*
X7474230Y-16449699D01*
X7459944Y-16435413D01*
X7445658Y-16406841D01*
X7431373Y-16349699D01*
X7431373Y-16278270D01*
X7445658Y-16221127D01*
X7459944Y-16192556D01*
X7474230Y-16178270D01*
X7502801Y-16163984D01*
X7731373Y-16435413D02*
X7745658Y-16449699D01*
X7731373Y-16463984D01*
X7717087Y-16449699D01*
X7731373Y-16435413D01*
X7731373Y-16463984D01*
X8002801Y-16163984D02*
X7945658Y-16163984D01*
X7917087Y-16178270D01*
X7902801Y-16192556D01*
X7874230Y-16235413D01*
X7859944Y-16292556D01*
X7859944Y-16406841D01*
X7874230Y-16435413D01*
X7888516Y-16449699D01*
X7917087Y-16463984D01*
X7974230Y-16463984D01*
X8002801Y-16449699D01*
X8017087Y-16435413D01*
X8031373Y-16406841D01*
X8031373Y-16335413D01*
X8017087Y-16306841D01*
X8002801Y-16292556D01*
X7974230Y-16278270D01*
X7917087Y-16278270D01*
X7888516Y-16292556D01*
X7874230Y-16306841D01*
X7859944Y-16335413D01*
X8288516Y-16263984D02*
X8288516Y-16463984D01*
X8217087Y-16149699D02*
X8145658Y-16363984D01*
X8331373Y-16363984D01*
X8445659Y-16463984D02*
X8445659Y-16263984D01*
X8445659Y-16292556D02*
X8459944Y-16278270D01*
X8488516Y-16263984D01*
X8531373Y-16263984D01*
X8559944Y-16278270D01*
X8574230Y-16306841D01*
X8574230Y-16463984D01*
X8574230Y-16306841D02*
X8588516Y-16278270D01*
X8617087Y-16263984D01*
X8659944Y-16263984D01*
X8688516Y-16278270D01*
X8702801Y-16306841D01*
X8702801Y-16463984D01*
X8845659Y-16463984D02*
X8845659Y-16263984D01*
X8845659Y-16292556D02*
X8859944Y-16278270D01*
X8888516Y-16263984D01*
X8931373Y-16263984D01*
X8959944Y-16278270D01*
X8974230Y-16306841D01*
X8974230Y-16463984D01*
X8974230Y-16306841D02*
X8988516Y-16278270D01*
X9017087Y-16263984D01*
X9059944Y-16263984D01*
X9088516Y-16278270D01*
X9102801Y-16306841D01*
X9102801Y-16463984D01*
X9688516Y-16149699D02*
X9431373Y-16535413D01*
X10074230Y-16163984D02*
X10102801Y-16163984D01*
X10131373Y-16178270D01*
X10145658Y-16192556D01*
X10159944Y-16221127D01*
X10174230Y-16278270D01*
X10174230Y-16349699D01*
X10159944Y-16406841D01*
X10145658Y-16435413D01*
X10131373Y-16449699D01*
X10102801Y-16463984D01*
X10074230Y-16463984D01*
X10045658Y-16449699D01*
X10031373Y-16435413D01*
X10017087Y-16406841D01*
X10002801Y-16349699D01*
X10002801Y-16278270D01*
X10017087Y-16221127D01*
X10031373Y-16192556D01*
X10045658Y-16178270D01*
X10074230Y-16163984D01*
X10302801Y-16435413D02*
X10317087Y-16449699D01*
X10302801Y-16463984D01*
X10288516Y-16449699D01*
X10302801Y-16435413D01*
X10302801Y-16463984D01*
X10502801Y-16163984D02*
X10531373Y-16163984D01*
X10559944Y-16178270D01*
X10574230Y-16192556D01*
X10588516Y-16221127D01*
X10602801Y-16278270D01*
X10602801Y-16349699D01*
X10588516Y-16406841D01*
X10574230Y-16435413D01*
X10559944Y-16449699D01*
X10531373Y-16463984D01*
X10502801Y-16463984D01*
X10474230Y-16449699D01*
X10459944Y-16435413D01*
X10445658Y-16406841D01*
X10431373Y-16349699D01*
X10431373Y-16278270D01*
X10445658Y-16221127D01*
X10459944Y-16192556D01*
X10474230Y-16178270D01*
X10502801Y-16163984D01*
X10717087Y-16192556D02*
X10731373Y-16178270D01*
X10759944Y-16163984D01*
X10831373Y-16163984D01*
X10859944Y-16178270D01*
X10874230Y-16192556D01*
X10888516Y-16221127D01*
X10888516Y-16249699D01*
X10874230Y-16292556D01*
X10702801Y-16463984D01*
X10888516Y-16463984D01*
X11159944Y-16163984D02*
X11017087Y-16163984D01*
X11002801Y-16306841D01*
X11017087Y-16292556D01*
X11045658Y-16278270D01*
X11117087Y-16278270D01*
X11145658Y-16292556D01*
X11159944Y-16306841D01*
X11174230Y-16335413D01*
X11174230Y-16406841D01*
X11159944Y-16435413D01*
X11145658Y-16449699D01*
X11117087Y-16463984D01*
X11045658Y-16463984D01*
X11017087Y-16449699D01*
X11002801Y-16435413D01*
X11288516Y-16163984D02*
X11288516Y-16221127D01*
X11402801Y-16163984D02*
X11402801Y-16221127D01*
X11845658Y-16578270D02*
X11831373Y-16563984D01*
X11802801Y-16521127D01*
X11788515Y-16492556D01*
X11774230Y-16449699D01*
X11759944Y-16378270D01*
X11759944Y-16321127D01*
X11774230Y-16249699D01*
X11788515Y-16206841D01*
X11802801Y-16178270D01*
X11831373Y-16135413D01*
X11845658Y-16121127D01*
X12117087Y-16463984D02*
X11945658Y-16463984D01*
X12031373Y-16463984D02*
X12031373Y-16163984D01*
X12002801Y-16206841D01*
X11974230Y-16235413D01*
X11945658Y-16249699D01*
X12217087Y-16163984D02*
X12417087Y-16163984D01*
X12288515Y-16463984D01*
X12759944Y-16463984D02*
X12759944Y-16163984D01*
X12888515Y-16463984D02*
X12888515Y-16306841D01*
X12874230Y-16278270D01*
X12845658Y-16263984D01*
X12802801Y-16263984D01*
X12774230Y-16278270D01*
X12759944Y-16292556D01*
X13074230Y-16463984D02*
X13045658Y-16449699D01*
X13031373Y-16435413D01*
X13017087Y-16406841D01*
X13017087Y-16321127D01*
X13031373Y-16292556D01*
X13045658Y-16278270D01*
X13074230Y-16263984D01*
X13117087Y-16263984D01*
X13145658Y-16278270D01*
X13159944Y-16292556D01*
X13174230Y-16321127D01*
X13174230Y-16406841D01*
X13159944Y-16435413D01*
X13145658Y-16449699D01*
X13117087Y-16463984D01*
X13074230Y-16463984D01*
X13345658Y-16463984D02*
X13317087Y-16449699D01*
X13302801Y-16421127D01*
X13302801Y-16163984D01*
X13574230Y-16449699D02*
X13545658Y-16463984D01*
X13488516Y-16463984D01*
X13459944Y-16449699D01*
X13445658Y-16421127D01*
X13445658Y-16306841D01*
X13459944Y-16278270D01*
X13488516Y-16263984D01*
X13545658Y-16263984D01*
X13574230Y-16278270D01*
X13588516Y-16306841D01*
X13588516Y-16335413D01*
X13445658Y-16363984D01*
X13702801Y-16449699D02*
X13731373Y-16463984D01*
X13788516Y-16463984D01*
X13817087Y-16449699D01*
X13831373Y-16421127D01*
X13831373Y-16406841D01*
X13817087Y-16378270D01*
X13788516Y-16363984D01*
X13745658Y-16363984D01*
X13717087Y-16349699D01*
X13702801Y-16321127D01*
X13702801Y-16306841D01*
X13717087Y-16278270D01*
X13745658Y-16263984D01*
X13788516Y-16263984D01*
X13817087Y-16278270D01*
X13931373Y-16578270D02*
X13945658Y-16563984D01*
X13974230Y-16521127D01*
X13988516Y-16492556D01*
X14002801Y-16449699D01*
X14017087Y-16378270D01*
X14017087Y-16321127D01*
X14002801Y-16249699D01*
X13988516Y-16206841D01*
X13974230Y-16178270D01*
X13945658Y-16135413D01*
X13931373Y-16121127D01*
X7174230Y-16724270D02*
G75*
G03X7174230Y-16724270I-32512J0D01*
G01*
X7502801Y-16559984D02*
X7531373Y-16559984D01*
X7559944Y-16574270D01*
X7574230Y-16588556D01*
X7588516Y-16617127D01*
X7602801Y-16674270D01*
X7602801Y-16745699D01*
X7588516Y-16802842D01*
X7574230Y-16831413D01*
X7559944Y-16845699D01*
X7531373Y-16859984D01*
X7502801Y-16859984D01*
X7474230Y-16845699D01*
X7459944Y-16831413D01*
X7445658Y-16802842D01*
X7431373Y-16745699D01*
X7431373Y-16674270D01*
X7445658Y-16617127D01*
X7459944Y-16588556D01*
X7474230Y-16574270D01*
X7502801Y-16559984D01*
X7731373Y-16831413D02*
X7745658Y-16845699D01*
X7731373Y-16859984D01*
X7717087Y-16845699D01*
X7731373Y-16831413D01*
X7731373Y-16859984D01*
X8002801Y-16559984D02*
X7945658Y-16559984D01*
X7917087Y-16574270D01*
X7902801Y-16588556D01*
X7874230Y-16631413D01*
X7859944Y-16688556D01*
X7859944Y-16802842D01*
X7874230Y-16831413D01*
X7888516Y-16845699D01*
X7917087Y-16859984D01*
X7974230Y-16859984D01*
X8002801Y-16845699D01*
X8017087Y-16831413D01*
X8031373Y-16802842D01*
X8031373Y-16731413D01*
X8017087Y-16702841D01*
X8002801Y-16688556D01*
X7974230Y-16674270D01*
X7917087Y-16674270D01*
X7888516Y-16688556D01*
X7874230Y-16702841D01*
X7859944Y-16731413D01*
X8302801Y-16559984D02*
X8159944Y-16559984D01*
X8145658Y-16702841D01*
X8159944Y-16688556D01*
X8188516Y-16674270D01*
X8259944Y-16674270D01*
X8288516Y-16688556D01*
X8302801Y-16702841D01*
X8317087Y-16731413D01*
X8317087Y-16802842D01*
X8302801Y-16831413D01*
X8288516Y-16845699D01*
X8259944Y-16859984D01*
X8188516Y-16859984D01*
X8159944Y-16845699D01*
X8145658Y-16831413D01*
X8445659Y-16859984D02*
X8445659Y-16659984D01*
X8445659Y-16688556D02*
X8459944Y-16674270D01*
X8488516Y-16659984D01*
X8531373Y-16659984D01*
X8559944Y-16674270D01*
X8574230Y-16702841D01*
X8574230Y-16859984D01*
X8574230Y-16702841D02*
X8588516Y-16674270D01*
X8617087Y-16659984D01*
X8659944Y-16659984D01*
X8688516Y-16674270D01*
X8702801Y-16702841D01*
X8702801Y-16859984D01*
X8845659Y-16859984D02*
X8845659Y-16659984D01*
X8845659Y-16688556D02*
X8859944Y-16674270D01*
X8888516Y-16659984D01*
X8931373Y-16659984D01*
X8959944Y-16674270D01*
X8974230Y-16702841D01*
X8974230Y-16859984D01*
X8974230Y-16702841D02*
X8988516Y-16674270D01*
X9017087Y-16659984D01*
X9059944Y-16659984D01*
X9088516Y-16674270D01*
X9102801Y-16702841D01*
X9102801Y-16859984D01*
X9688516Y-16545699D02*
X9431373Y-16931413D01*
X10074230Y-16559984D02*
X10102801Y-16559984D01*
X10131373Y-16574270D01*
X10145658Y-16588556D01*
X10159944Y-16617127D01*
X10174230Y-16674270D01*
X10174230Y-16745699D01*
X10159944Y-16802842D01*
X10145658Y-16831413D01*
X10131373Y-16845699D01*
X10102801Y-16859984D01*
X10074230Y-16859984D01*
X10045658Y-16845699D01*
X10031373Y-16831413D01*
X10017087Y-16802842D01*
X10002801Y-16745699D01*
X10002801Y-16674270D01*
X10017087Y-16617127D01*
X10031373Y-16588556D01*
X10045658Y-16574270D01*
X10074230Y-16559984D01*
X10302801Y-16831413D02*
X10317087Y-16845699D01*
X10302801Y-16859984D01*
X10288516Y-16845699D01*
X10302801Y-16831413D01*
X10302801Y-16859984D01*
X10502801Y-16559984D02*
X10531373Y-16559984D01*
X10559944Y-16574270D01*
X10574230Y-16588556D01*
X10588516Y-16617127D01*
X10602801Y-16674270D01*
X10602801Y-16745699D01*
X10588516Y-16802842D01*
X10574230Y-16831413D01*
X10559944Y-16845699D01*
X10531373Y-16859984D01*
X10502801Y-16859984D01*
X10474230Y-16845699D01*
X10459944Y-16831413D01*
X10445658Y-16802842D01*
X10431373Y-16745699D01*
X10431373Y-16674270D01*
X10445658Y-16617127D01*
X10459944Y-16588556D01*
X10474230Y-16574270D01*
X10502801Y-16559984D01*
X10717087Y-16588556D02*
X10731373Y-16574270D01*
X10759944Y-16559984D01*
X10831373Y-16559984D01*
X10859944Y-16574270D01*
X10874230Y-16588556D01*
X10888516Y-16617127D01*
X10888516Y-16645699D01*
X10874230Y-16688556D01*
X10702801Y-16859984D01*
X10888516Y-16859984D01*
X11145658Y-16559984D02*
X11088516Y-16559984D01*
X11059944Y-16574270D01*
X11045658Y-16588556D01*
X11017087Y-16631413D01*
X11002801Y-16688556D01*
X11002801Y-16802842D01*
X11017087Y-16831413D01*
X11031373Y-16845699D01*
X11059944Y-16859984D01*
X11117087Y-16859984D01*
X11145658Y-16845699D01*
X11159944Y-16831413D01*
X11174230Y-16802842D01*
X11174230Y-16731413D01*
X11159944Y-16702841D01*
X11145658Y-16688556D01*
X11117087Y-16674270D01*
X11059944Y-16674270D01*
X11031373Y-16688556D01*
X11017087Y-16702841D01*
X11002801Y-16731413D01*
X11288516Y-16559984D02*
X11288516Y-16617127D01*
X11402801Y-16559984D02*
X11402801Y-16617127D01*
X11845658Y-16974270D02*
X11831373Y-16959984D01*
X11802801Y-16917127D01*
X11788515Y-16888556D01*
X11774230Y-16845699D01*
X11759944Y-16774270D01*
X11759944Y-16717127D01*
X11774230Y-16645699D01*
X11788515Y-16602841D01*
X11802801Y-16574270D01*
X11831373Y-16531413D01*
X11845658Y-16517127D01*
X11945658Y-16588556D02*
X11959944Y-16574270D01*
X11988515Y-16559984D01*
X12059944Y-16559984D01*
X12088515Y-16574270D01*
X12102801Y-16588556D01*
X12117087Y-16617127D01*
X12117087Y-16645699D01*
X12102801Y-16688556D01*
X11931373Y-16859984D01*
X12117087Y-16859984D01*
X12474230Y-16859984D02*
X12474230Y-16559984D01*
X12602801Y-16859984D02*
X12602801Y-16702841D01*
X12588515Y-16674270D01*
X12559944Y-16659984D01*
X12517087Y-16659984D01*
X12488515Y-16674270D01*
X12474230Y-16688556D01*
X12788515Y-16859984D02*
X12759944Y-16845699D01*
X12745658Y-16831413D01*
X12731373Y-16802842D01*
X12731373Y-16717127D01*
X12745658Y-16688556D01*
X12759944Y-16674270D01*
X12788515Y-16659984D01*
X12831373Y-16659984D01*
X12859944Y-16674270D01*
X12874230Y-16688556D01*
X12888515Y-16717127D01*
X12888515Y-16802842D01*
X12874230Y-16831413D01*
X12859944Y-16845699D01*
X12831373Y-16859984D01*
X12788515Y-16859984D01*
X13059944Y-16859984D02*
X13031373Y-16845699D01*
X13017087Y-16817127D01*
X13017087Y-16559984D01*
X13288516Y-16845699D02*
X13259944Y-16859984D01*
X13202801Y-16859984D01*
X13174230Y-16845699D01*
X13159944Y-16817127D01*
X13159944Y-16702841D01*
X13174230Y-16674270D01*
X13202801Y-16659984D01*
X13259944Y-16659984D01*
X13288516Y-16674270D01*
X13302801Y-16702841D01*
X13302801Y-16731413D01*
X13159944Y-16759984D01*
X13417087Y-16845699D02*
X13445658Y-16859984D01*
X13502801Y-16859984D01*
X13531373Y-16845699D01*
X13545658Y-16817127D01*
X13545658Y-16802842D01*
X13531373Y-16774270D01*
X13502801Y-16759984D01*
X13459944Y-16759984D01*
X13431373Y-16745699D01*
X13417087Y-16717127D01*
X13417087Y-16702841D01*
X13431373Y-16674270D01*
X13459944Y-16659984D01*
X13502801Y-16659984D01*
X13531373Y-16674270D01*
X13645658Y-16974270D02*
X13659944Y-16959984D01*
X13688516Y-16917127D01*
X13702801Y-16888556D01*
X13717087Y-16845699D01*
X13731373Y-16774270D01*
X13731373Y-16717127D01*
X13717087Y-16645699D01*
X13702801Y-16602841D01*
X13688516Y-16574270D01*
X13659944Y-16531413D01*
X13645658Y-16517127D01*
X7133590Y-17079630D02*
X7133590Y-17160910D01*
X7092950Y-17120270D02*
X7174230Y-17120270D01*
X7502801Y-16955984D02*
X7531373Y-16955984D01*
X7559944Y-16970270D01*
X7574230Y-16984556D01*
X7588516Y-17013127D01*
X7602801Y-17070270D01*
X7602801Y-17141699D01*
X7588516Y-17198842D01*
X7574230Y-17227413D01*
X7559944Y-17241699D01*
X7531373Y-17255984D01*
X7502801Y-17255984D01*
X7474230Y-17241699D01*
X7459944Y-17227413D01*
X7445658Y-17198842D01*
X7431373Y-17141699D01*
X7431373Y-17070270D01*
X7445658Y-17013127D01*
X7459944Y-16984556D01*
X7474230Y-16970270D01*
X7502801Y-16955984D01*
X7731373Y-17227413D02*
X7745658Y-17241699D01*
X7731373Y-17255984D01*
X7717087Y-17241699D01*
X7731373Y-17227413D01*
X7731373Y-17255984D01*
X7917087Y-17084556D02*
X7888516Y-17070270D01*
X7874230Y-17055984D01*
X7859944Y-17027413D01*
X7859944Y-17013127D01*
X7874230Y-16984556D01*
X7888516Y-16970270D01*
X7917087Y-16955984D01*
X7974230Y-16955984D01*
X8002801Y-16970270D01*
X8017087Y-16984556D01*
X8031373Y-17013127D01*
X8031373Y-17027413D01*
X8017087Y-17055984D01*
X8002801Y-17070270D01*
X7974230Y-17084556D01*
X7917087Y-17084556D01*
X7888516Y-17098842D01*
X7874230Y-17113127D01*
X7859944Y-17141699D01*
X7859944Y-17198842D01*
X7874230Y-17227413D01*
X7888516Y-17241699D01*
X7917087Y-17255984D01*
X7974230Y-17255984D01*
X8002801Y-17241699D01*
X8017087Y-17227413D01*
X8031373Y-17198842D01*
X8031373Y-17141699D01*
X8017087Y-17113127D01*
X8002801Y-17098842D01*
X7974230Y-17084556D01*
X8317087Y-17255984D02*
X8145658Y-17255984D01*
X8231373Y-17255984D02*
X8231373Y-16955984D01*
X8202801Y-16998842D01*
X8174230Y-17027413D01*
X8145658Y-17041699D01*
X8445659Y-17255984D02*
X8445659Y-17055984D01*
X8445659Y-17084556D02*
X8459944Y-17070270D01*
X8488516Y-17055984D01*
X8531373Y-17055984D01*
X8559944Y-17070270D01*
X8574230Y-17098842D01*
X8574230Y-17255984D01*
X8574230Y-17098842D02*
X8588516Y-17070270D01*
X8617087Y-17055984D01*
X8659944Y-17055984D01*
X8688516Y-17070270D01*
X8702801Y-17098842D01*
X8702801Y-17255984D01*
X8845659Y-17255984D02*
X8845659Y-17055984D01*
X8845659Y-17084556D02*
X8859944Y-17070270D01*
X8888516Y-17055984D01*
X8931373Y-17055984D01*
X8959944Y-17070270D01*
X8974230Y-17098842D01*
X8974230Y-17255984D01*
X8974230Y-17098842D02*
X8988516Y-17070270D01*
X9017087Y-17055984D01*
X9059944Y-17055984D01*
X9088516Y-17070270D01*
X9102801Y-17098842D01*
X9102801Y-17255984D01*
X9688516Y-16941699D02*
X9431373Y-17327413D01*
X10074230Y-16955984D02*
X10102801Y-16955984D01*
X10131373Y-16970270D01*
X10145658Y-16984556D01*
X10159944Y-17013127D01*
X10174230Y-17070270D01*
X10174230Y-17141699D01*
X10159944Y-17198842D01*
X10145658Y-17227413D01*
X10131373Y-17241699D01*
X10102801Y-17255984D01*
X10074230Y-17255984D01*
X10045658Y-17241699D01*
X10031373Y-17227413D01*
X10017087Y-17198842D01*
X10002801Y-17141699D01*
X10002801Y-17070270D01*
X10017087Y-17013127D01*
X10031373Y-16984556D01*
X10045658Y-16970270D01*
X10074230Y-16955984D01*
X10302801Y-17227413D02*
X10317087Y-17241699D01*
X10302801Y-17255984D01*
X10288516Y-17241699D01*
X10302801Y-17227413D01*
X10302801Y-17255984D01*
X10502801Y-16955984D02*
X10531373Y-16955984D01*
X10559944Y-16970270D01*
X10574230Y-16984556D01*
X10588516Y-17013127D01*
X10602801Y-17070270D01*
X10602801Y-17141699D01*
X10588516Y-17198842D01*
X10574230Y-17227413D01*
X10559944Y-17241699D01*
X10531373Y-17255984D01*
X10502801Y-17255984D01*
X10474230Y-17241699D01*
X10459944Y-17227413D01*
X10445658Y-17198842D01*
X10431373Y-17141699D01*
X10431373Y-17070270D01*
X10445658Y-17013127D01*
X10459944Y-16984556D01*
X10474230Y-16970270D01*
X10502801Y-16955984D01*
X10702801Y-16955984D02*
X10888516Y-16955984D01*
X10788516Y-17070270D01*
X10831373Y-17070270D01*
X10859944Y-17084556D01*
X10874230Y-17098842D01*
X10888516Y-17127413D01*
X10888516Y-17198842D01*
X10874230Y-17227413D01*
X10859944Y-17241699D01*
X10831373Y-17255984D01*
X10745658Y-17255984D01*
X10717087Y-17241699D01*
X10702801Y-17227413D01*
X11002801Y-16984556D02*
X11017087Y-16970270D01*
X11045658Y-16955984D01*
X11117087Y-16955984D01*
X11145658Y-16970270D01*
X11159944Y-16984556D01*
X11174230Y-17013127D01*
X11174230Y-17041699D01*
X11159944Y-17084556D01*
X10988516Y-17255984D01*
X11174230Y-17255984D01*
X11288516Y-16955984D02*
X11288516Y-17013127D01*
X11402801Y-16955984D02*
X11402801Y-17013127D01*
X11845658Y-17370270D02*
X11831373Y-17355984D01*
X11802801Y-17313127D01*
X11788515Y-17284556D01*
X11774230Y-17241699D01*
X11759944Y-17170270D01*
X11759944Y-17113127D01*
X11774230Y-17041699D01*
X11788515Y-16998842D01*
X11802801Y-16970270D01*
X11831373Y-16927413D01*
X11845658Y-16913127D01*
X11974230Y-17255984D02*
X12031373Y-17255984D01*
X12059944Y-17241699D01*
X12074230Y-17227413D01*
X12102801Y-17184556D01*
X12117087Y-17127413D01*
X12117087Y-17013127D01*
X12102801Y-16984556D01*
X12088515Y-16970270D01*
X12059944Y-16955984D01*
X12002801Y-16955984D01*
X11974230Y-16970270D01*
X11959944Y-16984556D01*
X11945658Y-17013127D01*
X11945658Y-17084556D01*
X11959944Y-17113127D01*
X11974230Y-17127413D01*
X12002801Y-17141699D01*
X12059944Y-17141699D01*
X12088515Y-17127413D01*
X12102801Y-17113127D01*
X12117087Y-17084556D01*
X12231373Y-16984556D02*
X12245658Y-16970270D01*
X12274230Y-16955984D01*
X12345658Y-16955984D01*
X12374230Y-16970270D01*
X12388515Y-16984556D01*
X12402801Y-17013127D01*
X12402801Y-17041699D01*
X12388515Y-17084556D01*
X12217087Y-17255984D01*
X12402801Y-17255984D01*
X12759944Y-17255984D02*
X12759944Y-16955984D01*
X12888515Y-17255984D02*
X12888515Y-17098842D01*
X12874230Y-17070270D01*
X12845658Y-17055984D01*
X12802801Y-17055984D01*
X12774230Y-17070270D01*
X12759944Y-17084556D01*
X13074230Y-17255984D02*
X13045658Y-17241699D01*
X13031373Y-17227413D01*
X13017087Y-17198842D01*
X13017087Y-17113127D01*
X13031373Y-17084556D01*
X13045658Y-17070270D01*
X13074230Y-17055984D01*
X13117087Y-17055984D01*
X13145658Y-17070270D01*
X13159944Y-17084556D01*
X13174230Y-17113127D01*
X13174230Y-17198842D01*
X13159944Y-17227413D01*
X13145658Y-17241699D01*
X13117087Y-17255984D01*
X13074230Y-17255984D01*
X13345658Y-17255984D02*
X13317087Y-17241699D01*
X13302801Y-17213127D01*
X13302801Y-16955984D01*
X13574230Y-17241699D02*
X13545658Y-17255984D01*
X13488516Y-17255984D01*
X13459944Y-17241699D01*
X13445658Y-17213127D01*
X13445658Y-17098842D01*
X13459944Y-17070270D01*
X13488516Y-17055984D01*
X13545658Y-17055984D01*
X13574230Y-17070270D01*
X13588516Y-17098842D01*
X13588516Y-17127413D01*
X13445658Y-17155984D01*
X13702801Y-17241699D02*
X13731373Y-17255984D01*
X13788516Y-17255984D01*
X13817087Y-17241699D01*
X13831373Y-17213127D01*
X13831373Y-17198842D01*
X13817087Y-17170270D01*
X13788516Y-17155984D01*
X13745658Y-17155984D01*
X13717087Y-17141699D01*
X13702801Y-17113127D01*
X13702801Y-17098842D01*
X13717087Y-17070270D01*
X13745658Y-17055984D01*
X13788516Y-17055984D01*
X13817087Y-17070270D01*
X13931373Y-17370270D02*
X13945658Y-17355984D01*
X13974230Y-17313127D01*
X13988516Y-17284556D01*
X14002801Y-17241699D01*
X14017087Y-17170270D01*
X14017087Y-17113127D01*
X14002801Y-17041699D01*
X13988516Y-16998842D01*
X13974230Y-16970270D01*
X13945658Y-16927413D01*
X13931373Y-16913127D01*
X7161211Y-17547701D02*
X7161211Y-17484839D01*
X7098349Y-17484839D01*
X7098349Y-17547701D01*
X7161211Y-17547701D01*
X7502801Y-17351984D02*
X7531373Y-17351984D01*
X7559944Y-17366270D01*
X7574230Y-17380556D01*
X7588516Y-17409127D01*
X7602801Y-17466270D01*
X7602801Y-17537699D01*
X7588516Y-17594842D01*
X7574230Y-17623413D01*
X7559944Y-17637699D01*
X7531373Y-17651984D01*
X7502801Y-17651984D01*
X7474230Y-17637699D01*
X7459944Y-17623413D01*
X7445658Y-17594842D01*
X7431373Y-17537699D01*
X7431373Y-17466270D01*
X7445658Y-17409127D01*
X7459944Y-17380556D01*
X7474230Y-17366270D01*
X7502801Y-17351984D01*
X7731373Y-17623413D02*
X7745658Y-17637699D01*
X7731373Y-17651984D01*
X7717087Y-17637699D01*
X7731373Y-17623413D01*
X7731373Y-17651984D01*
X7917087Y-17480556D02*
X7888516Y-17466270D01*
X7874230Y-17451984D01*
X7859944Y-17423413D01*
X7859944Y-17409127D01*
X7874230Y-17380556D01*
X7888516Y-17366270D01*
X7917087Y-17351984D01*
X7974230Y-17351984D01*
X8002801Y-17366270D01*
X8017087Y-17380556D01*
X8031373Y-17409127D01*
X8031373Y-17423413D01*
X8017087Y-17451984D01*
X8002801Y-17466270D01*
X7974230Y-17480556D01*
X7917087Y-17480556D01*
X7888516Y-17494842D01*
X7874230Y-17509127D01*
X7859944Y-17537699D01*
X7859944Y-17594842D01*
X7874230Y-17623413D01*
X7888516Y-17637699D01*
X7917087Y-17651984D01*
X7974230Y-17651984D01*
X8002801Y-17637699D01*
X8017087Y-17623413D01*
X8031373Y-17594842D01*
X8031373Y-17537699D01*
X8017087Y-17509127D01*
X8002801Y-17494842D01*
X7974230Y-17480556D01*
X8174230Y-17651984D02*
X8231373Y-17651984D01*
X8259944Y-17637699D01*
X8274230Y-17623413D01*
X8302801Y-17580556D01*
X8317087Y-17523413D01*
X8317087Y-17409127D01*
X8302801Y-17380556D01*
X8288516Y-17366270D01*
X8259944Y-17351984D01*
X8202801Y-17351984D01*
X8174230Y-17366270D01*
X8159944Y-17380556D01*
X8145658Y-17409127D01*
X8145658Y-17480556D01*
X8159944Y-17509127D01*
X8174230Y-17523413D01*
X8202801Y-17537699D01*
X8259944Y-17537699D01*
X8288516Y-17523413D01*
X8302801Y-17509127D01*
X8317087Y-17480556D01*
X8445659Y-17651984D02*
X8445659Y-17451984D01*
X8445659Y-17480556D02*
X8459944Y-17466270D01*
X8488516Y-17451984D01*
X8531373Y-17451984D01*
X8559944Y-17466270D01*
X8574230Y-17494842D01*
X8574230Y-17651984D01*
X8574230Y-17494842D02*
X8588516Y-17466270D01*
X8617087Y-17451984D01*
X8659944Y-17451984D01*
X8688516Y-17466270D01*
X8702801Y-17494842D01*
X8702801Y-17651984D01*
X8845659Y-17651984D02*
X8845659Y-17451984D01*
X8845659Y-17480556D02*
X8859944Y-17466270D01*
X8888516Y-17451984D01*
X8931373Y-17451984D01*
X8959944Y-17466270D01*
X8974230Y-17494842D01*
X8974230Y-17651984D01*
X8974230Y-17494842D02*
X8988516Y-17466270D01*
X9017087Y-17451984D01*
X9059944Y-17451984D01*
X9088516Y-17466270D01*
X9102801Y-17494842D01*
X9102801Y-17651984D01*
X9688516Y-17337699D02*
X9431373Y-17723413D01*
X10074230Y-17351984D02*
X10102801Y-17351984D01*
X10131373Y-17366270D01*
X10145658Y-17380556D01*
X10159944Y-17409127D01*
X10174230Y-17466270D01*
X10174230Y-17537699D01*
X10159944Y-17594842D01*
X10145658Y-17623413D01*
X10131373Y-17637699D01*
X10102801Y-17651984D01*
X10074230Y-17651984D01*
X10045658Y-17637699D01*
X10031373Y-17623413D01*
X10017087Y-17594842D01*
X10002801Y-17537699D01*
X10002801Y-17466270D01*
X10017087Y-17409127D01*
X10031373Y-17380556D01*
X10045658Y-17366270D01*
X10074230Y-17351984D01*
X10302801Y-17623413D02*
X10317087Y-17637699D01*
X10302801Y-17651984D01*
X10288516Y-17637699D01*
X10302801Y-17623413D01*
X10302801Y-17651984D01*
X10502801Y-17351984D02*
X10531373Y-17351984D01*
X10559944Y-17366270D01*
X10574230Y-17380556D01*
X10588516Y-17409127D01*
X10602801Y-17466270D01*
X10602801Y-17537699D01*
X10588516Y-17594842D01*
X10574230Y-17623413D01*
X10559944Y-17637699D01*
X10531373Y-17651984D01*
X10502801Y-17651984D01*
X10474230Y-17637699D01*
X10459944Y-17623413D01*
X10445658Y-17594842D01*
X10431373Y-17537699D01*
X10431373Y-17466270D01*
X10445658Y-17409127D01*
X10459944Y-17380556D01*
X10474230Y-17366270D01*
X10502801Y-17351984D01*
X10702801Y-17351984D02*
X10888516Y-17351984D01*
X10788516Y-17466270D01*
X10831373Y-17466270D01*
X10859944Y-17480556D01*
X10874230Y-17494842D01*
X10888516Y-17523413D01*
X10888516Y-17594842D01*
X10874230Y-17623413D01*
X10859944Y-17637699D01*
X10831373Y-17651984D01*
X10745658Y-17651984D01*
X10717087Y-17637699D01*
X10702801Y-17623413D01*
X11159944Y-17351984D02*
X11017087Y-17351984D01*
X11002801Y-17494842D01*
X11017087Y-17480556D01*
X11045658Y-17466270D01*
X11117087Y-17466270D01*
X11145658Y-17480556D01*
X11159944Y-17494842D01*
X11174230Y-17523413D01*
X11174230Y-17594842D01*
X11159944Y-17623413D01*
X11145658Y-17637699D01*
X11117087Y-17651984D01*
X11045658Y-17651984D01*
X11017087Y-17637699D01*
X11002801Y-17623413D01*
X11288516Y-17351984D02*
X11288516Y-17409127D01*
X11402801Y-17351984D02*
X11402801Y-17409127D01*
X11845658Y-17766270D02*
X11831373Y-17751984D01*
X11802801Y-17709127D01*
X11788515Y-17680556D01*
X11774230Y-17637699D01*
X11759944Y-17566270D01*
X11759944Y-17509127D01*
X11774230Y-17437699D01*
X11788515Y-17394842D01*
X11802801Y-17366270D01*
X11831373Y-17323413D01*
X11845658Y-17309127D01*
X12002801Y-17480556D02*
X11974230Y-17466270D01*
X11959944Y-17451984D01*
X11945658Y-17423413D01*
X11945658Y-17409127D01*
X11959944Y-17380556D01*
X11974230Y-17366270D01*
X12002801Y-17351984D01*
X12059944Y-17351984D01*
X12088515Y-17366270D01*
X12102801Y-17380556D01*
X12117087Y-17409127D01*
X12117087Y-17423413D01*
X12102801Y-17451984D01*
X12088515Y-17466270D01*
X12059944Y-17480556D01*
X12002801Y-17480556D01*
X11974230Y-17494842D01*
X11959944Y-17509127D01*
X11945658Y-17537699D01*
X11945658Y-17594842D01*
X11959944Y-17623413D01*
X11974230Y-17637699D01*
X12002801Y-17651984D01*
X12059944Y-17651984D01*
X12088515Y-17637699D01*
X12102801Y-17623413D01*
X12117087Y-17594842D01*
X12117087Y-17537699D01*
X12102801Y-17509127D01*
X12088515Y-17494842D01*
X12059944Y-17480556D01*
X12474230Y-17651984D02*
X12474230Y-17351984D01*
X12602801Y-17651984D02*
X12602801Y-17494842D01*
X12588515Y-17466270D01*
X12559944Y-17451984D01*
X12517087Y-17451984D01*
X12488515Y-17466270D01*
X12474230Y-17480556D01*
X12788515Y-17651984D02*
X12759944Y-17637699D01*
X12745658Y-17623413D01*
X12731373Y-17594842D01*
X12731373Y-17509127D01*
X12745658Y-17480556D01*
X12759944Y-17466270D01*
X12788515Y-17451984D01*
X12831373Y-17451984D01*
X12859944Y-17466270D01*
X12874230Y-17480556D01*
X12888515Y-17509127D01*
X12888515Y-17594842D01*
X12874230Y-17623413D01*
X12859944Y-17637699D01*
X12831373Y-17651984D01*
X12788515Y-17651984D01*
X13059944Y-17651984D02*
X13031373Y-17637699D01*
X13017087Y-17609127D01*
X13017087Y-17351984D01*
X13288516Y-17637699D02*
X13259944Y-17651984D01*
X13202801Y-17651984D01*
X13174230Y-17637699D01*
X13159944Y-17609127D01*
X13159944Y-17494842D01*
X13174230Y-17466270D01*
X13202801Y-17451984D01*
X13259944Y-17451984D01*
X13288516Y-17466270D01*
X13302801Y-17494842D01*
X13302801Y-17523413D01*
X13159944Y-17551984D01*
X13417087Y-17637699D02*
X13445658Y-17651984D01*
X13502801Y-17651984D01*
X13531373Y-17637699D01*
X13545658Y-17609127D01*
X13545658Y-17594842D01*
X13531373Y-17566270D01*
X13502801Y-17551984D01*
X13459944Y-17551984D01*
X13431373Y-17537699D01*
X13417087Y-17509127D01*
X13417087Y-17494842D01*
X13431373Y-17466270D01*
X13459944Y-17451984D01*
X13502801Y-17451984D01*
X13531373Y-17466270D01*
X13645658Y-17766270D02*
X13659944Y-17751984D01*
X13688516Y-17709127D01*
X13702801Y-17680556D01*
X13717087Y-17637699D01*
X13731373Y-17566270D01*
X13731373Y-17509127D01*
X13717087Y-17437699D01*
X13702801Y-17394842D01*
X13688516Y-17366270D01*
X13659944Y-17323413D01*
X13645658Y-17309127D01*
X7123430Y-17963070D02*
X7174230Y-17912270D01*
X7123430Y-17861470D01*
X7072630Y-17912270D01*
X7123430Y-17963070D01*
X7602801Y-18047984D02*
X7431373Y-18047984D01*
X7517087Y-18047984D02*
X7517087Y-17747984D01*
X7488516Y-17790842D01*
X7459944Y-17819413D01*
X7431373Y-17833699D01*
X7731373Y-18019413D02*
X7745658Y-18033699D01*
X7731373Y-18047984D01*
X7717087Y-18033699D01*
X7731373Y-18019413D01*
X7731373Y-18047984D01*
X7931373Y-17747984D02*
X7959944Y-17747984D01*
X7988516Y-17762270D01*
X8002801Y-17776556D01*
X8017087Y-17805127D01*
X8031373Y-17862270D01*
X8031373Y-17933699D01*
X8017087Y-17990842D01*
X8002801Y-18019413D01*
X7988516Y-18033699D01*
X7959944Y-18047984D01*
X7931373Y-18047984D01*
X7902801Y-18033699D01*
X7888516Y-18019413D01*
X7874230Y-17990842D01*
X7859944Y-17933699D01*
X7859944Y-17862270D01*
X7874230Y-17805127D01*
X7888516Y-17776556D01*
X7902801Y-17762270D01*
X7931373Y-17747984D01*
X8145658Y-17776556D02*
X8159944Y-17762270D01*
X8188516Y-17747984D01*
X8259944Y-17747984D01*
X8288516Y-17762270D01*
X8302801Y-17776556D01*
X8317087Y-17805127D01*
X8317087Y-17833699D01*
X8302801Y-17876556D01*
X8131373Y-18047984D01*
X8317087Y-18047984D01*
X8445659Y-18047984D02*
X8445659Y-17847984D01*
X8445659Y-17876556D02*
X8459944Y-17862270D01*
X8488516Y-17847984D01*
X8531373Y-17847984D01*
X8559944Y-17862270D01*
X8574230Y-17890842D01*
X8574230Y-18047984D01*
X8574230Y-17890842D02*
X8588516Y-17862270D01*
X8617087Y-17847984D01*
X8659944Y-17847984D01*
X8688516Y-17862270D01*
X8702801Y-17890842D01*
X8702801Y-18047984D01*
X8845659Y-18047984D02*
X8845659Y-17847984D01*
X8845659Y-17876556D02*
X8859944Y-17862270D01*
X8888516Y-17847984D01*
X8931373Y-17847984D01*
X8959944Y-17862270D01*
X8974230Y-17890842D01*
X8974230Y-18047984D01*
X8974230Y-17890842D02*
X8988516Y-17862270D01*
X9017087Y-17847984D01*
X9059944Y-17847984D01*
X9088516Y-17862270D01*
X9102801Y-17890842D01*
X9102801Y-18047984D01*
X9688516Y-17733699D02*
X9431373Y-18119413D01*
X10074230Y-17747984D02*
X10102801Y-17747984D01*
X10131373Y-17762270D01*
X10145658Y-17776556D01*
X10159944Y-17805127D01*
X10174230Y-17862270D01*
X10174230Y-17933699D01*
X10159944Y-17990842D01*
X10145658Y-18019413D01*
X10131373Y-18033699D01*
X10102801Y-18047984D01*
X10074230Y-18047984D01*
X10045658Y-18033699D01*
X10031373Y-18019413D01*
X10017087Y-17990842D01*
X10002801Y-17933699D01*
X10002801Y-17862270D01*
X10017087Y-17805127D01*
X10031373Y-17776556D01*
X10045658Y-17762270D01*
X10074230Y-17747984D01*
X10302801Y-18019413D02*
X10317087Y-18033699D01*
X10302801Y-18047984D01*
X10288516Y-18033699D01*
X10302801Y-18019413D01*
X10302801Y-18047984D01*
X10502801Y-17747984D02*
X10531373Y-17747984D01*
X10559944Y-17762270D01*
X10574230Y-17776556D01*
X10588516Y-17805127D01*
X10602801Y-17862270D01*
X10602801Y-17933699D01*
X10588516Y-17990842D01*
X10574230Y-18019413D01*
X10559944Y-18033699D01*
X10531373Y-18047984D01*
X10502801Y-18047984D01*
X10474230Y-18033699D01*
X10459944Y-18019413D01*
X10445658Y-17990842D01*
X10431373Y-17933699D01*
X10431373Y-17862270D01*
X10445658Y-17805127D01*
X10459944Y-17776556D01*
X10474230Y-17762270D01*
X10502801Y-17747984D01*
X10859944Y-17847984D02*
X10859944Y-18047984D01*
X10788516Y-17733699D02*
X10717087Y-17947984D01*
X10902801Y-17947984D01*
X11074230Y-17747984D02*
X11102801Y-17747984D01*
X11131373Y-17762270D01*
X11145658Y-17776556D01*
X11159944Y-17805127D01*
X11174230Y-17862270D01*
X11174230Y-17933699D01*
X11159944Y-17990842D01*
X11145658Y-18019413D01*
X11131373Y-18033699D01*
X11102801Y-18047984D01*
X11074230Y-18047984D01*
X11045658Y-18033699D01*
X11031373Y-18019413D01*
X11017087Y-17990842D01*
X11002801Y-17933699D01*
X11002801Y-17862270D01*
X11017087Y-17805127D01*
X11031373Y-17776556D01*
X11045658Y-17762270D01*
X11074230Y-17747984D01*
X11288516Y-17747984D02*
X11288516Y-17805127D01*
X11402801Y-17747984D02*
X11402801Y-17805127D01*
X11845658Y-18162270D02*
X11831373Y-18147984D01*
X11802801Y-18105127D01*
X11788515Y-18076556D01*
X11774230Y-18033699D01*
X11759944Y-17962270D01*
X11759944Y-17905127D01*
X11774230Y-17833699D01*
X11788515Y-17790842D01*
X11802801Y-17762270D01*
X11831373Y-17719413D01*
X11845658Y-17705127D01*
X12117087Y-18047984D02*
X11945658Y-18047984D01*
X12031373Y-18047984D02*
X12031373Y-17747984D01*
X12002801Y-17790842D01*
X11974230Y-17819413D01*
X11945658Y-17833699D01*
X12259944Y-18047984D02*
X12317087Y-18047984D01*
X12345658Y-18033699D01*
X12359944Y-18019413D01*
X12388515Y-17976556D01*
X12402801Y-17919413D01*
X12402801Y-17805127D01*
X12388515Y-17776556D01*
X12374230Y-17762270D01*
X12345658Y-17747984D01*
X12288515Y-17747984D01*
X12259944Y-17762270D01*
X12245658Y-17776556D01*
X12231373Y-17805127D01*
X12231373Y-17876556D01*
X12245658Y-17905127D01*
X12259944Y-17919413D01*
X12288515Y-17933699D01*
X12345658Y-17933699D01*
X12374230Y-17919413D01*
X12388515Y-17905127D01*
X12402801Y-17876556D01*
X12588515Y-17747984D02*
X12617087Y-17747984D01*
X12645658Y-17762270D01*
X12659944Y-17776556D01*
X12674230Y-17805127D01*
X12688515Y-17862270D01*
X12688515Y-17933699D01*
X12674230Y-17990842D01*
X12659944Y-18019413D01*
X12645658Y-18033699D01*
X12617087Y-18047984D01*
X12588515Y-18047984D01*
X12559944Y-18033699D01*
X12545658Y-18019413D01*
X12531373Y-17990842D01*
X12517087Y-17933699D01*
X12517087Y-17862270D01*
X12531373Y-17805127D01*
X12545658Y-17776556D01*
X12559944Y-17762270D01*
X12588515Y-17747984D01*
X13045658Y-18047984D02*
X13045658Y-17747984D01*
X13174230Y-18047984D02*
X13174230Y-17890842D01*
X13159944Y-17862270D01*
X13131373Y-17847984D01*
X13088515Y-17847984D01*
X13059944Y-17862270D01*
X13045658Y-17876556D01*
X13359944Y-18047984D02*
X13331373Y-18033699D01*
X13317087Y-18019413D01*
X13302801Y-17990842D01*
X13302801Y-17905127D01*
X13317087Y-17876556D01*
X13331373Y-17862270D01*
X13359944Y-17847984D01*
X13402801Y-17847984D01*
X13431373Y-17862270D01*
X13445658Y-17876556D01*
X13459944Y-17905127D01*
X13459944Y-17990842D01*
X13445658Y-18019413D01*
X13431373Y-18033699D01*
X13402801Y-18047984D01*
X13359944Y-18047984D01*
X13631373Y-18047984D02*
X13602801Y-18033699D01*
X13588516Y-18005127D01*
X13588516Y-17747984D01*
X13859944Y-18033699D02*
X13831373Y-18047984D01*
X13774230Y-18047984D01*
X13745658Y-18033699D01*
X13731373Y-18005127D01*
X13731373Y-17890842D01*
X13745658Y-17862270D01*
X13774230Y-17847984D01*
X13831373Y-17847984D01*
X13859944Y-17862270D01*
X13874230Y-17890842D01*
X13874230Y-17919413D01*
X13731373Y-17947984D01*
X13988516Y-18033699D02*
X14017087Y-18047984D01*
X14074230Y-18047984D01*
X14102801Y-18033699D01*
X14117087Y-18005127D01*
X14117087Y-17990842D01*
X14102801Y-17962270D01*
X14074230Y-17947984D01*
X14031373Y-17947984D01*
X14002801Y-17933699D01*
X13988516Y-17905127D01*
X13988516Y-17890842D01*
X14002801Y-17862270D01*
X14031373Y-17847984D01*
X14074230Y-17847984D01*
X14102801Y-17862270D01*
X14217087Y-18162270D02*
X14231373Y-18147984D01*
X14259944Y-18105127D01*
X14274230Y-18076556D01*
X14288516Y-18033699D01*
X14302801Y-17962270D01*
X14302801Y-17905127D01*
X14288516Y-17833699D01*
X14274230Y-17790842D01*
X14259944Y-17762270D01*
X14231373Y-17719413D01*
X14217087Y-17705127D01*
X7047230Y-18244770D02*
X7174230Y-18371770D01*
X7174230Y-18244770D02*
X7047230Y-18371770D01*
X7174230Y-18308270D02*
G75*
G03X7174230Y-18308270I-63500J0D01*
G01*
X7602801Y-18443984D02*
X7431373Y-18443984D01*
X7517087Y-18443984D02*
X7517087Y-18143984D01*
X7488516Y-18186842D01*
X7459944Y-18215413D01*
X7431373Y-18229699D01*
X7731373Y-18415413D02*
X7745658Y-18429699D01*
X7731373Y-18443984D01*
X7717087Y-18429699D01*
X7731373Y-18415413D01*
X7731373Y-18443984D01*
X7859944Y-18172556D02*
X7874230Y-18158270D01*
X7902801Y-18143984D01*
X7974230Y-18143984D01*
X8002801Y-18158270D01*
X8017087Y-18172556D01*
X8031373Y-18201127D01*
X8031373Y-18229699D01*
X8017087Y-18272556D01*
X7845658Y-18443984D01*
X8031373Y-18443984D01*
X8131373Y-18143984D02*
X8331373Y-18143984D01*
X8202801Y-18443984D01*
X8445659Y-18443984D02*
X8445659Y-18243984D01*
X8445659Y-18272556D02*
X8459944Y-18258270D01*
X8488516Y-18243984D01*
X8531373Y-18243984D01*
X8559944Y-18258270D01*
X8574230Y-18286842D01*
X8574230Y-18443984D01*
X8574230Y-18286842D02*
X8588516Y-18258270D01*
X8617087Y-18243984D01*
X8659944Y-18243984D01*
X8688516Y-18258270D01*
X8702801Y-18286842D01*
X8702801Y-18443984D01*
X8845659Y-18443984D02*
X8845659Y-18243984D01*
X8845659Y-18272556D02*
X8859944Y-18258270D01*
X8888516Y-18243984D01*
X8931373Y-18243984D01*
X8959944Y-18258270D01*
X8974230Y-18286842D01*
X8974230Y-18443984D01*
X8974230Y-18286842D02*
X8988516Y-18258270D01*
X9017087Y-18243984D01*
X9059944Y-18243984D01*
X9088516Y-18258270D01*
X9102801Y-18286842D01*
X9102801Y-18443984D01*
X9688516Y-18129699D02*
X9431373Y-18515413D01*
X10074230Y-18143984D02*
X10102801Y-18143984D01*
X10131373Y-18158270D01*
X10145658Y-18172556D01*
X10159944Y-18201127D01*
X10174230Y-18258270D01*
X10174230Y-18329699D01*
X10159944Y-18386842D01*
X10145658Y-18415413D01*
X10131373Y-18429699D01*
X10102801Y-18443984D01*
X10074230Y-18443984D01*
X10045658Y-18429699D01*
X10031373Y-18415413D01*
X10017087Y-18386842D01*
X10002801Y-18329699D01*
X10002801Y-18258270D01*
X10017087Y-18201127D01*
X10031373Y-18172556D01*
X10045658Y-18158270D01*
X10074230Y-18143984D01*
X10302801Y-18415413D02*
X10317087Y-18429699D01*
X10302801Y-18443984D01*
X10288516Y-18429699D01*
X10302801Y-18415413D01*
X10302801Y-18443984D01*
X10502801Y-18143984D02*
X10531373Y-18143984D01*
X10559944Y-18158270D01*
X10574230Y-18172556D01*
X10588516Y-18201127D01*
X10602801Y-18258270D01*
X10602801Y-18329699D01*
X10588516Y-18386842D01*
X10574230Y-18415413D01*
X10559944Y-18429699D01*
X10531373Y-18443984D01*
X10502801Y-18443984D01*
X10474230Y-18429699D01*
X10459944Y-18415413D01*
X10445658Y-18386842D01*
X10431373Y-18329699D01*
X10431373Y-18258270D01*
X10445658Y-18201127D01*
X10459944Y-18172556D01*
X10474230Y-18158270D01*
X10502801Y-18143984D01*
X10874230Y-18143984D02*
X10731373Y-18143984D01*
X10717087Y-18286842D01*
X10731373Y-18272556D01*
X10759944Y-18258270D01*
X10831373Y-18258270D01*
X10859944Y-18272556D01*
X10874230Y-18286842D01*
X10888516Y-18315413D01*
X10888516Y-18386842D01*
X10874230Y-18415413D01*
X10859944Y-18429699D01*
X10831373Y-18443984D01*
X10759944Y-18443984D01*
X10731373Y-18429699D01*
X10717087Y-18415413D01*
X11074230Y-18143984D02*
X11102801Y-18143984D01*
X11131373Y-18158270D01*
X11145658Y-18172556D01*
X11159944Y-18201127D01*
X11174230Y-18258270D01*
X11174230Y-18329699D01*
X11159944Y-18386842D01*
X11145658Y-18415413D01*
X11131373Y-18429699D01*
X11102801Y-18443984D01*
X11074230Y-18443984D01*
X11045658Y-18429699D01*
X11031373Y-18415413D01*
X11017087Y-18386842D01*
X11002801Y-18329699D01*
X11002801Y-18258270D01*
X11017087Y-18201127D01*
X11031373Y-18172556D01*
X11045658Y-18158270D01*
X11074230Y-18143984D01*
X11288516Y-18143984D02*
X11288516Y-18201127D01*
X11402801Y-18143984D02*
X11402801Y-18201127D01*
X11845658Y-18558270D02*
X11831373Y-18543984D01*
X11802801Y-18501127D01*
X11788515Y-18472556D01*
X11774230Y-18429699D01*
X11759944Y-18358270D01*
X11759944Y-18301127D01*
X11774230Y-18229699D01*
X11788515Y-18186842D01*
X11802801Y-18158270D01*
X11831373Y-18115413D01*
X11845658Y-18101127D01*
X12088515Y-18243984D02*
X12088515Y-18443984D01*
X12017087Y-18129699D02*
X11945658Y-18343984D01*
X12131373Y-18343984D01*
X12474230Y-18443984D02*
X12474230Y-18143984D01*
X12602801Y-18443984D02*
X12602801Y-18286842D01*
X12588515Y-18258270D01*
X12559944Y-18243984D01*
X12517087Y-18243984D01*
X12488515Y-18258270D01*
X12474230Y-18272556D01*
X12788515Y-18443984D02*
X12759944Y-18429699D01*
X12745658Y-18415413D01*
X12731373Y-18386842D01*
X12731373Y-18301127D01*
X12745658Y-18272556D01*
X12759944Y-18258270D01*
X12788515Y-18243984D01*
X12831373Y-18243984D01*
X12859944Y-18258270D01*
X12874230Y-18272556D01*
X12888515Y-18301127D01*
X12888515Y-18386842D01*
X12874230Y-18415413D01*
X12859944Y-18429699D01*
X12831373Y-18443984D01*
X12788515Y-18443984D01*
X13059944Y-18443984D02*
X13031373Y-18429699D01*
X13017087Y-18401127D01*
X13017087Y-18143984D01*
X13288516Y-18429699D02*
X13259944Y-18443984D01*
X13202801Y-18443984D01*
X13174230Y-18429699D01*
X13159944Y-18401127D01*
X13159944Y-18286842D01*
X13174230Y-18258270D01*
X13202801Y-18243984D01*
X13259944Y-18243984D01*
X13288516Y-18258270D01*
X13302801Y-18286842D01*
X13302801Y-18315413D01*
X13159944Y-18343984D01*
X13417087Y-18429699D02*
X13445658Y-18443984D01*
X13502801Y-18443984D01*
X13531373Y-18429699D01*
X13545658Y-18401127D01*
X13545658Y-18386842D01*
X13531373Y-18358270D01*
X13502801Y-18343984D01*
X13459944Y-18343984D01*
X13431373Y-18329699D01*
X13417087Y-18301127D01*
X13417087Y-18286842D01*
X13431373Y-18258270D01*
X13459944Y-18243984D01*
X13502801Y-18243984D01*
X13531373Y-18258270D01*
X13645658Y-18558270D02*
X13659944Y-18543984D01*
X13688516Y-18501127D01*
X13702801Y-18472556D01*
X13717087Y-18429699D01*
X13731373Y-18358270D01*
X13731373Y-18301127D01*
X13717087Y-18229699D01*
X13702801Y-18186842D01*
X13688516Y-18158270D01*
X13659944Y-18115413D01*
X13645658Y-18101127D01*
X7024116Y-18629213D02*
X7174230Y-18779327D01*
X7174230Y-18629213D02*
X7024116Y-18779327D01*
X7099173Y-18629213D02*
X7099173Y-18779327D01*
X7024116Y-18704270D02*
X7174230Y-18704270D01*
X7602801Y-18839984D02*
X7431373Y-18839984D01*
X7517087Y-18839984D02*
X7517087Y-18539984D01*
X7488516Y-18582842D01*
X7459944Y-18611413D01*
X7431373Y-18625699D01*
X7731373Y-18811413D02*
X7745658Y-18825699D01*
X7731373Y-18839984D01*
X7717087Y-18825699D01*
X7731373Y-18811413D01*
X7731373Y-18839984D01*
X8017087Y-18539984D02*
X7874230Y-18539984D01*
X7859944Y-18682842D01*
X7874230Y-18668556D01*
X7902801Y-18654270D01*
X7974230Y-18654270D01*
X8002801Y-18668556D01*
X8017087Y-18682842D01*
X8031373Y-18711413D01*
X8031373Y-18782842D01*
X8017087Y-18811413D01*
X8002801Y-18825699D01*
X7974230Y-18839984D01*
X7902801Y-18839984D01*
X7874230Y-18825699D01*
X7859944Y-18811413D01*
X8217087Y-18539984D02*
X8245658Y-18539984D01*
X8274230Y-18554270D01*
X8288516Y-18568556D01*
X8302801Y-18597127D01*
X8317087Y-18654270D01*
X8317087Y-18725699D01*
X8302801Y-18782842D01*
X8288516Y-18811413D01*
X8274230Y-18825699D01*
X8245658Y-18839984D01*
X8217087Y-18839984D01*
X8188516Y-18825699D01*
X8174230Y-18811413D01*
X8159944Y-18782842D01*
X8145658Y-18725699D01*
X8145658Y-18654270D01*
X8159944Y-18597127D01*
X8174230Y-18568556D01*
X8188516Y-18554270D01*
X8217087Y-18539984D01*
X8445659Y-18839984D02*
X8445659Y-18639984D01*
X8445659Y-18668556D02*
X8459944Y-18654270D01*
X8488516Y-18639984D01*
X8531373Y-18639984D01*
X8559944Y-18654270D01*
X8574230Y-18682842D01*
X8574230Y-18839984D01*
X8574230Y-18682842D02*
X8588516Y-18654270D01*
X8617087Y-18639984D01*
X8659944Y-18639984D01*
X8688516Y-18654270D01*
X8702801Y-18682842D01*
X8702801Y-18839984D01*
X8845659Y-18839984D02*
X8845659Y-18639984D01*
X8845659Y-18668556D02*
X8859944Y-18654270D01*
X8888516Y-18639984D01*
X8931373Y-18639984D01*
X8959944Y-18654270D01*
X8974230Y-18682842D01*
X8974230Y-18839984D01*
X8974230Y-18682842D02*
X8988516Y-18654270D01*
X9017087Y-18639984D01*
X9059944Y-18639984D01*
X9088516Y-18654270D01*
X9102801Y-18682842D01*
X9102801Y-18839984D01*
X9688516Y-18525699D02*
X9431373Y-18911413D01*
X10074230Y-18539984D02*
X10102801Y-18539984D01*
X10131373Y-18554270D01*
X10145658Y-18568556D01*
X10159944Y-18597127D01*
X10174230Y-18654270D01*
X10174230Y-18725699D01*
X10159944Y-18782842D01*
X10145658Y-18811413D01*
X10131373Y-18825699D01*
X10102801Y-18839984D01*
X10074230Y-18839984D01*
X10045658Y-18825699D01*
X10031373Y-18811413D01*
X10017087Y-18782842D01*
X10002801Y-18725699D01*
X10002801Y-18654270D01*
X10017087Y-18597127D01*
X10031373Y-18568556D01*
X10045658Y-18554270D01*
X10074230Y-18539984D01*
X10302801Y-18811413D02*
X10317087Y-18825699D01*
X10302801Y-18839984D01*
X10288516Y-18825699D01*
X10302801Y-18811413D01*
X10302801Y-18839984D01*
X10502801Y-18539984D02*
X10531373Y-18539984D01*
X10559944Y-18554270D01*
X10574230Y-18568556D01*
X10588516Y-18597127D01*
X10602801Y-18654270D01*
X10602801Y-18725699D01*
X10588516Y-18782842D01*
X10574230Y-18811413D01*
X10559944Y-18825699D01*
X10531373Y-18839984D01*
X10502801Y-18839984D01*
X10474230Y-18825699D01*
X10459944Y-18811413D01*
X10445658Y-18782842D01*
X10431373Y-18725699D01*
X10431373Y-18654270D01*
X10445658Y-18597127D01*
X10459944Y-18568556D01*
X10474230Y-18554270D01*
X10502801Y-18539984D01*
X10874230Y-18539984D02*
X10731373Y-18539984D01*
X10717087Y-18682842D01*
X10731373Y-18668556D01*
X10759944Y-18654270D01*
X10831373Y-18654270D01*
X10859944Y-18668556D01*
X10874230Y-18682842D01*
X10888516Y-18711413D01*
X10888516Y-18782842D01*
X10874230Y-18811413D01*
X10859944Y-18825699D01*
X10831373Y-18839984D01*
X10759944Y-18839984D01*
X10731373Y-18825699D01*
X10717087Y-18811413D01*
X11031373Y-18839984D02*
X11088516Y-18839984D01*
X11117087Y-18825699D01*
X11131373Y-18811413D01*
X11159944Y-18768556D01*
X11174230Y-18711413D01*
X11174230Y-18597127D01*
X11159944Y-18568556D01*
X11145658Y-18554270D01*
X11117087Y-18539984D01*
X11059944Y-18539984D01*
X11031373Y-18554270D01*
X11017087Y-18568556D01*
X11002801Y-18597127D01*
X11002801Y-18668556D01*
X11017087Y-18697127D01*
X11031373Y-18711413D01*
X11059944Y-18725699D01*
X11117087Y-18725699D01*
X11145658Y-18711413D01*
X11159944Y-18697127D01*
X11174230Y-18668556D01*
X11288516Y-18539984D02*
X11288516Y-18597127D01*
X11402801Y-18539984D02*
X11402801Y-18597127D01*
X11845658Y-18954270D02*
X11831373Y-18939984D01*
X11802801Y-18897127D01*
X11788515Y-18868556D01*
X11774230Y-18825699D01*
X11759944Y-18754270D01*
X11759944Y-18697127D01*
X11774230Y-18625699D01*
X11788515Y-18582842D01*
X11802801Y-18554270D01*
X11831373Y-18511413D01*
X11845658Y-18497127D01*
X11945658Y-18568556D02*
X11959944Y-18554270D01*
X11988515Y-18539984D01*
X12059944Y-18539984D01*
X12088515Y-18554270D01*
X12102801Y-18568556D01*
X12117087Y-18597127D01*
X12117087Y-18625699D01*
X12102801Y-18668556D01*
X11931373Y-18839984D01*
X12117087Y-18839984D01*
X12474230Y-18839984D02*
X12474230Y-18539984D01*
X12602801Y-18839984D02*
X12602801Y-18682842D01*
X12588515Y-18654270D01*
X12559944Y-18639984D01*
X12517087Y-18639984D01*
X12488515Y-18654270D01*
X12474230Y-18668556D01*
X12788515Y-18839984D02*
X12759944Y-18825699D01*
X12745658Y-18811413D01*
X12731373Y-18782842D01*
X12731373Y-18697127D01*
X12745658Y-18668556D01*
X12759944Y-18654270D01*
X12788515Y-18639984D01*
X12831373Y-18639984D01*
X12859944Y-18654270D01*
X12874230Y-18668556D01*
X12888515Y-18697127D01*
X12888515Y-18782842D01*
X12874230Y-18811413D01*
X12859944Y-18825699D01*
X12831373Y-18839984D01*
X12788515Y-18839984D01*
X13059944Y-18839984D02*
X13031373Y-18825699D01*
X13017087Y-18797127D01*
X13017087Y-18539984D01*
X13288516Y-18825699D02*
X13259944Y-18839984D01*
X13202801Y-18839984D01*
X13174230Y-18825699D01*
X13159944Y-18797127D01*
X13159944Y-18682842D01*
X13174230Y-18654270D01*
X13202801Y-18639984D01*
X13259944Y-18639984D01*
X13288516Y-18654270D01*
X13302801Y-18682842D01*
X13302801Y-18711413D01*
X13159944Y-18739984D01*
X13417087Y-18825699D02*
X13445658Y-18839984D01*
X13502801Y-18839984D01*
X13531373Y-18825699D01*
X13545658Y-18797127D01*
X13545658Y-18782842D01*
X13531373Y-18754270D01*
X13502801Y-18739984D01*
X13459944Y-18739984D01*
X13431373Y-18725699D01*
X13417087Y-18697127D01*
X13417087Y-18682842D01*
X13431373Y-18654270D01*
X13459944Y-18639984D01*
X13502801Y-18639984D01*
X13531373Y-18654270D01*
X13645658Y-18954270D02*
X13659944Y-18939984D01*
X13688516Y-18897127D01*
X13702801Y-18868556D01*
X13717087Y-18825699D01*
X13731373Y-18754270D01*
X13731373Y-18697127D01*
X13717087Y-18625699D01*
X13702801Y-18582842D01*
X13688516Y-18554270D01*
X13659944Y-18511413D01*
X13645658Y-18497127D01*
X7021830Y-19024070D02*
X7174230Y-19176470D01*
X7174230Y-19024070D02*
X7021830Y-19176470D01*
X7151912Y-19154152D02*
X7151912Y-19046388D01*
X7044148Y-19046388D01*
X7044148Y-19154152D01*
X7151912Y-19154152D01*
X7602801Y-19235984D02*
X7431373Y-19235984D01*
X7517087Y-19235984D02*
X7517087Y-18935984D01*
X7488516Y-18978842D01*
X7459944Y-19007413D01*
X7431373Y-19021699D01*
X7731373Y-19207413D02*
X7745658Y-19221699D01*
X7731373Y-19235984D01*
X7717087Y-19221699D01*
X7731373Y-19207413D01*
X7731373Y-19235984D01*
X8017087Y-18935984D02*
X7874230Y-18935984D01*
X7859944Y-19078842D01*
X7874230Y-19064556D01*
X7902801Y-19050270D01*
X7974230Y-19050270D01*
X8002801Y-19064556D01*
X8017087Y-19078842D01*
X8031373Y-19107413D01*
X8031373Y-19178842D01*
X8017087Y-19207413D01*
X8002801Y-19221699D01*
X7974230Y-19235984D01*
X7902801Y-19235984D01*
X7874230Y-19221699D01*
X7859944Y-19207413D01*
X8145658Y-18964556D02*
X8159944Y-18950270D01*
X8188516Y-18935984D01*
X8259944Y-18935984D01*
X8288516Y-18950270D01*
X8302801Y-18964556D01*
X8317087Y-18993127D01*
X8317087Y-19021699D01*
X8302801Y-19064556D01*
X8131373Y-19235984D01*
X8317087Y-19235984D01*
X8445659Y-19235984D02*
X8445659Y-19035984D01*
X8445659Y-19064556D02*
X8459944Y-19050270D01*
X8488516Y-19035984D01*
X8531373Y-19035984D01*
X8559944Y-19050270D01*
X8574230Y-19078842D01*
X8574230Y-19235984D01*
X8574230Y-19078842D02*
X8588516Y-19050270D01*
X8617087Y-19035984D01*
X8659944Y-19035984D01*
X8688516Y-19050270D01*
X8702801Y-19078842D01*
X8702801Y-19235984D01*
X8845659Y-19235984D02*
X8845659Y-19035984D01*
X8845659Y-19064556D02*
X8859944Y-19050270D01*
X8888516Y-19035984D01*
X8931373Y-19035984D01*
X8959944Y-19050270D01*
X8974230Y-19078842D01*
X8974230Y-19235984D01*
X8974230Y-19078842D02*
X8988516Y-19050270D01*
X9017087Y-19035984D01*
X9059944Y-19035984D01*
X9088516Y-19050270D01*
X9102801Y-19078842D01*
X9102801Y-19235984D01*
X9688516Y-18921699D02*
X9431373Y-19307413D01*
X10074230Y-18935984D02*
X10102801Y-18935984D01*
X10131373Y-18950270D01*
X10145658Y-18964556D01*
X10159944Y-18993127D01*
X10174230Y-19050270D01*
X10174230Y-19121699D01*
X10159944Y-19178842D01*
X10145658Y-19207413D01*
X10131373Y-19221699D01*
X10102801Y-19235984D01*
X10074230Y-19235984D01*
X10045658Y-19221699D01*
X10031373Y-19207413D01*
X10017087Y-19178842D01*
X10002801Y-19121699D01*
X10002801Y-19050270D01*
X10017087Y-18993127D01*
X10031373Y-18964556D01*
X10045658Y-18950270D01*
X10074230Y-18935984D01*
X10302801Y-19207413D02*
X10317087Y-19221699D01*
X10302801Y-19235984D01*
X10288516Y-19221699D01*
X10302801Y-19207413D01*
X10302801Y-19235984D01*
X10502801Y-18935984D02*
X10531373Y-18935984D01*
X10559944Y-18950270D01*
X10574230Y-18964556D01*
X10588516Y-18993127D01*
X10602801Y-19050270D01*
X10602801Y-19121699D01*
X10588516Y-19178842D01*
X10574230Y-19207413D01*
X10559944Y-19221699D01*
X10531373Y-19235984D01*
X10502801Y-19235984D01*
X10474230Y-19221699D01*
X10459944Y-19207413D01*
X10445658Y-19178842D01*
X10431373Y-19121699D01*
X10431373Y-19050270D01*
X10445658Y-18993127D01*
X10459944Y-18964556D01*
X10474230Y-18950270D01*
X10502801Y-18935984D01*
X10859944Y-18935984D02*
X10802801Y-18935984D01*
X10774230Y-18950270D01*
X10759944Y-18964556D01*
X10731373Y-19007413D01*
X10717087Y-19064556D01*
X10717087Y-19178842D01*
X10731373Y-19207413D01*
X10745658Y-19221699D01*
X10774230Y-19235984D01*
X10831373Y-19235984D01*
X10859944Y-19221699D01*
X10874230Y-19207413D01*
X10888516Y-19178842D01*
X10888516Y-19107413D01*
X10874230Y-19078842D01*
X10859944Y-19064556D01*
X10831373Y-19050270D01*
X10774230Y-19050270D01*
X10745658Y-19064556D01*
X10731373Y-19078842D01*
X10717087Y-19107413D01*
X11074230Y-18935984D02*
X11102801Y-18935984D01*
X11131373Y-18950270D01*
X11145658Y-18964556D01*
X11159944Y-18993127D01*
X11174230Y-19050270D01*
X11174230Y-19121699D01*
X11159944Y-19178842D01*
X11145658Y-19207413D01*
X11131373Y-19221699D01*
X11102801Y-19235984D01*
X11074230Y-19235984D01*
X11045658Y-19221699D01*
X11031373Y-19207413D01*
X11017087Y-19178842D01*
X11002801Y-19121699D01*
X11002801Y-19050270D01*
X11017087Y-18993127D01*
X11031373Y-18964556D01*
X11045658Y-18950270D01*
X11074230Y-18935984D01*
X11288516Y-18935984D02*
X11288516Y-18993127D01*
X11402801Y-18935984D02*
X11402801Y-18993127D01*
X11845658Y-19350270D02*
X11831373Y-19335984D01*
X11802801Y-19293127D01*
X11788515Y-19264556D01*
X11774230Y-19221699D01*
X11759944Y-19150270D01*
X11759944Y-19093127D01*
X11774230Y-19021699D01*
X11788515Y-18978842D01*
X11802801Y-18950270D01*
X11831373Y-18907413D01*
X11845658Y-18893127D01*
X12117087Y-19235984D02*
X11945658Y-19235984D01*
X12031373Y-19235984D02*
X12031373Y-18935984D01*
X12002801Y-18978842D01*
X11974230Y-19007413D01*
X11945658Y-19021699D01*
X12231373Y-18964556D02*
X12245658Y-18950270D01*
X12274230Y-18935984D01*
X12345658Y-18935984D01*
X12374230Y-18950270D01*
X12388515Y-18964556D01*
X12402801Y-18993127D01*
X12402801Y-19021699D01*
X12388515Y-19064556D01*
X12217087Y-19235984D01*
X12402801Y-19235984D01*
X12759944Y-19235984D02*
X12759944Y-18935984D01*
X12888515Y-19235984D02*
X12888515Y-19078842D01*
X12874230Y-19050270D01*
X12845658Y-19035984D01*
X12802801Y-19035984D01*
X12774230Y-19050270D01*
X12759944Y-19064556D01*
X13074230Y-19235984D02*
X13045658Y-19221699D01*
X13031373Y-19207413D01*
X13017087Y-19178842D01*
X13017087Y-19093127D01*
X13031373Y-19064556D01*
X13045658Y-19050270D01*
X13074230Y-19035984D01*
X13117087Y-19035984D01*
X13145658Y-19050270D01*
X13159944Y-19064556D01*
X13174230Y-19093127D01*
X13174230Y-19178842D01*
X13159944Y-19207413D01*
X13145658Y-19221699D01*
X13117087Y-19235984D01*
X13074230Y-19235984D01*
X13345658Y-19235984D02*
X13317087Y-19221699D01*
X13302801Y-19193127D01*
X13302801Y-18935984D01*
X13574230Y-19221699D02*
X13545658Y-19235984D01*
X13488516Y-19235984D01*
X13459944Y-19221699D01*
X13445658Y-19193127D01*
X13445658Y-19078842D01*
X13459944Y-19050270D01*
X13488516Y-19035984D01*
X13545658Y-19035984D01*
X13574230Y-19050270D01*
X13588516Y-19078842D01*
X13588516Y-19107413D01*
X13445658Y-19135984D01*
X13702801Y-19221699D02*
X13731373Y-19235984D01*
X13788516Y-19235984D01*
X13817087Y-19221699D01*
X13831373Y-19193127D01*
X13831373Y-19178842D01*
X13817087Y-19150270D01*
X13788516Y-19135984D01*
X13745658Y-19135984D01*
X13717087Y-19121699D01*
X13702801Y-19093127D01*
X13702801Y-19078842D01*
X13717087Y-19050270D01*
X13745658Y-19035984D01*
X13788516Y-19035984D01*
X13817087Y-19050270D01*
X13931373Y-19350270D02*
X13945658Y-19335984D01*
X13974230Y-19293127D01*
X13988516Y-19264556D01*
X14002801Y-19221699D01*
X14017087Y-19150270D01*
X14017087Y-19093127D01*
X14002801Y-19021699D01*
X13988516Y-18978842D01*
X13974230Y-18950270D01*
X13945658Y-18907413D01*
X13931373Y-18893127D01*
X6869430Y-19343870D02*
X7174230Y-19648670D01*
X7174230Y-19343870D02*
X6869430Y-19648670D01*
X7021830Y-19648670D02*
X7174230Y-19496270D01*
X7021830Y-19343870D01*
X6869430Y-19496270D01*
X7021830Y-19648670D01*
X7417087Y-19331984D02*
X7602801Y-19331984D01*
X7502801Y-19446270D01*
X7545658Y-19446270D01*
X7574230Y-19460556D01*
X7588516Y-19474842D01*
X7602801Y-19503413D01*
X7602801Y-19574842D01*
X7588516Y-19603413D01*
X7574230Y-19617699D01*
X7545658Y-19631984D01*
X7459944Y-19631984D01*
X7431373Y-19617699D01*
X7417087Y-19603413D01*
X7731373Y-19603413D02*
X7745658Y-19617699D01*
X7731373Y-19631984D01*
X7717087Y-19617699D01*
X7731373Y-19603413D01*
X7731373Y-19631984D01*
X7931373Y-19331984D02*
X7959944Y-19331984D01*
X7988516Y-19346270D01*
X8002801Y-19360556D01*
X8017087Y-19389127D01*
X8031373Y-19446270D01*
X8031373Y-19517699D01*
X8017087Y-19574842D01*
X8002801Y-19603413D01*
X7988516Y-19617699D01*
X7959944Y-19631984D01*
X7931373Y-19631984D01*
X7902801Y-19617699D01*
X7888516Y-19603413D01*
X7874230Y-19574842D01*
X7859944Y-19517699D01*
X7859944Y-19446270D01*
X7874230Y-19389127D01*
X7888516Y-19360556D01*
X7902801Y-19346270D01*
X7931373Y-19331984D01*
X8302801Y-19331984D02*
X8159944Y-19331984D01*
X8145658Y-19474842D01*
X8159944Y-19460556D01*
X8188516Y-19446270D01*
X8259944Y-19446270D01*
X8288516Y-19460556D01*
X8302801Y-19474842D01*
X8317087Y-19503413D01*
X8317087Y-19574842D01*
X8302801Y-19603413D01*
X8288516Y-19617699D01*
X8259944Y-19631984D01*
X8188516Y-19631984D01*
X8159944Y-19617699D01*
X8145658Y-19603413D01*
X8445659Y-19631984D02*
X8445659Y-19431984D01*
X8445659Y-19460556D02*
X8459944Y-19446270D01*
X8488516Y-19431984D01*
X8531373Y-19431984D01*
X8559944Y-19446270D01*
X8574230Y-19474842D01*
X8574230Y-19631984D01*
X8574230Y-19474842D02*
X8588516Y-19446270D01*
X8617087Y-19431984D01*
X8659944Y-19431984D01*
X8688516Y-19446270D01*
X8702801Y-19474842D01*
X8702801Y-19631984D01*
X8845659Y-19631984D02*
X8845659Y-19431984D01*
X8845659Y-19460556D02*
X8859944Y-19446270D01*
X8888516Y-19431984D01*
X8931373Y-19431984D01*
X8959944Y-19446270D01*
X8974230Y-19474842D01*
X8974230Y-19631984D01*
X8974230Y-19474842D02*
X8988516Y-19446270D01*
X9017087Y-19431984D01*
X9059944Y-19431984D01*
X9088516Y-19446270D01*
X9102801Y-19474842D01*
X9102801Y-19631984D01*
X9688516Y-19317699D02*
X9431373Y-19703413D01*
X10074230Y-19331984D02*
X10102801Y-19331984D01*
X10131373Y-19346270D01*
X10145658Y-19360556D01*
X10159944Y-19389127D01*
X10174230Y-19446270D01*
X10174230Y-19517699D01*
X10159944Y-19574842D01*
X10145658Y-19603413D01*
X10131373Y-19617699D01*
X10102801Y-19631984D01*
X10074230Y-19631984D01*
X10045658Y-19617699D01*
X10031373Y-19603413D01*
X10017087Y-19574842D01*
X10002801Y-19517699D01*
X10002801Y-19446270D01*
X10017087Y-19389127D01*
X10031373Y-19360556D01*
X10045658Y-19346270D01*
X10074230Y-19331984D01*
X10302801Y-19603413D02*
X10317087Y-19617699D01*
X10302801Y-19631984D01*
X10288516Y-19617699D01*
X10302801Y-19603413D01*
X10302801Y-19631984D01*
X10602801Y-19631984D02*
X10431373Y-19631984D01*
X10517087Y-19631984D02*
X10517087Y-19331984D01*
X10488516Y-19374842D01*
X10459944Y-19403413D01*
X10431373Y-19417699D01*
X10717087Y-19360556D02*
X10731373Y-19346270D01*
X10759944Y-19331984D01*
X10831373Y-19331984D01*
X10859944Y-19346270D01*
X10874230Y-19360556D01*
X10888516Y-19389127D01*
X10888516Y-19417699D01*
X10874230Y-19460556D01*
X10702801Y-19631984D01*
X10888516Y-19631984D01*
X11074230Y-19331984D02*
X11102801Y-19331984D01*
X11131373Y-19346270D01*
X11145658Y-19360556D01*
X11159944Y-19389127D01*
X11174230Y-19446270D01*
X11174230Y-19517699D01*
X11159944Y-19574842D01*
X11145658Y-19603413D01*
X11131373Y-19617699D01*
X11102801Y-19631984D01*
X11074230Y-19631984D01*
X11045658Y-19617699D01*
X11031373Y-19603413D01*
X11017087Y-19574842D01*
X11002801Y-19517699D01*
X11002801Y-19446270D01*
X11017087Y-19389127D01*
X11031373Y-19360556D01*
X11045658Y-19346270D01*
X11074230Y-19331984D01*
X11288516Y-19331984D02*
X11288516Y-19389127D01*
X11402801Y-19331984D02*
X11402801Y-19389127D01*
X11845658Y-19746270D02*
X11831373Y-19731984D01*
X11802801Y-19689127D01*
X11788515Y-19660556D01*
X11774230Y-19617699D01*
X11759944Y-19546270D01*
X11759944Y-19489127D01*
X11774230Y-19417699D01*
X11788515Y-19374842D01*
X11802801Y-19346270D01*
X11831373Y-19303413D01*
X11845658Y-19289127D01*
X12088515Y-19431984D02*
X12088515Y-19631984D01*
X12017087Y-19317699D02*
X11945658Y-19531984D01*
X12131373Y-19531984D01*
X12474230Y-19631984D02*
X12474230Y-19331984D01*
X12602801Y-19631984D02*
X12602801Y-19474842D01*
X12588515Y-19446270D01*
X12559944Y-19431984D01*
X12517087Y-19431984D01*
X12488515Y-19446270D01*
X12474230Y-19460556D01*
X12788515Y-19631984D02*
X12759944Y-19617699D01*
X12745658Y-19603413D01*
X12731373Y-19574842D01*
X12731373Y-19489127D01*
X12745658Y-19460556D01*
X12759944Y-19446270D01*
X12788515Y-19431984D01*
X12831373Y-19431984D01*
X12859944Y-19446270D01*
X12874230Y-19460556D01*
X12888515Y-19489127D01*
X12888515Y-19574842D01*
X12874230Y-19603413D01*
X12859944Y-19617699D01*
X12831373Y-19631984D01*
X12788515Y-19631984D01*
X13059944Y-19631984D02*
X13031373Y-19617699D01*
X13017087Y-19589127D01*
X13017087Y-19331984D01*
X13288516Y-19617699D02*
X13259944Y-19631984D01*
X13202801Y-19631984D01*
X13174230Y-19617699D01*
X13159944Y-19589127D01*
X13159944Y-19474842D01*
X13174230Y-19446270D01*
X13202801Y-19431984D01*
X13259944Y-19431984D01*
X13288516Y-19446270D01*
X13302801Y-19474842D01*
X13302801Y-19503413D01*
X13159944Y-19531984D01*
X13417087Y-19617699D02*
X13445658Y-19631984D01*
X13502801Y-19631984D01*
X13531373Y-19617699D01*
X13545658Y-19589127D01*
X13545658Y-19574842D01*
X13531373Y-19546270D01*
X13502801Y-19531984D01*
X13459944Y-19531984D01*
X13431373Y-19517699D01*
X13417087Y-19489127D01*
X13417087Y-19474842D01*
X13431373Y-19446270D01*
X13459944Y-19431984D01*
X13502801Y-19431984D01*
X13531373Y-19446270D01*
X13645658Y-19746270D02*
X13659944Y-19731984D01*
X13688516Y-19689127D01*
X13702801Y-19660556D01*
X13717087Y-19617699D01*
X13731373Y-19546270D01*
X13731373Y-19489127D01*
X13717087Y-19417699D01*
X13702801Y-19374842D01*
X13688516Y-19346270D01*
X13659944Y-19303413D01*
X13645658Y-19289127D01*
X6985000Y-19741840D02*
X6985000Y-20120300D01*
X6795770Y-19931070D02*
X7174230Y-19931070D01*
X7174230Y-19931070D02*
G75*
G03X7174230Y-19931070I-189230J0D01*
G01*
X7417087Y-19766784D02*
X7602801Y-19766784D01*
X7502801Y-19881070D01*
X7545658Y-19881070D01*
X7574230Y-19895356D01*
X7588516Y-19909642D01*
X7602801Y-19938213D01*
X7602801Y-20009642D01*
X7588516Y-20038213D01*
X7574230Y-20052499D01*
X7545658Y-20066784D01*
X7459944Y-20066784D01*
X7431373Y-20052499D01*
X7417087Y-20038213D01*
X7731373Y-20038213D02*
X7745658Y-20052499D01*
X7731373Y-20066784D01*
X7717087Y-20052499D01*
X7731373Y-20038213D01*
X7731373Y-20066784D01*
X7845658Y-19766784D02*
X8045658Y-19766784D01*
X7917087Y-20066784D01*
X8202801Y-19895356D02*
X8174230Y-19881070D01*
X8159944Y-19866784D01*
X8145658Y-19838213D01*
X8145658Y-19823927D01*
X8159944Y-19795356D01*
X8174230Y-19781070D01*
X8202801Y-19766784D01*
X8259944Y-19766784D01*
X8288516Y-19781070D01*
X8302801Y-19795356D01*
X8317087Y-19823927D01*
X8317087Y-19838213D01*
X8302801Y-19866784D01*
X8288516Y-19881070D01*
X8259944Y-19895356D01*
X8202801Y-19895356D01*
X8174230Y-19909642D01*
X8159944Y-19923927D01*
X8145658Y-19952499D01*
X8145658Y-20009642D01*
X8159944Y-20038213D01*
X8174230Y-20052499D01*
X8202801Y-20066784D01*
X8259944Y-20066784D01*
X8288516Y-20052499D01*
X8302801Y-20038213D01*
X8317087Y-20009642D01*
X8317087Y-19952499D01*
X8302801Y-19923927D01*
X8288516Y-19909642D01*
X8259944Y-19895356D01*
X8445659Y-20066784D02*
X8445659Y-19866784D01*
X8445659Y-19895356D02*
X8459944Y-19881070D01*
X8488516Y-19866784D01*
X8531373Y-19866784D01*
X8559944Y-19881070D01*
X8574230Y-19909642D01*
X8574230Y-20066784D01*
X8574230Y-19909642D02*
X8588516Y-19881070D01*
X8617087Y-19866784D01*
X8659944Y-19866784D01*
X8688516Y-19881070D01*
X8702801Y-19909642D01*
X8702801Y-20066784D01*
X8845659Y-20066784D02*
X8845659Y-19866784D01*
X8845659Y-19895356D02*
X8859944Y-19881070D01*
X8888516Y-19866784D01*
X8931373Y-19866784D01*
X8959944Y-19881070D01*
X8974230Y-19909642D01*
X8974230Y-20066784D01*
X8974230Y-19909642D02*
X8988516Y-19881070D01*
X9017087Y-19866784D01*
X9059944Y-19866784D01*
X9088516Y-19881070D01*
X9102801Y-19909642D01*
X9102801Y-20066784D01*
X9688516Y-19752499D02*
X9431373Y-20138213D01*
X10074230Y-19766784D02*
X10102801Y-19766784D01*
X10131373Y-19781070D01*
X10145658Y-19795356D01*
X10159944Y-19823927D01*
X10174230Y-19881070D01*
X10174230Y-19952499D01*
X10159944Y-20009642D01*
X10145658Y-20038213D01*
X10131373Y-20052499D01*
X10102801Y-20066784D01*
X10074230Y-20066784D01*
X10045658Y-20052499D01*
X10031373Y-20038213D01*
X10017087Y-20009642D01*
X10002801Y-19952499D01*
X10002801Y-19881070D01*
X10017087Y-19823927D01*
X10031373Y-19795356D01*
X10045658Y-19781070D01*
X10074230Y-19766784D01*
X10302801Y-20038213D02*
X10317087Y-20052499D01*
X10302801Y-20066784D01*
X10288516Y-20052499D01*
X10302801Y-20038213D01*
X10302801Y-20066784D01*
X10602801Y-20066784D02*
X10431373Y-20066784D01*
X10517087Y-20066784D02*
X10517087Y-19766784D01*
X10488516Y-19809642D01*
X10459944Y-19838213D01*
X10431373Y-19852499D01*
X10859944Y-19866784D02*
X10859944Y-20066784D01*
X10788516Y-19752499D02*
X10717087Y-19966784D01*
X10902801Y-19966784D01*
X11031373Y-20066784D02*
X11088516Y-20066784D01*
X11117087Y-20052499D01*
X11131373Y-20038213D01*
X11159944Y-19995356D01*
X11174230Y-19938213D01*
X11174230Y-19823927D01*
X11159944Y-19795356D01*
X11145658Y-19781070D01*
X11117087Y-19766784D01*
X11059944Y-19766784D01*
X11031373Y-19781070D01*
X11017087Y-19795356D01*
X11002801Y-19823927D01*
X11002801Y-19895356D01*
X11017087Y-19923927D01*
X11031373Y-19938213D01*
X11059944Y-19952499D01*
X11117087Y-19952499D01*
X11145658Y-19938213D01*
X11159944Y-19923927D01*
X11174230Y-19895356D01*
X11288516Y-19766784D02*
X11288516Y-19823927D01*
X11402801Y-19766784D02*
X11402801Y-19823927D01*
X11845658Y-20181070D02*
X11831373Y-20166784D01*
X11802801Y-20123927D01*
X11788515Y-20095356D01*
X11774230Y-20052499D01*
X11759944Y-19981070D01*
X11759944Y-19923927D01*
X11774230Y-19852499D01*
X11788515Y-19809642D01*
X11802801Y-19781070D01*
X11831373Y-19738213D01*
X11845658Y-19723927D01*
X11945658Y-19795356D02*
X11959944Y-19781070D01*
X11988515Y-19766784D01*
X12059944Y-19766784D01*
X12088515Y-19781070D01*
X12102801Y-19795356D01*
X12117087Y-19823927D01*
X12117087Y-19852499D01*
X12102801Y-19895356D01*
X11931373Y-20066784D01*
X12117087Y-20066784D01*
X12474230Y-20066784D02*
X12474230Y-19766784D01*
X12602801Y-20066784D02*
X12602801Y-19909642D01*
X12588515Y-19881070D01*
X12559944Y-19866784D01*
X12517087Y-19866784D01*
X12488515Y-19881070D01*
X12474230Y-19895356D01*
X12788515Y-20066784D02*
X12759944Y-20052499D01*
X12745658Y-20038213D01*
X12731373Y-20009642D01*
X12731373Y-19923927D01*
X12745658Y-19895356D01*
X12759944Y-19881070D01*
X12788515Y-19866784D01*
X12831373Y-19866784D01*
X12859944Y-19881070D01*
X12874230Y-19895356D01*
X12888515Y-19923927D01*
X12888515Y-20009642D01*
X12874230Y-20038213D01*
X12859944Y-20052499D01*
X12831373Y-20066784D01*
X12788515Y-20066784D01*
X13059944Y-20066784D02*
X13031373Y-20052499D01*
X13017087Y-20023927D01*
X13017087Y-19766784D01*
X13288516Y-20052499D02*
X13259944Y-20066784D01*
X13202801Y-20066784D01*
X13174230Y-20052499D01*
X13159944Y-20023927D01*
X13159944Y-19909642D01*
X13174230Y-19881070D01*
X13202801Y-19866784D01*
X13259944Y-19866784D01*
X13288516Y-19881070D01*
X13302801Y-19909642D01*
X13302801Y-19938213D01*
X13159944Y-19966784D01*
X13417087Y-20052499D02*
X13445658Y-20066784D01*
X13502801Y-20066784D01*
X13531373Y-20052499D01*
X13545658Y-20023927D01*
X13545658Y-20009642D01*
X13531373Y-19981070D01*
X13502801Y-19966784D01*
X13459944Y-19966784D01*
X13431373Y-19952499D01*
X13417087Y-19923927D01*
X13417087Y-19909642D01*
X13431373Y-19881070D01*
X13459944Y-19866784D01*
X13502801Y-19866784D01*
X13531373Y-19881070D01*
X13645658Y-20181070D02*
X13659944Y-20166784D01*
X13688516Y-20123927D01*
X13702801Y-20095356D01*
X13717087Y-20052499D01*
X13731373Y-19981070D01*
X13731373Y-19923927D01*
X13717087Y-19852499D01*
X13702801Y-19809642D01*
X13688516Y-19781070D01*
X13659944Y-19738213D01*
X13645658Y-19723927D01*
M02*
