M48
;DRILL file {KiCad (after 2015-may-25 BZR unknown)-product} date 30/07/2015 9:42:19 AM
;FORMAT={2:4/ absolute / inch / suppress leading zeros}
FMAT,2
INCH,TZ
T1C0.025
T2C0.026
T3C0.032
T4C0.035
T5C0.040
T6C0.050
T7C0.059
T8C0.060
T9C0.120
T10C0.149
%
G90
G05
M72
T1
X36600Y-45800
X39425Y-51500
X42940Y-44760
X45980Y-32200
X46460Y-42560
X47740Y-44320
X50525Y-51500
X51760Y-36120
X53000Y-47320
X56480Y-32540
X56775Y-51500
X59300Y-38400
X62060Y-33220
X63000Y-51500
X63600Y-33220
X64460Y-35360
X66700Y-35400
T2
X65744Y-46364
X65744Y-48136
T3
X31375Y-32875
X31375Y-33875
X31375Y-34875
X31375Y-35875
X31375Y-36875
X31375Y-37875
X31375Y-38875
X31375Y-39875
X31500Y-25125
X31500Y-30125
X32500Y-25125
X32500Y-30125
X33500Y-25125
X33500Y-30125
X34500Y-25125
X34500Y-30125
X35500Y-25125
X35500Y-30125
X36375Y-32875
X36375Y-33875
X36375Y-34875
X36375Y-35875
X36375Y-36875
X36375Y-37875
X36375Y-38875
X36375Y-39875
X36500Y-25125
X36500Y-30125
X37500Y-25125
X37500Y-30125
X38500Y-25125
X38500Y-30125
X38500Y-48500
X38500Y-50500
X40500Y-25125
X40500Y-30125
X41500Y-25125
X41500Y-30125
X41500Y-48500
X41500Y-50500
X42500Y-25125
X42500Y-30125
X43185Y-48488
X43185Y-50488
X43500Y-25125
X43500Y-30125
X44500Y-25125
X44500Y-30125
X45500Y-25125
X45500Y-30125
X46185Y-48488
X46185Y-50488
X46500Y-25125
X46500Y-30125
X47500Y-25125
X47500Y-30125
X49500Y-25125
X49500Y-30125
X50500Y-25125
X50500Y-30125
X51500Y-25125
X51500Y-30125
X52500Y-25125
X52500Y-30125
X53500Y-25125
X53500Y-30125
X54500Y-25125
X54500Y-30125
X55500Y-25125
X55500Y-30125
X56500Y-25125
X56500Y-30125
X58500Y-25125
X58500Y-30125
X59500Y-25125
X59500Y-30125
X60500Y-25125
X60500Y-30125
X61250Y-32000
X61250Y-34000
X61500Y-25125
X61500Y-30125
X62500Y-25125
X62500Y-30125
X63500Y-25125
X63500Y-30125
X64250Y-32000
X64250Y-34000
X64500Y-25125
X64500Y-30125
X65500Y-25125
X65500Y-30125
T4
X40850Y-54550
X40850Y-58550
X51900Y-54550
X51900Y-58550
X58150Y-54550
X58150Y-58550
X64400Y-54550
X64400Y-58550
T5
X29500Y-34875
X29500Y-35875
X29500Y-36875
X29500Y-37875
X31540Y-41740
X31540Y-42740
X31540Y-43740
X32500Y-27875
X32500Y-28875
X32540Y-41740
X32540Y-42740
X32540Y-43740
X33500Y-27875
X33500Y-28875
X33540Y-41740
X33540Y-42740
X33540Y-43740
X33800Y-50000
X34125Y-36875
X34125Y-37875
X34125Y-38875
X34500Y-27875
X34500Y-28875
X34540Y-41740
X34540Y-42740
X34540Y-43740
X34800Y-50000
X35125Y-36875
X35125Y-37875
X35125Y-38875
X35375Y-22875
X35540Y-41740
X35540Y-42740
X35540Y-43740
X35800Y-50000
X36375Y-22875
X36540Y-41740
X36540Y-42740
X36540Y-43740
X37100Y-54250
X37375Y-22875
X38100Y-54250
X38250Y-37000
X38250Y-39000
X38250Y-40000
X38250Y-41000
X38250Y-42000
X38250Y-43000
X38250Y-44000
X38250Y-46000
X38375Y-22875
X39100Y-54250
X39180Y-33900
X39250Y-37000
X39250Y-39000
X39250Y-40000
X39250Y-41000
X39250Y-42000
X39250Y-43000
X39250Y-44000
X39250Y-46000
X40180Y-33900
X40250Y-37000
X40250Y-39000
X40250Y-40000
X40250Y-41000
X40250Y-42000
X40250Y-43000
X40250Y-44000
X40250Y-46000
X41180Y-33900
X41200Y-32900
X41250Y-37000
X41250Y-39000
X41250Y-46000
X41500Y-27875
X41500Y-28875
X42180Y-33900
X42200Y-32900
X42250Y-37000
X42250Y-46000
X42500Y-27875
X42500Y-28875
X43200Y-32900
X43250Y-37000
X43250Y-46000
X43500Y-27875
X43500Y-28875
X44000Y-22875
X44200Y-32900
X44250Y-37000
X44250Y-46000
X45000Y-22875
X45250Y-37000
X45250Y-46000
X46000Y-22875
X46250Y-37000
X46250Y-46000
X47000Y-22875
X47250Y-37000
X47250Y-46000
X48150Y-54250
X48200Y-32900
X48200Y-33900
X48250Y-37000
X48250Y-46000
X49150Y-54250
X49200Y-32900
X49200Y-33900
X49250Y-37000
X49250Y-46000
X49340Y-48860
X49340Y-49860
X50150Y-54250
X50200Y-32900
X50200Y-33900
X50250Y-37000
X50250Y-46000
X50340Y-48860
X50340Y-49860
X50500Y-27875
X50500Y-28875
X51250Y-37000
X51250Y-46000
X51340Y-48860
X51340Y-49860
X51500Y-27875
X51500Y-28875
X51680Y-34020
X52250Y-37000
X52250Y-46000
X52500Y-22875
X52500Y-27875
X52500Y-28875
X52680Y-34020
X53250Y-37000
X53250Y-46000
X53460Y-48600
X53500Y-22875
X53680Y-34020
X54250Y-37000
X54250Y-46000
X54400Y-54250
X54460Y-48600
X54500Y-22875
X54680Y-34020
X55250Y-37000
X55250Y-46000
X55400Y-54250
X55460Y-48600
X55500Y-22875
X56250Y-37000
X56250Y-46000
X56400Y-54250
X56460Y-48600
X57250Y-37000
X57250Y-46000
X58250Y-37000
X58250Y-46000
X59250Y-37000
X59250Y-46000
X59500Y-27875
X59500Y-28875
X60250Y-37000
X60250Y-46000
X60500Y-27875
X60500Y-28875
X60650Y-54250
X61000Y-22750
X61180Y-47320
X61250Y-37000
X61250Y-46000
X61500Y-27875
X61500Y-28875
X61650Y-54250
X62000Y-22750
X62160Y-49280
X62180Y-47320
X62250Y-37000
X62250Y-46000
X62650Y-54250
X63000Y-22750
X63160Y-49280
X63180Y-47320
X63250Y-37000
X63250Y-46000
X64000Y-22750
X64160Y-49280
X64250Y-37000
X64250Y-46000
T6
X33420Y-57100
X34780Y-54100
X43920Y-57100
X45280Y-54100
T7
X66925Y-45577
X66925Y-48923
T8
X30000Y-49400
X30000Y-51400
X30000Y-53400
X30000Y-55400
X37100Y-57750
X39100Y-57750
X48150Y-57750
X50150Y-57750
X54400Y-57750
X56400Y-57750
X60650Y-57750
X62650Y-57750
T9
X29500Y-22500
X29500Y-59250
X66250Y-22500
X66250Y-59250
T10
X34100Y-55600
X44600Y-55600
T0
M30
