%FSTAX24Y24*%
%MOIN*%
G70*
G01*
G75*
G04 Layer_Physical_Order=1*
G04 Layer_Color=255*
%ADD10C,0.0120*%
%ADD11O,0.0900X0.0750*%
%ADD12R,0.0900X0.0750*%
%ADD13C,0.1380*%
%ADD14C,0.0591*%
%ADD15R,0.0591X0.0591*%
%ADD16C,0.1043*%
%ADD17C,0.1161*%
%ADD18C,0.0600*%
%ADD19R,0.0600X0.0600*%
%ADD20C,0.0902*%
%ADD21R,0.0902X0.0902*%
D10*
X0371Y02925D02*
Y02975D01*
X0383Y03095D01*
X0407D01*
X0408Y03145D02*
X041Y03165D01*
X04365D01*
X0381Y02875D02*
Y02955D01*
X0381Y02955D02*
X0381Y02955D01*
X0381Y02955D02*
X0385Y02995D01*
X03865Y02825D02*
X03935Y02895D01*
X0408D01*
X0371Y02825D02*
X03865D01*
X03915Y02795D02*
X0419D01*
X0371Y02725D02*
X0395D01*
X0398Y02695D01*
X0381Y02775D02*
X03895D01*
X03915Y02795D01*
X0381Y02675D02*
X0387D01*
X0394Y02605D01*
X0397D01*
X0398Y02595D01*
X0381Y0244D02*
Y02575D01*
Y0244D02*
X03855Y02395D01*
X0408D01*
X0371Y02625D02*
X0385D01*
X03895Y0258D01*
Y0252D02*
X0392Y02495D01*
X03895Y0252D02*
Y0258D01*
X0398Y02695D02*
X04215D01*
X0398Y02595D02*
X04135D01*
X0392Y02495D02*
X04145D01*
X04165Y02375D02*
Y02475D01*
X04625Y0245D02*
X0474Y02565D01*
X0486D01*
X0492Y02505D01*
X0502D01*
X05025Y025D01*
X04635Y02375D02*
Y0245D01*
X04825Y024D02*
X05025D01*
X04775Y0245D02*
X04785Y0244D01*
X04825Y024D01*
X04785Y0238D02*
Y0244D01*
X04935Y026D02*
X05025D01*
X049Y02635D02*
X04935Y026D01*
X04725Y02635D02*
X049D01*
X0462Y0253D02*
X04725Y02635D01*
X0455Y0253D02*
X0462D01*
X0452Y025D02*
X0455Y0253D01*
X0452Y02395D02*
Y025D01*
X04145Y02305D02*
X0471D01*
X04785Y0238D01*
X04207Y02333D02*
X04593D01*
X04165Y02375D02*
X04207Y02333D01*
X04593D02*
X04635Y02375D01*
X04485Y0236D02*
X0452Y02395D01*
X0426Y0238D02*
Y0247D01*
Y0238D02*
X0428Y0236D01*
X04485D01*
X0426Y03D02*
Y0305D01*
X0452Y03005D02*
Y03085D01*
X0459Y03155D01*
X0484D01*
X0491Y03085D01*
Y03025D02*
Y03085D01*
Y03025D02*
X04935Y03D01*
X05025D01*
X04135Y0305D02*
X0426D01*
X04365Y03165D02*
X0441Y0312D01*
Y0305D02*
Y0307D01*
X0453Y0319D01*
X0441Y0307D02*
Y0312D01*
X0453Y0319D02*
X0497D01*
X05025Y03135D01*
Y031D02*
Y03135D01*
X04625Y0297D02*
Y0305D01*
Y0311D01*
X04635Y0312D01*
X04835D01*
X04885Y0307D01*
Y0296D02*
Y0307D01*
Y0296D02*
X04945Y029D01*
X05025D01*
X04775Y0295D02*
Y0305D01*
X0459Y02575D02*
X04715Y027D01*
X05025D01*
X04775Y0295D02*
X04925Y028D01*
X05025D01*
X0431Y02915D02*
X0474D01*
X04775Y0295D01*
X046Y02945D02*
X04625Y0297D01*
X04215Y02945D02*
X046D01*
X0426Y03D02*
X04285Y02975D01*
X0449D01*
X0452Y03005D01*
X0408Y03105D02*
Y03145D01*
X0407Y03095D02*
X0408Y03105D01*
Y02995D02*
X04135Y0305D01*
X0407Y02995D02*
X0408D01*
X0385D02*
X0407D01*
X0408Y02895D02*
X04165D01*
X04215Y02945D01*
X0419Y02795D02*
X0431Y02915D01*
X04145Y02495D02*
X04165Y02475D01*
X0408Y0237D02*
X04145Y02305D01*
X0408Y0237D02*
Y02395D01*
X044Y0246D02*
X0441Y0245D01*
X044Y0246D02*
Y0251D01*
X04215Y02695D02*
X044Y0251D01*
X0447Y02575D02*
X0459D01*
X044Y0249D02*
X0441Y0248D01*
X044Y02505D02*
X0447Y02575D01*
X04135Y02595D02*
X0426Y0247D01*
D11*
X05025Y024D02*
D03*
Y026D02*
D03*
Y028D02*
D03*
Y029D02*
D03*
Y03D02*
D03*
Y027D02*
D03*
Y025D02*
D03*
D12*
Y031D02*
D03*
D13*
X0446Y0275D02*
D03*
D14*
X0381Y02575D02*
D03*
Y02875D02*
D03*
X0371Y02625D02*
D03*
X0381Y02675D02*
D03*
Y02775D02*
D03*
X0371Y02725D02*
D03*
Y02825D02*
D03*
D15*
Y02925D02*
D03*
D16*
X0334Y0244D02*
D03*
Y0306D02*
D03*
D17*
X0346Y02975D02*
D03*
Y02525D02*
D03*
D18*
X0407Y03095D02*
D03*
Y02995D02*
D03*
Y02895D02*
D03*
Y02795D02*
D03*
Y02695D02*
D03*
Y02595D02*
D03*
X0397Y02395D02*
D03*
Y02495D02*
D03*
Y02595D02*
D03*
Y02695D02*
D03*
Y02795D02*
D03*
Y02895D02*
D03*
Y02995D02*
D03*
X0407Y02495D02*
D03*
Y02395D02*
D03*
D19*
X0397Y03095D02*
D03*
D20*
X0425Y0305D02*
D03*
X04775D02*
D03*
X0425Y0245D02*
D03*
X04775D02*
D03*
D21*
X044Y0305D02*
D03*
X04625D02*
D03*
X044Y0245D02*
D03*
X04625D02*
D03*
M02*
