%FSTAX24Y24*%
%MOIN*%
G70*
G01*
G75*
%ADD10C,0.0120*%
%ADD11O,0.0900X0.0750*%
%ADD12R,0.0900X0.0750*%
%ADD13C,0.1380*%
%ADD14C,0.0591*%
%ADD15R,0.0591X0.0591*%
%ADD16C,0.1043*%
%ADD17C,0.1161*%
%ADD18C,0.0600*%
%ADD19R,0.0600X0.0600*%
%ADD20C,0.0902*%
%ADD21R,0.0902X0.0902*%
%ADD22C,0.0100*%
%ADD23C,0.0070*%
%ADD24C,0.0079*%
%ADD25O,0.0980X0.0830*%
%ADD26R,0.0980X0.0830*%
%ADD27C,0.1460*%
%ADD28C,0.0671*%
%ADD29R,0.0671X0.0671*%
%ADD30C,0.1123*%
%ADD31C,0.1241*%
%ADD32C,0.0680*%
%ADD33R,0.0680X0.0680*%
%ADD34C,0.0982*%
%ADD35R,0.0982X0.0982*%
%ADD36C,0.0118*%
%ADD37C,0.0050*%
%ADD38C,0.0067*%
D37*
X05008Y024D02*
X05042D01*
X05025Y02383D02*
Y02417D01*
X05008Y026D02*
X05042D01*
X05025Y02583D02*
Y02617D01*
X05008Y028D02*
X05042D01*
X05025Y02783D02*
Y02817D01*
X05008Y029D02*
X05042D01*
X05025Y02883D02*
Y02917D01*
X05008Y03D02*
X05042D01*
X05025Y02983D02*
Y03017D01*
X05008Y031D02*
X05042D01*
X05025Y03083D02*
Y03117D01*
X05008Y027D02*
X05042D01*
X05025Y02683D02*
Y02717D01*
X05008Y025D02*
X05042D01*
X05025Y02483D02*
Y02517D01*
X04401Y0275D02*
X04519D01*
X0446Y02691D02*
Y02809D01*
X037923Y02575D02*
X038278D01*
X0381Y025573D02*
Y025927D01*
X037923Y02875D02*
X038278D01*
X0381Y028573D02*
Y028927D01*
X036923Y02925D02*
X037278D01*
X0371Y029073D02*
Y029427D01*
X036923Y02625D02*
X037278D01*
X0371Y026073D02*
Y026427D01*
X037923Y02675D02*
X038278D01*
X0381Y026573D02*
Y026927D01*
X037923Y02775D02*
X038278D01*
X0381Y027573D02*
Y027927D01*
X036923Y02725D02*
X037278D01*
X0371Y027073D02*
Y027427D01*
X036923Y02825D02*
X037278D01*
X0371Y028073D02*
Y028427D01*
X033085Y0244D02*
X033715D01*
X0334Y024085D02*
Y024715D01*
X033085Y0306D02*
X033715D01*
X0334Y030285D02*
Y030915D01*
X033961Y02975D02*
X03524D01*
X0346Y02911D02*
Y03039D01*
X033961Y02525D02*
X03524D01*
X0346Y02461D02*
Y02589D01*
X04052Y03095D02*
X04088D01*
X0407Y03077D02*
Y03113D01*
X04052Y02995D02*
X04088D01*
X0407Y02977D02*
Y03013D01*
X04052Y02895D02*
X04088D01*
X0407Y02877D02*
Y02913D01*
X04052Y02795D02*
X04088D01*
X0407Y02777D02*
Y02813D01*
X04052Y02695D02*
X04088D01*
X0407Y02677D02*
Y02713D01*
X04052Y02595D02*
X04088D01*
X0407Y02577D02*
Y02613D01*
X03952Y02395D02*
X03988D01*
X0397Y02377D02*
Y02413D01*
X03952Y02495D02*
X03988D01*
X0397Y02477D02*
Y02513D01*
X03952Y02595D02*
X03988D01*
X0397Y02577D02*
Y02613D01*
X03952Y02695D02*
X03988D01*
X0397Y02677D02*
Y02713D01*
X03952Y03095D02*
X03988D01*
X0397Y03077D02*
Y03113D01*
X03952Y02795D02*
X03988D01*
X0397Y02777D02*
Y02813D01*
X03952Y02895D02*
X03988D01*
X0397Y02877D02*
Y02913D01*
X03952Y02995D02*
X03988D01*
X0397Y02977D02*
Y03013D01*
X04052Y02495D02*
X04088D01*
X0407Y02477D02*
Y02513D01*
X04052Y02395D02*
X04088D01*
X0407Y02377D02*
Y02413D01*
X042276Y0305D02*
X042724D01*
X0425Y030276D02*
Y030724D01*
X043776Y0305D02*
X044224D01*
X044Y030276D02*
Y030724D01*
X047526Y0305D02*
X047974D01*
X04775Y030276D02*
Y030724D01*
X046026Y0305D02*
X046474D01*
X04625Y030276D02*
Y030724D01*
X042276Y0245D02*
X042724D01*
X0425Y024276D02*
Y024724D01*
X043776Y0245D02*
X044224D01*
X044Y024276D02*
Y024724D01*
X047526Y0245D02*
X047974D01*
X04775Y024276D02*
Y024724D01*
X046026Y0245D02*
X046474D01*
X04625Y024276D02*
Y024724D01*
M02*
