%FSTAX24Y24*%
%MOIN*%
G70*
G01*
G75*
G04 Layer_Color=16711935*
%ADD10C,0.0120*%
%ADD11O,0.0900X0.0750*%
%ADD12R,0.0900X0.0750*%
%ADD13C,0.1380*%
%ADD14C,0.0591*%
%ADD15R,0.0591X0.0591*%
%ADD16C,0.1043*%
%ADD17C,0.1161*%
%ADD18C,0.0600*%
%ADD19R,0.0600X0.0600*%
%ADD20C,0.0902*%
%ADD21R,0.0902X0.0902*%
%ADD22C,0.0100*%
%ADD23C,0.0070*%
%ADD24C,0.0079*%
%ADD25O,0.0980X0.0830*%
%ADD26R,0.0980X0.0830*%
%ADD27C,0.1460*%
%ADD28C,0.0671*%
%ADD29R,0.0671X0.0671*%
%ADD30C,0.1123*%
%ADD31C,0.1241*%
%ADD32C,0.0680*%
%ADD33R,0.0680X0.0680*%
%ADD34C,0.0982*%
%ADD35R,0.0982X0.0982*%
D25*
X05025Y024D02*
D03*
Y026D02*
D03*
Y028D02*
D03*
Y029D02*
D03*
Y03D02*
D03*
Y027D02*
D03*
Y025D02*
D03*
D26*
Y031D02*
D03*
D27*
X0446Y0275D02*
D03*
D28*
X0381Y02575D02*
D03*
Y02875D02*
D03*
X0371Y02625D02*
D03*
X0381Y02675D02*
D03*
Y02775D02*
D03*
X0371Y02725D02*
D03*
Y02825D02*
D03*
D29*
Y02925D02*
D03*
D30*
X0334Y0244D02*
D03*
Y0306D02*
D03*
D31*
X0346Y02975D02*
D03*
Y02525D02*
D03*
D32*
X0407Y03095D02*
D03*
Y02995D02*
D03*
Y02895D02*
D03*
Y02795D02*
D03*
Y02695D02*
D03*
Y02595D02*
D03*
X0397Y02395D02*
D03*
Y02495D02*
D03*
Y02595D02*
D03*
Y02695D02*
D03*
Y02795D02*
D03*
Y02895D02*
D03*
Y02995D02*
D03*
X0407Y02495D02*
D03*
Y02395D02*
D03*
D33*
X0397Y03095D02*
D03*
D34*
X0425Y0305D02*
D03*
X04775D02*
D03*
X0425Y0245D02*
D03*
X04775D02*
D03*
D35*
X044Y0305D02*
D03*
X04625D02*
D03*
X044Y0245D02*
D03*
X04625D02*
D03*
M02*
