%FSTAX24Y24*%
%MOIN*%
G70*
G01*
G75*
G04 Layer_Color=255*
%ADD10C,0.0120*%
%ADD11O,0.0900X0.0750*%
%ADD12R,0.0900X0.0750*%
%ADD13C,0.1380*%
%ADD14C,0.0591*%
%ADD15R,0.0591X0.0591*%
%ADD16C,0.1043*%
%ADD17C,0.1161*%
%ADD18C,0.0600*%
%ADD19R,0.0600X0.0600*%
%ADD20C,0.0902*%
%ADD21R,0.0902X0.0902*%
D11*
X05025Y024D02*
D03*
Y026D02*
D03*
Y028D02*
D03*
Y029D02*
D03*
Y03D02*
D03*
Y027D02*
D03*
Y025D02*
D03*
D12*
Y031D02*
D03*
D13*
X0446Y0275D02*
D03*
D14*
X0381Y02575D02*
D03*
Y02875D02*
D03*
X0371Y02625D02*
D03*
X0381Y02675D02*
D03*
Y02775D02*
D03*
X0371Y02725D02*
D03*
Y02825D02*
D03*
D15*
Y02925D02*
D03*
D16*
X0334Y0244D02*
D03*
Y0306D02*
D03*
D17*
X0346Y02975D02*
D03*
Y02525D02*
D03*
D18*
X0407Y03095D02*
D03*
Y02995D02*
D03*
Y02895D02*
D03*
Y02795D02*
D03*
Y02695D02*
D03*
Y02595D02*
D03*
X0397Y02395D02*
D03*
Y02495D02*
D03*
Y02595D02*
D03*
Y02695D02*
D03*
Y02795D02*
D03*
Y02895D02*
D03*
Y02995D02*
D03*
X0407Y02495D02*
D03*
Y02395D02*
D03*
D19*
X0397Y03095D02*
D03*
D20*
X0425Y0305D02*
D03*
X04775D02*
D03*
X0425Y0245D02*
D03*
X04775D02*
D03*
D21*
X044Y0305D02*
D03*
X04625D02*
D03*
X044Y0245D02*
D03*
X04625D02*
D03*
M02*
