M48
;Layer_Color=9474304
;FILE_FORMAT=2:4
INCH,LZ
;TYPE=PLATED
T1F00S00C0.0340
T2F00S00C0.0354
T3F00S00C0.0360
T4F00S00C0.0449
T5F00S00C0.0630
T6F00S00C0.1180
;TYPE=NON_PLATED
T7F00S00C0.1280
%
T01
X05025Y024
Y025
Y026
Y027
Y028
Y029
Y03
Y031
T02
X0371Y02625
Y02725
Y02825
Y02925
X0381Y02875
Y02775
Y02675
Y02575
T03
X0397Y02395
Y02495
Y02595
X0407
Y02695
Y02795
Y02895
Y02995
Y03095
X0397
Y02995
Y02895
Y02795
Y02695
X0407Y02495
Y02395
T04
X04775Y0245
Y0305
X04625
X044
X0425
Y0245
X044
X04625
T05
X0334Y0244
Y0306
T06
X0446Y0275
T07
X0346Y02525
Y02975
M30
