G75*
G70*
%OFA0B0*%
%FSLAX24Y24*%
%IPPOS*%
%LPD*%
%AMOC8*
5,1,8,0,0,1.08239X$1,22.5*
%
%ADD10C,0.0000*%
D10*
X001917Y000100D02*
X033717Y000100D01*
X036737Y003400D01*
X036737Y021846D01*
X033821Y025146D01*
X001967Y025150D01*
X000217Y021796D01*
X000217Y003350D01*
X001917Y000100D01*
X001842Y012600D02*
X001844Y012650D01*
X001850Y012699D01*
X001860Y012748D01*
X001873Y012795D01*
X001891Y012842D01*
X001912Y012887D01*
X001936Y012930D01*
X001964Y012971D01*
X001995Y013010D01*
X002029Y013046D01*
X002066Y013080D01*
X002106Y013110D01*
X002147Y013137D01*
X002191Y013161D01*
X002236Y013181D01*
X002283Y013197D01*
X002331Y013210D01*
X002380Y013219D01*
X002430Y013224D01*
X002479Y013225D01*
X002529Y013222D01*
X002578Y013215D01*
X002627Y013204D01*
X002674Y013190D01*
X002720Y013171D01*
X002765Y013149D01*
X002808Y013124D01*
X002848Y013095D01*
X002886Y013063D01*
X002922Y013029D01*
X002955Y012991D01*
X002984Y012951D01*
X003010Y012909D01*
X003033Y012865D01*
X003052Y012819D01*
X003068Y012772D01*
X003080Y012723D01*
X003088Y012674D01*
X003092Y012625D01*
X003092Y012575D01*
X003088Y012526D01*
X003080Y012477D01*
X003068Y012428D01*
X003052Y012381D01*
X003033Y012335D01*
X003010Y012291D01*
X002984Y012249D01*
X002955Y012209D01*
X002922Y012171D01*
X002886Y012137D01*
X002848Y012105D01*
X002808Y012076D01*
X002765Y012051D01*
X002720Y012029D01*
X002674Y012010D01*
X002627Y011996D01*
X002578Y011985D01*
X002529Y011978D01*
X002479Y011975D01*
X002430Y011976D01*
X002380Y011981D01*
X002331Y011990D01*
X002283Y012003D01*
X002236Y012019D01*
X002191Y012039D01*
X002147Y012063D01*
X002106Y012090D01*
X002066Y012120D01*
X002029Y012154D01*
X001995Y012190D01*
X001964Y012229D01*
X001936Y012270D01*
X001912Y012313D01*
X001891Y012358D01*
X001873Y012405D01*
X001860Y012452D01*
X001850Y012501D01*
X001844Y012550D01*
X001842Y012600D01*
X034842Y007100D02*
X034844Y007150D01*
X034850Y007199D01*
X034860Y007248D01*
X034873Y007295D01*
X034891Y007342D01*
X034912Y007387D01*
X034936Y007430D01*
X034964Y007471D01*
X034995Y007510D01*
X035029Y007546D01*
X035066Y007580D01*
X035106Y007610D01*
X035147Y007637D01*
X035191Y007661D01*
X035236Y007681D01*
X035283Y007697D01*
X035331Y007710D01*
X035380Y007719D01*
X035430Y007724D01*
X035479Y007725D01*
X035529Y007722D01*
X035578Y007715D01*
X035627Y007704D01*
X035674Y007690D01*
X035720Y007671D01*
X035765Y007649D01*
X035808Y007624D01*
X035848Y007595D01*
X035886Y007563D01*
X035922Y007529D01*
X035955Y007491D01*
X035984Y007451D01*
X036010Y007409D01*
X036033Y007365D01*
X036052Y007319D01*
X036068Y007272D01*
X036080Y007223D01*
X036088Y007174D01*
X036092Y007125D01*
X036092Y007075D01*
X036088Y007026D01*
X036080Y006977D01*
X036068Y006928D01*
X036052Y006881D01*
X036033Y006835D01*
X036010Y006791D01*
X035984Y006749D01*
X035955Y006709D01*
X035922Y006671D01*
X035886Y006637D01*
X035848Y006605D01*
X035808Y006576D01*
X035765Y006551D01*
X035720Y006529D01*
X035674Y006510D01*
X035627Y006496D01*
X035578Y006485D01*
X035529Y006478D01*
X035479Y006475D01*
X035430Y006476D01*
X035380Y006481D01*
X035331Y006490D01*
X035283Y006503D01*
X035236Y006519D01*
X035191Y006539D01*
X035147Y006563D01*
X035106Y006590D01*
X035066Y006620D01*
X035029Y006654D01*
X034995Y006690D01*
X034964Y006729D01*
X034936Y006770D01*
X034912Y006813D01*
X034891Y006858D01*
X034873Y006905D01*
X034860Y006952D01*
X034850Y007001D01*
X034844Y007050D01*
X034842Y007100D01*
X034842Y018100D02*
X034844Y018150D01*
X034850Y018199D01*
X034860Y018248D01*
X034873Y018295D01*
X034891Y018342D01*
X034912Y018387D01*
X034936Y018430D01*
X034964Y018471D01*
X034995Y018510D01*
X035029Y018546D01*
X035066Y018580D01*
X035106Y018610D01*
X035147Y018637D01*
X035191Y018661D01*
X035236Y018681D01*
X035283Y018697D01*
X035331Y018710D01*
X035380Y018719D01*
X035430Y018724D01*
X035479Y018725D01*
X035529Y018722D01*
X035578Y018715D01*
X035627Y018704D01*
X035674Y018690D01*
X035720Y018671D01*
X035765Y018649D01*
X035808Y018624D01*
X035848Y018595D01*
X035886Y018563D01*
X035922Y018529D01*
X035955Y018491D01*
X035984Y018451D01*
X036010Y018409D01*
X036033Y018365D01*
X036052Y018319D01*
X036068Y018272D01*
X036080Y018223D01*
X036088Y018174D01*
X036092Y018125D01*
X036092Y018075D01*
X036088Y018026D01*
X036080Y017977D01*
X036068Y017928D01*
X036052Y017881D01*
X036033Y017835D01*
X036010Y017791D01*
X035984Y017749D01*
X035955Y017709D01*
X035922Y017671D01*
X035886Y017637D01*
X035848Y017605D01*
X035808Y017576D01*
X035765Y017551D01*
X035720Y017529D01*
X035674Y017510D01*
X035627Y017496D01*
X035578Y017485D01*
X035529Y017478D01*
X035479Y017475D01*
X035430Y017476D01*
X035380Y017481D01*
X035331Y017490D01*
X035283Y017503D01*
X035236Y017519D01*
X035191Y017539D01*
X035147Y017563D01*
X035106Y017590D01*
X035066Y017620D01*
X035029Y017654D01*
X034995Y017690D01*
X034964Y017729D01*
X034936Y017770D01*
X034912Y017813D01*
X034891Y017858D01*
X034873Y017905D01*
X034860Y017952D01*
X034850Y018001D01*
X034844Y018050D01*
X034842Y018100D01*
M02*
