%
M48
M72
T01C0.0236
T02C0.0394
T03C0.0400
T04C0.1250
%
T01
X29317Y17800
X31717Y18700
X32617Y18500
X33417Y18500
X34017Y19700
X31817Y19800
X34817Y21500
X35917Y19550
X30317Y15800
X29817Y15800
X30817Y14600
X29117Y22250
X32417Y24650
X32117Y5000
T02
X35367Y10100
X35367Y11100
X35367Y12100
X35367Y13100
X35367Y14100
X5967Y23650
X4967Y23650
X3967Y23650
X2967Y23650
T03
X1327Y4320
X3107Y4320
X3107Y6880
X1327Y6880
X5077Y8070
X6857Y8070
X6857Y10630
X8077Y11320
X9857Y11320
X13077Y11320
X14857Y11320
X18077Y11320
X19857Y11320
X22827Y11320
X24607Y11320
X27077Y11320
X28857Y11320
X28857Y13880
X27077Y13880
X24607Y13880
X22827Y13880
X19857Y13880
X18077Y13880
X14857Y13880
X13077Y13880
X9857Y13880
X8077Y13880
X6857Y14570
X5077Y14570
X5077Y17130
X6857Y17130
X3107Y18320
X1327Y18320
X1327Y20880
X3107Y20880
X7327Y20320
X9107Y20320
X11327Y20320
X13107Y20320
X13077Y18880
X14857Y18880
X16827Y20070
X18607Y20070
X21327Y18820
X23107Y18820
X26077Y19320
X27857Y19320
X27857Y21880
X26077Y21880
X23107Y21380
X21327Y21380
X18607Y22630
X16827Y22630
X13107Y22880
X11327Y22880
X9107Y22880
X7327Y22880
X13077Y16320
X14857Y16320
X5077Y10630
X13077Y8880
X14857Y8880
X14857Y6320
X13077Y6320
X13107Y4880
X11327Y4880
X9107Y4880
X7327Y4880
X7327Y2320
X9107Y2320
X11327Y2320
X13107Y2320
X16827Y2570
X18607Y2570
X21327Y3570
X23107Y3570
X26077Y3320
X27857Y3320
X27857Y5880
X26077Y5880
X23107Y6130
X21327Y6130
X18607Y5130
X16827Y5130
T04
X2467Y12600
X35467Y7100
X35467Y18100
M30
