G75*
G70*
%OFA0B0*%
%FSLAX24Y24*%
%IPPOS*%
%LPD*%
%AMOC8*
5,1,8,0,0,1.08239X$1,22.5*
%
%ADD10C,0.0600*%
%ADD11C,0.0594*%
%ADD12C,0.0240*%
%ADD13C,0.0160*%
%ADD14C,0.0396*%
%ADD15C,0.0200*%
%ADD16C,0.0120*%
D10*
X001327Y004020D02*
X001327Y004620D01*
X003107Y004620D02*
X003107Y004020D01*
X003107Y006580D02*
X003107Y007180D01*
X001327Y007180D02*
X001327Y006580D01*
X005077Y007770D02*
X005077Y008370D01*
X006857Y008370D02*
X006857Y007770D01*
X006857Y010330D02*
X006857Y010930D01*
X008077Y011020D02*
X008077Y011620D01*
X009857Y011620D02*
X009857Y011020D01*
X013077Y011020D02*
X013077Y011620D01*
X014857Y011620D02*
X014857Y011020D01*
X014857Y009180D02*
X014857Y008580D01*
X013077Y008580D02*
X013077Y009180D01*
X013077Y006620D02*
X013077Y006020D01*
X013107Y005180D02*
X013107Y004580D01*
X011327Y004580D02*
X011327Y005180D01*
X009107Y005180D02*
X009107Y004580D01*
X007327Y004580D02*
X007327Y005180D01*
X007327Y002620D02*
X007327Y002020D01*
X009107Y002020D02*
X009107Y002620D01*
X011327Y002620D02*
X011327Y002020D01*
X013107Y002020D02*
X013107Y002620D01*
X016827Y002870D02*
X016827Y002270D01*
X018607Y002270D02*
X018607Y002870D01*
X021327Y003270D02*
X021327Y003870D01*
X023107Y003870D02*
X023107Y003270D01*
X026077Y003020D02*
X026077Y003620D01*
X027857Y003620D02*
X027857Y003020D01*
X027857Y005580D02*
X027857Y006180D01*
X026077Y006180D02*
X026077Y005580D01*
X023107Y005830D02*
X023107Y006430D01*
X021327Y006430D02*
X021327Y005830D01*
X018607Y005430D02*
X018607Y004830D01*
X016827Y004830D02*
X016827Y005430D01*
X014857Y006020D02*
X014857Y006620D01*
X018077Y011020D02*
X018077Y011620D01*
X019857Y011620D02*
X019857Y011020D01*
X022827Y011020D02*
X022827Y011620D01*
X024607Y011620D02*
X024607Y011020D01*
X027077Y011020D02*
X027077Y011620D01*
X028857Y011620D02*
X028857Y011020D01*
X028857Y013580D02*
X028857Y014180D01*
X027077Y014180D02*
X027077Y013580D01*
X024607Y013580D02*
X024607Y014180D01*
X022827Y014180D02*
X022827Y013580D01*
X019857Y013580D02*
X019857Y014180D01*
X018077Y014180D02*
X018077Y013580D01*
X014857Y013580D02*
X014857Y014180D01*
X013077Y014180D02*
X013077Y013580D01*
X009857Y013580D02*
X009857Y014180D01*
X008077Y014180D02*
X008077Y013580D01*
X006857Y014270D02*
X006857Y014870D01*
X005077Y014870D02*
X005077Y014270D01*
X005077Y016830D02*
X005077Y017430D01*
X006857Y017430D02*
X006857Y016830D01*
X003107Y018020D02*
X003107Y018620D01*
X001327Y018620D02*
X001327Y018020D01*
X001327Y020580D02*
X001327Y021180D01*
X003107Y021180D02*
X003107Y020580D01*
X007327Y020620D02*
X007327Y020020D01*
X009107Y020020D02*
X009107Y020620D01*
X011327Y020620D02*
X011327Y020020D01*
X013107Y020020D02*
X013107Y020620D01*
X013077Y019180D02*
X013077Y018580D01*
X014857Y018580D02*
X014857Y019180D01*
X016827Y019770D02*
X016827Y020370D01*
X018607Y020370D02*
X018607Y019770D01*
X021327Y019120D02*
X021327Y018520D01*
X023107Y018520D02*
X023107Y019120D01*
X023107Y021080D02*
X023107Y021680D01*
X021327Y021680D02*
X021327Y021080D01*
X018607Y022330D02*
X018607Y022930D01*
X016827Y022930D02*
X016827Y022330D01*
X013107Y022580D02*
X013107Y023180D01*
X011327Y023180D02*
X011327Y022580D01*
X009107Y022580D02*
X009107Y023180D01*
X007327Y023180D02*
X007327Y022580D01*
X013077Y016620D02*
X013077Y016020D01*
X014857Y016020D02*
X014857Y016620D01*
X005077Y010930D02*
X005077Y010330D01*
X026077Y019020D02*
X026077Y019620D01*
X027857Y019620D02*
X027857Y019020D01*
X027857Y021580D02*
X027857Y022180D01*
X026077Y022180D02*
X026077Y021580D01*
D11*
X035070Y014100D02*
X035664Y014100D01*
X035664Y013100D02*
X035070Y013100D01*
X035070Y012100D02*
X035664Y012100D01*
X035664Y011100D02*
X035070Y011100D01*
X035070Y010100D02*
X035664Y010100D01*
X005967Y023353D02*
X005967Y023947D01*
X004967Y023947D02*
X004967Y023353D01*
X003967Y023353D02*
X003967Y023947D01*
X002967Y023947D02*
X002967Y023353D01*
D12*
X002167Y002300D02*
X003967Y000500D01*
X032617Y000500D01*
X032117Y005000D02*
X032117Y018300D01*
X031567Y017700D02*
X031067Y018200D01*
X031567Y017700D02*
X031567Y009350D01*
X029317Y007100D01*
X026417Y007100D01*
X026077Y006760D01*
X026077Y005880D01*
X029117Y007700D02*
X030817Y009400D01*
X030817Y014600D01*
X030317Y015400D02*
X030317Y009600D01*
X029017Y008300D01*
X017217Y008300D01*
X015617Y006700D01*
X015617Y005300D01*
X014117Y003800D01*
X010517Y003800D01*
X009517Y004800D01*
X009317Y004800D01*
X009117Y005000D01*
X009117Y004900D01*
X011327Y004880D02*
X011327Y006910D01*
X011867Y007450D01*
X013567Y007450D01*
X014017Y007900D01*
X014017Y010050D01*
X017667Y010050D01*
X018067Y010450D01*
X018067Y011300D01*
X014857Y008880D02*
X014857Y006320D01*
X016117Y006400D02*
X017417Y007700D01*
X029117Y007700D01*
X028897Y008880D02*
X029817Y009800D01*
X029817Y015400D01*
X029317Y017800D02*
X026317Y017800D01*
X024617Y016100D01*
X024617Y013900D01*
X022827Y013880D02*
X022827Y013050D01*
X022327Y012550D01*
X013467Y012550D01*
X013077Y012940D01*
X013077Y013880D01*
X013057Y016300D02*
X013077Y016320D01*
X013057Y016300D02*
X008467Y016300D01*
X008067Y015900D01*
X004217Y015900D01*
X003817Y015500D01*
X003817Y013100D01*
X005067Y011850D01*
X005067Y010640D01*
X005077Y010630D01*
X006017Y009700D02*
X006417Y009300D01*
X011417Y009300D01*
X011817Y008900D01*
X013057Y008900D01*
X013077Y008880D01*
X014017Y010050D02*
X008417Y010050D01*
X008077Y010390D01*
X008077Y011320D01*
X006017Y012100D02*
X006017Y009700D01*
X006017Y012100D02*
X005077Y013040D01*
X005077Y014570D01*
X000617Y011300D02*
X000617Y021700D01*
X002617Y023700D01*
X002917Y023700D01*
X002967Y023650D01*
X003967Y023650D02*
X003967Y022750D01*
X005417Y021300D01*
X015417Y021300D01*
X015617Y021100D01*
X019567Y021150D01*
X021767Y023400D01*
X029117Y023400D01*
X028467Y022850D02*
X022717Y022850D01*
X022217Y022350D01*
X022217Y020450D01*
X021867Y020100D01*
X020817Y020100D01*
X020467Y019750D01*
X020467Y015000D01*
X021567Y013900D01*
X022807Y013900D01*
X022827Y013880D01*
X019867Y013900D02*
X019867Y013890D01*
X019867Y013900D02*
X019867Y016850D01*
X018967Y017750D01*
X017567Y017750D01*
X014997Y020320D01*
X013107Y020320D01*
X016017Y021900D02*
X016217Y021700D01*
X019017Y021700D01*
X021267Y023950D01*
X029967Y023950D01*
X033417Y020500D01*
X033417Y018500D01*
X033817Y018100D02*
X034017Y018300D01*
X034017Y019700D01*
X034817Y018900D02*
X034517Y018600D01*
X034817Y018900D02*
X034817Y021500D01*
X035917Y021600D02*
X034567Y022950D01*
X032917Y022950D01*
X032417Y023450D01*
X032417Y024650D01*
X032367Y024700D01*
X006417Y024700D01*
X005967Y024250D01*
X005967Y023650D01*
X004967Y023650D02*
X004967Y022750D01*
X005817Y021900D01*
X016017Y021900D01*
X027857Y021880D02*
X027857Y019320D01*
X029067Y022250D02*
X028467Y022850D01*
X029067Y022250D02*
X029117Y022250D01*
X033817Y018100D02*
X033817Y010700D01*
X034417Y010100D01*
X035367Y010100D01*
X035367Y011100D02*
X034617Y011100D01*
X034417Y011300D01*
X034417Y014800D01*
X034517Y014900D01*
X035367Y012100D02*
X036167Y012100D01*
X036217Y011100D02*
X035367Y011100D01*
X028897Y008880D02*
X014857Y008880D01*
X016117Y006400D02*
X016117Y005000D01*
X014417Y003300D01*
X005717Y003400D01*
X004797Y004320D01*
X003107Y004320D01*
X002167Y002300D02*
X002167Y009750D01*
X000617Y011300D01*
X035917Y019550D02*
X036417Y019050D01*
X035917Y019550D02*
X035917Y021600D01*
D13*
X032617Y019900D02*
X032617Y018500D01*
X032617Y019900D02*
X029117Y023400D01*
X031817Y019800D02*
X031067Y019050D01*
X031067Y018200D01*
X030317Y015800D02*
X030317Y015400D01*
X029817Y015400D02*
X029817Y015800D01*
X034517Y014900D02*
X034517Y018600D01*
X036417Y019050D02*
X036417Y012350D01*
X036167Y012100D01*
X036217Y011100D02*
X036417Y010900D01*
X036417Y004300D01*
X032617Y000500D01*
D14*
X032117Y005000D03*
X030817Y014600D03*
X030317Y015800D03*
X029817Y015800D03*
X029317Y017800D03*
X031717Y018700D03*
X032617Y018500D03*
X033417Y018500D03*
X034017Y019700D03*
X031817Y019800D03*
X034817Y021500D03*
X035917Y019550D03*
X029117Y022250D03*
X032417Y024650D03*
D15*
X031717Y018700D02*
X032117Y018300D01*
X024617Y013900D02*
X024607Y013880D01*
D16*
X019917Y013900D02*
X019857Y013880D01*
X019867Y013900D02*
X019917Y013900D01*
X018117Y011300D02*
X018067Y011300D01*
X018077Y011320D02*
X018117Y011300D01*
X009117Y004900D02*
X009107Y004880D01*
M02*
