%FSTAX24Y24*%
%MOIN*%
G70*
G01*
G75*
%ADD10R,0.0500X0.0550*%
%ADD11R,0.0910X0.0220*%
%ADD12C,0.0450*%
%ADD13C,0.0200*%
%ADD14C,0.0160*%
%ADD15C,0.0071*%
%ADD16R,0.1360X0.1360*%
%ADD17C,0.1360*%
%ADD18R,0.0850X0.0600*%
%ADD19O,0.0850X0.0600*%
%ADD20O,0.0600X0.0850*%
%ADD21R,0.0600X0.0850*%
%ADD22C,0.1380*%
%ADD23C,0.0060*%
%ADD24C,0.0100*%
%ADD25C,0.0040*%
%ADD26C,0.0050*%
%ADD27C,0.0070*%
%ADD28C,0.0030*%
%ADD29R,0.0580X0.0630*%
%ADD30R,0.0990X0.0300*%
%ADD31R,0.1440X0.1440*%
%ADD32C,0.1440*%
%ADD33R,0.0930X0.0680*%
%ADD34O,0.0930X0.0680*%
%ADD35O,0.0680X0.0930*%
%ADD36R,0.0680X0.0930*%
%ADD37C,0.1460*%
%ADD38C,0.0000*%
%ADD39C,0.0118*%
%ADD40C,0.0067*%
D26*
X03921Y0264D02*
X03989D01*
X03955Y02606D02*
Y02674D01*
X039155Y0244D02*
X039945D01*
X03955Y024005D02*
Y024795D01*
X04591Y0265D02*
X04659D01*
X04625Y02616D02*
Y02684D01*
X045855Y0245D02*
X046645D01*
X04625Y024105D02*
Y024895D01*
X038435Y022691D02*
X038795D01*
X038615Y022511D02*
Y022871D01*
X038435Y021691D02*
X038795D01*
X038615Y021511D02*
Y021871D01*
X038435Y020691D02*
X038795D01*
X038615Y020511D02*
Y020871D01*
X038435Y019691D02*
X038795D01*
X038615Y019511D02*
Y019871D01*
X04602Y02815D02*
X04638D01*
X0462Y02797D02*
Y02833D01*
X04702Y02815D02*
X04738D01*
X0472Y02797D02*
Y02833D01*
X03942Y02805D02*
X03978D01*
X0396Y02787D02*
Y02823D01*
X03842Y02805D02*
X03878D01*
X0386Y02787D02*
Y02823D01*
X046935Y022741D02*
X047295D01*
X047115Y022561D02*
Y022921D01*
X046935Y021741D02*
X047295D01*
X047115Y021561D02*
Y021921D01*
X046935Y020741D02*
X047295D01*
X047115Y020561D02*
Y020921D01*
X046935Y019741D02*
X047295D01*
X047115Y019561D02*
Y019921D01*
X04241Y0176D02*
X04359D01*
X043Y01701D02*
Y01819D01*
M02*
