%FSTAX24Y24*%
%MOIN*%
G70*
G01*
G75*
G04 Layer_Color=8421504*
%ADD10R,0.0500X0.0550*%
%ADD11R,0.0910X0.0220*%
%ADD12C,0.0450*%
%ADD13C,0.0200*%
%ADD14C,0.0160*%
%ADD15C,0.0071*%
%ADD16R,0.1360X0.1360*%
%ADD17C,0.1360*%
%ADD18R,0.0850X0.0600*%
%ADD19O,0.0850X0.0600*%
%ADD20O,0.0600X0.0850*%
%ADD21R,0.0600X0.0850*%
%ADD22C,0.1380*%
%ADD23C,0.0060*%
%ADD24C,0.0100*%
%ADD25C,0.0040*%
%ADD26C,0.0050*%
%ADD27C,0.0070*%
%ADD28C,0.0030*%
D10*
X0443Y02385D02*
D03*
X0434D02*
D03*
X0443Y0246D02*
D03*
X0434D02*
D03*
X0443Y02535D02*
D03*
X0434D02*
D03*
X04145Y02385D02*
D03*
X04235D02*
D03*
X04145Y02535D02*
D03*
X04235D02*
D03*
X04145Y0246D02*
D03*
X04235D02*
D03*
D11*
X04463Y02295D02*
D03*
Y02245D02*
D03*
Y02195D02*
D03*
Y02145D02*
D03*
Y02095D02*
D03*
Y02045D02*
D03*
Y01995D02*
D03*
Y01945D02*
D03*
X04107D02*
D03*
Y01995D02*
D03*
Y02045D02*
D03*
Y02095D02*
D03*
Y02145D02*
D03*
Y02195D02*
D03*
Y02245D02*
D03*
Y02295D02*
D03*
M02*
