%FSTAX24Y24*%
%MOIN*%
G70*
G01*
G75*
%ADD10R,0.0500X0.0550*%
%ADD11R,0.0910X0.0220*%
%ADD12C,0.0450*%
%ADD13C,0.0200*%
%ADD14C,0.0160*%
%ADD15C,0.0071*%
%ADD16R,0.1360X0.1360*%
%ADD17C,0.1360*%
%ADD18R,0.0850X0.0600*%
%ADD19O,0.0850X0.0600*%
%ADD20O,0.0600X0.0850*%
%ADD21R,0.0600X0.0850*%
%ADD22C,0.1380*%
%ADD23C,0.0060*%
%ADD24C,0.0100*%
%ADD25C,0.0040*%
%ADD26C,0.0050*%
%ADD27C,0.0070*%
%ADD28C,0.0030*%
G36*
X045285Y019875D02*
X045185D01*
Y020025D01*
X045285D01*
Y019875D01*
D02*
G37*
D23*
X04273Y023265D02*
G03*
X04297Y023265I00012J0D01*
G01*
X041355D02*
X044345D01*
X041355Y019135D02*
X044345D01*
D24*
X04438Y0176D02*
G03*
X04438Y0176I-00138J0D01*
G01*
X038133Y026813D02*
X038457D01*
X038467Y026804D01*
Y026193D02*
Y026804D01*
X038113Y026193D02*
X038467D01*
X038123Y024077D02*
X038477D01*
Y024687D01*
X038467Y024697D02*
X038477Y024687D01*
X038143Y024697D02*
X038467D01*
X044833Y026913D02*
X045157D01*
X045167Y026904D01*
Y026293D02*
Y026904D01*
X044813Y026293D02*
X045167D01*
X044823Y024177D02*
X045177D01*
Y024787D01*
X045167Y024797D02*
X045177Y024787D01*
X044843Y024797D02*
X045167D01*
X0425Y0229D02*
Y0224D01*
X0426Y0223D01*
X0428D01*
X0429Y0224D01*
Y0229D01*
X0431Y0223D02*
X0433D01*
X0432D01*
Y0229D01*
X0431Y0228D01*
X04615Y02964D02*
X04595D01*
X04605D01*
Y02914D01*
X04595Y02904D01*
X04585D01*
X04575Y02914D01*
X04635Y02904D02*
Y02964D01*
X04665D01*
X04675Y02954D01*
Y02934D01*
X04665Y02924D01*
X04635D01*
X047349Y02904D02*
X04695D01*
X047349Y02944D01*
Y02954D01*
X04725Y02964D01*
X04705D01*
X04695Y02954D01*
X03856Y02954D02*
X03836D01*
X03846D01*
Y02904D01*
X03836Y02894D01*
X03826D01*
X03816Y02904D01*
X03876Y02894D02*
Y02954D01*
X03906D01*
X03916Y02944D01*
Y02924D01*
X03906Y02914D01*
X03876D01*
X03936Y02894D02*
X03956D01*
X03946D01*
Y02954D01*
X03936Y02944D01*
X04545Y02595D02*
X04485D01*
Y02565D01*
X04495Y02555D01*
X04535D01*
X04545Y02565D01*
Y02595D01*
X04485Y02495D02*
Y02535D01*
X04525Y02495D01*
X04535D01*
X04545Y02505D01*
Y02525D01*
X04535Y02535D01*
X03875Y0258D02*
X03815D01*
Y0255D01*
X03825Y0254D01*
X03865D01*
X03875Y0255D01*
Y0258D01*
X03815Y0252D02*
Y025D01*
Y0251D01*
X03875D01*
X03865Y0252D01*
X0437Y0283D02*
X0436Y0284D01*
X0434D01*
X0433Y0283D01*
Y0279D01*
X0434Y0278D01*
X0436D01*
X0437Y0279D01*
X0443Y0284D02*
X0441Y0283D01*
X0439Y0281D01*
Y0279D01*
X044Y0278D01*
X0442D01*
X0443Y0279D01*
Y028D01*
X0442Y0281D01*
X0439D01*
X0437Y02735D02*
X0436Y02745D01*
X0434D01*
X0433Y02735D01*
Y02695D01*
X0434Y02685D01*
X0436D01*
X0437Y02695D01*
X0443Y02745D02*
X0439D01*
Y02715D01*
X0441Y02725D01*
X0442D01*
X0443Y02715D01*
Y02695D01*
X0442Y02685D01*
X044D01*
X0439Y02695D01*
X0437Y02645D02*
X0436Y02655D01*
X0434D01*
X0433Y02645D01*
Y02605D01*
X0434Y02595D01*
X0436D01*
X0437Y02605D01*
X0442Y02595D02*
Y02655D01*
X0439Y02625D01*
X0443D01*
X0416Y0283D02*
X0415Y0284D01*
X0413D01*
X0412Y0283D01*
Y0279D01*
X0413Y0278D01*
X0415D01*
X0416Y0279D01*
X0418Y0283D02*
X0419Y0284D01*
X0421D01*
X0422Y0283D01*
Y0282D01*
X0421Y0281D01*
X042D01*
X0421D01*
X0422Y028D01*
Y0279D01*
X0421Y0278D01*
X0419D01*
X0418Y0279D01*
X04165Y02735D02*
X04155Y02745D01*
X04135D01*
X04125Y02735D01*
Y02695D01*
X04135Y02685D01*
X04155D01*
X04165Y02695D01*
X04225Y02685D02*
X04185D01*
X04225Y02725D01*
Y02735D01*
X04215Y02745D01*
X04195D01*
X04185Y02735D01*
X04175Y02645D02*
X04165Y02655D01*
X04145D01*
X04135Y02645D01*
Y02605D01*
X04145Y02595D01*
X04165D01*
X04175Y02605D01*
X04195Y02595D02*
X04215D01*
X04205D01*
Y02655D01*
X04195Y02645D01*
X041665Y019925D02*
Y019325D01*
Y019625D01*
X042065D01*
Y019925D01*
Y019325D01*
X042265D02*
X042465D01*
X042365D01*
Y019925D01*
X042265Y019825D01*
D25*
X04368Y0241D02*
X04402D01*
X04368Y0236D02*
X04402D01*
X04368Y02485D02*
X04402D01*
X04368Y02435D02*
X04402D01*
X04368Y0256D02*
X04402D01*
X04368Y0251D02*
X04402D01*
X04173Y0236D02*
X04207D01*
X04173Y0241D02*
X04207D01*
X04173Y0251D02*
X04207D01*
X04173Y0256D02*
X04207D01*
X04173Y02435D02*
X04207D01*
X04173Y02485D02*
X04207D01*
D26*
X04308Y02351D02*
X04461D01*
Y02418D01*
X04308D02*
X04461D01*
X04308Y02351D02*
Y02418D01*
Y02426D02*
X04461D01*
Y02493D01*
X04308D02*
X04461D01*
X04308Y02426D02*
Y02493D01*
Y02501D02*
X04461D01*
Y02568D01*
X04308D02*
X04461D01*
X04308Y02501D02*
Y02568D01*
X04114Y02419D02*
X04267D01*
X04114Y02352D02*
Y02419D01*
Y02352D02*
X04267D01*
Y02419D01*
X04114Y02569D02*
X04267D01*
X04114Y02502D02*
Y02569D01*
Y02502D02*
X04267D01*
Y02569D01*
X04114Y02494D02*
X04267D01*
X04114Y02427D02*
Y02494D01*
Y02427D02*
X04267D01*
Y02494D01*
D27*
X040972Y023418D02*
Y027391D01*
X038093Y023416D02*
X040963D01*
X038093Y027384D02*
X040963D01*
X038093Y023416D02*
Y027384D01*
X047672Y023518D02*
Y027491D01*
X044793Y023516D02*
X047663D01*
X044793Y027484D02*
X047663D01*
X044793Y023516D02*
Y027484D01*
X038069Y019149D02*
X039162D01*
X038069D02*
Y023233D01*
X039162Y019149D02*
Y023233D01*
X038069D02*
X039162D01*
X0477Y0276D02*
Y0287D01*
X045686Y0276D02*
X0477D01*
X045686Y0287D02*
X0477D01*
X045686Y0276D02*
Y0287D01*
X0381Y0275D02*
Y0286D01*
X040114D01*
X0381Y0275D02*
X040114D01*
Y0286D01*
X046569Y019199D02*
X047662D01*
X046569D02*
Y023283D01*
X047662Y019199D02*
Y023283D01*
X046569D02*
X047662D01*
D28*
X04285Y0217D02*
X043183D01*
X043017D01*
Y0212D01*
X0436Y0217D02*
X043433D01*
X04335Y021617D01*
Y021283D01*
X043433Y0212D01*
X0436D01*
X043683Y021283D01*
Y021617D01*
X0436Y0217D01*
X04385D02*
Y0212D01*
X044183D01*
X04285Y0217D02*
Y021367D01*
X043017Y0212D01*
X043183Y021367D01*
Y0217D01*
X04335Y0212D02*
Y021533D01*
X043516Y0217D01*
X043683Y021533D01*
Y0212D01*
Y02145D01*
X04335D01*
X04385Y0217D02*
Y0212D01*
X044183D01*
X04285Y0217D02*
Y0212D01*
X0431D01*
X043183Y021283D01*
Y021617D01*
X0431Y0217D01*
X04285D01*
X043683D02*
X04335D01*
Y0212D01*
X043683D01*
X04335Y02145D02*
X043516D01*
X04385Y0217D02*
Y021367D01*
X044016Y0212D01*
X044183Y021367D01*
Y0217D01*
X04285Y0212D02*
Y0217D01*
X0431D01*
X043183Y021617D01*
Y02145D01*
X0431Y021367D01*
X04285D01*
X04335Y0212D02*
Y0217D01*
X043683Y0212D01*
Y0217D01*
X04097Y024037D02*
X041303Y023703D01*
X04097D02*
X041303Y024037D01*
X04097Y02387D02*
X041303D01*
X041137Y023703D02*
Y024037D01*
M02*
