%FSTAX24Y24*%
%MOIN*%
G70*
G01*
G75*
G04 Layer_Color=2752767*
%ADD10R,0.0394X0.0500*%
G04:AMPARAMS|DCode=11|XSize=23.6mil|YSize=39.4mil|CornerRadius=3mil|HoleSize=0mil|Usage=FLASHONLY|Rotation=180.000|XOffset=0mil|YOffset=0mil|HoleType=Round|Shape=RoundedRectangle|*
%AMROUNDEDRECTD11*
21,1,0.0236,0.0335,0,0,180.0*
21,1,0.0177,0.0394,0,0,180.0*
1,1,0.0059,-0.0089,0.0167*
1,1,0.0059,0.0089,0.0167*
1,1,0.0059,0.0089,-0.0167*
1,1,0.0059,-0.0089,-0.0167*
%
%ADD11ROUNDEDRECTD11*%
%ADD12C,0.0400*%
%ADD13C,0.0160*%
%ADD14R,0.0846X0.1211*%
%ADD15O,0.0800X0.0600*%
%ADD16R,0.0902X0.0902*%
%ADD17C,0.0902*%
%ADD18O,0.0850X0.0600*%
%ADD19R,0.0850X0.0600*%
%ADD20C,0.0079*%
%ADD21C,0.0100*%
%ADD22C,0.0050*%
%ADD23C,0.0070*%
%ADD24C,0.0197*%
%ADD25R,0.0474X0.0580*%
G04:AMPARAMS|DCode=26|XSize=31.6mil|YSize=47.4mil|CornerRadius=7mil|HoleSize=0mil|Usage=FLASHONLY|Rotation=180.000|XOffset=0mil|YOffset=0mil|HoleType=Round|Shape=RoundedRectangle|*
%AMROUNDEDRECTD26*
21,1,0.0316,0.0335,0,0,180.0*
21,1,0.0177,0.0474,0,0,180.0*
1,1,0.0139,-0.0089,0.0167*
1,1,0.0139,0.0089,0.0167*
1,1,0.0139,0.0089,-0.0167*
1,1,0.0139,-0.0089,-0.0167*
%
%ADD26ROUNDEDRECTD26*%
%ADD27O,0.0880X0.0680*%
%ADD28R,0.0982X0.0982*%
%ADD29C,0.0982*%
%ADD30O,0.0930X0.0680*%
%ADD31R,0.0930X0.0680*%
%ADD32C,0.0080*%
%ADD33C,0.0079*%
%ADD34C,0.0079*%
%ADD35C,0.0020*%
%ADD36C,0.0197*%
%ADD37C,0.0030*%
%ADD38C,0.0067*%
D22*
X038606Y01439D02*
Y01479D01*
X039006D01*
Y01439D01*
X038606D01*
Y021378D02*
Y021778D01*
X039006D01*
Y021378D01*
X038606D01*
X0373Y017828D02*
X0371Y018228D01*
X0375D01*
X0373Y017828D01*
X0351Y01615D02*
X0352Y01625D01*
X0353D01*
X0352Y01635D01*
X0353Y01645D01*
X0352D01*
X0351Y01655D01*
X035Y01645D01*
X0349D01*
X035Y01635D01*
X0349Y01625D01*
X035D01*
X0351Y01615D01*
Y01715D02*
X0352Y01725D01*
X0353D01*
X0352Y01735D01*
X0353Y01745D01*
X0352D01*
X0351Y01755D01*
X035Y01745D01*
X0349D01*
X035Y01735D01*
X0349Y01725D01*
X035D01*
X0351Y01715D01*
Y01815D02*
X0352Y01825D01*
X0353D01*
X0352Y01835D01*
X0353Y01845D01*
X0352D01*
X0351Y01855D01*
X035Y01845D01*
X0349D01*
X035Y01835D01*
X0349Y01825D01*
X035D01*
X0351Y01815D01*
X036056Y021378D02*
Y021778D01*
X036456D01*
Y021378D01*
X036056D01*
Y01439D02*
Y01479D01*
X036456D01*
Y01439D01*
X036056D01*
D38*
X0375Y01665D02*
G03*
X0375Y01665I-0002J0D01*
G01*
M02*
