%
M48
M72
T01C0.0276
T02C0.0360
T03C0.0400
%
T01
X3284Y2130
X4174Y4310
T02
X5174Y4680
X5174Y3680
X5174Y2680
X5174Y1680
X6174Y1680
X6174Y2680
X6174Y3680
X6174Y4680
X6174Y5680
X6174Y6680
X5174Y6680
X5174Y5680
T03
X2934Y5860
X3414Y4800
X3414Y3800
X4204Y2960
X4204Y1960
X3934Y5860
M30
