G75*
G70*
%OFA0B0*%
%FSLAX24Y24*%
%IPPOS*%
%LPD*%
%AMOC8*
5,1,8,0,0,1.08239X$1,22.5*
%
%ADD10C,0.0080*%
%ADD11C,0.0060*%
%ADD12C,0.0300*%
%ADD13R,0.0300X0.0200*%
%ADD14R,0.0300X0.0400*%
%ADD15C,0.0050*%
%ADD16C,0.0020*%
%ADD17C,0.0020*%
%ADD18R,0.0079X0.0079*%
D10*
X002914Y003550D02*
X003164Y003300D01*
X003664Y003300D01*
X003914Y003550D01*
X003914Y004050D01*
X003664Y004300D01*
X003914Y004550D01*
X003914Y005050D01*
X003664Y005300D01*
X003164Y005300D01*
X002914Y005050D01*
X002914Y004550D01*
X003164Y004300D01*
X002914Y004050D01*
X002914Y003550D01*
X003704Y003210D02*
X003704Y002710D01*
X003954Y002460D01*
X003704Y002210D01*
X003704Y001710D01*
X003954Y001460D01*
X004454Y001460D01*
X004704Y001710D01*
X004704Y002210D01*
X004454Y002460D01*
X004704Y002710D01*
X004704Y003210D01*
X004454Y003460D01*
X003954Y003460D01*
X003704Y003210D01*
D11*
X001516Y000790D02*
X001176Y000790D01*
X001176Y001158D02*
X001176Y001329D01*
X001232Y001385D01*
X001459Y001385D01*
X001516Y001329D01*
X001516Y001158D01*
X001176Y001158D01*
X001289Y001527D02*
X001176Y001640D01*
X001516Y001640D01*
X001516Y001527D02*
X001516Y001754D01*
X001516Y001017D02*
X001516Y000790D01*
X002434Y006610D02*
X002434Y007610D01*
X003434Y007610D01*
X004434Y007610D01*
X004434Y006610D01*
X003434Y006610D01*
X003434Y007610D01*
X003434Y006610D02*
X002434Y006610D01*
D12*
X002934Y007860D02*
X002934Y010110D01*
X003934Y010110D02*
X003934Y007860D01*
D13*
X003934Y007710D03*
X002934Y007710D03*
D14*
X002934Y006410D03*
X003934Y006410D03*
D15*
X002610Y001507D02*
X002591Y001507D01*
X001803Y001507D01*
X001784Y001507D01*
X001784Y001428D01*
X002610Y001428D01*
X002610Y001507D02*
X002610Y000956D01*
X001784Y000956D01*
X001784Y000877D01*
X002610Y000877D01*
X002610Y000956D01*
X002736Y000913D02*
X002736Y000755D01*
X002579Y000755D01*
X001784Y000956D02*
X001784Y001428D01*
D16*
X001803Y001507D02*
X001843Y001507D01*
X002000Y001350D01*
X002158Y001350D01*
X002197Y001310D01*
X002197Y001231D01*
X001961Y001231D02*
X001921Y001231D01*
X001882Y001192D01*
X001882Y001074D01*
X001803Y000995D01*
X001803Y000916D01*
X002433Y001271D02*
X002433Y001350D01*
X002591Y001507D01*
D17*
X002444Y001164D02*
X002404Y001164D01*
X002404Y001084D01*
X002444Y001084D01*
X002457Y001097D01*
X002457Y001111D01*
X002444Y001124D01*
X002404Y001124D01*
X002444Y001124D02*
X002457Y001137D01*
X002457Y001151D01*
X002444Y001164D01*
X002221Y001151D02*
X002221Y001124D01*
X002208Y001111D01*
X002168Y001111D01*
X002194Y001111D02*
X002221Y001084D01*
X002168Y001084D02*
X002168Y001164D01*
X002208Y001164D01*
X002221Y001151D01*
X001985Y001151D02*
X001971Y001164D01*
X001945Y001164D01*
X001931Y001151D01*
X001931Y001097D01*
X001945Y001084D01*
X001971Y001084D01*
X001985Y001097D01*
X001985Y001124D01*
X001958Y001124D01*
D18*
X001961Y001231D03*
X002197Y001231D03*
X002433Y001231D03*
M02*
