G75*
G70*
%OFA0B0*%
%FSLAX24Y24*%
%IPPOS*%
%LPD*%
%AMOC8*
5,1,8,0,0,1.08239X$1,22.5*
%
%ADD10C,0.0000*%
%ADD11C,0.0740*%
%ADD12C,0.0560*%
%ADD13OC8,0.0560*%
%ADD14R,0.0433X0.0394*%
%ADD15C,0.0600*%
%ADD16R,0.0394X0.0276*%
%ADD17C,0.0320*%
%ADD18C,0.0576*%
%ADD19C,0.0500*%
%ADD20C,0.0160*%
D10*
X001024Y000680D02*
X007324Y000680D01*
X007324Y007767D01*
X001024Y007767D01*
X001024Y000680D01*
D11*
X003414Y003800D03*
X003414Y004800D03*
X004204Y002960D03*
X004204Y001960D03*
D12*
X006174Y001680D03*
D13*
X006174Y002680D03*
X006174Y003680D03*
X006174Y004680D03*
X006174Y005680D03*
X006174Y006680D03*
X005174Y006680D03*
X005174Y005680D03*
X005174Y004680D03*
X005174Y003680D03*
X005174Y002680D03*
X005174Y001680D03*
D14*
X002476Y002015D03*
X002476Y002685D03*
X001933Y002685D03*
X001933Y002015D03*
X001365Y002025D03*
X001365Y002694D03*
D15*
X002934Y005560D02*
X002934Y006160D01*
X003934Y006160D02*
X003934Y005560D01*
D16*
X002473Y001428D03*
X002473Y000956D03*
X001921Y000956D03*
X001921Y001428D03*
D17*
X003284Y001740D02*
X003284Y002130D01*
X003284Y001740D02*
X003794Y001230D01*
X004674Y001230D01*
X005124Y001680D01*
X005174Y001680D01*
D18*
X004174Y004310D03*
X003284Y002130D03*
D19*
X004309Y004165D02*
X004174Y004300D01*
X004309Y004165D02*
X004794Y003680D01*
X005174Y003680D01*
D20*
X004309Y004165D02*
X004184Y004040D01*
X005174Y006680D02*
X005024Y006830D01*
X005005Y006849D01*
X002532Y006849D01*
X002296Y006613D01*
X002296Y005408D01*
X002476Y005229D01*
X002476Y002685D01*
X002476Y002015D02*
X002473Y002012D01*
X002473Y001428D01*
X002473Y000956D02*
X002473Y000956D01*
X002713Y000956D01*
X002776Y000893D01*
X005387Y000893D01*
X006174Y001680D01*
X006237Y004617D02*
X006174Y004680D01*
X006237Y004617D02*
X006536Y004617D01*
X006930Y005011D01*
X006930Y006979D01*
X006383Y007526D01*
X001906Y007526D01*
X001365Y006986D01*
X001365Y002694D01*
X001365Y002025D02*
X001365Y001130D01*
X001540Y000956D01*
X001921Y000956D01*
X001921Y000956D01*
X001921Y001428D02*
X001921Y002004D01*
X001933Y002015D01*
X001933Y002685D02*
X001933Y006864D01*
X002331Y007263D01*
X005942Y007263D01*
X006170Y007034D01*
X006170Y006684D01*
X006174Y006680D01*
M02*
