G75*
G70*
%OFA0B0*%
%FSLAX24Y24*%
%IPPOS*%
%LPD*%
%AMOC8*
5,1,8,0,0,1.08239X$1,22.5*
%
%ADD10C,0.0060*%
%ADD11C,0.0080*%
%ADD12C,0.0020*%
D10*
X004474Y001430D02*
X004474Y006930D01*
X004476Y006960D01*
X004481Y006990D01*
X004490Y007019D01*
X004503Y007046D01*
X004518Y007072D01*
X004537Y007096D01*
X004558Y007117D01*
X004582Y007136D01*
X004608Y007151D01*
X004635Y007164D01*
X004664Y007173D01*
X004694Y007178D01*
X004724Y007180D01*
X006624Y007180D01*
X006654Y007178D01*
X006684Y007173D01*
X006713Y007164D01*
X006740Y007151D01*
X006766Y007136D01*
X006790Y007117D01*
X006811Y007096D01*
X006830Y007072D01*
X006845Y007046D01*
X006858Y007019D01*
X006867Y006990D01*
X006872Y006960D01*
X006874Y006930D01*
X006874Y001430D01*
X006872Y001400D01*
X006867Y001370D01*
X006858Y001341D01*
X006845Y001314D01*
X006830Y001288D01*
X006811Y001264D01*
X006790Y001243D01*
X006766Y001224D01*
X006740Y001209D01*
X006713Y001196D01*
X006684Y001187D01*
X006654Y001182D01*
X006624Y001180D01*
X004724Y001180D01*
X004694Y001182D01*
X004664Y001187D01*
X004635Y001196D01*
X004608Y001209D01*
X004582Y001224D01*
X004558Y001243D01*
X004537Y001264D01*
X004518Y001288D01*
X004503Y001314D01*
X004490Y001341D01*
X004481Y001370D01*
X004476Y001400D01*
X004474Y001430D01*
D11*
X007064Y001570D02*
X007064Y001850D01*
X007064Y001710D02*
X007484Y001710D01*
X007344Y001570D01*
D12*
X006774Y001560D02*
X006751Y001583D01*
X006727Y001583D01*
X006704Y001560D01*
X006681Y001583D01*
X006657Y001583D01*
X006634Y001560D01*
X006634Y001513D01*
X006657Y001490D01*
X006704Y001537D02*
X006704Y001560D01*
X006774Y001560D02*
X006774Y001513D01*
X006751Y001490D01*
X006774Y001637D02*
X006681Y001637D01*
X006634Y001684D01*
X006681Y001731D01*
X006774Y001731D01*
X006751Y001785D02*
X006774Y001808D01*
X006774Y001855D01*
X006751Y001878D01*
X006727Y001878D01*
X006704Y001855D01*
X006681Y001878D01*
X006657Y001878D01*
X006634Y001855D01*
X006634Y001808D01*
X006657Y001785D01*
X006704Y001831D02*
X006704Y001855D01*
X006677Y002500D02*
X006654Y002523D01*
X006654Y002570D01*
X006677Y002593D01*
X006701Y002593D01*
X006724Y002570D01*
X006724Y002523D01*
X006747Y002500D01*
X006771Y002500D01*
X006794Y002523D01*
X006794Y002570D01*
X006771Y002593D01*
X006794Y002647D02*
X006794Y002717D01*
X006771Y002741D01*
X006677Y002741D01*
X006654Y002717D01*
X006654Y002647D01*
X006794Y002647D01*
X006747Y002795D02*
X006794Y002841D01*
X006747Y002888D01*
X006654Y002888D01*
X006724Y002888D02*
X006724Y002795D01*
X006747Y002795D02*
X006654Y002795D01*
X006677Y003530D02*
X006654Y003553D01*
X006654Y003600D01*
X006677Y003623D01*
X006701Y003623D01*
X006724Y003600D01*
X006724Y003553D01*
X006747Y003530D01*
X006771Y003530D01*
X006794Y003553D01*
X006794Y003600D01*
X006771Y003623D01*
X006771Y003677D02*
X006677Y003677D01*
X006654Y003701D01*
X006654Y003747D01*
X006677Y003771D01*
X006654Y003825D02*
X006654Y003918D01*
X006654Y003825D02*
X006794Y003825D01*
X006771Y003771D02*
X006794Y003747D01*
X006794Y003701D01*
X006771Y003677D01*
X006771Y004570D02*
X006677Y004570D01*
X006654Y004593D01*
X006654Y004640D01*
X006677Y004663D01*
X006724Y004663D01*
X006724Y004617D01*
X006771Y004663D02*
X006794Y004640D01*
X006794Y004593D01*
X006771Y004570D01*
X006724Y004717D02*
X006724Y004811D01*
X006654Y004787D02*
X006794Y004787D01*
X006724Y004717D01*
X006677Y006490D02*
X006654Y006513D01*
X006654Y006560D01*
X006677Y006583D01*
X006724Y006583D01*
X006724Y006537D01*
X006771Y006583D02*
X006794Y006560D01*
X006794Y006513D01*
X006771Y006490D01*
X006677Y006490D01*
X006654Y006637D02*
X006654Y006731D01*
X006654Y006684D02*
X006794Y006684D01*
X006747Y006637D01*
X006794Y006785D02*
X006794Y006878D01*
X006771Y006878D01*
X006677Y006785D01*
X006654Y006785D01*
X004724Y006775D02*
X004677Y006821D01*
X004724Y006868D01*
X004584Y006868D01*
X004584Y006775D02*
X004724Y006775D01*
X004724Y006721D02*
X004584Y006721D01*
X004631Y006674D01*
X004584Y006627D01*
X004724Y006627D01*
X004701Y006573D02*
X004724Y006550D01*
X004724Y006480D01*
X004584Y006480D01*
X004631Y006480D02*
X004631Y006550D01*
X004654Y006573D01*
X004701Y006573D01*
X004701Y005868D02*
X004607Y005868D01*
X004584Y005845D01*
X004584Y005775D01*
X004724Y005775D01*
X004724Y005845D01*
X004701Y005868D01*
X004724Y005721D02*
X004584Y005627D01*
X004584Y005573D02*
X004631Y005527D01*
X004631Y005550D02*
X004631Y005480D01*
X004584Y005480D02*
X004724Y005480D01*
X004724Y005550D01*
X004701Y005573D01*
X004654Y005573D01*
X004631Y005550D01*
X004724Y005627D02*
X004584Y005721D01*
X004597Y004868D02*
X004691Y004868D01*
X004714Y004845D01*
X004714Y004775D01*
X004574Y004775D01*
X004574Y004845D01*
X004597Y004868D01*
X004574Y004721D02*
X004714Y004627D01*
X004714Y004573D02*
X004714Y004480D01*
X004714Y004527D02*
X004574Y004527D01*
X004574Y004627D02*
X004714Y004721D01*
X004701Y003858D02*
X004607Y003858D01*
X004584Y003835D01*
X004584Y003765D01*
X004724Y003765D01*
X004724Y003835D01*
X004701Y003858D01*
X004724Y003711D02*
X004584Y003711D01*
X004724Y003617D01*
X004584Y003617D01*
X004607Y003563D02*
X004654Y003563D01*
X004654Y003517D01*
X004607Y003563D02*
X004584Y003540D01*
X004584Y003493D01*
X004607Y003470D01*
X004701Y003470D01*
X004724Y003493D01*
X004724Y003540D01*
X004701Y003563D01*
X004704Y001781D02*
X004611Y001781D01*
X004564Y001734D01*
X004611Y001687D01*
X004704Y001687D01*
X004704Y001633D02*
X004704Y001540D01*
X004634Y001540D01*
X004657Y001587D01*
X004657Y001610D01*
X004634Y001633D01*
X004587Y001633D01*
X004564Y001610D01*
X004564Y001563D01*
X004587Y001540D01*
M02*
