G04 #@! TF.FileFunction,Soldermask,Top*
%FSLAX46Y46*%
G04 Gerber Fmt 4.6, Leading zero omitted, Abs format (unit mm)*
G04 Created by KiCad (PCBNEW (after 2015-may-25 BZR unknown)-product) date 10/06/2015 1:45:06 PM*
%MOMM*%
G01*
G04 APERTURE LIST*
%ADD10C,0.150000*%
%ADD11C,0.762000*%
%ADD12C,3.508000*%
%ADD13R,3.508000X3.508000*%
%ADD14R,2.159000X2.159000*%
%ADD15O,2.159000X2.159000*%
%ADD16C,3.158000*%
%ADD17C,2.032000*%
%ADD18C,2.159000*%
%ADD19R,4.107180X2.108200*%
%ADD20C,2.286000*%
%ADD21R,2.286000X2.286000*%
%ADD22R,2.159000X2.032000*%
%ADD23R,1.905000X3.007360*%
%ADD24R,1.422400X1.422400*%
%ADD25C,2.908000*%
%ADD26R,2.908000X2.908000*%
%ADD27C,6.008000*%
%ADD28R,1.438000X1.298000*%
%ADD29R,1.298000X1.438000*%
%ADD30R,1.308000X1.308000*%
%ADD31R,2.508000X1.108000*%
%ADD32R,2.108000X1.108000*%
%ADD33R,2.058000X2.708000*%
%ADD34R,2.708000X2.058000*%
G04 APERTURE END LIST*
D10*
D11*
X26797000Y113030000D02*
G75*
G03X26797000Y113030000I-762000J0D01*
G01*
X92202000Y22225000D02*
G75*
G03X92202000Y22225000I-762000J0D01*
G01*
X45847000Y39370000D02*
G75*
G03X45847000Y39370000I-762000J0D01*
G01*
X102362000Y114935000D02*
G75*
G03X102362000Y114935000I-762000J0D01*
G01*
D12*
X19900000Y87900000D03*
D13*
X19900000Y82900000D03*
D14*
X27940000Y45720000D03*
D15*
X25400000Y45720000D03*
D16*
X29190000Y111330000D03*
X29190000Y114730000D03*
X39390000Y111330000D03*
X39390000Y114730000D03*
D17*
X26035000Y113030000D03*
X91440000Y22225000D03*
D14*
X46990000Y50165000D03*
D18*
X49530000Y50165000D03*
D14*
X52070000Y50165000D03*
D18*
X54610000Y50165000D03*
D14*
X90170000Y53340000D03*
D18*
X92710000Y53340000D03*
D19*
X67520820Y31750000D03*
X62019180Y31750000D03*
X27094180Y50800000D03*
X32595820Y50800000D03*
X87840820Y31750000D03*
X82339180Y31750000D03*
X84879180Y105410000D03*
X90380820Y105410000D03*
X64559180Y105410000D03*
X70060820Y105410000D03*
X44239180Y105410000D03*
X49740820Y105410000D03*
D20*
X29210000Y91440000D03*
X29210000Y93980000D03*
D21*
X29210000Y88900000D03*
D20*
X33655000Y34290000D03*
X31115000Y34290000D03*
D21*
X36195000Y34290000D03*
D20*
X33655000Y29210000D03*
X31115000Y29210000D03*
D21*
X36195000Y29210000D03*
D20*
X33655000Y39370000D03*
X31115000Y39370000D03*
D21*
X36195000Y39370000D03*
D22*
X49530000Y114935000D03*
D18*
X52070000Y114935000D03*
X54610000Y114935000D03*
X57150000Y114935000D03*
D22*
X69850000Y114935000D03*
D18*
X72390000Y114935000D03*
X74930000Y114935000D03*
X77470000Y114935000D03*
D22*
X90170000Y114935000D03*
D18*
X92710000Y114935000D03*
X95250000Y114935000D03*
X97790000Y114935000D03*
D22*
X102870000Y22225000D03*
D18*
X100330000Y22225000D03*
X97790000Y22225000D03*
X95250000Y22225000D03*
D23*
X105699560Y103578660D03*
X110200440Y103578660D03*
X105699560Y97078800D03*
X110200440Y97078800D03*
D22*
X82550000Y22225000D03*
D18*
X80010000Y22225000D03*
X77470000Y22225000D03*
X74930000Y22225000D03*
D22*
X62230000Y22225000D03*
D18*
X59690000Y22225000D03*
X57150000Y22225000D03*
X54610000Y22225000D03*
D19*
X108160820Y31750000D03*
X102659180Y31750000D03*
D24*
X49403000Y32004000D03*
X51181000Y32004000D03*
X50292000Y29972000D03*
X45339000Y32004000D03*
X47117000Y32004000D03*
X46228000Y29972000D03*
D14*
X46990000Y22225000D03*
D18*
X44450000Y22225000D03*
D14*
X34290000Y22225000D03*
D18*
X31750000Y22225000D03*
D14*
X107950000Y85090000D03*
D18*
X107950000Y82550000D03*
D14*
X107950000Y66040000D03*
D18*
X107950000Y68580000D03*
X107950000Y71120000D03*
X107950000Y73660000D03*
X107950000Y76200000D03*
X107950000Y78740000D03*
D14*
X105410000Y66040000D03*
D18*
X102870000Y66040000D03*
X105410000Y68580000D03*
X102870000Y68580000D03*
X105410000Y71120000D03*
X102870000Y71120000D03*
X105410000Y73660000D03*
X102870000Y73660000D03*
X105410000Y76200000D03*
X102870000Y76200000D03*
X105410000Y78740000D03*
X102870000Y78740000D03*
D24*
X67056000Y60579000D03*
X67056000Y58801000D03*
X65024000Y59690000D03*
D23*
X105699560Y113738660D03*
X110200440Y113738660D03*
X105699560Y107238800D03*
X110200440Y107238800D03*
D24*
X63246000Y51689000D03*
X63246000Y49911000D03*
X61214000Y50800000D03*
X67056000Y55499000D03*
X67056000Y53721000D03*
X65024000Y54610000D03*
D14*
X67310000Y48895000D03*
D18*
X69850000Y48895000D03*
X72390000Y48895000D03*
X74930000Y48895000D03*
X77470000Y48895000D03*
X80010000Y48895000D03*
D14*
X87630000Y49530000D03*
D18*
X90170000Y49530000D03*
X92710000Y49530000D03*
X95250000Y49530000D03*
X97790000Y49530000D03*
X100330000Y49530000D03*
D24*
X84709000Y86741000D03*
X84709000Y88519000D03*
X86741000Y87630000D03*
X80264000Y86741000D03*
X80264000Y88519000D03*
X82296000Y87630000D03*
D14*
X44450000Y43180000D03*
D18*
X44450000Y45720000D03*
X46990000Y43180000D03*
X46990000Y45720000D03*
X49530000Y43180000D03*
X49530000Y45720000D03*
X52070000Y43180000D03*
X52070000Y45720000D03*
X54610000Y43180000D03*
X54610000Y45720000D03*
X57150000Y43180000D03*
X57150000Y45720000D03*
X59690000Y43180000D03*
X59690000Y45720000D03*
X62230000Y43180000D03*
X62230000Y45720000D03*
X64770000Y43180000D03*
X64770000Y45720000D03*
X67310000Y43180000D03*
X67310000Y45720000D03*
X69850000Y43180000D03*
X69850000Y45720000D03*
X72390000Y43180000D03*
X72390000Y45720000D03*
X74930000Y43180000D03*
X74930000Y45720000D03*
X77470000Y43180000D03*
X77470000Y45720000D03*
X80010000Y43180000D03*
X80010000Y45720000D03*
X82550000Y43180000D03*
X82550000Y45720000D03*
X85090000Y43180000D03*
X85090000Y45720000D03*
X87630000Y43180000D03*
X87630000Y45720000D03*
X90170000Y43180000D03*
X90170000Y45720000D03*
X92710000Y43180000D03*
X92710000Y45720000D03*
X95250000Y43180000D03*
X95250000Y45720000D03*
X97790000Y43180000D03*
X97790000Y45720000D03*
X100330000Y43180000D03*
X100330000Y45720000D03*
D14*
X44450000Y91440000D03*
D18*
X44450000Y93980000D03*
X46990000Y91440000D03*
X46990000Y93980000D03*
X49530000Y91440000D03*
X49530000Y93980000D03*
X52070000Y91440000D03*
X52070000Y93980000D03*
X54610000Y91440000D03*
X54610000Y93980000D03*
X57150000Y91440000D03*
X57150000Y93980000D03*
X59690000Y91440000D03*
X59690000Y93980000D03*
X62230000Y91440000D03*
X62230000Y93980000D03*
X64770000Y91440000D03*
X64770000Y93980000D03*
X67310000Y91440000D03*
X67310000Y93980000D03*
X69850000Y91440000D03*
X69850000Y93980000D03*
X72390000Y91440000D03*
X72390000Y93980000D03*
X74930000Y91440000D03*
X74930000Y93980000D03*
X77470000Y91440000D03*
X77470000Y93980000D03*
X80010000Y91440000D03*
X80010000Y93980000D03*
X82550000Y91440000D03*
X82550000Y93980000D03*
X85090000Y91440000D03*
X85090000Y93980000D03*
X87630000Y91440000D03*
X87630000Y93980000D03*
X90170000Y91440000D03*
X90170000Y93980000D03*
X92710000Y91440000D03*
X92710000Y93980000D03*
X95250000Y91440000D03*
X95250000Y93980000D03*
X97790000Y91440000D03*
X97790000Y93980000D03*
X100330000Y91440000D03*
X100330000Y93980000D03*
X67310000Y39370000D03*
X64770000Y39370000D03*
X62230000Y39370000D03*
X59690000Y39370000D03*
X57150000Y39370000D03*
X54610000Y39370000D03*
X52070000Y39370000D03*
X49530000Y39370000D03*
X49530000Y26670000D03*
X52070000Y26670000D03*
X54610000Y26670000D03*
X57150000Y26670000D03*
X59690000Y26670000D03*
X62230000Y26670000D03*
X64770000Y26670000D03*
X67310000Y26670000D03*
X87630000Y39370000D03*
X85090000Y39370000D03*
X82550000Y39370000D03*
X80010000Y39370000D03*
X77470000Y39370000D03*
X74930000Y39370000D03*
X72390000Y39370000D03*
X69850000Y39370000D03*
X69850000Y26670000D03*
X72390000Y26670000D03*
X74930000Y26670000D03*
X77470000Y26670000D03*
X80010000Y26670000D03*
X82550000Y26670000D03*
X85090000Y26670000D03*
X87630000Y26670000D03*
X107950000Y39370000D03*
X105410000Y39370000D03*
X102870000Y39370000D03*
X100330000Y39370000D03*
X97790000Y39370000D03*
X95250000Y39370000D03*
X92710000Y39370000D03*
X90170000Y39370000D03*
X90170000Y26670000D03*
X92710000Y26670000D03*
X95250000Y26670000D03*
X97790000Y26670000D03*
X100330000Y26670000D03*
X102870000Y26670000D03*
X105410000Y26670000D03*
X107950000Y26670000D03*
X85090000Y97790000D03*
X87630000Y97790000D03*
X90170000Y97790000D03*
X92710000Y97790000D03*
X95250000Y97790000D03*
X97790000Y97790000D03*
X100330000Y97790000D03*
X102870000Y97790000D03*
X102870000Y110490000D03*
X100330000Y110490000D03*
X97790000Y110490000D03*
X95250000Y110490000D03*
X92710000Y110490000D03*
X90170000Y110490000D03*
X87630000Y110490000D03*
X85090000Y110490000D03*
X64770000Y97790000D03*
X67310000Y97790000D03*
X69850000Y97790000D03*
X72390000Y97790000D03*
X74930000Y97790000D03*
X77470000Y97790000D03*
X80010000Y97790000D03*
X82550000Y97790000D03*
X82550000Y110490000D03*
X80010000Y110490000D03*
X77470000Y110490000D03*
X74930000Y110490000D03*
X72390000Y110490000D03*
X69850000Y110490000D03*
X67310000Y110490000D03*
X64770000Y110490000D03*
X44450000Y97790000D03*
X46990000Y97790000D03*
X49530000Y97790000D03*
X52070000Y97790000D03*
X54610000Y97790000D03*
X57150000Y97790000D03*
X59690000Y97790000D03*
X62230000Y97790000D03*
X62230000Y110490000D03*
X59690000Y110490000D03*
X57150000Y110490000D03*
X54610000Y110490000D03*
X52070000Y110490000D03*
X49530000Y110490000D03*
X46990000Y110490000D03*
X44450000Y110490000D03*
D12*
X19900000Y59400000D03*
D13*
X19900000Y54400000D03*
D12*
X19900000Y112900000D03*
D13*
X19900000Y107900000D03*
D12*
X19900000Y102900000D03*
D13*
X19900000Y97900000D03*
D25*
X19900000Y38900000D03*
D26*
X19900000Y35400000D03*
D25*
X19900000Y24900000D03*
D26*
X19900000Y21400000D03*
D25*
X19900000Y31900000D03*
D26*
X19900000Y28400000D03*
D25*
X19900000Y45900000D03*
D26*
X19900000Y42400000D03*
D25*
X19900000Y49400000D03*
D27*
X105410000Y47625000D03*
X39370000Y44450000D03*
X39370000Y92710000D03*
X105410000Y89535000D03*
D28*
X34290000Y85540000D03*
X34290000Y87180000D03*
X64770000Y86810000D03*
X64770000Y88450000D03*
D29*
X103320000Y42545000D03*
X104960000Y42545000D03*
D28*
X69850000Y88450000D03*
X69850000Y86810000D03*
D29*
X41460000Y30988000D03*
X39820000Y30988000D03*
X41460000Y35560000D03*
X39820000Y35560000D03*
X41460000Y40132000D03*
X39820000Y40132000D03*
X45408000Y36576000D03*
X47048000Y36576000D03*
X49472000Y36576000D03*
X51112000Y36576000D03*
X44265000Y57150000D03*
X45905000Y57150000D03*
X97975000Y66040000D03*
X96335000Y66040000D03*
X97975000Y68580000D03*
X96335000Y68580000D03*
X97975000Y71120000D03*
X96335000Y71120000D03*
X97975000Y73660000D03*
X96335000Y73660000D03*
X97975000Y76200000D03*
X96335000Y76200000D03*
X97975000Y78740000D03*
X96335000Y78740000D03*
D28*
X96520000Y87815000D03*
X96520000Y86175000D03*
X93980000Y87815000D03*
X93980000Y86175000D03*
X91440000Y87815000D03*
X91440000Y86175000D03*
X88900000Y87815000D03*
X88900000Y86175000D03*
D29*
X80460000Y83185000D03*
X82100000Y83185000D03*
X47440000Y57150000D03*
X49080000Y57150000D03*
X47440000Y60960000D03*
X49080000Y60960000D03*
X51112000Y35052000D03*
X49472000Y35052000D03*
X47048000Y35052000D03*
X45408000Y35052000D03*
X39820000Y34036000D03*
X41460000Y34036000D03*
X39820000Y38608000D03*
X41460000Y38608000D03*
X39820000Y29464000D03*
X41460000Y29464000D03*
D28*
X32385000Y87180000D03*
X32385000Y85540000D03*
X29210000Y20770000D03*
X29210000Y22410000D03*
X51435000Y23045000D03*
X51435000Y21405000D03*
D29*
X47440000Y55245000D03*
X49080000Y55245000D03*
D28*
X99060000Y61272000D03*
X99060000Y59632000D03*
X92456000Y59632000D03*
X92456000Y61272000D03*
X99060000Y57716000D03*
X99060000Y56076000D03*
X99060000Y54160000D03*
X99060000Y52520000D03*
X100584000Y54160000D03*
X100584000Y52520000D03*
X27305000Y34740000D03*
X27305000Y36380000D03*
D29*
X44265000Y55245000D03*
X45905000Y55245000D03*
D28*
X27940000Y83000000D03*
X27940000Y84640000D03*
X27305000Y27755000D03*
X27305000Y29395000D03*
X27305000Y20770000D03*
X27305000Y22410000D03*
X93980000Y59632000D03*
X93980000Y61272000D03*
X100584000Y59632000D03*
X100584000Y61272000D03*
X100584000Y57716000D03*
X100584000Y56076000D03*
D29*
X47440000Y59055000D03*
X49080000Y59055000D03*
X88450000Y100965000D03*
X86810000Y100965000D03*
X47810000Y100965000D03*
X46170000Y100965000D03*
X68130000Y100965000D03*
X66490000Y100965000D03*
X104590000Y36195000D03*
X106230000Y36195000D03*
X84270000Y36195000D03*
X85910000Y36195000D03*
X63950000Y36195000D03*
X65590000Y36195000D03*
X69665000Y57150000D03*
X71305000Y57150000D03*
X69665000Y59055000D03*
X71305000Y59055000D03*
D30*
X52185000Y57150000D03*
X50685000Y57150000D03*
X52185000Y60960000D03*
X50685000Y60960000D03*
X52185000Y55245000D03*
X50685000Y55245000D03*
X29210000Y25515000D03*
X29210000Y24015000D03*
X49530000Y22975000D03*
X49530000Y21475000D03*
X26035000Y84570000D03*
X26035000Y83070000D03*
X27305000Y25515000D03*
X27305000Y24015000D03*
X27305000Y39485000D03*
X27305000Y37985000D03*
X27305000Y32500000D03*
X27305000Y31000000D03*
X52185000Y59055000D03*
X50685000Y59055000D03*
D28*
X79375000Y63950000D03*
X79375000Y65590000D03*
X97536000Y54160000D03*
X97536000Y52520000D03*
X97536000Y57716000D03*
X97536000Y56076000D03*
X90932000Y59632000D03*
X90932000Y61272000D03*
X97536000Y61272000D03*
X97536000Y59632000D03*
D29*
X65590000Y77470000D03*
X63950000Y77470000D03*
X71305000Y55245000D03*
X69665000Y55245000D03*
D28*
X89408000Y59632000D03*
X89408000Y61272000D03*
X96012000Y57716000D03*
X96012000Y56076000D03*
X96012000Y61272000D03*
X96012000Y59632000D03*
X96012000Y54160000D03*
X96012000Y52520000D03*
D31*
X55040000Y75565000D03*
X55040000Y74295000D03*
X55040000Y73025000D03*
X55040000Y71755000D03*
X55040000Y70485000D03*
X55040000Y69215000D03*
X55040000Y67945000D03*
X55040000Y66675000D03*
X55040000Y65405000D03*
X55040000Y64135000D03*
X64135000Y64135000D03*
X64135000Y65405000D03*
X64135000Y66675000D03*
X64135000Y67945000D03*
X64135000Y69215000D03*
X64135000Y70485000D03*
X64135000Y71755000D03*
X64135000Y73025000D03*
X64135000Y74295000D03*
X64135000Y75565000D03*
X91010000Y64135000D03*
X91010000Y65405000D03*
X91010000Y66675000D03*
X91010000Y67945000D03*
X91010000Y69215000D03*
X91010000Y70485000D03*
X91010000Y71755000D03*
X91010000Y73025000D03*
X91010000Y74295000D03*
X91010000Y75565000D03*
X91010000Y76835000D03*
X91010000Y78105000D03*
X81915000Y78105000D03*
X81915000Y76835000D03*
X81915000Y75565000D03*
X81915000Y74295000D03*
X81915000Y73025000D03*
X81915000Y71755000D03*
X81915000Y70485000D03*
X81915000Y69215000D03*
X81915000Y67945000D03*
X81915000Y66675000D03*
X81915000Y65405000D03*
X81915000Y64135000D03*
D32*
X78900000Y55245000D03*
X78900000Y56515000D03*
X78900000Y57785000D03*
X78900000Y59055000D03*
X73500000Y59055000D03*
X73500000Y57785000D03*
X73500000Y56515000D03*
X73500000Y55245000D03*
D14*
X97790000Y83820000D03*
D18*
X97790000Y81280000D03*
X95250000Y83820000D03*
X95250000Y81280000D03*
X92710000Y83820000D03*
X92710000Y81280000D03*
X90170000Y83820000D03*
X90170000Y81280000D03*
D14*
X77470000Y83820000D03*
D18*
X77470000Y81280000D03*
X74930000Y83820000D03*
X74930000Y81280000D03*
X72390000Y83820000D03*
X72390000Y81280000D03*
X69850000Y83820000D03*
X69850000Y81280000D03*
D14*
X105410000Y53340000D03*
D18*
X102870000Y53340000D03*
X105410000Y55880000D03*
X102870000Y55880000D03*
X105410000Y58420000D03*
X102870000Y58420000D03*
X105410000Y60960000D03*
X102870000Y60960000D03*
D14*
X78740000Y30480000D03*
D18*
X76200000Y30480000D03*
X78740000Y33020000D03*
X76200000Y33020000D03*
X78740000Y35560000D03*
X76200000Y35560000D03*
D14*
X99060000Y30480000D03*
D18*
X96520000Y30480000D03*
X99060000Y33020000D03*
X96520000Y33020000D03*
X99060000Y35560000D03*
X96520000Y35560000D03*
D14*
X58420000Y30480000D03*
D18*
X55880000Y30480000D03*
X58420000Y33020000D03*
X55880000Y33020000D03*
X58420000Y35560000D03*
X55880000Y35560000D03*
D14*
X93980000Y106680000D03*
D18*
X96520000Y106680000D03*
X93980000Y104140000D03*
X96520000Y104140000D03*
X93980000Y101600000D03*
X96520000Y101600000D03*
D14*
X73660000Y106680000D03*
D18*
X76200000Y106680000D03*
X73660000Y104140000D03*
X76200000Y104140000D03*
X73660000Y101600000D03*
X76200000Y101600000D03*
D14*
X53340000Y106680000D03*
D18*
X55880000Y106680000D03*
X53340000Y104140000D03*
X55880000Y104140000D03*
X53340000Y101600000D03*
X55880000Y101600000D03*
D14*
X54610000Y83820000D03*
D18*
X54610000Y81280000D03*
X52070000Y83820000D03*
X52070000Y81280000D03*
X49530000Y83820000D03*
X49530000Y81280000D03*
D14*
X85090000Y54610000D03*
D18*
X82550000Y54610000D03*
X85090000Y57150000D03*
X82550000Y57150000D03*
D16*
X29190000Y56720000D03*
X29190000Y60120000D03*
X39390000Y56720000D03*
X39390000Y60120000D03*
X29190000Y101170000D03*
X29190000Y104570000D03*
X39390000Y101170000D03*
X39390000Y104570000D03*
D29*
X39820000Y27940000D03*
X41460000Y27940000D03*
X39820000Y32512000D03*
X41460000Y32512000D03*
X39820000Y37084000D03*
X41460000Y37084000D03*
D28*
X32385000Y90355000D03*
X32385000Y88715000D03*
D29*
X49472000Y33528000D03*
X51112000Y33528000D03*
X45408000Y33528000D03*
X47048000Y33528000D03*
D17*
X45085000Y39370000D03*
X101600000Y114935000D03*
D24*
X63246000Y55499000D03*
X63246000Y53721000D03*
X61214000Y54610000D03*
D33*
X37465000Y20810000D03*
X37465000Y24910000D03*
X41275000Y20810000D03*
X41275000Y24910000D03*
X24765000Y34780000D03*
X24765000Y38880000D03*
X24765000Y27795000D03*
X24765000Y31895000D03*
D34*
X20350000Y92900000D03*
X24450000Y92900000D03*
D33*
X24765000Y20810000D03*
X24765000Y24910000D03*
M02*
