G04 #@! TF.FileFunction,Glue,Top*
%FSLAX46Y46*%
G04 Gerber Fmt 4.6, Leading zero omitted, Abs format (unit mm)*
G04 Created by KiCad (PCBNEW (after 2015-may-25 BZR unknown)-product) date 10/06/2015 1:45:06 PM*
%MOMM*%
G01*
G04 APERTURE LIST*
%ADD10C,0.150000*%
%ADD11C,0.100000*%
G04 APERTURE END LIST*
D10*
D11*
X33570000Y84890000D02*
X33570000Y87830000D01*
X33570000Y87830000D02*
X35010000Y87830000D01*
X35010000Y87830000D02*
X35010000Y84890000D01*
X35010000Y84890000D02*
X33570000Y84890000D01*
X64050000Y86160000D02*
X64050000Y89100000D01*
X64050000Y89100000D02*
X65490000Y89100000D01*
X65490000Y89100000D02*
X65490000Y86160000D01*
X65490000Y86160000D02*
X64050000Y86160000D01*
X102670000Y43265000D02*
X105610000Y43265000D01*
X105610000Y43265000D02*
X105610000Y41825000D01*
X105610000Y41825000D02*
X102670000Y41825000D01*
X102670000Y41825000D02*
X102670000Y43265000D01*
X70570000Y89100000D02*
X70570000Y86160000D01*
X70570000Y86160000D02*
X69130000Y86160000D01*
X69130000Y86160000D02*
X69130000Y89100000D01*
X69130000Y89100000D02*
X70570000Y89100000D01*
X42110000Y30268000D02*
X39170000Y30268000D01*
X39170000Y30268000D02*
X39170000Y31708000D01*
X39170000Y31708000D02*
X42110000Y31708000D01*
X42110000Y31708000D02*
X42110000Y30268000D01*
X42110000Y34840000D02*
X39170000Y34840000D01*
X39170000Y34840000D02*
X39170000Y36280000D01*
X39170000Y36280000D02*
X42110000Y36280000D01*
X42110000Y36280000D02*
X42110000Y34840000D01*
X42110000Y39412000D02*
X39170000Y39412000D01*
X39170000Y39412000D02*
X39170000Y40852000D01*
X39170000Y40852000D02*
X42110000Y40852000D01*
X42110000Y40852000D02*
X42110000Y39412000D01*
X44758000Y37296000D02*
X47698000Y37296000D01*
X47698000Y37296000D02*
X47698000Y35856000D01*
X47698000Y35856000D02*
X44758000Y35856000D01*
X44758000Y35856000D02*
X44758000Y37296000D01*
X48822000Y37296000D02*
X51762000Y37296000D01*
X51762000Y37296000D02*
X51762000Y35856000D01*
X51762000Y35856000D02*
X48822000Y35856000D01*
X48822000Y35856000D02*
X48822000Y37296000D01*
X43615000Y57870000D02*
X46555000Y57870000D01*
X46555000Y57870000D02*
X46555000Y56430000D01*
X46555000Y56430000D02*
X43615000Y56430000D01*
X43615000Y56430000D02*
X43615000Y57870000D01*
X98625000Y65320000D02*
X95685000Y65320000D01*
X95685000Y65320000D02*
X95685000Y66760000D01*
X95685000Y66760000D02*
X98625000Y66760000D01*
X98625000Y66760000D02*
X98625000Y65320000D01*
X98625000Y67860000D02*
X95685000Y67860000D01*
X95685000Y67860000D02*
X95685000Y69300000D01*
X95685000Y69300000D02*
X98625000Y69300000D01*
X98625000Y69300000D02*
X98625000Y67860000D01*
X98625000Y70400000D02*
X95685000Y70400000D01*
X95685000Y70400000D02*
X95685000Y71840000D01*
X95685000Y71840000D02*
X98625000Y71840000D01*
X98625000Y71840000D02*
X98625000Y70400000D01*
X98625000Y72940000D02*
X95685000Y72940000D01*
X95685000Y72940000D02*
X95685000Y74380000D01*
X95685000Y74380000D02*
X98625000Y74380000D01*
X98625000Y74380000D02*
X98625000Y72940000D01*
X98625000Y75480000D02*
X95685000Y75480000D01*
X95685000Y75480000D02*
X95685000Y76920000D01*
X95685000Y76920000D02*
X98625000Y76920000D01*
X98625000Y76920000D02*
X98625000Y75480000D01*
X98625000Y78020000D02*
X95685000Y78020000D01*
X95685000Y78020000D02*
X95685000Y79460000D01*
X95685000Y79460000D02*
X98625000Y79460000D01*
X98625000Y79460000D02*
X98625000Y78020000D01*
X97240000Y88465000D02*
X97240000Y85525000D01*
X97240000Y85525000D02*
X95800000Y85525000D01*
X95800000Y85525000D02*
X95800000Y88465000D01*
X95800000Y88465000D02*
X97240000Y88465000D01*
X94700000Y88465000D02*
X94700000Y85525000D01*
X94700000Y85525000D02*
X93260000Y85525000D01*
X93260000Y85525000D02*
X93260000Y88465000D01*
X93260000Y88465000D02*
X94700000Y88465000D01*
X92160000Y88465000D02*
X92160000Y85525000D01*
X92160000Y85525000D02*
X90720000Y85525000D01*
X90720000Y85525000D02*
X90720000Y88465000D01*
X90720000Y88465000D02*
X92160000Y88465000D01*
X89620000Y88465000D02*
X89620000Y85525000D01*
X89620000Y85525000D02*
X88180000Y85525000D01*
X88180000Y85525000D02*
X88180000Y88465000D01*
X88180000Y88465000D02*
X89620000Y88465000D01*
X79810000Y83905000D02*
X82750000Y83905000D01*
X82750000Y83905000D02*
X82750000Y82465000D01*
X82750000Y82465000D02*
X79810000Y82465000D01*
X79810000Y82465000D02*
X79810000Y83905000D01*
X46790000Y57870000D02*
X49730000Y57870000D01*
X49730000Y57870000D02*
X49730000Y56430000D01*
X49730000Y56430000D02*
X46790000Y56430000D01*
X46790000Y56430000D02*
X46790000Y57870000D01*
X46790000Y61680000D02*
X49730000Y61680000D01*
X49730000Y61680000D02*
X49730000Y60240000D01*
X49730000Y60240000D02*
X46790000Y60240000D01*
X46790000Y60240000D02*
X46790000Y61680000D01*
X51762000Y34332000D02*
X48822000Y34332000D01*
X48822000Y34332000D02*
X48822000Y35772000D01*
X48822000Y35772000D02*
X51762000Y35772000D01*
X51762000Y35772000D02*
X51762000Y34332000D01*
X47698000Y34332000D02*
X44758000Y34332000D01*
X44758000Y34332000D02*
X44758000Y35772000D01*
X44758000Y35772000D02*
X47698000Y35772000D01*
X47698000Y35772000D02*
X47698000Y34332000D01*
X39170000Y34756000D02*
X42110000Y34756000D01*
X42110000Y34756000D02*
X42110000Y33316000D01*
X42110000Y33316000D02*
X39170000Y33316000D01*
X39170000Y33316000D02*
X39170000Y34756000D01*
X39170000Y39328000D02*
X42110000Y39328000D01*
X42110000Y39328000D02*
X42110000Y37888000D01*
X42110000Y37888000D02*
X39170000Y37888000D01*
X39170000Y37888000D02*
X39170000Y39328000D01*
X39170000Y30184000D02*
X42110000Y30184000D01*
X42110000Y30184000D02*
X42110000Y28744000D01*
X42110000Y28744000D02*
X39170000Y28744000D01*
X39170000Y28744000D02*
X39170000Y30184000D01*
X33105000Y87830000D02*
X33105000Y84890000D01*
X33105000Y84890000D02*
X31665000Y84890000D01*
X31665000Y84890000D02*
X31665000Y87830000D01*
X31665000Y87830000D02*
X33105000Y87830000D01*
X28490000Y20120000D02*
X28490000Y23060000D01*
X28490000Y23060000D02*
X29930000Y23060000D01*
X29930000Y23060000D02*
X29930000Y20120000D01*
X29930000Y20120000D02*
X28490000Y20120000D01*
X52155000Y23695000D02*
X52155000Y20755000D01*
X52155000Y20755000D02*
X50715000Y20755000D01*
X50715000Y20755000D02*
X50715000Y23695000D01*
X50715000Y23695000D02*
X52155000Y23695000D01*
X46790000Y55965000D02*
X49730000Y55965000D01*
X49730000Y55965000D02*
X49730000Y54525000D01*
X49730000Y54525000D02*
X46790000Y54525000D01*
X46790000Y54525000D02*
X46790000Y55965000D01*
X99780000Y61922000D02*
X99780000Y58982000D01*
X99780000Y58982000D02*
X98340000Y58982000D01*
X98340000Y58982000D02*
X98340000Y61922000D01*
X98340000Y61922000D02*
X99780000Y61922000D01*
X91736000Y58982000D02*
X91736000Y61922000D01*
X91736000Y61922000D02*
X93176000Y61922000D01*
X93176000Y61922000D02*
X93176000Y58982000D01*
X93176000Y58982000D02*
X91736000Y58982000D01*
X99780000Y58366000D02*
X99780000Y55426000D01*
X99780000Y55426000D02*
X98340000Y55426000D01*
X98340000Y55426000D02*
X98340000Y58366000D01*
X98340000Y58366000D02*
X99780000Y58366000D01*
X99780000Y54810000D02*
X99780000Y51870000D01*
X99780000Y51870000D02*
X98340000Y51870000D01*
X98340000Y51870000D02*
X98340000Y54810000D01*
X98340000Y54810000D02*
X99780000Y54810000D01*
X101304000Y54810000D02*
X101304000Y51870000D01*
X101304000Y51870000D02*
X99864000Y51870000D01*
X99864000Y51870000D02*
X99864000Y54810000D01*
X99864000Y54810000D02*
X101304000Y54810000D01*
X26585000Y34090000D02*
X26585000Y37030000D01*
X26585000Y37030000D02*
X28025000Y37030000D01*
X28025000Y37030000D02*
X28025000Y34090000D01*
X28025000Y34090000D02*
X26585000Y34090000D01*
X43615000Y55965000D02*
X46555000Y55965000D01*
X46555000Y55965000D02*
X46555000Y54525000D01*
X46555000Y54525000D02*
X43615000Y54525000D01*
X43615000Y54525000D02*
X43615000Y55965000D01*
X27220000Y82350000D02*
X27220000Y85290000D01*
X27220000Y85290000D02*
X28660000Y85290000D01*
X28660000Y85290000D02*
X28660000Y82350000D01*
X28660000Y82350000D02*
X27220000Y82350000D01*
X26585000Y27105000D02*
X26585000Y30045000D01*
X26585000Y30045000D02*
X28025000Y30045000D01*
X28025000Y30045000D02*
X28025000Y27105000D01*
X28025000Y27105000D02*
X26585000Y27105000D01*
X26585000Y20120000D02*
X26585000Y23060000D01*
X26585000Y23060000D02*
X28025000Y23060000D01*
X28025000Y23060000D02*
X28025000Y20120000D01*
X28025000Y20120000D02*
X26585000Y20120000D01*
X93260000Y58982000D02*
X93260000Y61922000D01*
X93260000Y61922000D02*
X94700000Y61922000D01*
X94700000Y61922000D02*
X94700000Y58982000D01*
X94700000Y58982000D02*
X93260000Y58982000D01*
X99864000Y58982000D02*
X99864000Y61922000D01*
X99864000Y61922000D02*
X101304000Y61922000D01*
X101304000Y61922000D02*
X101304000Y58982000D01*
X101304000Y58982000D02*
X99864000Y58982000D01*
X101304000Y58366000D02*
X101304000Y55426000D01*
X101304000Y55426000D02*
X99864000Y55426000D01*
X99864000Y55426000D02*
X99864000Y58366000D01*
X99864000Y58366000D02*
X101304000Y58366000D01*
X46790000Y59775000D02*
X49730000Y59775000D01*
X49730000Y59775000D02*
X49730000Y58335000D01*
X49730000Y58335000D02*
X46790000Y58335000D01*
X46790000Y58335000D02*
X46790000Y59775000D01*
X89100000Y100245000D02*
X86160000Y100245000D01*
X86160000Y100245000D02*
X86160000Y101685000D01*
X86160000Y101685000D02*
X89100000Y101685000D01*
X89100000Y101685000D02*
X89100000Y100245000D01*
X48460000Y100245000D02*
X45520000Y100245000D01*
X45520000Y100245000D02*
X45520000Y101685000D01*
X45520000Y101685000D02*
X48460000Y101685000D01*
X48460000Y101685000D02*
X48460000Y100245000D01*
X68780000Y100245000D02*
X65840000Y100245000D01*
X65840000Y100245000D02*
X65840000Y101685000D01*
X65840000Y101685000D02*
X68780000Y101685000D01*
X68780000Y101685000D02*
X68780000Y100245000D01*
X103940000Y36915000D02*
X106880000Y36915000D01*
X106880000Y36915000D02*
X106880000Y35475000D01*
X106880000Y35475000D02*
X103940000Y35475000D01*
X103940000Y35475000D02*
X103940000Y36915000D01*
X83620000Y36915000D02*
X86560000Y36915000D01*
X86560000Y36915000D02*
X86560000Y35475000D01*
X86560000Y35475000D02*
X83620000Y35475000D01*
X83620000Y35475000D02*
X83620000Y36915000D01*
X63300000Y36915000D02*
X66240000Y36915000D01*
X66240000Y36915000D02*
X66240000Y35475000D01*
X66240000Y35475000D02*
X63300000Y35475000D01*
X63300000Y35475000D02*
X63300000Y36915000D01*
X69015000Y57870000D02*
X71955000Y57870000D01*
X71955000Y57870000D02*
X71955000Y56430000D01*
X71955000Y56430000D02*
X69015000Y56430000D01*
X69015000Y56430000D02*
X69015000Y57870000D01*
X69015000Y59775000D02*
X71955000Y59775000D01*
X71955000Y59775000D02*
X71955000Y58335000D01*
X71955000Y58335000D02*
X69015000Y58335000D01*
X69015000Y58335000D02*
X69015000Y59775000D01*
X52905000Y56430000D02*
X49965000Y56430000D01*
X49965000Y56430000D02*
X49965000Y57870000D01*
X49965000Y57870000D02*
X52905000Y57870000D01*
X52905000Y57870000D02*
X52905000Y56430000D01*
X52905000Y60240000D02*
X49965000Y60240000D01*
X49965000Y60240000D02*
X49965000Y61680000D01*
X49965000Y61680000D02*
X52905000Y61680000D01*
X52905000Y61680000D02*
X52905000Y60240000D01*
X52905000Y54525000D02*
X49965000Y54525000D01*
X49965000Y54525000D02*
X49965000Y55965000D01*
X49965000Y55965000D02*
X52905000Y55965000D01*
X52905000Y55965000D02*
X52905000Y54525000D01*
X29930000Y26235000D02*
X29930000Y23295000D01*
X29930000Y23295000D02*
X28490000Y23295000D01*
X28490000Y23295000D02*
X28490000Y26235000D01*
X28490000Y26235000D02*
X29930000Y26235000D01*
X50250000Y23695000D02*
X50250000Y20755000D01*
X50250000Y20755000D02*
X48810000Y20755000D01*
X48810000Y20755000D02*
X48810000Y23695000D01*
X48810000Y23695000D02*
X50250000Y23695000D01*
X26755000Y85290000D02*
X26755000Y82350000D01*
X26755000Y82350000D02*
X25315000Y82350000D01*
X25315000Y82350000D02*
X25315000Y85290000D01*
X25315000Y85290000D02*
X26755000Y85290000D01*
X28025000Y26235000D02*
X28025000Y23295000D01*
X28025000Y23295000D02*
X26585000Y23295000D01*
X26585000Y23295000D02*
X26585000Y26235000D01*
X26585000Y26235000D02*
X28025000Y26235000D01*
X28025000Y40205000D02*
X28025000Y37265000D01*
X28025000Y37265000D02*
X26585000Y37265000D01*
X26585000Y37265000D02*
X26585000Y40205000D01*
X26585000Y40205000D02*
X28025000Y40205000D01*
X28025000Y33220000D02*
X28025000Y30280000D01*
X28025000Y30280000D02*
X26585000Y30280000D01*
X26585000Y30280000D02*
X26585000Y33220000D01*
X26585000Y33220000D02*
X28025000Y33220000D01*
X52905000Y58335000D02*
X49965000Y58335000D01*
X49965000Y58335000D02*
X49965000Y59775000D01*
X49965000Y59775000D02*
X52905000Y59775000D01*
X52905000Y59775000D02*
X52905000Y58335000D01*
X78655000Y63300000D02*
X78655000Y66240000D01*
X78655000Y66240000D02*
X80095000Y66240000D01*
X80095000Y66240000D02*
X80095000Y63300000D01*
X80095000Y63300000D02*
X78655000Y63300000D01*
X98256000Y54810000D02*
X98256000Y51870000D01*
X98256000Y51870000D02*
X96816000Y51870000D01*
X96816000Y51870000D02*
X96816000Y54810000D01*
X96816000Y54810000D02*
X98256000Y54810000D01*
X98256000Y58366000D02*
X98256000Y55426000D01*
X98256000Y55426000D02*
X96816000Y55426000D01*
X96816000Y55426000D02*
X96816000Y58366000D01*
X96816000Y58366000D02*
X98256000Y58366000D01*
X90212000Y58982000D02*
X90212000Y61922000D01*
X90212000Y61922000D02*
X91652000Y61922000D01*
X91652000Y61922000D02*
X91652000Y58982000D01*
X91652000Y58982000D02*
X90212000Y58982000D01*
X98256000Y61922000D02*
X98256000Y58982000D01*
X98256000Y58982000D02*
X96816000Y58982000D01*
X96816000Y58982000D02*
X96816000Y61922000D01*
X96816000Y61922000D02*
X98256000Y61922000D01*
X66240000Y76750000D02*
X63300000Y76750000D01*
X63300000Y76750000D02*
X63300000Y78190000D01*
X63300000Y78190000D02*
X66240000Y78190000D01*
X66240000Y78190000D02*
X66240000Y76750000D01*
X71955000Y54525000D02*
X69015000Y54525000D01*
X69015000Y54525000D02*
X69015000Y55965000D01*
X69015000Y55965000D02*
X71955000Y55965000D01*
X71955000Y55965000D02*
X71955000Y54525000D01*
X88688000Y58982000D02*
X88688000Y61922000D01*
X88688000Y61922000D02*
X90128000Y61922000D01*
X90128000Y61922000D02*
X90128000Y58982000D01*
X90128000Y58982000D02*
X88688000Y58982000D01*
X96732000Y58366000D02*
X96732000Y55426000D01*
X96732000Y55426000D02*
X95292000Y55426000D01*
X95292000Y55426000D02*
X95292000Y58366000D01*
X95292000Y58366000D02*
X96732000Y58366000D01*
X96732000Y61922000D02*
X96732000Y58982000D01*
X96732000Y58982000D02*
X95292000Y58982000D01*
X95292000Y58982000D02*
X95292000Y61922000D01*
X95292000Y61922000D02*
X96732000Y61922000D01*
X96732000Y54810000D02*
X96732000Y51870000D01*
X96732000Y51870000D02*
X95292000Y51870000D01*
X95292000Y51870000D02*
X95292000Y54810000D01*
X95292000Y54810000D02*
X96732000Y54810000D01*
X39170000Y28660000D02*
X42110000Y28660000D01*
X42110000Y28660000D02*
X42110000Y27220000D01*
X42110000Y27220000D02*
X39170000Y27220000D01*
X39170000Y27220000D02*
X39170000Y28660000D01*
X39170000Y33232000D02*
X42110000Y33232000D01*
X42110000Y33232000D02*
X42110000Y31792000D01*
X42110000Y31792000D02*
X39170000Y31792000D01*
X39170000Y31792000D02*
X39170000Y33232000D01*
X39170000Y37804000D02*
X42110000Y37804000D01*
X42110000Y37804000D02*
X42110000Y36364000D01*
X42110000Y36364000D02*
X39170000Y36364000D01*
X39170000Y36364000D02*
X39170000Y37804000D01*
X33105000Y91005000D02*
X33105000Y88065000D01*
X33105000Y88065000D02*
X31665000Y88065000D01*
X31665000Y88065000D02*
X31665000Y91005000D01*
X31665000Y91005000D02*
X33105000Y91005000D01*
X48822000Y34248000D02*
X51762000Y34248000D01*
X51762000Y34248000D02*
X51762000Y32808000D01*
X51762000Y32808000D02*
X48822000Y32808000D01*
X48822000Y32808000D02*
X48822000Y34248000D01*
X44758000Y34248000D02*
X47698000Y34248000D01*
X47698000Y34248000D02*
X47698000Y32808000D01*
X47698000Y32808000D02*
X44758000Y32808000D01*
X44758000Y32808000D02*
X44758000Y34248000D01*
X35815000Y19460000D02*
X35815000Y26260000D01*
X35815000Y26260000D02*
X39115000Y26260000D01*
X39115000Y26260000D02*
X39115000Y19460000D01*
X39115000Y19460000D02*
X35815000Y19460000D01*
X39625000Y19460000D02*
X39625000Y26260000D01*
X39625000Y26260000D02*
X42925000Y26260000D01*
X42925000Y26260000D02*
X42925000Y19460000D01*
X42925000Y19460000D02*
X39625000Y19460000D01*
X23115000Y33430000D02*
X23115000Y40230000D01*
X23115000Y40230000D02*
X26415000Y40230000D01*
X26415000Y40230000D02*
X26415000Y33430000D01*
X26415000Y33430000D02*
X23115000Y33430000D01*
X23115000Y26445000D02*
X23115000Y33245000D01*
X23115000Y33245000D02*
X26415000Y33245000D01*
X26415000Y33245000D02*
X26415000Y26445000D01*
X26415000Y26445000D02*
X23115000Y26445000D01*
X19000000Y94550000D02*
X25800000Y94550000D01*
X25800000Y94550000D02*
X25800000Y91250000D01*
X25800000Y91250000D02*
X19000000Y91250000D01*
X19000000Y91250000D02*
X19000000Y94550000D01*
X23115000Y19460000D02*
X23115000Y26260000D01*
X23115000Y26260000D02*
X26415000Y26260000D01*
X26415000Y26260000D02*
X26415000Y19460000D01*
X26415000Y19460000D02*
X23115000Y19460000D01*
M02*
