G04 #@! TF.FileFunction,Legend,Bot*
%FSLAX46Y46*%
G04 Gerber Fmt 4.6, Leading zero omitted, Abs format (unit mm)*
G04 Created by KiCad (PCBNEW (after 2015-may-25 BZR unknown)-product) date 10/06/2015 1:45:06 PM*
%MOMM*%
G01*
G04 APERTURE LIST*
%ADD10C,0.150000*%
%ADD11C,0.304800*%
%ADD12C,0.254000*%
%ADD13C,0.381000*%
%ADD14C,0.300000*%
%ADD15C,0.508000*%
%ADD16C,0.101600*%
%ADD17C,0.203200*%
%ADD18C,3.508000*%
%ADD19R,3.508000X3.508000*%
%ADD20R,2.159000X2.159000*%
%ADD21O,2.159000X2.159000*%
%ADD22C,3.158000*%
%ADD23C,2.159000*%
%ADD24C,2.286000*%
%ADD25R,2.286000X2.286000*%
%ADD26R,2.159000X2.032000*%
%ADD27R,1.905000X3.007360*%
%ADD28C,2.908000*%
%ADD29R,2.908000X2.908000*%
%ADD30C,6.008000*%
G04 APERTURE END LIST*
D10*
D11*
X13150000Y82150000D02*
X14650000Y82150000D01*
X13900000Y82900000D02*
X13900000Y81400000D01*
X13900000Y89400000D02*
X13900000Y87900000D01*
D12*
X15032857Y93325476D02*
X15032857Y94595476D01*
X14428095Y93325476D02*
X14428095Y94595476D01*
X13702381Y93325476D01*
X13702381Y94595476D01*
X16484285Y92595476D02*
X16242381Y92595476D01*
X16121428Y92535000D01*
X16000476Y92414048D01*
X15940000Y92172143D01*
X15940000Y91748810D01*
X16000476Y91506905D01*
X16121428Y91385952D01*
X16242381Y91325476D01*
X16484285Y91325476D01*
X16605238Y91385952D01*
X16726190Y91506905D01*
X16786666Y91748810D01*
X16786666Y92172143D01*
X16726190Y92414048D01*
X16605238Y92535000D01*
X16484285Y92595476D01*
X15395714Y92595476D02*
X15395714Y91567381D01*
X15335238Y91446429D01*
X15274762Y91385952D01*
X15153809Y91325476D01*
X14911905Y91325476D01*
X14790952Y91385952D01*
X14730476Y91446429D01*
X14670000Y91567381D01*
X14670000Y92595476D01*
X14246667Y92595476D02*
X13520952Y92595476D01*
X13883809Y91325476D02*
X13883809Y92595476D01*
D11*
X18400000Y91900000D02*
X17400000Y91900000D01*
X18400000Y90400000D02*
X18400000Y91900000D01*
X18400000Y93900000D02*
X15900000Y93900000D01*
X18400000Y95400000D02*
X18400000Y93900000D01*
D13*
X15400000Y47650000D02*
X15900000Y47650000D01*
X15400000Y44150000D02*
X15900000Y44150000D01*
X15900000Y51150000D02*
X15900000Y40650000D01*
X14400000Y56900000D02*
X15400000Y56900000D01*
X14400000Y100400000D02*
X15400000Y100400000D01*
X14400000Y110400000D02*
X15400000Y110400000D01*
D12*
X14535000Y46232619D02*
X14595476Y46111667D01*
X14595476Y45930238D01*
X14535000Y45748810D01*
X14414048Y45627857D01*
X14293095Y45567381D01*
X14051190Y45506905D01*
X13869762Y45506905D01*
X13627857Y45567381D01*
X13506905Y45627857D01*
X13385952Y45748810D01*
X13325476Y45930238D01*
X13325476Y46051190D01*
X13385952Y46232619D01*
X13446429Y46293095D01*
X13869762Y46293095D01*
X13869762Y46051190D01*
X14595476Y49158096D02*
X14595476Y48553334D01*
X13990714Y48492858D01*
X14051190Y48553334D01*
X14111667Y48674286D01*
X14111667Y48976667D01*
X14051190Y49097620D01*
X13990714Y49158096D01*
X13869762Y49218572D01*
X13567381Y49218572D01*
X13446429Y49158096D01*
X13385952Y49097620D01*
X13325476Y48976667D01*
X13325476Y48674286D01*
X13385952Y48553334D01*
X13446429Y48492858D01*
X14595476Y49581429D02*
X13325476Y50004763D01*
X14595476Y50428096D01*
X14595476Y41190476D02*
X13325476Y41613810D01*
X14595476Y42037143D01*
X13809286Y42460476D02*
X13809286Y43428095D01*
X13325476Y42944285D02*
X14293095Y42944285D01*
D13*
X15400000Y40650000D02*
X22900000Y40650000D01*
X15400000Y33650000D02*
X22900000Y33650000D01*
X15400000Y26650000D02*
X22900000Y26650000D01*
X22900000Y19650000D02*
X15400000Y19650000D01*
X22900000Y51150000D02*
X22900000Y19650000D01*
X15400000Y51150000D02*
X22900000Y51150000D01*
X15400000Y51900000D02*
X15400000Y61900000D01*
X24400000Y51900000D02*
X15400000Y51900000D01*
X24400000Y61900000D02*
X24400000Y51900000D01*
X15400000Y61900000D02*
X24400000Y61900000D01*
X15400000Y80400000D02*
X15400000Y90400000D01*
X24400000Y80400000D02*
X15400000Y80400000D01*
X24400000Y90400000D02*
X24400000Y80400000D01*
X15400000Y90400000D02*
X24400000Y90400000D01*
X15400000Y105400000D02*
X24400000Y105400000D01*
X15400000Y95400000D02*
X15400000Y115400000D01*
X24400000Y95400000D02*
X15400000Y95400000D01*
X24400000Y115400000D02*
X24400000Y95400000D01*
X15400000Y115400000D02*
X24400000Y115400000D01*
X15400000Y105400000D02*
X12700000Y105400000D01*
X15400000Y90400000D02*
X12700000Y90400000D01*
X15400000Y95400000D02*
X12700000Y95400000D01*
X15400000Y115400000D02*
X12700000Y115400000D01*
X15400000Y61900000D02*
X12700000Y61900000D01*
X15400000Y80400000D02*
X12700000Y80400000D01*
X15400000Y51900000D02*
X12700000Y51900000D01*
X15400000Y51150000D02*
X12700000Y51150000D01*
X15400000Y40650000D02*
X12700000Y40650000D01*
X15400000Y33650000D02*
X12700000Y33650000D01*
X15400000Y26650000D02*
X12700000Y26650000D01*
X15400000Y19650000D02*
X12700000Y19650000D01*
D14*
X17007143Y81971429D02*
X16935714Y82185715D01*
X16864286Y82257143D01*
X16721429Y82328572D01*
X16507143Y82328572D01*
X16364286Y82257143D01*
X16292857Y82185715D01*
X16221429Y82042857D01*
X16221429Y81471429D01*
X17721429Y81471429D01*
X17721429Y81971429D01*
X17650000Y82114286D01*
X17578571Y82185715D01*
X17435714Y82257143D01*
X17292857Y82257143D01*
X17150000Y82185715D01*
X17078571Y82114286D01*
X17007143Y81971429D01*
X17007143Y81471429D01*
X17007143Y82971429D02*
X17007143Y83471429D01*
X16221429Y83685715D02*
X16221429Y82971429D01*
X17721429Y82971429D01*
X17721429Y83685715D01*
X16221429Y84328572D02*
X17721429Y84328572D01*
X17721429Y84685715D01*
X17650000Y84900000D01*
X17507143Y85042858D01*
X17364286Y85114286D01*
X17078571Y85185715D01*
X16864286Y85185715D01*
X16578571Y85114286D01*
X16435714Y85042858D01*
X16292857Y84900000D01*
X16221429Y84685715D01*
X16221429Y84328572D01*
X16221429Y85828572D02*
X17721429Y85828572D01*
X17007143Y85828572D02*
X17007143Y86685715D01*
X16221429Y86685715D02*
X17721429Y86685715D01*
X17721429Y87185715D02*
X17721429Y88042858D01*
X16221429Y87614287D02*
X17721429Y87614287D01*
X16221429Y89400001D02*
X16935714Y88900001D01*
X16221429Y88542858D02*
X17721429Y88542858D01*
X17721429Y89114286D01*
X17650000Y89257144D01*
X17578571Y89328572D01*
X17435714Y89400001D01*
X17221429Y89400001D01*
X17078571Y89328572D01*
X17007143Y89257144D01*
X16935714Y89114286D01*
X16935714Y88542858D01*
D12*
X13990714Y84281190D02*
X13930238Y84462619D01*
X13869762Y84523095D01*
X13748810Y84583571D01*
X13567381Y84583571D01*
X13446429Y84523095D01*
X13385952Y84462619D01*
X13325476Y84341666D01*
X13325476Y83857857D01*
X14595476Y83857857D01*
X14595476Y84281190D01*
X14535000Y84402143D01*
X14474524Y84462619D01*
X14353571Y84523095D01*
X14232619Y84523095D01*
X14111667Y84462619D01*
X14051190Y84402143D01*
X13990714Y84281190D01*
X13990714Y83857857D01*
X13990714Y85127857D02*
X13990714Y85551190D01*
X13325476Y85732619D02*
X13325476Y85127857D01*
X14595476Y85127857D01*
X14595476Y85732619D01*
X13325476Y86276905D02*
X14595476Y86276905D01*
X14595476Y86579286D01*
X14535000Y86760714D01*
X14414048Y86881667D01*
X14293095Y86942143D01*
X14051190Y87002619D01*
X13869762Y87002619D01*
X13627857Y86942143D01*
X13506905Y86881667D01*
X13385952Y86760714D01*
X13325476Y86579286D01*
X13325476Y86276905D01*
X13990714Y96781190D02*
X13930238Y96962619D01*
X13869762Y97023095D01*
X13748810Y97083571D01*
X13567381Y97083571D01*
X13446429Y97023095D01*
X13385952Y96962619D01*
X13325476Y96841666D01*
X13325476Y96357857D01*
X14595476Y96357857D01*
X14595476Y96781190D01*
X14535000Y96902143D01*
X14474524Y96962619D01*
X14353571Y97023095D01*
X14232619Y97023095D01*
X14111667Y96962619D01*
X14051190Y96902143D01*
X13990714Y96781190D01*
X13990714Y96357857D01*
X13990714Y97627857D02*
X13990714Y98051190D01*
X13325476Y98232619D02*
X13325476Y97627857D01*
X14595476Y97627857D01*
X14595476Y98232619D01*
X13325476Y98776905D02*
X14595476Y98776905D01*
X14595476Y99079286D01*
X14535000Y99260714D01*
X14414048Y99381667D01*
X14293095Y99442143D01*
X14051190Y99502619D01*
X13869762Y99502619D01*
X13627857Y99442143D01*
X13506905Y99381667D01*
X13385952Y99260714D01*
X13325476Y99079286D01*
X13325476Y98776905D01*
X14535000Y101932381D02*
X14595476Y101811429D01*
X14595476Y101630000D01*
X14535000Y101448572D01*
X14414048Y101327619D01*
X14293095Y101267143D01*
X14051190Y101206667D01*
X13869762Y101206667D01*
X13627857Y101267143D01*
X13506905Y101327619D01*
X13385952Y101448572D01*
X13325476Y101630000D01*
X13325476Y101750952D01*
X13385952Y101932381D01*
X13446429Y101992857D01*
X13869762Y101992857D01*
X13869762Y101750952D01*
X13325476Y102537143D02*
X14595476Y102537143D01*
X13325476Y103262857D01*
X14595476Y103262857D01*
X13325476Y103867619D02*
X14595476Y103867619D01*
X14595476Y104170000D01*
X14535000Y104351428D01*
X14414048Y104472381D01*
X14293095Y104532857D01*
X14051190Y104593333D01*
X13869762Y104593333D01*
X13627857Y104532857D01*
X13506905Y104472381D01*
X13385952Y104351428D01*
X13325476Y104170000D01*
X13325476Y103867619D01*
D14*
X17007143Y96721429D02*
X16935714Y96935715D01*
X16864286Y97007143D01*
X16721429Y97078572D01*
X16507143Y97078572D01*
X16364286Y97007143D01*
X16292857Y96935715D01*
X16221429Y96792857D01*
X16221429Y96221429D01*
X17721429Y96221429D01*
X17721429Y96721429D01*
X17650000Y96864286D01*
X17578571Y96935715D01*
X17435714Y97007143D01*
X17292857Y97007143D01*
X17150000Y96935715D01*
X17078571Y96864286D01*
X17007143Y96721429D01*
X17007143Y96221429D01*
X17007143Y97721429D02*
X17007143Y98221429D01*
X16221429Y98435715D02*
X16221429Y97721429D01*
X17721429Y97721429D01*
X17721429Y98435715D01*
X16221429Y99078572D02*
X17721429Y99078572D01*
X17721429Y99435715D01*
X17650000Y99650000D01*
X17507143Y99792858D01*
X17364286Y99864286D01*
X17078571Y99935715D01*
X16864286Y99935715D01*
X16578571Y99864286D01*
X16435714Y99792858D01*
X16292857Y99650000D01*
X16221429Y99435715D01*
X16221429Y99078572D01*
X16221429Y100578572D02*
X17721429Y100578572D01*
X17721429Y101150000D01*
X17650000Y101292858D01*
X17578571Y101364286D01*
X17435714Y101435715D01*
X17221429Y101435715D01*
X17078571Y101364286D01*
X17007143Y101292858D01*
X16935714Y101150000D01*
X16935714Y100578572D01*
X17721429Y101935715D02*
X16221429Y102292858D01*
X17292857Y102578572D01*
X16221429Y102864286D01*
X17721429Y103221429D01*
X16221429Y104650001D02*
X16935714Y104150001D01*
X16221429Y103792858D02*
X17721429Y103792858D01*
X17721429Y104364286D01*
X17650000Y104507144D01*
X17578571Y104578572D01*
X17435714Y104650001D01*
X17221429Y104650001D01*
X17078571Y104578572D01*
X17007143Y104507144D01*
X16935714Y104364286D01*
X16935714Y103792858D01*
X16221429Y106292857D02*
X17721429Y106292857D01*
X16650000Y106792857D01*
X17721429Y107292857D01*
X16221429Y107292857D01*
X17721429Y108292857D02*
X17721429Y108578571D01*
X17650000Y108721429D01*
X17507143Y108864286D01*
X17221429Y108935714D01*
X16721429Y108935714D01*
X16435714Y108864286D01*
X16292857Y108721429D01*
X16221429Y108578571D01*
X16221429Y108292857D01*
X16292857Y108150000D01*
X16435714Y108007143D01*
X16721429Y107935714D01*
X17221429Y107935714D01*
X17507143Y108007143D01*
X17650000Y108150000D01*
X17721429Y108292857D01*
X17721429Y109364286D02*
X17721429Y110221429D01*
X16221429Y109792858D02*
X17721429Y109792858D01*
X17721429Y111007143D02*
X17721429Y111292857D01*
X17650000Y111435715D01*
X17507143Y111578572D01*
X17221429Y111650000D01*
X16721429Y111650000D01*
X16435714Y111578572D01*
X16292857Y111435715D01*
X16221429Y111292857D01*
X16221429Y111007143D01*
X16292857Y110864286D01*
X16435714Y110721429D01*
X16721429Y110650000D01*
X17221429Y110650000D01*
X17507143Y110721429D01*
X17650000Y110864286D01*
X17721429Y111007143D01*
X16221429Y113150001D02*
X16935714Y112650001D01*
X16221429Y112292858D02*
X17721429Y112292858D01*
X17721429Y112864286D01*
X17650000Y113007144D01*
X17578571Y113078572D01*
X17435714Y113150001D01*
X17221429Y113150001D01*
X17078571Y113078572D01*
X17007143Y113007144D01*
X16935714Y112864286D01*
X16935714Y112292858D01*
X16292857Y113721429D02*
X16221429Y113935715D01*
X16221429Y114292858D01*
X16292857Y114435715D01*
X16364286Y114507144D01*
X16507143Y114578572D01*
X16650000Y114578572D01*
X16792857Y114507144D01*
X16864286Y114435715D01*
X16935714Y114292858D01*
X17007143Y114007144D01*
X17078571Y113864286D01*
X17150000Y113792858D01*
X17292857Y113721429D01*
X17435714Y113721429D01*
X17578571Y113792858D01*
X17650000Y113864286D01*
X17721429Y114007144D01*
X17721429Y114364286D01*
X17650000Y114578572D01*
D12*
X14535000Y111932381D02*
X14595476Y111811429D01*
X14595476Y111630000D01*
X14535000Y111448572D01*
X14414048Y111327619D01*
X14293095Y111267143D01*
X14051190Y111206667D01*
X13869762Y111206667D01*
X13627857Y111267143D01*
X13506905Y111327619D01*
X13385952Y111448572D01*
X13325476Y111630000D01*
X13325476Y111750952D01*
X13385952Y111932381D01*
X13446429Y111992857D01*
X13869762Y111992857D01*
X13869762Y111750952D01*
X13325476Y112537143D02*
X14595476Y112537143D01*
X13325476Y113262857D01*
X14595476Y113262857D01*
X13325476Y113867619D02*
X14595476Y113867619D01*
X14595476Y114170000D01*
X14535000Y114351428D01*
X14414048Y114472381D01*
X14293095Y114532857D01*
X14051190Y114593333D01*
X13869762Y114593333D01*
X13627857Y114532857D01*
X13506905Y114472381D01*
X13385952Y114351428D01*
X13325476Y114170000D01*
X13325476Y113867619D01*
X13325476Y106327619D02*
X14595476Y106327619D01*
X13688333Y106750952D01*
X14595476Y107174286D01*
X13325476Y107174286D01*
X14595476Y108020953D02*
X14595476Y108262857D01*
X14535000Y108383810D01*
X14414048Y108504762D01*
X14172143Y108565238D01*
X13748810Y108565238D01*
X13506905Y108504762D01*
X13385952Y108383810D01*
X13325476Y108262857D01*
X13325476Y108020953D01*
X13385952Y107900000D01*
X13506905Y107779048D01*
X13748810Y107718572D01*
X14172143Y107718572D01*
X14414048Y107779048D01*
X14535000Y107900000D01*
X14595476Y108020953D01*
X14595476Y108928095D02*
X14595476Y109653810D01*
X13325476Y109290953D02*
X14595476Y109290953D01*
X16688333Y42331905D02*
X16688333Y42936667D01*
X16325476Y42210952D02*
X17595476Y42634286D01*
X16325476Y43057619D01*
X17595476Y43480952D02*
X16567381Y43480952D01*
X16446429Y43541428D01*
X16385952Y43601904D01*
X16325476Y43722857D01*
X16325476Y43964761D01*
X16385952Y44085714D01*
X16446429Y44146190D01*
X16567381Y44206666D01*
X17595476Y44206666D01*
X17595476Y44690476D02*
X16325476Y45537142D01*
X17595476Y45537142D02*
X16325476Y44690476D01*
X16325476Y46020952D02*
X17595476Y46020952D01*
X17595476Y46504761D01*
X17535000Y46625714D01*
X17474524Y46686190D01*
X17353571Y46746666D01*
X17172143Y46746666D01*
X17051190Y46686190D01*
X16990714Y46625714D01*
X16930238Y46504761D01*
X16930238Y46020952D01*
X17595476Y47170000D02*
X16325476Y47472381D01*
X17232619Y47714285D01*
X16325476Y47956190D01*
X17595476Y48258571D01*
X16325476Y49468095D02*
X16930238Y49044762D01*
X16325476Y48742381D02*
X17595476Y48742381D01*
X17595476Y49226190D01*
X17535000Y49347143D01*
X17474524Y49407619D01*
X17353571Y49468095D01*
X17172143Y49468095D01*
X17051190Y49407619D01*
X16990714Y49347143D01*
X16930238Y49226190D01*
X16930238Y48742381D01*
X13325476Y52706667D02*
X14595476Y52706667D01*
X14595476Y53190476D01*
X14535000Y53311429D01*
X14474524Y53371905D01*
X14353571Y53432381D01*
X14172143Y53432381D01*
X14051190Y53371905D01*
X13990714Y53311429D01*
X13930238Y53190476D01*
X13930238Y52706667D01*
X14595476Y53855715D02*
X13325476Y54158096D01*
X14232619Y54400000D01*
X13325476Y54641905D01*
X14595476Y54944286D01*
X13325476Y56153810D02*
X13930238Y55730477D01*
X13325476Y55428096D02*
X14595476Y55428096D01*
X14595476Y55911905D01*
X14535000Y56032858D01*
X14474524Y56093334D01*
X14353571Y56153810D01*
X14172143Y56153810D01*
X14051190Y56093334D01*
X13990714Y56032858D01*
X13930238Y55911905D01*
X13930238Y55428096D01*
X14535000Y58432381D02*
X14595476Y58311429D01*
X14595476Y58130000D01*
X14535000Y57948572D01*
X14414048Y57827619D01*
X14293095Y57767143D01*
X14051190Y57706667D01*
X13869762Y57706667D01*
X13627857Y57767143D01*
X13506905Y57827619D01*
X13385952Y57948572D01*
X13325476Y58130000D01*
X13325476Y58250952D01*
X13385952Y58432381D01*
X13446429Y58492857D01*
X13869762Y58492857D01*
X13869762Y58250952D01*
X13325476Y59037143D02*
X14595476Y59037143D01*
X13325476Y59762857D01*
X14595476Y59762857D01*
X13325476Y60367619D02*
X14595476Y60367619D01*
X14595476Y60670000D01*
X14535000Y60851428D01*
X14414048Y60972381D01*
X14293095Y61032857D01*
X14051190Y61093333D01*
X13869762Y61093333D01*
X13627857Y61032857D01*
X13506905Y60972381D01*
X13385952Y60851428D01*
X13325476Y60670000D01*
X13325476Y60367619D01*
D11*
X13400000Y21400000D02*
X15400000Y21400000D01*
X14400000Y22400000D02*
X14400000Y20400000D01*
X14400000Y25900000D02*
X14400000Y23900000D01*
X13400000Y28400000D02*
X15400000Y28400000D01*
X14400000Y29400000D02*
X14400000Y27400000D01*
X14400000Y32900000D02*
X14400000Y30900000D01*
X13400000Y35400000D02*
X15400000Y35400000D01*
X14400000Y36400000D02*
X14400000Y34400000D01*
X14400000Y39900000D02*
X14400000Y37900000D01*
X78740000Y111760000D02*
X78740000Y118110000D01*
X68580000Y111760000D02*
X78740000Y111760000D01*
X68580000Y118110000D02*
X68580000Y111760000D01*
X58420000Y111760000D02*
X58420000Y118110000D01*
X48260000Y111760000D02*
X58420000Y111760000D01*
X48260000Y118110000D02*
X48260000Y111760000D01*
X99060000Y111760000D02*
X99060000Y118110000D01*
X88900000Y111760000D02*
X99060000Y111760000D01*
X88900000Y118110000D02*
X88900000Y111760000D01*
D15*
X44329048Y115781667D02*
X46869048Y114088334D01*
X44329048Y114088334D02*
X46869048Y115781667D01*
X65979524Y114935000D02*
X67189048Y114935000D01*
X64649048Y115781666D02*
X65979524Y114935000D01*
X64649048Y114088333D01*
D11*
X104140000Y25400000D02*
X104140000Y19050000D01*
X93980000Y25400000D02*
X104140000Y25400000D01*
X93980000Y19050000D02*
X93980000Y25400000D01*
X83820000Y25400000D02*
X83820000Y19050000D01*
X73660000Y25400000D02*
X83820000Y25400000D01*
X73660000Y19050000D02*
X73660000Y25400000D01*
X63500000Y25400000D02*
X63500000Y19050000D01*
X53340000Y25400000D02*
X63500000Y25400000D01*
X53340000Y19050000D02*
X53340000Y25400000D01*
D15*
X84969048Y115781667D02*
X84969048Y114088334D01*
X87509048Y115781667D01*
X87509048Y114088334D01*
X65858571Y23978809D02*
X65858571Y23132142D01*
X67189048Y22769285D02*
X67189048Y23978809D01*
X64649048Y23978809D01*
X64649048Y22769285D01*
X64649048Y21196905D02*
X64649048Y20955000D01*
X64770000Y20713095D01*
X64890952Y20592143D01*
X65132857Y20471190D01*
X65616667Y20350238D01*
X66221429Y20350238D01*
X66705238Y20471190D01*
X66947143Y20592143D01*
X67068095Y20713095D01*
X67189048Y20955000D01*
X67189048Y21196905D01*
X67068095Y21438809D01*
X66947143Y21559762D01*
X66705238Y21680714D01*
X66221429Y21801666D01*
X65616667Y21801666D01*
X65132857Y21680714D01*
X64890952Y21559762D01*
X64770000Y21438809D01*
X64649048Y21196905D01*
X86813571Y23978809D02*
X86813571Y23132142D01*
X88144048Y22769285D02*
X88144048Y23978809D01*
X85604048Y23978809D01*
X85604048Y22769285D01*
X88144048Y20350238D02*
X88144048Y21801666D01*
X88144048Y21075952D02*
X85604048Y21075952D01*
X85966905Y21317857D01*
X86208810Y21559762D01*
X86329762Y21801666D01*
X106498571Y23978809D02*
X106498571Y23132142D01*
X107829048Y22769285D02*
X107829048Y23978809D01*
X105289048Y23978809D01*
X105289048Y22769285D01*
X105530952Y21801666D02*
X105410000Y21680714D01*
X105289048Y21438809D01*
X105289048Y20834047D01*
X105410000Y20592143D01*
X105530952Y20471190D01*
X105772857Y20350238D01*
X106014762Y20350238D01*
X106377619Y20471190D01*
X107829048Y21922619D01*
X107829048Y20350238D01*
D11*
X48260000Y25400000D02*
X48260000Y19050000D01*
X43180000Y25400000D02*
X48260000Y25400000D01*
X43180000Y19050000D02*
X43180000Y25400000D01*
X35560000Y25400000D02*
X35560000Y19050000D01*
X30480000Y25400000D02*
X35560000Y25400000D01*
X30480000Y19050000D02*
X30480000Y25400000D01*
D12*
X47201667Y24220714D02*
X47625000Y24220714D01*
X47625000Y23555476D02*
X47625000Y24825476D01*
X47020238Y24825476D01*
X46536429Y24220714D02*
X46113096Y24220714D01*
X45931667Y23555476D02*
X46536429Y23555476D01*
X46536429Y24825476D01*
X45931667Y24825476D01*
X45568810Y24825476D02*
X44843095Y24825476D01*
X45205952Y23555476D02*
X45205952Y24825476D01*
X43815000Y24825476D02*
X44419762Y24825476D01*
X44480238Y24220714D01*
X44419762Y24281190D01*
X44298810Y24341667D01*
X43996429Y24341667D01*
X43875476Y24281190D01*
X43815000Y24220714D01*
X43754524Y24099762D01*
X43754524Y23797381D01*
X43815000Y23676429D01*
X43875476Y23615952D01*
X43996429Y23555476D01*
X44298810Y23555476D01*
X44419762Y23615952D01*
X44480238Y23676429D01*
X34501667Y24220714D02*
X34925000Y24220714D01*
X34925000Y23555476D02*
X34925000Y24825476D01*
X34320238Y24825476D01*
X33836429Y24220714D02*
X33413096Y24220714D01*
X33231667Y23555476D02*
X33836429Y23555476D01*
X33836429Y24825476D01*
X33231667Y24825476D01*
X32868810Y24825476D02*
X32143095Y24825476D01*
X32505952Y23555476D02*
X32505952Y24825476D01*
X31175476Y24825476D02*
X31417381Y24825476D01*
X31538333Y24765000D01*
X31598810Y24704524D01*
X31719762Y24523095D01*
X31780238Y24281190D01*
X31780238Y23797381D01*
X31719762Y23676429D01*
X31659286Y23615952D01*
X31538333Y23555476D01*
X31296429Y23555476D01*
X31175476Y23615952D01*
X31115000Y23676429D01*
X31054524Y23797381D01*
X31054524Y24099762D01*
X31115000Y24220714D01*
X31175476Y24281190D01*
X31296429Y24341667D01*
X31538333Y24341667D01*
X31659286Y24281190D01*
X31719762Y24220714D01*
X31780238Y24099762D01*
D11*
X46990000Y20955000D02*
X46990000Y19685000D01*
X46355000Y20320000D02*
X47625000Y20320000D01*
X43815000Y20320000D02*
X45085000Y20320000D01*
X34290000Y20955000D02*
X34290000Y19685000D01*
X33655000Y20320000D02*
X34925000Y20320000D01*
X31115000Y20320000D02*
X32385000Y20320000D01*
X12700000Y62230000D02*
X22860000Y62230000D01*
X17295143Y21746953D02*
X17295143Y22424286D01*
X16230762Y22714572D02*
X16230762Y21746953D01*
X18262762Y21746953D01*
X18262762Y22714572D01*
X18262762Y23972476D02*
X18262762Y24166000D01*
X18166000Y24359524D01*
X18069238Y24456286D01*
X17875714Y24553048D01*
X17488667Y24649809D01*
X17004857Y24649809D01*
X16617810Y24553048D01*
X16424286Y24456286D01*
X16327524Y24359524D01*
X16230762Y24166000D01*
X16230762Y23972476D01*
X16327524Y23778952D01*
X16424286Y23682190D01*
X16617810Y23585429D01*
X17004857Y23488667D01*
X17488667Y23488667D01*
X17875714Y23585429D01*
X18069238Y23682190D01*
X18166000Y23778952D01*
X18262762Y23972476D01*
X17295143Y28746953D02*
X17295143Y29424286D01*
X16230762Y29714572D02*
X16230762Y28746953D01*
X18262762Y28746953D01*
X18262762Y29714572D01*
X16230762Y31649809D02*
X16230762Y30488667D01*
X16230762Y31069238D02*
X18262762Y31069238D01*
X17972476Y30875714D01*
X17778952Y30682190D01*
X17682190Y30488667D01*
X17295143Y35746953D02*
X17295143Y36424286D01*
X16230762Y36714572D02*
X16230762Y35746953D01*
X18262762Y35746953D01*
X18262762Y36714572D01*
X18069238Y37488667D02*
X18166000Y37585429D01*
X18262762Y37778952D01*
X18262762Y38262762D01*
X18166000Y38456286D01*
X18069238Y38553048D01*
X17875714Y38649809D01*
X17682190Y38649809D01*
X17391905Y38553048D01*
X16230762Y37391905D01*
X16230762Y38649809D01*
D14*
X17007143Y52935715D02*
X17007143Y53435715D01*
X16221429Y53650001D02*
X16221429Y52935715D01*
X17721429Y52935715D01*
X17721429Y53650001D01*
X17721429Y54150001D02*
X16221429Y55150001D01*
X17721429Y55150001D02*
X16221429Y54150001D01*
X17721429Y55507143D02*
X17721429Y56364286D01*
X16221429Y55935715D02*
X17721429Y55935715D01*
X16221429Y56864286D02*
X17721429Y56864286D01*
X17721429Y57435714D01*
X17650000Y57578572D01*
X17578571Y57650000D01*
X17435714Y57721429D01*
X17221429Y57721429D01*
X17078571Y57650000D01*
X17007143Y57578572D01*
X16935714Y57435714D01*
X16935714Y56864286D01*
X17721429Y58221429D02*
X16221429Y58578572D01*
X17292857Y58864286D01*
X16221429Y59150000D01*
X17721429Y59507143D01*
X16221429Y60935715D02*
X16935714Y60435715D01*
X16221429Y60078572D02*
X17721429Y60078572D01*
X17721429Y60650000D01*
X17650000Y60792858D01*
X17578571Y60864286D01*
X17435714Y60935715D01*
X17221429Y60935715D01*
X17078571Y60864286D01*
X17007143Y60792858D01*
X16935714Y60650000D01*
X16935714Y60078572D01*
D11*
X68580000Y47625000D02*
X68580000Y50165000D01*
X66040000Y50165000D02*
X66040000Y47625000D01*
X66040000Y47625000D02*
X81280000Y47625000D01*
X81280000Y47625000D02*
X81280000Y50165000D01*
X81280000Y50165000D02*
X66040000Y50165000D01*
D16*
X43180000Y46990000D02*
X43180000Y41910000D01*
X43180000Y41910000D02*
X101600000Y41910000D01*
X101600000Y41910000D02*
X101600000Y46990000D01*
X101600000Y46990000D02*
X43180000Y46990000D01*
X43180000Y95250000D02*
X43180000Y90170000D01*
X43180000Y90170000D02*
X101600000Y90170000D01*
X101600000Y90170000D02*
X101600000Y95250000D01*
X101600000Y95250000D02*
X43180000Y95250000D01*
D13*
X108585000Y47625000D02*
G75*
G03X108585000Y47625000I-3175000J0D01*
G01*
X108585000Y89535000D02*
G75*
G03X108585000Y89535000I-3175000J0D01*
G01*
X42545000Y92710000D02*
G75*
G03X42545000Y92710000I-3175000J0D01*
G01*
X42545000Y44450000D02*
G75*
G03X42545000Y44450000I-3175000J0D01*
G01*
D12*
X101600000Y41910000D02*
X43180000Y41910000D01*
X101600000Y46990000D02*
X101600000Y41910000D01*
X43180000Y46990000D02*
X101600000Y46990000D01*
X43180000Y41910000D02*
X43180000Y46990000D01*
X45720000Y44450000D02*
X45720000Y41910000D01*
X43180000Y44450000D02*
X45720000Y44450000D01*
X43180000Y92710000D02*
X45720000Y92710000D01*
X45720000Y92710000D02*
X45720000Y90170000D01*
X43180000Y90170000D02*
X43180000Y95250000D01*
X43180000Y95250000D02*
X101600000Y95250000D01*
X101600000Y95250000D02*
X101600000Y90170000D01*
X101600000Y90170000D02*
X43180000Y90170000D01*
D13*
X31750000Y80391000D02*
X31750000Y80010000D01*
X31750000Y80010000D02*
X45085000Y80010000D01*
X45085000Y80010000D02*
X45085000Y62230000D01*
X45085000Y62230000D02*
X24765000Y62230000D01*
X24765000Y62230000D02*
X24765000Y61849000D01*
X98425000Y95885000D02*
X31750000Y95885000D01*
X31750000Y95885000D02*
X31750000Y80391000D01*
X24765000Y61849000D02*
X24765000Y48895000D01*
X24765000Y47625000D02*
X24765000Y48895000D01*
X98425000Y41275000D02*
X31115000Y41275000D01*
X111125000Y53975000D02*
X111125000Y83185000D01*
X98425000Y41275000D02*
G75*
G03X111125000Y53975000I0J12700000D01*
G01*
X111125000Y83185000D02*
G75*
G03X98425000Y95885000I-12700000J0D01*
G01*
X24765000Y47625000D02*
G75*
G03X31115000Y41275000I6350000J0D01*
G01*
D17*
X75377523Y50975381D02*
X75377523Y51991381D01*
X74990476Y51991381D01*
X74893714Y51943000D01*
X74845333Y51894619D01*
X74796952Y51797857D01*
X74796952Y51652714D01*
X74845333Y51555952D01*
X74893714Y51507571D01*
X74990476Y51459190D01*
X75377523Y51459190D01*
X73829333Y50975381D02*
X74409904Y50975381D01*
X74119618Y50975381D02*
X74119618Y51991381D01*
X74216380Y51846238D01*
X74313142Y51749476D01*
X74409904Y51701095D01*
X73200380Y51991381D02*
X73103619Y51991381D01*
X73006857Y51943000D01*
X72958476Y51894619D01*
X72910095Y51797857D01*
X72861714Y51604333D01*
X72861714Y51362429D01*
X72910095Y51168905D01*
X72958476Y51072143D01*
X73006857Y51023762D01*
X73103619Y50975381D01*
X73200380Y50975381D01*
X73297142Y51023762D01*
X73345523Y51072143D01*
X73393904Y51168905D01*
X73442285Y51362429D01*
X73442285Y51604333D01*
X73393904Y51797857D01*
X73345523Y51894619D01*
X73297142Y51943000D01*
X73200380Y51991381D01*
X71894095Y50975381D02*
X72474666Y50975381D01*
X72184380Y50975381D02*
X72184380Y51991381D01*
X72281142Y51846238D01*
X72377904Y51749476D01*
X72474666Y51701095D01*
D11*
X44939857Y47570571D02*
X44939857Y49094571D01*
X44359285Y49094571D01*
X44214143Y49022000D01*
X44141571Y48949429D01*
X44069000Y48804286D01*
X44069000Y48586571D01*
X44141571Y48441429D01*
X44214143Y48368857D01*
X44359285Y48296286D01*
X44939857Y48296286D01*
X43343285Y47570571D02*
X43053000Y47570571D01*
X42907857Y47643143D01*
X42835285Y47715714D01*
X42690143Y47933429D01*
X42617571Y48223714D01*
X42617571Y48804286D01*
X42690143Y48949429D01*
X42762714Y49022000D01*
X42907857Y49094571D01*
X43198143Y49094571D01*
X43343285Y49022000D01*
X43415857Y48949429D01*
X43488428Y48804286D01*
X43488428Y48441429D01*
X43415857Y48296286D01*
X43343285Y48223714D01*
X43198143Y48151143D01*
X42907857Y48151143D01*
X42762714Y48223714D01*
X42690143Y48296286D01*
X42617571Y48441429D01*
X45574857Y87575571D02*
X45574857Y89099571D01*
X44994285Y89099571D01*
X44849143Y89027000D01*
X44776571Y88954429D01*
X44704000Y88809286D01*
X44704000Y88591571D01*
X44776571Y88446429D01*
X44849143Y88373857D01*
X44994285Y88301286D01*
X45574857Y88301286D01*
X43833143Y88446429D02*
X43978285Y88519000D01*
X44050857Y88591571D01*
X44123428Y88736714D01*
X44123428Y88809286D01*
X44050857Y88954429D01*
X43978285Y89027000D01*
X43833143Y89099571D01*
X43542857Y89099571D01*
X43397714Y89027000D01*
X43325143Y88954429D01*
X43252571Y88809286D01*
X43252571Y88736714D01*
X43325143Y88591571D01*
X43397714Y88519000D01*
X43542857Y88446429D01*
X43833143Y88446429D01*
X43978285Y88373857D01*
X44050857Y88301286D01*
X44123428Y88156143D01*
X44123428Y87865857D01*
X44050857Y87720714D01*
X43978285Y87648143D01*
X43833143Y87575571D01*
X43542857Y87575571D01*
X43397714Y87648143D01*
X43325143Y87720714D01*
X43252571Y87865857D01*
X43252571Y88156143D01*
X43325143Y88301286D01*
X43397714Y88373857D01*
X43542857Y88446429D01*
%LPC*%
D18*
X19900000Y87900000D03*
D19*
X19900000Y82900000D03*
D20*
X27940000Y45720000D03*
D21*
X25400000Y45720000D03*
D22*
X29190000Y111330000D03*
X29190000Y114730000D03*
X39390000Y111330000D03*
X39390000Y114730000D03*
D20*
X46990000Y50165000D03*
D23*
X49530000Y50165000D03*
D20*
X52070000Y50165000D03*
D23*
X54610000Y50165000D03*
D20*
X90170000Y53340000D03*
D23*
X92710000Y53340000D03*
D24*
X29210000Y91440000D03*
X29210000Y93980000D03*
D25*
X29210000Y88900000D03*
D24*
X33655000Y34290000D03*
X31115000Y34290000D03*
D25*
X36195000Y34290000D03*
D24*
X33655000Y29210000D03*
X31115000Y29210000D03*
D25*
X36195000Y29210000D03*
D24*
X33655000Y39370000D03*
X31115000Y39370000D03*
D25*
X36195000Y39370000D03*
D26*
X49530000Y114935000D03*
D23*
X52070000Y114935000D03*
X54610000Y114935000D03*
X57150000Y114935000D03*
D26*
X69850000Y114935000D03*
D23*
X72390000Y114935000D03*
X74930000Y114935000D03*
X77470000Y114935000D03*
D26*
X90170000Y114935000D03*
D23*
X92710000Y114935000D03*
X95250000Y114935000D03*
X97790000Y114935000D03*
D26*
X102870000Y22225000D03*
D23*
X100330000Y22225000D03*
X97790000Y22225000D03*
X95250000Y22225000D03*
D27*
X105699560Y103578660D03*
X110200440Y103578660D03*
X105699560Y97078800D03*
X110200440Y97078800D03*
D26*
X82550000Y22225000D03*
D23*
X80010000Y22225000D03*
X77470000Y22225000D03*
X74930000Y22225000D03*
D26*
X62230000Y22225000D03*
D23*
X59690000Y22225000D03*
X57150000Y22225000D03*
X54610000Y22225000D03*
D20*
X46990000Y22225000D03*
D23*
X44450000Y22225000D03*
D20*
X34290000Y22225000D03*
D23*
X31750000Y22225000D03*
D20*
X107950000Y85090000D03*
D23*
X107950000Y82550000D03*
D20*
X107950000Y66040000D03*
D23*
X107950000Y68580000D03*
X107950000Y71120000D03*
X107950000Y73660000D03*
X107950000Y76200000D03*
X107950000Y78740000D03*
D20*
X105410000Y66040000D03*
D23*
X102870000Y66040000D03*
X105410000Y68580000D03*
X102870000Y68580000D03*
X105410000Y71120000D03*
X102870000Y71120000D03*
X105410000Y73660000D03*
X102870000Y73660000D03*
X105410000Y76200000D03*
X102870000Y76200000D03*
X105410000Y78740000D03*
X102870000Y78740000D03*
D27*
X105699560Y113738660D03*
X110200440Y113738660D03*
X105699560Y107238800D03*
X110200440Y107238800D03*
D20*
X67310000Y48895000D03*
D23*
X69850000Y48895000D03*
X72390000Y48895000D03*
X74930000Y48895000D03*
X77470000Y48895000D03*
X80010000Y48895000D03*
D20*
X87630000Y49530000D03*
D23*
X90170000Y49530000D03*
X92710000Y49530000D03*
X95250000Y49530000D03*
X97790000Y49530000D03*
X100330000Y49530000D03*
D20*
X44450000Y43180000D03*
D23*
X44450000Y45720000D03*
X46990000Y43180000D03*
X46990000Y45720000D03*
X49530000Y43180000D03*
X49530000Y45720000D03*
X52070000Y43180000D03*
X52070000Y45720000D03*
X54610000Y43180000D03*
X54610000Y45720000D03*
X57150000Y43180000D03*
X57150000Y45720000D03*
X59690000Y43180000D03*
X59690000Y45720000D03*
X62230000Y43180000D03*
X62230000Y45720000D03*
X64770000Y43180000D03*
X64770000Y45720000D03*
X67310000Y43180000D03*
X67310000Y45720000D03*
X69850000Y43180000D03*
X69850000Y45720000D03*
X72390000Y43180000D03*
X72390000Y45720000D03*
X74930000Y43180000D03*
X74930000Y45720000D03*
X77470000Y43180000D03*
X77470000Y45720000D03*
X80010000Y43180000D03*
X80010000Y45720000D03*
X82550000Y43180000D03*
X82550000Y45720000D03*
X85090000Y43180000D03*
X85090000Y45720000D03*
X87630000Y43180000D03*
X87630000Y45720000D03*
X90170000Y43180000D03*
X90170000Y45720000D03*
X92710000Y43180000D03*
X92710000Y45720000D03*
X95250000Y43180000D03*
X95250000Y45720000D03*
X97790000Y43180000D03*
X97790000Y45720000D03*
X100330000Y43180000D03*
X100330000Y45720000D03*
D20*
X44450000Y91440000D03*
D23*
X44450000Y93980000D03*
X46990000Y91440000D03*
X46990000Y93980000D03*
X49530000Y91440000D03*
X49530000Y93980000D03*
X52070000Y91440000D03*
X52070000Y93980000D03*
X54610000Y91440000D03*
X54610000Y93980000D03*
X57150000Y91440000D03*
X57150000Y93980000D03*
X59690000Y91440000D03*
X59690000Y93980000D03*
X62230000Y91440000D03*
X62230000Y93980000D03*
X64770000Y91440000D03*
X64770000Y93980000D03*
X67310000Y91440000D03*
X67310000Y93980000D03*
X69850000Y91440000D03*
X69850000Y93980000D03*
X72390000Y91440000D03*
X72390000Y93980000D03*
X74930000Y91440000D03*
X74930000Y93980000D03*
X77470000Y91440000D03*
X77470000Y93980000D03*
X80010000Y91440000D03*
X80010000Y93980000D03*
X82550000Y91440000D03*
X82550000Y93980000D03*
X85090000Y91440000D03*
X85090000Y93980000D03*
X87630000Y91440000D03*
X87630000Y93980000D03*
X90170000Y91440000D03*
X90170000Y93980000D03*
X92710000Y91440000D03*
X92710000Y93980000D03*
X95250000Y91440000D03*
X95250000Y93980000D03*
X97790000Y91440000D03*
X97790000Y93980000D03*
X100330000Y91440000D03*
X100330000Y93980000D03*
X67310000Y39370000D03*
X64770000Y39370000D03*
X62230000Y39370000D03*
X59690000Y39370000D03*
X57150000Y39370000D03*
X54610000Y39370000D03*
X52070000Y39370000D03*
X49530000Y39370000D03*
X49530000Y26670000D03*
X52070000Y26670000D03*
X54610000Y26670000D03*
X57150000Y26670000D03*
X59690000Y26670000D03*
X62230000Y26670000D03*
X64770000Y26670000D03*
X67310000Y26670000D03*
X87630000Y39370000D03*
X85090000Y39370000D03*
X82550000Y39370000D03*
X80010000Y39370000D03*
X77470000Y39370000D03*
X74930000Y39370000D03*
X72390000Y39370000D03*
X69850000Y39370000D03*
X69850000Y26670000D03*
X72390000Y26670000D03*
X74930000Y26670000D03*
X77470000Y26670000D03*
X80010000Y26670000D03*
X82550000Y26670000D03*
X85090000Y26670000D03*
X87630000Y26670000D03*
X107950000Y39370000D03*
X105410000Y39370000D03*
X102870000Y39370000D03*
X100330000Y39370000D03*
X97790000Y39370000D03*
X95250000Y39370000D03*
X92710000Y39370000D03*
X90170000Y39370000D03*
X90170000Y26670000D03*
X92710000Y26670000D03*
X95250000Y26670000D03*
X97790000Y26670000D03*
X100330000Y26670000D03*
X102870000Y26670000D03*
X105410000Y26670000D03*
X107950000Y26670000D03*
X85090000Y97790000D03*
X87630000Y97790000D03*
X90170000Y97790000D03*
X92710000Y97790000D03*
X95250000Y97790000D03*
X97790000Y97790000D03*
X100330000Y97790000D03*
X102870000Y97790000D03*
X102870000Y110490000D03*
X100330000Y110490000D03*
X97790000Y110490000D03*
X95250000Y110490000D03*
X92710000Y110490000D03*
X90170000Y110490000D03*
X87630000Y110490000D03*
X85090000Y110490000D03*
X64770000Y97790000D03*
X67310000Y97790000D03*
X69850000Y97790000D03*
X72390000Y97790000D03*
X74930000Y97790000D03*
X77470000Y97790000D03*
X80010000Y97790000D03*
X82550000Y97790000D03*
X82550000Y110490000D03*
X80010000Y110490000D03*
X77470000Y110490000D03*
X74930000Y110490000D03*
X72390000Y110490000D03*
X69850000Y110490000D03*
X67310000Y110490000D03*
X64770000Y110490000D03*
X44450000Y97790000D03*
X46990000Y97790000D03*
X49530000Y97790000D03*
X52070000Y97790000D03*
X54610000Y97790000D03*
X57150000Y97790000D03*
X59690000Y97790000D03*
X62230000Y97790000D03*
X62230000Y110490000D03*
X59690000Y110490000D03*
X57150000Y110490000D03*
X54610000Y110490000D03*
X52070000Y110490000D03*
X49530000Y110490000D03*
X46990000Y110490000D03*
X44450000Y110490000D03*
D18*
X19900000Y59400000D03*
D19*
X19900000Y54400000D03*
D18*
X19900000Y112900000D03*
D19*
X19900000Y107900000D03*
D18*
X19900000Y102900000D03*
D19*
X19900000Y97900000D03*
D28*
X19900000Y38900000D03*
D29*
X19900000Y35400000D03*
D28*
X19900000Y24900000D03*
D29*
X19900000Y21400000D03*
D28*
X19900000Y31900000D03*
D29*
X19900000Y28400000D03*
D28*
X19900000Y45900000D03*
D29*
X19900000Y42400000D03*
D28*
X19900000Y49400000D03*
D30*
X105410000Y47625000D03*
X39370000Y44450000D03*
X39370000Y92710000D03*
X105410000Y89535000D03*
D20*
X97790000Y83820000D03*
D23*
X97790000Y81280000D03*
X95250000Y83820000D03*
X95250000Y81280000D03*
X92710000Y83820000D03*
X92710000Y81280000D03*
X90170000Y83820000D03*
X90170000Y81280000D03*
D20*
X77470000Y83820000D03*
D23*
X77470000Y81280000D03*
X74930000Y83820000D03*
X74930000Y81280000D03*
X72390000Y83820000D03*
X72390000Y81280000D03*
X69850000Y83820000D03*
X69850000Y81280000D03*
D20*
X105410000Y53340000D03*
D23*
X102870000Y53340000D03*
X105410000Y55880000D03*
X102870000Y55880000D03*
X105410000Y58420000D03*
X102870000Y58420000D03*
X105410000Y60960000D03*
X102870000Y60960000D03*
D20*
X78740000Y30480000D03*
D23*
X76200000Y30480000D03*
X78740000Y33020000D03*
X76200000Y33020000D03*
X78740000Y35560000D03*
X76200000Y35560000D03*
D20*
X99060000Y30480000D03*
D23*
X96520000Y30480000D03*
X99060000Y33020000D03*
X96520000Y33020000D03*
X99060000Y35560000D03*
X96520000Y35560000D03*
D20*
X58420000Y30480000D03*
D23*
X55880000Y30480000D03*
X58420000Y33020000D03*
X55880000Y33020000D03*
X58420000Y35560000D03*
X55880000Y35560000D03*
D20*
X93980000Y106680000D03*
D23*
X96520000Y106680000D03*
X93980000Y104140000D03*
X96520000Y104140000D03*
X93980000Y101600000D03*
X96520000Y101600000D03*
D20*
X73660000Y106680000D03*
D23*
X76200000Y106680000D03*
X73660000Y104140000D03*
X76200000Y104140000D03*
X73660000Y101600000D03*
X76200000Y101600000D03*
D20*
X53340000Y106680000D03*
D23*
X55880000Y106680000D03*
X53340000Y104140000D03*
X55880000Y104140000D03*
X53340000Y101600000D03*
X55880000Y101600000D03*
D20*
X54610000Y83820000D03*
D23*
X54610000Y81280000D03*
X52070000Y83820000D03*
X52070000Y81280000D03*
X49530000Y83820000D03*
X49530000Y81280000D03*
D20*
X85090000Y54610000D03*
D23*
X82550000Y54610000D03*
X85090000Y57150000D03*
X82550000Y57150000D03*
D22*
X29190000Y56720000D03*
X29190000Y60120000D03*
X39390000Y56720000D03*
X39390000Y60120000D03*
X29190000Y101170000D03*
X29190000Y104570000D03*
X39390000Y101170000D03*
X39390000Y104570000D03*
M02*
