M48
;DRILL file {KiCad (after 2015-may-25 BZR unknown)-product} date 10/06/2015 1:45:16 PM
;FORMAT={2:4/ absolute / inch / suppress leading zeros}
FMAT,2
INCH,TZ
T1C0.012
T2C0.040
T3C0.047
T4C0.051
T5C0.063
T6C0.125
%
G90
G05
M72
T1
X26500Y-27500
X29000Y-40000
X31000Y-39500
X31500Y-43750
X31750Y-44000
X32000Y-45250
X33000Y-38750
X33000Y-39250
X33350Y-37850
X33500Y-39250
X33750Y-48250
X34000Y-44000
X34000Y-45250
X34160Y-34628
X34250Y-48250
X34500Y-39250
X35250Y-38800
X35298Y-33250
X35447Y-32250
X35500Y-34250
X36000Y-30250
X36000Y-37500
X37250Y-28000
X37750Y-27750
X37750Y-36250
X38000Y-38250
X38250Y-32250
X38500Y-28750
X38513Y-34505
X39012Y-30250
X39020Y-32902
X39650Y-31299
X40250Y-41000
X40750Y-41000
X41500Y-27500
X41897Y-32125
X42018Y-37392
X42172Y-30745
X42236Y-30061
X42250Y-36250
X42500Y-38750
X42668Y-31006
X42719Y-37125
X42742Y-30353
X43250Y-35750
X43945Y-35797
X44000Y-29000
X44000Y-30250
X44000Y-30750
X44699Y-33141
X45000Y-24750
X45000Y-36750
X45000Y-39250
X45500Y-34000
X45988Y-29743
X46500Y-39500
X46500Y-40000
X46606Y-29750
X46624Y-30884
X46640Y-30250
X48079Y-26277
X48250Y-34500
X48500Y-26500
X49400Y-36100
X49400Y-36900
X51000Y-28750
X52000Y-36900
X52800Y-36900
X52800Y-38300
X52800Y-39700
X53400Y-36900
X53400Y-38300
X53400Y-39700
X54600Y-36900
X54600Y-38300
T2
X25000Y-42000
X26000Y-42000
X26500Y-23000
X26500Y-24000
X26500Y-25000
X27250Y-44500
X27250Y-46500
X27250Y-48500
X27500Y-51250
X28250Y-44500
X28250Y-46500
X28250Y-48500
X28500Y-51250
X29250Y-44500
X29250Y-46500
X29250Y-48500
X32500Y-16500
X32500Y-21500
X32500Y-23000
X32500Y-24000
X32500Y-42000
X32500Y-43000
X32500Y-51250
X33500Y-16500
X33500Y-21500
X33500Y-23000
X33500Y-24000
X33500Y-40250
X33500Y-42000
X33500Y-43000
X33500Y-51250
X34500Y-14750
X34500Y-16500
X34500Y-21500
X34500Y-23000
X34500Y-24000
X34500Y-27000
X34500Y-28000
X34500Y-40250
X34500Y-42000
X34500Y-43000
X34500Y-44500
X34500Y-49500
X35500Y-14750
X35500Y-16500
X35500Y-21500
X35500Y-23000
X35500Y-24000
X35500Y-27000
X35500Y-28000
X35500Y-40250
X35500Y-42000
X35500Y-43000
X35500Y-44500
X35500Y-49500
X36000Y-18000
X36000Y-19000
X36000Y-20000
X36500Y-14750
X36500Y-16500
X36500Y-21500
X36500Y-23000
X36500Y-24000
X36500Y-27000
X36500Y-28000
X36500Y-40250
X36500Y-42000
X36500Y-43000
X36500Y-44500
X36500Y-49500
X36500Y-51250
X37000Y-18000
X37000Y-19000
X37000Y-20000
X37000Y-46000
X37000Y-47000
X37000Y-48000
X37500Y-14750
X37500Y-16500
X37500Y-21500
X37500Y-23000
X37500Y-24000
X37500Y-42000
X37500Y-43000
X37500Y-44500
X37500Y-49500
X37500Y-51250
X38000Y-46000
X38000Y-47000
X38000Y-48000
X38500Y-16500
X38500Y-21500
X38500Y-23000
X38500Y-24000
X38500Y-42000
X38500Y-43000
X38500Y-44500
X38500Y-49500
X38500Y-51250
X39500Y-16500
X39500Y-21500
X39500Y-23000
X39500Y-24000
X39500Y-42000
X39500Y-43000
X39500Y-44500
X39500Y-49500
X39500Y-51250
X40500Y-16500
X40500Y-21500
X40500Y-23000
X40500Y-24000
X40500Y-42000
X40500Y-43000
X40500Y-44500
X40500Y-49500
X41500Y-16500
X41500Y-21500
X41500Y-23000
X41500Y-24000
X41500Y-40750
X41500Y-42000
X41500Y-43000
X41500Y-44500
X41500Y-49500
X42500Y-14750
X42500Y-16500
X42500Y-21500
X42500Y-23000
X42500Y-24000
X42500Y-27000
X42500Y-28000
X42500Y-40750
X42500Y-42000
X42500Y-43000
X42500Y-44500
X42500Y-49500
X43500Y-14750
X43500Y-16500
X43500Y-21500
X43500Y-23000
X43500Y-24000
X43500Y-27000
X43500Y-28000
X43500Y-40750
X43500Y-42000
X43500Y-43000
X43500Y-44500
X43500Y-49500
X44000Y-18000
X44000Y-19000
X44000Y-20000
X44500Y-14750
X44500Y-16500
X44500Y-21500
X44500Y-23000
X44500Y-24000
X44500Y-27000
X44500Y-28000
X44500Y-40750
X44500Y-42000
X44500Y-43000
X44500Y-44500
X44500Y-49500
X44500Y-51250
X45000Y-18000
X45000Y-19000
X45000Y-20000
X45000Y-46000
X45000Y-47000
X45000Y-48000
X45500Y-14750
X45500Y-16500
X45500Y-21500
X45500Y-23000
X45500Y-24000
X45500Y-27000
X45500Y-28000
X45500Y-40750
X45500Y-42000
X45500Y-43000
X45500Y-44500
X45500Y-49500
X45500Y-51250
X46000Y-46000
X46000Y-47000
X46000Y-48000
X46500Y-16500
X46500Y-21500
X46500Y-23000
X46500Y-24000
X46500Y-40750
X46500Y-42000
X46500Y-43000
X46500Y-44500
X46500Y-49500
X46500Y-51250
X47500Y-16500
X47500Y-21500
X47500Y-23000
X47500Y-24000
X47500Y-37500
X47500Y-38500
X47500Y-42000
X47500Y-43000
X47500Y-44500
X47500Y-49500
X47500Y-51250
X48500Y-16500
X48500Y-21500
X48500Y-23000
X48500Y-24000
X48500Y-37500
X48500Y-38500
X48500Y-42000
X48500Y-43000
X48500Y-44500
X48500Y-49500
X49500Y-16500
X49500Y-21500
X49500Y-23000
X49500Y-24000
X49500Y-40500
X49500Y-42000
X49500Y-43000
X49500Y-44500
X49500Y-49500
X50500Y-14750
X50500Y-16500
X50500Y-21500
X50500Y-23000
X50500Y-24000
X50500Y-27000
X50500Y-28000
X50500Y-39000
X50500Y-40500
X50500Y-42000
X50500Y-43000
X50500Y-44500
X50500Y-49500
X51500Y-14750
X51500Y-16500
X51500Y-21500
X51500Y-23000
X51500Y-24000
X51500Y-27000
X51500Y-28000
X51500Y-39000
X51500Y-40500
X51500Y-42000
X51500Y-43000
X51500Y-44500
X51500Y-49500
X52000Y-18000
X52000Y-19000
X52000Y-20000
X52500Y-14750
X52500Y-16500
X52500Y-21500
X52500Y-23000
X52500Y-24000
X52500Y-27000
X52500Y-28000
X52500Y-40500
X52500Y-42000
X52500Y-43000
X52500Y-44500
X52500Y-49500
X52500Y-51250
X53000Y-18000
X53000Y-19000
X53000Y-20000
X53000Y-46000
X53000Y-47000
X53000Y-48000
X53500Y-14750
X53500Y-16500
X53500Y-21500
X53500Y-23000
X53500Y-24000
X53500Y-27000
X53500Y-28000
X53500Y-40500
X53500Y-42000
X53500Y-43000
X53500Y-44500
X53500Y-49500
X53500Y-51250
X54000Y-46000
X54000Y-47000
X54000Y-48000
X54500Y-16500
X54500Y-21500
X54500Y-23000
X54500Y-24000
X54500Y-40500
X54500Y-42000
X54500Y-43000
X54500Y-44500
X54500Y-49500
X54500Y-51250
X55500Y-16500
X55500Y-21500
X55500Y-29000
X55500Y-30000
X55500Y-31000
X55500Y-32000
X55500Y-33000
X55500Y-34000
X55500Y-36000
X55500Y-37000
X55500Y-38000
X55500Y-39000
X55500Y-44500
X55500Y-49500
X55500Y-51250
X56500Y-29000
X56500Y-30000
X56500Y-31000
X56500Y-32000
X56500Y-33000
X56500Y-34000
X56500Y-36000
X56500Y-37000
X56500Y-38000
X56500Y-39000
X56500Y-44500
X56500Y-49500
X56614Y-15221
X56614Y-17780
X56614Y-19221
X56614Y-21780
X57500Y-26500
X57500Y-27500
X57500Y-29000
X57500Y-30000
X57500Y-31000
X57500Y-32000
X57500Y-33000
X57500Y-34000
X57500Y-44500
X57500Y-49500
X58386Y-15221
X58386Y-17780
X58386Y-19221
X58386Y-21780
T3
X22835Y-40551
X22835Y-41929
X22835Y-43307
X22835Y-44685
X22835Y-46063
X22835Y-47441
X22835Y-48819
X22835Y-50197
X22835Y-51575
T4
X22835Y-15551
X22835Y-17520
X22835Y-19488
X22835Y-21457
X22835Y-25394
X22835Y-27362
X22835Y-36614
X22835Y-38583
T5
X26492Y-14831
X26492Y-16169
X26492Y-18831
X26492Y-20169
X26492Y-36331
X26492Y-37669
X30508Y-14831
X30508Y-16169
X30508Y-18831
X30508Y-20169
X30508Y-36331
X30508Y-37669
T6
X30500Y-23500
X30500Y-42500
X56500Y-24750
X56500Y-41250
T0
M30
