G04 #@! TF.FileFunction,Soldermask,Bot*
%FSLAX46Y46*%
G04 Gerber Fmt 4.6, Leading zero omitted, Abs format (unit mm)*
G04 Created by KiCad (PCBNEW (after 2015-may-25 BZR unknown)-product) date 10/06/2015 1:45:06 PM*
%MOMM*%
G01*
G04 APERTURE LIST*
%ADD10C,0.150000*%
%ADD11C,3.508000*%
%ADD12R,3.508000X3.508000*%
%ADD13R,2.159000X2.159000*%
%ADD14O,2.159000X2.159000*%
%ADD15C,3.158000*%
%ADD16C,2.159000*%
%ADD17C,2.286000*%
%ADD18R,2.286000X2.286000*%
%ADD19R,2.159000X2.032000*%
%ADD20R,1.905000X3.007360*%
%ADD21C,2.908000*%
%ADD22R,2.908000X2.908000*%
%ADD23C,6.008000*%
G04 APERTURE END LIST*
D10*
D11*
X19900000Y87900000D03*
D12*
X19900000Y82900000D03*
D13*
X27940000Y45720000D03*
D14*
X25400000Y45720000D03*
D15*
X29190000Y111330000D03*
X29190000Y114730000D03*
X39390000Y111330000D03*
X39390000Y114730000D03*
D13*
X46990000Y50165000D03*
D16*
X49530000Y50165000D03*
D13*
X52070000Y50165000D03*
D16*
X54610000Y50165000D03*
D13*
X90170000Y53340000D03*
D16*
X92710000Y53340000D03*
D17*
X29210000Y91440000D03*
X29210000Y93980000D03*
D18*
X29210000Y88900000D03*
D17*
X33655000Y34290000D03*
X31115000Y34290000D03*
D18*
X36195000Y34290000D03*
D17*
X33655000Y29210000D03*
X31115000Y29210000D03*
D18*
X36195000Y29210000D03*
D17*
X33655000Y39370000D03*
X31115000Y39370000D03*
D18*
X36195000Y39370000D03*
D19*
X49530000Y114935000D03*
D16*
X52070000Y114935000D03*
X54610000Y114935000D03*
X57150000Y114935000D03*
D19*
X69850000Y114935000D03*
D16*
X72390000Y114935000D03*
X74930000Y114935000D03*
X77470000Y114935000D03*
D19*
X90170000Y114935000D03*
D16*
X92710000Y114935000D03*
X95250000Y114935000D03*
X97790000Y114935000D03*
D19*
X102870000Y22225000D03*
D16*
X100330000Y22225000D03*
X97790000Y22225000D03*
X95250000Y22225000D03*
D20*
X105699560Y103578660D03*
X110200440Y103578660D03*
X105699560Y97078800D03*
X110200440Y97078800D03*
D19*
X82550000Y22225000D03*
D16*
X80010000Y22225000D03*
X77470000Y22225000D03*
X74930000Y22225000D03*
D19*
X62230000Y22225000D03*
D16*
X59690000Y22225000D03*
X57150000Y22225000D03*
X54610000Y22225000D03*
D13*
X46990000Y22225000D03*
D16*
X44450000Y22225000D03*
D13*
X34290000Y22225000D03*
D16*
X31750000Y22225000D03*
D13*
X107950000Y85090000D03*
D16*
X107950000Y82550000D03*
D13*
X107950000Y66040000D03*
D16*
X107950000Y68580000D03*
X107950000Y71120000D03*
X107950000Y73660000D03*
X107950000Y76200000D03*
X107950000Y78740000D03*
D13*
X105410000Y66040000D03*
D16*
X102870000Y66040000D03*
X105410000Y68580000D03*
X102870000Y68580000D03*
X105410000Y71120000D03*
X102870000Y71120000D03*
X105410000Y73660000D03*
X102870000Y73660000D03*
X105410000Y76200000D03*
X102870000Y76200000D03*
X105410000Y78740000D03*
X102870000Y78740000D03*
D20*
X105699560Y113738660D03*
X110200440Y113738660D03*
X105699560Y107238800D03*
X110200440Y107238800D03*
D13*
X67310000Y48895000D03*
D16*
X69850000Y48895000D03*
X72390000Y48895000D03*
X74930000Y48895000D03*
X77470000Y48895000D03*
X80010000Y48895000D03*
D13*
X87630000Y49530000D03*
D16*
X90170000Y49530000D03*
X92710000Y49530000D03*
X95250000Y49530000D03*
X97790000Y49530000D03*
X100330000Y49530000D03*
D13*
X44450000Y43180000D03*
D16*
X44450000Y45720000D03*
X46990000Y43180000D03*
X46990000Y45720000D03*
X49530000Y43180000D03*
X49530000Y45720000D03*
X52070000Y43180000D03*
X52070000Y45720000D03*
X54610000Y43180000D03*
X54610000Y45720000D03*
X57150000Y43180000D03*
X57150000Y45720000D03*
X59690000Y43180000D03*
X59690000Y45720000D03*
X62230000Y43180000D03*
X62230000Y45720000D03*
X64770000Y43180000D03*
X64770000Y45720000D03*
X67310000Y43180000D03*
X67310000Y45720000D03*
X69850000Y43180000D03*
X69850000Y45720000D03*
X72390000Y43180000D03*
X72390000Y45720000D03*
X74930000Y43180000D03*
X74930000Y45720000D03*
X77470000Y43180000D03*
X77470000Y45720000D03*
X80010000Y43180000D03*
X80010000Y45720000D03*
X82550000Y43180000D03*
X82550000Y45720000D03*
X85090000Y43180000D03*
X85090000Y45720000D03*
X87630000Y43180000D03*
X87630000Y45720000D03*
X90170000Y43180000D03*
X90170000Y45720000D03*
X92710000Y43180000D03*
X92710000Y45720000D03*
X95250000Y43180000D03*
X95250000Y45720000D03*
X97790000Y43180000D03*
X97790000Y45720000D03*
X100330000Y43180000D03*
X100330000Y45720000D03*
D13*
X44450000Y91440000D03*
D16*
X44450000Y93980000D03*
X46990000Y91440000D03*
X46990000Y93980000D03*
X49530000Y91440000D03*
X49530000Y93980000D03*
X52070000Y91440000D03*
X52070000Y93980000D03*
X54610000Y91440000D03*
X54610000Y93980000D03*
X57150000Y91440000D03*
X57150000Y93980000D03*
X59690000Y91440000D03*
X59690000Y93980000D03*
X62230000Y91440000D03*
X62230000Y93980000D03*
X64770000Y91440000D03*
X64770000Y93980000D03*
X67310000Y91440000D03*
X67310000Y93980000D03*
X69850000Y91440000D03*
X69850000Y93980000D03*
X72390000Y91440000D03*
X72390000Y93980000D03*
X74930000Y91440000D03*
X74930000Y93980000D03*
X77470000Y91440000D03*
X77470000Y93980000D03*
X80010000Y91440000D03*
X80010000Y93980000D03*
X82550000Y91440000D03*
X82550000Y93980000D03*
X85090000Y91440000D03*
X85090000Y93980000D03*
X87630000Y91440000D03*
X87630000Y93980000D03*
X90170000Y91440000D03*
X90170000Y93980000D03*
X92710000Y91440000D03*
X92710000Y93980000D03*
X95250000Y91440000D03*
X95250000Y93980000D03*
X97790000Y91440000D03*
X97790000Y93980000D03*
X100330000Y91440000D03*
X100330000Y93980000D03*
X67310000Y39370000D03*
X64770000Y39370000D03*
X62230000Y39370000D03*
X59690000Y39370000D03*
X57150000Y39370000D03*
X54610000Y39370000D03*
X52070000Y39370000D03*
X49530000Y39370000D03*
X49530000Y26670000D03*
X52070000Y26670000D03*
X54610000Y26670000D03*
X57150000Y26670000D03*
X59690000Y26670000D03*
X62230000Y26670000D03*
X64770000Y26670000D03*
X67310000Y26670000D03*
X87630000Y39370000D03*
X85090000Y39370000D03*
X82550000Y39370000D03*
X80010000Y39370000D03*
X77470000Y39370000D03*
X74930000Y39370000D03*
X72390000Y39370000D03*
X69850000Y39370000D03*
X69850000Y26670000D03*
X72390000Y26670000D03*
X74930000Y26670000D03*
X77470000Y26670000D03*
X80010000Y26670000D03*
X82550000Y26670000D03*
X85090000Y26670000D03*
X87630000Y26670000D03*
X107950000Y39370000D03*
X105410000Y39370000D03*
X102870000Y39370000D03*
X100330000Y39370000D03*
X97790000Y39370000D03*
X95250000Y39370000D03*
X92710000Y39370000D03*
X90170000Y39370000D03*
X90170000Y26670000D03*
X92710000Y26670000D03*
X95250000Y26670000D03*
X97790000Y26670000D03*
X100330000Y26670000D03*
X102870000Y26670000D03*
X105410000Y26670000D03*
X107950000Y26670000D03*
X85090000Y97790000D03*
X87630000Y97790000D03*
X90170000Y97790000D03*
X92710000Y97790000D03*
X95250000Y97790000D03*
X97790000Y97790000D03*
X100330000Y97790000D03*
X102870000Y97790000D03*
X102870000Y110490000D03*
X100330000Y110490000D03*
X97790000Y110490000D03*
X95250000Y110490000D03*
X92710000Y110490000D03*
X90170000Y110490000D03*
X87630000Y110490000D03*
X85090000Y110490000D03*
X64770000Y97790000D03*
X67310000Y97790000D03*
X69850000Y97790000D03*
X72390000Y97790000D03*
X74930000Y97790000D03*
X77470000Y97790000D03*
X80010000Y97790000D03*
X82550000Y97790000D03*
X82550000Y110490000D03*
X80010000Y110490000D03*
X77470000Y110490000D03*
X74930000Y110490000D03*
X72390000Y110490000D03*
X69850000Y110490000D03*
X67310000Y110490000D03*
X64770000Y110490000D03*
X44450000Y97790000D03*
X46990000Y97790000D03*
X49530000Y97790000D03*
X52070000Y97790000D03*
X54610000Y97790000D03*
X57150000Y97790000D03*
X59690000Y97790000D03*
X62230000Y97790000D03*
X62230000Y110490000D03*
X59690000Y110490000D03*
X57150000Y110490000D03*
X54610000Y110490000D03*
X52070000Y110490000D03*
X49530000Y110490000D03*
X46990000Y110490000D03*
X44450000Y110490000D03*
D11*
X19900000Y59400000D03*
D12*
X19900000Y54400000D03*
D11*
X19900000Y112900000D03*
D12*
X19900000Y107900000D03*
D11*
X19900000Y102900000D03*
D12*
X19900000Y97900000D03*
D21*
X19900000Y38900000D03*
D22*
X19900000Y35400000D03*
D21*
X19900000Y24900000D03*
D22*
X19900000Y21400000D03*
D21*
X19900000Y31900000D03*
D22*
X19900000Y28400000D03*
D21*
X19900000Y45900000D03*
D22*
X19900000Y42400000D03*
D21*
X19900000Y49400000D03*
D23*
X105410000Y47625000D03*
X39370000Y44450000D03*
X39370000Y92710000D03*
X105410000Y89535000D03*
D13*
X97790000Y83820000D03*
D16*
X97790000Y81280000D03*
X95250000Y83820000D03*
X95250000Y81280000D03*
X92710000Y83820000D03*
X92710000Y81280000D03*
X90170000Y83820000D03*
X90170000Y81280000D03*
D13*
X77470000Y83820000D03*
D16*
X77470000Y81280000D03*
X74930000Y83820000D03*
X74930000Y81280000D03*
X72390000Y83820000D03*
X72390000Y81280000D03*
X69850000Y83820000D03*
X69850000Y81280000D03*
D13*
X105410000Y53340000D03*
D16*
X102870000Y53340000D03*
X105410000Y55880000D03*
X102870000Y55880000D03*
X105410000Y58420000D03*
X102870000Y58420000D03*
X105410000Y60960000D03*
X102870000Y60960000D03*
D13*
X78740000Y30480000D03*
D16*
X76200000Y30480000D03*
X78740000Y33020000D03*
X76200000Y33020000D03*
X78740000Y35560000D03*
X76200000Y35560000D03*
D13*
X99060000Y30480000D03*
D16*
X96520000Y30480000D03*
X99060000Y33020000D03*
X96520000Y33020000D03*
X99060000Y35560000D03*
X96520000Y35560000D03*
D13*
X58420000Y30480000D03*
D16*
X55880000Y30480000D03*
X58420000Y33020000D03*
X55880000Y33020000D03*
X58420000Y35560000D03*
X55880000Y35560000D03*
D13*
X93980000Y106680000D03*
D16*
X96520000Y106680000D03*
X93980000Y104140000D03*
X96520000Y104140000D03*
X93980000Y101600000D03*
X96520000Y101600000D03*
D13*
X73660000Y106680000D03*
D16*
X76200000Y106680000D03*
X73660000Y104140000D03*
X76200000Y104140000D03*
X73660000Y101600000D03*
X76200000Y101600000D03*
D13*
X53340000Y106680000D03*
D16*
X55880000Y106680000D03*
X53340000Y104140000D03*
X55880000Y104140000D03*
X53340000Y101600000D03*
X55880000Y101600000D03*
D13*
X54610000Y83820000D03*
D16*
X54610000Y81280000D03*
X52070000Y83820000D03*
X52070000Y81280000D03*
X49530000Y83820000D03*
X49530000Y81280000D03*
D13*
X85090000Y54610000D03*
D16*
X82550000Y54610000D03*
X85090000Y57150000D03*
X82550000Y57150000D03*
D15*
X29190000Y56720000D03*
X29190000Y60120000D03*
X39390000Y56720000D03*
X39390000Y60120000D03*
X29190000Y101170000D03*
X29190000Y104570000D03*
X39390000Y101170000D03*
X39390000Y104570000D03*
M02*
