G04 #@! TF.FileFunction,Paste,Top*
%FSLAX46Y46*%
G04 Gerber Fmt 4.6, Leading zero omitted, Abs format (unit mm)*
G04 Created by KiCad (PCBNEW (after 2015-may-25 BZR unknown)-product) date 10/06/2015 1:45:06 PM*
%MOMM*%
G01*
G04 APERTURE LIST*
%ADD10C,0.150000*%
%ADD11R,3.599180X1.600200*%
%ADD12R,0.914400X0.914400*%
%ADD13R,0.930000X0.790000*%
%ADD14R,0.790000X0.930000*%
%ADD15R,0.800000X0.800000*%
%ADD16R,2.000000X0.600000*%
%ADD17R,1.600000X0.600000*%
%ADD18R,1.550000X2.200000*%
%ADD19R,2.200000X1.550000*%
G04 APERTURE END LIST*
D10*
D11*
X67520820Y31750000D03*
X62019180Y31750000D03*
X27094180Y50800000D03*
X32595820Y50800000D03*
X87840820Y31750000D03*
X82339180Y31750000D03*
X84879180Y105410000D03*
X90380820Y105410000D03*
X64559180Y105410000D03*
X70060820Y105410000D03*
X44239180Y105410000D03*
X49740820Y105410000D03*
X108160820Y31750000D03*
X102659180Y31750000D03*
D12*
X49403000Y32004000D03*
X51181000Y32004000D03*
X50292000Y29972000D03*
X45339000Y32004000D03*
X47117000Y32004000D03*
X46228000Y29972000D03*
X67056000Y60579000D03*
X67056000Y58801000D03*
X65024000Y59690000D03*
X63246000Y51689000D03*
X63246000Y49911000D03*
X61214000Y50800000D03*
X67056000Y55499000D03*
X67056000Y53721000D03*
X65024000Y54610000D03*
X84709000Y86741000D03*
X84709000Y88519000D03*
X86741000Y87630000D03*
X80264000Y86741000D03*
X80264000Y88519000D03*
X82296000Y87630000D03*
D13*
X34290000Y85540000D03*
X34290000Y87180000D03*
X64770000Y86810000D03*
X64770000Y88450000D03*
D14*
X103320000Y42545000D03*
X104960000Y42545000D03*
D13*
X69850000Y88450000D03*
X69850000Y86810000D03*
D14*
X41460000Y30988000D03*
X39820000Y30988000D03*
X41460000Y35560000D03*
X39820000Y35560000D03*
X41460000Y40132000D03*
X39820000Y40132000D03*
X45408000Y36576000D03*
X47048000Y36576000D03*
X49472000Y36576000D03*
X51112000Y36576000D03*
X44265000Y57150000D03*
X45905000Y57150000D03*
X97975000Y66040000D03*
X96335000Y66040000D03*
X97975000Y68580000D03*
X96335000Y68580000D03*
X97975000Y71120000D03*
X96335000Y71120000D03*
X97975000Y73660000D03*
X96335000Y73660000D03*
X97975000Y76200000D03*
X96335000Y76200000D03*
X97975000Y78740000D03*
X96335000Y78740000D03*
D13*
X96520000Y87815000D03*
X96520000Y86175000D03*
X93980000Y87815000D03*
X93980000Y86175000D03*
X91440000Y87815000D03*
X91440000Y86175000D03*
X88900000Y87815000D03*
X88900000Y86175000D03*
D14*
X80460000Y83185000D03*
X82100000Y83185000D03*
X47440000Y57150000D03*
X49080000Y57150000D03*
X47440000Y60960000D03*
X49080000Y60960000D03*
X51112000Y35052000D03*
X49472000Y35052000D03*
X47048000Y35052000D03*
X45408000Y35052000D03*
X39820000Y34036000D03*
X41460000Y34036000D03*
X39820000Y38608000D03*
X41460000Y38608000D03*
X39820000Y29464000D03*
X41460000Y29464000D03*
D13*
X32385000Y87180000D03*
X32385000Y85540000D03*
X29210000Y20770000D03*
X29210000Y22410000D03*
X51435000Y23045000D03*
X51435000Y21405000D03*
D14*
X47440000Y55245000D03*
X49080000Y55245000D03*
D13*
X99060000Y61272000D03*
X99060000Y59632000D03*
X92456000Y59632000D03*
X92456000Y61272000D03*
X99060000Y57716000D03*
X99060000Y56076000D03*
X99060000Y54160000D03*
X99060000Y52520000D03*
X100584000Y54160000D03*
X100584000Y52520000D03*
X27305000Y34740000D03*
X27305000Y36380000D03*
D14*
X44265000Y55245000D03*
X45905000Y55245000D03*
D13*
X27940000Y83000000D03*
X27940000Y84640000D03*
X27305000Y27755000D03*
X27305000Y29395000D03*
X27305000Y20770000D03*
X27305000Y22410000D03*
X93980000Y59632000D03*
X93980000Y61272000D03*
X100584000Y59632000D03*
X100584000Y61272000D03*
X100584000Y57716000D03*
X100584000Y56076000D03*
D14*
X47440000Y59055000D03*
X49080000Y59055000D03*
X88450000Y100965000D03*
X86810000Y100965000D03*
X47810000Y100965000D03*
X46170000Y100965000D03*
X68130000Y100965000D03*
X66490000Y100965000D03*
X104590000Y36195000D03*
X106230000Y36195000D03*
X84270000Y36195000D03*
X85910000Y36195000D03*
X63950000Y36195000D03*
X65590000Y36195000D03*
X69665000Y57150000D03*
X71305000Y57150000D03*
X69665000Y59055000D03*
X71305000Y59055000D03*
D15*
X52185000Y57150000D03*
X50685000Y57150000D03*
X52185000Y60960000D03*
X50685000Y60960000D03*
X52185000Y55245000D03*
X50685000Y55245000D03*
X29210000Y25515000D03*
X29210000Y24015000D03*
X49530000Y22975000D03*
X49530000Y21475000D03*
X26035000Y84570000D03*
X26035000Y83070000D03*
X27305000Y25515000D03*
X27305000Y24015000D03*
X27305000Y39485000D03*
X27305000Y37985000D03*
X27305000Y32500000D03*
X27305000Y31000000D03*
X52185000Y59055000D03*
X50685000Y59055000D03*
D13*
X79375000Y63950000D03*
X79375000Y65590000D03*
X97536000Y54160000D03*
X97536000Y52520000D03*
X97536000Y57716000D03*
X97536000Y56076000D03*
X90932000Y59632000D03*
X90932000Y61272000D03*
X97536000Y61272000D03*
X97536000Y59632000D03*
D14*
X65590000Y77470000D03*
X63950000Y77470000D03*
X71305000Y55245000D03*
X69665000Y55245000D03*
D13*
X89408000Y59632000D03*
X89408000Y61272000D03*
X96012000Y57716000D03*
X96012000Y56076000D03*
X96012000Y61272000D03*
X96012000Y59632000D03*
X96012000Y54160000D03*
X96012000Y52520000D03*
D16*
X55040000Y75565000D03*
X55040000Y74295000D03*
X55040000Y73025000D03*
X55040000Y71755000D03*
X55040000Y70485000D03*
X55040000Y69215000D03*
X55040000Y67945000D03*
X55040000Y66675000D03*
X55040000Y65405000D03*
X55040000Y64135000D03*
X64135000Y64135000D03*
X64135000Y65405000D03*
X64135000Y66675000D03*
X64135000Y67945000D03*
X64135000Y69215000D03*
X64135000Y70485000D03*
X64135000Y71755000D03*
X64135000Y73025000D03*
X64135000Y74295000D03*
X64135000Y75565000D03*
X91010000Y64135000D03*
X91010000Y65405000D03*
X91010000Y66675000D03*
X91010000Y67945000D03*
X91010000Y69215000D03*
X91010000Y70485000D03*
X91010000Y71755000D03*
X91010000Y73025000D03*
X91010000Y74295000D03*
X91010000Y75565000D03*
X91010000Y76835000D03*
X91010000Y78105000D03*
X81915000Y78105000D03*
X81915000Y76835000D03*
X81915000Y75565000D03*
X81915000Y74295000D03*
X81915000Y73025000D03*
X81915000Y71755000D03*
X81915000Y70485000D03*
X81915000Y69215000D03*
X81915000Y67945000D03*
X81915000Y66675000D03*
X81915000Y65405000D03*
X81915000Y64135000D03*
D17*
X78900000Y55245000D03*
X78900000Y56515000D03*
X78900000Y57785000D03*
X78900000Y59055000D03*
X73500000Y59055000D03*
X73500000Y57785000D03*
X73500000Y56515000D03*
X73500000Y55245000D03*
D14*
X39820000Y27940000D03*
X41460000Y27940000D03*
X39820000Y32512000D03*
X41460000Y32512000D03*
X39820000Y37084000D03*
X41460000Y37084000D03*
D13*
X32385000Y90355000D03*
X32385000Y88715000D03*
D14*
X49472000Y33528000D03*
X51112000Y33528000D03*
X45408000Y33528000D03*
X47048000Y33528000D03*
D12*
X63246000Y55499000D03*
X63246000Y53721000D03*
X61214000Y54610000D03*
D18*
X37465000Y20810000D03*
X37465000Y24910000D03*
X41275000Y20810000D03*
X41275000Y24910000D03*
X24765000Y34780000D03*
X24765000Y38880000D03*
X24765000Y27795000D03*
X24765000Y31895000D03*
D19*
X20350000Y92900000D03*
X24450000Y92900000D03*
D18*
X24765000Y20810000D03*
X24765000Y24910000D03*
M02*
