G04 Layer_Color=255*
%FSTAX24Y24*%
%MOIN*%
G70*
G01*
G75*
%ADD12C,0.0902*%
%ADD13R,0.0902X0.0902*%
%ADD14C,0.1380*%
%ADD15C,0.0600*%
%ADD16R,0.0600X0.0600*%
%ADD17R,0.0902X0.0902*%
%ADD18C,0.1161*%
%ADD19C,0.1043*%
%ADD20C,0.0591*%
%ADD21R,0.0591X0.0591*%
D12*
X0575Y01035D02*
D03*
Y01185D02*
D03*
Y01335D02*
D03*
Y01485D02*
D03*
Y01635D02*
D03*
Y01785D02*
D03*
Y01935D02*
D03*
Y0229D02*
D03*
Y0244D02*
D03*
Y0259D02*
D03*
Y0274D02*
D03*
Y0289D02*
D03*
Y0304D02*
D03*
Y0319D02*
D03*
Y0356D02*
D03*
Y0371D02*
D03*
Y0386D02*
D03*
Y0401D02*
D03*
Y0416D02*
D03*
Y0431D02*
D03*
Y0446D02*
D03*
Y04905D02*
D03*
Y05055D02*
D03*
Y05205D02*
D03*
Y05355D02*
D03*
Y05505D02*
D03*
Y05655D02*
D03*
Y05805D02*
D03*
Y0616D02*
D03*
Y0631D02*
D03*
Y0646D02*
D03*
Y0661D02*
D03*
Y0676D02*
D03*
Y0691D02*
D03*
Y0706D02*
D03*
Y0741D02*
D03*
Y0756D02*
D03*
Y0771D02*
D03*
Y0786D02*
D03*
Y0801D02*
D03*
Y0816D02*
D03*
Y0831D02*
D03*
X04815Y0755D02*
D03*
X05215Y07545D02*
D03*
X05365Y0829D02*
D03*
X0497D02*
D03*
X04815Y0635D02*
D03*
X04805Y0362D02*
D03*
X0481Y05175D02*
D03*
X04805Y01225D02*
D03*
Y02405D02*
D03*
X05205Y0122D02*
D03*
Y024D02*
D03*
X05215Y06345D02*
D03*
X05205Y03615D02*
D03*
X0521Y0517D02*
D03*
X05355Y0436D02*
D03*
Y01965D02*
D03*
Y03145D02*
D03*
X05365Y0709D02*
D03*
X0536Y05915D02*
D03*
X0497Y0709D02*
D03*
X0496Y03145D02*
D03*
Y01965D02*
D03*
X04965Y05915D02*
D03*
X0496Y0436D02*
D03*
D13*
X0575Y02085D02*
D03*
Y0334D02*
D03*
Y0461D02*
D03*
Y05955D02*
D03*
Y0721D02*
D03*
Y0846D02*
D03*
D14*
X05755Y00765D02*
D03*
X0407D02*
D03*
X05395Y0476D02*
D03*
X04115D02*
D03*
X05765Y0876D02*
D03*
X0407D02*
D03*
D15*
X0463Y0758D02*
D03*
Y0768D02*
D03*
X0453Y0818D02*
D03*
Y0808D02*
D03*
Y0798D02*
D03*
Y0788D02*
D03*
Y0778D02*
D03*
Y0768D02*
D03*
Y0758D02*
D03*
X0463Y0778D02*
D03*
Y0788D02*
D03*
Y0798D02*
D03*
Y0808D02*
D03*
Y0818D02*
D03*
Y0828D02*
D03*
X0462Y01255D02*
D03*
Y01355D02*
D03*
X0452Y01855D02*
D03*
Y01755D02*
D03*
Y01655D02*
D03*
Y01555D02*
D03*
Y01455D02*
D03*
Y01355D02*
D03*
Y01255D02*
D03*
X0462Y01455D02*
D03*
Y01555D02*
D03*
Y01655D02*
D03*
Y01755D02*
D03*
Y01855D02*
D03*
Y01955D02*
D03*
Y02435D02*
D03*
Y02535D02*
D03*
X0452Y03035D02*
D03*
Y02935D02*
D03*
Y02835D02*
D03*
Y02735D02*
D03*
Y02635D02*
D03*
Y02535D02*
D03*
Y02435D02*
D03*
X0462Y02635D02*
D03*
Y02735D02*
D03*
Y02835D02*
D03*
Y02935D02*
D03*
Y03035D02*
D03*
Y03135D02*
D03*
Y0365D02*
D03*
Y0375D02*
D03*
X0452Y0425D02*
D03*
Y0415D02*
D03*
Y0405D02*
D03*
Y0395D02*
D03*
Y0385D02*
D03*
Y0375D02*
D03*
Y0365D02*
D03*
X0462Y0385D02*
D03*
Y0395D02*
D03*
Y0405D02*
D03*
Y0415D02*
D03*
Y0425D02*
D03*
Y0435D02*
D03*
X04625Y05205D02*
D03*
Y05305D02*
D03*
X04525Y05805D02*
D03*
Y05705D02*
D03*
Y05605D02*
D03*
Y05505D02*
D03*
Y05405D02*
D03*
Y05305D02*
D03*
Y05205D02*
D03*
X04625Y05405D02*
D03*
Y05505D02*
D03*
Y05605D02*
D03*
Y05705D02*
D03*
Y05805D02*
D03*
Y05905D02*
D03*
X0463Y0638D02*
D03*
Y0648D02*
D03*
X0453Y0698D02*
D03*
Y0688D02*
D03*
Y0678D02*
D03*
Y0668D02*
D03*
Y0658D02*
D03*
Y0648D02*
D03*
Y0638D02*
D03*
X0463Y0658D02*
D03*
Y0668D02*
D03*
Y0678D02*
D03*
Y0688D02*
D03*
Y0698D02*
D03*
Y0708D02*
D03*
D16*
X0453Y0828D02*
D03*
X0452Y01955D02*
D03*
Y03135D02*
D03*
Y0435D02*
D03*
X04525Y05905D02*
D03*
X0453Y0708D02*
D03*
D17*
X04965Y0755D02*
D03*
X05365Y07545D02*
D03*
X05215Y0829D02*
D03*
X0482D02*
D03*
X04965Y0635D02*
D03*
X04955Y0362D02*
D03*
X0496Y05175D02*
D03*
X04955Y01225D02*
D03*
Y02405D02*
D03*
X05355Y0122D02*
D03*
Y024D02*
D03*
X05365Y06345D02*
D03*
X05355Y03615D02*
D03*
X0536Y0517D02*
D03*
X05205Y0436D02*
D03*
Y01965D02*
D03*
Y03145D02*
D03*
X05215Y0709D02*
D03*
X0521Y05915D02*
D03*
X0482Y0709D02*
D03*
X0481Y03145D02*
D03*
Y01965D02*
D03*
X04815Y05915D02*
D03*
X0481Y0436D02*
D03*
D18*
X0401Y01385D02*
D03*
Y01835D02*
D03*
Y03015D02*
D03*
Y02565D02*
D03*
Y0378D02*
D03*
Y0423D02*
D03*
X04015Y05785D02*
D03*
Y05335D02*
D03*
X0402Y0651D02*
D03*
Y0696D02*
D03*
Y0816D02*
D03*
Y0771D02*
D03*
D19*
X041187Y0192D02*
D03*
Y013D02*
D03*
Y0248D02*
D03*
Y031D02*
D03*
Y04315D02*
D03*
Y03695D02*
D03*
X041237Y0525D02*
D03*
Y0587D02*
D03*
X041287Y07045D02*
D03*
Y06425D02*
D03*
Y07625D02*
D03*
Y08245D02*
D03*
D20*
X0426Y01685D02*
D03*
Y01585D02*
D03*
X0436Y01635D02*
D03*
Y01535D02*
D03*
X0426Y01485D02*
D03*
X0436Y01735D02*
D03*
Y01435D02*
D03*
Y02615D02*
D03*
Y02915D02*
D03*
X0426Y02665D02*
D03*
X0436Y02715D02*
D03*
Y02815D02*
D03*
X0426Y02765D02*
D03*
Y02865D02*
D03*
Y0408D02*
D03*
Y0398D02*
D03*
X0436Y0403D02*
D03*
Y0393D02*
D03*
X0426Y0388D02*
D03*
X0436Y0413D02*
D03*
Y0383D02*
D03*
X04365Y05385D02*
D03*
Y05685D02*
D03*
X04265Y05435D02*
D03*
X04365Y05485D02*
D03*
Y05585D02*
D03*
X04265Y05535D02*
D03*
Y05635D02*
D03*
X0427Y0681D02*
D03*
Y0671D02*
D03*
X0437Y0676D02*
D03*
Y0666D02*
D03*
X0427Y0661D02*
D03*
X0437Y0686D02*
D03*
Y0656D02*
D03*
Y0776D02*
D03*
Y0806D02*
D03*
X0427Y0781D02*
D03*
X0437Y0786D02*
D03*
Y0796D02*
D03*
X0427Y0791D02*
D03*
Y0801D02*
D03*
D21*
X0426Y01785D02*
D03*
Y02965D02*
D03*
Y0418D02*
D03*
X04265Y05735D02*
D03*
X0427Y0691D02*
D03*
Y0811D02*
D03*
M02*
