G04 Layer_Color=2752767*
%FSTAX24Y24*%
%MOIN*%
G70*
G01*
G75*
%ADD38C,0.0050*%
%ADD39C,0.0067*%
D38*
X0573Y01015D02*
Y01055D01*
X0577D01*
Y01015D01*
X0573D01*
Y01165D02*
Y01205D01*
X0577D01*
Y01165D01*
X0573D01*
Y01315D02*
Y01355D01*
X0577D01*
Y01315D01*
X0573D01*
Y01465D02*
Y01505D01*
X0577D01*
Y01465D01*
X0573D01*
Y01615D02*
Y01655D01*
X0577D01*
Y01615D01*
X0573D01*
Y01765D02*
Y01805D01*
X0577D01*
Y01765D01*
X0573D01*
Y01915D02*
Y01955D01*
X0577D01*
Y01915D01*
X0573D01*
Y02065D02*
Y02105D01*
X0577D01*
Y02065D01*
X0573D01*
Y0227D02*
Y0231D01*
X0577D01*
Y0227D01*
X0573D01*
Y0242D02*
Y0246D01*
X0577D01*
Y0242D01*
X0573D01*
Y0257D02*
Y0261D01*
X0577D01*
Y0257D01*
X0573D01*
Y0272D02*
Y0276D01*
X0577D01*
Y0272D01*
X0573D01*
Y0287D02*
Y0291D01*
X0577D01*
Y0287D01*
X0573D01*
Y0302D02*
Y0306D01*
X0577D01*
Y0302D01*
X0573D01*
Y0317D02*
Y0321D01*
X0577D01*
Y0317D01*
X0573D01*
Y0332D02*
Y0336D01*
X0577D01*
Y0332D01*
X0573D01*
Y0354D02*
Y0358D01*
X0577D01*
Y0354D01*
X0573D01*
Y0369D02*
Y0373D01*
X0577D01*
Y0369D01*
X0573D01*
Y0384D02*
Y0388D01*
X0577D01*
Y0384D01*
X0573D01*
Y0399D02*
Y0403D01*
X0577D01*
Y0399D01*
X0573D01*
Y0414D02*
Y0418D01*
X0577D01*
Y0414D01*
X0573D01*
Y0429D02*
Y0433D01*
X0577D01*
Y0429D01*
X0573D01*
Y0444D02*
Y0448D01*
X0577D01*
Y0444D01*
X0573D01*
Y0459D02*
Y0463D01*
X0577D01*
Y0459D01*
X0573D01*
Y04885D02*
Y04925D01*
X0577D01*
Y04885D01*
X0573D01*
Y05035D02*
Y05075D01*
X0577D01*
Y05035D01*
X0573D01*
Y05185D02*
Y05225D01*
X0577D01*
Y05185D01*
X0573D01*
Y05335D02*
Y05375D01*
X0577D01*
Y05335D01*
X0573D01*
Y05485D02*
Y05525D01*
X0577D01*
Y05485D01*
X0573D01*
Y05635D02*
Y05675D01*
X0577D01*
Y05635D01*
X0573D01*
Y05785D02*
Y05825D01*
X0577D01*
Y05785D01*
X0573D01*
Y05935D02*
Y05975D01*
X0577D01*
Y05935D01*
X0573D01*
Y0614D02*
Y0618D01*
X0577D01*
Y0614D01*
X0573D01*
Y0629D02*
Y0633D01*
X0577D01*
Y0629D01*
X0573D01*
Y0644D02*
Y0648D01*
X0577D01*
Y0644D01*
X0573D01*
Y0659D02*
Y0663D01*
X0577D01*
Y0659D01*
X0573D01*
Y0674D02*
Y0678D01*
X0577D01*
Y0674D01*
X0573D01*
Y0689D02*
Y0693D01*
X0577D01*
Y0689D01*
X0573D01*
Y0704D02*
Y0708D01*
X0577D01*
Y0704D01*
X0573D01*
Y0719D02*
Y0723D01*
X0577D01*
Y0719D01*
X0573D01*
Y0739D02*
Y0743D01*
X0577D01*
Y0739D01*
X0573D01*
Y0754D02*
Y0758D01*
X0577D01*
Y0754D01*
X0573D01*
Y0769D02*
Y0773D01*
X0577D01*
Y0769D01*
X0573D01*
Y0784D02*
Y0788D01*
X0577D01*
Y0784D01*
X0573D01*
Y0799D02*
Y0803D01*
X0577D01*
Y0799D01*
X0573D01*
Y0814D02*
Y0818D01*
X0577D01*
Y0814D01*
X0573D01*
Y0829D02*
Y0833D01*
X0577D01*
Y0829D01*
X0573D01*
Y0844D02*
Y0848D01*
X0577D01*
Y0844D01*
X0573D01*
X0463Y0756D02*
X0461Y076D01*
X0465D01*
X0463Y0756D01*
Y0766D02*
X0461Y077D01*
X0465D01*
X0463Y0766D01*
X0453Y0816D02*
X0451Y082D01*
X0455D01*
X0453Y0816D01*
Y0806D02*
X0451Y081D01*
X0455D01*
X0453Y0806D01*
Y0796D02*
X0451Y08D01*
X0455D01*
X0453Y0796D01*
Y0826D02*
X0451Y083D01*
X0455D01*
X0453Y0826D01*
Y0786D02*
X0451Y079D01*
X0455D01*
X0453Y0786D01*
Y0776D02*
X0451Y078D01*
X0455D01*
X0453Y0776D01*
Y0766D02*
X0451Y077D01*
X0455D01*
X0453Y0766D01*
Y0756D02*
X0451Y076D01*
X0455D01*
X0453Y0756D01*
X0463Y0776D02*
X0461Y078D01*
X0465D01*
X0463Y0776D01*
Y0786D02*
X0461Y079D01*
X0465D01*
X0463Y0786D01*
Y0796D02*
X0461Y08D01*
X0465D01*
X0463Y0796D01*
Y0806D02*
X0461Y081D01*
X0465D01*
X0463Y0806D01*
Y0816D02*
X0461Y082D01*
X0465D01*
X0463Y0816D01*
Y0826D02*
X0461Y083D01*
X0465D01*
X0463Y0826D01*
X04815Y0753D02*
X04825Y0754D01*
X04835D01*
X04825Y0755D01*
X04835Y0756D01*
X04825D01*
X04815Y0757D01*
X04805Y0756D01*
X04795D01*
X04805Y0755D01*
X04795Y0754D01*
X04805D01*
X04815Y0753D01*
X04945D02*
X04955Y0755D01*
X04945Y0757D01*
X04965Y0756D01*
X04985Y0757D01*
X04975Y0755D01*
X04985Y0753D01*
X04965Y0754D01*
X04945Y0753D01*
X05345Y07525D02*
X05355Y07545D01*
X05345Y07565D01*
X05365Y07555D01*
X05385Y07565D01*
X05375Y07545D01*
X05385Y07525D01*
X05365Y07535D01*
X05345Y07525D01*
X05215D02*
X05225Y07535D01*
X05235D01*
X05225Y07545D01*
X05235Y07555D01*
X05225D01*
X05215Y07565D01*
X05205Y07555D01*
X05195D01*
X05205Y07545D01*
X05195Y07535D01*
X05205D01*
X05215Y07525D01*
X05365Y0827D02*
X05375Y0828D01*
X05385D01*
X05375Y0829D01*
X05385Y083D01*
X05375D01*
X05365Y0831D01*
X05355Y083D01*
X05345D01*
X05355Y0829D01*
X05345Y0828D01*
X05355D01*
X05365Y0827D01*
X05195D02*
X05205Y0829D01*
X05195Y0831D01*
X05215Y083D01*
X05235Y0831D01*
X05225Y0829D01*
X05235Y0827D01*
X05215Y0828D01*
X05195Y0827D01*
X048D02*
X0481Y0829D01*
X048Y0831D01*
X0482Y083D01*
X0484Y0831D01*
X0483Y0829D01*
X0484Y0827D01*
X0482Y0828D01*
X048Y0827D01*
X0497D02*
X0498Y0828D01*
X0499D01*
X0498Y0829D01*
X0499Y083D01*
X0498D01*
X0497Y0831D01*
X0496Y083D01*
X0495D01*
X0496Y0829D01*
X0495Y0828D01*
X0496D01*
X0497Y0827D01*
X04Y01375D02*
Y01365D01*
X0402D01*
Y01375D01*
X0403D01*
Y01395D01*
X0402D01*
Y01405D01*
X04D01*
Y01395D01*
X0399D01*
Y01375D01*
X04D01*
Y01825D02*
Y01815D01*
X0402D01*
Y01825D01*
X0403D01*
Y01845D01*
X0402D01*
Y01855D01*
X04D01*
Y01845D01*
X0399D01*
Y01825D01*
X04D01*
X040987Y019D02*
X041087D01*
X041187Y0191D01*
X041287Y019D01*
X041387D01*
Y0191D01*
X041287Y0192D01*
X041387Y0193D01*
Y0194D01*
X041287D01*
X041187Y0193D01*
X041087Y0194D01*
X040987D01*
Y0193D01*
X041087Y0192D01*
X040987Y0191D01*
Y019D01*
Y0128D02*
X041087D01*
X041187Y0129D01*
X041287Y0128D01*
X041387D01*
Y0129D01*
X041287Y013D01*
X041387Y0131D01*
Y0132D01*
X041287D01*
X041187Y0131D01*
X041087Y0132D01*
X040987D01*
Y0131D01*
X041087Y013D01*
X040987Y0129D01*
Y0128D01*
X0424Y01685D02*
X0426Y01705D01*
X0428Y01685D01*
X0426Y01665D01*
X0424Y01685D01*
Y01585D02*
X0426Y01605D01*
X0428Y01585D01*
X0426Y01565D01*
X0424Y01585D01*
X0434Y01635D02*
X0436Y01655D01*
X0438Y01635D01*
X0436Y01615D01*
X0434Y01635D01*
Y01535D02*
X0436Y01555D01*
X0438Y01535D01*
X0436Y01515D01*
X0434Y01535D01*
X0424Y01485D02*
X0426Y01505D01*
X0428Y01485D01*
X0426Y01465D01*
X0424Y01485D01*
Y01785D02*
X0426Y01805D01*
X0428Y01785D01*
X0426Y01765D01*
X0424Y01785D01*
X0434Y01735D02*
X0436Y01755D01*
X0438Y01735D01*
X0436Y01715D01*
X0434Y01735D01*
Y01435D02*
X0436Y01455D01*
X0438Y01435D01*
X0436Y01415D01*
X0434Y01435D01*
Y02615D02*
X0436Y02635D01*
X0438Y02615D01*
X0436Y02595D01*
X0434Y02615D01*
Y02915D02*
X0436Y02935D01*
X0438Y02915D01*
X0436Y02895D01*
X0434Y02915D01*
X0424Y02965D02*
X0426Y02985D01*
X0428Y02965D01*
X0426Y02945D01*
X0424Y02965D01*
Y02665D02*
X0426Y02685D01*
X0428Y02665D01*
X0426Y02645D01*
X0424Y02665D01*
X0434Y02715D02*
X0436Y02735D01*
X0438Y02715D01*
X0436Y02695D01*
X0434Y02715D01*
Y02815D02*
X0436Y02835D01*
X0438Y02815D01*
X0436Y02795D01*
X0434Y02815D01*
X0424Y02765D02*
X0426Y02785D01*
X0428Y02765D01*
X0426Y02745D01*
X0424Y02765D01*
Y02865D02*
X0426Y02885D01*
X0428Y02865D01*
X0426Y02845D01*
X0424Y02865D01*
X040987Y0246D02*
X041087D01*
X041187Y0247D01*
X041287Y0246D01*
X041387D01*
Y0247D01*
X041287Y0248D01*
X041387Y0249D01*
Y025D01*
X041287D01*
X041187Y0249D01*
X041087Y025D01*
X040987D01*
Y0249D01*
X041087Y0248D01*
X040987Y0247D01*
Y0246D01*
Y0308D02*
X041087D01*
X041187Y0309D01*
X041287Y0308D01*
X041387D01*
Y0309D01*
X041287Y031D01*
X041387Y0311D01*
Y0312D01*
X041287D01*
X041187Y0311D01*
X041087Y0312D01*
X040987D01*
Y0311D01*
X041087Y031D01*
X040987Y0309D01*
Y0308D01*
X04Y03005D02*
Y02995D01*
X0402D01*
Y03005D01*
X0403D01*
Y03025D01*
X0402D01*
Y03035D01*
X04D01*
Y03025D01*
X0399D01*
Y03005D01*
X04D01*
Y02555D02*
Y02545D01*
X0402D01*
Y02555D01*
X0403D01*
Y02575D01*
X0402D01*
Y02585D01*
X04D01*
Y02575D01*
X0399D01*
Y02555D01*
X04D01*
Y0377D02*
Y0376D01*
X0402D01*
Y0377D01*
X0403D01*
Y0379D01*
X0402D01*
Y038D01*
X04D01*
Y0379D01*
X0399D01*
Y0377D01*
X04D01*
Y0422D02*
Y0421D01*
X0402D01*
Y0422D01*
X0403D01*
Y0424D01*
X0402D01*
Y0425D01*
X04D01*
Y0424D01*
X0399D01*
Y0422D01*
X04D01*
X040987Y04295D02*
X041087D01*
X041187Y04305D01*
X041287Y04295D01*
X041387D01*
Y04305D01*
X041287Y04315D01*
X041387Y04325D01*
Y04335D01*
X041287D01*
X041187Y04325D01*
X041087Y04335D01*
X040987D01*
Y04325D01*
X041087Y04315D01*
X040987Y04305D01*
Y04295D01*
Y03675D02*
X041087D01*
X041187Y03685D01*
X041287Y03675D01*
X041387D01*
Y03685D01*
X041287Y03695D01*
X041387Y03705D01*
Y03715D01*
X041287D01*
X041187Y03705D01*
X041087Y03715D01*
X040987D01*
Y03705D01*
X041087Y03695D01*
X040987Y03685D01*
Y03675D01*
X0424Y0408D02*
X0426Y041D01*
X0428Y0408D01*
X0426Y0406D01*
X0424Y0408D01*
Y0398D02*
X0426Y04D01*
X0428Y0398D01*
X0426Y0396D01*
X0424Y0398D01*
X0434Y0403D02*
X0436Y0405D01*
X0438Y0403D01*
X0436Y0401D01*
X0434Y0403D01*
Y0393D02*
X0436Y0395D01*
X0438Y0393D01*
X0436Y0391D01*
X0434Y0393D01*
X0424Y0388D02*
X0426Y039D01*
X0428Y0388D01*
X0426Y0386D01*
X0424Y0388D01*
Y0418D02*
X0426Y042D01*
X0428Y0418D01*
X0426Y0416D01*
X0424Y0418D01*
X0434Y0413D02*
X0436Y0415D01*
X0438Y0413D01*
X0436Y0411D01*
X0434Y0413D01*
Y0383D02*
X0436Y0385D01*
X0438Y0383D01*
X0436Y0381D01*
X0434Y0383D01*
X04345Y05385D02*
X04365Y05405D01*
X04385Y05385D01*
X04365Y05365D01*
X04345Y05385D01*
Y05685D02*
X04365Y05705D01*
X04385Y05685D01*
X04365Y05665D01*
X04345Y05685D01*
X04245Y05735D02*
X04265Y05755D01*
X04285Y05735D01*
X04265Y05715D01*
X04245Y05735D01*
Y05435D02*
X04265Y05455D01*
X04285Y05435D01*
X04265Y05415D01*
X04245Y05435D01*
X04345Y05485D02*
X04365Y05505D01*
X04385Y05485D01*
X04365Y05465D01*
X04345Y05485D01*
Y05585D02*
X04365Y05605D01*
X04385Y05585D01*
X04365Y05565D01*
X04345Y05585D01*
X04245Y05535D02*
X04265Y05555D01*
X04285Y05535D01*
X04265Y05515D01*
X04245Y05535D01*
Y05635D02*
X04265Y05655D01*
X04285Y05635D01*
X04265Y05615D01*
X04245Y05635D01*
X041037Y0523D02*
X041137D01*
X041237Y0524D01*
X041337Y0523D01*
X041437D01*
Y0524D01*
X041337Y0525D01*
X041437Y0526D01*
Y0527D01*
X041337D01*
X041237Y0526D01*
X041137Y0527D01*
X041037D01*
Y0526D01*
X041137Y0525D01*
X041037Y0524D01*
Y0523D01*
Y0585D02*
X041137D01*
X041237Y0586D01*
X041337Y0585D01*
X041437D01*
Y0586D01*
X041337Y0587D01*
X041437Y0588D01*
Y0589D01*
X041337D01*
X041237Y0588D01*
X041137Y0589D01*
X041037D01*
Y0588D01*
X041137Y0587D01*
X041037Y0586D01*
Y0585D01*
X04005Y05775D02*
Y05765D01*
X04025D01*
Y05775D01*
X04035D01*
Y05795D01*
X04025D01*
Y05805D01*
X04005D01*
Y05795D01*
X03995D01*
Y05775D01*
X04005D01*
Y05325D02*
Y05315D01*
X04025D01*
Y05325D01*
X04035D01*
Y05345D01*
X04025D01*
Y05355D01*
X04005D01*
Y05345D01*
X03995D01*
Y05325D01*
X04005D01*
X0401Y065D02*
Y0649D01*
X0403D01*
Y065D01*
X0404D01*
Y0652D01*
X0403D01*
Y0653D01*
X0401D01*
Y0652D01*
X04D01*
Y065D01*
X0401D01*
Y0695D02*
Y0694D01*
X0403D01*
Y0695D01*
X0404D01*
Y0697D01*
X0403D01*
Y0698D01*
X0401D01*
Y0697D01*
X04D01*
Y0695D01*
X0401D01*
X041087Y07025D02*
X041187D01*
X041287Y07035D01*
X041387Y07025D01*
X041487D01*
Y07035D01*
X041387Y07045D01*
X041487Y07055D01*
Y07065D01*
X041387D01*
X041287Y07055D01*
X041187Y07065D01*
X041087D01*
Y07055D01*
X041187Y07045D01*
X041087Y07035D01*
Y07025D01*
Y06405D02*
X041187D01*
X041287Y06415D01*
X041387Y06405D01*
X041487D01*
Y06415D01*
X041387Y06425D01*
X041487Y06435D01*
Y06445D01*
X041387D01*
X041287Y06435D01*
X041187Y06445D01*
X041087D01*
Y06435D01*
X041187Y06425D01*
X041087Y06415D01*
Y06405D01*
X0425Y0681D02*
X0427Y0683D01*
X0429Y0681D01*
X0427Y0679D01*
X0425Y0681D01*
Y0671D02*
X0427Y0673D01*
X0429Y0671D01*
X0427Y0669D01*
X0425Y0671D01*
X0435Y0676D02*
X0437Y0678D01*
X0439Y0676D01*
X0437Y0674D01*
X0435Y0676D01*
Y0666D02*
X0437Y0668D01*
X0439Y0666D01*
X0437Y0664D01*
X0435Y0666D01*
X0425Y0661D02*
X0427Y0663D01*
X0429Y0661D01*
X0427Y0659D01*
X0425Y0661D01*
Y0691D02*
X0427Y0693D01*
X0429Y0691D01*
X0427Y0689D01*
X0425Y0691D01*
X0435Y0686D02*
X0437Y0688D01*
X0439Y0686D01*
X0437Y0684D01*
X0435Y0686D01*
Y0656D02*
X0437Y0658D01*
X0439Y0656D01*
X0437Y0654D01*
X0435Y0656D01*
X0462Y01235D02*
X046Y01275D01*
X0464D01*
X0462Y01235D01*
Y01335D02*
X046Y01375D01*
X0464D01*
X0462Y01335D01*
X0452Y01835D02*
X045Y01875D01*
X0454D01*
X0452Y01835D01*
Y01735D02*
X045Y01775D01*
X0454D01*
X0452Y01735D01*
Y01635D02*
X045Y01675D01*
X0454D01*
X0452Y01635D01*
Y01935D02*
X045Y01975D01*
X0454D01*
X0452Y01935D01*
Y01535D02*
X045Y01575D01*
X0454D01*
X0452Y01535D01*
Y01435D02*
X045Y01475D01*
X0454D01*
X0452Y01435D01*
Y01335D02*
X045Y01375D01*
X0454D01*
X0452Y01335D01*
Y01235D02*
X045Y01275D01*
X0454D01*
X0452Y01235D01*
X0462Y01435D02*
X046Y01475D01*
X0464D01*
X0462Y01435D01*
Y01535D02*
X046Y01575D01*
X0464D01*
X0462Y01535D01*
Y01635D02*
X046Y01675D01*
X0464D01*
X0462Y01635D01*
Y01735D02*
X046Y01775D01*
X0464D01*
X0462Y01735D01*
Y01835D02*
X046Y01875D01*
X0464D01*
X0462Y01835D01*
Y01935D02*
X046Y01975D01*
X0464D01*
X0462Y01935D01*
Y02415D02*
X046Y02455D01*
X0464D01*
X0462Y02415D01*
Y02515D02*
X046Y02555D01*
X0464D01*
X0462Y02515D01*
X0452Y03015D02*
X045Y03055D01*
X0454D01*
X0452Y03015D01*
Y02915D02*
X045Y02955D01*
X0454D01*
X0452Y02915D01*
Y02815D02*
X045Y02855D01*
X0454D01*
X0452Y02815D01*
Y03115D02*
X045Y03155D01*
X0454D01*
X0452Y03115D01*
Y02715D02*
X045Y02755D01*
X0454D01*
X0452Y02715D01*
Y02615D02*
X045Y02655D01*
X0454D01*
X0452Y02615D01*
Y02515D02*
X045Y02555D01*
X0454D01*
X0452Y02515D01*
Y02415D02*
X045Y02455D01*
X0454D01*
X0452Y02415D01*
X0462Y02615D02*
X046Y02655D01*
X0464D01*
X0462Y02615D01*
Y02715D02*
X046Y02755D01*
X0464D01*
X0462Y02715D01*
Y02815D02*
X046Y02855D01*
X0464D01*
X0462Y02815D01*
Y02915D02*
X046Y02955D01*
X0464D01*
X0462Y02915D01*
Y03015D02*
X046Y03055D01*
X0464D01*
X0462Y03015D01*
Y03115D02*
X046Y03155D01*
X0464D01*
X0462Y03115D01*
Y0363D02*
X046Y0367D01*
X0464D01*
X0462Y0363D01*
Y0373D02*
X046Y0377D01*
X0464D01*
X0462Y0373D01*
X0452Y0423D02*
X045Y0427D01*
X0454D01*
X0452Y0423D01*
Y0413D02*
X045Y0417D01*
X0454D01*
X0452Y0413D01*
Y0403D02*
X045Y0407D01*
X0454D01*
X0452Y0403D01*
Y0433D02*
X045Y0437D01*
X0454D01*
X0452Y0433D01*
Y0393D02*
X045Y0397D01*
X0454D01*
X0452Y0393D01*
Y0383D02*
X045Y0387D01*
X0454D01*
X0452Y0383D01*
Y0373D02*
X045Y0377D01*
X0454D01*
X0452Y0373D01*
Y0363D02*
X045Y0367D01*
X0454D01*
X0452Y0363D01*
X0462Y0383D02*
X046Y0387D01*
X0464D01*
X0462Y0383D01*
Y0393D02*
X046Y0397D01*
X0464D01*
X0462Y0393D01*
Y0403D02*
X046Y0407D01*
X0464D01*
X0462Y0403D01*
Y0413D02*
X046Y0417D01*
X0464D01*
X0462Y0413D01*
Y0423D02*
X046Y0427D01*
X0464D01*
X0462Y0423D01*
Y0433D02*
X046Y0437D01*
X0464D01*
X0462Y0433D01*
X04625Y05185D02*
X04605Y05225D01*
X04645D01*
X04625Y05185D01*
Y05285D02*
X04605Y05325D01*
X04645D01*
X04625Y05285D01*
X04525Y05785D02*
X04505Y05825D01*
X04545D01*
X04525Y05785D01*
Y05685D02*
X04505Y05725D01*
X04545D01*
X04525Y05685D01*
Y05585D02*
X04505Y05625D01*
X04545D01*
X04525Y05585D01*
Y05885D02*
X04505Y05925D01*
X04545D01*
X04525Y05885D01*
Y05485D02*
X04505Y05525D01*
X04545D01*
X04525Y05485D01*
Y05385D02*
X04505Y05425D01*
X04545D01*
X04525Y05385D01*
Y05285D02*
X04505Y05325D01*
X04545D01*
X04525Y05285D01*
Y05185D02*
X04505Y05225D01*
X04545D01*
X04525Y05185D01*
X04625Y05385D02*
X04605Y05425D01*
X04645D01*
X04625Y05385D01*
Y05485D02*
X04605Y05525D01*
X04645D01*
X04625Y05485D01*
Y05585D02*
X04605Y05625D01*
X04645D01*
X04625Y05585D01*
Y05685D02*
X04605Y05725D01*
X04645D01*
X04625Y05685D01*
Y05785D02*
X04605Y05825D01*
X04645D01*
X04625Y05785D01*
Y05885D02*
X04605Y05925D01*
X04645D01*
X04625Y05885D01*
X0463Y0636D02*
X0461Y064D01*
X0465D01*
X0463Y0636D01*
Y0646D02*
X0461Y065D01*
X0465D01*
X0463Y0646D01*
X0453Y0696D02*
X0451Y07D01*
X0455D01*
X0453Y0696D01*
Y0686D02*
X0451Y069D01*
X0455D01*
X0453Y0686D01*
Y0676D02*
X0451Y068D01*
X0455D01*
X0453Y0676D01*
Y0706D02*
X0451Y071D01*
X0455D01*
X0453Y0706D01*
Y0666D02*
X0451Y067D01*
X0455D01*
X0453Y0666D01*
Y0656D02*
X0451Y066D01*
X0455D01*
X0453Y0656D01*
Y0646D02*
X0451Y065D01*
X0455D01*
X0453Y0646D01*
Y0636D02*
X0451Y064D01*
X0455D01*
X0453Y0636D01*
X0463Y0656D02*
X0461Y066D01*
X0465D01*
X0463Y0656D01*
Y0666D02*
X0461Y067D01*
X0465D01*
X0463Y0666D01*
Y0676D02*
X0461Y068D01*
X0465D01*
X0463Y0676D01*
Y0686D02*
X0461Y069D01*
X0465D01*
X0463Y0686D01*
Y0696D02*
X0461Y07D01*
X0465D01*
X0463Y0696D01*
Y0706D02*
X0461Y071D01*
X0465D01*
X0463Y0706D01*
X04815Y0633D02*
X04825Y0634D01*
X04835D01*
X04825Y0635D01*
X04835Y0636D01*
X04825D01*
X04815Y0637D01*
X04805Y0636D01*
X04795D01*
X04805Y0635D01*
X04795Y0634D01*
X04805D01*
X04815Y0633D01*
X04945D02*
X04955Y0635D01*
X04945Y0637D01*
X04965Y0636D01*
X04985Y0637D01*
X04975Y0635D01*
X04985Y0633D01*
X04965Y0634D01*
X04945Y0633D01*
X04935Y036D02*
X04945Y0362D01*
X04935Y0364D01*
X04955Y0363D01*
X04975Y0364D01*
X04965Y0362D01*
X04975Y036D01*
X04955Y0361D01*
X04935Y036D01*
X04805D02*
X04815Y0361D01*
X04825D01*
X04815Y0362D01*
X04825Y0363D01*
X04815D01*
X04805Y0364D01*
X04795Y0363D01*
X04785D01*
X04795Y0362D01*
X04785Y0361D01*
X04795D01*
X04805Y036D01*
X0481Y05155D02*
X0482Y05165D01*
X0483D01*
X0482Y05175D01*
X0483Y05185D01*
X0482D01*
X0481Y05195D01*
X048Y05185D01*
X0479D01*
X048Y05175D01*
X0479Y05165D01*
X048D01*
X0481Y05155D01*
X0494D02*
X0495Y05175D01*
X0494Y05195D01*
X0496Y05185D01*
X0498Y05195D01*
X0497Y05175D01*
X0498Y05155D01*
X0496Y05165D01*
X0494Y05155D01*
X04935Y01205D02*
X04945Y01225D01*
X04935Y01245D01*
X04955Y01235D01*
X04975Y01245D01*
X04965Y01225D01*
X04975Y01205D01*
X04955Y01215D01*
X04935Y01205D01*
X04805D02*
X04815Y01215D01*
X04825D01*
X04815Y01225D01*
X04825Y01235D01*
X04815D01*
X04805Y01245D01*
X04795Y01235D01*
X04785D01*
X04795Y01225D01*
X04785Y01215D01*
X04795D01*
X04805Y01205D01*
Y02385D02*
X04815Y02395D01*
X04825D01*
X04815Y02405D01*
X04825Y02415D01*
X04815D01*
X04805Y02425D01*
X04795Y02415D01*
X04785D01*
X04795Y02405D01*
X04785Y02395D01*
X04795D01*
X04805Y02385D01*
X04935D02*
X04945Y02405D01*
X04935Y02425D01*
X04955Y02415D01*
X04975Y02425D01*
X04965Y02405D01*
X04975Y02385D01*
X04955Y02395D01*
X04935Y02385D01*
X05335Y012D02*
X05345Y0122D01*
X05335Y0124D01*
X05355Y0123D01*
X05375Y0124D01*
X05365Y0122D01*
X05375Y012D01*
X05355Y0121D01*
X05335Y012D01*
X05205D02*
X05215Y0121D01*
X05225D01*
X05215Y0122D01*
X05225Y0123D01*
X05215D01*
X05205Y0124D01*
X05195Y0123D01*
X05185D01*
X05195Y0122D01*
X05185Y0121D01*
X05195D01*
X05205Y012D01*
Y0238D02*
X05215Y0239D01*
X05225D01*
X05215Y024D01*
X05225Y0241D01*
X05215D01*
X05205Y0242D01*
X05195Y0241D01*
X05185D01*
X05195Y024D01*
X05185Y0239D01*
X05195D01*
X05205Y0238D01*
X05335D02*
X05345Y024D01*
X05335Y0242D01*
X05355Y0241D01*
X05375Y0242D01*
X05365Y024D01*
X05375Y0238D01*
X05355Y0239D01*
X05335Y0238D01*
X05345Y06325D02*
X05355Y06345D01*
X05345Y06365D01*
X05365Y06355D01*
X05385Y06365D01*
X05375Y06345D01*
X05385Y06325D01*
X05365Y06335D01*
X05345Y06325D01*
X05215D02*
X05225Y06335D01*
X05235D01*
X05225Y06345D01*
X05235Y06355D01*
X05225D01*
X05215Y06365D01*
X05205Y06355D01*
X05195D01*
X05205Y06345D01*
X05195Y06335D01*
X05205D01*
X05215Y06325D01*
X05205Y03595D02*
X05215Y03605D01*
X05225D01*
X05215Y03615D01*
X05225Y03625D01*
X05215D01*
X05205Y03635D01*
X05195Y03625D01*
X05185D01*
X05195Y03615D01*
X05185Y03605D01*
X05195D01*
X05205Y03595D01*
X05335D02*
X05345Y03615D01*
X05335Y03635D01*
X05355Y03625D01*
X05375Y03635D01*
X05365Y03615D01*
X05375Y03595D01*
X05355Y03605D01*
X05335Y03595D01*
X0534Y0515D02*
X0535Y0517D01*
X0534Y0519D01*
X0536Y0518D01*
X0538Y0519D01*
X0537Y0517D01*
X0538Y0515D01*
X0536Y0516D01*
X0534Y0515D01*
X0521D02*
X0522Y0516D01*
X0523D01*
X0522Y0517D01*
X0523Y0518D01*
X0522D01*
X0521Y0519D01*
X052Y0518D01*
X0519D01*
X052Y0517D01*
X0519Y0516D01*
X052D01*
X0521Y0515D01*
X05355Y0434D02*
X05365Y0435D01*
X05375D01*
X05365Y0436D01*
X05375Y0437D01*
X05365D01*
X05355Y0438D01*
X05345Y0437D01*
X05335D01*
X05345Y0436D01*
X05335Y0435D01*
X05345D01*
X05355Y0434D01*
X05185D02*
X05195Y0436D01*
X05185Y0438D01*
X05205Y0437D01*
X05225Y0438D01*
X05215Y0436D01*
X05225Y0434D01*
X05205Y0435D01*
X05185Y0434D01*
Y01945D02*
X05195Y01965D01*
X05185Y01985D01*
X05205Y01975D01*
X05225Y01985D01*
X05215Y01965D01*
X05225Y01945D01*
X05205Y01955D01*
X05185Y01945D01*
X05355D02*
X05365Y01955D01*
X05375D01*
X05365Y01965D01*
X05375Y01975D01*
X05365D01*
X05355Y01985D01*
X05345Y01975D01*
X05335D01*
X05345Y01965D01*
X05335Y01955D01*
X05345D01*
X05355Y01945D01*
Y03125D02*
X05365Y03135D01*
X05375D01*
X05365Y03145D01*
X05375Y03155D01*
X05365D01*
X05355Y03165D01*
X05345Y03155D01*
X05335D01*
X05345Y03145D01*
X05335Y03135D01*
X05345D01*
X05355Y03125D01*
X05185D02*
X05195Y03145D01*
X05185Y03165D01*
X05205Y03155D01*
X05225Y03165D01*
X05215Y03145D01*
X05225Y03125D01*
X05205Y03135D01*
X05185Y03125D01*
X05195Y0707D02*
X05205Y0709D01*
X05195Y0711D01*
X05215Y071D01*
X05235Y0711D01*
X05225Y0709D01*
X05235Y0707D01*
X05215Y0708D01*
X05195Y0707D01*
X05365D02*
X05375Y0708D01*
X05385D01*
X05375Y0709D01*
X05385Y071D01*
X05375D01*
X05365Y0711D01*
X05355Y071D01*
X05345D01*
X05355Y0709D01*
X05345Y0708D01*
X05355D01*
X05365Y0707D01*
X0536Y05895D02*
X0537Y05905D01*
X0538D01*
X0537Y05915D01*
X0538Y05925D01*
X0537D01*
X0536Y05935D01*
X0535Y05925D01*
X0534D01*
X0535Y05915D01*
X0534Y05905D01*
X0535D01*
X0536Y05895D01*
X0519D02*
X052Y05915D01*
X0519Y05935D01*
X0521Y05925D01*
X0523Y05935D01*
X0522Y05915D01*
X0523Y05895D01*
X0521Y05905D01*
X0519Y05895D01*
X048Y0707D02*
X0481Y0709D01*
X048Y0711D01*
X0482Y071D01*
X0484Y0711D01*
X0483Y0709D01*
X0484Y0707D01*
X0482Y0708D01*
X048Y0707D01*
X0497D02*
X0498Y0708D01*
X0499D01*
X0498Y0709D01*
X0499Y071D01*
X0498D01*
X0497Y0711D01*
X0496Y071D01*
X0495D01*
X0496Y0709D01*
X0495Y0708D01*
X0496D01*
X0497Y0707D01*
X0496Y03125D02*
X0497Y03135D01*
X0498D01*
X0497Y03145D01*
X0498Y03155D01*
X0497D01*
X0496Y03165D01*
X0495Y03155D01*
X0494D01*
X0495Y03145D01*
X0494Y03135D01*
X0495D01*
X0496Y03125D01*
X0479D02*
X048Y03145D01*
X0479Y03165D01*
X0481Y03155D01*
X0483Y03165D01*
X0482Y03145D01*
X0483Y03125D01*
X0481Y03135D01*
X0479Y03125D01*
Y01945D02*
X048Y01965D01*
X0479Y01985D01*
X0481Y01975D01*
X0483Y01985D01*
X0482Y01965D01*
X0483Y01945D01*
X0481Y01955D01*
X0479Y01945D01*
X0496D02*
X0497Y01955D01*
X0498D01*
X0497Y01965D01*
X0498Y01975D01*
X0497D01*
X0496Y01985D01*
X0495Y01975D01*
X0494D01*
X0495Y01965D01*
X0494Y01955D01*
X0495D01*
X0496Y01945D01*
X04965Y05895D02*
X04975Y05905D01*
X04985D01*
X04975Y05915D01*
X04985Y05925D01*
X04975D01*
X04965Y05935D01*
X04955Y05925D01*
X04945D01*
X04955Y05915D01*
X04945Y05905D01*
X04955D01*
X04965Y05895D01*
X04795D02*
X04805Y05915D01*
X04795Y05935D01*
X04815Y05925D01*
X04835Y05935D01*
X04825Y05915D01*
X04835Y05895D01*
X04815Y05905D01*
X04795Y05895D01*
X0479Y0434D02*
X048Y0436D01*
X0479Y0438D01*
X0481Y0437D01*
X0483Y0438D01*
X0482Y0436D01*
X0483Y0434D01*
X0481Y0435D01*
X0479Y0434D01*
X0496D02*
X0497Y0435D01*
X0498D01*
X0497Y0436D01*
X0498Y0437D01*
X0497D01*
X0496Y0438D01*
X0495Y0437D01*
X0494D01*
X0495Y0436D01*
X0494Y0435D01*
X0495D01*
X0496Y0434D01*
X0435Y0776D02*
X0437Y0778D01*
X0439Y0776D01*
X0437Y0774D01*
X0435Y0776D01*
Y0806D02*
X0437Y0808D01*
X0439Y0806D01*
X0437Y0804D01*
X0435Y0806D01*
X0425Y0811D02*
X0427Y0813D01*
X0429Y0811D01*
X0427Y0809D01*
X0425Y0811D01*
Y0781D02*
X0427Y0783D01*
X0429Y0781D01*
X0427Y0779D01*
X0425Y0781D01*
X0435Y0786D02*
X0437Y0788D01*
X0439Y0786D01*
X0437Y0784D01*
X0435Y0786D01*
Y0796D02*
X0437Y0798D01*
X0439Y0796D01*
X0437Y0794D01*
X0435Y0796D01*
X0425Y0791D02*
X0427Y0793D01*
X0429Y0791D01*
X0427Y0789D01*
X0425Y0791D01*
Y0801D02*
X0427Y0803D01*
X0429Y0801D01*
X0427Y0799D01*
X0425Y0801D01*
X041087Y07605D02*
X041187D01*
X041287Y07615D01*
X041387Y07605D01*
X041487D01*
Y07615D01*
X041387Y07625D01*
X041487Y07635D01*
Y07645D01*
X041387D01*
X041287Y07635D01*
X041187Y07645D01*
X041087D01*
Y07635D01*
X041187Y07625D01*
X041087Y07615D01*
Y07605D01*
Y08225D02*
X041187D01*
X041287Y08235D01*
X041387Y08225D01*
X041487D01*
Y08235D01*
X041387Y08245D01*
X041487Y08255D01*
Y08265D01*
X041387D01*
X041287Y08255D01*
X041187Y08265D01*
X041087D01*
Y08255D01*
X041187Y08245D01*
X041087Y08235D01*
Y08225D01*
X0401Y0815D02*
Y0814D01*
X0403D01*
Y0815D01*
X0404D01*
Y0817D01*
X0403D01*
Y0818D01*
X0401D01*
Y0817D01*
X04D01*
Y0815D01*
X0401D01*
Y077D02*
Y0769D01*
X0403D01*
Y077D01*
X0404D01*
Y0772D01*
X0403D01*
Y0773D01*
X0401D01*
Y0772D01*
X04D01*
Y077D01*
X0401D01*
D39*
X05775Y00765D02*
G03*
X05775Y00765I-0002J0D01*
G01*
X0409D02*
G03*
X0409Y00765I-0002J0D01*
G01*
X05415Y0476D02*
G03*
X05415Y0476I-0002J0D01*
G01*
X04135D02*
G03*
X04135Y0476I-0002J0D01*
G01*
X05785Y0876D02*
G03*
X05785Y0876I-0002J0D01*
G01*
X0409D02*
G03*
X0409Y0876I-0002J0D01*
G01*
M02*
