M48
;Layer_Color=9474304
;FILE_FORMAT=2:4
INCH,LZ
;TYPE=PLATED
T1F00S00C0.0354
T2F00S00C0.0360
T3F00S00C0.0449
T4F00S00C0.0630
T5F00S00C0.1180
;TYPE=NON_PLATED
T6F00S00C0.1280
%
T01
X0426Y01485
X0436Y01535
Y01435
Y01635
Y01735
X0426Y01685
Y01585
Y01785
Y02665
Y02765
Y02865
Y02965
X0436Y02915
Y02815
Y02715
Y02615
Y0383
Y0393
Y0403
Y0413
X0426Y0408
Y0398
Y0388
Y0418
X04265Y05435
Y05535
Y05635
Y05735
X04365Y05685
Y05585
Y05485
Y05385
X0437Y0656
Y0666
Y0676
Y0686
X0427Y0681
Y0671
Y0661
Y0691
Y0781
X0437Y0776
Y0786
Y0796
Y0806
X0427Y0811
Y0801
Y0791
T02
X0452Y01255
X0462
Y01355
X0452
Y01455
Y01555
X0462
Y01455
Y01655
X0452
Y01755
Y01855
Y01955
X0462
Y01855
Y01755
Y02435
Y02535
X0452
Y02635
Y02735
Y02835
Y02935
Y03035
X0462
Y02935
Y02835
Y02735
Y02635
X0452Y02435
Y03135
X0462
Y0365
Y0375
X0452
Y0385
Y0395
Y0405
Y0415
Y0425
Y0435
X0462
Y0425
Y0415
Y0405
Y0395
Y0385
X0452Y0365
X04525Y05205
X04625
Y05305
X04525
Y05405
Y05505
Y05605
Y05705
Y05805
Y05905
X04625
Y05805
Y05705
Y05605
Y05505
Y05405
X0463Y0638
Y0648
X0453
Y0658
Y0668
Y0678
Y0688
Y0698
Y0708
X0463
Y0698
Y0688
Y0678
Y0668
Y0658
X0453Y0638
Y0758
X0463
Y0768
X0453
Y0778
X0463
Y0788
X0453
Y0798
Y0808
Y0818
Y0828
X0463
Y0818
Y0808
Y0798
T03
X04805Y01225
X04955
X05205Y0122
X05355
X0575Y01185
Y01035
Y01335
Y01485
Y01635
Y01785
Y01935
Y02085
Y0229
Y0244
Y0259
Y0274
Y0289
Y0304
X05355Y024
X05205
X04955Y02405
X04805
X0481Y01965
X0496
X05205
X05355
Y03145
X05205
X0496
X0481
X04805Y0362
X04955
X05205Y03615
X05355
X0575Y0356
Y0371
Y0386
Y0401
Y0416
Y0431
Y0446
Y0461
X05355Y0436
X05205
X0496
X0481
X0575Y0334
Y0319
Y04905
Y05055
Y05205
Y05355
Y05505
Y05655
Y05805
Y05955
Y0616
X0536Y05915
X0521
X04965
X04815
X0481Y05175
X0496
X0521Y0517
X0536
X05365Y06345
X05215
X04965Y0635
X04815
X0482Y0709
X0497
X05215
X05365
X0575Y0706
Y0691
Y0676
Y0661
Y0646
Y0631
Y0721
Y0741
Y0756
Y0771
X05365Y07545
X05215
X04965Y0755
X04815
X0482Y0829
X0497
X05215
X05365
X0575Y0831
Y0816
Y0801
Y0786
Y0846
T04
X041187Y013
Y0192
Y0248
Y031
Y03695
Y04315
X041237Y0525
Y0587
X041287Y06425
Y07045
Y07625
Y08245
T05
X0407Y00765
X05755
X05395Y0476
X04115
X05765Y0876
X0407
T06
X0401Y01385
Y01835
Y02565
Y03015
Y0378
Y0423
X04015Y05335
Y05785
X0402Y0651
Y0696
Y0771
Y0816
M30
