G04 Layer_Color=128*
%FSTAX24Y24*%
%MOIN*%
G70*
G01*
G75*
%ADD38C,0.0050*%
D38*
X057276Y01035D02*
X057724D01*
X0575Y010126D02*
Y010574D01*
X057276Y01185D02*
X057724D01*
X0575Y011626D02*
Y012074D01*
X057276Y01335D02*
X057724D01*
X0575Y013126D02*
Y013574D01*
X057276Y01485D02*
X057724D01*
X0575Y014626D02*
Y015074D01*
X057276Y01635D02*
X057724D01*
X0575Y016126D02*
Y016574D01*
X057276Y01785D02*
X057724D01*
X0575Y017626D02*
Y018074D01*
X057276Y01935D02*
X057724D01*
X0575Y019126D02*
Y019574D01*
X057276Y02085D02*
X057724D01*
X0575Y020626D02*
Y021074D01*
X057276Y0229D02*
X057724D01*
X0575Y022676D02*
Y023124D01*
X057276Y0244D02*
X057724D01*
X0575Y024176D02*
Y024624D01*
X057276Y0259D02*
X057724D01*
X0575Y025676D02*
Y026124D01*
X057276Y0274D02*
X057724D01*
X0575Y027176D02*
Y027624D01*
X057276Y0289D02*
X057724D01*
X0575Y028676D02*
Y029124D01*
X057276Y0304D02*
X057724D01*
X0575Y030176D02*
Y030624D01*
X057276Y0319D02*
X057724D01*
X0575Y031676D02*
Y032124D01*
X057276Y0334D02*
X057724D01*
X0575Y033176D02*
Y033624D01*
X057276Y0356D02*
X057724D01*
X0575Y035376D02*
Y035824D01*
X057276Y0371D02*
X057724D01*
X0575Y036876D02*
Y037324D01*
X057276Y0386D02*
X057724D01*
X0575Y038376D02*
Y038824D01*
X057276Y0401D02*
X057724D01*
X0575Y039876D02*
Y040324D01*
X057276Y0416D02*
X057724D01*
X0575Y041376D02*
Y041824D01*
X057276Y0431D02*
X057724D01*
X0575Y042876D02*
Y043324D01*
X057276Y0446D02*
X057724D01*
X0575Y044376D02*
Y044824D01*
X057276Y0461D02*
X057724D01*
X0575Y045876D02*
Y046324D01*
X057276Y04905D02*
X057724D01*
X0575Y048826D02*
Y049274D01*
X057276Y05055D02*
X057724D01*
X0575Y050326D02*
Y050774D01*
X057276Y05205D02*
X057724D01*
X0575Y051826D02*
Y052274D01*
X057276Y05355D02*
X057724D01*
X0575Y053326D02*
Y053774D01*
X057276Y05505D02*
X057724D01*
X0575Y054826D02*
Y055274D01*
X057276Y05655D02*
X057724D01*
X0575Y056326D02*
Y056774D01*
X057276Y05805D02*
X057724D01*
X0575Y057826D02*
Y058274D01*
X057276Y05955D02*
X057724D01*
X0575Y059326D02*
Y059774D01*
X057276Y0616D02*
X057724D01*
X0575Y061376D02*
Y061824D01*
X057276Y0631D02*
X057724D01*
X0575Y062876D02*
Y063324D01*
X057276Y0646D02*
X057724D01*
X0575Y064376D02*
Y064824D01*
X057276Y0661D02*
X057724D01*
X0575Y065876D02*
Y066324D01*
X057276Y0676D02*
X057724D01*
X0575Y067376D02*
Y067824D01*
X057276Y0691D02*
X057724D01*
X0575Y068876D02*
Y069324D01*
X057276Y0706D02*
X057724D01*
X0575Y070376D02*
Y070824D01*
X057276Y0721D02*
X057724D01*
X0575Y071876D02*
Y072324D01*
X057276Y0741D02*
X057724D01*
X0575Y073876D02*
Y074324D01*
X057276Y0756D02*
X057724D01*
X0575Y075376D02*
Y075824D01*
X057276Y0771D02*
X057724D01*
X0575Y076876D02*
Y077324D01*
X057276Y0786D02*
X057724D01*
X0575Y078376D02*
Y078824D01*
X057276Y0801D02*
X057724D01*
X0575Y079876D02*
Y080324D01*
X057276Y0816D02*
X057724D01*
X0575Y081376D02*
Y081824D01*
X057276Y0831D02*
X057724D01*
X0575Y082876D02*
Y083324D01*
X057276Y0846D02*
X057724D01*
X0575Y084376D02*
Y084824D01*
X05696Y00765D02*
X05814D01*
X05755Y00706D02*
Y00824D01*
X04011Y00765D02*
X04129D01*
X0407Y00706D02*
Y00824D01*
X05336Y0476D02*
X05454D01*
X05395Y04701D02*
Y04819D01*
X04056Y0476D02*
X04174D01*
X04115Y04701D02*
Y04819D01*
X05706Y0876D02*
X05824D01*
X05765Y08701D02*
Y08819D01*
X04011Y0876D02*
X04129D01*
X0407Y08701D02*
Y08819D01*
X04612Y0758D02*
X04648D01*
X0463Y07562D02*
Y07598D01*
X04612Y0768D02*
X04648D01*
X0463Y07662D02*
Y07698D01*
X04512Y0818D02*
X04548D01*
X0453Y08162D02*
Y08198D01*
X04512Y0808D02*
X04548D01*
X0453Y08062D02*
Y08098D01*
X04512Y0798D02*
X04548D01*
X0453Y07962D02*
Y07998D01*
X04512Y0828D02*
X04548D01*
X0453Y08262D02*
Y08298D01*
X04512Y0788D02*
X04548D01*
X0453Y07862D02*
Y07898D01*
X04512Y0778D02*
X04548D01*
X0453Y07762D02*
Y07798D01*
X04512Y0768D02*
X04548D01*
X0453Y07662D02*
Y07698D01*
X04512Y0758D02*
X04548D01*
X0453Y07562D02*
Y07598D01*
X04612Y0778D02*
X04648D01*
X0463Y07762D02*
Y07798D01*
X04612Y0788D02*
X04648D01*
X0463Y07862D02*
Y07898D01*
X04612Y0798D02*
X04648D01*
X0463Y07962D02*
Y07998D01*
X04612Y0808D02*
X04648D01*
X0463Y08062D02*
Y08098D01*
X04612Y0818D02*
X04648D01*
X0463Y08162D02*
Y08198D01*
X04612Y0828D02*
X04648D01*
X0463Y08262D02*
Y08298D01*
X047926Y0755D02*
X048374D01*
X04815Y075276D02*
Y075724D01*
X049426Y0755D02*
X049874D01*
X04965Y075276D02*
Y075724D01*
X053426Y07545D02*
X053874D01*
X05365Y075226D02*
Y075674D01*
X051926Y07545D02*
X052374D01*
X05215Y075226D02*
Y075674D01*
X053426Y0829D02*
X053874D01*
X05365Y082676D02*
Y083124D01*
X051926Y0829D02*
X052374D01*
X05215Y082676D02*
Y083124D01*
X047976Y0829D02*
X048424D01*
X0482Y082676D02*
Y083124D01*
X049476Y0829D02*
X049924D01*
X0497Y082676D02*
Y083124D01*
X03946Y01385D02*
X04074D01*
X0401Y01321D02*
Y01449D01*
X03946Y01835D02*
X04074D01*
X0401Y01771D02*
Y01899D01*
X040872Y0192D02*
X041502D01*
X041187Y018885D02*
Y019515D01*
X040872Y013D02*
X041502D01*
X041187Y012685D02*
Y013315D01*
X042423Y01685D02*
X042777D01*
X0426Y016673D02*
Y017027D01*
X042423Y01585D02*
X042777D01*
X0426Y015673D02*
Y016027D01*
X043423Y01635D02*
X043777D01*
X0436Y016173D02*
Y016527D01*
X043423Y01535D02*
X043777D01*
X0436Y015173D02*
Y015527D01*
X042423Y01485D02*
X042777D01*
X0426Y014673D02*
Y015027D01*
X042423Y01785D02*
X042777D01*
X0426Y017673D02*
Y018027D01*
X043423Y01735D02*
X043777D01*
X0436Y017173D02*
Y017527D01*
X043423Y01435D02*
X043777D01*
X0436Y014173D02*
Y014527D01*
X043423Y02615D02*
X043777D01*
X0436Y025973D02*
Y026327D01*
X043423Y02915D02*
X043777D01*
X0436Y028973D02*
Y029327D01*
X042423Y02965D02*
X042777D01*
X0426Y029473D02*
Y029827D01*
X042423Y02665D02*
X042777D01*
X0426Y026473D02*
Y026827D01*
X043423Y02715D02*
X043777D01*
X0436Y026973D02*
Y027327D01*
X043423Y02815D02*
X043777D01*
X0436Y027973D02*
Y028327D01*
X042423Y02765D02*
X042777D01*
X0426Y027473D02*
Y027827D01*
X042423Y02865D02*
X042777D01*
X0426Y028473D02*
Y028827D01*
X040872Y0248D02*
X041502D01*
X041187Y024485D02*
Y025115D01*
X040872Y031D02*
X041502D01*
X041187Y030685D02*
Y031315D01*
X03946Y03015D02*
X04074D01*
X0401Y02951D02*
Y03079D01*
X03946Y02565D02*
X04074D01*
X0401Y02501D02*
Y02629D01*
X03946Y0378D02*
X04074D01*
X0401Y03716D02*
Y03844D01*
X03946Y0423D02*
X04074D01*
X0401Y04166D02*
Y04294D01*
X040872Y04315D02*
X041502D01*
X041187Y042835D02*
Y043465D01*
X040872Y03695D02*
X041502D01*
X041187Y036635D02*
Y037265D01*
X042423Y0408D02*
X042777D01*
X0426Y040623D02*
Y040977D01*
X042423Y0398D02*
X042777D01*
X0426Y039623D02*
Y039977D01*
X043423Y0403D02*
X043777D01*
X0436Y040123D02*
Y040477D01*
X043423Y0393D02*
X043777D01*
X0436Y039123D02*
Y039477D01*
X042423Y0388D02*
X042777D01*
X0426Y038623D02*
Y038977D01*
X042423Y0418D02*
X042777D01*
X0426Y041623D02*
Y041977D01*
X043423Y0413D02*
X043777D01*
X0436Y041123D02*
Y041477D01*
X043423Y0383D02*
X043777D01*
X0436Y038123D02*
Y038477D01*
X043473Y05385D02*
X043827D01*
X04365Y053673D02*
Y054027D01*
X043473Y05685D02*
X043827D01*
X04365Y056673D02*
Y057027D01*
X042473Y05735D02*
X042827D01*
X04265Y057173D02*
Y057527D01*
X042473Y05435D02*
X042827D01*
X04265Y054173D02*
Y054527D01*
X043473Y05485D02*
X043827D01*
X04365Y054673D02*
Y055027D01*
X043473Y05585D02*
X043827D01*
X04365Y055673D02*
Y056027D01*
X042473Y05535D02*
X042827D01*
X04265Y055173D02*
Y055527D01*
X042473Y05635D02*
X042827D01*
X04265Y056173D02*
Y056527D01*
X040922Y0525D02*
X041552D01*
X041237Y052185D02*
Y052815D01*
X040922Y0587D02*
X041552D01*
X041237Y058385D02*
Y059015D01*
X03951Y05785D02*
X04079D01*
X04015Y05721D02*
Y05849D01*
X03951Y05335D02*
X04079D01*
X04015Y05271D02*
Y05399D01*
X03956Y0651D02*
X04084D01*
X0402Y06446D02*
Y06574D01*
X03956Y0696D02*
X04084D01*
X0402Y06896D02*
Y07024D01*
X040972Y07045D02*
X041602D01*
X041287Y070135D02*
Y070765D01*
X040972Y06425D02*
X041602D01*
X041287Y063935D02*
Y064565D01*
X042523Y0681D02*
X042877D01*
X0427Y067923D02*
Y068277D01*
X042523Y0671D02*
X042877D01*
X0427Y066923D02*
Y067277D01*
X043523Y0676D02*
X043877D01*
X0437Y067423D02*
Y067777D01*
X043523Y0666D02*
X043877D01*
X0437Y066423D02*
Y066777D01*
X042523Y0661D02*
X042877D01*
X0427Y065923D02*
Y066277D01*
X042523Y0691D02*
X042877D01*
X0427Y068923D02*
Y069277D01*
X043523Y0686D02*
X043877D01*
X0437Y068423D02*
Y068777D01*
X043523Y0656D02*
X043877D01*
X0437Y065423D02*
Y065777D01*
X04602Y01255D02*
X04638D01*
X0462Y01237D02*
Y01273D01*
X04602Y01355D02*
X04638D01*
X0462Y01337D02*
Y01373D01*
X04502Y01855D02*
X04538D01*
X0452Y01837D02*
Y01873D01*
X04502Y01755D02*
X04538D01*
X0452Y01737D02*
Y01773D01*
X04502Y01655D02*
X04538D01*
X0452Y01637D02*
Y01673D01*
X04502Y01955D02*
X04538D01*
X0452Y01937D02*
Y01973D01*
X04502Y01555D02*
X04538D01*
X0452Y01537D02*
Y01573D01*
X04502Y01455D02*
X04538D01*
X0452Y01437D02*
Y01473D01*
X04502Y01355D02*
X04538D01*
X0452Y01337D02*
Y01373D01*
X04502Y01255D02*
X04538D01*
X0452Y01237D02*
Y01273D01*
X04602Y01455D02*
X04638D01*
X0462Y01437D02*
Y01473D01*
X04602Y01555D02*
X04638D01*
X0462Y01537D02*
Y01573D01*
X04602Y01655D02*
X04638D01*
X0462Y01637D02*
Y01673D01*
X04602Y01755D02*
X04638D01*
X0462Y01737D02*
Y01773D01*
X04602Y01855D02*
X04638D01*
X0462Y01837D02*
Y01873D01*
X04602Y01955D02*
X04638D01*
X0462Y01937D02*
Y01973D01*
X04602Y02435D02*
X04638D01*
X0462Y02417D02*
Y02453D01*
X04602Y02535D02*
X04638D01*
X0462Y02517D02*
Y02553D01*
X04502Y03035D02*
X04538D01*
X0452Y03017D02*
Y03053D01*
X04502Y02935D02*
X04538D01*
X0452Y02917D02*
Y02953D01*
X04502Y02835D02*
X04538D01*
X0452Y02817D02*
Y02853D01*
X04502Y03135D02*
X04538D01*
X0452Y03117D02*
Y03153D01*
X04502Y02735D02*
X04538D01*
X0452Y02717D02*
Y02753D01*
X04502Y02635D02*
X04538D01*
X0452Y02617D02*
Y02653D01*
X04502Y02535D02*
X04538D01*
X0452Y02517D02*
Y02553D01*
X04502Y02435D02*
X04538D01*
X0452Y02417D02*
Y02453D01*
X04602Y02635D02*
X04638D01*
X0462Y02617D02*
Y02653D01*
X04602Y02735D02*
X04638D01*
X0462Y02717D02*
Y02753D01*
X04602Y02835D02*
X04638D01*
X0462Y02817D02*
Y02853D01*
X04602Y02935D02*
X04638D01*
X0462Y02917D02*
Y02953D01*
X04602Y03035D02*
X04638D01*
X0462Y03017D02*
Y03053D01*
X04602Y03135D02*
X04638D01*
X0462Y03117D02*
Y03153D01*
X04602Y0365D02*
X04638D01*
X0462Y03632D02*
Y03668D01*
X04602Y0375D02*
X04638D01*
X0462Y03732D02*
Y03768D01*
X04502Y0425D02*
X04538D01*
X0452Y04232D02*
Y04268D01*
X04502Y0415D02*
X04538D01*
X0452Y04132D02*
Y04168D01*
X04502Y0405D02*
X04538D01*
X0452Y04032D02*
Y04068D01*
X04502Y0435D02*
X04538D01*
X0452Y04332D02*
Y04368D01*
X04502Y0395D02*
X04538D01*
X0452Y03932D02*
Y03968D01*
X04502Y0385D02*
X04538D01*
X0452Y03832D02*
Y03868D01*
X04502Y0375D02*
X04538D01*
X0452Y03732D02*
Y03768D01*
X04502Y0365D02*
X04538D01*
X0452Y03632D02*
Y03668D01*
X04602Y0385D02*
X04638D01*
X0462Y03832D02*
Y03868D01*
X04602Y0395D02*
X04638D01*
X0462Y03932D02*
Y03968D01*
X04602Y0405D02*
X04638D01*
X0462Y04032D02*
Y04068D01*
X04602Y0415D02*
X04638D01*
X0462Y04132D02*
Y04168D01*
X04602Y0425D02*
X04638D01*
X0462Y04232D02*
Y04268D01*
X04602Y0435D02*
X04638D01*
X0462Y04332D02*
Y04368D01*
X04607Y05205D02*
X04643D01*
X04625Y05187D02*
Y05223D01*
X04607Y05305D02*
X04643D01*
X04625Y05287D02*
Y05323D01*
X04507Y05805D02*
X04543D01*
X04525Y05787D02*
Y05823D01*
X04507Y05705D02*
X04543D01*
X04525Y05687D02*
Y05723D01*
X04507Y05605D02*
X04543D01*
X04525Y05587D02*
Y05623D01*
X04507Y05905D02*
X04543D01*
X04525Y05887D02*
Y05923D01*
X04507Y05505D02*
X04543D01*
X04525Y05487D02*
Y05523D01*
X04507Y05405D02*
X04543D01*
X04525Y05387D02*
Y05423D01*
X04507Y05305D02*
X04543D01*
X04525Y05287D02*
Y05323D01*
X04507Y05205D02*
X04543D01*
X04525Y05187D02*
Y05223D01*
X04607Y05405D02*
X04643D01*
X04625Y05387D02*
Y05423D01*
X04607Y05505D02*
X04643D01*
X04625Y05487D02*
Y05523D01*
X04607Y05605D02*
X04643D01*
X04625Y05587D02*
Y05623D01*
X04607Y05705D02*
X04643D01*
X04625Y05687D02*
Y05723D01*
X04607Y05805D02*
X04643D01*
X04625Y05787D02*
Y05823D01*
X04607Y05905D02*
X04643D01*
X04625Y05887D02*
Y05923D01*
X04612Y0638D02*
X04648D01*
X0463Y06362D02*
Y06398D01*
X04612Y0648D02*
X04648D01*
X0463Y06462D02*
Y06498D01*
X04512Y0698D02*
X04548D01*
X0453Y06962D02*
Y06998D01*
X04512Y0688D02*
X04548D01*
X0453Y06862D02*
Y06898D01*
X04512Y0678D02*
X04548D01*
X0453Y06762D02*
Y06798D01*
X04512Y0708D02*
X04548D01*
X0453Y07062D02*
Y07098D01*
X04512Y0668D02*
X04548D01*
X0453Y06662D02*
Y06698D01*
X04512Y0658D02*
X04548D01*
X0453Y06562D02*
Y06598D01*
X04512Y0648D02*
X04548D01*
X0453Y06462D02*
Y06498D01*
X04512Y0638D02*
X04548D01*
X0453Y06362D02*
Y06398D01*
X04612Y0658D02*
X04648D01*
X0463Y06562D02*
Y06598D01*
X04612Y0668D02*
X04648D01*
X0463Y06662D02*
Y06698D01*
X04612Y0678D02*
X04648D01*
X0463Y06762D02*
Y06798D01*
X04612Y0688D02*
X04648D01*
X0463Y06862D02*
Y06898D01*
X04612Y0698D02*
X04648D01*
X0463Y06962D02*
Y06998D01*
X04612Y0708D02*
X04648D01*
X0463Y07062D02*
Y07098D01*
X047926Y0635D02*
X048374D01*
X04815Y063276D02*
Y063724D01*
X049426Y0635D02*
X049874D01*
X04965Y063276D02*
Y063724D01*
X049326Y0362D02*
X049774D01*
X04955Y035976D02*
Y036424D01*
X047826Y0362D02*
X048274D01*
X04805Y035976D02*
Y036424D01*
X047876Y05175D02*
X048324D01*
X0481Y051526D02*
Y051974D01*
X049376Y05175D02*
X049824D01*
X0496Y051526D02*
Y051974D01*
X049326Y01225D02*
X049774D01*
X04955Y012026D02*
Y012474D01*
X047826Y01225D02*
X048274D01*
X04805Y012026D02*
Y012474D01*
X047826Y02405D02*
X048274D01*
X04805Y023826D02*
Y024274D01*
X049326Y02405D02*
X049774D01*
X04955Y023826D02*
Y024274D01*
X053326Y0122D02*
X053774D01*
X05355Y011976D02*
Y012424D01*
X051826Y0122D02*
X052274D01*
X05205Y011976D02*
Y012424D01*
X051826Y024D02*
X052274D01*
X05205Y023776D02*
Y024224D01*
X053326Y024D02*
X053774D01*
X05355Y023776D02*
Y024224D01*
X053426Y06345D02*
X053874D01*
X05365Y063226D02*
Y063674D01*
X051926Y06345D02*
X052374D01*
X05215Y063226D02*
Y063674D01*
X051826Y03615D02*
X052274D01*
X05205Y035926D02*
Y036374D01*
X053326Y03615D02*
X053774D01*
X05355Y035926D02*
Y036374D01*
X053376Y0517D02*
X053824D01*
X0536Y051476D02*
Y051924D01*
X051876Y0517D02*
X052324D01*
X0521Y051476D02*
Y051924D01*
X053326Y0436D02*
X053774D01*
X05355Y043376D02*
Y043824D01*
X051826Y0436D02*
X052274D01*
X05205Y043376D02*
Y043824D01*
X051826Y01965D02*
X052274D01*
X05205Y019426D02*
Y019874D01*
X053326Y01965D02*
X053774D01*
X05355Y019426D02*
Y019874D01*
X053326Y03145D02*
X053774D01*
X05355Y031226D02*
Y031674D01*
X051826Y03145D02*
X052274D01*
X05205Y031226D02*
Y031674D01*
X051926Y0709D02*
X052374D01*
X05215Y070676D02*
Y071124D01*
X053426Y0709D02*
X053874D01*
X05365Y070676D02*
Y071124D01*
X053376Y05915D02*
X053824D01*
X0536Y058926D02*
Y059374D01*
X051876Y05915D02*
X052324D01*
X0521Y058926D02*
Y059374D01*
X047976Y0709D02*
X048424D01*
X0482Y070676D02*
Y071124D01*
X049476Y0709D02*
X049924D01*
X0497Y070676D02*
Y071124D01*
X049376Y03145D02*
X049824D01*
X0496Y031226D02*
Y031674D01*
X047876Y03145D02*
X048324D01*
X0481Y031226D02*
Y031674D01*
X047876Y01965D02*
X048324D01*
X0481Y019426D02*
Y019874D01*
X049376Y01965D02*
X049824D01*
X0496Y019426D02*
Y019874D01*
X049426Y05915D02*
X049874D01*
X04965Y058926D02*
Y059374D01*
X047926Y05915D02*
X048374D01*
X04815Y058926D02*
Y059374D01*
X047876Y0436D02*
X048324D01*
X0481Y043376D02*
Y043824D01*
X049376Y0436D02*
X049824D01*
X0496Y043376D02*
Y043824D01*
X043523Y0776D02*
X043877D01*
X0437Y077423D02*
Y077777D01*
X043523Y0806D02*
X043877D01*
X0437Y080423D02*
Y080777D01*
X042523Y0811D02*
X042877D01*
X0427Y080923D02*
Y081277D01*
X042523Y0781D02*
X042877D01*
X0427Y077923D02*
Y078277D01*
X043523Y0786D02*
X043877D01*
X0437Y078423D02*
Y078777D01*
X043523Y0796D02*
X043877D01*
X0437Y079423D02*
Y079777D01*
X042523Y0791D02*
X042877D01*
X0427Y078923D02*
Y079277D01*
X042523Y0801D02*
X042877D01*
X0427Y079923D02*
Y080277D01*
X040972Y07625D02*
X041602D01*
X041287Y075935D02*
Y076565D01*
X040972Y08245D02*
X041602D01*
X041287Y082135D02*
Y082765D01*
X03956Y0816D02*
X04084D01*
X0402Y08096D02*
Y08224D01*
X03956Y0771D02*
X04084D01*
X0402Y07646D02*
Y07774D01*
M02*
