%FSTAX24Y24*%
%MOIN*%
G70*
G01*
G75*
G04 Layer_Color=16711935*
%ADD10R,0.0050X0.1000*%
%ADD11R,0.0440X0.0400*%
%ADD12R,0.0400X0.0440*%
%ADD13R,0.0440X0.0400*%
%ADD14R,0.0240X0.0870*%
%ADD15R,0.0240X0.0870*%
%ADD16R,0.1380X0.0480*%
%ADD17C,0.0160*%
%ADD18C,0.0240*%
%ADD19C,0.0120*%
%ADD20C,0.0200*%
%ADD21O,0.0600X0.1200*%
%ADD22O,0.1200X0.0600*%
%ADD23C,0.1250*%
%ADD24C,0.0400*%
%ADD25C,0.0060*%
%ADD26C,0.0050*%
%ADD27C,0.0020*%
%ADD28C,0.0100*%
%ADD29C,0.0034*%
%ADD30R,0.0130X0.1080*%
%ADD31R,0.0520X0.0480*%
%ADD32R,0.0480X0.0520*%
%ADD33R,0.0520X0.0480*%
%ADD34R,0.0320X0.0950*%
%ADD35R,0.0320X0.0950*%
%ADD36R,0.1460X0.0560*%
%ADD37O,0.0680X0.1280*%
%ADD38O,0.1280X0.0680*%
%ADD39C,0.1330*%
%ADD40C,0.0480*%
D37*
X01289Y03078D02*
D03*
X01111D02*
D03*
X01289Y02822D02*
D03*
X01111D02*
D03*
X01664Y02053D02*
D03*
X01486D02*
D03*
X01664Y01797D02*
D03*
X01486D02*
D03*
X01664Y02703D02*
D03*
X01486D02*
D03*
X01664Y02447D02*
D03*
X01486D02*
D03*
X01889Y01478D02*
D03*
X01711D02*
D03*
X01889Y01222D02*
D03*
X01711D02*
D03*
X01964Y02378D02*
D03*
X01786D02*
D03*
X01964Y02122D02*
D03*
X01786D02*
D03*
X01889Y03278D02*
D03*
X01711D02*
D03*
X01889Y03022D02*
D03*
X01711D02*
D03*
X02289Y01478D02*
D03*
X02111D02*
D03*
X02289Y01222D02*
D03*
X02111D02*
D03*
X02464Y01878D02*
D03*
X02286D02*
D03*
X02464Y01622D02*
D03*
X02286D02*
D03*
X02464Y02378D02*
D03*
X02286D02*
D03*
X02464Y02122D02*
D03*
X02286D02*
D03*
X02464Y02878D02*
D03*
X02286D02*
D03*
X02464Y02622D02*
D03*
X02286D02*
D03*
X02289Y03278D02*
D03*
X02111D02*
D03*
X02289Y03022D02*
D03*
X02111D02*
D03*
X02839Y01503D02*
D03*
X02661D02*
D03*
X02839Y01247D02*
D03*
X02661D02*
D03*
X02964Y02378D02*
D03*
X02786D02*
D03*
X02964Y02122D02*
D03*
X02786D02*
D03*
X03439Y02378D02*
D03*
X03261D02*
D03*
X03439Y02122D02*
D03*
X03261D02*
D03*
X03289Y01603D02*
D03*
X03111D02*
D03*
X03289Y01347D02*
D03*
X03111D02*
D03*
X02839Y03253D02*
D03*
X02661D02*
D03*
X02839Y02997D02*
D03*
X02661D02*
D03*
X03289Y03128D02*
D03*
X03111D02*
D03*
X03289Y02872D02*
D03*
X03111D02*
D03*
X03764Y01578D02*
D03*
X03586D02*
D03*
X03764Y01322D02*
D03*
X03586D02*
D03*
X03864Y02378D02*
D03*
X03686D02*
D03*
X03864Y02122D02*
D03*
X03686D02*
D03*
X03764Y03178D02*
D03*
X03586D02*
D03*
X03764Y02922D02*
D03*
X03586D02*
D03*
X01575Y03355D02*
D03*
X01475D02*
D03*
X01375D02*
D03*
X01275D02*
D03*
X01289Y01678D02*
D03*
X01111D02*
D03*
X01289Y01422D02*
D03*
X01111D02*
D03*
D38*
X04515Y024D02*
D03*
Y023D02*
D03*
Y022D02*
D03*
Y021D02*
D03*
Y02D02*
D03*
D39*
X01225Y0225D02*
D03*
X04525Y028D02*
D03*
Y017D02*
D03*
D40*
X0401Y0257D02*
D03*
X0396D02*
D03*
X0391Y0277D02*
D03*
X0406Y0245D02*
D03*
X0389Y03215D02*
D03*
X0416Y0297D02*
D03*
X04185Y01605D02*
D03*
X0415Y0286D02*
D03*
X0424Y0284D02*
D03*
X0432D02*
D03*
X0438Y0296D02*
D03*
X0422Y03455D02*
D03*
X0457Y02945D02*
D03*
X0446Y0314D02*
D03*
M02*
