%FSTAX24Y24*%
%MOIN*%
G70*
G01*
G75*
G04 Layer_Color=8421504*
%ADD10R,0.0050X0.1000*%
%ADD11R,0.0440X0.0400*%
%ADD12R,0.0400X0.0440*%
%ADD13R,0.0440X0.0400*%
%ADD14R,0.0240X0.0870*%
%ADD15R,0.0240X0.0870*%
%ADD16R,0.1380X0.0480*%
%ADD17C,0.0160*%
%ADD18C,0.0240*%
%ADD19C,0.0120*%
%ADD20C,0.0200*%
%ADD21O,0.0600X0.1200*%
%ADD22O,0.1200X0.0600*%
%ADD23C,0.1250*%
%ADD24C,0.0400*%
%ADD25C,0.0060*%
%ADD26C,0.0050*%
%ADD27C,0.0020*%
%ADD28C,0.0100*%
%ADD29C,0.0034*%
D10*
X042609Y013399D02*
D03*
D11*
X04149Y03385D02*
D03*
X040815D02*
D03*
X04291D02*
D03*
X043585D02*
D03*
X04524Y03045D02*
D03*
X044565D02*
D03*
D12*
X04215Y02486D02*
D03*
Y025535D02*
D03*
D13*
X0432Y02084D02*
D03*
Y020165D02*
D03*
X0414Y02334D02*
D03*
Y022665D02*
D03*
X0405Y02266D02*
D03*
Y023335D02*
D03*
X03955Y02266D02*
D03*
Y023335D02*
D03*
D14*
X0391Y02665D02*
D03*
X0396D02*
D03*
X0401D02*
D03*
X0406D02*
D03*
X0411D02*
D03*
X0416D02*
D03*
X0421D02*
D03*
X0426D02*
D03*
X0431D02*
D03*
X0436D02*
D03*
X0421Y03045D02*
D03*
X0416D02*
D03*
X0411D02*
D03*
X0406D02*
D03*
X0401D02*
D03*
X0396D02*
D03*
X0391D02*
D03*
X0426D02*
D03*
X0431D02*
D03*
D15*
X0436D02*
D03*
D16*
X041067Y03255D02*
D03*
X04324D02*
D03*
M02*
