%FSTAX24Y24*%
%MOIN*%
G70*
G01*
G75*
G04 Layer_Color=32768*
%ADD10R,0.0050X0.1000*%
%ADD11R,0.0440X0.0400*%
%ADD12R,0.0400X0.0440*%
%ADD13R,0.0440X0.0400*%
%ADD14R,0.0240X0.0870*%
%ADD15R,0.0240X0.0870*%
%ADD16R,0.1380X0.0480*%
%ADD17C,0.0160*%
%ADD18C,0.0240*%
%ADD19C,0.0120*%
%ADD20C,0.0200*%
%ADD21O,0.0600X0.1200*%
%ADD22O,0.1200X0.0600*%
%ADD23C,0.1250*%
%ADD24C,0.0400*%
%ADD25C,0.0060*%
%ADD26C,0.0050*%
%ADD27C,0.0020*%
%ADD28C,0.0100*%
%ADD29C,0.0034*%
%ADD30R,0.0130X0.1080*%
%ADD31R,0.0520X0.0480*%
%ADD32R,0.0480X0.0520*%
%ADD33R,0.0520X0.0480*%
%ADD34R,0.0320X0.0950*%
%ADD35R,0.0320X0.0950*%
%ADD36R,0.1460X0.0560*%
%ADD37O,0.0680X0.1280*%
%ADD38O,0.1280X0.0680*%
%ADD39C,0.1330*%
%ADD40C,0.0480*%
%ADD41C,0.0005*%
%ADD42C,0.0000*%
%ADD43R,0.0159X0.0238*%
%ADD44R,0.0238X0.0159*%
%ADD45R,0.0318X0.0159*%
%ADD46C,0.0040*%
%ADD47R,0.0200X0.0375*%
%ADD48R,0.0197X0.0375*%
%ADD49R,0.0375X0.0200*%
%ADD50R,0.0375X0.0197*%
%ADD51R,0.0340X0.0160*%
D27*
X04057Y033463D02*
Y03424D01*
Y033463D02*
X04173D01*
Y03424D01*
X04057D02*
X04173D01*
X04383Y03346D02*
Y034237D01*
X04267D02*
X04383D01*
X04267Y03346D02*
Y034237D01*
Y03346D02*
X04383D01*
X041763Y02578D02*
X04254D01*
X041763Y02462D02*
Y02578D01*
Y02462D02*
X04254D01*
Y02578D01*
X04281Y01992D02*
X043587D01*
Y02108D01*
X04281D02*
X043587D01*
X04281Y01992D02*
Y02108D01*
X04101Y02242D02*
X041787D01*
Y02358D01*
X04101D02*
X041787D01*
X04101Y02242D02*
Y02358D01*
X040113Y02358D02*
X04089D01*
X040113Y02242D02*
Y02358D01*
Y02242D02*
X04089D01*
Y02358D01*
X039163D02*
X03994D01*
X039163Y02242D02*
Y02358D01*
Y02242D02*
X03994D01*
Y02358D01*
X04432Y030063D02*
Y03084D01*
Y030063D02*
X04548D01*
Y03084D01*
X04432D02*
X04548D01*
M02*
