%FSTAX24Y24*%
%MOIN*%
G70*
G01*
G75*
G04 Layer_Physical_Order=2*
G04 Layer_Color=16711680*
%ADD10R,0.0050X0.1000*%
%ADD11R,0.0440X0.0400*%
%ADD12R,0.0400X0.0440*%
%ADD13R,0.0440X0.0400*%
%ADD14R,0.0240X0.0870*%
%ADD15R,0.0240X0.0870*%
%ADD16R,0.1380X0.0480*%
%ADD17C,0.0160*%
%ADD18C,0.0240*%
%ADD19C,0.0120*%
%ADD20C,0.0200*%
%ADD21O,0.0600X0.1200*%
%ADD22O,0.1200X0.0600*%
%ADD23C,0.1250*%
%ADD24C,0.0400*%
D17*
X0401Y0253D02*
Y0257D01*
X0396Y0253D02*
Y0257D01*
X04085Y02895D02*
X0416Y0297D01*
X04085Y0281D02*
Y02895D01*
X0424Y0284D02*
Y0298D01*
X0389Y0333D02*
X0424Y0298D01*
X04595Y022D02*
X0462Y02225D01*
Y02895D01*
X0424Y0104D02*
X0462Y0142D01*
X0443Y0248D02*
Y0285D01*
X046Y021D02*
X0462Y0208D01*
Y0142D02*
Y0208D01*
D18*
X0189Y0148D02*
Y0149D01*
X0191Y0147D01*
X0193D01*
X0203Y0137D01*
X0239D01*
X0254Y0152D01*
X0401Y0195D02*
Y0253D01*
X0388Y0182D02*
X0401Y0195D01*
X027Y0182D02*
X0388D01*
X0254Y0166D02*
X027Y0182D01*
X0254Y0152D02*
Y0166D01*
X02464Y01622D02*
Y01878D01*
X0396Y0197D02*
Y0253D01*
X03868Y01878D02*
X0396Y0197D01*
X02464Y01878D02*
X03868D01*
X0361Y0277D02*
X0391D01*
X0344Y026D02*
X0361Y0277D01*
X0344Y0238D02*
Y026D01*
X02965Y02379D02*
Y0238D01*
Y02675D01*
X02875Y02765D02*
X02965Y02675D01*
X02735Y02765D02*
X02875D01*
X02478Y03022D02*
X02735Y02765D01*
X02289Y03022D02*
X02478D01*
X03764Y02922D02*
Y03178D01*
X0406Y0193D02*
Y0245D01*
X0389Y0176D02*
X0406Y0193D01*
X0272Y0176D02*
X0389D01*
X0259Y0163D02*
X0272Y0176D01*
X0259Y0149D02*
Y0163D01*
X0242Y0132D02*
X0259Y0149D01*
X0155Y0133D02*
X0242Y0132D01*
X01458Y01422D02*
X0155Y0133D01*
X01289Y01422D02*
X01458D01*
X01485Y02054D02*
X01486Y02053D01*
X01485Y02054D02*
Y02175D01*
X0136Y023D02*
X01485Y02175D01*
X0136Y023D02*
Y0254D01*
X014Y0258D01*
X01785D01*
X01825Y0262D01*
X02284D02*
X02286Y02622D01*
X01825Y0262D02*
X02284D01*
X03261Y02295D02*
Y02378D01*
X03211Y02245D02*
X03261Y02295D01*
X02325Y02245D02*
X03211D01*
X02286Y02284D02*
X02325Y02245D01*
X02286Y02284D02*
Y02378D01*
X03259Y0238D02*
X03261Y02378D01*
X03135Y0238D02*
X03259D01*
X03025Y0249D02*
X03135Y0238D01*
X03025Y0249D02*
Y02965D01*
X0306Y03D01*
X03165D01*
X032Y03035D01*
Y03225D01*
X0325Y03275D01*
X03825D01*
X03885Y03215D01*
X0389D01*
X04085Y0281D02*
X04135Y0276D01*
Y01925D02*
Y0276D01*
X0391Y017D02*
X04135Y01925D01*
X0362Y017D02*
X0391D01*
X03586Y01666D02*
X0362Y017D01*
X03586Y01578D02*
Y01666D01*
X02284Y0188D02*
X02286Y01878D01*
X0216Y0188D02*
X02284D01*
X0212Y0192D02*
X0216Y0188D01*
X0162Y0192D02*
X0212D01*
X0158Y0196D02*
X0162Y0192D01*
X0158Y0196D02*
Y022D01*
X01486Y02294D02*
X0158Y022D01*
X01486Y02294D02*
Y02447D01*
X0238Y0178D02*
Y01995D01*
X02335Y01735D02*
X0238Y0178D01*
X02165Y01735D02*
X02335D01*
X02111Y01681D02*
X02165Y01735D01*
X02111Y01478D02*
Y01681D01*
X02785Y02035D02*
Y0212D01*
X02745Y01995D02*
X02785Y02035D01*
X0238Y01995D02*
X02745D01*
X0182D02*
X0238D01*
X01786Y02029D02*
X0182Y01995D01*
X01786Y02029D02*
Y02122D01*
X04185Y01605D02*
X0419Y0282D01*
X03155Y0333D02*
X0389D01*
X02935Y03105D02*
X03155Y0333D01*
X0254Y031D02*
X02935Y03105D01*
X0252Y0312D02*
X0254Y031D01*
X0152Y0312D02*
X0252D01*
X01375Y03265D02*
X0152Y0312D01*
X01375Y03265D02*
Y03355D01*
X0432Y0284D02*
Y0304D01*
X03975Y03385D02*
X0432Y0304D01*
X03105Y03385D02*
X03975D01*
X0288Y0316D02*
X03105Y03385D01*
X026Y0316D02*
X0288D01*
X0258Y0318D02*
X026Y0316D01*
X0156Y0318D02*
X0258D01*
X01475Y03265D02*
X0156Y0318D01*
X01475Y03265D02*
Y03355D01*
X0438Y0282D02*
Y0296D01*
X0436Y028D02*
X0438Y0282D01*
X0436Y0206D02*
Y028D01*
Y0206D02*
X0442Y02D01*
X04515D01*
X0162Y0346D02*
X04215D01*
X01575Y03415D02*
X0162Y0346D01*
X01575Y03355D02*
Y03415D01*
X04215Y0346D02*
X0422Y03455D01*
Y03335D02*
Y03455D01*
X0457Y02945D02*
X0462Y02895D01*
X0422Y03335D02*
X0427Y03285D01*
X04435D01*
X0457Y0315D01*
Y02945D02*
Y0315D01*
X04515Y022D02*
X04595D01*
X0442Y0212D02*
X0444Y021D01*
X0442Y0212D02*
Y0247D01*
X0443Y0248D01*
Y0285D02*
X0446Y0288D01*
Y0314D01*
X0444Y021D02*
X04515D01*
X046D01*
X0127Y0336D02*
X01275Y03355D01*
X0124Y0336D02*
X0127D01*
X0104Y0316D02*
X0124Y0336D01*
X0104Y0212D02*
Y0316D01*
Y0212D02*
X01195Y01965D01*
X01375Y0104D02*
X0424D01*
X01195Y0122D02*
X01375Y0104D01*
X01195Y0122D02*
Y01965D01*
D19*
X01889Y01478D02*
X0189Y0148D01*
X02964Y02378D02*
X0297Y0238D01*
X02965D02*
X0297D01*
X02785Y0212D02*
X0279D01*
X02786Y02122D02*
X0279Y0212D01*
D20*
X03439Y02378D02*
X0344Y0238D01*
X0415Y0286D02*
X0419Y0282D01*
D21*
X01289Y03078D02*
D03*
X01111D02*
D03*
X01289Y02822D02*
D03*
X01111D02*
D03*
X01664Y02053D02*
D03*
X01486D02*
D03*
X01664Y01797D02*
D03*
X01486D02*
D03*
X01664Y02703D02*
D03*
X01486D02*
D03*
X01664Y02447D02*
D03*
X01486D02*
D03*
X01889Y01478D02*
D03*
X01711D02*
D03*
X01889Y01222D02*
D03*
X01711D02*
D03*
X01964Y02378D02*
D03*
X01786D02*
D03*
X01964Y02122D02*
D03*
X01786D02*
D03*
X01889Y03278D02*
D03*
X01711D02*
D03*
X01889Y03022D02*
D03*
X01711D02*
D03*
X02289Y01478D02*
D03*
X02111D02*
D03*
X02289Y01222D02*
D03*
X02111D02*
D03*
X02464Y01878D02*
D03*
X02286D02*
D03*
X02464Y01622D02*
D03*
X02286D02*
D03*
X02464Y02378D02*
D03*
X02286D02*
D03*
X02464Y02122D02*
D03*
X02286D02*
D03*
X02464Y02878D02*
D03*
X02286D02*
D03*
X02464Y02622D02*
D03*
X02286D02*
D03*
X02289Y03278D02*
D03*
X02111D02*
D03*
X02289Y03022D02*
D03*
X02111D02*
D03*
X02839Y01503D02*
D03*
X02661D02*
D03*
X02839Y01247D02*
D03*
X02661D02*
D03*
X02964Y02378D02*
D03*
X02786D02*
D03*
X02964Y02122D02*
D03*
X02786D02*
D03*
X03439Y02378D02*
D03*
X03261D02*
D03*
X03439Y02122D02*
D03*
X03261D02*
D03*
X03289Y01603D02*
D03*
X03111D02*
D03*
X03289Y01347D02*
D03*
X03111D02*
D03*
X02839Y03253D02*
D03*
X02661D02*
D03*
X02839Y02997D02*
D03*
X02661D02*
D03*
X03289Y03128D02*
D03*
X03111D02*
D03*
X03289Y02872D02*
D03*
X03111D02*
D03*
X03764Y01578D02*
D03*
X03586D02*
D03*
X03764Y01322D02*
D03*
X03586D02*
D03*
X03864Y02378D02*
D03*
X03686D02*
D03*
X03864Y02122D02*
D03*
X03686D02*
D03*
X03764Y03178D02*
D03*
X03586D02*
D03*
X03764Y02922D02*
D03*
X03586D02*
D03*
X01575Y03355D02*
D03*
X01475D02*
D03*
X01375D02*
D03*
X01275D02*
D03*
X01289Y01678D02*
D03*
X01111D02*
D03*
X01289Y01422D02*
D03*
X01111D02*
D03*
D22*
X04515Y024D02*
D03*
Y023D02*
D03*
Y022D02*
D03*
Y021D02*
D03*
Y02D02*
D03*
D23*
X01225Y0225D02*
D03*
X04525Y028D02*
D03*
Y017D02*
D03*
D24*
X0401Y0257D02*
D03*
X0396D02*
D03*
X0391Y0277D02*
D03*
X0406Y0245D02*
D03*
X0389Y03215D02*
D03*
X0416Y0297D02*
D03*
X04185Y01605D02*
D03*
X0415Y0286D02*
D03*
X0424Y0284D02*
D03*
X0432D02*
D03*
X0438Y0296D02*
D03*
X0422Y03455D02*
D03*
X0457Y02945D02*
D03*
X0446Y0314D02*
D03*
M02*
