%FSTAX24Y24*%
%MOIN*%
G70*
G01*
G75*
G04 Layer_Color=16711935*
%ADD10R,0.0050X0.1000*%
%ADD11R,0.0440X0.0400*%
%ADD12R,0.0400X0.0440*%
%ADD13R,0.0440X0.0400*%
%ADD14R,0.0240X0.0870*%
%ADD15R,0.0240X0.0870*%
%ADD16R,0.1380X0.0480*%
%ADD17C,0.0160*%
%ADD18C,0.0240*%
%ADD19C,0.0120*%
%ADD20C,0.0200*%
%ADD21O,0.0600X0.1200*%
%ADD22O,0.1200X0.0600*%
%ADD23C,0.1250*%
%ADD24C,0.0400*%
%ADD25C,0.0060*%
%ADD26C,0.0050*%
%ADD27C,0.0020*%
%ADD28C,0.0100*%
%ADD29C,0.0034*%
%ADD30R,0.0130X0.1080*%
%ADD31R,0.0520X0.0480*%
%ADD32R,0.0480X0.0520*%
%ADD33R,0.0520X0.0480*%
%ADD34R,0.0320X0.0950*%
%ADD35R,0.0320X0.0950*%
%ADD36R,0.1460X0.0560*%
%ADD37O,0.0680X0.1280*%
%ADD38O,0.1280X0.0680*%
%ADD39C,0.1330*%
%ADD40C,0.0480*%
%ADD41C,0.0005*%
%ADD42C,0.0000*%
D41*
X000986Y000506D02*
G03*
X000986Y000506I-00001J0D01*
G01*
Y000514D02*
G03*
X000986Y000514I-00001J0D01*
G01*
Y00043D02*
G03*
X000986Y00043I-00001J0D01*
G01*
Y000438D02*
G03*
X000986Y000438I-00001J0D01*
G01*
X00096Y00043D02*
G03*
X00096Y00043I-00001J0D01*
G01*
Y000438D02*
G03*
X00096Y000438I-00001J0D01*
G01*
X000935Y00043D02*
G03*
X000935Y00043I-00001J0D01*
G01*
Y000438D02*
G03*
X000935Y000438I-00001J0D01*
G01*
X000909Y00043D02*
G03*
X000909Y00043I-00001J0D01*
G01*
Y000438D02*
G03*
X000909Y000438I-00001J0D01*
G01*
X000884Y00043D02*
G03*
X000884Y00043I-00001J0D01*
G01*
Y000438D02*
G03*
X000884Y000438I-00001J0D01*
G01*
X000859Y00043D02*
G03*
X000859Y00043I-00001J0D01*
G01*
Y000438D02*
G03*
X000859Y000438I-00001J0D01*
G01*
X000808Y00043D02*
G03*
X000808Y00043I-00001J0D01*
G01*
Y000438D02*
G03*
X000808Y000438I-00001J0D01*
G01*
X000782Y00043D02*
G03*
X000782Y00043I-00001J0D01*
G01*
Y000438D02*
G03*
X000782Y000438I-00001J0D01*
G01*
X000757Y00043D02*
G03*
X000757Y00043I-00001J0D01*
G01*
Y000438D02*
G03*
X000757Y000438I-00001J0D01*
G01*
X000732Y00043D02*
G03*
X000732Y00043I-00001J0D01*
G01*
Y000438D02*
G03*
X000732Y000438I-00001J0D01*
G01*
X000706Y00043D02*
G03*
X000706Y00043I-00001J0D01*
G01*
Y000438D02*
G03*
X000706Y000438I-00001J0D01*
G01*
X000681Y00043D02*
G03*
X000681Y00043I-00001J0D01*
G01*
Y000438D02*
G03*
X000681Y000438I-00001J0D01*
G01*
X000655Y00043D02*
G03*
X000655Y00043I-00001J0D01*
G01*
Y000438D02*
G03*
X000655Y000438I-00001J0D01*
G01*
Y000506D02*
G03*
X000655Y000506I-00001J0D01*
G01*
Y000514D02*
G03*
X000655Y000514I-00001J0D01*
G01*
X000681Y000506D02*
G03*
X000681Y000506I-00001J0D01*
G01*
Y000514D02*
G03*
X000681Y000514I-00001J0D01*
G01*
X000706Y000506D02*
G03*
X000706Y000506I-00001J0D01*
G01*
Y000514D02*
G03*
X000706Y000514I-00001J0D01*
G01*
X000732Y000506D02*
G03*
X000732Y000506I-00001J0D01*
G01*
Y000514D02*
G03*
X000732Y000514I-00001J0D01*
G01*
X000757Y000506D02*
G03*
X000757Y000506I-00001J0D01*
G01*
Y000514D02*
G03*
X000757Y000514I-00001J0D01*
G01*
X000782Y000506D02*
G03*
X000782Y000506I-00001J0D01*
G01*
Y000514D02*
G03*
X000782Y000514I-00001J0D01*
G01*
X000833Y000506D02*
G03*
X000833Y000506I-00001J0D01*
G01*
Y000514D02*
G03*
X000833Y000514I-00001J0D01*
G01*
X000859Y000506D02*
G03*
X000859Y000506I-00001J0D01*
G01*
Y000514D02*
G03*
X000859Y000514I-00001J0D01*
G01*
X000884Y000506D02*
G03*
X000884Y000506I-00001J0D01*
G01*
Y000514D02*
G03*
X000884Y000514I-00001J0D01*
G01*
X000909Y000506D02*
G03*
X000909Y000506I-00001J0D01*
G01*
Y000514D02*
G03*
X000909Y000514I-00001J0D01*
G01*
X000935Y000506D02*
G03*
X000935Y000506I-00001J0D01*
G01*
Y000514D02*
G03*
X000935Y000514I-00001J0D01*
G01*
X00096Y000506D02*
G03*
X00096Y000506I-00001J0D01*
G01*
Y000514D02*
G03*
X00096Y000514I-00001J0D01*
G01*
X000619Y000811D02*
G03*
X000619Y000811I-00001J0D01*
G01*
X000645D02*
G03*
X000645Y000811I-00001J0D01*
G01*
X000711Y000329D02*
G03*
X000711Y000329I-00001J0D01*
G01*
X000736D02*
G03*
X000736Y000329I-00001J0D01*
G01*
X001097Y000379D02*
G03*
X001097Y000379I-000015J0D01*
G01*
X000586Y000329D02*
G03*
X000586Y000329I-000025J0D01*
G01*
X000812D02*
G03*
X000812Y000329I-00001J0D01*
G01*
X00067Y000811D02*
G03*
X00067Y000811I-00001J0D01*
G01*
X000721D02*
G03*
X000721Y000811I-00001J0D01*
G01*
X000746D02*
G03*
X000746Y000811I-00001J0D01*
G01*
X000772D02*
G03*
X000772Y000811I-00001J0D01*
G01*
X000797D02*
G03*
X000797Y000811I-00001J0D01*
G01*
X000822D02*
G03*
X000822Y000811I-00001J0D01*
G01*
X000848D02*
G03*
X000848Y000811I-00001J0D01*
G01*
X000888D02*
G03*
X000888Y000811I-00001J0D01*
G01*
X000914D02*
G03*
X000914Y000811I-00001J0D01*
G01*
X000939D02*
G03*
X000939Y000811I-00001J0D01*
G01*
X000965D02*
G03*
X000965Y000811I-00001J0D01*
G01*
X00099D02*
G03*
X00099Y000811I-00001J0D01*
G01*
X001015D02*
G03*
X001015Y000811I-00001J0D01*
G01*
X001041D02*
G03*
X001041Y000811I-00001J0D01*
G01*
X001066D02*
G03*
X001066Y000811I-00001J0D01*
G01*
X000761Y000329D02*
G03*
X000761Y000329I-00001J0D01*
G01*
X000787D02*
G03*
X000787Y000329I-00001J0D01*
G01*
X000888D02*
G03*
X000888Y000329I-00001J0D01*
G01*
X00099D02*
G03*
X00099Y000329I-00001J0D01*
G01*
X000965D02*
G03*
X000965Y000329I-00001J0D01*
G01*
X000939D02*
G03*
X000939Y000329I-00001J0D01*
G01*
X001015D02*
G03*
X001015Y000329I-00001J0D01*
G01*
X001041D02*
G03*
X001041Y000329I-00001J0D01*
G01*
X001066D02*
G03*
X001066Y000329I-00001J0D01*
G01*
X000939Y000743D02*
G03*
X000939Y000743I-00001J0D01*
G01*
X000965D02*
G03*
X000965Y000743I-00001J0D01*
G01*
X00099D02*
G03*
X00099Y000743I-00001J0D01*
G01*
X001015D02*
G03*
X001015Y000743I-00001J0D01*
G01*
X000297Y000548D02*
G03*
X000297Y000548I-000006J0D01*
G01*
Y000558D02*
G03*
X000297Y000558I-000006J0D01*
G01*
X000284Y000579D02*
G03*
X000284Y000579I-000006J0D01*
G01*
Y000589D02*
G03*
X000284Y000589I-000006J0D01*
G01*
X00031Y000579D02*
G03*
X00031Y000579I-000006J0D01*
G01*
Y000589D02*
G03*
X00031Y000589I-000006J0D01*
G01*
X000939Y000354D02*
G03*
X000939Y000354I-00001J0D01*
G01*
X000965D02*
G03*
X000965Y000354I-00001J0D01*
G01*
X00099D02*
G03*
X00099Y000354I-00001J0D01*
G01*
X001015D02*
G03*
X001015Y000354I-00001J0D01*
G01*
X001041D02*
G03*
X001041Y000354I-00001J0D01*
G01*
X001066D02*
G03*
X001066Y000354I-00001J0D01*
G01*
X000888Y000565D02*
G03*
X000888Y000565I-00001J0D01*
G01*
Y000591D02*
G03*
X000888Y000591I-00001J0D01*
G01*
Y000616D02*
G03*
X000888Y000616I-00001J0D01*
G01*
X000587Y000817D02*
G03*
X000587Y000817I-00001J0D01*
G01*
Y000791D02*
G03*
X000587Y000791I-00001J0D01*
G01*
X000561Y000817D02*
G03*
X000561Y000817I-00001J0D01*
G01*
Y000791D02*
G03*
X000561Y000791I-00001J0D01*
G01*
X000536Y000817D02*
G03*
X000536Y000817I-00001J0D01*
G01*
Y000791D02*
G03*
X000536Y000791I-00001J0D01*
G01*
X000511Y000817D02*
G03*
X000511Y000817I-00001J0D01*
G01*
Y000791D02*
G03*
X000511Y000791I-00001J0D01*
G01*
X000485Y000817D02*
G03*
X000485Y000817I-00001J0D01*
G01*
Y000791D02*
G03*
X000485Y000791I-00001J0D01*
G01*
X00046Y000817D02*
G03*
X00046Y000817I-00001J0D01*
G01*
Y000791D02*
G03*
X00046Y000791I-00001J0D01*
G01*
X000434Y000817D02*
G03*
X000434Y000817I-00001J0D01*
G01*
Y000791D02*
G03*
X000434Y000791I-00001J0D01*
G01*
X000409Y000817D02*
G03*
X000409Y000817I-00001J0D01*
G01*
Y000791D02*
G03*
X000409Y000791I-00001J0D01*
G01*
X000384Y000817D02*
G03*
X000384Y000817I-00001J0D01*
G01*
Y000791D02*
G03*
X000384Y000791I-00001J0D01*
G01*
X000358Y000817D02*
G03*
X000358Y000817I-00001J0D01*
G01*
Y000791D02*
G03*
X000358Y000791I-00001J0D01*
G01*
X000333D02*
G03*
X000333Y000791I-00001J0D01*
G01*
X000307Y000817D02*
G03*
X000307Y000817I-00001J0D01*
G01*
Y000791D02*
G03*
X000307Y000791I-00001J0D01*
G01*
X000282Y000817D02*
G03*
X000282Y000817I-00001J0D01*
G01*
Y000791D02*
G03*
X000282Y000791I-00001J0D01*
G01*
X00039Y00032D02*
G03*
X00039Y00032I-000018J0D01*
G01*
X000375D02*
G03*
X000375Y00032I-000018J0D01*
G01*
X000351Y000363D02*
G03*
X000351Y000363I-000018J0D01*
G01*
Y000379D02*
G03*
X000351Y000379I-000018J0D01*
G01*
X000965Y000616D02*
G03*
X000965Y000616I-00001J0D01*
G01*
X000939Y000591D02*
G03*
X000939Y000591I-00001J0D01*
G01*
X000965D02*
G03*
X000965Y000591I-00001J0D01*
G01*
X000939Y000565D02*
G03*
X000939Y000565I-00001J0D01*
G01*
X000965D02*
G03*
X000965Y000565I-00001J0D01*
G01*
X000281Y000441D02*
G03*
X000281Y000441I-000012J0D01*
G01*
Y000375D02*
G03*
X000281Y000375I-000012J0D01*
G01*
X000825Y00056D02*
G03*
X000825Y00056I-000009J0D01*
G01*
X000818D02*
G03*
X000818Y00056I-000009J0D01*
G01*
X000825Y000586D02*
G03*
X000825Y000586I-000009J0D01*
G01*
X000818D02*
G03*
X000818Y000586I-000009J0D01*
G01*
X000825Y000611D02*
G03*
X000825Y000611I-000009J0D01*
G01*
X000818D02*
G03*
X000818Y000611I-000009J0D01*
G01*
X000825Y000636D02*
G03*
X000825Y000636I-000009J0D01*
G01*
X000818D02*
G03*
X000818Y000636I-000009J0D01*
G01*
X000825Y000662D02*
G03*
X000825Y000662I-000009J0D01*
G01*
X000818D02*
G03*
X000818Y000662I-000009J0D01*
G01*
X000825Y000687D02*
G03*
X000825Y000687I-000009J0D01*
G01*
X000818D02*
G03*
X000818Y000687I-000009J0D01*
G01*
X000825Y000713D02*
G03*
X000825Y000713I-000009J0D01*
G01*
X000818D02*
G03*
X000818Y000713I-000009J0D01*
G01*
X0008Y00056D02*
G03*
X0008Y00056I-000009J0D01*
G01*
X000793D02*
G03*
X000793Y00056I-000009J0D01*
G01*
X0008Y000586D02*
G03*
X0008Y000586I-000009J0D01*
G01*
X000793D02*
G03*
X000793Y000586I-000009J0D01*
G01*
X0008Y000611D02*
G03*
X0008Y000611I-000009J0D01*
G01*
X000793D02*
G03*
X000793Y000611I-000009J0D01*
G01*
X0008Y000636D02*
G03*
X0008Y000636I-000009J0D01*
G01*
X000793D02*
G03*
X000793Y000636I-000009J0D01*
G01*
X0008Y000662D02*
G03*
X0008Y000662I-000009J0D01*
G01*
X000793D02*
G03*
X000793Y000662I-000009J0D01*
G01*
X0008Y000687D02*
G03*
X0008Y000687I-000009J0D01*
G01*
X000793D02*
G03*
X000793Y000687I-000009J0D01*
G01*
X0008Y000713D02*
G03*
X0008Y000713I-000009J0D01*
G01*
X000793D02*
G03*
X000793Y000713I-000009J0D01*
G01*
X001101Y000686D02*
G03*
X001101Y000686I-00001J0D01*
G01*
Y000711D02*
G03*
X001101Y000711I-00001J0D01*
G01*
Y000737D02*
G03*
X001101Y000737I-00001J0D01*
G01*
Y000788D02*
G03*
X001101Y000788I-00001J0D01*
G01*
Y000813D02*
G03*
X001101Y000813I-00001J0D01*
G01*
X000518Y000478D02*
G03*
X000518Y000478I-00001J0D01*
G01*
Y000452D02*
G03*
X000518Y000452I-00001J0D01*
G01*
Y000427D02*
G03*
X000518Y000427I-00001J0D01*
G01*
Y000402D02*
G03*
X000518Y000402I-00001J0D01*
G01*
Y000376D02*
G03*
X000518Y000376I-00001J0D01*
G01*
Y000351D02*
G03*
X000518Y000351I-00001J0D01*
G01*
Y000325D02*
G03*
X000518Y000325I-00001J0D01*
G01*
Y0003D02*
G03*
X000518Y0003I-00001J0D01*
G01*
X000271Y000471D02*
G03*
X000271Y000471I-000008J0D01*
G01*
X000288D02*
G03*
X000288Y000471I-000008J0D01*
G01*
X000304D02*
G03*
X000304Y000471I-000008J0D01*
G01*
X000493Y000478D02*
G03*
X000493Y000478I-00001J0D01*
G01*
Y000452D02*
G03*
X000493Y000452I-00001J0D01*
G01*
Y000427D02*
G03*
X000493Y000427I-00001J0D01*
G01*
Y000402D02*
G03*
X000493Y000402I-00001J0D01*
G01*
Y000376D02*
G03*
X000493Y000376I-00001J0D01*
G01*
Y000351D02*
G03*
X000493Y000351I-00001J0D01*
G01*
Y000325D02*
G03*
X000493Y000325I-00001J0D01*
G01*
Y0003D02*
G03*
X000493Y0003I-00001J0D01*
G01*
X000985Y000506D02*
Y000514D01*
X000965Y000506D02*
X000985D01*
X000965D02*
Y000514D01*
X000985D01*
Y00043D02*
Y000438D01*
X000965Y00043D02*
X000985D01*
X000965D02*
Y000438D01*
X000985D01*
X00096Y00043D02*
Y000438D01*
X00094Y00043D02*
X00096D01*
X00094D02*
Y000438D01*
X00096D01*
X000935Y00043D02*
Y000438D01*
X000914Y00043D02*
X000935D01*
X000914D02*
Y000438D01*
X000935D01*
X000909Y00043D02*
Y000438D01*
X000889Y00043D02*
X000909D01*
X000889D02*
Y000438D01*
X000909D01*
X000884Y00043D02*
Y000438D01*
X000864Y00043D02*
X000884D01*
X000864D02*
Y000438D01*
X000884D01*
X000859Y00043D02*
Y000438D01*
X000838Y00043D02*
X000859D01*
X000838D02*
Y000438D01*
X000859D01*
X000813Y00042D02*
Y000448D01*
X000833D01*
Y00042D02*
Y000448D01*
X000813Y00042D02*
X000833D01*
X000808Y00043D02*
Y000438D01*
X000787Y00043D02*
X000808D01*
X000787D02*
Y000438D01*
X000808D01*
X000782Y00043D02*
Y000438D01*
X000762Y00043D02*
X000782D01*
X000762D02*
Y000438D01*
X000782D01*
X000757Y00043D02*
Y000438D01*
X000737Y00043D02*
X000757D01*
X000737D02*
Y000438D01*
X000757D01*
X000732Y00043D02*
Y000438D01*
X000711Y00043D02*
X000732D01*
X000711D02*
Y000438D01*
X000732D01*
X000706Y00043D02*
Y000438D01*
X000686Y00043D02*
X000706D01*
X000686D02*
Y000438D01*
X000706D01*
X000681Y00043D02*
Y000438D01*
X00066Y00043D02*
X000681D01*
X00066D02*
Y000438D01*
X000681D01*
X000655Y00043D02*
Y000438D01*
X000635Y00043D02*
X000655D01*
X000635D02*
Y000438D01*
X000655D01*
Y000506D02*
Y000514D01*
X000635Y000506D02*
X000655D01*
X000635D02*
Y000514D01*
X000655D01*
X000681Y000506D02*
Y000514D01*
X00066Y000506D02*
X000681D01*
X00066D02*
Y000514D01*
X000681D01*
X000706Y000506D02*
Y000514D01*
X000686Y000506D02*
X000706D01*
X000686D02*
Y000514D01*
X000706D01*
X000732Y000506D02*
Y000514D01*
X000711Y000506D02*
X000732D01*
X000711D02*
Y000514D01*
X000732D01*
X000757Y000506D02*
Y000514D01*
X000737Y000506D02*
X000757D01*
X000737D02*
Y000514D01*
X000757D01*
X000782Y000506D02*
Y000514D01*
X000762Y000506D02*
X000782D01*
X000762D02*
Y000514D01*
X000782D01*
X000787Y000496D02*
Y000524D01*
X000808D01*
Y000496D02*
Y000524D01*
X000787Y000496D02*
X000808D01*
X000833Y000506D02*
Y000514D01*
X000813Y000506D02*
X000833D01*
X000813D02*
Y000514D01*
X000833D01*
X000859Y000506D02*
Y000514D01*
X000838Y000506D02*
X000859D01*
X000838D02*
Y000514D01*
X000859D01*
X000884Y000506D02*
Y000514D01*
X000864Y000506D02*
X000884D01*
X000864D02*
Y000514D01*
X000884D01*
X000909Y000506D02*
Y000514D01*
X000889Y000506D02*
X000909D01*
X000889D02*
Y000514D01*
X000909D01*
X000935Y000506D02*
Y000514D01*
X000914Y000506D02*
X000935D01*
X000914D02*
Y000514D01*
X000935D01*
X00096Y000506D02*
Y000514D01*
X00094Y000506D02*
X00096D01*
X00094D02*
Y000514D01*
X00096D01*
X000675Y000801D02*
Y000821D01*
X000695D01*
Y000801D02*
Y000821D01*
X000675Y000801D02*
X000695D01*
X000817Y000318D02*
Y000339D01*
X000838D01*
Y000318D02*
Y000339D01*
X000817Y000318D02*
X000838D01*
X000843D02*
Y000339D01*
X000863D01*
Y000318D02*
Y000339D01*
X000843Y000318D02*
X000863D01*
X00102Y000733D02*
Y000753D01*
X001041D01*
Y000733D02*
Y000753D01*
X00102Y000733D02*
X001041D01*
X001046D02*
Y000753D01*
X001066D01*
Y000733D02*
Y000753D01*
X001046Y000733D02*
X001066D01*
X000297Y000562D02*
Y000575D01*
X00031D01*
Y000562D02*
Y000575D01*
X000297Y000562D02*
X00031D01*
X000284D02*
Y000575D01*
X000297D01*
Y000562D02*
Y000575D01*
X000284Y000562D02*
X000297D01*
X000272D02*
Y000575D01*
X000284D01*
Y000562D02*
Y000575D01*
X000272Y000562D02*
X000284D01*
X000297Y000548D02*
Y000558D01*
X000285Y000548D02*
X000297D01*
X000285D02*
Y000558D01*
X000297D01*
X000284Y000579D02*
Y000589D01*
X000272Y000579D02*
X000284D01*
X000272D02*
Y000589D01*
X000284D01*
X00031Y000579D02*
Y000589D01*
X000297Y000579D02*
X00031D01*
X000297D02*
Y000589D01*
X00031D01*
X000919Y000369D02*
Y000389D01*
X000939D01*
Y000369D02*
Y000389D01*
X000919Y000369D02*
X000939D01*
X000944D02*
Y000389D01*
X000965D01*
Y000369D02*
Y000389D01*
X000944Y000369D02*
X000965D01*
X00097D02*
Y000389D01*
X00099D01*
Y000369D02*
Y000389D01*
X00097Y000369D02*
X00099D01*
X000995D02*
Y000389D01*
X001015D01*
Y000369D02*
Y000389D01*
X000995Y000369D02*
X001015D01*
X00102D02*
Y000389D01*
X001041D01*
Y000369D02*
Y000389D01*
X00102Y000369D02*
X001041D01*
X001046D02*
Y000389D01*
X001066D01*
Y000369D02*
Y000389D01*
X001046Y000369D02*
X001066D01*
X000312Y000807D02*
Y000827D01*
X000333D01*
Y000807D02*
Y000827D01*
X000312Y000807D02*
X000333D01*
X000372Y000302D02*
Y000338D01*
X000357Y000302D02*
X000372D01*
X000357D02*
Y000338D01*
X000372D01*
X000376Y000346D02*
Y000396D01*
X000411D01*
Y000346D02*
Y000396D01*
X000376Y000346D02*
X000411D01*
X000351Y000363D02*
Y000379D01*
X000315Y000363D02*
X000351D01*
X000315D02*
Y000379D01*
X000351D01*
X000643Y000336D02*
Y000353D01*
X000656D01*
Y000336D02*
Y000353D01*
X000643Y000336D02*
X000656D01*
X00061Y000329D02*
Y00036D01*
X000642D01*
Y000329D02*
Y00036D01*
X00061Y000329D02*
X000642D01*
X000919Y000606D02*
Y000626D01*
X000939D01*
Y000606D02*
Y000626D01*
X000919Y000606D02*
X000939D01*
X000257Y000408D02*
Y000432D01*
X000281D01*
Y000408D02*
Y000432D01*
X000257Y000408D02*
X000281D01*
X000257Y000384D02*
Y000408D01*
X000281D01*
Y000384D02*
Y000408D01*
X000257Y000384D02*
X000281D01*
X000283Y000429D02*
Y00045D01*
X000302D01*
Y000429D02*
Y00045D01*
X000283Y000429D02*
X000302D01*
X000283Y000366D02*
Y000387D01*
X000302D01*
Y000366D02*
Y000387D01*
X000283Y000366D02*
X000302D01*
X000286Y00039D02*
Y000399D01*
X000305D01*
Y00039D02*
Y000399D01*
X000286Y00039D02*
X000305D01*
X000286Y000397D02*
Y000406D01*
X000305D01*
Y000397D02*
Y000406D01*
X000286Y000397D02*
X000305D01*
X000286Y000416D02*
Y000425D01*
X000305D01*
Y000416D02*
Y000425D01*
X000286Y000416D02*
X000305D01*
X000286Y00041D02*
Y000419D01*
X000305D01*
Y00041D02*
Y000419D01*
X000286Y00041D02*
X000305D01*
X000286Y000403D02*
Y000412D01*
X000305D01*
Y000403D02*
Y000412D01*
X000286Y000403D02*
X000305D01*
X000817Y000551D02*
Y000569D01*
X000809Y000551D02*
X000817D01*
X000809D02*
Y000569D01*
X000817D01*
Y000577D02*
Y000595D01*
X000809Y000577D02*
X000817D01*
X000809D02*
Y000595D01*
X000817D01*
Y000602D02*
Y00062D01*
X000809Y000602D02*
X000817D01*
X000809D02*
Y00062D01*
X000817D01*
Y000628D02*
Y000645D01*
X000809Y000628D02*
X000817D01*
X000809D02*
Y000645D01*
X000817D01*
Y000653D02*
Y000671D01*
X000809Y000653D02*
X000817D01*
X000809D02*
Y000671D01*
X000817D01*
Y000678D02*
Y000696D01*
X000809Y000678D02*
X000817D01*
X000809D02*
Y000696D01*
X000817D01*
Y000704D02*
Y000722D01*
X000809Y000704D02*
X000817D01*
X000809D02*
Y000722D01*
X000817D01*
X0008Y000729D02*
Y000747D01*
X000825D01*
Y000729D02*
Y000747D01*
X0008Y000729D02*
X000825D01*
X000791Y000551D02*
Y000569D01*
X000784Y000551D02*
X000791D01*
X000784D02*
Y000569D01*
X000791D01*
Y000577D02*
Y000595D01*
X000784Y000577D02*
X000791D01*
X000784D02*
Y000595D01*
X000791D01*
Y000602D02*
Y00062D01*
X000784Y000602D02*
X000791D01*
X000784D02*
Y00062D01*
X000791D01*
Y000628D02*
Y000645D01*
X000784Y000628D02*
X000791D01*
X000784D02*
Y000645D01*
X000791D01*
Y000653D02*
Y000671D01*
X000784Y000653D02*
X000791D01*
X000784D02*
Y000671D01*
X000791D01*
Y000678D02*
Y000696D01*
X000784Y000678D02*
X000791D01*
X000784D02*
Y000696D01*
X000791D01*
Y000704D02*
Y000722D01*
X000784Y000704D02*
X000791D01*
X000784D02*
Y000722D01*
X000791D01*
X000775Y000729D02*
Y000747D01*
X0008D01*
Y000729D02*
Y000747D01*
X000775Y000729D02*
X0008D01*
X001081Y000752D02*
Y000772D01*
X001101D01*
Y000752D02*
Y000772D01*
X001081Y000752D02*
X001101D01*
X000549Y000722D02*
Y000762D01*
X000599D01*
Y000722D02*
Y000762D01*
X000549Y000722D02*
X000599D01*
X000549Y000463D02*
Y000503D01*
X000599D01*
Y000463D02*
Y000503D01*
X000549Y000463D02*
X000599D01*
X000398Y000405D02*
Y000426D01*
X000416D01*
Y000405D02*
Y000426D01*
X000398Y000405D02*
X000416D01*
X000417D02*
Y000426D01*
X000435D01*
Y000405D02*
Y000426D01*
X000417Y000405D02*
X000435D01*
X000404Y00054D02*
Y000565D01*
X000415D01*
Y00054D02*
Y000565D01*
X000404Y00054D02*
X000415D01*
X000391D02*
Y000565D01*
X000402D01*
Y00054D02*
Y000565D01*
X000391Y00054D02*
X000402D01*
X000379D02*
Y000565D01*
X00039D01*
Y00054D02*
Y000565D01*
X000379Y00054D02*
X00039D01*
X000366D02*
Y000565D01*
X000377D01*
Y00054D02*
Y000565D01*
X000366Y00054D02*
X000377D01*
X000353D02*
Y000565D01*
X000364D01*
Y00054D02*
Y000565D01*
X000353Y00054D02*
X000364D01*
X000341D02*
Y000565D01*
X000352D01*
Y00054D02*
Y000565D01*
X000341Y00054D02*
X000352D01*
X000328D02*
Y000565D01*
X000339D01*
Y00054D02*
Y000565D01*
X000328Y00054D02*
X000339D01*
X000315D02*
Y000565D01*
X000326D01*
Y00054D02*
Y000565D01*
X000315Y00054D02*
X000326D01*
X000315Y000447D02*
Y000472D01*
X000326D01*
Y000447D02*
Y000472D01*
X000315Y000447D02*
X000326D01*
X000328D02*
Y000472D01*
X000339D01*
Y000447D02*
Y000472D01*
X000328Y000447D02*
X000339D01*
X000341D02*
Y000472D01*
X000352D01*
Y000447D02*
Y000472D01*
X000341Y000447D02*
X000352D01*
X000353D02*
Y000472D01*
X000364D01*
Y000447D02*
Y000472D01*
X000353Y000447D02*
X000364D01*
X000366D02*
Y000472D01*
X000377D01*
Y000447D02*
Y000472D01*
X000366Y000447D02*
X000377D01*
X000379D02*
Y000472D01*
X00039D01*
Y000447D02*
Y000472D01*
X000379Y000447D02*
X00039D01*
X000391D02*
Y000472D01*
X000402D01*
Y000447D02*
Y000472D01*
X000391Y000447D02*
X000402D01*
X000404D02*
Y000472D01*
X000415D01*
Y000447D02*
Y000472D01*
X000404Y000447D02*
X000415D01*
X000724Y000535D02*
Y00055D01*
X000742D01*
Y000535D02*
Y00055D01*
X000724Y000535D02*
X000742D01*
X000747Y000554D02*
Y000569D01*
X000765D01*
Y000554D02*
Y000569D01*
X000747Y000554D02*
X000765D01*
X000724D02*
Y000569D01*
X000742D01*
Y000554D02*
Y000569D01*
X000724Y000554D02*
X000742D01*
X000747Y000535D02*
Y00055D01*
X000765D01*
Y000535D02*
Y00055D01*
X000747Y000535D02*
X000765D01*
X001008Y000413D02*
Y000431D01*
X001028D01*
Y000413D02*
Y000431D01*
X001008Y000413D02*
X001028D01*
X001008Y000432D02*
Y00045D01*
X001028D01*
Y000432D02*
Y00045D01*
X001008Y000432D02*
X001028D01*
X001033Y000413D02*
Y000431D01*
X001053D01*
Y000413D02*
Y000431D01*
X001033Y000413D02*
X001053D01*
X001033Y000432D02*
Y00045D01*
X001053D01*
Y000432D02*
Y00045D01*
X001033Y000432D02*
X001053D01*
X000749Y000596D02*
Y000612D01*
X000768D01*
Y000596D02*
Y000612D01*
X000749Y000596D02*
X000768D01*
X000749Y000576D02*
Y000592D01*
X000768D01*
Y000576D02*
Y000592D01*
X000749Y000576D02*
X000768D01*
X000355Y000578D02*
Y000597D01*
X000371D01*
Y000578D02*
Y000597D01*
X000355Y000578D02*
X000371D01*
X000376D02*
Y000597D01*
X000391D01*
Y000578D02*
Y000597D01*
X000376Y000578D02*
X000391D01*
X000795Y000467D02*
Y000486D01*
X000811D01*
Y000467D02*
Y000486D01*
X000795Y000467D02*
X000811D01*
X000815D02*
Y000486D01*
X000831D01*
Y000467D02*
Y000486D01*
X000815Y000467D02*
X000831D01*
X000722Y000596D02*
Y000612D01*
X000741D01*
Y000596D02*
Y000612D01*
X000722Y000596D02*
X000741D01*
X000722Y000576D02*
Y000592D01*
X000741D01*
Y000576D02*
Y000592D01*
X000722Y000576D02*
X000741D01*
X000292Y00067D02*
Y000689D01*
X000308D01*
Y00067D02*
Y000689D01*
X000292Y00067D02*
X000308D01*
X000272D02*
Y000689D01*
X000288D01*
Y00067D02*
Y000689D01*
X000272Y00067D02*
X000288D01*
X000292Y000747D02*
Y000767D01*
X000308D01*
Y000747D02*
Y000767D01*
X000292Y000747D02*
X000308D01*
X000272D02*
Y000767D01*
X000288D01*
Y000747D02*
Y000767D01*
X000272Y000747D02*
X000288D01*
X000317Y0006D02*
Y00062D01*
X000335D01*
Y0006D02*
Y00062D01*
X000317Y0006D02*
X000335D01*
X000298D02*
Y00062D01*
X000316D01*
Y0006D02*
Y00062D01*
X000298Y0006D02*
X000316D01*
X000319Y00067D02*
Y00069D01*
X000328D01*
Y00067D02*
Y00069D01*
X000319Y00067D02*
X000328D01*
X000377D02*
Y00069D01*
X000386D01*
Y00067D02*
Y00069D01*
X000377Y00067D02*
X000386D01*
X000377Y000726D02*
Y000745D01*
X000386D01*
Y000726D02*
Y000745D01*
X000377Y000726D02*
X000386D01*
X000319D02*
Y000745D01*
X000328D01*
Y000726D02*
Y000745D01*
X000319Y000726D02*
X000328D01*
X000332Y00067D02*
Y00069D01*
X000341D01*
Y00067D02*
Y00069D01*
X000332Y00067D02*
X000341D01*
X000371Y000726D02*
Y000745D01*
X00038D01*
Y000726D02*
Y000745D01*
X000371Y000726D02*
X00038D01*
X000338Y00067D02*
Y00069D01*
X000347D01*
Y00067D02*
Y00069D01*
X000338Y00067D02*
X000347D01*
X000345D02*
Y00069D01*
X000354D01*
Y00067D02*
Y00069D01*
X000345Y00067D02*
X000354D01*
X000351D02*
Y00069D01*
X00036D01*
Y00067D02*
Y00069D01*
X000351Y00067D02*
X00036D01*
X000358D02*
Y00069D01*
X000367D01*
Y00067D02*
Y00069D01*
X000358Y00067D02*
X000367D01*
X000364D02*
Y00069D01*
X000373D01*
Y00067D02*
Y00069D01*
X000364Y00067D02*
X000373D01*
X000371D02*
Y00069D01*
X00038D01*
Y00067D02*
Y00069D01*
X000371Y00067D02*
X00038D01*
X000338Y000726D02*
Y000745D01*
X000347D01*
Y000726D02*
Y000745D01*
X000338Y000726D02*
X000347D01*
X000332D02*
Y000745D01*
X000341D01*
Y000726D02*
Y000745D01*
X000332Y000726D02*
X000341D01*
X000325D02*
Y000745D01*
X000334D01*
Y000726D02*
Y000745D01*
X000325Y000726D02*
X000334D01*
X000325Y00067D02*
Y00069D01*
X000334D01*
Y00067D02*
Y00069D01*
X000325Y00067D02*
X000334D01*
X000364Y000726D02*
Y000745D01*
X000373D01*
Y000726D02*
Y000745D01*
X000364Y000726D02*
X000373D01*
X000358D02*
Y000745D01*
X000367D01*
Y000726D02*
Y000745D01*
X000358Y000726D02*
X000367D01*
X000351D02*
Y000745D01*
X00036D01*
Y000726D02*
Y000745D01*
X000351Y000726D02*
X00036D01*
X000345D02*
Y000745D01*
X000354D01*
Y000726D02*
Y000745D01*
X000345Y000726D02*
X000354D01*
X000264Y000291D02*
Y000318D01*
X000286D01*
Y000291D02*
Y000318D01*
X000264Y000291D02*
X000286D01*
X000302D02*
Y000318D01*
X000324D01*
Y000291D02*
Y000318D01*
X000302Y000291D02*
X000324D01*
X000447Y000468D02*
Y000488D01*
X000467D01*
Y000468D02*
Y000488D01*
X000447Y000468D02*
X000467D01*
X000447Y000442D02*
Y000463D01*
X000467D01*
Y000442D02*
Y000463D01*
X000447Y000442D02*
X000467D01*
X000447Y000417D02*
Y000437D01*
X000467D01*
Y000417D02*
Y000437D01*
X000447Y000417D02*
X000467D01*
X000447Y000391D02*
Y000412D01*
X000467D01*
Y000391D02*
Y000412D01*
X000447Y000391D02*
X000467D01*
X000447Y000366D02*
Y000386D01*
X000467D01*
Y000366D02*
Y000386D01*
X000447Y000366D02*
X000467D01*
X000447Y000341D02*
Y000361D01*
X000467D01*
Y000341D02*
Y000361D01*
X000447Y000341D02*
X000467D01*
X000447Y000315D02*
Y000336D01*
X000467D01*
Y000315D02*
Y000336D01*
X000447Y000315D02*
X000467D01*
X000447Y00029D02*
Y00031D01*
X000467D01*
Y00029D02*
Y00031D01*
X000447Y00029D02*
X000467D01*
D42*
X01Y01325D02*
Y0317D01*
X01175Y03505D01*
X04361D01*
X04653Y03175D01*
Y0133D02*
Y03175D01*
X0435Y01D02*
X04653Y0133D01*
X0117Y01D02*
X0435D01*
X01Y01325D02*
X0117Y01D01*
M02*
