%FSTAX24Y24*%
%MOIN*%
G70*
G01*
G75*
G04 Layer_Color=8388736*
%ADD10R,0.0050X0.1000*%
%ADD11R,0.0440X0.0400*%
%ADD12R,0.0400X0.0440*%
%ADD13R,0.0440X0.0400*%
%ADD14R,0.0240X0.0870*%
%ADD15R,0.0240X0.0870*%
%ADD16R,0.1380X0.0480*%
%ADD17C,0.0160*%
%ADD18C,0.0240*%
%ADD19C,0.0120*%
%ADD20C,0.0200*%
%ADD21O,0.0600X0.1200*%
%ADD22O,0.1200X0.0600*%
%ADD23C,0.1250*%
%ADD24C,0.0400*%
%ADD25C,0.0060*%
%ADD26C,0.0050*%
%ADD27C,0.0020*%
%ADD28C,0.0100*%
%ADD29C,0.0034*%
%ADD30R,0.0130X0.1080*%
%ADD31R,0.0520X0.0480*%
%ADD32R,0.0480X0.0520*%
%ADD33R,0.0520X0.0480*%
%ADD34R,0.0320X0.0950*%
%ADD35R,0.0320X0.0950*%
%ADD36R,0.1460X0.0560*%
%ADD37O,0.0680X0.1280*%
%ADD38O,0.1280X0.0680*%
%ADD39C,0.1330*%
%ADD40C,0.0480*%
%ADD41C,0.0005*%
%ADD42C,0.0000*%
D41*
X000288Y000548D02*
G03*
X000294Y000548I000003J0D01*
G01*
Y000558D02*
G03*
X000288Y000558I-000003J0D01*
G01*
X000275Y000579D02*
G03*
X000281Y000579I000003J0D01*
G01*
Y000589D02*
G03*
X000275Y000589I-000003J0D01*
G01*
X0003Y000579D02*
G03*
X000307Y000579I000003J0D01*
G01*
Y000589D02*
G03*
X0003Y000589I-000003J0D01*
G01*
X00026Y000441D02*
G03*
X000277Y000441I000009J0D01*
G01*
D02*
G03*
X00026Y000441I-000009J0D01*
G01*
Y000375D02*
G03*
X000277Y000375I000009J0D01*
G01*
D02*
G03*
X00026Y000375I-000009J0D01*
G01*
X000817Y000555D02*
G03*
X000817Y000566I0J000006D01*
G01*
X000809D02*
G03*
X000809Y000555I0J-000006D01*
G01*
X000817Y00058D02*
G03*
X000817Y000591I0J000006D01*
G01*
X000809D02*
G03*
X000809Y00058I0J-000006D01*
G01*
X000817Y000605D02*
G03*
X000817Y000617I0J000006D01*
G01*
X000809D02*
G03*
X000809Y000605I0J-000006D01*
G01*
X000817Y000631D02*
G03*
X000817Y000642I0J000006D01*
G01*
X000809D02*
G03*
X000809Y000631I0J-000006D01*
G01*
X000817Y000656D02*
G03*
X000817Y000667I0J000006D01*
G01*
X000809D02*
G03*
X000809Y000656I0J-000006D01*
G01*
X000817Y000682D02*
G03*
X000817Y000693I0J000006D01*
G01*
X000809D02*
G03*
X000809Y000682I0J-000006D01*
G01*
X000817Y000707D02*
G03*
X000817Y000718I0J000006D01*
G01*
X000809D02*
G03*
X000809Y000707I0J-000006D01*
G01*
X000791Y000555D02*
G03*
X000791Y000566I0J000006D01*
G01*
X000784D02*
G03*
X000784Y000555I0J-000006D01*
G01*
X000791Y00058D02*
G03*
X000791Y000591I0J000006D01*
G01*
X000784D02*
G03*
X000784Y00058I0J-000006D01*
G01*
X000791Y000605D02*
G03*
X000791Y000617I0J000006D01*
G01*
X000784D02*
G03*
X000784Y000605I0J-000006D01*
G01*
X000791Y000631D02*
G03*
X000791Y000642I0J000006D01*
G01*
X000784D02*
G03*
X000784Y000631I0J-000006D01*
G01*
X000791Y000656D02*
G03*
X000791Y000667I0J000006D01*
G01*
X000784D02*
G03*
X000784Y000656I0J-000006D01*
G01*
X000791Y000682D02*
G03*
X000791Y000693I0J000006D01*
G01*
X000784D02*
G03*
X000784Y000682I0J-000006D01*
G01*
X000791Y000707D02*
G03*
X000791Y000718I0J000006D01*
G01*
X000784D02*
G03*
X000784Y000707I0J-000006D01*
G01*
X000493Y000612D02*
G03*
X000655Y000612I000081J0D01*
G01*
D02*
G03*
X000493Y000612I-000081J0D01*
G01*
X000483D02*
G03*
X000665Y000612I000091J0D01*
G01*
D02*
G03*
X000483Y000612I-000091J0D01*
G01*
X000259Y000301D02*
G03*
X000262Y000304I0J000003D01*
G01*
D02*
G03*
X000259Y000308I-000003J0D01*
G01*
X000329D02*
G03*
X000326Y000304I0J-000003D01*
G01*
D02*
G03*
X000329Y000301I000003J0D01*
G01*
X00101Y000536D02*
X001016Y000535D01*
X001005Y000538D02*
X00101Y000536D01*
X000999Y000543D02*
X001005Y000538D01*
X000989Y000551D02*
X000999Y000543D01*
X000987Y000544D02*
X000989Y000551D01*
X000986Y000543D02*
X000987Y000544D01*
X000983Y000543D02*
X000986D01*
X000983D02*
X000984Y000545D01*
X000986Y000548D01*
X000992Y000554D01*
X001Y000561D01*
X00101Y000569D01*
X001011Y00057D01*
X001021Y000577D01*
X001029Y000581D01*
X001035Y000584D01*
X00104Y000585D01*
X001047Y000585D01*
X001053Y000585D01*
X001059Y000584D01*
X001062Y000582D01*
X001064Y000577D01*
X001065Y000574D01*
X001067Y000572D01*
X001067Y000573D01*
X001068Y000577D01*
X001068Y000586D01*
X001068Y000598D01*
X001068Y000606D02*
X001068Y000598D01*
X001068Y000616D02*
X001068Y000606D01*
X001068Y000622D02*
X001068Y000616D01*
X001067Y000624D02*
X001068Y000622D01*
X001066Y000624D02*
X001067Y000624D01*
X001064Y00062D02*
X001066Y000624D01*
X001063Y000617D02*
X001064Y00062D01*
X001045Y000617D02*
X001063D01*
X001045D02*
X001054Y000617D01*
X001058Y000618D01*
X001061Y000621D01*
X001063Y000625D01*
X001064Y000627D01*
X001065Y000636D01*
X001066Y000646D01*
X001066Y000649D02*
X001066Y000646D01*
X001065Y000654D02*
X001066Y000649D01*
X001064Y000655D02*
X001065Y000654D01*
X001063Y000652D02*
X001064Y000655D01*
X001062Y00065D02*
X001063Y000652D01*
X00106Y000648D02*
X001062Y00065D01*
X001056Y000647D02*
X00106Y000648D01*
X00105Y000646D02*
X001056Y000647D01*
X001041Y000646D02*
X00105Y000646D01*
X001027Y000645D02*
X001041Y000646D01*
X000994Y000645D02*
X001027Y000645D01*
X000994Y000645D02*
X001012Y000631D01*
X001018Y000626D01*
X001026Y000621D01*
X001031Y000618D01*
X001037Y000617D01*
X001045Y000617D01*
X001063D01*
X001062Y000616D02*
X001063Y000617D01*
X00106Y000613D02*
X001062Y000616D01*
X001055Y000612D02*
X00106Y000613D01*
X001046Y000612D02*
X001055Y000612D01*
X001043Y000612D02*
X001046Y000612D01*
X001037Y000612D02*
X001043Y000612D01*
X001032Y000614D02*
X001037Y000612D01*
X001027Y000617D02*
X001032Y000614D01*
X001019Y000622D02*
X001027Y000617D01*
X001009Y000631D02*
X001019Y000622D01*
X001001Y000637D02*
X001009Y000631D01*
X000993Y000645D02*
X001001Y000637D01*
X000987Y000651D02*
X000993Y000645D01*
X000984Y000655D02*
X000987Y000651D01*
X000983Y000656D02*
X000984Y000655D01*
X000983Y000654D02*
X000983Y000656D01*
X000982Y000648D02*
X000983Y000654D01*
X000982Y000639D02*
X000982Y000648D01*
X000982Y000628D02*
X000982Y000639D01*
X000982Y000628D02*
X000982Y000616D01*
X000982Y000604D01*
X000983Y000593D01*
X000983Y000583D01*
X000984Y000577D01*
X000985Y000572D01*
X000987Y000566D01*
X000989Y000564D01*
X000989Y000564D01*
X000992Y000565D01*
X000996Y000568D01*
X000998Y000571D01*
X000998Y000572D02*
X000998Y000571D01*
X000996Y000573D02*
X000998Y000572D01*
X000992Y000579D02*
X000996Y000573D01*
X000989Y000586D02*
X000992Y000579D01*
X000986Y000596D02*
X000989Y000586D01*
X000985Y000604D02*
X000986Y000596D01*
X000985Y000612D02*
X000985Y000604D01*
X000985Y000612D02*
X000986Y000615D01*
X000989Y000614D01*
X000994Y000611D01*
X001002Y000606D01*
X001009Y0006D01*
X001017Y000595D01*
X001022Y00059D01*
X001024Y000588D01*
X001023Y000587D02*
X001024Y000588D01*
X001019Y000583D02*
X001023Y000587D01*
X001013Y000578D02*
X001019Y000583D01*
X001006Y000572D02*
X001013Y000578D01*
X001005Y000572D02*
X001006Y000572D01*
X001Y000572D02*
X001005D01*
X001D02*
X001011Y000579D01*
X001014Y000582D01*
X001019Y000586D01*
X001021Y000588D01*
X001021Y000588D02*
X001021Y000588D01*
X001018Y000591D02*
X001021Y000588D01*
X001013Y000595D02*
X001018Y000591D01*
X001006Y000601D02*
X001013Y000595D01*
X000999Y000606D02*
X001006Y000601D01*
X000993Y00061D02*
X000999Y000606D01*
X00099Y000609D02*
X000993Y00061D01*
X000989Y000605D02*
X00099Y000609D01*
X000989Y000599D02*
X000989Y000605D01*
X000989Y000599D02*
X00099Y000592D01*
X000992Y000584D01*
X000995Y000579D01*
X001Y000572D01*
X001005D01*
X000998Y000567D02*
X001005Y000572D01*
X000992Y000563D02*
X000998Y000567D01*
X000989Y000562D02*
X000992Y000563D01*
X000985Y000565D02*
X000989Y000562D01*
X000983Y000567D02*
X000985Y000565D01*
X000982Y000567D02*
X000983Y000567D01*
X000982Y000563D02*
X000982Y000567D01*
X000981Y000555D02*
X000982Y000563D01*
X000981Y000555D02*
X000982Y000549D01*
X000982Y000543D01*
X000983Y000543D01*
X000986D01*
X000984Y00054D02*
X000986Y000543D01*
X000982Y000538D02*
X000984Y00054D01*
X000981Y000538D02*
X000982Y000538D01*
X000981Y000543D02*
X000981Y000538D01*
X00098Y000553D02*
X000981Y000543D01*
X000979Y000566D02*
X00098Y000553D01*
X000979Y000582D02*
X000979Y000566D01*
X000979Y0006D02*
X000979Y000582D01*
X000979Y000619D02*
X000979Y0006D01*
X000979Y000619D02*
X000979Y000634D01*
X000979Y000646D01*
X00098Y000654D01*
X00098Y000659D01*
X000981Y000661D01*
X000982Y000662D01*
X000985Y000661D01*
X000987Y000656D01*
X000987Y000656D01*
X000988Y000653D01*
X000989Y000652D01*
X000993Y000651D01*
X000999Y00065D01*
X001009Y00065D01*
X001023Y000649D01*
X001058Y000649D01*
X001061Y000655D01*
X001062Y000656D01*
X001065Y000661D01*
X001067Y000661D01*
X001068Y000656D01*
X001069Y000645D01*
X00107Y000639D01*
X00107Y000626D01*
X00107Y000612D01*
X001071Y000598D01*
X001071Y000585D01*
X001071Y000576D02*
X001071Y000585D01*
X00107Y00057D02*
X001071Y000576D01*
X001069Y000567D02*
X00107Y00057D01*
X001067Y000567D02*
X001069Y000567D01*
X001064Y000565D02*
X001067Y000567D01*
X001061Y00056D02*
X001064Y000565D01*
X00106Y000558D02*
X001061Y00056D01*
X001056Y000552D02*
X00106Y000558D01*
X00105Y000545D02*
X001056Y000552D01*
X001046Y000542D02*
X00105Y000545D01*
X001041Y000538D02*
X001046Y000542D01*
X001037Y000537D02*
X001041Y000538D01*
X001023Y000537D02*
X001037D01*
X001023D02*
X001035Y000539D01*
X001046Y000545D01*
X001054Y000553D01*
X001055Y000556D01*
X001059Y000564D01*
X001061Y000572D01*
X001061Y000577D02*
X001061Y000572D01*
X001058Y00058D02*
X001061Y000577D01*
X001051Y000582D02*
X001058Y00058D01*
X001042Y000582D02*
X001051Y000582D01*
X001033Y000581D02*
X001042Y000582D01*
X001026Y000577D02*
X001033Y000581D01*
X001025Y000576D02*
X001026Y000577D01*
X001021Y000572D02*
X001025Y000576D01*
X001021Y000572D02*
X001021Y000569D01*
X001022Y000569D01*
X001028Y000568D01*
X001036Y00057D01*
X001044Y000572D01*
X00105Y000576D01*
X001054Y000579D01*
X001055Y000578D01*
X001055Y000577D02*
X001055Y000578D01*
X001051Y000573D02*
X001055Y000577D01*
X001044Y00057D02*
X001051Y000573D01*
X001035Y000567D02*
X001044Y00057D01*
X001025Y000566D02*
X001035Y000567D01*
X001025Y000566D02*
X001025Y000566D01*
X001015Y000566D02*
X001025Y000566D01*
X001009Y000563D02*
X001015Y000566D01*
X001002Y000559D02*
X001009Y000563D01*
X000993Y000551D02*
X001002Y000559D01*
X000993Y000551D02*
X001001Y000544D01*
X001001Y000544D01*
X001011Y000539D01*
X001023Y000537D01*
X001037D01*
X001035Y000536D02*
X001037Y000537D01*
X001025Y000535D02*
X001035Y000536D01*
X001016Y000535D02*
X001025Y000535D01*
X00101Y000536D02*
X001016Y000535D01*
X001005Y000538D02*
X00101Y000536D01*
X000999Y000543D02*
X001005Y000538D01*
X000989Y000551D02*
X000999Y000543D01*
X000987Y000544D02*
X000989Y000551D01*
X000986Y000543D02*
X000987Y000544D01*
X000983Y000543D02*
X000986D01*
X000983D02*
X000984Y000545D01*
X000986Y000548D01*
X000992Y000554D01*
X001Y000561D01*
X00101Y000569D01*
X001011Y00057D01*
X001021Y000577D01*
X001029Y000581D01*
X001035Y000584D01*
X00104Y000585D01*
X001047Y000585D01*
X001053Y000585D01*
X001059Y000584D01*
X001062Y000582D01*
X001064Y000577D01*
X001065Y000574D01*
X001067Y000572D01*
X001067Y000573D01*
X001068Y000577D01*
X001068Y000586D01*
X001068Y000598D01*
X001068Y000606D02*
X001068Y000598D01*
X001068Y000616D02*
X001068Y000606D01*
X001068Y000622D02*
X001068Y000616D01*
X001067Y000624D02*
X001068Y000622D01*
X001066Y000624D02*
X001067Y000624D01*
X001064Y00062D02*
X001066Y000624D01*
X001063Y000617D02*
X001064Y00062D01*
X001045Y000617D02*
X001063D01*
X001045D02*
X001054Y000617D01*
X001058Y000618D01*
X001061Y000621D01*
X001063Y000625D01*
X001064Y000627D01*
X001065Y000636D01*
X001066Y000646D01*
X001066Y000649D02*
X001066Y000646D01*
X001065Y000654D02*
X001066Y000649D01*
X001064Y000655D02*
X001065Y000654D01*
X001063Y000652D02*
X001064Y000655D01*
X001062Y00065D02*
X001063Y000652D01*
X00106Y000648D02*
X001062Y00065D01*
X001056Y000647D02*
X00106Y000648D01*
X00105Y000646D02*
X001056Y000647D01*
X001041Y000646D02*
X00105Y000646D01*
X001027Y000645D02*
X001041Y000646D01*
X000994Y000645D02*
X001027Y000645D01*
X000994Y000645D02*
X001012Y000631D01*
X001018Y000626D01*
X001026Y000621D01*
X001031Y000618D01*
X001037Y000617D01*
X001045Y000617D01*
X001063D01*
X001062Y000616D02*
X001063Y000617D01*
X00106Y000613D02*
X001062Y000616D01*
X001055Y000612D02*
X00106Y000613D01*
X001046Y000612D02*
X001055Y000612D01*
X001043Y000612D02*
X001046Y000612D01*
X001037Y000612D02*
X001043Y000612D01*
X001032Y000614D02*
X001037Y000612D01*
X001027Y000617D02*
X001032Y000614D01*
X001019Y000622D02*
X001027Y000617D01*
X001009Y000631D02*
X001019Y000622D01*
X001001Y000637D02*
X001009Y000631D01*
X000993Y000645D02*
X001001Y000637D01*
X000987Y000651D02*
X000993Y000645D01*
X000984Y000655D02*
X000987Y000651D01*
X000983Y000656D02*
X000984Y000655D01*
X000983Y000654D02*
X000983Y000656D01*
X000982Y000648D02*
X000983Y000654D01*
X000982Y000639D02*
X000982Y000648D01*
X000982Y000628D02*
X000982Y000639D01*
X000982Y000628D02*
X000982Y000616D01*
X000982Y000604D01*
X000983Y000593D01*
X000983Y000583D01*
X000984Y000577D01*
X000985Y000572D01*
X000987Y000566D01*
X000989Y000564D01*
X000989Y000564D01*
X000992Y000565D01*
X000996Y000568D01*
X000998Y000571D01*
X000998Y000572D02*
X000998Y000571D01*
X000996Y000573D02*
X000998Y000572D01*
X000992Y000579D02*
X000996Y000573D01*
X000989Y000586D02*
X000992Y000579D01*
X000986Y000596D02*
X000989Y000586D01*
X000985Y000604D02*
X000986Y000596D01*
X000985Y000612D02*
X000985Y000604D01*
X000985Y000612D02*
X000986Y000615D01*
X000989Y000614D01*
X000994Y000611D01*
X001002Y000606D01*
X001009Y0006D01*
X001017Y000595D01*
X001022Y00059D01*
X001024Y000588D01*
X001023Y000587D02*
X001024Y000588D01*
X001019Y000583D02*
X001023Y000587D01*
X001013Y000578D02*
X001019Y000583D01*
X001006Y000572D02*
X001013Y000578D01*
X001005Y000572D02*
X001006Y000572D01*
X001Y000572D02*
X001005D01*
X001D02*
X001011Y000579D01*
X001014Y000582D01*
X001019Y000586D01*
X001021Y000588D01*
X001021Y000588D02*
X001021Y000588D01*
X001018Y000591D02*
X001021Y000588D01*
X001013Y000595D02*
X001018Y000591D01*
X001006Y000601D02*
X001013Y000595D01*
X000999Y000606D02*
X001006Y000601D01*
X000993Y00061D02*
X000999Y000606D01*
X00099Y000609D02*
X000993Y00061D01*
X000989Y000605D02*
X00099Y000609D01*
X000989Y000599D02*
X000989Y000605D01*
X000989Y000599D02*
X00099Y000592D01*
X000992Y000584D01*
X000995Y000579D01*
X001Y000572D01*
X001005D01*
X000998Y000567D02*
X001005Y000572D01*
X000992Y000563D02*
X000998Y000567D01*
X000989Y000562D02*
X000992Y000563D01*
X000985Y000565D02*
X000989Y000562D01*
X000983Y000567D02*
X000985Y000565D01*
X000982Y000567D02*
X000983Y000567D01*
X000982Y000563D02*
X000982Y000567D01*
X000981Y000555D02*
X000982Y000563D01*
X000981Y000555D02*
X000982Y000549D01*
X000982Y000543D01*
X000983Y000543D01*
X000986D01*
X000984Y00054D02*
X000986Y000543D01*
X000982Y000538D02*
X000984Y00054D01*
X000981Y000538D02*
X000982Y000538D01*
X000981Y000543D02*
X000981Y000538D01*
X00098Y000553D02*
X000981Y000543D01*
X000979Y000566D02*
X00098Y000553D01*
X000979Y000582D02*
X000979Y000566D01*
X000979Y0006D02*
X000979Y000582D01*
X000979Y000619D02*
X000979Y0006D01*
X000979Y000619D02*
X000979Y000634D01*
X000979Y000646D01*
X00098Y000654D01*
X00098Y000659D01*
X000981Y000661D01*
X000982Y000662D01*
X000985Y000661D01*
X000987Y000656D01*
X000987Y000656D01*
X000988Y000653D01*
X000989Y000652D01*
X000993Y000651D01*
X000999Y00065D01*
X001009Y00065D01*
X001023Y000649D01*
X001058Y000649D01*
X001061Y000655D01*
X001062Y000656D01*
X001065Y000661D01*
X001067Y000661D01*
X001068Y000656D01*
X001069Y000645D01*
X00107Y000639D01*
X00107Y000626D01*
X00107Y000612D01*
X001071Y000598D01*
X001071Y000585D01*
X001071Y000576D02*
X001071Y000585D01*
X00107Y00057D02*
X001071Y000576D01*
X001069Y000567D02*
X00107Y00057D01*
X001067Y000567D02*
X001069Y000567D01*
X001064Y000565D02*
X001067Y000567D01*
X001061Y00056D02*
X001064Y000565D01*
X00106Y000558D02*
X001061Y00056D01*
X001056Y000552D02*
X00106Y000558D01*
X00105Y000545D02*
X001056Y000552D01*
X001046Y000542D02*
X00105Y000545D01*
X001041Y000538D02*
X001046Y000542D01*
X001037Y000537D02*
X001041Y000538D01*
X001023Y000537D02*
X001037D01*
X001023D02*
X001035Y000539D01*
X001046Y000545D01*
X001054Y000553D01*
X001055Y000556D01*
X001059Y000564D01*
X001061Y000572D01*
X001061Y000577D02*
X001061Y000572D01*
X001058Y00058D02*
X001061Y000577D01*
X001051Y000582D02*
X001058Y00058D01*
X001042Y000582D02*
X001051Y000582D01*
X001033Y000581D02*
X001042Y000582D01*
X001026Y000577D02*
X001033Y000581D01*
X001025Y000576D02*
X001026Y000577D01*
X001021Y000572D02*
X001025Y000576D01*
X001021Y000572D02*
X001021Y000569D01*
X001022Y000569D01*
X001028Y000568D01*
X001036Y00057D01*
X001044Y000572D01*
X00105Y000576D01*
X001054Y000579D01*
X001055Y000578D01*
X001055Y000577D02*
X001055Y000578D01*
X001051Y000573D02*
X001055Y000577D01*
X001044Y00057D02*
X001051Y000573D01*
X001035Y000567D02*
X001044Y00057D01*
X001025Y000566D02*
X001035Y000567D01*
X001025Y000566D02*
X001025Y000566D01*
X001015Y000566D02*
X001025Y000566D01*
X001009Y000563D02*
X001015Y000566D01*
X001002Y000559D02*
X001009Y000563D01*
X000993Y000551D02*
X001002Y000559D01*
X000993Y000551D02*
X001001Y000544D01*
X001001Y000544D01*
X001011Y000539D01*
X001023Y000537D01*
X001037D01*
X001035Y000536D02*
X001037Y000537D01*
X001025Y000535D02*
X001035Y000536D01*
X001016Y000535D02*
X001025Y000535D01*
X001083Y000522D02*
X001084Y000521D01*
X001083Y000522D02*
Y000525D01*
X001084Y000526D01*
X001085Y000527D01*
X001087Y000527D01*
X001092D01*
X001094Y000527D01*
X001094Y000526D01*
X001095Y000525D01*
Y000522D02*
Y000525D01*
X001094Y000521D02*
X001095Y000522D01*
X0011Y000527D02*
X001101Y000526D01*
Y000524D02*
Y000526D01*
X0011Y000522D02*
X001101Y000524D01*
X0011Y000522D02*
X0011Y000522D01*
X001098Y000521D02*
X0011Y000522D01*
X001083Y000521D02*
X001098D01*
X001086Y000533D02*
X001095D01*
X001084Y000534D02*
X001086Y000533D01*
X001083Y000535D02*
X001084Y000534D01*
X001083Y000535D02*
Y000537D01*
X001084Y000538D01*
X001085Y000539D01*
X001083D02*
X001095D01*
X001094Y000545D02*
X001094Y000545D01*
X001095Y000547D01*
Y000548D01*
X001094Y00055D02*
X001095Y000548D01*
X001093Y00055D02*
X001094Y00055D01*
X001083Y00055D02*
X001093D01*
X001083Y000545D02*
X001095D01*
Y000558D02*
Y00056D01*
X001094Y000557D02*
X001095Y000558D01*
X001094Y000556D02*
X001094Y000557D01*
X001092Y000556D02*
X001094Y000556D01*
X001087Y000556D02*
X001092D01*
X001085Y000556D02*
X001087Y000556D01*
X001084Y000557D02*
X001085Y000556D01*
X001083Y000558D02*
X001084Y000557D01*
X001083Y000558D02*
Y00056D01*
X001084Y000561D01*
X001085Y000562D01*
X001087Y000563D01*
X001092D01*
X001094Y000562D01*
X001094Y000561D01*
X001095Y00056D01*
X001077Y000566D02*
X001087Y000571D01*
X001077Y000575D02*
X001087Y000571D01*
X001095D01*
X001088Y000589D02*
X001089Y000595D01*
X001086Y000589D02*
X001088D01*
X001084Y000589D02*
X001086Y000589D01*
X001083Y000591D02*
X001084Y000589D01*
X001083Y000591D02*
Y000593D01*
X001084Y000594D01*
X001086Y000595D01*
X001093D01*
X001094Y000594D01*
X001095Y000593D01*
Y000591D02*
Y000593D01*
X001094Y000589D02*
X001095Y000591D01*
X001086Y0006D02*
X001095D01*
X001084Y000601D02*
X001086Y0006D01*
X001083Y000602D02*
X001084Y000601D01*
X001083Y000602D02*
Y000604D01*
X001084Y000605D01*
X001085Y000606D01*
X001083D02*
X001095D01*
X0011Y000616D02*
X001101Y000617D01*
X0011Y000615D02*
X0011Y000616D01*
X001095Y000614D02*
X0011Y000615D01*
X001083Y000611D02*
X001095Y000614D01*
X001083Y000617D02*
X001095Y000614D01*
X001088Y000622D02*
X001088Y000623D01*
Y000626D01*
X001089Y000628D01*
X001091Y000628D01*
X001093D01*
X001094Y000628D01*
X001095Y000626D01*
Y000623D02*
Y000626D01*
X001094Y000622D02*
X001095Y000623D01*
X001083Y000626D02*
X001084Y000628D01*
X001083Y000624D02*
Y000626D01*
Y000624D02*
X001084Y000623D01*
X001086Y000622D01*
X001095D01*
X001083Y000633D02*
X001095Y000635D01*
X001087Y000638D02*
X001095Y000635D01*
X001087Y000638D02*
X001095Y00064D01*
X001083Y000643D02*
X001095Y00064D01*
X001088Y000647D02*
X001089Y000653D01*
X001086Y000647D02*
X001088D01*
X001084Y000647D02*
X001086Y000647D01*
X001083Y000649D02*
X001084Y000647D01*
X001083Y000649D02*
Y000651D01*
X001084Y000652D01*
X001086Y000653D01*
X001093D01*
X001094Y000652D01*
X001095Y000651D01*
Y000649D02*
Y000651D01*
X001094Y000647D02*
X001095Y000649D01*
Y000662D02*
Y000665D01*
X001094Y00066D02*
X001095Y000662D01*
X001093Y000659D02*
X001094Y00066D01*
X001091Y000659D02*
X001093Y000659D01*
X001088Y000658D02*
X001091Y000659D01*
X001085Y000658D02*
X001088D01*
X001082Y000659D02*
X001085Y000658D01*
X00108Y000659D02*
X001082Y000659D01*
X001078Y00066D02*
X00108Y000659D01*
X001077Y000662D02*
X001078Y00066D01*
X001077Y000662D02*
Y000665D01*
X001095D01*
X000299Y000524D02*
Y000528D01*
X000306D01*
X000302Y000525D02*
Y000528D01*
X000299Y00053D02*
Y000533D01*
X000306D01*
X000302Y000531D02*
Y000533D01*
X000299Y000538D02*
X0003Y000539D01*
X0003Y00054D01*
X000302Y00054D01*
X000304D01*
X000305Y00054D01*
X000305Y000539D01*
X000306Y000538D01*
Y000537D02*
Y000538D01*
X000305Y000537D02*
X000306Y000537D01*
X000305Y000536D02*
X000305Y000537D01*
X000304Y000536D02*
X000305Y000536D01*
X000302Y000536D02*
X000304D01*
X0003Y000536D02*
X000302Y000536D01*
X0003Y000537D02*
X0003Y000536D01*
X000299Y000537D02*
X0003Y000537D01*
X000299Y000537D02*
Y000538D01*
X000277Y000529D02*
X000283D01*
X000277Y000533D02*
X000283Y000529D01*
X000277Y000533D02*
X000283D01*
X000277Y000538D02*
X000277Y000539D01*
X000277Y000539D01*
X000279Y00054D01*
X000281D01*
X000282Y000539D01*
X000283Y000539D01*
X000283Y000538D01*
Y000537D02*
Y000538D01*
X000283Y000536D02*
X000283Y000537D01*
X000282Y000536D02*
X000283Y000536D01*
X000281Y000535D02*
X000282Y000536D01*
X000279Y000535D02*
X000281D01*
X000277Y000536D02*
X000279Y000535D01*
X000277Y000536D02*
X000277Y000536D01*
X000277Y000537D02*
X000277Y000536D01*
X000277Y000537D02*
Y000538D01*
X00026Y000546D02*
Y00055D01*
X000268D01*
Y000546D02*
Y00055D01*
X000264Y000547D02*
Y00055D01*
X00026Y000556D02*
X00026Y000557D01*
X000261Y000558D01*
X000263Y000558D01*
X000265D01*
X000267Y000558D01*
X000267Y000557D01*
X000268Y000556D01*
Y000555D02*
Y000556D01*
X000267Y000554D02*
X000268Y000555D01*
X000267Y000554D02*
X000267Y000554D01*
X000265Y000553D02*
X000267Y000554D01*
X000263Y000553D02*
X000265D01*
X000261Y000554D02*
X000263Y000553D01*
X00026Y000554D02*
X000261Y000554D01*
X00026Y000555D02*
X00026Y000554D01*
X00026Y000555D02*
Y000556D01*
X000268Y00056D02*
Y000566D01*
X000264Y000571D02*
X000264Y000571D01*
X000263Y000571D02*
X000264Y000571D01*
X000263Y00057D02*
X000263Y000571D01*
X000263Y000568D02*
Y00057D01*
Y000568D02*
X000263Y000568D01*
X000264Y000567D01*
X000264Y000567D01*
X000266D01*
X000267Y000567D01*
X000267Y000568D01*
X000268Y000568D01*
Y00057D01*
X000267Y000571D02*
X000268Y00057D01*
X000267Y000571D02*
X000267Y000571D01*
X000266Y000571D02*
X000267Y000571D01*
X000263Y000571D02*
X000266D01*
X000262Y000571D02*
X000263Y000571D01*
X000261Y00057D02*
X000262Y000571D01*
X00026Y00057D02*
X000261Y00057D01*
X00026Y000569D02*
X00026Y00057D01*
X00026Y000568D02*
Y000569D01*
Y000575D02*
X000266D01*
X000267Y000575D01*
X000267Y000575D01*
X000268Y000576D01*
Y000578D01*
X000267Y000578D02*
X000268Y000578D01*
X000267Y000579D02*
X000267Y000578D01*
X000266Y000579D02*
X000267Y000579D01*
X00026Y000579D02*
X000266D01*
X000288Y000524D02*
X000289Y000525D01*
X000288Y000524D02*
X000288Y000524D01*
X000287Y000523D02*
X000288Y000524D01*
X000287Y000523D02*
X000294D01*
Y000521D02*
Y000525D01*
X000288Y000532D02*
X000289Y000532D01*
X000288Y000531D02*
X000288Y000532D01*
X000287Y00053D02*
X000288Y000531D01*
X000287Y00053D02*
X000294D01*
Y000528D02*
Y000532D01*
X000291Y000537D02*
Y00054D01*
X00029Y000536D02*
X000291Y000537D01*
X00029Y000536D02*
X00029Y000536D01*
X000289Y000535D02*
X00029Y000536D01*
X000288Y000535D02*
X000289D01*
X000287Y000536D02*
X000288Y000535D01*
X000287Y000536D02*
X000287Y000536D01*
X000287Y000537D02*
X000287Y000536D01*
X000287Y000537D02*
Y00054D01*
X000294D01*
X000648Y00036D02*
X000649Y00036D01*
X000648Y000359D02*
X000648Y00036D01*
X000647Y000358D02*
X000648Y000359D01*
X000647Y000357D02*
Y000358D01*
Y000357D02*
X000648Y000356D01*
X000648Y000356D01*
X000649Y000356D01*
X00065D01*
X000651Y000356D01*
X000651Y000356D01*
X000652Y000357D01*
Y000358D01*
X000651Y000359D02*
X000652Y000358D01*
X000651Y00036D02*
X000651Y000359D01*
X00065Y00036D02*
X000651Y00036D01*
X000649Y00036D02*
X00065D01*
X000648Y00036D02*
X000649Y00036D01*
X000648Y000361D02*
X000648Y00036D01*
X000647Y000361D02*
X000648Y000361D01*
X000647Y000361D02*
Y000362D01*
X000648Y000362D01*
X000648Y000363D01*
X000649Y000363D01*
X00065D01*
X000651Y000363D01*
X000651Y000362D01*
X000652Y000362D01*
Y000361D02*
Y000362D01*
X000651Y000361D02*
X000652Y000361D01*
X000651Y00036D02*
X000651Y000361D01*
X00065Y00036D02*
X000651Y00036D01*
X000657Y000356D02*
X000659D01*
X000656Y000356D02*
X000657Y000356D01*
X000655Y000357D02*
X000656Y000356D01*
X000655Y000357D02*
X000655Y000357D01*
X000655Y000359D02*
X000655Y000357D01*
X000655Y000359D02*
Y00036D01*
X000655Y000361D01*
X000655Y000362D01*
X000656Y000363D01*
X000657Y000363D01*
X000659D01*
Y000356D02*
Y000363D01*
X000313Y000427D02*
X000315D01*
X000312Y000427D02*
X000313Y000427D01*
X000312Y000428D02*
X000312Y000427D01*
X000311Y000428D02*
X000312Y000428D01*
X000311Y000428D02*
Y000429D01*
X000312Y00043D01*
X000312Y00043D01*
X000313Y00043D01*
X000315D01*
Y000423D02*
Y00043D01*
X000312Y000423D02*
X000315D01*
X000312Y000423D02*
X000312Y000423D01*
X000311Y000424D02*
X000312Y000423D01*
X000311Y000424D02*
X000311Y000424D01*
X000311Y000424D02*
Y000425D01*
X000311Y000426D01*
X000312Y000426D01*
X000313Y000427D01*
X000317Y000422D02*
X000323D01*
X000326Y000427D02*
X000329D01*
X000325Y000427D02*
X000326Y000427D01*
X000325Y000428D02*
X000325Y000427D01*
X000325Y000428D02*
X000325Y000428D01*
X000325Y000428D02*
Y000429D01*
X000325Y00043D01*
X000325Y00043D01*
X000326Y00043D01*
X000329D01*
Y000423D02*
Y00043D01*
X000326Y000423D02*
X000329D01*
X000325Y000423D02*
X000326Y000423D01*
X000325Y000424D02*
X000325Y000423D01*
X000324Y000424D02*
X000325Y000424D01*
X000324Y000424D02*
Y000425D01*
X000325Y000426D01*
X000325Y000426D01*
X000326Y000427D01*
X000332Y00043D02*
X000333Y00043D01*
X000335D01*
X000335Y00043D01*
X000336Y00043D01*
X000336Y000429D01*
Y000428D02*
Y000429D01*
X000336Y000428D02*
X000336Y000428D01*
X000335Y000427D02*
X000336Y000428D01*
X000335Y000427D02*
X000335Y000427D01*
X000333Y000426D02*
X000335Y000427D01*
X000333Y000426D02*
X000333Y000426D01*
X000332Y000426D02*
X000333Y000426D01*
X000332Y000425D02*
X000332Y000426D01*
X000332Y000424D02*
Y000425D01*
Y000424D02*
X000332Y000424D01*
X000333Y000423D01*
X000333Y000423D01*
X000335D01*
X000336Y000423D01*
X000339Y000424D02*
Y00043D01*
Y000424D02*
X00034Y000424D01*
X00034Y000423D01*
X000341Y000423D01*
X000342D01*
X000343Y000423D01*
X000343Y000424D01*
X000344Y000424D01*
Y00043D01*
X000347Y000424D02*
Y00043D01*
Y000424D02*
X000348Y000424D01*
X000348Y000423D01*
X000349Y000423D01*
X00035D01*
X000351Y000423D01*
X000351Y000424D01*
X000352Y000424D01*
Y00043D01*
X000311Y000434D02*
X000316D01*
X000311Y000439D02*
X000316Y000434D01*
X000311Y00044D02*
X000311Y000439D01*
X000311Y00044D02*
Y00044D01*
X000311Y000441D01*
X000312Y000442D01*
X000313Y000442D01*
X000314D01*
X000315Y000442D01*
X000315Y000441D01*
X000322Y00044D02*
X000323Y00044D01*
X000321Y000441D02*
X000322Y00044D01*
X00032Y000442D02*
X000321Y000441D01*
X00032Y000434D02*
Y000442D01*
X000318Y000434D02*
X000323D01*
X000327Y000438D02*
X00033D01*
X000326Y000438D02*
X000327Y000438D01*
X000326Y000439D02*
X000326Y000438D01*
X000326Y000439D02*
X000326Y000439D01*
X000326Y000439D02*
Y00044D01*
X000326Y000441D01*
X000326Y000442D01*
X000327Y000442D01*
X00033D01*
Y000434D02*
Y000442D01*
X000811Y000537D02*
X000812Y000537D01*
X00081Y000537D02*
X000811Y000537D01*
X000808Y000537D02*
X00081D01*
X000808Y000537D02*
X000808Y000537D01*
X000807Y000537D02*
X000808Y000537D01*
X000807Y000538D02*
X000807Y000537D01*
X000807Y000538D02*
Y00054D01*
X000807Y000541D01*
X000808Y000541D01*
X000808Y000541D01*
X000809D01*
X000807Y000544D02*
X000809Y000541D01*
X000807Y000544D02*
X000812D01*
X000816Y00054D02*
X000818D01*
X000815Y000541D02*
X000816Y00054D01*
X000814Y000541D02*
X000815Y000541D01*
X000814Y000542D02*
X000814Y000541D01*
X000814Y000542D02*
Y000543D01*
X000814Y000543D01*
X000815Y000544D01*
X000816Y000544D01*
X000818D01*
Y000537D02*
Y000544D01*
X000781Y000528D02*
X000783D01*
X000781Y000526D02*
Y000528D01*
Y000526D02*
X000781Y000525D01*
X000783Y000525D01*
X000783D01*
X000784Y000525D01*
X000785Y000526D01*
X000786Y000527D01*
X000786Y000528D01*
Y000529D01*
X000786Y000531D02*
X000786Y000529D01*
X000785Y000532D02*
X000786Y000531D01*
X000784Y000532D02*
X000785Y000532D01*
X000783Y000533D02*
X000784Y000532D01*
X000782Y000533D02*
X000783D01*
X000781Y000532D02*
X000782Y000533D01*
X000788Y000525D02*
X000791Y000533D01*
X000793Y000525D01*
X000789Y000527D02*
X000792D01*
X000797Y000525D02*
Y000533D01*
X000795D02*
X000799D01*
X000804Y000525D02*
X000804D01*
X000803Y000525D02*
X000804Y000525D01*
X000802Y000526D02*
X000803Y000525D01*
X000801Y000527D02*
X000802Y000526D01*
X000801Y000527D02*
Y000533D01*
X000805Y000524D02*
X000811D01*
X000813Y000527D02*
Y000533D01*
Y000527D02*
X000813Y000526D01*
X000814Y000525D01*
X000815Y000525D01*
X000816D01*
X000817Y000525D01*
X000817Y000526D01*
X000817Y000527D01*
Y000533D01*
X000822Y000529D02*
X000825D01*
X000821Y000529D02*
X000822Y000529D01*
X000821Y000529D02*
X000821Y000529D01*
X000821Y00053D02*
X000821Y000529D01*
X000821Y00053D02*
Y000531D01*
X000821Y000532D01*
X000821Y000532D01*
X000822Y000533D01*
X000825D01*
Y000525D02*
Y000533D01*
X000828Y000528D02*
X00083D01*
X000828Y000526D02*
Y000528D01*
Y000526D02*
X000829Y000525D01*
X00083Y000525D01*
X00083D01*
X000832Y000525D01*
X000832Y000526D01*
X000833Y000527D01*
X000833Y000528D01*
Y000529D01*
X000833Y000531D02*
X000833Y000529D01*
X000832Y000532D02*
X000833Y000531D01*
X000832Y000532D02*
X000832Y000532D01*
X00083Y000533D02*
X000832Y000532D01*
X000829Y000533D02*
X00083D01*
X000829Y000532D02*
X000829Y000533D01*
X000781Y000537D02*
X000786D01*
X000782Y000541D02*
X000786Y000537D01*
X000781Y000542D02*
X000782Y000541D01*
X000781Y000542D02*
Y000543D01*
X000782Y000543D01*
X000782Y000544D01*
X000783Y000544D01*
X000785D01*
X000785Y000544D01*
X000786Y000543D01*
X00079Y00054D02*
X000793D01*
X000789Y000541D02*
X00079Y00054D01*
X000789Y000541D02*
X000789Y000541D01*
X000789Y000542D02*
X000789Y000541D01*
X000789Y000542D02*
Y000543D01*
X000789Y000543D01*
X000789Y000544D01*
X00079Y000544D01*
X000793D01*
Y000537D02*
Y000544D01*
X000525Y000736D02*
X000527D01*
X000525Y000725D02*
Y000736D01*
Y000725D02*
X000527D01*
X000533Y000728D02*
Y000733D01*
X00053Y000731D02*
X000536D01*
X000539Y000736D02*
X00054D01*
Y000725D02*
Y000736D01*
X000539Y000725D02*
X00054D01*
X000525Y000512D02*
X000527D01*
X000525Y000501D02*
Y000512D01*
Y000501D02*
X000527D01*
X00053Y000506D02*
X000536D01*
X000539Y000512D02*
X00054D01*
Y000501D02*
Y000512D01*
X000539Y000501D02*
X00054D01*
X000549Y000609D02*
X00055Y000609D01*
X000551Y00061D01*
X000551D01*
X000552Y000609D01*
X000553Y000608D01*
X000554Y000608D01*
X000554Y000606D01*
Y000605D02*
Y000606D01*
X000554Y000604D02*
X000554Y000605D01*
X000553Y000603D02*
X000554Y000604D01*
X000552Y000602D02*
X000553Y000603D01*
X000551Y000602D02*
X000552Y000602D01*
X000551Y000602D02*
X000551D01*
X00055Y000602D02*
X000551Y000602D01*
X000549Y000603D02*
X00055Y000602D01*
X000558Y000602D02*
Y00061D01*
X000556D02*
X00056D01*
X000564Y000606D02*
X000567D01*
X000563Y000606D02*
X000564Y000606D01*
X000563Y000606D02*
X000563Y000606D01*
X000563Y000607D02*
X000563Y000606D01*
X000563Y000607D02*
Y000608D01*
X000563Y000609D01*
X000563Y000609D01*
X000564Y00061D01*
X000567D01*
Y000602D02*
Y00061D01*
X000563Y000602D02*
X000565Y000606D01*
X000569Y000601D02*
X000575D01*
X000577Y000602D02*
Y00061D01*
X000575D02*
X00058D01*
X000583Y000602D02*
Y00061D01*
X000581D02*
X000585D01*
X000587Y000602D02*
X000589Y00061D01*
X000592Y000602D01*
X000588Y000604D02*
X000591D01*
X000596Y000606D02*
X000599D01*
X000595Y000606D02*
X000596Y000606D01*
X000595Y000607D02*
X000595Y000606D01*
X000595Y000607D02*
X000595Y000607D01*
X000595Y000607D02*
Y000608D01*
X000595Y000609D01*
X000595Y000609D01*
X000596Y00061D01*
X000599D01*
Y000602D02*
Y00061D01*
X000596Y000602D02*
X000599D01*
X000595Y000602D02*
X000596Y000602D01*
X000595Y000603D02*
X000595Y000602D01*
X000594Y000603D02*
X000595Y000603D01*
X000594Y000603D02*
Y000604D01*
X000595Y000605D01*
X000595Y000606D01*
X000596Y000606D01*
X000527Y000719D02*
X000528Y000719D01*
X000526Y00072D02*
X000527Y000719D01*
X000525Y000721D02*
X000526Y00072D01*
X000525Y000714D02*
Y000721D01*
X000523Y000714D02*
X000528D01*
X000532D02*
Y000721D01*
X00053D02*
X000534D01*
X000538Y000718D02*
X000541D01*
X000537Y000718D02*
X000538Y000718D01*
X000537Y000718D02*
X000537Y000718D01*
X000537Y000719D02*
X000537Y000718D01*
X000537Y000719D02*
Y00072D01*
X000537Y000721D01*
X000537Y000721D01*
X000538Y000721D01*
X000541D01*
Y000714D02*
Y000721D01*
X000538Y000714D02*
X000541D01*
X000537Y000714D02*
X000538Y000714D01*
X000537Y000714D02*
X000537Y000714D01*
X000536Y000715D02*
X000537Y000714D01*
X000536Y000715D02*
Y000716D01*
X000537Y000717D01*
X000537Y000717D01*
X000538Y000718D01*
X000411Y000433D02*
X000411Y000432D01*
X000411Y000432D01*
X000412Y000431D01*
X000413D01*
X000414Y000432D01*
X000415Y000432D01*
X000415Y000433D01*
Y000435D01*
X000415Y000435D02*
X000415Y000435D01*
X000414Y000436D02*
X000415Y000435D01*
X000413Y000436D02*
X000414Y000436D01*
X000412Y000436D02*
X000413D01*
X000411Y000436D02*
X000412Y000436D01*
X000411Y000435D02*
X000411Y000436D01*
X000411Y000435D02*
X000411Y000435D01*
X000411Y000432D02*
Y000435D01*
Y000432D02*
X000411Y00043D01*
X000412Y000429D01*
X000412Y000429D01*
X000413Y000429D01*
X000414D01*
X000419Y000432D02*
X000422D01*
X000419Y000433D02*
X000419Y000432D01*
X000418Y000433D02*
X000419Y000433D01*
X000418Y000434D02*
X000418Y000433D01*
X000418Y000434D02*
Y000435D01*
X000418Y000435D01*
X000419Y000436D01*
X000419Y000436D01*
X000422D01*
Y000429D02*
Y000436D01*
X000418Y000429D02*
X00042Y000432D01*
X000341Y000503D02*
Y00051D01*
Y000503D02*
X000346Y00051D01*
Y000503D02*
Y00051D01*
X000353Y000509D02*
X000353Y000508D01*
X000352Y000509D02*
X000353Y000509D01*
X000351Y00051D02*
X000352Y000509D01*
X000351Y000503D02*
Y00051D01*
X000349Y000503D02*
X000353D01*
X00036Y000503D02*
X000361Y000503D01*
X00036Y000503D02*
X00036Y000503D01*
X000358Y000503D02*
X00036D01*
X000357Y000503D02*
X000358Y000503D01*
X000356Y000503D02*
X000357Y000503D01*
X000356Y000504D02*
X000356Y000503D01*
X000356Y000504D02*
Y000506D01*
X000356Y000507D01*
X000357Y000507D01*
X000358Y000507D01*
X000359D01*
X000356Y00051D02*
X000359Y000507D01*
X000356Y00051D02*
X000361D01*
X000363Y000503D02*
X000368D01*
X000364Y000507D02*
X000368Y000503D01*
X000363Y000508D02*
X000364Y000507D01*
X000363Y000508D02*
Y000509D01*
X000364Y00051D01*
X000364Y00051D01*
X000365Y00051D01*
X000367D01*
X000367Y00051D01*
X000368Y00051D01*
X000375Y000503D02*
X000375Y000503D01*
X000374Y000503D02*
X000375Y000503D01*
X000372Y000503D02*
X000374D01*
X000371Y000503D02*
X000372Y000503D01*
X000371Y000503D02*
X000371Y000503D01*
X000371Y000504D02*
X000371Y000503D01*
X000371Y000504D02*
Y000506D01*
X000371Y000507D01*
X000371Y000507D01*
X000372Y000507D01*
X000373D01*
X000371Y00051D02*
X000373Y000507D01*
X000371Y00051D02*
X000375D01*
X000378Y00051D02*
X000379Y00051D01*
X000381D01*
X000382Y00051D01*
X000382Y00051D01*
X000382Y000509D01*
Y000508D02*
Y000509D01*
X000382Y000507D02*
X000382Y000508D01*
X000382Y000507D02*
X000382Y000507D01*
X000381Y000507D02*
X000382Y000507D01*
X000379Y000506D02*
X000381Y000507D01*
X000379Y000506D02*
X000379Y000506D01*
X000378Y000506D02*
X000379Y000506D01*
X000378Y000505D02*
X000378Y000506D01*
X000378Y000504D02*
Y000505D01*
Y000504D02*
X000378Y000503D01*
X000379Y000503D01*
X000379Y000503D01*
X000381D01*
X000382Y000503D01*
X000388Y000503D02*
X00039D01*
X000387Y000503D02*
X000388Y000503D01*
X000386Y000504D02*
X000387Y000503D01*
X000386Y000505D02*
X000386Y000504D01*
X000385Y000506D02*
X000386Y000505D01*
X000385Y000506D02*
Y000507D01*
X000386Y000509D01*
X000386Y000509D01*
X000387Y00051D01*
X000388Y00051D01*
X00039D01*
Y000503D02*
Y00051D01*
X000417Y000464D02*
X000422D01*
X00042Y000469D02*
X000422Y000464D01*
X000418Y000461D02*
Y000467D01*
X000425Y000463D02*
Y000469D01*
Y000463D02*
X000426Y000462D01*
X000426Y000462D01*
X000427Y000461D01*
X000428D01*
X000429Y000462D01*
X000429Y000462D01*
X00043Y000463D01*
Y000469D01*
X000684Y000535D02*
X000688D01*
X000684Y00054D02*
X000688Y000535D01*
X000684Y00054D02*
X000688D01*
X000691Y000535D02*
Y000542D01*
Y000539D02*
X000695D01*
Y000535D02*
Y000542D01*
X000699Y000535D02*
Y000542D01*
X000702Y000537D01*
X000704Y000542D01*
Y000535D02*
Y000542D01*
X000711Y000539D02*
X000712Y000538D01*
X000711Y000539D02*
X000711Y000539D01*
X00071Y00054D02*
X000711Y000539D01*
X000709Y00054D02*
X00071D01*
X000708Y000539D02*
X000709Y00054D01*
X000708Y000539D02*
X000708Y000539D01*
X000707Y000538D02*
X000708Y000539D01*
X000707Y000536D02*
Y000538D01*
Y000536D02*
X000708Y000536D01*
X000708Y000535D01*
X000709Y000535D01*
X00071D01*
X000711Y000535D01*
X000711Y000536D01*
X000712Y000536D01*
Y000539D01*
X000711Y000541D02*
X000712Y000539D01*
X000711Y000542D02*
X000711Y000541D01*
X00071Y000542D02*
X000711Y000542D01*
X00071Y000542D02*
X00071Y000542D01*
X000708Y000542D02*
X00071D01*
X000718Y000541D02*
X000719Y00054D01*
X000718Y000541D02*
X000718Y000541D01*
X000717Y000542D02*
X000718Y000541D01*
X000717Y000535D02*
Y000542D01*
X000715Y000535D02*
X000719D01*
X00071Y000554D02*
X000711Y000554D01*
X00071Y000555D02*
X00071Y000554D01*
X000709Y000556D02*
X00071Y000555D01*
X000709Y000549D02*
Y000556D01*
X000707Y000549D02*
X000711D01*
X000714Y000556D02*
X000719Y000549D01*
X000714D02*
X000719Y000556D01*
X001012Y000453D02*
X001017D01*
X001012Y000458D02*
X001017Y000453D01*
X001012Y000459D02*
X001012Y000458D01*
X001012Y000459D02*
Y000459D01*
X001012Y00046D01*
X001013Y000461D01*
X001013Y000461D01*
X001015D01*
X001016Y000461D01*
X001016Y00046D01*
X001021Y000457D02*
X001024D01*
X00102Y000457D02*
X001021Y000457D01*
X00102Y000458D02*
X00102Y000457D01*
X001019Y000458D02*
X00102Y000458D01*
X001019Y000458D02*
Y000459D01*
X00102Y00046D01*
X00102Y000461D01*
X001021Y000461D01*
X001024D01*
Y000453D02*
Y000461D01*
X001019Y000453D02*
X001022Y000457D01*
X001041Y000459D02*
X001042Y000459D01*
X00104Y00046D02*
X001041Y000459D01*
X00104Y000461D02*
X00104Y00046D01*
X00104Y000453D02*
Y000461D01*
X001037Y000453D02*
X001042D01*
X001046Y000457D02*
X001049D01*
X001045Y000457D02*
X001046Y000457D01*
X001045Y000458D02*
X001045Y000457D01*
X001045Y000458D02*
X001045Y000458D01*
X001045Y000458D02*
Y000459D01*
X001045Y00046D01*
X001045Y000461D01*
X001046Y000461D01*
X001049D01*
Y000453D02*
Y000461D01*
X001045Y000453D02*
X001047Y000457D01*
X000754Y000623D02*
X000754Y000623D01*
X000755Y000622D01*
X000755Y000621D01*
X000755Y00062D01*
Y000618D02*
Y00062D01*
X000755Y000617D02*
X000755Y000618D01*
X000755Y000616D02*
X000755Y000617D01*
X000754Y000616D02*
X000755Y000616D01*
X000754Y000615D02*
X000754Y000616D01*
X000753Y000615D02*
X000754D01*
X000752Y000616D02*
X000753Y000615D01*
X000752Y000616D02*
X000752Y000616D01*
X000751Y000617D02*
X000752Y000616D01*
X000751Y000618D02*
X000751Y000617D01*
X000751Y000618D02*
Y00062D01*
X000751Y000621D01*
X000752Y000622D01*
X000752Y000623D01*
X000753Y000623D01*
X000754D01*
X000762Y000621D02*
X000763Y000621D01*
X000761Y000622D02*
X000762Y000621D01*
X000761Y000623D02*
X000761Y000622D01*
X000761Y000615D02*
Y000623D01*
X000758Y000615D02*
X000763D01*
X000766Y000622D02*
X000766Y000623D01*
X000767Y000623D01*
X000768D01*
X000769Y000623D01*
X00077Y000622D01*
X00077Y000621D01*
X00077Y00062D01*
Y000619D02*
Y00062D01*
X00077Y000617D02*
X00077Y000619D01*
X00077Y000616D02*
X00077Y000617D01*
X000769Y000616D02*
X00077Y000616D01*
X000768Y000615D02*
X000769Y000616D01*
X000767Y000615D02*
X000768D01*
X000766Y000616D02*
X000767Y000615D01*
X000766Y000616D02*
X000766Y000616D01*
X000395Y000589D02*
X000395Y000588D01*
X000395Y000587D01*
X000396Y000587D01*
X000398D01*
X000398Y000587D01*
X000399Y000588D01*
X000399Y000589D01*
Y00059D01*
X000399Y000591D02*
X000399Y00059D01*
X000398Y000591D02*
X000399Y000591D01*
X000398Y000592D02*
X000398Y000591D01*
X000396Y000592D02*
X000398D01*
X000395Y000591D02*
X000396Y000592D01*
X000395Y000591D02*
X000395Y000591D01*
X000395Y00059D02*
X000395Y000591D01*
X000395Y000587D02*
Y00059D01*
Y000587D02*
X000395Y000586D01*
X000396Y000585D01*
X000396Y000585D01*
X000397Y000584D01*
X000398D01*
X000402Y000591D02*
X000402Y000591D01*
X000403Y000592D01*
X000404D01*
X000405Y000591D01*
X000406Y000591D01*
X000406Y00059D01*
X000407Y000589D01*
Y000587D02*
Y000589D01*
X000406Y000586D02*
X000407Y000587D01*
X000406Y000585D02*
X000406Y000586D01*
X000405Y000585D02*
X000406Y000585D01*
X000404Y000584D02*
X000405Y000585D01*
X000403Y000584D02*
X000404D01*
X000402Y000585D02*
X000403Y000584D01*
X000402Y000585D02*
X000402Y000585D01*
X00081Y000461D02*
X000811Y000461D01*
X00081Y000462D02*
X00081Y000461D01*
X000809Y000463D02*
X00081Y000462D01*
X000809Y000455D02*
Y000463D01*
X000807Y000455D02*
X000811D01*
X000814Y000462D02*
X000814Y000463D01*
X000816Y000463D01*
X000816D01*
X000817Y000463D01*
X000818Y000462D01*
X000818Y000461D01*
X000819Y00046D01*
Y000459D02*
Y00046D01*
X000818Y000457D02*
X000819Y000459D01*
X000818Y000456D02*
X000818Y000457D01*
X000817Y000456D02*
X000818Y000456D01*
X000816Y000455D02*
X000817Y000456D01*
X000816Y000455D02*
X000816D01*
X000814Y000456D02*
X000816Y000455D01*
X000814Y000456D02*
X000814Y000456D01*
X000724Y000621D02*
X000724Y000621D01*
X000723Y000622D02*
X000724Y000621D01*
X000722Y000623D02*
X000723Y000622D01*
X000722Y000615D02*
Y000623D01*
X00072Y000615D02*
X000724D01*
X000731Y000621D02*
X000732Y000621D01*
X00073Y000622D02*
X000731Y000621D01*
X000729Y000623D02*
X00073Y000622D01*
X000729Y000615D02*
Y000623D01*
X000727Y000615D02*
X000732D01*
X000735Y000622D02*
X000735Y000623D01*
X000736Y000623D01*
X000737D01*
X000738Y000623D01*
X000739Y000622D01*
X000739Y000621D01*
X000739Y00062D01*
Y000619D02*
Y00062D01*
X000739Y000617D02*
X000739Y000619D01*
X000739Y000616D02*
X000739Y000617D01*
X000738Y000616D02*
X000739Y000616D01*
X000737Y000615D02*
X000738Y000616D01*
X000736Y000615D02*
X000737D01*
X000735Y000616D02*
X000736Y000615D01*
X000735Y000616D02*
X000735Y000616D01*
X000281Y000693D02*
X000285D01*
X000281Y000697D02*
X000285Y000693D01*
X000281Y000698D02*
X000281Y000697D01*
X000281Y000698D02*
Y000699D01*
X000281Y0007D01*
X000281Y0007D01*
X000282Y0007D01*
X000284D01*
X000285Y0007D01*
X000285Y0007D01*
X000291Y000699D02*
X000292Y000698D01*
X000291Y000699D02*
X000291Y000699D01*
X00029Y0007D02*
X000291Y000699D01*
X00029Y000693D02*
Y0007D01*
X000288Y000693D02*
X000292D01*
X000295Y0007D02*
X000295Y0007D01*
X000297Y0007D01*
X000297D01*
X000298Y0007D01*
X000299Y000699D01*
X000299Y000699D01*
X0003Y000697D01*
Y000696D02*
Y000697D01*
X000299Y000695D02*
X0003Y000696D01*
X000299Y000694D02*
X000299Y000695D01*
X000298Y000693D02*
X000299Y000694D01*
X000297Y000693D02*
X000298Y000693D01*
X000297Y000693D02*
X000297D01*
X000295Y000693D02*
X000297Y000693D01*
X000295Y000693D02*
X000295Y000693D01*
X000316Y000754D02*
X000316Y000754D01*
X000315Y000754D02*
X000316Y000754D01*
X000313Y000754D02*
X000315D01*
X000312Y000754D02*
X000313Y000754D01*
X000312Y000754D02*
X000312Y000754D01*
X000312Y000755D02*
X000312Y000754D01*
X000312Y000755D02*
Y000757D01*
X000312Y000758D01*
X000312Y000758D01*
X000313Y000758D01*
X000314D01*
X000312Y000761D02*
X000314Y000758D01*
X000312Y000761D02*
X000316D01*
X000323Y000759D02*
X000323Y000759D01*
X000322Y00076D02*
X000323Y000759D01*
X000321Y000761D02*
X000322Y00076D01*
X000321Y000754D02*
Y000761D01*
X000319Y000754D02*
X000323D01*
X000326Y000761D02*
X000327Y000761D01*
X000328Y000761D01*
X000328D01*
X000329Y000761D01*
X00033Y00076D01*
X000331Y000759D01*
X000331Y000758D01*
Y000757D02*
Y000758D01*
X000331Y000755D02*
X000331Y000757D01*
X00033Y000755D02*
X000331Y000755D01*
X000329Y000754D02*
X00033Y000755D01*
X000328Y000754D02*
X000329Y000754D01*
X000328Y000754D02*
X000328D01*
X000327Y000754D02*
X000328Y000754D01*
X000326Y000754D02*
X000327Y000754D01*
X000311Y000624D02*
X000311Y000624D01*
X00031Y000624D02*
X000311Y000624D01*
X000308Y000624D02*
X00031D01*
X000307Y000624D02*
X000308Y000624D01*
X000307Y000624D02*
X000307Y000624D01*
X000307Y000625D02*
X000307Y000624D01*
X000307Y000625D02*
Y000627D01*
X000307Y000628D01*
X000307Y000628D01*
X000308Y000628D01*
X000309D01*
X000307Y000631D02*
X000309Y000628D01*
X000307Y000631D02*
X000311D01*
X000318Y000629D02*
X000318Y000629D01*
X000317Y00063D02*
X000318Y000629D01*
X000316Y000631D02*
X000317Y00063D01*
X000316Y000624D02*
Y000631D01*
X000314Y000624D02*
X000318D01*
X000323Y000627D02*
X000325D01*
X000322Y000628D02*
X000323Y000627D01*
X000321Y000628D02*
X000322Y000628D01*
X000321Y000629D02*
X000321Y000628D01*
X000321Y000629D02*
Y00063D01*
X000321Y00063D01*
X000322Y000631D01*
X000323Y000631D01*
X000325D01*
Y000624D02*
Y000631D01*
X000321Y000624D02*
X000324Y000627D01*
X00033Y000718D02*
X000331Y000719D01*
X00033Y000718D02*
X00033Y000718D01*
X000329Y000717D02*
X00033Y000718D01*
X000329Y000716D02*
Y000717D01*
Y000716D02*
X00033Y000715D01*
X00033Y000715D01*
X000331Y000714D01*
X000332D01*
X000333Y000715D01*
X000333Y000715D01*
X000334Y000716D01*
Y000717D01*
X000333Y000718D02*
X000334Y000717D01*
X000333Y000718D02*
X000333Y000718D01*
X000332Y000719D02*
X000333Y000718D01*
X000331Y000719D02*
X000332D01*
X00033Y000719D02*
X000331Y000719D01*
X00033Y000719D02*
X00033Y000719D01*
X000329Y00072D02*
X00033Y000719D01*
X000329Y00072D02*
Y00072D01*
X00033Y000721D01*
X00033Y000722D01*
X000331Y000722D01*
X000332D01*
X000333Y000722D01*
X000333Y000721D01*
X000334Y00072D01*
Y00072D02*
Y00072D01*
X000333Y000719D02*
X000334Y00072D01*
X000333Y000719D02*
X000333Y000719D01*
X000332Y000719D02*
X000333Y000719D01*
X000339Y000722D02*
X00034Y000722D01*
X00034Y000721D01*
X00034Y00072D01*
X000341Y000719D01*
Y000717D02*
Y000719D01*
X00034Y000716D02*
X000341Y000717D01*
X00034Y000715D02*
X00034Y000716D01*
X00034Y000715D02*
X00034Y000715D01*
X000339Y000714D02*
X00034Y000715D01*
X000338Y000714D02*
X000339D01*
X000338Y000715D02*
X000338Y000714D01*
X000337Y000715D02*
X000338Y000715D01*
X000337Y000716D02*
X000337Y000715D01*
X000336Y000717D02*
X000337Y000716D01*
X000336Y000717D02*
Y000719D01*
X000337Y00072D01*
X000337Y000721D01*
X000338Y000722D01*
X000338Y000722D01*
X000339D01*
X000347Y00072D02*
X000348Y00072D01*
X000347Y000721D02*
X000347Y00072D01*
X000346Y000722D02*
X000347Y000721D01*
X000346Y000714D02*
Y000722D01*
X000344Y000714D02*
X000348D01*
X000354Y000722D02*
X000354Y000722D01*
X000355Y000721D01*
X000355Y00072D01*
X000355Y000719D01*
Y000717D02*
Y000719D01*
X000355Y000716D02*
X000355Y000717D01*
X000355Y000715D02*
X000355Y000716D01*
X000354Y000715D02*
X000355Y000715D01*
X000354Y000714D02*
X000354Y000715D01*
X000353Y000714D02*
X000354D01*
X000352Y000715D02*
X000353Y000714D01*
X000352Y000715D02*
X000352Y000715D01*
X000351Y000716D02*
X000352Y000715D01*
X000351Y000717D02*
X000351Y000716D01*
X000351Y000717D02*
Y000719D01*
X000351Y00072D01*
X000352Y000721D01*
X000352Y000722D01*
X000353Y000722D01*
X000354D01*
X000358Y000722D02*
X000359Y000722D01*
X000361D01*
X000362Y000722D01*
X000362Y000721D01*
X000363Y00072D01*
Y00072D02*
Y00072D01*
X000362Y000719D02*
X000363Y00072D01*
X000362Y000719D02*
X000362Y000719D01*
X000361Y000718D02*
X000362Y000719D01*
X00036Y000718D02*
X000361Y000718D01*
X000359Y000718D02*
X00036Y000718D01*
X000359Y000717D02*
X000359Y000718D01*
X000358Y000716D02*
X000359Y000717D01*
X000358Y000716D02*
Y000716D01*
Y000716D02*
X000359Y000715D01*
X000359Y000715D01*
X00036Y000714D01*
X000362D01*
X000363Y000715D01*
X000365Y000722D02*
X00037Y000714D01*
X000365D02*
X00037Y000722D01*
X000374Y000714D02*
Y000722D01*
X000372D02*
X000376D01*
X000306Y000719D02*
X000306Y000718D01*
X000305Y000719D02*
X000306Y000719D01*
X000305Y00072D02*
X000305Y000719D01*
X000303Y00072D02*
X000305D01*
X000303Y000719D02*
X000303Y00072D01*
X000302Y000719D02*
X000303Y000719D01*
X000302Y000718D02*
X000302Y000719D01*
X000302Y000716D02*
Y000718D01*
Y000716D02*
X000302Y000716D01*
X000303Y000715D01*
X000303Y000715D01*
X000305D01*
X000305Y000715D01*
X000306Y000716D01*
X000306Y000716D01*
Y000719D01*
X000306Y000721D02*
X000306Y000719D01*
X000305Y000722D02*
X000306Y000721D01*
X000305Y000722D02*
X000305Y000722D01*
X000304Y000723D02*
X000305Y000722D01*
X000303Y000723D02*
X000304D01*
X000309Y000716D02*
Y000723D01*
Y000716D02*
X00031Y000716D01*
X00031Y000715D01*
X000311Y000715D01*
X000312D01*
X000313Y000715D01*
X000313Y000716D01*
X000314Y000716D01*
Y000723D01*
X000259Y000337D02*
X000262D01*
X000258Y000337D02*
X000259Y000337D01*
X000258Y000338D02*
X000258Y000337D01*
X000258Y000338D02*
X000258Y000338D01*
X000258Y000338D02*
Y000339D01*
X000258Y00034D01*
X000258Y000341D01*
X000259Y000341D01*
X000262D01*
Y000333D02*
Y000341D01*
X000258Y000333D02*
X00026Y000337D01*
X000267Y000333D02*
Y000341D01*
X000265D02*
X000269D01*
X000271Y000336D02*
X000277D01*
X00028Y000333D02*
X000282Y000341D01*
X000285Y000333D01*
X00028Y000336D02*
X000284D01*
X000287Y00034D02*
X000287Y000341D01*
X000288Y000341D01*
X000289D01*
X00029Y000341D01*
X000291Y00034D01*
X000291Y000339D01*
X000292Y000338D01*
Y000337D02*
Y000338D01*
X000291Y000335D02*
X000292Y000337D01*
X000291Y000334D02*
X000291Y000335D01*
X00029Y000334D02*
X000291Y000334D01*
X000289Y000333D02*
X00029Y000334D01*
X000288Y000333D02*
X000289D01*
X000287Y000334D02*
X000288Y000333D01*
X000287Y000334D02*
X000287Y000334D01*
X000297Y000341D02*
X000298Y000341D01*
X000298Y00034D01*
X000299Y000339D01*
X000299Y000338D01*
Y000336D02*
Y000338D01*
X000299Y000335D02*
X000299Y000336D01*
X000298Y000334D02*
X000299Y000335D01*
X000298Y000334D02*
X000298Y000334D01*
X000297Y000333D02*
X000298Y000334D01*
X000296Y000333D02*
X000297D01*
X000296Y000334D02*
X000296Y000333D01*
X000295Y000334D02*
X000296Y000334D01*
X000295Y000335D02*
X000295Y000334D01*
X000295Y000336D02*
X000295Y000335D01*
X000295Y000336D02*
Y000338D01*
X000295Y000339D01*
X000295Y00034D01*
X000296Y000341D01*
X000296Y000341D01*
X000297D01*
X000302Y000333D02*
Y000334D01*
X000303Y000334D01*
X000302Y000333D02*
X000303Y000334D01*
X000302D02*
X000302Y000333D01*
X000302Y000334D02*
X000302Y000334D01*
X00031Y000334D02*
X00031Y000334D01*
X000309Y000333D02*
X00031Y000334D01*
X000307Y000333D02*
X000309D01*
X000306Y000334D02*
X000307Y000333D01*
X000306Y000334D02*
X000306Y000334D01*
X000306Y000335D02*
X000306Y000334D01*
X000306Y000335D02*
Y000337D01*
X000306Y000337D01*
X000306Y000338D01*
X000307Y000338D01*
X000309D01*
X00031Y000338D01*
X00031Y000337D01*
X00031Y000341D02*
X00031Y000337D01*
X000306Y000341D02*
X00031D01*
X000315Y000333D02*
X000316D01*
X000314Y000334D02*
X000315Y000333D01*
X000314Y000334D02*
X000314Y000334D01*
X000313Y000336D02*
X000314Y000334D01*
X000313Y000336D02*
Y000341D01*
X00032Y000337D02*
X000323D01*
X00032Y000338D02*
X00032Y000337D01*
X000319Y000338D02*
X00032Y000338D01*
X000319Y000339D02*
X000319Y000338D01*
X000319Y000339D02*
Y000339D01*
X000319Y00034D01*
X00032Y000341D01*
X00032Y000341D01*
X000323D01*
Y000333D02*
Y000341D01*
X00032Y000333D02*
X000323D01*
X000319Y000334D02*
X00032Y000333D01*
X000319Y000334D02*
X000319Y000334D01*
X000319Y000335D02*
X000319Y000334D01*
X000319Y000335D02*
Y000336D01*
X000319Y000337D01*
X000319Y000337D01*
X00032Y000337D01*
X000327Y000333D02*
Y000341D01*
X000329Y000336D01*
X000332Y000341D01*
Y000333D02*
Y000341D01*
X000335Y000341D02*
X000336Y000341D01*
X000338D01*
X000339Y000341D01*
X000339Y00034D01*
X000339Y000339D01*
Y000339D02*
Y000339D01*
X000339Y000338D02*
X000339Y000339D01*
X000339Y000338D02*
X000339Y000338D01*
X000338Y000337D02*
X000339Y000338D01*
X000336Y000337D02*
X000338Y000337D01*
X000336Y000337D02*
X000336Y000337D01*
X000335Y000336D02*
X000336Y000337D01*
X000335Y000336D02*
X000335Y000336D01*
X000335Y000335D02*
Y000336D01*
Y000335D02*
X000335Y000334D01*
X000336Y000334D01*
X000336Y000333D01*
X000338D01*
X000339Y000334D01*
X000288Y000329D02*
X000291Y000321D01*
X000288Y000329D02*
X000293D01*
X000298Y000321D02*
X0003D01*
X000297Y000322D02*
X000298Y000321D01*
X000296Y000322D02*
X000297Y000322D01*
X000296Y000323D02*
X000296Y000322D01*
X000295Y000325D02*
X000296Y000323D01*
X000295Y000325D02*
Y000326D01*
X000296Y000327D01*
X000296Y000328D01*
X000297Y000329D01*
X000298Y000329D01*
X0003D01*
Y000321D02*
Y000329D01*
X000288Y000548D02*
Y000558D01*
X000294Y000548D02*
Y000558D01*
X000275Y000579D02*
Y000589D01*
X000281Y000579D02*
Y000589D01*
X0003Y000579D02*
Y000589D01*
X000307Y000579D02*
Y000589D01*
X000809Y000555D02*
X000817D01*
X000809Y000566D02*
X000817D01*
X000809Y00058D02*
X000817D01*
X000809Y000591D02*
X000817D01*
X000809Y000605D02*
X000817D01*
X000809Y000617D02*
X000817D01*
X000809Y000631D02*
X000817D01*
X000809Y000642D02*
X000817D01*
X000809Y000656D02*
X000817D01*
X000809Y000667D02*
X000817D01*
X000809Y000682D02*
X000817D01*
X000809Y000693D02*
X000817D01*
X000809Y000707D02*
X000817D01*
X000809Y000718D02*
X000817D01*
X000784Y000555D02*
X000791D01*
X000784Y000566D02*
X000791D01*
X000784Y00058D02*
X000791D01*
X000784Y000591D02*
X000791D01*
X000784Y000605D02*
X000791D01*
X000784Y000617D02*
X000791D01*
X000784Y000631D02*
X000791D01*
X000784Y000642D02*
X000791D01*
X000784Y000656D02*
X000791D01*
X000784Y000667D02*
X000791D01*
X000784Y000682D02*
X000791D01*
X000784Y000693D02*
X000791D01*
X000784Y000707D02*
X000791D01*
X000784Y000718D02*
X000791D01*
X000283Y000579D02*
X000298D01*
X000311Y000558D02*
Y000579D01*
X000271Y000558D02*
Y000579D01*
X000296Y000558D02*
X000311D01*
X000271D02*
X000286D01*
X000605Y000348D02*
X00061D01*
X000605Y000344D02*
Y000348D01*
Y000341D02*
X00061D01*
X000605D02*
Y000344D01*
X000644Y000337D02*
X000657D01*
X000644Y000328D02*
Y000337D01*
X00061Y000328D02*
X000644D01*
X00061D02*
Y000341D01*
Y000348D02*
Y000361D01*
X000644D01*
Y000352D02*
Y000361D01*
Y000352D02*
X000657D01*
Y000337D02*
Y000352D01*
X000255Y000434D02*
X000259Y000432D01*
X000255Y000434D02*
X000259Y000436D01*
Y000432D02*
Y000436D01*
Y000382D02*
Y000384D01*
X000255Y000382D02*
X000259Y000384D01*
X000255Y000382D02*
X000259Y00038D01*
Y000382D01*
X000255D02*
X000259D01*
X000255Y000434D02*
X000259D01*
X000304Y000444D02*
Y000451D01*
X000253D02*
X000304D01*
X000253Y000408D02*
Y000451D01*
Y000365D02*
Y000408D01*
Y000365D02*
X000304D01*
Y000372D01*
X000308D02*
Y000408D01*
X000304Y000372D02*
X000308D01*
X000304Y000444D02*
X000308D01*
Y000408D02*
Y000444D01*
X0008Y000725D02*
X000825D01*
X0008Y000751D02*
X000825D01*
Y000548D02*
Y000751D01*
X0008Y000548D02*
X000825D01*
X0008D02*
Y000751D01*
X000775Y000725D02*
X0008D01*
X000775Y000751D02*
X0008D01*
Y000548D02*
Y000751D01*
X000775Y000548D02*
X0008D01*
X000775D02*
Y000751D01*
X000605Y000699D02*
Y000752D01*
X000599D02*
X000605D01*
X000544Y000699D02*
Y000752D01*
X000549D01*
X000544Y000473D02*
Y000526D01*
Y000473D02*
X000549D01*
X000605D02*
Y000526D01*
X000599Y000473D02*
X000605D01*
X000397Y000426D02*
X000413D01*
X000397Y000405D02*
Y000426D01*
Y000405D02*
X000398D01*
X000413D01*
X00042D02*
X000436D01*
Y000426D01*
X00042D02*
X000436D01*
X00042Y000473D02*
Y000539D01*
X000311Y000473D02*
Y000539D01*
Y000473D02*
X00042D01*
X000311Y000539D02*
X00042D01*
X000416Y000503D02*
Y00051D01*
X000418Y000503D02*
Y00051D01*
X000417Y000503D02*
Y00051D01*
X000415Y000503D02*
Y00051D01*
X000413Y000503D02*
Y00051D01*
X00042D01*
X000413Y000503D02*
X00042D01*
X000413Y000473D02*
X00042Y00048D01*
X000416Y000474D02*
X00042Y000478D01*
X000418Y000474D02*
X00042Y000476D01*
X000411Y000473D02*
X00042Y000482D01*
X000766Y000534D02*
Y000552D01*
X000723Y000534D02*
X000766D01*
X000723D02*
Y00057D01*
X000766D01*
Y00057D02*
Y00057D01*
Y000552D02*
Y00057D01*
X000763Y000551D02*
X000766D01*
X000763D02*
Y000553D01*
X000766D01*
X000723Y000551D02*
X000726D01*
Y000553D01*
X000723D02*
X000726D01*
X000744Y000534D02*
Y000537D01*
X000746D01*
Y000534D02*
Y000537D01*
X000745Y000534D02*
Y000537D01*
X000746Y000567D02*
Y00057D01*
X000744Y000567D02*
X000746D01*
X000744D02*
Y00057D01*
X000745Y000567D02*
Y00057D01*
X001007Y000412D02*
Y000428D01*
Y000412D02*
X001029D01*
Y000412D01*
Y000428D01*
Y000435D02*
Y000451D01*
X001007D02*
X001029D01*
X001007Y000435D02*
Y000451D01*
X001033Y000412D02*
Y000428D01*
Y000412D02*
X001054D01*
Y000412D01*
Y000428D01*
Y000435D02*
Y000451D01*
X001033D02*
X001054D01*
X001033Y000435D02*
Y000451D01*
X000747Y000613D02*
X000769D01*
X000747Y000575D02*
X000769D01*
X000747Y000593D02*
X000769D01*
X000747Y000604D02*
Y000613D01*
X000769Y000604D02*
Y000613D01*
X000747Y000575D02*
Y000593D01*
X000769Y000575D02*
Y000593D01*
X000354Y000577D02*
Y000598D01*
X000392Y000577D02*
Y000598D01*
X000375Y000577D02*
Y000598D01*
X000354Y000577D02*
X000363D01*
X000354Y000598D02*
X000363D01*
X000375Y000577D02*
X000392D01*
X000375Y000598D02*
X000392D01*
X000794Y000466D02*
Y000487D01*
X000832Y000466D02*
Y000487D01*
X000814Y000466D02*
Y000487D01*
X000794Y000466D02*
X000803D01*
X000794Y000487D02*
X000803D01*
X000814Y000466D02*
X000832D01*
X000814Y000487D02*
X000832D01*
X000721Y000613D02*
X000742D01*
X000721Y000575D02*
X000742D01*
X000721Y000593D02*
X000742D01*
X000721Y000604D02*
Y000613D01*
X000742Y000604D02*
Y000613D01*
X000721Y000575D02*
Y000593D01*
X000742Y000575D02*
Y000593D01*
X000309Y000669D02*
Y00069D01*
X000271Y000669D02*
Y00069D01*
X000289Y000669D02*
Y00069D01*
X0003D02*
X000309D01*
X0003Y000669D02*
X000309D01*
X000271Y00069D02*
X000289D01*
X000271Y000669D02*
X000289D01*
X000309Y000746D02*
Y000768D01*
X000271Y000746D02*
Y000768D01*
X000289Y000746D02*
Y000768D01*
X0003D02*
X000309D01*
X0003Y000746D02*
X000309D01*
X000271Y000768D02*
X000289D01*
X000271Y000746D02*
X000289D01*
X00032Y0006D02*
X000336D01*
Y000621D01*
X000335D02*
X000336D01*
X00032D02*
X000335D01*
X000297D02*
X000312D01*
X000297Y0006D02*
Y000621D01*
Y0006D02*
X000312D01*
X000317Y00069D02*
X000387D01*
Y000725D01*
X000317Y000714D02*
X000323D01*
Y000701D02*
Y000714D01*
X000317Y000701D02*
X000323D01*
X000321D02*
Y000714D01*
X000319Y000701D02*
Y000714D01*
X000317Y000725D02*
X000387D01*
X000317Y00069D02*
Y000725D01*
Y000719D02*
X000323Y000725D01*
X000319Y000722D02*
Y000725D01*
X000262Y00029D02*
Y000319D01*
Y00029D02*
X000326D01*
X000262Y000319D02*
X000326D01*
Y00029D02*
Y000319D01*
X000259Y000297D02*
Y000301D01*
Y000297D02*
X000262D01*
X000259Y000312D02*
X000262D01*
X000259Y000308D02*
Y000312D01*
X000329Y000297D02*
Y000301D01*
X000326Y000297D02*
X000329D01*
X000326Y000312D02*
X000329D01*
Y000308D02*
Y000312D01*
X000299Y000304D02*
Y000312D01*
X000289Y000304D02*
X000299Y000312D01*
X000289Y000304D02*
X000299Y000297D01*
Y000304D01*
X000289Y000312D02*
X000299Y000304D01*
X000289Y000297D02*
Y000312D01*
Y000297D02*
X000299Y000304D01*
X000254Y000281D02*
Y00084D01*
Y000281D02*
X001105D01*
X000254Y00084D02*
X001105D01*
X000268Y00077D02*
X000268Y00077D01*
X000267Y000769D02*
X000268Y00077D01*
X000265Y000769D02*
X000267D01*
X000265Y00077D02*
X000265Y000769D01*
X000265Y00077D02*
X000265Y00077D01*
X000264Y000771D02*
X000265Y00077D01*
X000264Y000771D02*
Y000772D01*
X000265Y000773D01*
X000265Y000773D01*
X000265Y000773D01*
X000266D01*
X000264Y000776D02*
X000266Y000773D01*
X000264Y000776D02*
X000268D01*
X00027D02*
X000272Y000769D01*
X000274Y000776D01*
X000279Y00077D02*
X00028Y00077D01*
X000279Y000769D02*
X000279Y00077D01*
X000277Y000769D02*
X000279D01*
X000276Y00077D02*
X000277Y000769D01*
X000276Y00077D02*
X000276Y00077D01*
X000276Y000771D02*
X000276Y00077D01*
X000276Y000771D02*
Y000772D01*
X000276Y000773D01*
X000276Y000773D01*
X000277Y000773D01*
X000278D01*
X000276Y000776D02*
X000278Y000773D01*
X000276Y000776D02*
X00028D01*
X000289Y000769D02*
X000291Y000776D01*
X000293Y000769D01*
X000289Y000771D02*
X000292D01*
X000297Y000769D02*
X000299D01*
X000296Y00077D02*
X000297Y000769D01*
X000296Y00077D02*
X000296Y00077D01*
X000295Y000771D02*
X000296Y00077D01*
X000295Y000772D02*
X000295Y000771D01*
X000295Y000772D02*
Y000773D01*
X000295Y000774D01*
X000296Y000775D01*
X000296Y000776D01*
X000297Y000776D01*
X000299D01*
Y000769D02*
Y000776D01*
X000301Y000776D02*
X000302Y000776D01*
X000304D01*
X000304Y000776D01*
X000305Y000775D01*
X000305Y000775D01*
Y000774D02*
Y000775D01*
X000305Y000773D02*
X000305Y000774D01*
X000304Y000773D02*
X000305Y000773D01*
X000304Y000773D02*
X000304Y000773D01*
X000302Y000773D02*
X000304Y000773D01*
X000302Y000772D02*
X000302Y000773D01*
X000302Y000772D02*
X000302Y000772D01*
X000301Y000771D02*
X000302Y000772D01*
X000301Y000771D02*
Y000771D01*
Y000771D02*
X000302Y00077D01*
X000302Y00077D01*
X000302Y000769D01*
X000304D01*
X000305Y00077D01*
X000317Y000769D02*
Y000776D01*
X000314Y000769D02*
X000317D01*
X00032Y000775D02*
X00032Y000776D01*
X000321Y000776D01*
X000322D01*
X000323Y000776D01*
X000323Y000775D01*
X000324Y000774D01*
X000324Y000773D01*
Y000772D02*
Y000773D01*
X000324Y000771D02*
X000324Y000772D01*
X000323Y00077D02*
X000324Y000771D01*
X000323Y00077D02*
X000323Y00077D01*
X000322Y000769D02*
X000323Y00077D01*
X000321Y000769D02*
X000322D01*
X00032Y00077D02*
X000321Y000769D01*
X00032Y00077D02*
X00032Y00077D01*
X000327Y000776D02*
X000327Y000776D01*
X000329D01*
X00033Y000776D01*
X00033Y000775D01*
X00033Y000775D01*
Y000774D02*
Y000775D01*
X00033Y000773D02*
X00033Y000774D01*
X00033Y000773D02*
X00033Y000773D01*
X000329Y000773D02*
X00033Y000773D01*
X000328Y000773D02*
X000329Y000773D01*
X000327Y000772D02*
X000328Y000773D01*
X000327Y000772D02*
X000327Y000772D01*
X000327Y000771D02*
X000327Y000772D01*
X000327Y000771D02*
Y000771D01*
Y000771D02*
X000327Y00077D01*
X000327Y00077D01*
X000328Y000769D01*
X000329D01*
X00033Y00077D01*
X000316Y000832D02*
X000318D01*
X000315Y000832D02*
X000316Y000832D01*
X000315Y000833D02*
X000315Y000832D01*
X000314Y000833D02*
X000315Y000833D01*
X000314Y000834D02*
X000314Y000833D01*
X000314Y000834D02*
Y000835D01*
X000314Y000837D01*
X000315Y000837D01*
X000315Y000838D01*
X000316Y000838D01*
X000318D01*
Y000832D02*
Y000838D01*
X000321Y000832D02*
Y000838D01*
Y000832D02*
X000324Y000838D01*
Y000832D02*
Y000838D01*
X000327Y000834D02*
X000328D01*
X000327Y000832D02*
Y000834D01*
Y000832D02*
X000327Y000832D01*
X000328Y000832D01*
X000329D01*
X00033Y000832D01*
X00033Y000833D01*
X000331Y000833D01*
X000331Y000834D01*
Y000835D01*
X000331Y000837D02*
X000331Y000835D01*
X00033Y000837D02*
X000331Y000837D01*
X00033Y000838D02*
X00033Y000837D01*
X000329Y000838D02*
X00033Y000838D01*
X000328Y000838D02*
X000329D01*
X000327Y000838D02*
X000328Y000838D01*
X000343D02*
X000348Y000832D01*
X000343D02*
X000348Y000838D01*
X000351Y000832D02*
Y000838D01*
X000349D02*
X000353D01*
X000369D02*
X000373Y000832D01*
X000369D02*
X000373Y000838D01*
X000376Y000835D02*
X000379D01*
X000376Y000835D02*
X000376Y000835D01*
X000375Y000835D02*
X000376Y000835D01*
X000375Y000836D02*
X000375Y000835D01*
X000375Y000836D02*
Y000837D01*
X000375Y000837D01*
X000376Y000838D01*
X000376Y000838D01*
X000379D01*
Y000832D02*
Y000838D01*
X000375Y000832D02*
X000377Y000835D01*
X00049Y000768D02*
Y000775D01*
X000493Y000774D02*
X000494Y000775D01*
X000496D01*
X000496Y000774D01*
X000496Y000774D01*
X000497Y000773D01*
Y000773D02*
Y000773D01*
X000496Y000772D02*
X000497Y000773D01*
X000496Y000772D02*
X000496Y000772D01*
X000496Y000772D02*
X000496Y000772D01*
X000494Y000771D02*
X000496Y000772D01*
X000494Y000771D02*
X000494Y000771D01*
X000493Y000771D02*
X000494Y000771D01*
X000493Y00077D02*
X000493Y000771D01*
X000493Y000769D02*
Y00077D01*
Y000769D02*
X000493Y000769D01*
X000494Y000769D01*
X000494Y000768D01*
X000496D01*
X000497Y000769D01*
X000502Y000775D02*
X000503Y000774D01*
X000503Y000774D01*
X000503Y000772D01*
Y00077D02*
Y000772D01*
X000503Y000769D02*
X000503Y00077D01*
X000503Y000769D02*
X000503Y000769D01*
X000502Y000768D02*
X000503Y000769D01*
X000501Y000768D02*
X000502D01*
X0005Y000769D02*
X000501Y000768D01*
X000499Y000769D02*
X0005Y000769D01*
X000499Y00077D02*
X000499Y000769D01*
X000499Y00077D02*
Y000772D01*
X000499Y000774D01*
X0005Y000774D01*
X000501Y000775D01*
X000502D01*
X000506Y000768D02*
Y000775D01*
X000508Y00077D01*
X00051Y000775D01*
Y000768D02*
Y000775D01*
X000518D02*
X000519Y000774D01*
X000519Y000774D01*
X00052Y000772D01*
Y00077D02*
Y000772D01*
X000519Y000769D02*
X00052Y00077D01*
X000519Y000769D02*
X000519Y000769D01*
X000518Y000768D02*
X000519Y000769D01*
X000517Y000768D02*
X000518D01*
X000516Y000769D02*
X000517Y000768D01*
X000516Y000769D02*
X000516Y000769D01*
X000516Y00077D02*
X000516Y000769D01*
X000516Y00077D02*
Y000772D01*
X000516Y000774D01*
X000516Y000774D01*
X000517Y000775D01*
X000518D01*
X000522Y000774D02*
X000523Y000775D01*
X000525D01*
X000525Y000774D01*
X000525Y000774D01*
X000526Y000773D01*
Y000773D02*
Y000773D01*
X000525Y000772D02*
X000526Y000773D01*
X000525Y000772D02*
X000525Y000772D01*
X000525Y000772D02*
X000525Y000772D01*
X000523Y000771D02*
X000525Y000772D01*
X000523Y000771D02*
X000523Y000771D01*
X000522Y000771D02*
X000523Y000771D01*
X000522Y00077D02*
X000522Y000771D01*
X000522Y000769D02*
Y00077D01*
Y000769D02*
X000522Y000769D01*
X000523Y000769D01*
X000523Y000768D01*
X000525D01*
X000526Y000769D01*
X000529Y000768D02*
Y000775D01*
X000532Y000768D02*
Y000775D01*
X000534Y00077D01*
X000536Y000775D01*
Y000768D02*
Y000775D01*
X000543D02*
X000547Y000771D01*
X000543Y000768D02*
X000546Y000772D01*
X000547Y000768D02*
Y000775D01*
X000549Y000774D02*
X00055Y000774D01*
X000551Y000775D01*
X000551D01*
X000552Y000774D01*
X000553Y000774D01*
X000553Y000773D01*
X000553Y000772D01*
Y000771D02*
Y000772D01*
X000553Y00077D02*
X000553Y000771D01*
X000553Y000769D02*
X000553Y00077D01*
X000552Y000769D02*
X000553Y000769D01*
X000551Y000768D02*
X000552Y000769D01*
X000551Y000768D02*
X000551D01*
X00055Y000769D02*
X000551Y000768D01*
X000549Y000769D02*
X00055Y000769D01*
X000556Y000774D02*
X000557Y000775D01*
X000558D01*
X000559Y000774D01*
X000559Y000774D01*
X000559Y000773D01*
Y000773D02*
Y000773D01*
X000559Y000772D02*
X000559Y000773D01*
X000559Y000772D02*
X000559Y000772D01*
X000558Y000772D02*
X000559Y000772D01*
X000557Y000771D02*
X000558Y000772D01*
X000556Y000771D02*
X000557Y000771D01*
X000556Y000771D02*
X000556Y000771D01*
X000556Y00077D02*
X000556Y000771D01*
X000556Y000769D02*
Y00077D01*
Y000769D02*
X000556Y000769D01*
X000556Y000769D01*
X000557Y000768D01*
X000558D01*
X000559Y000769D01*
X000393Y000832D02*
Y000838D01*
X000391D02*
X000395D01*
X000397Y000838D02*
X000398Y000838D01*
X000399D01*
X0004Y000838D01*
X0004Y000837D01*
X0004Y000837D01*
Y000836D02*
Y000837D01*
X0004Y000836D02*
X0004Y000836D01*
X0004Y000835D02*
X0004Y000836D01*
X000399Y000835D02*
X0004Y000835D01*
X000398Y000835D02*
X000399Y000835D01*
X000397Y000834D02*
X000398Y000835D01*
X000397Y000834D02*
X000397Y000834D01*
X000397Y000834D02*
X000397Y000834D01*
X000397Y000833D02*
Y000834D01*
Y000833D02*
X000397Y000832D01*
X000397Y000832D01*
X000398Y000832D01*
X0004D01*
X0004Y000832D01*
X000404Y000835D02*
X000407D01*
X000404Y000835D02*
X000404Y000835D01*
X000403Y000835D02*
X000404Y000835D01*
X000403Y000836D02*
X000403Y000835D01*
X000403Y000836D02*
Y000837D01*
X000403Y000837D01*
X000404Y000838D01*
X000404Y000838D01*
X000407D01*
Y000832D02*
Y000838D01*
X000403Y000832D02*
X000405Y000835D01*
X000589Y000779D02*
Y00083D01*
X000259Y000779D02*
Y00083D01*
X000366Y000775D02*
X000367Y000774D01*
X000367Y000774D01*
X000368Y000772D01*
Y00077D02*
Y000772D01*
X000367Y000768D02*
X000368Y00077D01*
X000367Y000767D02*
X000367Y000768D01*
X000366Y000767D02*
X000367Y000767D01*
X000364Y000767D02*
X000366D01*
X000364Y000767D02*
X000364Y000767D01*
X000363Y000768D02*
X000364Y000767D01*
X000363Y00077D02*
X000363Y000768D01*
X000363Y00077D02*
Y000772D01*
X000363Y000774D01*
X000364Y000774D01*
X000364Y000775D01*
X000366D01*
X000371Y000767D02*
Y000775D01*
X000376Y000771D02*
X000379D01*
X000375Y000771D02*
X000376Y000771D01*
X000375Y000771D02*
X000375Y000771D01*
X000374Y000772D02*
X000375Y000771D01*
X000374Y000772D02*
Y000773D01*
X000375Y000774D01*
X000375Y000774D01*
X000376Y000775D01*
X000379D01*
Y000767D02*
Y000775D01*
X000382Y00077D02*
X000383D01*
X000382Y000768D02*
Y00077D01*
Y000768D02*
X000382Y000767D01*
X000383Y000767D01*
X000384D01*
X000385Y000767D01*
X000386Y000768D01*
X000386Y000769D01*
X000387Y00077D01*
Y000771D01*
X000386Y000773D02*
X000387Y000771D01*
X000386Y000774D02*
X000386Y000773D01*
X000385Y000774D02*
X000386Y000774D01*
X000384Y000775D02*
X000385Y000774D01*
X000383Y000775D02*
X000384D01*
X000382Y000774D02*
X000383Y000775D01*
X000388Y000766D02*
X000394D01*
X000399Y000767D02*
X0004Y000768D01*
X000399Y000767D02*
X000399Y000767D01*
X000397Y000767D02*
X000399D01*
X000396Y000767D02*
X000397Y000767D01*
X000396Y000768D02*
X000396Y000767D01*
X000395Y000768D02*
X000396Y000768D01*
X000395Y000768D02*
Y00077D01*
X000396Y000771D01*
X000396Y000771D01*
X000397Y000772D01*
X000399D01*
X000399Y000771D01*
X0004Y000771D01*
X000399Y000775D02*
X0004Y000771D01*
X000396Y000775D02*
X000399D01*
X000407Y000767D02*
X000407Y000768D01*
X000406Y000767D02*
X000407Y000767D01*
X000404Y000767D02*
X000406D01*
X000403Y000767D02*
X000404Y000767D01*
X000403Y000768D02*
X000403Y000767D01*
X000403Y000768D02*
X000403Y000768D01*
X000403Y000768D02*
Y00077D01*
X000403Y000771D01*
X000403Y000771D01*
X000404Y000772D01*
X000405D01*
X000403Y000775D02*
X000405Y000772D01*
X000403Y000775D02*
X000407D01*
X000411Y000771D02*
X000411Y000771D01*
X00041Y000771D02*
X000411Y000771D01*
X00041Y00077D02*
X00041Y000771D01*
X00041Y000768D02*
Y00077D01*
Y000768D02*
X00041Y000768D01*
X000411Y000767D01*
X000411Y000767D01*
X000413D01*
X000413Y000767D01*
X000414Y000768D01*
X000414Y000768D01*
Y00077D01*
X000414Y000771D02*
X000414Y00077D01*
X000413Y000771D02*
X000414Y000771D01*
X000413Y000771D02*
X000413Y000771D01*
X000411Y000771D02*
X000413D01*
X000411Y000772D02*
X000411Y000771D01*
X00041Y000772D02*
X000411Y000772D01*
X00041Y000773D02*
X00041Y000772D01*
X00041Y000773D02*
Y000773D01*
X00041Y000774D01*
X000411Y000774D01*
X000411Y000775D01*
X000413D01*
X000413Y000774D01*
X000414Y000774D01*
X000414Y000773D01*
Y000773D02*
Y000773D01*
X000414Y000772D02*
X000414Y000773D01*
X000413Y000772D02*
X000414Y000772D01*
X000413Y000771D02*
X000413Y000772D01*
X000417Y000767D02*
X000422D01*
X000417Y000771D02*
X000422Y000767D01*
X000417Y000772D02*
X000417Y000771D01*
X000417Y000772D02*
Y000773D01*
X000417Y000774D01*
X000418Y000774D01*
X000419Y000775D01*
X00042D01*
X000421Y000774D01*
X000421Y000774D01*
X000425Y000767D02*
Y000775D01*
X000427Y000769D01*
X00043Y000775D01*
Y000767D02*
Y000775D01*
X000433Y000774D02*
X000433Y000774D01*
X000435Y000775D01*
X000435D01*
X000436Y000774D01*
X000437Y000774D01*
X000437Y000773D01*
X000438Y000771D01*
Y00077D02*
Y000771D01*
X000437Y000769D02*
X000438Y00077D01*
X000437Y000768D02*
X000437Y000769D01*
X000436Y000767D02*
X000437Y000768D01*
X000435Y000767D02*
X000436Y000767D01*
X000435Y000767D02*
X000435D01*
X000433Y000767D02*
X000435Y000767D01*
X000433Y000768D02*
X000433Y000767D01*
X000443Y000771D02*
X000445D01*
X000442Y000771D02*
X000443Y000771D01*
X000441Y000772D02*
X000442Y000771D01*
X000441Y000772D02*
X000441Y000772D01*
X000441Y000772D02*
Y000773D01*
X000441Y000774D01*
X000442Y000774D01*
X000443Y000775D01*
X000445D01*
Y000767D02*
Y000775D01*
X000442Y000767D02*
X000445D01*
X000441Y000767D02*
X000442Y000767D01*
X000441Y000768D02*
X000441Y000767D01*
X000441Y000768D02*
X000441Y000768D01*
X000441Y000768D02*
Y00077D01*
X000441Y00077D01*
X000441Y000771D01*
X000443Y000771D01*
X000454D02*
Y000772D01*
X000455Y000771D01*
X000454Y000771D02*
X000455Y000771D01*
X000454D02*
X000454Y000771D01*
X000454Y000771D02*
X000454Y000772D01*
Y000767D02*
Y000768D01*
X000455Y000767D01*
X000454Y000767D02*
X000455Y000767D01*
X000454D02*
X000454Y000767D01*
X000454Y000767D02*
X000454Y000768D01*
X000467Y000773D02*
X000468Y000772D01*
X000466Y000774D02*
X000467Y000773D01*
X000466Y000775D02*
X000466Y000774D01*
X000466Y000767D02*
Y000775D01*
X000464Y000767D02*
X000468D01*
X000472Y000771D02*
X000475D01*
X000472Y000771D02*
X000472Y000771D01*
X000471Y000771D02*
X000472Y000771D01*
X000471Y000772D02*
X000471Y000771D01*
X000471Y000772D02*
Y000773D01*
X000471Y000774D01*
X000472Y000774D01*
X000472Y000775D01*
X000475D01*
Y000767D02*
Y000775D01*
X000259Y00083D02*
X000589D01*
X000259Y000779D02*
X000589D01*
X000309Y000804D02*
Y00083D01*
Y000804D02*
X000411D01*
Y00083D01*
X000488Y000779D02*
Y000804D01*
X000564D01*
Y000779D02*
Y000804D01*
X000259D02*
X000309D01*
X000335Y000779D02*
Y000804D01*
X001105Y000281D02*
Y00084D01*
X000446Y000289D02*
Y000311D01*
Y000289D02*
X000519D01*
X000446Y000311D02*
X000519D01*
Y000289D02*
Y000311D01*
X000446Y000315D02*
X000519D01*
Y000336D01*
X000446D02*
X000519D01*
X000446Y000315D02*
Y000336D01*
Y00034D02*
X000519D01*
Y000362D01*
X000446D02*
X000519D01*
X000446Y00034D02*
Y000362D01*
Y000365D02*
X000519D01*
Y000387D01*
X000446D02*
X000519D01*
X000446Y000365D02*
Y000387D01*
Y000391D02*
X000519D01*
Y000412D01*
X000446D02*
X000519D01*
X000446Y000391D02*
Y000412D01*
Y000416D02*
X000519D01*
Y000438D01*
X000446D02*
X000519D01*
X000446Y000416D02*
Y000438D01*
Y000489D02*
X000468D01*
Y000442D02*
Y000489D01*
X000446Y000442D02*
X000468D01*
X000446D02*
Y000489D01*
X000472D02*
X000493D01*
Y000442D02*
Y000489D01*
X000472Y000442D02*
X000493D01*
X000472D02*
Y000489D01*
X000524Y000344D02*
X000524Y000343D01*
X000524Y000344D02*
Y000346D01*
X000524Y000347D01*
X000524Y000347D01*
X000525Y000347D01*
X000526D01*
X000526Y000347D01*
X000527Y000347D01*
X000527Y000346D01*
X000528Y000345D01*
X000528Y000344D01*
X000528Y000343D01*
X000529Y000343D01*
X00053D01*
X00053Y000343D01*
X000531Y000344D01*
X000531Y000345D01*
Y000346D01*
X000531Y000347D02*
X000531Y000346D01*
X000524Y000354D02*
X000524Y000354D01*
X000525Y000355D01*
X000526Y000355D01*
X000529D01*
X00053Y000355D01*
X000531Y000354D01*
X000531Y000354D01*
Y000352D02*
Y000354D01*
X000531Y000351D02*
X000531Y000352D01*
X00053Y000351D02*
X000531Y000351D01*
X000529Y00035D02*
X00053Y000351D01*
X000526Y00035D02*
X000529D01*
X000525Y000351D02*
X000526Y00035D01*
X000524Y000351D02*
X000525Y000351D01*
X000524Y000352D02*
X000524Y000351D01*
X000524Y000352D02*
Y000354D01*
Y000358D02*
X000531Y00036D01*
X000524Y000363D02*
X000531Y00036D01*
X000528Y000366D02*
Y000369D01*
X000527Y000366D02*
X000528Y000366D01*
X000527Y000365D02*
X000527Y000366D01*
X000526Y000365D02*
X000527Y000365D01*
X000525Y000365D02*
X000526D01*
X000524Y000365D02*
X000525Y000365D01*
X000524Y000366D02*
X000524Y000365D01*
X000524Y000366D02*
X000524Y000366D01*
X000524Y000366D02*
Y000369D01*
X000531D01*
X000528Y000367D02*
X000531Y000365D01*
X000524Y000373D02*
Y000376D01*
X000531D01*
Y000373D02*
Y000376D01*
X000527Y000374D02*
Y000376D01*
X000524Y00038D02*
X000524Y000379D01*
X000524Y00038D02*
Y000382D01*
X000524Y000383D01*
X000524Y000383D01*
X000525Y000384D01*
X000526D01*
X000526Y000383D01*
X000527Y000383D01*
X000527Y000382D01*
X000528Y000381D01*
X000528Y00038D01*
X000528Y00038D01*
X000529Y000379D01*
X00053D01*
X00053Y00038D01*
X000531Y00038D01*
X000531Y000381D01*
Y000383D01*
X000531Y000384D02*
X000531Y000383D01*
X000528Y000386D02*
Y00044D01*
X000521D02*
X000528D01*
Y000287D02*
Y000341D01*
X000521Y000287D02*
X000528D01*
X000682Y000313D02*
Y000316D01*
X000681Y000312D02*
X000682Y000313D01*
X000681Y000312D02*
X000681Y000312D01*
X00068Y000311D02*
X000681Y000312D01*
X000679Y000311D02*
X00068D01*
X000679Y000312D02*
X000679Y000311D01*
X000678Y000312D02*
X000679Y000312D01*
X000678Y000313D02*
X000678Y000312D01*
X000678Y000313D02*
Y000316D01*
X000685D01*
X000682Y000314D02*
X000685Y000311D01*
X000678Y000319D02*
Y000322D01*
X000685D01*
Y000319D02*
Y000322D01*
X000681Y00032D02*
Y000322D01*
X000678Y000325D02*
X000685Y000327D01*
X00068Y000329D02*
X000685Y000327D01*
X00068Y000329D02*
X000685Y00033D01*
X000678Y000332D02*
X000685Y00033D01*
X000678Y000338D02*
X000678Y000338D01*
X000679Y000339D01*
X00068Y000339D01*
X000683D01*
X000684Y000339D01*
X000685Y000338D01*
X000685Y000338D01*
Y000336D02*
Y000338D01*
X000685Y000336D02*
X000685Y000336D01*
X000684Y000335D02*
X000685Y000336D01*
X000683Y000334D02*
X000684Y000335D01*
X00068Y000334D02*
X000683D01*
X000679Y000335D02*
X00068Y000334D01*
X000678Y000336D02*
X000679Y000335D01*
X000678Y000336D02*
X000678Y000336D01*
X000678Y000336D02*
Y000338D01*
X000682Y000344D02*
Y000347D01*
X000681Y000343D02*
X000682Y000344D01*
X000681Y000343D02*
X000681Y000343D01*
X00068Y000342D02*
X000681Y000343D01*
X000679Y000342D02*
X00068D01*
X000679Y000343D02*
X000679Y000342D01*
X000678Y000343D02*
X000679Y000343D01*
X000678Y000344D02*
X000678Y000343D01*
X000678Y000344D02*
Y000347D01*
X000685D01*
X000901Y000333D02*
Y000335D01*
Y000333D02*
X000903D01*
X000904Y000334D01*
X000904Y000335D01*
Y000336D01*
X000904Y000337D02*
X000904Y000336D01*
X000903Y000337D02*
X000904Y000337D01*
X000902Y000338D02*
X000903Y000337D01*
X000901Y000338D02*
X000902Y000338D01*
X0009Y000338D02*
X000901D01*
X000898Y000338D02*
X0009Y000338D01*
X000897Y000337D02*
X000898Y000338D01*
X000897Y000337D02*
X000897Y000337D01*
X000896Y000336D02*
X000897Y000337D01*
X000896Y000334D02*
Y000336D01*
Y000334D02*
X000897Y000334D01*
X000896Y000344D02*
X000897Y000345D01*
X000897Y000346D01*
X000899Y000346D01*
X000901D01*
X000903Y000346D01*
X000904Y000345D01*
X000904Y000344D01*
Y000343D02*
Y000344D01*
X000904Y000342D02*
X000904Y000343D01*
X000903Y000341D02*
X000904Y000342D01*
X000901Y000341D02*
X000903Y000341D01*
X000899Y000341D02*
X000901D01*
X000897Y000341D02*
X000899Y000341D01*
X000897Y000342D02*
X000897Y000341D01*
X000896Y000343D02*
X000897Y000342D01*
X000896Y000343D02*
Y000344D01*
Y000352D02*
X000904D01*
Y000348D02*
Y000352D01*
X000896Y000357D02*
X000904Y000354D01*
X000896Y000357D02*
X000904Y000359D01*
X000902Y000355D02*
Y000359D01*
X000896Y000362D02*
X000904D01*
X000896Y000366D02*
X000904Y000362D01*
X000896Y000366D02*
X000904D01*
X000896Y000371D02*
X000904Y000369D01*
X000896Y000371D02*
X000904Y000374D01*
X000902Y00037D02*
Y000373D01*
X000913Y000349D02*
X000914Y000349D01*
X000914Y000348D01*
Y000346D02*
Y000348D01*
X000914Y000345D02*
X000914Y000346D01*
X000913Y000345D02*
X000914Y000345D01*
X000913Y000344D02*
X000913Y000345D01*
X000911Y000344D02*
X000913D01*
X00091Y000345D02*
X000911Y000344D01*
X00091Y000345D02*
X00091Y000345D01*
X000909Y000346D02*
X00091Y000345D01*
X000909Y000346D02*
Y000347D01*
X000906Y000344D02*
X000909Y000347D01*
X000906Y000344D02*
Y000349D01*
Y000351D02*
X000914Y000353D01*
X000906Y000356D02*
X000914Y000353D01*
X000913Y000363D02*
X000914Y000362D01*
X000914Y000362D01*
Y000359D02*
Y000362D01*
X000914Y000359D02*
X000914Y000359D01*
X000913Y000358D02*
X000914Y000359D01*
X000913Y000358D02*
X000913Y000358D01*
X000911Y000358D02*
X000913D01*
X00091Y000358D02*
X000911Y000358D01*
X00091Y000359D02*
X00091Y000358D01*
X000909Y000359D02*
X00091Y000359D01*
X000909Y000359D02*
Y000361D01*
X000906Y000358D02*
X000909Y000361D01*
X000906Y000358D02*
Y000363D01*
X000914Y000372D02*
Y000373D01*
X000914Y000371D02*
X000914Y000372D01*
X000913Y00037D02*
X000914Y000371D01*
X000912Y00037D02*
X000913Y00037D01*
X000911Y000369D02*
X000912Y00037D01*
X00091Y000369D02*
X000911D01*
X000908Y00037D02*
X00091Y000369D01*
X000908Y00037D02*
X000908Y00037D01*
X000907Y000371D02*
X000908Y00037D01*
X000906Y000372D02*
X000907Y000371D01*
X000906Y000372D02*
Y000373D01*
X000914D01*
X000906Y000377D02*
X000914D01*
X000906Y000381D02*
X000914Y000377D01*
X000906Y000381D02*
X000914D01*
X000911Y000385D02*
Y000386D01*
Y000385D02*
X000913D01*
X000914Y000385D01*
X000914Y000386D01*
Y000387D01*
X000914Y000388D02*
X000914Y000387D01*
X000913Y000389D02*
X000914Y000388D01*
X000912Y000389D02*
X000913Y000389D01*
X000911Y000389D02*
X000912Y000389D01*
X00091Y000389D02*
X000911D01*
X000908Y000389D02*
X00091Y000389D01*
X000908Y000389D02*
X000908Y000389D01*
X000907Y000388D02*
X000908Y000389D01*
X000906Y000387D02*
X000907Y000388D01*
X000906Y000386D02*
Y000387D01*
Y000386D02*
X000907Y000385D01*
X001072Y000347D02*
X001072Y000347D01*
X001072Y000348D01*
X001073Y000348D01*
X001074Y000349D01*
X001076D01*
X001078Y000348D01*
X001078Y000348D01*
X001079Y000347D01*
X001079Y000347D01*
Y000346D02*
Y000347D01*
X001079Y000345D02*
X001079Y000346D01*
X001078Y000345D02*
X001079Y000345D01*
X001078Y000345D02*
X001078Y000345D01*
X001076Y000344D02*
X001078Y000345D01*
X001074Y000344D02*
X001076D01*
X001073Y000345D02*
X001074Y000344D01*
X001072Y000345D02*
X001073Y000345D01*
X001072Y000345D02*
X001072Y000345D01*
X001072Y000346D02*
X001072Y000345D01*
X001072Y000346D02*
Y000347D01*
Y000351D02*
X001079Y000353D01*
X001072Y000356D02*
X001079Y000353D01*
X001078Y000362D02*
X001079Y000362D01*
X001079Y000361D01*
Y000359D02*
Y000361D01*
X001079Y000359D02*
X001079Y000359D01*
X001078Y000358D02*
X001079Y000359D01*
X001078Y000358D02*
X001078Y000358D01*
X001076Y000358D02*
X001078D01*
X001075Y000358D02*
X001076Y000358D01*
X001075Y000359D02*
X001075Y000358D01*
X001074Y000359D02*
X001075Y000359D01*
X001074Y000359D02*
Y000361D01*
X001075Y000362D01*
X001075Y000362D01*
X001072Y000362D02*
X001075Y000362D01*
X001072Y000358D02*
Y000362D01*
X000697Y00035D02*
X000697Y00035D01*
X000696Y000352D02*
X000697Y00035D01*
X000696Y000352D02*
Y000352D01*
X000697Y000353D01*
X000697Y000354D01*
X000698Y000354D01*
X000699Y000355D01*
X000701D01*
X000702Y000354D01*
X000703Y000354D01*
X000703Y000353D01*
X000704Y000352D01*
Y000352D02*
Y000352D01*
X000703Y00035D02*
X000704Y000352D01*
X000703Y00035D02*
X000703Y00035D01*
X000696Y000358D02*
X000704D01*
X000696Y000362D02*
X000704Y000358D01*
X000696Y000362D02*
X000704D01*
X000722Y000353D02*
X000722Y000354D01*
X000722Y000354D01*
X000723Y000355D01*
X000725Y000355D01*
X000726D01*
X000728Y000355D01*
X000729Y000354D01*
X000729Y000354D01*
X000729Y000353D01*
Y000352D02*
Y000353D01*
X000729Y000352D02*
X000729Y000352D01*
X000729Y000351D02*
X000729Y000352D01*
X000728Y000351D02*
X000729Y000351D01*
X000726Y000351D02*
X000728Y000351D01*
X000725Y000351D02*
X000726D01*
X000723Y000351D02*
X000725Y000351D01*
X000722Y000351D02*
X000723Y000351D01*
X000722Y000352D02*
X000722Y000351D01*
X000722Y000352D02*
X000722Y000352D01*
X000722Y000352D02*
Y000353D01*
Y000357D02*
X000729Y00036D01*
X000722Y000362D02*
X000729Y00036D01*
X000729Y000369D02*
X000729Y000368D01*
X000729Y000368D01*
Y000366D02*
Y000368D01*
X000729Y000365D02*
X000729Y000366D01*
X000729Y000365D02*
X000729Y000365D01*
X000728Y000364D02*
X000729Y000365D01*
X000726Y000364D02*
X000728D01*
X000725Y000365D02*
X000726Y000364D01*
X000725Y000365D02*
X000725Y000365D01*
X000725Y000366D02*
X000725Y000365D01*
X000725Y000366D02*
Y000368D01*
X000725Y000368D01*
X000725Y000369D01*
X000722Y000368D02*
X000725Y000369D01*
X000722Y000365D02*
Y000368D01*
X000747Y000352D02*
X000755D01*
X000747Y00035D02*
Y000354D01*
Y000358D02*
X000747Y000357D01*
X000747Y000358D02*
Y000359D01*
X000747Y00036D01*
X000748Y000361D01*
X000748Y000361D01*
X000749D01*
X00075Y000361D01*
X00075Y00036D01*
X000751Y000359D01*
X000751Y000358D01*
X000751Y000357D01*
X000752Y000357D01*
X000752Y000357D01*
X000753D01*
X000754Y000357D01*
X000754Y000357D01*
X000755Y000358D01*
Y00036D01*
X000754Y000361D02*
X000755Y00036D01*
X000751Y000365D02*
Y000368D01*
X000751Y000365D02*
X000751Y000365D01*
X00075Y000364D02*
X000751Y000365D01*
X00075Y000364D02*
X00075Y000364D01*
X000748Y000364D02*
X00075D01*
X000748Y000364D02*
X000748Y000364D01*
X000747Y000365D02*
X000748Y000364D01*
X000747Y000365D02*
X000747Y000365D01*
X000747Y000365D02*
Y000368D01*
X000755D01*
X000751Y000366D02*
X000755Y000364D01*
X000779Y000355D02*
X00078Y000355D01*
X00078Y000354D01*
Y000352D02*
Y000354D01*
X00078Y000351D02*
X00078Y000352D01*
X000779Y000351D02*
X00078Y000351D01*
X000779Y000351D02*
X000779Y000351D01*
X000777Y000351D02*
X000779D01*
X000776Y000351D02*
X000777Y000351D01*
X000776Y000351D02*
X000776Y000351D01*
X000775Y000352D02*
X000776Y000351D01*
X000775Y000352D02*
Y000353D01*
X000772Y000351D02*
X000775Y000353D01*
X000772Y000351D02*
Y000355D01*
Y000357D02*
X00078Y00036D01*
X000772Y000362D02*
X00078Y00036D01*
X000779Y000369D02*
X00078Y000369D01*
X00078Y000368D01*
Y000366D02*
Y000368D01*
X00078Y000365D02*
X00078Y000366D01*
X000779Y000365D02*
X00078Y000365D01*
X000779Y000364D02*
X000779Y000365D01*
X000777Y000364D02*
X000779D01*
X000776Y000365D02*
X000777Y000364D01*
X000776Y000365D02*
X000776Y000365D01*
X000775Y000366D02*
X000776Y000365D01*
X000775Y000366D02*
Y000367D01*
X000772Y000364D02*
X000775Y000367D01*
X000772Y000364D02*
Y000369D01*
X000798Y000353D02*
X000798Y000354D01*
X000799Y000354D01*
X000799Y000355D01*
X000801Y000355D01*
X000803D01*
X000804Y000355D01*
X000805Y000354D01*
X000805Y000354D01*
X000805Y000353D01*
Y000352D02*
Y000353D01*
X000805Y000352D02*
X000805Y000352D01*
X000805Y000351D02*
X000805Y000352D01*
X000804Y000351D02*
X000805Y000351D01*
X000803Y000351D02*
X000804Y000351D01*
X000801Y000351D02*
X000803D01*
X000799Y000351D02*
X000801Y000351D01*
X000799Y000351D02*
X000799Y000351D01*
X000798Y000352D02*
X000799Y000351D01*
X000798Y000352D02*
X000798Y000352D01*
X000798Y000352D02*
Y000353D01*
Y000357D02*
X000805Y00036D01*
X000798Y000362D02*
X000805Y00036D01*
X000805Y000369D02*
X000805Y000368D01*
X000805Y000368D01*
Y000366D02*
Y000368D01*
X000805Y000365D02*
X000805Y000366D01*
X000805Y000365D02*
X000805Y000365D01*
X000804Y000364D02*
X000805Y000365D01*
X000802Y000364D02*
X000804D01*
X000801Y000365D02*
X000802Y000364D01*
X000801Y000365D02*
X000801Y000365D01*
X000801Y000366D02*
X000801Y000365D01*
X000801Y000366D02*
Y000368D01*
X000801Y000368D01*
X000801Y000369D01*
X000798Y000368D02*
X000801Y000369D01*
X000798Y000365D02*
Y000368D01*
X000831Y000353D02*
Y000354D01*
X00083Y000352D02*
X000831Y000353D01*
X00083Y000351D02*
X00083Y000352D01*
X000829Y00035D02*
X00083Y000351D01*
X000828Y00035D02*
X000829Y00035D01*
X000826Y00035D02*
X000828D01*
X000825Y00035D02*
X000826Y00035D01*
X000824Y000351D02*
X000825Y00035D01*
X000824Y000352D02*
X000824Y000351D01*
X000823Y000353D02*
X000824Y000352D01*
X000823Y000353D02*
Y000354D01*
X000831D01*
X000823Y000358D02*
X000831D01*
X000823Y000362D02*
X000831Y000358D01*
X000823Y000362D02*
X000831D01*
X000828Y000366D02*
Y000367D01*
Y000366D02*
X00083D01*
X00083Y000366D01*
X000831Y000367D01*
Y000368D01*
X00083Y000369D02*
X000831Y000368D01*
X00083Y00037D02*
X00083Y000369D01*
X000829Y00037D02*
X00083Y00037D01*
X000828Y00037D02*
X000829Y00037D01*
X000826Y00037D02*
X000828D01*
X000825Y00037D02*
X000826Y00037D01*
X000824Y00037D02*
X000825Y00037D01*
X000824Y000369D02*
X000824Y00037D01*
X000823Y000368D02*
X000824Y000369D01*
X000823Y000367D02*
Y000368D01*
Y000367D02*
X000824Y000366D01*
X000856Y000353D02*
Y000354D01*
X000856Y000352D02*
X000856Y000353D01*
X000855Y000351D02*
X000856Y000352D01*
X000854Y00035D02*
X000855Y000351D01*
X000853Y00035D02*
X000854Y00035D01*
X000852Y00035D02*
X000853D01*
X00085Y00035D02*
X000852Y00035D01*
X00085Y000351D02*
X00085Y00035D01*
X000849Y000352D02*
X00085Y000351D01*
X000849Y000353D02*
X000849Y000352D01*
X000849Y000353D02*
Y000354D01*
X000856D01*
X000849Y000358D02*
X000856D01*
X000849Y000362D02*
X000856Y000358D01*
X000849Y000362D02*
X000856D01*
X000853Y000366D02*
Y000367D01*
Y000366D02*
X000856D01*
X000856Y000366D01*
X000856Y000367D01*
Y000368D01*
X000856Y000369D02*
X000856Y000368D01*
X000855Y00037D02*
X000856Y000369D01*
X000854Y00037D02*
X000855Y00037D01*
X000853Y00037D02*
X000854Y00037D01*
X000852Y00037D02*
X000853D01*
X00085Y00037D02*
X000852Y00037D01*
X00085Y00037D02*
X00085Y00037D01*
X000849Y000369D02*
X00085Y00037D01*
X000849Y000368D02*
X000849Y000369D01*
X000849Y000367D02*
Y000368D01*
Y000367D02*
X000849Y000366D01*
X000878Y00035D02*
X000882D01*
X000877Y000351D02*
X000878Y00035D01*
X000877Y000351D02*
X000877Y000351D01*
X000877Y000351D02*
Y000353D01*
X000877Y000353D01*
X000877Y000354D01*
X000877D02*
X000882D01*
X000874Y000357D02*
X000875D01*
X000874D02*
X000874Y000357D01*
X000875Y000357D01*
X000874Y000358D02*
X000875Y000357D01*
X000874D02*
X000874Y000358D01*
X000877Y000357D02*
X000882D01*
X000874Y00036D02*
X000882Y000362D01*
X000874Y000365D02*
X000882Y000362D01*
X000891Y000313D02*
Y000344D01*
X000688Y000313D02*
X000891D01*
X000688D02*
Y000344D01*
X000891D01*
X000893Y000392D02*
X000904D01*
X000893Y00031D02*
Y000392D01*
Y00031D02*
X000904D01*
X000925Y000308D02*
X000925Y000309D01*
X000926Y000309D01*
X000926Y000309D01*
X000928Y00031D01*
X00093D01*
X000931Y000309D01*
X000932Y000309D01*
X000932Y000309D01*
X000932Y000308D01*
Y000307D02*
Y000308D01*
X000932Y000306D02*
X000932Y000307D01*
X000932Y000306D02*
X000932Y000306D01*
X000931Y000306D02*
X000932Y000306D01*
X00093Y000305D02*
X000931Y000306D01*
X000928Y000305D02*
X00093D01*
X000926Y000306D02*
X000928Y000305D01*
X000926Y000306D02*
X000926Y000306D01*
X000925Y000306D02*
X000926Y000306D01*
X000925Y000307D02*
X000925Y000306D01*
X000925Y000307D02*
Y000308D01*
Y000314D02*
X000932Y000312D01*
X000925Y000314D02*
X000932Y000317D01*
X00093Y000313D02*
Y000316D01*
X000952Y000309D02*
X000952Y00031D01*
X000951Y000308D02*
X000952Y000309D01*
X00095Y000307D02*
X000951Y000308D01*
X00095Y000307D02*
X000958D01*
Y000305D02*
Y00031D01*
X00095Y000314D02*
X000958Y000312D01*
X00095Y000314D02*
X000958Y000317D01*
X000956Y000313D02*
Y000316D01*
X000983Y000305D02*
Y00031D01*
X000979Y000306D02*
X000983Y00031D01*
X000978Y000305D02*
X000979Y000306D01*
X000977Y000305D02*
X000978D01*
X000976Y000306D02*
X000977Y000305D01*
X000976Y000306D02*
X000976Y000306D01*
X000976Y000307D02*
X000976Y000306D01*
X000976Y000307D02*
Y000309D01*
X000976Y000309D01*
X000976Y00031D01*
X000976Y000314D02*
X000983Y000312D01*
X000976Y000314D02*
X000983Y000317D01*
X000981Y000313D02*
Y000316D01*
X001008Y00031D02*
X001008Y00031D01*
X001009Y000309D01*
Y000307D02*
Y000309D01*
X001008Y000306D02*
X001009Y000307D01*
X001008Y000306D02*
X001008Y000306D01*
X001007Y000305D02*
X001008Y000306D01*
X001005Y000305D02*
X001007D01*
X001005Y000306D02*
X001005Y000305D01*
X001004Y000306D02*
X001005Y000306D01*
X001004Y000307D02*
X001004Y000306D01*
X001004Y000307D02*
Y000308D01*
X001001Y000305D02*
X001004Y000308D01*
X001001Y000305D02*
Y00031D01*
Y000314D02*
X001009Y000312D01*
X001001Y000314D02*
X001009Y000317D01*
X001006Y000313D02*
Y000316D01*
X001032Y000305D02*
Y00031D01*
X001026Y000308D02*
X001032Y00031D01*
X001029Y000306D02*
X001034D01*
X001026Y000314D02*
X001034Y000312D01*
X001026Y000314D02*
X001034Y000317D01*
X001032Y000313D02*
Y000316D01*
X001059Y00031D02*
X001059Y000309D01*
X001059Y000309D01*
Y000307D02*
Y000309D01*
X001059Y000306D02*
X001059Y000307D01*
X001059Y000306D02*
X001059Y000306D01*
X001058Y000305D02*
X001059Y000306D01*
X001056Y000305D02*
X001058D01*
X001055Y000306D02*
X001056Y000305D01*
X001055Y000306D02*
X001055Y000306D01*
X001055Y000307D02*
X001055Y000306D01*
X001055Y000307D02*
Y000309D01*
X001055Y000309D01*
X001055Y00031D01*
X001052Y000309D02*
X001055Y00031D01*
X001052Y000306D02*
Y000309D01*
Y000314D02*
X001059Y000312D01*
X001052Y000314D02*
X001059Y000317D01*
X001057Y000313D02*
Y000316D01*
X000916Y000367D02*
X000993D01*
X000916Y000341D02*
Y000367D01*
Y000341D02*
X000993D01*
Y000367D01*
X001069D01*
Y000341D02*
Y000367D01*
X000993Y000341D02*
X001069D01*
X000916Y000367D02*
Y000392D01*
X001069D01*
Y000367D02*
Y000392D01*
X000916Y000303D02*
Y000341D01*
X000942Y000303D02*
Y000341D01*
X000967Y000303D02*
Y000341D01*
X000993Y000303D02*
Y000341D01*
X001018Y000303D02*
Y000341D01*
X001043Y000303D02*
Y000341D01*
X001069Y000303D02*
Y000341D01*
X00045Y000493D02*
X000451D01*
X000448Y000494D02*
X00045Y000493D01*
X000448Y000494D02*
X000448Y000494D01*
X000447Y000495D02*
X000448Y000494D01*
X000447Y000497D02*
X000447Y000495D01*
X000447Y000497D02*
Y000498D01*
X000447Y000499D01*
X000448Y0005D01*
X000448Y000501D01*
X00045Y000501D01*
X000451D01*
Y000493D02*
Y000501D01*
X000455Y000493D02*
Y000501D01*
Y000493D02*
X000459Y000501D01*
Y000493D02*
Y000501D01*
X000463Y000497D02*
X000464D01*
X000463Y000494D02*
Y000497D01*
Y000494D02*
X000463Y000494D01*
X000464Y000493D01*
X000465D01*
X000466Y000494D01*
X000467Y000494D01*
X000467Y000495D01*
X000467Y000497D01*
Y000498D01*
X000467Y000499D02*
X000467Y000498D01*
X000467Y0005D02*
X000467Y000499D01*
X000466Y000501D02*
X000467Y0005D01*
X000465Y000501D02*
X000466Y000501D01*
X000464Y000501D02*
X000465D01*
X000463Y000501D02*
X000464Y000501D01*
X000476D02*
X000477Y000501D01*
X000477Y0005D01*
X000478Y0005D01*
X000478Y000498D01*
Y000496D02*
Y000498D01*
X000478Y000495D02*
X000478Y000496D01*
X000477Y000494D02*
X000478Y000495D01*
X000477Y000494D02*
X000477Y000494D01*
X000476Y000493D02*
X000477Y000494D01*
X000475Y000493D02*
X000476D01*
X000475Y000494D02*
X000475Y000493D01*
X000474Y000494D02*
X000475Y000494D01*
X000474Y000495D02*
X000474Y000494D01*
X000474Y000496D02*
X000474Y000495D01*
X000474Y000496D02*
Y000498D01*
X000474Y0005D01*
X000474Y0005D01*
X000475Y000501D01*
X000475Y000501D01*
X000476D01*
X00048D02*
X000483Y000493D01*
X000485Y000501D01*
X000491Y000494D02*
X000492Y000494D01*
X000491Y000493D02*
X000491Y000494D01*
X000489Y000493D02*
X000491D01*
X000488Y000494D02*
X000489Y000493D01*
X000488Y000494D02*
X000488Y000494D01*
X000487Y000495D02*
X000488Y000494D01*
X000487Y000495D02*
Y000497D01*
X000488Y000497D01*
X000488Y000498D01*
X000489Y000498D01*
X000491D01*
X000491Y000498D01*
X000492Y000497D01*
X000491Y000501D02*
X000492Y000497D01*
X000488Y000501D02*
X000491D01*
X000446Y000502D02*
Y000504D01*
X000493D01*
Y000502D02*
Y000504D01*
X000463Y000506D02*
Y000514D01*
X000461D02*
X000465D01*
X000467D02*
X000472Y000506D01*
X000467D02*
X000472Y000514D01*
X000474D02*
X000478D01*
Y000506D02*
Y000514D01*
X000474Y000506D02*
X000478D01*
X000476Y00051D02*
X000478D01*
X000866Y000629D02*
X000891D01*
Y000553D02*
Y000629D01*
X000866Y000553D02*
X000891D01*
X000866D02*
Y000629D01*
X000836Y000595D02*
X000839D01*
Y000587D02*
Y000595D01*
X000837Y000591D02*
X000839D01*
X000843Y000595D02*
X000846D01*
Y000587D02*
Y000595D01*
X000843Y000587D02*
X000846D01*
X000844Y000591D02*
X000846D01*
X000851Y000591D02*
X000854D01*
X00085Y000591D02*
X000851Y000591D01*
X00085Y000592D02*
X00085Y000591D01*
X000849Y000592D02*
X00085Y000592D01*
X000849Y000592D02*
Y000593D01*
X00085Y000594D01*
X00085Y000595D01*
X000851Y000595D01*
X000854D01*
Y000587D02*
Y000595D01*
X000849Y000587D02*
X000852Y000591D01*
X000856Y000587D02*
X000859Y000595D01*
X000861Y000587D01*
X000857Y000589D02*
X000861D01*
X000847Y000613D02*
X000848Y000613D01*
X000847Y000613D02*
X000847Y000613D01*
X000845Y000613D02*
X000847D01*
X000844Y000613D02*
X000845Y000613D01*
X000843Y000613D02*
X000844Y000613D01*
X000843Y000614D02*
X000843Y000613D01*
X000843Y000614D02*
Y000616D01*
X000843Y000617D01*
X000844Y000617D01*
X000845Y000617D01*
X000846D01*
X000843Y00062D02*
X000846Y000617D01*
X000843Y00062D02*
X000848D01*
X00085D02*
X000852Y000613D01*
X000855Y00062D01*
X000861Y000613D02*
X000862Y000613D01*
X000861Y000613D02*
X000861Y000613D01*
X000858Y000613D02*
X000861D01*
X000858Y000613D02*
X000858Y000613D01*
X000857Y000613D02*
X000858Y000613D01*
X000857Y000614D02*
X000857Y000613D01*
X000857Y000614D02*
Y000616D01*
X000857Y000617D01*
X000858Y000617D01*
X000858Y000617D01*
X000859D01*
X000857Y00062D02*
X000859Y000617D01*
X000857Y00062D02*
X000862D01*
X000846Y00057D02*
X000847Y000569D01*
X000847Y000569D01*
X000848Y000568D01*
X000848Y000567D01*
Y000565D02*
Y000567D01*
X000848Y000563D02*
X000848Y000565D01*
X000847Y000563D02*
X000848Y000563D01*
X000847Y000562D02*
X000847Y000563D01*
X000846Y000562D02*
X000847Y000562D01*
X000846Y000562D02*
X000846D01*
X000845Y000562D02*
X000846Y000562D01*
X000844Y000563D02*
X000845Y000562D01*
X000844Y000563D02*
X000844Y000563D01*
X000844Y000565D02*
X000844Y000563D01*
X000844Y000565D02*
Y000567D01*
X000844Y000568D01*
X000844Y000569D01*
X000845Y000569D01*
X000846Y00057D01*
X000846D01*
X00085D02*
X000853Y000562D01*
X000855Y00057D01*
X000862Y000562D02*
X000862Y000563D01*
X000861Y000562D02*
X000862Y000562D01*
X000859Y000562D02*
X000861D01*
X000858Y000562D02*
X000859Y000562D01*
X000858Y000563D02*
X000858Y000562D01*
X000858Y000563D02*
X000858Y000563D01*
X000858Y000563D02*
Y000565D01*
X000858Y000566D01*
X000858Y000566D01*
X000859Y000567D01*
X000861D01*
X000862Y000566D01*
X000862Y000566D01*
X000862Y00057D02*
X000862Y000566D01*
X000858Y00057D02*
X000862D01*
X000967Y000553D02*
Y000629D01*
X000916Y000553D02*
X000967D01*
X000916D02*
Y000629D01*
X000967D01*
X000905Y000624D02*
X000913Y000616D01*
X000905Y000609D02*
Y000624D01*
Y000609D02*
X000913Y000616D01*
X000906Y00061D02*
Y000623D01*
X000907Y000611D02*
Y000621D01*
X000909Y000612D02*
Y00062D01*
X00091Y000614D02*
Y000619D01*
X000911Y000615D02*
Y000617D01*
X000946Y000635D02*
X000948D01*
X000945Y000636D02*
X000946Y000635D01*
X000944Y000636D02*
X000945Y000636D01*
X000944Y000637D02*
X000944Y000636D01*
X000944Y000637D02*
Y000638D01*
X000944Y000639D01*
X000945Y000639D01*
X000946Y000639D01*
X000948D01*
Y000632D02*
Y000639D01*
X000952Y000639D02*
X000953Y000639D01*
X000955D01*
X000955Y000639D01*
X000956Y000639D01*
X000956Y000638D01*
Y000637D02*
Y000638D01*
X000956Y000636D02*
X000956Y000637D01*
X000955Y000636D02*
X000956Y000636D01*
X000955Y000636D02*
X000955Y000636D01*
X000953Y000635D02*
X000955Y000636D01*
X000952Y000635D02*
X000953Y000635D01*
X000952Y000635D02*
X000952Y000635D01*
X000952Y000634D02*
X000952Y000635D01*
X000952Y000633D02*
Y000634D01*
Y000633D02*
X000952Y000632D01*
X000952Y000632D01*
X000953Y000632D01*
X000955D01*
X000956Y000632D01*
X000959Y000639D02*
X000959Y000639D01*
X00096Y000639D01*
X000961D01*
X000962Y000639D01*
X000963Y000638D01*
X000963Y000638D01*
X000964Y000636D01*
Y000635D02*
Y000636D01*
X000963Y000634D02*
X000964Y000635D01*
X000963Y000633D02*
X000963Y000634D01*
X000962Y000632D02*
X000963Y000633D01*
X000961Y000632D02*
X000962Y000632D01*
X00096Y000632D02*
X000961D01*
X000959Y000632D02*
X00096Y000632D01*
X000959Y000632D02*
X000959Y000632D01*
X000967Y000632D02*
Y000639D01*
X00106Y000676D02*
X00106Y000675D01*
X00106Y000676D02*
Y000678D01*
X00106Y000679D01*
X001061Y000679D01*
X001062Y000679D01*
X001062D01*
X001063Y000679D01*
X001063Y000679D01*
X001064Y000678D01*
X001064Y000676D01*
X001064Y000676D01*
X001065Y000675D01*
X001066Y000675D01*
X001066D01*
X001067Y000675D01*
X001067Y000676D01*
X001068Y000676D01*
Y000678D01*
X001067Y000679D02*
X001068Y000678D01*
X001064Y000684D02*
Y000687D01*
X001064Y000683D02*
X001064Y000684D01*
X001063Y000683D02*
X001064Y000683D01*
X001063Y000682D02*
X001063Y000683D01*
X001062Y000682D02*
X001063D01*
X001061Y000683D02*
X001062Y000682D01*
X00106Y000683D02*
X001061Y000683D01*
X00106Y000684D02*
X00106Y000683D01*
X00106Y000684D02*
Y000687D01*
X001068D01*
X001064Y00069D02*
Y000691D01*
Y00069D02*
X001067D01*
X001067Y00069D01*
X001068Y000691D01*
Y000692D01*
X001067Y000693D02*
X001068Y000692D01*
X001067Y000694D02*
X001067Y000693D01*
X001066Y000694D02*
X001067Y000694D01*
X001064Y000695D02*
X001066Y000694D01*
X001063Y000695D02*
X001064D01*
X001062Y000694D02*
X001063Y000695D01*
X001061Y000694D02*
X001062Y000694D01*
X00106Y000693D02*
X001061Y000694D01*
X00106Y000692D02*
X00106Y000693D01*
X00106Y000691D02*
Y000692D01*
Y000691D02*
X00106Y00069D01*
X001002Y000721D02*
Y000729D01*
X000995D02*
X000997D01*
X000998Y000728D01*
X000998Y000728D01*
X000999Y000727D01*
X000999Y000726D01*
Y000724D02*
Y000726D01*
X000999Y000723D02*
X000999Y000724D01*
X000998Y000722D02*
X000999Y000723D01*
X000998Y000722D02*
X000998Y000722D01*
X000997Y000721D02*
X000998Y000722D01*
X000995Y000721D02*
X000997D01*
X000995D02*
Y000729D01*
X00099Y000721D02*
Y000729D01*
X000988Y000721D02*
X000992D01*
X000983D02*
X000986D01*
X000983D02*
Y000729D01*
Y000725D02*
X000985D01*
X000916Y000756D02*
X001069D01*
Y00073D02*
Y000756D01*
X000916Y00073D02*
X001069D01*
X000916D02*
Y000756D01*
X000866Y000827D02*
X001069D01*
Y000795D02*
Y000827D01*
X000866Y000795D02*
X001069D01*
X000866D02*
Y000827D01*
X00085Y000795D02*
Y000827D01*
X000596Y000795D02*
X00085D01*
X000596D02*
Y000827D01*
X00085D01*
X000849Y00083D02*
Y000837D01*
X000845Y000833D02*
X000849D01*
X000845Y00083D02*
Y000837D01*
X000832Y00083D02*
X000833Y00083D01*
X000831Y000831D02*
X000832Y00083D01*
X000831Y000832D02*
X000831Y000831D01*
X000831Y000832D02*
Y000835D01*
X000831Y000836D01*
X000832Y000837D01*
X000833Y000837D01*
X000834D01*
X000835Y000837D01*
X000835Y000836D01*
X000836Y000835D01*
Y000832D02*
Y000835D01*
X000835Y000831D02*
X000836Y000832D01*
X000835Y00083D02*
X000835Y000831D01*
X000834Y00083D02*
X000835Y00083D01*
X000833Y00083D02*
X000834D01*
X000822Y000839D02*
X000829Y000829D01*
X00082Y00083D02*
Y000837D01*
X000891Y00083D02*
Y000837D01*
X000895D01*
X000878Y00083D02*
X000879Y00083D01*
X000877Y000831D02*
X000878Y00083D01*
X000877Y000832D02*
X000877Y000831D01*
X000877Y000832D02*
Y000835D01*
X000877Y000836D01*
X000878Y000837D01*
X000879Y000837D01*
X00088D01*
X000881Y000837D01*
X000881Y000836D01*
X000882Y000835D01*
Y000832D02*
Y000835D01*
X000881Y000831D02*
X000882Y000832D01*
X000881Y00083D02*
X000881Y000831D01*
X00088Y00083D02*
X000881Y00083D01*
X000879Y00083D02*
X00088D01*
X000868Y000839D02*
X000875Y000829D01*
X000866Y00083D02*
Y000837D01*
X00106Y000766D02*
Y000767D01*
X00106Y000765D02*
X00106Y000766D01*
X001059Y000764D02*
X00106Y000765D01*
X001058Y000764D02*
X001059Y000764D01*
X001057Y000764D02*
X001058Y000764D01*
X001056Y000764D02*
X001057D01*
X001054Y000764D02*
X001056Y000764D01*
X001054Y000764D02*
X001054Y000764D01*
X001053Y000765D02*
X001054Y000764D01*
X001052Y000766D02*
X001053Y000765D01*
X001052Y000766D02*
Y000767D01*
X00106D01*
X001052Y000769D02*
X00106Y000772D01*
X001052D02*
X00106Y000769D01*
X001056Y000775D02*
Y000777D01*
X001056Y000774D02*
X001056Y000775D01*
X001056Y000774D02*
X001056Y000774D01*
X001055Y000774D02*
X001056Y000774D01*
X001054Y000774D02*
X001055D01*
X001053Y000774D02*
X001054Y000774D01*
X001053Y000774D02*
X001053Y000774D01*
X001052Y000775D02*
X001053Y000774D01*
X001052Y000775D02*
Y000777D01*
X00106D01*
X001056Y000776D02*
X00106Y000774D01*
X001052Y000778D02*
X001062Y000783D01*
X001052Y000786D02*
X001053Y000786D01*
X001053Y000787D01*
X001054Y000787D01*
X001055Y000787D01*
X001057D01*
X001059Y000787D01*
X001059Y000787D01*
X00106Y000786D01*
X00106Y000786D01*
Y000785D02*
Y000786D01*
X00106Y000785D02*
X00106Y000785D01*
X001059Y000785D02*
X00106Y000785D01*
X001059Y000785D02*
X001059Y000785D01*
X001057Y000784D02*
X001059Y000785D01*
X001055Y000784D02*
X001057D01*
X001054Y000785D02*
X001055Y000784D01*
X001053Y000785D02*
X001054Y000785D01*
X001053Y000785D02*
X001053Y000785D01*
X001052Y000785D02*
X001053Y000785D01*
X001052Y000785D02*
Y000786D01*
X00106Y000791D02*
Y000792D01*
X00106Y00079D02*
X00106Y000791D01*
X001059Y00079D02*
X00106Y00079D01*
X001058Y000789D02*
X001059Y00079D01*
X001057Y000789D02*
X001058Y000789D01*
X001056Y000789D02*
X001057D01*
X001054Y000789D02*
X001056Y000789D01*
X001054Y00079D02*
X001054Y000789D01*
X001053Y00079D02*
X001054Y00079D01*
X001052Y000791D02*
X001053Y00079D01*
X001052Y000791D02*
Y000792D01*
X00106D01*
X001035Y000767D02*
Y000768D01*
X001034Y000766D02*
X001035Y000767D01*
X001034Y000766D02*
X001034Y000766D01*
X001033Y000765D02*
X001034Y000766D01*
X001031Y000765D02*
X001033Y000765D01*
X00103Y000765D02*
X001031D01*
X001029Y000765D02*
X00103Y000765D01*
X001028Y000766D02*
X001029Y000765D01*
X001027Y000766D02*
X001028Y000766D01*
X001027Y000767D02*
X001027Y000766D01*
X001027Y000767D02*
Y000768D01*
X001035D01*
X001027Y00077D02*
X001035Y000773D01*
X001027D02*
X001035Y00077D01*
X001027Y000776D02*
X001035D01*
X001027Y000775D02*
Y000778D01*
X001027Y000778D02*
X001037Y000783D01*
X001029Y000787D02*
X001029Y000787D01*
X001028Y000786D02*
X001029Y000787D01*
X001027Y000786D02*
X001028Y000786D01*
X001027Y000786D02*
X001035D01*
Y000784D02*
Y000787D01*
Y000791D02*
Y000792D01*
X001034Y00079D02*
X001035Y000791D01*
X001034Y00079D02*
X001034Y00079D01*
X001033Y000789D02*
X001034Y00079D01*
X001031Y000789D02*
X001033Y000789D01*
X00103Y000789D02*
X001031D01*
X001029Y000789D02*
X00103Y000789D01*
X001028Y00079D02*
X001029Y000789D01*
X001027Y00079D02*
X001028Y00079D01*
X001027Y000791D02*
X001027Y00079D01*
X001027Y000791D02*
Y000792D01*
X001035D01*
X001004Y000762D02*
X001005Y000761D01*
X001004Y000762D02*
Y000763D01*
X001005Y000763D01*
X001005Y000763D01*
X001006D01*
X001006Y000763D01*
X001007Y000763D01*
Y000762D02*
Y000763D01*
Y000762D02*
X001007Y000761D01*
X001008Y000761D01*
X001008D01*
X001009Y000761D01*
X001009Y000762D01*
Y000763D01*
X001009Y000763D02*
X001009Y000763D01*
X001009Y000768D02*
X001009Y000767D01*
Y000766D02*
Y000767D01*
X001009Y000766D02*
X001009Y000766D01*
X001009Y000765D02*
X001009Y000766D01*
X001008Y000765D02*
X001009Y000765D01*
X001006Y000765D02*
X001008D01*
X001005Y000765D02*
X001006Y000765D01*
X001005Y000766D02*
X001005Y000765D01*
X001004Y000766D02*
X001005Y000766D01*
X001004Y000766D02*
Y000767D01*
X001005Y000768D01*
X001004D02*
X001012D01*
X001009Y000772D02*
X001009Y000772D01*
Y000771D02*
Y000772D01*
X001009Y00077D02*
X001009Y000771D01*
X001009Y00077D02*
X001009Y00077D01*
X001008Y00077D02*
X001009Y00077D01*
X001006Y00077D02*
X001008D01*
X001005Y00077D02*
X001006Y00077D01*
X001005Y00077D02*
X001005Y00077D01*
X001004Y000771D02*
X001005Y00077D01*
X001004Y000771D02*
Y000772D01*
X001005Y000772D01*
X001004D02*
X001012D01*
X001003Y000777D02*
X001004Y000777D01*
X001003Y000776D02*
X001003Y000777D01*
X001002Y000776D02*
X001003Y000776D01*
X001002Y000776D02*
X001009D01*
Y000774D02*
Y000777D01*
X001001Y000779D02*
X001011Y000783D01*
X001009Y000785D02*
Y000788D01*
X001005Y000785D02*
X001009Y000788D01*
X001004Y000785D02*
X001005Y000785D01*
X001003Y000785D02*
X001004D01*
X001002Y000785D02*
X001003Y000785D01*
X001002Y000785D02*
X001002Y000785D01*
X001002Y000786D02*
X001002Y000785D01*
X001002Y000786D02*
Y000787D01*
X001002Y000787D01*
X001002Y000787D01*
X001009Y000791D02*
Y000792D01*
X001009Y00079D02*
X001009Y000791D01*
X001008Y00079D02*
X001009Y00079D01*
X001007Y00079D02*
X001008Y00079D01*
X001006Y000789D02*
X001007Y00079D01*
X001005Y000789D02*
X001006D01*
X001003Y00079D02*
X001005Y000789D01*
X001003Y00079D02*
X001003Y00079D01*
X001002Y00079D02*
X001003Y00079D01*
X001002Y000791D02*
X001002Y00079D01*
X001002Y000791D02*
Y000792D01*
X001009D01*
X000969Y000763D02*
X000977Y000764D01*
X000971Y000765D02*
X000977Y000764D01*
X000971Y000765D02*
X000977Y000766D01*
X000969Y000767D02*
X000977Y000766D01*
Y00077D02*
Y000771D01*
X000977Y000769D02*
X000977Y00077D01*
X000976Y000769D02*
X000977Y000769D01*
X000974Y000769D02*
X000976Y000769D01*
X000972Y000769D02*
X000974D01*
X00097Y000769D02*
X000972Y000769D01*
X00097Y000769D02*
X00097Y000769D01*
X000969Y00077D02*
X00097Y000769D01*
X000969Y00077D02*
Y000771D01*
X00097Y000771D01*
X00097Y000772D01*
X000972Y000772D01*
X000974D01*
X000976Y000772D01*
X000977Y000771D01*
X000977Y000771D01*
X000975Y000771D02*
Y000771D01*
Y000771D02*
X000975Y00077D01*
X000977Y000769D01*
X000977Y000769D01*
X000978Y000768D01*
X000969Y000775D02*
X00097Y000774D01*
X000969Y000775D02*
Y000776D01*
X00097Y000776D01*
X00097Y000777D01*
X000971Y000777D01*
X000971D01*
X000972Y000777D01*
X000973Y000776D01*
X000973Y000776D01*
X000973Y000775D01*
X000974Y000774D01*
X000974Y000774D01*
X000975Y000774D01*
X000975D01*
X000976Y000774D01*
X000977Y000774D01*
X000977Y000775D01*
Y000776D01*
X000977Y000777D02*
X000977Y000776D01*
X000969Y000778D02*
X000979Y000783D01*
X000976Y000787D02*
X000977Y000787D01*
X000977Y000787D01*
Y000785D02*
Y000787D01*
X000977Y000785D02*
X000977Y000785D01*
X000976Y000784D02*
X000977Y000785D01*
X000975Y000784D02*
X000976Y000784D01*
X000974Y000784D02*
X000975D01*
X000973Y000784D02*
X000974Y000784D01*
X000973Y000785D02*
X000973Y000784D01*
X000972Y000785D02*
X000973Y000785D01*
X000972Y000785D02*
Y000786D01*
X000969Y000784D02*
X000972Y000786D01*
X000969Y000784D02*
Y000787D01*
X000977Y000791D02*
Y000792D01*
X000977Y00079D02*
X000977Y000791D01*
X000976Y000789D02*
X000977Y00079D01*
X000975Y000789D02*
X000976Y000789D01*
X000974Y000789D02*
X000975Y000789D01*
X000973Y000789D02*
X000974D01*
X000971Y000789D02*
X000973Y000789D01*
X00097Y000789D02*
X000971Y000789D01*
X00097Y00079D02*
X00097Y000789D01*
X000969Y000791D02*
X00097Y00079D01*
X000969Y000791D02*
Y000792D01*
X000977D01*
X000957Y000781D02*
Y000785D01*
X000951Y000784D02*
X000957Y000785D01*
X000954Y000782D02*
X000959D01*
Y000791D02*
Y000793D01*
X000959Y00079D02*
X000959Y000791D01*
X000958Y000789D02*
X000959Y00079D01*
X000957Y000789D02*
X000958Y000789D01*
X000956Y000788D02*
X000957Y000789D01*
X000955Y000788D02*
X000956D01*
X000953Y000789D02*
X000955Y000788D01*
X000953Y000789D02*
X000953Y000789D01*
X000952Y00079D02*
X000953Y000789D01*
X000952Y000791D02*
X000952Y00079D01*
X000952Y000791D02*
Y000793D01*
X000959D01*
X000925Y000765D02*
X000935Y000767D01*
X000931Y000765D02*
Y00077D01*
X000925Y000767D02*
X000935Y00077D01*
X000928Y000764D02*
Y00077D01*
X000925Y000772D02*
X000935Y000778D01*
X000932Y000785D02*
X000933Y000785D01*
X000933Y000784D01*
Y000782D02*
Y000784D01*
X000933Y000781D02*
X000933Y000782D01*
X000932Y000781D02*
X000933Y000781D01*
X000932Y000781D02*
X000932Y000781D01*
X00093Y000781D02*
X000932D01*
X000929Y000781D02*
X00093Y000781D01*
X000929Y000781D02*
X000929Y000781D01*
X000928Y000782D02*
X000929Y000781D01*
X000928Y000782D02*
Y000784D01*
X000929Y000785D01*
X000929Y000785D01*
X000925Y000785D02*
X000929Y000785D01*
X000925Y000781D02*
Y000785D01*
X000933Y00079D02*
Y000792D01*
X000933Y000789D02*
X000933Y00079D01*
X000932Y000789D02*
X000933Y000789D01*
X000931Y000788D02*
X000932Y000789D01*
X00093Y000788D02*
X000931Y000788D01*
X000929Y000788D02*
X00093D01*
X000927Y000788D02*
X000929Y000788D01*
X000927Y000789D02*
X000927Y000788D01*
X000926Y000789D02*
X000927Y000789D01*
X000925Y00079D02*
X000926Y000789D01*
X000925Y00079D02*
Y000792D01*
X000933D01*
X000899Y000765D02*
X000909Y000767D01*
X000906Y000765D02*
Y00077D01*
X000899Y000767D02*
X000909Y00077D01*
X000903Y000764D02*
Y00077D01*
X0009Y000772D02*
X000909Y000778D01*
X000904Y000785D02*
X000904Y000785D01*
X000903Y000784D02*
X000904Y000785D01*
X000903Y000783D02*
X000903Y000784D01*
X000903Y000782D02*
Y000783D01*
Y000782D02*
X000903Y000781D01*
X000904Y000781D01*
X000904Y000781D01*
X000906D01*
X000907Y000781D01*
X000907Y000781D01*
X000908Y000782D01*
Y000783D01*
X000907Y000784D02*
X000908Y000783D01*
X000907Y000785D02*
X000907Y000784D01*
X000906Y000785D02*
X000907Y000785D01*
X000903Y000785D02*
X000906D01*
X000902Y000785D02*
X000903Y000785D01*
X000901Y000784D02*
X000902Y000785D01*
X0009Y000783D02*
X000901Y000784D01*
X0009Y000783D02*
X0009Y000783D01*
X0009Y000781D02*
Y000783D01*
X000908Y00079D02*
Y000792D01*
X000907Y000789D02*
X000908Y00079D01*
X000907Y000789D02*
X000907Y000789D01*
X000906Y000788D02*
X000907Y000789D01*
X000904Y000788D02*
X000906Y000788D01*
X000903Y000788D02*
X000904D01*
X000902Y000788D02*
X000903Y000788D01*
X000901Y000789D02*
X000902Y000788D01*
X0009Y000789D02*
X000901Y000789D01*
X0009Y00079D02*
X0009Y000789D01*
X0009Y00079D02*
Y000792D01*
X000908D01*
X000875Y000781D02*
X000882Y000784D01*
X000875Y000781D02*
Y000786D01*
X000882Y000791D02*
Y000793D01*
X000882Y00079D02*
X000882Y000791D01*
X000881Y000789D02*
X000882Y00079D01*
X00088Y000789D02*
X000881Y000789D01*
X000879Y000788D02*
X00088Y000789D01*
X000878Y000788D02*
X000879D01*
X000876Y000789D02*
X000878Y000788D01*
X000876Y000789D02*
X000876Y000789D01*
X000875Y00079D02*
X000876Y000789D01*
X000875Y000791D02*
X000875Y00079D01*
X000875Y000791D02*
Y000793D01*
X000882D01*
X000837Y000782D02*
X000838Y000781D01*
X000838Y000781D01*
X000839Y00078D01*
X00084D01*
X000841Y000781D01*
X000841Y000781D01*
X000842Y000782D01*
Y000783D01*
X000841Y000784D02*
X000842Y000783D01*
X000841Y000784D02*
X000841Y000784D01*
X00084Y000785D02*
X000841Y000784D01*
X000839Y000785D02*
X00084D01*
X000838Y000784D02*
X000839Y000785D01*
X000838Y000784D02*
X000838Y000784D01*
X000837Y000783D02*
X000838Y000784D01*
X000837Y000782D02*
Y000783D01*
X000837Y000781D02*
X000837Y000782D01*
X000837Y000781D02*
X000837Y000781D01*
X000836Y00078D02*
X000837Y000781D01*
X000835Y00078D02*
X000836D01*
X000835Y000781D02*
X000835Y00078D01*
X000834Y000781D02*
X000835Y000781D01*
X000834Y000782D02*
X000834Y000781D01*
X000834Y000782D02*
Y000783D01*
X000834Y000784D01*
X000835Y000784D01*
X000835Y000785D01*
X000836D01*
X000837Y000784D01*
X000837Y000784D01*
X000837Y000783D01*
X000842Y00079D02*
Y000792D01*
X000841Y000789D02*
X000842Y00079D01*
X000841Y000788D02*
X000841Y000789D01*
X00084Y000788D02*
X000841Y000788D01*
X000838Y000788D02*
X00084Y000788D01*
X000837Y000788D02*
X000838D01*
X000836Y000788D02*
X000837Y000788D01*
X000835Y000788D02*
X000836Y000788D01*
X000834Y000789D02*
X000835Y000788D01*
X000834Y00079D02*
X000834Y000789D01*
X000834Y00079D02*
Y000792D01*
X000842D01*
X000808Y000765D02*
X000818Y000767D01*
X000814Y000765D02*
Y00077D01*
X000808Y000767D02*
X000818Y00077D01*
X000811Y000764D02*
Y00077D01*
X000808Y000772D02*
X000818Y000778D01*
X000812Y000781D02*
X000813Y000781D01*
X000813Y000781D01*
X000813Y000782D01*
Y000783D01*
X000813Y000784D02*
X000813Y000783D01*
X000813Y000785D02*
X000813Y000784D01*
X000812Y000785D02*
X000813Y000785D01*
X00081Y000785D02*
X000812D01*
X000809Y000785D02*
X00081Y000785D01*
X000809Y000784D02*
X000809Y000785D01*
X000809Y000783D02*
X000809Y000784D01*
X000809Y000782D02*
Y000783D01*
Y000782D02*
X000809Y000781D01*
X000809Y000781D01*
X00081Y000781D01*
X000813D01*
X000814Y000781D01*
X000816Y000782D01*
X000816Y000782D01*
X000816Y000783D01*
Y000784D01*
Y00079D02*
Y000792D01*
X000816Y000789D02*
X000816Y00079D01*
X000815Y000789D02*
X000816Y000789D01*
X000814Y000788D02*
X000815Y000789D01*
X000813Y000788D02*
X000814Y000788D01*
X000812Y000788D02*
X000813D01*
X00081Y000788D02*
X000812Y000788D01*
X00081Y000789D02*
X00081Y000788D01*
X000809Y000789D02*
X00081Y000789D01*
X000809Y00079D02*
X000809Y000789D01*
X000809Y00079D02*
Y000792D01*
X000816D01*
X000782Y000759D02*
X000792Y000761D01*
X000789Y000759D02*
Y000764D01*
X000782Y000761D02*
X000792Y000763D01*
X000786Y000758D02*
Y000763D01*
X000783Y000766D02*
X000793Y000772D01*
X000783Y000777D02*
X000784Y000778D01*
X000784Y000778D01*
X000785Y000778D01*
X000786Y000779D01*
X000788D01*
X000789Y000778D01*
X00079Y000778D01*
X00079Y000778D01*
X000791Y000777D01*
Y000776D02*
Y000777D01*
X00079Y000775D02*
X000791Y000776D01*
X00079Y000775D02*
X00079Y000775D01*
X000789Y000775D02*
X00079Y000775D01*
X000788Y000774D02*
X000789Y000775D01*
X000786Y000774D02*
X000788D01*
X000785Y000775D02*
X000786Y000774D01*
X000784Y000775D02*
X000785Y000775D01*
X000784Y000775D02*
X000784Y000775D01*
X000783Y000776D02*
X000784Y000775D01*
X000783Y000776D02*
Y000777D01*
X000785Y000785D02*
X000785Y000786D01*
X000784Y000785D02*
X000785Y000785D01*
X000783Y000784D02*
X000784Y000785D01*
X000783Y000784D02*
X000791D01*
Y000782D02*
Y000786D01*
Y000791D02*
Y000793D01*
X00079Y00079D02*
X000791Y000791D01*
X00079Y00079D02*
X00079Y00079D01*
X000789Y000789D02*
X00079Y00079D01*
X000788Y000789D02*
X000789Y000789D01*
X000786Y000789D02*
X000788D01*
X000785Y000789D02*
X000786Y000789D01*
X000784Y00079D02*
X000785Y000789D01*
X000784Y00079D02*
X000784Y00079D01*
X000783Y000791D02*
X000784Y00079D01*
X000783Y000791D02*
Y000793D01*
X000791D01*
X000757Y000723D02*
X000767Y000725D01*
X000764Y000723D02*
Y000728D01*
X000757Y000725D02*
X000767Y000728D01*
X00076Y000722D02*
Y000728D01*
X000757Y00073D02*
X000767Y000736D01*
X000758Y000739D02*
X000765D01*
X000758Y000743D02*
X000758Y000742D01*
X000758Y000743D02*
Y000745D01*
X000758Y000746D01*
X000759Y000746D01*
X000759Y000746D01*
X00076D01*
X000761Y000746D01*
X000761Y000746D01*
X000761Y000745D01*
X000762Y000744D01*
X000762Y000743D01*
X000763Y000742D01*
X000763Y000742D01*
X000764D01*
X000765Y000742D01*
X000765Y000743D01*
X000765Y000744D01*
Y000745D01*
X000765Y000746D02*
X000765Y000745D01*
X000758Y000753D02*
X000758Y000753D01*
X000759Y000754D01*
X00076Y000754D01*
X000763D01*
X000764Y000754D01*
X000765Y000753D01*
X000765Y000753D01*
Y000751D02*
Y000753D01*
X000765Y00075D02*
X000765Y000751D01*
X000764Y00075D02*
X000765Y00075D01*
X000763Y000749D02*
X000764Y00075D01*
X00076Y000749D02*
X000763D01*
X000759Y00075D02*
X00076Y000749D01*
X000758Y00075D02*
X000759Y00075D01*
X000758Y000751D02*
X000758Y00075D01*
X000758Y000751D02*
Y000753D01*
Y000758D02*
X000765D01*
X000758D02*
X000763Y00076D01*
X000758Y000763D02*
X000763Y00076D01*
X000758Y000763D02*
X000765D01*
X000757Y000765D02*
X000767Y000772D01*
X00076Y000778D02*
X00076Y000778D01*
X000759Y000777D02*
X00076Y000778D01*
X000758Y000776D02*
X000759Y000777D01*
X000758Y000776D02*
X000765D01*
Y000774D02*
Y000778D01*
X00076Y000785D02*
X00076Y000786D01*
X000759Y000784D02*
X00076Y000785D01*
X000758Y000783D02*
X000759Y000784D01*
X000758Y000783D02*
X000765D01*
Y000781D02*
Y000786D01*
Y000791D02*
Y000793D01*
X000765Y00079D02*
X000765Y000791D01*
X000764Y000789D02*
X000765Y00079D01*
X000764Y000789D02*
X000764Y000789D01*
X000762Y000789D02*
X000764Y000789D01*
X000761Y000789D02*
X000762D01*
X00076Y000789D02*
X000761Y000789D01*
X000759Y000789D02*
X00076Y000789D01*
X000758Y00079D02*
X000759Y000789D01*
X000758Y000791D02*
X000758Y00079D01*
X000758Y000791D02*
Y000793D01*
X000765D01*
X000707Y000743D02*
X000711Y000747D01*
X00071Y000746D02*
X000715Y000743D01*
X000707Y000747D02*
X000715D01*
X000707Y000751D02*
X000708Y000751D01*
X000707Y000752D02*
X000707Y000751D01*
X000707Y000752D02*
Y000753D01*
X000707Y000754D01*
X000708Y000755D01*
X000709Y000755D01*
X00071Y000755D01*
X000711D01*
X000713Y000755D01*
X000714Y000755D01*
X000714Y000754D01*
X000715Y000753D01*
Y000752D02*
Y000753D01*
X000714Y000751D02*
X000715Y000752D01*
X000714Y000751D02*
X000714Y000751D01*
X000707Y000759D02*
X000707Y000758D01*
X000707Y000759D02*
Y000761D01*
X000707Y000762D01*
X000708Y000762D01*
X000708Y000763D01*
X000709D01*
X00071Y000762D01*
X00071Y000762D01*
X000711Y000761D01*
X000711Y00076D01*
X000711Y000759D01*
X000712Y000759D01*
X000712Y000758D01*
X000713D01*
X000714Y000759D01*
X000714Y000759D01*
X000715Y00076D01*
Y000762D01*
X000714Y000763D02*
X000715Y000762D01*
X000707Y000765D02*
X000716Y000771D01*
X000714Y000778D02*
X000714Y000778D01*
X000715Y000777D01*
Y000775D02*
Y000777D01*
X000714Y000774D02*
X000715Y000775D01*
X000714Y000774D02*
X000714Y000774D01*
X000713Y000774D02*
X000714Y000774D01*
X000711Y000774D02*
X000713D01*
X000711Y000774D02*
X000711Y000774D01*
X00071Y000774D02*
X000711Y000774D01*
X00071Y000775D02*
X00071Y000774D01*
X00071Y000775D02*
Y000776D01*
X000707Y000774D02*
X00071Y000776D01*
X000707Y000774D02*
Y000778D01*
X000709Y000784D02*
X000709Y000785D01*
X000708Y000784D02*
X000709Y000784D01*
X000707Y000783D02*
X000708Y000784D01*
X000707Y000783D02*
X000715D01*
Y000781D02*
Y000785D01*
Y000791D02*
Y000792D01*
X000714Y00079D02*
X000715Y000791D01*
X000714Y000789D02*
X000714Y00079D01*
X000713Y000788D02*
X000714Y000789D01*
X000711Y000788D02*
X000713Y000788D01*
X00071Y000788D02*
X000711D01*
X000709Y000788D02*
X00071Y000788D01*
X000708Y000789D02*
X000709Y000788D01*
X000707Y00079D02*
X000708Y000789D01*
X000707Y000791D02*
X000707Y00079D01*
X000707Y000791D02*
Y000792D01*
X000715D01*
X000689Y000775D02*
Y000777D01*
X000689Y000774D02*
X000689Y000775D01*
X000688Y000773D02*
X000689Y000774D01*
X000687Y000773D02*
X000688Y000773D01*
X000686Y000772D02*
X000687Y000773D01*
X000685Y000772D02*
X000686D01*
X000683Y000773D02*
X000685Y000772D01*
X000683Y000773D02*
X000683Y000773D01*
X000682Y000774D02*
X000683Y000773D01*
X000682Y000775D02*
X000682Y000774D01*
X000682Y000775D02*
Y000777D01*
X000689D01*
X000682Y00078D02*
X000689D01*
X000682Y000785D02*
X000689Y00078D01*
X000682Y000785D02*
X000689D01*
X000686Y000788D02*
Y000789D01*
Y000788D02*
X000689D01*
X000689Y000788D01*
X000689Y000789D01*
Y00079D01*
X000689Y000791D02*
X000689Y00079D01*
X000688Y000792D02*
X000689Y000791D01*
X000687Y000792D02*
X000688Y000792D01*
X000686Y000793D02*
X000687Y000792D01*
X000685Y000793D02*
X000686D01*
X000683Y000792D02*
X000685Y000793D01*
X000683Y000792D02*
X000683Y000792D01*
X000682Y000791D02*
X000683Y000792D01*
X000682Y00079D02*
X000682Y000791D01*
X000682Y000789D02*
Y00079D01*
Y000789D02*
X000682Y000788D01*
X000656Y000767D02*
Y00077D01*
X000664D01*
X00066Y000768D02*
Y00077D01*
X000656Y000774D02*
Y000777D01*
X000664D01*
Y000774D02*
Y000777D01*
X00066Y000775D02*
Y000777D01*
X00066Y000782D02*
Y000785D01*
X00066Y000781D02*
X00066Y000782D01*
X000659Y000781D02*
X00066Y000781D01*
X000659Y00078D02*
X000659Y000781D01*
X000658Y00078D02*
X000659D01*
X000657Y000781D02*
X000658Y00078D01*
X000657Y000781D02*
X000657Y000781D01*
X000656Y000782D02*
X000657Y000781D01*
X000656Y000782D02*
Y000785D01*
X000664D01*
X00066Y000783D02*
X000664Y00078D01*
X000656Y00079D02*
X000664Y000787D01*
X000656Y00079D02*
X000664Y000792D01*
X000662Y000788D02*
Y000792D01*
X000631Y000745D02*
X000638Y000743D01*
X000631Y000745D02*
X000638Y000748D01*
X000636Y000743D02*
Y000747D01*
X000638Y000752D02*
Y000754D01*
X000638Y000751D02*
X000638Y000752D01*
X000637Y000751D02*
X000638Y000751D01*
X000637Y00075D02*
X000637Y000751D01*
X000635Y00075D02*
X000637Y00075D01*
X000634Y00075D02*
X000635D01*
X000633Y00075D02*
X000634Y00075D01*
X000632Y000751D02*
X000633Y00075D01*
X000631Y000751D02*
X000632Y000751D01*
X000631Y000752D02*
X000631Y000751D01*
X000631Y000752D02*
Y000754D01*
X000638D01*
X000631Y000759D02*
X000631Y000758D01*
X000631Y000759D02*
Y00076D01*
X000631Y000761D01*
X000632Y000761D01*
X000632Y000762D01*
X000633D01*
X000634Y000761D01*
X000634Y000761D01*
X000634Y00076D01*
X000635Y000759D01*
X000635Y000758D01*
X000636Y000758D01*
X000636Y000758D01*
X000637D01*
X000638Y000758D01*
X000638Y000758D01*
X000638Y000759D01*
Y000761D01*
X000638Y000762D02*
X000638Y000761D01*
X00063Y000764D02*
X00064Y000771D01*
X000636Y000772D02*
Y000777D01*
X00063Y000775D02*
X000636Y000777D01*
X000633Y000773D02*
X000638D01*
Y000783D02*
Y000784D01*
X000638Y000781D02*
X000638Y000783D01*
X000637Y000781D02*
X000638Y000781D01*
X000637Y00078D02*
X000637Y000781D01*
X000635Y00078D02*
X000637Y00078D01*
X000634Y00078D02*
X000635D01*
X000633Y00078D02*
X000634Y00078D01*
X000632Y000781D02*
X000633Y00078D01*
X000631Y000781D02*
X000632Y000781D01*
X000631Y000783D02*
X000631Y000781D01*
X000631Y000783D02*
Y000784D01*
X000638D01*
X000631Y000789D02*
X000638Y000787D01*
X000631Y000789D02*
X000638Y000792D01*
X000636Y000788D02*
Y000791D01*
X000605Y000747D02*
X000613D01*
Y000743D02*
Y000747D01*
X000606Y000751D02*
X000606Y00075D01*
X000605Y000752D02*
X000606Y000751D01*
X000605Y000752D02*
Y000753D01*
X000606Y000754D01*
X000607Y000754D01*
X000607Y000755D01*
X000609Y000755D01*
X00061D01*
X000611Y000755D01*
X000612Y000754D01*
X000613Y000754D01*
X000613Y000753D01*
Y000752D02*
Y000753D01*
X000613Y000751D02*
X000613Y000752D01*
X000612Y00075D02*
X000613Y000751D01*
X000605Y000759D02*
X000606Y000758D01*
X000605Y000759D02*
Y000761D01*
X000606Y000762D01*
X000606Y000762D01*
X000607Y000762D01*
X000608D01*
X000608Y000762D01*
X000609Y000762D01*
X000609Y000761D01*
X000609Y000759D01*
X00061Y000759D01*
X00061Y000758D01*
X000611Y000758D01*
X000612D01*
X000612Y000758D01*
X000613Y000759D01*
X000613Y000759D01*
Y000761D01*
X000613Y000762D02*
X000613Y000761D01*
X000605Y000764D02*
X000615Y000771D01*
X000612Y000778D02*
X000613Y000777D01*
X000613Y000776D01*
Y000775D02*
Y000776D01*
X000613Y000774D02*
X000613Y000775D01*
X000612Y000774D02*
X000613Y000774D01*
X000612Y000773D02*
X000612Y000774D01*
X00061Y000773D02*
X000612D01*
X000609Y000774D02*
X00061Y000773D01*
X000609Y000774D02*
X000609Y000774D01*
X000608Y000775D02*
X000609Y000774D01*
X000608Y000775D02*
Y000776D01*
X000609Y000777D01*
X000609Y000778D01*
X000605Y000777D02*
X000609Y000778D01*
X000605Y000774D02*
Y000777D01*
X000613Y000783D02*
Y000785D01*
X000613Y000782D02*
X000613Y000783D01*
X000612Y000781D02*
X000613Y000782D01*
X000611Y000781D02*
X000612Y000781D01*
X00061Y00078D02*
X000611Y000781D01*
X000609Y00078D02*
X00061D01*
X000607Y000781D02*
X000609Y00078D01*
X000607Y000781D02*
X000607Y000781D01*
X000606Y000782D02*
X000607Y000781D01*
X000605Y000783D02*
X000606Y000782D01*
X000605Y000783D02*
Y000785D01*
X000613D01*
X000605Y00079D02*
X000613Y000787D01*
X000605Y00079D02*
X000613Y000792D01*
X000611Y000788D02*
Y000792D01*
X000732Y000741D02*
X000733Y000742D01*
X000734Y000743D01*
X000735Y000743D01*
X000738D01*
X000739Y000743D01*
X00074Y000742D01*
X00074Y000741D01*
Y00074D02*
Y000741D01*
X00074Y000739D02*
X00074Y00074D01*
X000739Y000738D02*
X00074Y000739D01*
X000738Y000738D02*
X000739Y000738D01*
X000735Y000738D02*
X000738D01*
X000734Y000738D02*
X000735Y000738D01*
X000733Y000739D02*
X000734Y000738D01*
X000732Y00074D02*
X000733Y000739D01*
X000732Y00074D02*
Y000741D01*
Y000747D02*
X000733Y000746D01*
X000732Y000747D02*
Y000749D01*
X000733Y00075D01*
X000733Y00075D01*
X000734Y00075D01*
X000735D01*
X000735Y00075D01*
X000736Y00075D01*
X000736Y000749D01*
X000736Y000748D01*
X000737Y000747D01*
X000737Y000746D01*
X000738Y000746D01*
X000739D01*
X000739Y000746D01*
X00074Y000747D01*
X00074Y000748D01*
Y000749D01*
X00074Y00075D02*
X00074Y000749D01*
X000732Y000754D02*
X00074D01*
X000732Y000757D02*
X00074D01*
X000732D02*
X000738Y00076D01*
X000732Y000762D02*
X000738Y00076D01*
X000732Y000762D02*
X00074D01*
X000732Y000765D02*
X000742Y000772D01*
X00074Y000774D02*
Y000778D01*
X000736Y000774D02*
X00074Y000778D01*
X000735Y000774D02*
X000736Y000774D01*
X000734Y000774D02*
X000735D01*
X000733Y000774D02*
X000734Y000774D01*
X000733Y000774D02*
X000733Y000774D01*
X000732Y000775D02*
X000733Y000774D01*
X000732Y000775D02*
Y000777D01*
X000733Y000778D01*
X000733Y000778D01*
X000734Y000785D02*
X000735Y000785D01*
X000734Y000784D02*
X000734Y000785D01*
X000732Y000783D02*
X000734Y000784D01*
X000732Y000783D02*
X00074D01*
Y000781D02*
Y000785D01*
Y000791D02*
Y000793D01*
X00074Y00079D02*
X00074Y000791D01*
X000739Y000789D02*
X00074Y00079D01*
X000738Y000789D02*
X000739Y000789D01*
X000737Y000788D02*
X000738Y000789D01*
X000736Y000788D02*
X000737D01*
X000734Y000789D02*
X000736Y000788D01*
X000734Y000789D02*
X000734Y000789D01*
X000733Y00079D02*
X000734Y000789D01*
X000732Y000791D02*
X000733Y00079D01*
X000732Y000791D02*
Y000793D01*
X00074D01*
X000267Y000838D02*
X000268Y000838D01*
X000268Y000837D01*
X000268Y000837D01*
X000268Y000836D01*
Y000834D02*
Y000836D01*
X000268Y000833D02*
X000268Y000834D01*
X000268Y000832D02*
X000268Y000833D01*
X000268Y000832D02*
X000268Y000832D01*
X000267Y000832D02*
X000268Y000832D01*
X000266Y000832D02*
X000267D01*
X000266Y000832D02*
X000266Y000832D01*
X000265Y000832D02*
X000266Y000832D01*
X000265Y000833D02*
X000265Y000832D01*
X000265Y000834D02*
X000265Y000833D01*
X000265Y000834D02*
Y000836D01*
X000265Y000837D01*
X000265Y000837D01*
X000266Y000838D01*
X000266Y000838D01*
X000267D01*
X00027D02*
X000272Y000832D01*
X000275Y000838D01*
X00028Y000832D02*
X00028Y000832D01*
X000279Y000832D02*
X00028Y000832D01*
X000278Y000832D02*
X000279D01*
X000277Y000832D02*
X000278Y000832D01*
X000277Y000832D02*
X000277Y000832D01*
X000276Y000833D02*
X000277Y000832D01*
X000276Y000833D02*
Y000834D01*
X000277Y000835D01*
X000277Y000835D01*
X000278Y000836D01*
X000279D01*
X00028Y000835D01*
X00028Y000835D01*
X00028Y000838D02*
X00028Y000835D01*
X000277Y000838D02*
X00028D01*
X000939Y000721D02*
Y000729D01*
X000934Y000721D02*
X000939Y000729D01*
X000934Y000721D02*
Y000729D01*
X000927Y000725D02*
X00093D01*
X00093Y000725D01*
X000931Y000724D01*
X000931Y000724D01*
Y000723D02*
Y000724D01*
X000931Y000722D02*
X000931Y000723D01*
X00093Y000722D02*
X000931Y000722D01*
X00093Y000721D02*
X00093Y000722D01*
X000927Y000721D02*
X00093D01*
X000927D02*
Y000729D01*
X000929Y000725D02*
X000931Y000729D01*
X000922Y000726D02*
X000924D01*
Y000728D01*
X000923Y000728D02*
X000924Y000728D01*
X000922Y000729D02*
X000923Y000728D01*
X000921Y000729D02*
X000922D01*
X00092Y000728D02*
X000921Y000729D01*
X00092Y000728D02*
X00092Y000728D01*
X000919Y000727D02*
X00092Y000728D01*
X000919Y000726D02*
X000919Y000727D01*
X000919Y000724D02*
Y000726D01*
Y000724D02*
X000919Y000723D01*
X00092Y000722D01*
X00092Y000722D01*
X000921Y000721D01*
X000922D01*
X000923Y000722D01*
X001062Y000726D02*
X001066Y000721D01*
X001063Y000724D02*
X001066Y000729D01*
X001062Y000721D02*
Y000729D01*
X001055Y000721D02*
Y000729D01*
X001059D01*
X001048Y000725D02*
X00105D01*
X001051Y000724D01*
X001051Y000724D01*
X001052Y000723D01*
Y000723D02*
Y000723D01*
X001051Y000722D02*
X001052Y000723D01*
X001051Y000722D02*
X001051Y000722D01*
X00105Y000721D02*
X001051Y000722D01*
X001048Y000721D02*
X00105D01*
X001048D02*
Y000729D01*
X001051D01*
X001051Y000728D01*
X001052Y000728D01*
X001052Y000727D01*
Y000726D02*
Y000727D01*
X001052Y000726D02*
X001052Y000726D01*
X001051Y000725D02*
X001052Y000726D01*
X00105Y000725D02*
X001051Y000725D01*
X000428Y000292D02*
Y000295D01*
X000427Y000291D02*
X000428Y000292D01*
X000427Y000291D02*
X000427Y000291D01*
X000426Y000291D02*
X000427Y000291D01*
X000425Y000291D02*
X000426D01*
X000424Y000291D02*
X000425Y000291D01*
X000424Y000291D02*
X000424Y000291D01*
X000424Y000292D02*
X000424Y000291D01*
X000424Y000292D02*
Y000295D01*
X000431D01*
X000428Y000293D02*
X000431Y000291D01*
X000424Y000298D02*
Y000302D01*
X000431D01*
Y000298D02*
Y000302D01*
X000427Y000299D02*
Y000302D01*
X000424Y000306D02*
X000424Y000305D01*
X000424Y000306D02*
Y000308D01*
X000424Y000309D01*
X000424Y000309D01*
X000425Y000309D01*
X000426D01*
X000427Y000309D01*
X000427Y000309D01*
X000427Y000308D01*
X000428Y000306D01*
X000428Y000306D01*
X000428Y000305D01*
X000429Y000305D01*
X00043D01*
X000431Y000305D01*
X000431Y000306D01*
X000431Y000306D01*
Y000308D01*
X000431Y000309D02*
X000431Y000308D01*
X000412Y000294D02*
X000419Y000296D01*
X000412Y000299D02*
X000419Y000296D01*
X000419Y000305D02*
X000419Y000305D01*
X000419Y000304D01*
Y000302D02*
Y000304D01*
X000419Y000302D02*
X000419Y000302D01*
X000419Y000301D02*
X000419Y000302D01*
X000418Y000301D02*
X000419Y000301D01*
X000416Y000301D02*
X000418D01*
X000415Y000301D02*
X000416Y000301D01*
X000415Y000302D02*
X000415Y000301D01*
X000415Y000302D02*
X000415Y000302D01*
X000415Y000302D02*
Y000304D01*
X000415Y000305D01*
X000415Y000305D01*
X000412Y000305D02*
X000415Y000305D01*
X000412Y000301D02*
Y000305D01*
X000407Y000292D02*
Y000294D01*
X000407Y000291D02*
X000407Y000292D01*
X000406Y000291D02*
X000407Y000291D01*
X000406Y00029D02*
X000406Y000291D01*
X000404Y00029D02*
X000406Y00029D01*
X000403Y00029D02*
X000404D01*
X000402Y00029D02*
X000403Y00029D01*
X000401Y000291D02*
X000402Y00029D01*
X0004Y000291D02*
X000401Y000291D01*
X0004Y000292D02*
X0004Y000291D01*
X0004Y000292D02*
Y000294D01*
X000407D01*
X0004Y000298D02*
X000407D01*
X0004Y000302D02*
X000407Y000298D01*
X0004Y000302D02*
X000407D01*
X000404Y000305D02*
Y000307D01*
Y000305D02*
X000407D01*
X000407Y000306D01*
X000407Y000307D01*
Y000308D01*
X000407Y000309D02*
X000407Y000308D01*
X000406Y000309D02*
X000407Y000309D01*
X000406Y00031D02*
X000406Y000309D01*
X000404Y00031D02*
X000406Y00031D01*
X000403Y00031D02*
X000404D01*
X000402Y00031D02*
X000403Y00031D01*
X000401Y000309D02*
X000402Y00031D01*
X0004Y000309D02*
X000401Y000309D01*
X0004Y000308D02*
X0004Y000309D01*
X0004Y000306D02*
Y000308D01*
Y000306D02*
X0004Y000306D01*
X001073Y000677D02*
X001073Y000676D01*
X001073Y000677D02*
Y000678D01*
X001073Y000679D01*
X001073Y000679D01*
X001074D01*
X001074Y000679D01*
X001074Y000678D01*
Y000677D02*
Y000678D01*
Y000677D02*
X001075Y000676D01*
X001075Y000676D01*
X001075D01*
X001076Y000676D01*
X001076Y000677D01*
Y000678D01*
X001076Y000679D02*
X001076Y000678D01*
X001076Y000685D02*
X001076Y000684D01*
Y000683D02*
Y000684D01*
X001076Y000682D02*
X001076Y000683D01*
X001076Y000682D02*
X001076Y000682D01*
X001075Y000682D02*
X001076Y000682D01*
X001074Y000682D02*
X001075D01*
X001073Y000682D02*
X001074Y000682D01*
X001073Y000682D02*
X001073Y000682D01*
X001073Y000683D02*
X001073Y000682D01*
X001073Y000683D02*
Y000684D01*
X001073Y000685D01*
X001073D02*
X001078D01*
X001076Y000692D02*
X001076Y000691D01*
Y00069D02*
Y000691D01*
X001076Y000689D02*
X001076Y00069D01*
X001076Y000689D02*
X001076Y000689D01*
X001075Y000688D02*
X001076Y000689D01*
X001074Y000688D02*
X001075D01*
X001073Y000689D02*
X001074Y000688D01*
X001073Y000689D02*
X001073Y000689D01*
X001073Y00069D02*
X001073Y000689D01*
X001073Y00069D02*
Y000691D01*
X001073Y000692D01*
X001073D02*
X001078D01*
X001072Y000698D02*
X001072Y000699D01*
X001072Y000697D02*
X001072Y000698D01*
X001071Y000697D02*
X001072Y000697D01*
X001071Y000697D02*
X001076D01*
Y000695D02*
Y000699D01*
Y000706D02*
Y000707D01*
X001076Y000708D02*
X001076Y000707D01*
X001075Y000708D02*
X001076Y000708D01*
X001071Y000708D02*
X001075D01*
X001073Y000706D02*
Y000709D01*
X001074Y000711D02*
X001074Y000712D01*
Y000714D01*
X001074Y000714D01*
X001075Y000715D01*
X001075D01*
X001076Y000714D01*
X001076Y000714D01*
Y000712D02*
Y000714D01*
X001076Y000711D02*
X001076Y000712D01*
X001073Y000714D02*
X001073Y000714D01*
X001073Y000712D02*
Y000714D01*
Y000712D02*
X001073Y000712D01*
X001073Y000711D01*
X001076D01*
X001073Y000719D02*
Y000721D01*
X001073Y000718D02*
X001073Y000719D01*
X001073Y000718D02*
X001073Y000718D01*
X001072Y000718D02*
X001073Y000718D01*
X001072Y000718D02*
X001072D01*
X001071Y000718D02*
X001072Y000718D01*
X001071Y000718D02*
X001071Y000718D01*
X001071Y000719D02*
X001071Y000718D01*
X001071Y000719D02*
Y000721D01*
X001076D01*
Y000719D02*
Y000721D01*
X001076Y000718D02*
X001076Y000719D01*
X001076Y000718D02*
X001076Y000718D01*
X001075Y000717D02*
X001076Y000718D01*
X001074Y000717D02*
X001075D01*
X001074Y000718D02*
X001074Y000717D01*
X001074Y000718D02*
X001074Y000718D01*
X001073Y000719D02*
X001074Y000718D01*
X001076Y000734D02*
X001076Y000734D01*
X001076Y000733D01*
Y000731D02*
Y000733D01*
X001076Y000731D02*
X001076Y000731D01*
X001076Y00073D02*
X001076Y000731D01*
X001075Y00073D02*
X001076Y00073D01*
X001074Y00073D02*
X001075D01*
X001073Y00073D02*
X001074Y00073D01*
X001073Y000731D02*
X001073Y00073D01*
X001073Y000731D02*
X001073Y000731D01*
X001073Y000731D02*
Y000732D01*
X001071Y00073D02*
X001073Y000732D01*
X001071Y00073D02*
Y000734D01*
Y000736D02*
X001076Y000738D01*
X001071Y000741D02*
X001076Y000738D01*
X001076Y000747D02*
X001076Y000747D01*
X001076Y000746D01*
Y000744D02*
Y000746D01*
X001076Y000743D02*
X001076Y000744D01*
X001076Y000743D02*
X001076Y000743D01*
X001075Y000743D02*
X001076Y000743D01*
X001074Y000743D02*
X001075D01*
X001073Y000743D02*
X001074Y000743D01*
X001073Y000743D02*
X001073Y000743D01*
X001073Y000744D02*
X001073Y000743D01*
X001073Y000744D02*
Y000745D01*
X001071Y000743D02*
X001073Y000745D01*
X001071Y000743D02*
Y000747D01*
X001076Y000757D02*
Y000759D01*
X001076Y000756D02*
X001076Y000757D01*
X001075Y000756D02*
X001076Y000756D01*
X001075Y000755D02*
X001075Y000756D01*
X001074Y000755D02*
X001075Y000755D01*
X001073Y000755D02*
X001074D01*
X001072Y000755D02*
X001073Y000755D01*
X001072Y000756D02*
X001072Y000755D01*
X001071Y000756D02*
X001072Y000756D01*
X001071Y000757D02*
X001071Y000756D01*
X001071Y000757D02*
Y000759D01*
X001076D01*
X001071Y000762D02*
X001076D01*
X001071Y000766D02*
X001076Y000762D01*
X001071Y000766D02*
X001076D01*
X001074Y000769D02*
Y000771D01*
Y000769D02*
X001076D01*
X001076Y00077D01*
X001076Y000771D01*
Y000772D01*
X001076Y000773D02*
X001076Y000772D01*
X001075Y000773D02*
X001076Y000773D01*
X001075Y000774D02*
X001075Y000773D01*
X001074Y000774D02*
X001075Y000774D01*
X001073Y000774D02*
X001074D01*
X001072Y000774D02*
X001073Y000774D01*
X001072Y000773D02*
X001072Y000774D01*
X001071Y000773D02*
X001072Y000773D01*
X001071Y000772D02*
X001071Y000773D01*
X001071Y000771D02*
Y000772D01*
Y000771D02*
X001071Y00077D01*
X001076Y000784D02*
Y000786D01*
X001076Y000783D02*
X001076Y000784D01*
X001075Y000783D02*
X001076Y000783D01*
X001075Y000782D02*
X001075Y000783D01*
X001074Y000782D02*
X001075Y000782D01*
X001073Y000782D02*
X001074D01*
X001072Y000782D02*
X001073Y000782D01*
X001072Y000783D02*
X001072Y000782D01*
X001071Y000783D02*
X001072Y000783D01*
X001071Y000784D02*
X001071Y000783D01*
X001071Y000784D02*
Y000786D01*
X001076D01*
X001073Y000793D02*
X001076Y000789D01*
X001073D02*
X001076Y000793D01*
X001071Y000796D02*
X001076D01*
X001071Y000794D02*
Y000798D01*
X001076Y000808D02*
Y00081D01*
X001076Y000807D02*
X001076Y000808D01*
X001075Y000806D02*
X001076Y000807D01*
X001075Y000806D02*
X001075Y000806D01*
X001074Y000806D02*
X001075Y000806D01*
X001073Y000806D02*
X001074D01*
X001072Y000806D02*
X001073Y000806D01*
X001072Y000806D02*
X001072Y000806D01*
X001071Y000807D02*
X001072Y000806D01*
X001071Y000808D02*
X001071Y000807D01*
X001071Y000808D02*
Y00081D01*
X001076D01*
X001073Y000816D02*
X001076Y000813D01*
X001073D02*
X001076Y000816D01*
X001074Y00082D02*
Y000823D01*
X001073Y000819D02*
X001074Y00082D01*
X001073Y000819D02*
X001073Y000819D01*
X001073Y000819D02*
X001073Y000819D01*
X001072Y000819D02*
X001073D01*
X001071Y000819D02*
X001072Y000819D01*
X001071Y000819D02*
X001071Y000819D01*
X001071Y00082D02*
X001071Y000819D01*
X001071Y00082D02*
Y000823D01*
X001076D01*
X001074Y000821D02*
X001076Y000819D01*
X001078Y000826D02*
X001104D01*
Y000673D02*
Y000826D01*
X001078Y000673D02*
X001104D01*
X001078D02*
Y000826D01*
X000754Y000289D02*
Y0003D01*
X000754Y000302D01*
X000756Y000303D01*
X000758D01*
X000759Y000302D01*
X00076Y000301D01*
Y000289D02*
Y000303D01*
X000766D02*
X00077Y000289D01*
X000773Y000303D01*
X000779Y000289D02*
Y000291D01*
X00078Y00029D01*
X000779Y000289D02*
X00078Y00029D01*
X000778D02*
X000779Y000289D01*
X000778Y00029D02*
X000779Y000291D01*
X000786Y000298D02*
X000793Y000296D01*
X000786Y000298D02*
Y0003D01*
X000786Y000302D01*
X000788Y000303D01*
X000791D01*
X000792Y000302D01*
X000793Y0003D01*
Y000292D02*
Y0003D01*
X000792Y00029D02*
X000793Y000292D01*
X000791Y000289D02*
X000792Y00029D01*
X000788Y000289D02*
X000791D01*
X000786Y00029D02*
X000788Y000289D01*
X0008Y000292D02*
Y00031D01*
X000799Y00029D02*
X0008Y000292D01*
X000798Y000289D02*
X000799Y00029D01*
X000807Y000302D02*
X000809Y000303D01*
X000812D01*
X000813Y000302D01*
X000814Y000301D01*
X000815Y000299D01*
Y000293D02*
Y000299D01*
X000814Y000291D02*
X000815Y000293D01*
X000813Y00029D02*
X000814Y000291D01*
X000812Y000289D02*
X000813Y00029D01*
X000809Y000289D02*
X000812D01*
X000807Y00029D02*
X000809Y000289D01*
X000812Y000283D02*
X000814Y000284D01*
X00081Y000283D02*
X000812D01*
X000809Y000284D02*
X00081Y000283D01*
X000808Y000285D02*
X000809Y000284D01*
X000807Y000287D02*
X000808Y000285D01*
X000807Y000287D02*
Y000303D01*
X000821Y000289D02*
Y0003D01*
X000822Y000302D01*
X000823Y000303D01*
X000825D01*
X000827Y000302D01*
X000828Y000301D01*
Y000289D02*
Y000303D01*
X000835Y000291D02*
X000836Y00029D01*
X000837Y000289D01*
X000839D01*
X000841Y00029D01*
X000841Y000292D01*
Y000303D01*
X000835Y000289D02*
Y000303D01*
X000849Y000308D02*
Y00031D01*
X000848Y000309D02*
X000849Y00031D01*
X000848Y000309D02*
X000849Y000308D01*
X000849Y000309D01*
X000849Y00031D02*
X000849Y000309D01*
X000851Y000283D02*
X000852D01*
X000849Y000284D02*
X000851Y000283D01*
X000849Y000286D02*
X000849Y000284D01*
X000849Y000286D02*
Y000303D01*
X000854Y000311D02*
X000867Y000285D01*
X00087Y000311D02*
X000883Y000285D01*
X000888Y0003D02*
Y000302D01*
X000889Y000301D01*
X000888Y0003D02*
X000889Y000301D01*
X000887D02*
X000888Y0003D01*
X000887Y000301D02*
X000888Y000302D01*
Y000289D02*
Y000291D01*
X000889Y00029D01*
X000888Y000289D02*
X000889Y00029D01*
X000887D02*
X000888Y000289D01*
X000887Y00029D02*
X000888Y000291D01*
X0009Y000289D02*
X000902Y00029D01*
X000897Y000289D02*
X0009D01*
X000896Y00029D02*
X000897Y000289D01*
X000895Y000291D02*
X000896Y00029D01*
X000894Y000293D02*
X000895Y000291D01*
X000894Y000293D02*
Y000299D01*
X000895Y000301D01*
X000896Y000302D01*
X000897Y000303D01*
X0009D01*
X000902Y000302D01*
Y000283D02*
Y000303D01*
X000907Y000289D02*
X000908D01*
X00091Y00029D01*
X00091Y000292D01*
Y00031D01*
X000907Y000303D02*
X000913D01*
X000915Y000289D02*
X000917D01*
X000918Y00029D01*
X000919Y000292D01*
Y00031D01*
X000915Y000303D02*
X000921D01*
X000932Y000302D02*
X000933Y000301D01*
X000931Y000303D02*
X000932Y000302D01*
X000929Y000303D02*
X000931D01*
X000927Y000302D02*
X000929Y000303D01*
X000926Y0003D02*
X000927Y000302D01*
X000926Y000289D02*
Y0003D01*
X000933Y000289D02*
Y00031D01*
M02*
